<svg xmlns="http://www.w3.org/2000/svg" xmlns:xlink="http://www.w3.org/1999/xlink" width="146" height="146" viewBox="0 0 146 146">
  <defs>
    <clipPath id="clip-path">
      <rect id="Rectangle_378696" data-name="Rectangle 378696" width="102" height="102" transform="translate(328 757)" fill="#fff" stroke="#707070" stroke-width="1"/>
    </clipPath>
    <clipPath id="clip-path-2">
      <rect id="Rectangle_378697" data-name="Rectangle 378697" width="80.18" height="89.205" fill="#5e5a55"/>
    </clipPath>
  </defs>
  <g id="Group_1074713" data-name="Group 1074713" transform="translate(-307 -730)">
    <g id="Group_1074294" data-name="Group 1074294" transform="translate(38 -228)">
      <path id="Path_608969" data-name="Path 608969" d="M73,0A73,73,0,1,1,0,73,73,73,0,0,1,73,0Z" transform="translate(269 958)" fill="#fff8e7"/>
    </g>
    <g id="Mask_Group_154409" data-name="Mask Group 154409" transform="translate(1 -5)" clip-path="url(#clip-path)">
      <g id="Group_1074296" data-name="Group 1074296" transform="translate(336 760)">
        <g id="Group_1074295" data-name="Group 1074295" transform="translate(2.869 3.191)" clip-path="url(#clip-path-2)">
          <path id="Path_612510" data-name="Path 612510" d="M31.1,54.689h-.929q-12.227-.005-24.454-.009a5.847,5.847,0,0,1-2.353-.373A5.343,5.343,0,0,1,.09,49.866,10.162,10.162,0,0,1,0,48.354Q0,27.114,0,5.874A6.2,6.2,0,0,1,.9,2.523,5.344,5.344,0,0,1,5.627,0c.106,0,.214,0,.321,0H74.34a5.327,5.327,0,0,1,5.232,3.07,7.081,7.081,0,0,1,.607,3.149q0,5.834,0,11.669,0,15.365,0,30.731a6.549,6.549,0,0,1-.986,3.727,4.907,4.907,0,0,1-4.278,2.32c-4.677.021-9.354.011-14.031.011q-5.733,0-11.466-.009c-.319,0-.442.059-.426.414a80.193,80.193,0,0,0,.726,8.231c.128.854.121.852.965.851q2.425,0,4.851,0a1.252,1.252,0,0,1,1.224.81,1.351,1.351,0,0,1-1.214,1.831,3.8,3.8,0,0,1-.44.012q-15.033,0-30.067,0a1.755,1.755,0,0,1-1.2-.358,1.236,1.236,0,0,1-.466-1.346,1.328,1.328,0,0,1,1.171-.942c.293-.021.588-.018.881-.019,1.47,0,2.94-.013,4.409.005.342,0,.485-.125.528-.437.164-1.212.386-2.42.487-3.637.143-1.737.2-3.481.291-5.222a.937.937,0,0,0-.038-.179M77.477,42.2V41.81q0-17.344,0-34.688c0-.719.013-1.439-.023-2.157a2.226,2.226,0,0,0-.232-.876,2.693,2.693,0,0,0-2.57-1.526q-34.5-.007-69,0c-.12,0-.242-.009-.361,0A2.678,2.678,0,0,0,2.712,5.083c-.012.586,0,1.172,0,1.758q0,17.144,0,34.288c0,.267-.019.535.007.8.009.1.122.26.19.261,1.079.017,2.157.012,3.271.012.01-.192.024-.348.024-.5q0-16.265,0-32.529a5.637,5.637,0,0,1,.049-.717A2.9,2.9,0,0,1,8.653,6a22.535,22.535,0,0,1,2.56-.075Q40.939,5.921,70.666,5.9a3.205,3.205,0,0,1,3.346,3.349c-.072,2.049-.02,4.1-.019,6.154,0,.506.026,1.013.011,1.518a1.229,1.229,0,0,1-.838,1.156,1.161,1.161,0,0,1-1.267-.224,1.723,1.723,0,0,1-.525-1.449c0-2.371,0-4.742,0-7.113,0-.734.135-.753-.768-.753q-30.308,0-60.617,0c-1.34,0-1.174-.2-1.175,1.162q-.01,15.945,0,31.89v.569H71.378v-.39q0-9.092,0-18.183a5.439,5.439,0,0,1,.06-.914,1.274,1.274,0,0,1,2.526.035,5.46,5.46,0,0,1,.03.757q0,8.892,0,17.784c0,.946.005.946.963.946h2.52M2.739,44.778c-.013.128-.03.218-.031.309,0,1.479.028,2.957,0,4.435a2.65,2.65,0,0,0,2.715,2.6c.305-.026.615-.01.922-.01H73.726c.4,0,.8.018,1.2.013a2.545,2.545,0,0,0,2.529-2.438c.035-1.584.011-3.169.01-4.755a.663.663,0,0,0-.042-.157Zm37.325,19.4v0h6.77c.216,0,.447.042.4-.313-.156-1.1-.32-2.208-.444-3.315-.118-1.055-.2-2.115-.276-3.174-.052-.756-.068-1.515-.081-2.274-.005-.316-.107-.437-.446-.435-3.886.012-7.772.009-11.657.01-.552,0-.56,0-.571.561a49.7,49.7,0,0,1-.783,8.564c-.064.326.071.379.362.378,2.243-.01,4.487-.005,6.73-.005" transform="translate(0.001 0)" fill="#5e5a55"/>
          <path id="Path_612511" data-name="Path 612511" d="M12.978,237.137h68.38c-.137-.456-.263-.9-.4-1.331q-1.348-4.238-2.7-8.473c-.3-.949-.611-1.9-.941-2.837a.481.481,0,0,0-.354-.263q-15.313-.006-30.627.013-6.274,0-12.548,0-.561,0-1.122-.034a1.153,1.153,0,0,1-1.228-1.151,1.207,1.207,0,0,1,1.1-1.4,5.815,5.815,0,0,1,.918-.064q21.528-.005,43.055,0a5.4,5.4,0,0,1,1.345.17,2.709,2.709,0,0,1,1.94,1.949c.582,1.809,1.148,3.623,1.725,5.433q.937,2.944,1.879,5.887c.137.43.3.856.393,1.3a2.69,2.69,0,0,1-2.673,3.384c-.12,0-.241,0-.361,0q-33.614,0-67.229,0a3.044,3.044,0,0,1-2.526-1.054,2.242,2.242,0,0,1-.52-2.089c.465-1.649,1-3.277,1.518-4.911.836-2.649,1.683-5.295,2.516-7.945a2.8,2.8,0,0,1,2.565-2.07c1.012-.063,2.029-.058,3.044-.062q3.006-.012,6.013,0a3.215,3.215,0,0,1,.943.139,1.246,1.246,0,0,1,.9,1.347,1.261,1.261,0,0,1-1.129,1.122,3.775,3.775,0,0,1-.6.041c-2.913-.006-5.826-.01-8.739-.032a.5.5,0,0,0-.574.4c-.688,2.18-1.393,4.355-2.087,6.534q-.9,2.831-1.789,5.665c-.031.1-.055.2-.089.326" transform="translate(-7.069 -150.514)" fill="#5e5a55"/>
          <path id="Path_612512" data-name="Path 612512" d="M98.408,240.858c-.347,0-.7.023-1.041-.005a1.273,1.273,0,0,1-1.134-1.062,1.238,1.238,0,0,1,.725-1.336,3.512,3.512,0,0,1,2.8-.029,1.263,1.263,0,0,1,.819,1.361,1.326,1.326,0,0,1-1.289,1.05c-.293.015-.588,0-.881,0v.019" transform="translate(-65.358 -161.766)" fill="#5e5a55"/>
          <path id="Path_612513" data-name="Path 612513" d="M143.015,241.04c-.407-.023-.74-.034-1.071-.064a1.149,1.149,0,0,1-1.037-.852,1.225,1.225,0,0,1,.439-1.385,1.432,1.432,0,0,1,.644-.294,9.1,9.1,0,0,1,2.021-.017,1.275,1.275,0,0,1,.878,2.076,1.523,1.523,0,0,1-.795.456,5.687,5.687,0,0,1-1.078.079" transform="translate(-95.677 -161.922)" fill="#5e5a55"/>
          <path id="Path_612514" data-name="Path 612514" d="M120.662,240.867c-.382-.02-.69-.029-1-.055a1.292,1.292,0,0,1-1.19-1,1.184,1.184,0,0,1,.69-1.35,3.342,3.342,0,0,1,3.043.062,1.238,1.238,0,0,1-.5,2.283c-.371.04-.745.047-1.045.065" transform="translate(-80.458 -161.748)" fill="#5e5a55"/>
          <path id="Path_612515" data-name="Path 612515" d="M165.263,240.861c-.4-.021-.8-.023-1.2-.069a1.2,1.2,0,0,1-1.043-.965,1.176,1.176,0,0,1,.474-1.266.7.7,0,0,1,.132-.089,3.366,3.366,0,0,1,3.106.032,1.232,1.232,0,0,1-.553,2.292c-.305.02-.613,0-.92,0,0,.021,0,.041,0,.061" transform="translate(-110.714 -161.739)" fill="#5e5a55"/>
          <path id="Path_612516" data-name="Path 612516" d="M53.779,240.89c-.306-.018-.613-.029-.919-.055a1.128,1.128,0,0,1-1-.733,1.281,1.281,0,0,1,.328-1.426,1.468,1.468,0,0,1,.4-.254,3.607,3.607,0,0,1,2.692.017,1.2,1.2,0,0,1,.794,1.367,1.156,1.156,0,0,1-1.178,1.039c-.369.037-.745.006-1.118.006,0,.013,0,.025,0,.038" transform="translate(-35.173 -161.781)" fill="#5e5a55"/>
          <path id="Path_612517" data-name="Path 612517" d="M76.132,240.87c-.373-.021-.747-.027-1.118-.065a1.216,1.216,0,0,1-1.074-.981,1.166,1.166,0,0,1,.591-1.325,3.405,3.405,0,0,1,3.048-.029,1.239,1.239,0,0,1-.525,2.341c-.306.019-.614,0-.92,0,0,.019,0,.038,0,.056" transform="translate(-50.204 -161.749)" fill="#5e5a55"/>
          <path id="Path_612518" data-name="Path 612518" d="M186.975,240.879c-.373-.021-.747-.033-1.119-.064a1.069,1.069,0,0,1-.977-.767,1.187,1.187,0,0,1,.242-1.3,1.057,1.057,0,0,1,.278-.225,3.377,3.377,0,0,1,3.078-.017,1.184,1.184,0,0,1,.589,1.431,1.116,1.116,0,0,1-1.13.887c-.318.022-.64,0-.96,0v.05" transform="translate(-125.52 -161.763)" fill="#5e5a55"/>
          <path id="Path_612519" data-name="Path 612519" d="M98.383,255.86a11.349,11.349,0,0,1-1.183-.1,1.2,1.2,0,0,1-.957-1.171,1.131,1.131,0,0,1,.933-1.221,13.291,13.291,0,0,1,2.425-.008,1.276,1.276,0,0,1,1.041,1.246,1.343,1.343,0,0,1-1.054,1.158,11.753,11.753,0,0,1-1.207.092" transform="translate(-65.375 -172.067)" fill="#5e5a55"/>
          <path id="Path_612520" data-name="Path 612520" d="M120.52,255.832a10.79,10.79,0,0,1-1.192-.1,1.291,1.291,0,0,1-.993-1.246,1.222,1.222,0,0,1,1-1.149,12.258,12.258,0,0,1,2.308-.025,1.183,1.183,0,0,1,1.078,1.341,1.257,1.257,0,0,1-1.274,1.144c-.306.018-.614,0-.921,0l0,.031" transform="translate(-80.382 -172.037)" fill="#5e5a55"/>
          <path id="Path_612521" data-name="Path 612521" d="M165.212,255.892a12.1,12.1,0,0,1-1.239-.1A1.186,1.186,0,0,1,163,254.64a1.172,1.172,0,0,1,.92-1.231,14.331,14.331,0,0,1,2.538,0,1.229,1.229,0,0,1-.024,2.367,11.114,11.114,0,0,1-1.222.115" transform="translate(-110.72 -172.095)" fill="#5e5a55"/>
          <path id="Path_612522" data-name="Path 612522" d="M76.1,255.813a10.99,10.99,0,0,1-1.193-.093,1.2,1.2,0,0,1-.989-1.226,1.174,1.174,0,0,1,.994-1.177,11.592,11.592,0,0,1,2.23-.033,1.2,1.2,0,0,1,1.124,1.274,1.265,1.265,0,0,1-1.284,1.225c-.293.02-.588,0-.881,0,0,.009,0,.019,0,.028" transform="translate(-50.212 -172.02)" fill="#5e5a55"/>
          <path id="Path_612523" data-name="Path 612523" d="M53.9,255.847a11.229,11.229,0,0,1-1.228-.11,1.142,1.142,0,0,1-.895-1.207,1.09,1.09,0,0,1,.882-1.17A12.26,12.26,0,0,1,55,253.328a1.2,1.2,0,0,1,1.089,1.333,1.284,1.284,0,0,1-1.268,1.15c-.305.017-.613,0-.919,0,0,.011,0,.022,0,.033" transform="translate(-35.172 -172.049)" fill="#5e5a55"/>
          <path id="Path_612524" data-name="Path 612524" d="M142.992,255.895a11.7,11.7,0,0,1-1.232-.109,1.162,1.162,0,0,1-.923-1.156,1.127,1.127,0,0,1,.89-1.216,13.8,13.8,0,0,1,2.542,0,1.161,1.161,0,0,1,.883,1.3,1.278,1.278,0,0,1-1.237,1.142c-.306.021-.614,0-.921,0l0,.033" transform="translate(-95.666 -172.097)" fill="#5e5a55"/>
          <path id="Path_612525" data-name="Path 612525" d="M186.994,255.843a12.283,12.283,0,0,1-1.233-.105,1.185,1.185,0,0,1-.949-1.175,1.159,1.159,0,0,1,.911-1.206,12.046,12.046,0,0,1,2.348-.031,1.14,1.14,0,0,1,1.048,1.318,1.216,1.216,0,0,1-1.241,1.165c-.293.018-.588,0-.882,0,0,.01,0,.021,0,.031" transform="translate(-125.537 -172.046)" fill="#5e5a55"/>
          <path id="Path_612526" data-name="Path 612526" d="M56.737,67.381a3.448,3.448,0,0,1,.366-.716q2.886-3.4,5.8-6.772,3.869-4.5,7.744-9a1.335,1.335,0,0,1,1.5-.568,1.235,1.235,0,0,1,.571,2.03c-1.034,1.237-2.091,2.455-3.143,3.678Q64.464,61.973,59.343,67.9a2.5,2.5,0,0,1-.915.741,1.367,1.367,0,0,1-1.692-1.264" transform="translate(-38.54 -34.138)" fill="#5e5a55"/>
          <path id="Path_612527" data-name="Path 612527" d="M58.373,67.546a1.467,1.467,0,0,1-1.354-.857,1.04,1.04,0,0,1,.183-1.22c1.228-1.384,2.443-2.779,3.677-4.157a1.253,1.253,0,0,1,1.283-.467,1.116,1.116,0,0,1,.965,1.029,1.649,1.649,0,0,1-.3,1.063c-1.226,1.421-2.5,2.8-3.776,4.176a2.722,2.722,0,0,1-.682.434" transform="translate(-38.649 -41.304)" fill="#5e5a55"/>
          <path id="Path_612528" data-name="Path 612528" d="M116.577,149.584c-.868,0-1.737.013-2.6,0a1.228,1.228,0,0,1-1.192-.848,1.078,1.078,0,0,1,.292-1.277,1.748,1.748,0,0,1,1-.4c1.7-.039,3.393-.026,5.09-.008a1.3,1.3,0,0,1,1.282.724,1.21,1.21,0,0,1-.792,1.733,5.874,5.874,0,0,1-1.152.114c-.641.018-1.283,0-1.924,0v-.038" transform="translate(-76.545 -99.872)" fill="#5e5a55"/>
        </g>
      </g>
    </g>
  </g>
</svg>
