<svg xmlns="http://www.w3.org/2000/svg" xmlns:xlink="http://www.w3.org/1999/xlink" width="146" height="146" viewBox="0 0 146 146">
  <defs>
    <clipPath id="clip-path">
      <rect id="Rectangle_378699" data-name="Rectangle 378699" width="102" height="102" transform="translate(328 757)" fill="#fff" stroke="#707070" stroke-width="1"/>
    </clipPath>
    <clipPath id="clip-path-2">
      <rect id="Rectangle_378702" data-name="Rectangle 378702" width="91.912" height="91.557" fill="#615842"/>
    </clipPath>
  </defs>
  <g id="Group_1074714" data-name="Group 1074714" transform="translate(-727 -730)">
    <g id="Group_1074292" data-name="Group 1074292" transform="translate(458 -228)">
      <path id="Path_608969" data-name="Path 608969" d="M73,0A73,73,0,1,1,0,73,73,73,0,0,1,73,0Z" transform="translate(269 958)" fill="#fff8e7"/>
    </g>
    <g id="Mask_Group_154410" data-name="Mask Group 154410" transform="translate(421 -5)" clip-path="url(#clip-path)">
      <g id="Group_1074302" data-name="Group 1074302" transform="translate(333 762)">
        <g id="Group_1074301" data-name="Group 1074301" clip-path="url(#clip-path-2)">
          <path id="Path_612567" data-name="Path 612567" d="M45.955,91.554q-18.524,0-37.048,0A8.6,8.6,0,0,1,1.2,87.3,8.372,8.372,0,0,1,.009,82.757Q-.009,54.981,0,27.2A8.6,8.6,0,0,1,6.439,18.8a10.114,10.114,0,0,1,2.52-.263q10.134-.037,20.268-.02a1.3,1.3,0,0,0,.891-.319q4.764-3.958,9.546-7.893a.5.5,0,0,0,.177-.661,20.745,20.745,0,0,1-.668-2.27,5.344,5.344,0,0,1,.342-2.7,6.782,6.782,0,0,1,13.1.816,6.467,6.467,0,0,1-.424,3.875c-.26.668-.274.647.28,1.1q3.513,2.9,7.017,5.8c.737.611,1.484,1.21,2.205,1.838a1.625,1.625,0,0,0,1.151.419c2.585-.019,5.169-.019,7.754-.021,3.775,0,7.549-.008,11.324.007a18.251,18.251,0,0,1,2.741.14,8.316,8.316,0,0,1,5.858,3.816,8.951,8.951,0,0,1,1.381,5.065q.005,23.181,0,46.361c0,2.927.014,5.853,0,8.78a8.58,8.58,0,0,1-1.647,5.306,8.357,8.357,0,0,1-6.189,3.492c-.639.052-1.282.077-1.924.077q-18.094.007-36.187,0M46,21.172v-.008q-18.4,0-36.8.008a9.191,9.191,0,0,0-2.116.2A5.784,5.784,0,0,0,2.64,27.195Q2.6,55.072,2.652,82.95A6.255,6.255,0,0,0,3.2,85.4,5.625,5.625,0,0,0,8.661,88.91q37.294.043,74.587,0a6.634,6.634,0,0,0,2.273-.442,5.924,5.924,0,0,0,3.76-5.722q0-22.114,0-44.227c0-3.775.01-7.549,0-11.324a5.986,5.986,0,0,0-.723-2.913A5.862,5.862,0,0,0,83,21.168q-18.5.013-37.006,0M33.834,18.488H58.072l-7.816-6.464a6.874,6.874,0,0,1-8.6,0q-1.952,1.618-3.889,3.223c-1.291,1.068-2.585,2.133-3.929,3.241m12.128-7.677a3.965,3.965,0,0,0,4.154-4.092,4.161,4.161,0,0,0-8.321.088c-.015,2.364,2.173,4.308,4.167,4" transform="translate(0 0)" fill="#615842"/>
          <path id="Path_612568" data-name="Path 612568" d="M136.111,104.524a3.415,3.415,0,0,0,3.337,3.548c.559.025,1.121-.026,1.682-.015a1.379,1.379,0,0,1,1.433,1.569,5.943,5.943,0,0,1-3.593,5.309c-.086.041-.174.081-.263.113-.787.283-.753.283-.762,1.133a44.968,44.968,0,0,1-.149,5.158,7.924,7.924,0,0,1-5.657,6.818,6.857,6.857,0,0,1-3.435.242,3.943,3.943,0,0,1-2.637-1.873,4.944,4.944,0,0,1-.789-2.758c0-1.887-.029-3.775.037-5.66.052-1.479-.241-2.072-1.988-2.14a7.593,7.593,0,0,1-6.736-5.238,9.173,9.173,0,0,1,5.044-11.523,8.068,8.068,0,0,1,3.721-.634,3.383,3.383,0,0,1,2.853,2.825c.012.078.025.157.036.231h2.014a7.286,7.286,0,0,1-1.412-3.687c-1.105,0-2.2,0-3.286,0-1.2-.005-2.408.012-3.609-.036a5.049,5.049,0,0,1-4.653-4.429,4.488,4.488,0,0,1,1.929-4.716,4.428,4.428,0,0,1,2.727-.707c.962.041.956.014,1.341-.861a4.031,4.031,0,0,1,3.741-2.557c1.829-.077,3.664-.045,5.5-.035.344,0,.436-.089.446-.429a4.379,4.379,0,0,1,4.327-4.317q1.722-.047,3.446-.017a3.755,3.755,0,0,1,3.875,3.691.986.986,0,0,0,1.076,1.035,1.013,1.013,0,0,0,1.221-.97c.043-.3.075-.6.138-.89a3.587,3.587,0,0,1,3.379-2.839c2.611-.034,5.224-.055,7.835,0a6.441,6.441,0,0,1,6.112,5.186,7.881,7.881,0,0,1,.155,1.545,1.353,1.353,0,0,1-1.324,1.472,2.858,2.858,0,0,0-1.03.351,1.534,1.534,0,0,0-.826,1.489,4.371,4.371,0,0,1-.9,3.275,5.179,5.179,0,0,1-1.347,1.1.757.757,0,0,0-.454.789c.027,1.3.058,2.6,0,3.9a6.38,6.38,0,0,1-2.839,5.066,6.29,6.29,0,0,1-3.6,1.188,1.31,1.31,0,0,1-1.472-1.387c-.027-.779,0-1.559-.019-2.338,0-.21-.023-.5-.154-.607a1.119,1.119,0,0,0-.781-.294.757.757,0,0,0-.573.8c0,1.313.006,2.626,0,3.939a3.283,3.283,0,0,1-.516,1.951,3.929,3.929,0,0,1-2.689,1.7,3.676,3.676,0,0,1-4.166-3.523c-.076-1.693-.049-3.39-.069-5.085,0-.314,0-.631-.024-.943a.9.9,0,0,0-.963-.857.867.867,0,0,0-.761.943q0,1.662,0,3.323a1.533,1.533,0,0,1-1.638,1.632c-.739.007-1.477.006-2.215.01-.012,0-.024.011-.069.035m17.423-2.256a2.79,2.79,0,0,0,.537-.2,4.233,4.233,0,0,0,1.454-1.472,5.248,5.248,0,0,0,.507-2.744c0-1.367-.012-2.734,0-4.1a1.453,1.453,0,0,1,1.381-1.667c.094-.018.186-.041.28-.063a1.159,1.159,0,0,0,.964-1.113c.023-.327,0-.656.012-.984a4.361,4.361,0,0,1,1.927-3.615c.32-.228.694-.381,1.024-.6.1-.063.206-.244.18-.334a3.805,3.805,0,0,0-3.6-2.885c-2.488-.031-4.977-.009-7.465-.007a1.075,1.075,0,0,0-1.18,1.156,3.806,3.806,0,0,1-7.6,0,1.14,1.14,0,0,0-1.26-1.157c-1.08-.008-2.16,0-3.241,0a1.667,1.667,0,0,0-1.818,1.839c0,.56.013,1.122-.022,1.681a1.276,1.276,0,0,1-1.238,1.241c-.3.028-.6.034-.9.034-1.983,0-3.965,0-5.948,0a5.339,5.339,0,0,0-.736.038,1.336,1.336,0,0,0-1.126,1.094,5.131,5.131,0,0,0-.054.775,1.4,1.4,0,0,1-1.521,1.53c-.875.007-1.75,0-2.625.01a1.509,1.509,0,0,0-1.532,1.229,2.6,2.6,0,0,0,2.592,3.335c2.42-.014,4.84-.007,7.26,0a1.517,1.517,0,0,1,1.714,1.685c0,.15,0,.3,0,.451a4.2,4.2,0,0,0,2.543,3.929,5.325,5.325,0,0,0,2.685.414c.769-.026.645.1.671-.694a16.465,16.465,0,0,1,.1-2.327,3.516,3.516,0,0,1,6.953.894c0,1.737.005,3.473.01,5.209a4.206,4.206,0,0,0,.021.614c.083.549.736,1.09,1.174.989a1.3,1.3,0,0,0,.936-1.2c0-1.326.034-2.653-.008-3.978a3.427,3.427,0,0,1,6.814-.444,10.946,10.946,0,0,1,.133,1.433m-20.078,2.05c-.1-.005-.163-.012-.228-.012q-2.851,0-5.7,0a4.064,4.064,0,0,1-.774-.061,1.276,1.276,0,0,1-1.161-1.359c-.013-.287,0-.575-.008-.861a.726.726,0,0,0-.759-.787,5.135,5.135,0,0,0-.777.032,5.994,5.994,0,0,0-5.072,4.595,9.349,9.349,0,0,0-.12,3.059,5.073,5.073,0,0,0,4.464,4.437,9.044,9.044,0,0,1,2.011.321,4.05,4.05,0,0,1,2.675,4.1c.02,1.941.008,3.883.014,5.824a6.751,6.751,0,0,0,.036.819,1.528,1.528,0,0,0,1.208,1.375,7.043,7.043,0,0,0,1.674-.046,5.42,5.42,0,0,0,4.3-5.239c-.018-2.009-.022-4.019-.025-6.029a1.5,1.5,0,0,1,1.636-1.711,3.287,3.287,0,0,0,2.708-1.732.976.976,0,0,0,.067-.287,6.238,6.238,0,0,1-6.169-6.434" transform="translate(-77.994 -53.625)" fill="#615842"/>
          <path id="Path_612569" data-name="Path 612569" d="M30.183,106.495a19.156,19.156,0,0,1,2.089.169,7.608,7.608,0,0,1,6.193,5.319,1.878,1.878,0,0,0,1.4,1.395,5.282,5.282,0,0,1,3.493,4.721,5.373,5.373,0,0,1-2.974,5,3.756,3.756,0,0,1-2,.49c-.147-.012-.3,0-.509,0,0,.486.016.932,0,1.376a9.74,9.74,0,0,1-.635,3.527,7.932,7.932,0,0,1-6.21,4.9,6.615,6.615,0,0,1-1.473.023,1.119,1.119,0,0,1-.953-.989,8.243,8.243,0,0,1-.063-1.226q-.006-5.334.006-10.667c0-.4-.086-.522-.519-.533a5.633,5.633,0,0,1-3.28-1.345,6.66,6.66,0,0,1-1.426-9.16c.073-.11.141-.224.233-.37-.493-.146-.952-.259-1.4-.416a8.868,8.868,0,0,1-5.724-5.883,9.509,9.509,0,0,1-.474-3.678,1.47,1.47,0,0,1,1.634-1.5c.9,0,1.808-.038,2.707.013a1.255,1.255,0,0,0,1.138-1.044,1.1,1.1,0,0,0-.97-1.089c-.817-.06-1.64-.033-2.457-.091a4.419,4.419,0,0,1-.368-8.784,6.307,6.307,0,0,1,.776-.072,2.268,2.268,0,0,0,2.226-2.271c.008-.273,0-.547,0-.82a1.494,1.494,0,0,1,1.587-1.6c1.709,0,3.419-.011,5.128.005a1.392,1.392,0,0,1,1.324,1.905,1.285,1.285,0,0,1-1.271.8c-1.231,0-2.461,0-3.691-.039-.315-.009-.4.112-.452.375a4.97,4.97,0,0,1-3.518,4.046,10.649,10.649,0,0,1-1.652.286,1.769,1.769,0,0,0-1.556,1.93,1.746,1.746,0,0,0,1.715,1.609c.819.031,1.643.006,2.457.081a3.652,3.652,0,0,1,3.325,3.663,3.7,3.7,0,0,1-3.417,3.72,10.38,10.38,0,0,1-1.6.012c-.318-.011-.389.1-.369.408a6.369,6.369,0,0,0,5.835,5.826c.992.055,1.989.009,3.051.009v-.851c0-.957,0-1.915,0-2.872a6.655,6.655,0,0,1,.025-.7,1.35,1.35,0,0,1,1.506-1.425,5.873,5.873,0,0,0,3.482-1.264,5.992,5.992,0,0,0,2.27-4.38c.029-.34.036-.683.057-1.024A1.1,1.1,0,0,1,35.915,92.9c.8-.066,1.611-.067,2.416-.058a4.484,4.484,0,0,0,2.39-.6,4.124,4.124,0,0,0-1.863-7.627c-1.776-.046-3.554-.025-5.332-.032-.205,0-.411.016-.615.008a1.284,1.284,0,0,1-1.378-1.311,1.4,1.4,0,0,1,1.4-1.374c.779-.018,1.559,0,2.339-.005,1.067,0,2.135-.039,3.2.007a6.936,6.936,0,0,1,6.354,4.287,6.743,6.743,0,0,1-3.45,8.654,8.341,8.341,0,0,1-3.559.636c-.3,0-.418.083-.451.375a8.576,8.576,0,0,1-6.8,7.294c-.219.045-.389.083-.387.366.009.983,0,1.965,0,2.978M31.3,130.666c.131-.037.208-.054.281-.081a5.16,5.16,0,0,0,3.559-4.539c.133-1.217.066-2.455.091-3.684a1.245,1.245,0,0,1,1.179-1.318c.364-.044.736-.026,1.1-.045a7.141,7.141,0,0,0,1.262-.092,2.654,2.654,0,0,0-.637-5.214c-1.354.06-1.82-.411-1.931-1.753a4.989,4.989,0,0,0-4.006-4.59,13.072,13.072,0,0,0-3.757-.105,4.143,4.143,0,0,0-3.684,3.688,4.062,4.062,0,0,0,3.488,4.448c.446.055.9.035,1.351.053a1.538,1.538,0,0,1,1.634,1.406,4.387,4.387,0,0,1,.064.774q.006,5.168,0,10.336v.717" transform="translate(-9.307 -55.006)" fill="#615842"/>
          <path id="Path_612570" data-name="Path 612570" d="M202.519,191.789c.2.012.357.031.517.032.943,0,1.888-.03,2.83.008a5.879,5.879,0,0,1,5.524,3.743c.349.792.337.81,1.191.786a20.141,20.141,0,0,0,2.7-.139,4.32,4.32,0,0,0,3.639-4.191,15.872,15.872,0,0,0-.008-2.049,5.274,5.274,0,0,0-3.182-4.435,6.052,6.052,0,0,0-2.564-.355c-.819-.038-1.643.006-2.457-.066a1.363,1.363,0,0,1-1.3-1.769,1.028,1.028,0,0,1,.876-.825c2.443-.153,4.9-.344,7.153.952a8.257,8.257,0,0,1,3.82,4.725,11.868,11.868,0,0,1,.324,3.361,7.285,7.285,0,0,1-6.268,7.39,7.916,7.916,0,0,1-1.186.041c-1.107,0-2.215,0-3.322,0-1.081,0-1.542-.415-1.638-1.495a3.1,3.1,0,0,0-1.9-2.754,5.493,5.493,0,0,0-2.382-.274c-1.2.02-2.406.031-3.607,0a1.32,1.32,0,0,1-1.413-1.424,15.891,15.891,0,0,1,.282-4.643,8.049,8.049,0,0,1,4.908-5.41c.664-.271,1.565.507,1.546,1.312a1.26,1.26,0,0,1-.776,1.2,5.279,5.279,0,0,0-3.3,5.149c0,.367,0,.733,0,1.132" transform="translate(-134.24 -122.544)" fill="#615842"/>
          <path id="Path_612571" data-name="Path 612571" d="M29.12,253.611q-3.835,0-7.671,0a1.282,1.282,0,0,1-1.459-1.49,1.6,1.6,0,0,1,1.481-1.191c.081-.006.164,0,.246,0q7.466,0,14.933,0a1.562,1.562,0,0,1,1.671,1.159,1.276,1.276,0,0,1-.959,1.484,3.5,3.5,0,0,1-.611.046q-3.815,0-7.63,0Z" transform="translate(-13.425 -168.566)" fill="#615842"/>
          <path id="Path_612572" data-name="Path 612572" d="M25.041,238.755c1.175,0,2.349,0,3.524,0a1.384,1.384,0,0,1,1.248.55,1.21,1.21,0,0,1-.5,1.917,2.762,2.762,0,0,1-.988.208q-3.339.027-6.679,0a2.474,2.474,0,0,1-.941-.221,1.235,1.235,0,0,1-.736-1.476,1.2,1.2,0,0,1,1.141-.946c1.31-.031,2.621-.01,3.932-.01v-.021" transform="translate(-13.392 -160.387)" fill="#615842"/>
          <path id="Path_612573" data-name="Path 612573" d="M258.622,120.579c0,1.024.013,2.048-.005,3.072a1.118,1.118,0,0,1-.879,1.136A1.3,1.3,0,0,1,256,123.6c-.027-1.98-.021-3.96,0-5.941a1.274,1.274,0,0,1,1.324-1.278,1.25,1.25,0,0,1,1.294,1.293c.017.969,0,1.939,0,2.908h0" transform="translate(-171.96 -78.179)" fill="#615842"/>
        </g>
      </g>
    </g>
  </g>
</svg>
