<svg xmlns="http://www.w3.org/2000/svg" xmlns:xlink="http://www.w3.org/1999/xlink" width="125" height="125" viewBox="0 0 125 125">
  <defs>
    <clipPath id="clip-path">
      <rect id="Rectangle_378636" data-name="Rectangle 378636" width="91" height="91" transform="translate(404 1177)" fill="#fff" stroke="#707070" stroke-width="1"/>
    </clipPath>
    <clipPath id="clip-path-2">
      <rect id="Rectangle_378959" data-name="Rectangle 378959" width="84" height="83.741" fill="#615842"/>
    </clipPath>
  </defs>
  <g id="Group_1074732" data-name="Group 1074732" transform="translate(-390 -1983.144)">
    <g id="Group_1072555" data-name="Group 1072555" transform="translate(4 -162.856)">
      <path id="Path_608385" data-name="Path 608385" d="M62.5,0A62.5,62.5,0,1,1,0,62.5,62.5,62.5,0,0,1,62.5,0Z" transform="translate(386 2146)" fill="#fff"/>
    </g>
    <g id="Mask_Group_154385" data-name="Mask Group 154385" transform="translate(3 824)" clip-path="url(#clip-path)">
      <g id="Group_1074682" data-name="Group 1074682" transform="translate(408 1181)">
        <g id="Group_1074681" data-name="Group 1074681" clip-path="url(#clip-path-2)">
          <path id="Path_613276" data-name="Path 613276" d="M29.865,7.571A34.62,34.62,0,0,1,44.443,5.526a36.209,36.209,0,0,1,14.11,3.907c.125-.376.229-.728.358-1.071A12.127,12.127,0,1,1,77.2,22.206a3.08,3.08,0,0,0-1.446,2.7c-.012.851-.021,1.7.009,2.553a3.134,3.134,0,0,0,.2,1.052,38.149,38.149,0,0,1,2.438,10.1c.065.574.023,1.16.064,1.739.01.139.137.367.241.386a6.017,6.017,0,0,1,2.65,1.283,6.887,6.887,0,0,1,2.63,5.687c.018,6.953.006,13.905,0,20.857,0,1.793.008,3.586-.019,5.379a2.493,2.493,0,0,1-.25,1.029c-1.051,2.137-2.136,4.257-3.2,6.391a4.006,4.006,0,0,1-1.9,2,3.431,3.431,0,0,1-4.4-1.383c-.639-1.146-1.2-2.333-1.8-3.5-.536-1.056-1.059-2.119-1.6-3.171a3.089,3.089,0,0,1-.366-1.478c.014-2.864.007-5.727.007-8.591V64.7c-.3.339-.543.6-.777.877A36.047,36.047,0,0,1,54.186,76.2a39.584,39.584,0,0,1-6.425,1.631,37.609,37.609,0,0,1-9.443.305,27.829,27.829,0,0,1-6.389-1.268c-1.64-.522-3.243-1.164-4.864-1.747-.332-.119-.444-.277-.255-.629.262-.487.472-1,.7-1.5.218-.476.215-.466.717-.273,1.211.468,2.4,1,3.647,1.367a41.331,41.331,0,0,0,4.537,1.073c1.277.225,2.586.268,3.881.388.111.01.223,0,.383,0V59.367h-.384c-.98,0-1.96-.01-2.94.007a.42.42,0,0,1-.478-.329c-.211-.621-.449-1.234-.666-1.853a.743.743,0,0,0-.979-.43c-.617.29-1.234.581-1.841.892a.357.357,0,0,1-.5-.08q-3.28-3.284-6.577-6.551a.467.467,0,0,1-.121-.615c.281-.564.547-1.137.817-1.706a.771.771,0,0,0-.424-1.091c-.613-.232-1.237-.443-1.868-.617a.416.416,0,0,1-.372-.477c.011-1.068,0-2.136,0-3.226H8.215A31.649,31.649,0,0,0,9.707,52a5.365,5.365,0,0,1,7.859,4.732c.162,0,.323,0,.483,0a26.079,26.079,0,0,1,2.855.082A3.961,3.961,0,0,1,24.332,60.5c.021.257.019.515.02.773q0,2.844,0,5.689v.474c-.46,0-.893-.01-1.325,0a12.133,12.133,0,0,0-1.81.093A2.589,2.589,0,0,0,19,69.907a2.64,2.64,0,0,0,2.183,2.986,9,9,0,0,0,1.729.091c.462.012.925,0,1.44,0v.432c0,1.96-.054,3.923.013,5.881a4.209,4.209,0,0,1-4.4,4.435q-2.921,0-5.842,0c-3.237,0-6.474.015-9.71-.006a4.223,4.223,0,0,1-3.676-1.85,4.281,4.281,0,0,1-.726-2.446c-.013-2.1,0-4.2,0-6.307a.587.587,0,0,1,.043-.136c.883,0,1.773.043,2.656-.011a2.73,2.73,0,0,0,2.51-1.652A2.72,2.72,0,0,0,3.08,67.5a11.211,11.211,0,0,0-1.541-.056c-.412-.007-.825-.006-1.237,0-.233,0-.3-.087-.3-.323.008-2.012-.008-4.025,0-6.036a4.2,4.2,0,0,1,4.4-4.371q1.006,0,2.011.028c.233.007.319-.053.38-.3.172-.7.378-1.387.617-2.064a1.212,1.212,0,0,0,.038-.777c-.474-1.75-.986-3.492-1.382-5.26a32.037,32.037,0,0,1-.535-8.888,36.223,36.223,0,0,1,4.13-14.491c.089-.166.163-.339.271-.568H.036V10.779h8.1c.01.188.028.365.028.541,0,3.3,0,6.6-.014,9.906,0,.288.066.384.361.377.758-.019,1.518-.006,2.329-.006V5.517H18.96c.011.173.03.337.03.5q0,7.585-.01,15.169c0,.323.072.426.4.416.745-.023,1.492-.007,2.269-.007.01-.137.026-.249.026-.361q-.014-10.39-.037-20.779c0-.362.1-.455.457-.453q3.636.023,7.273,0c.358,0,.486.071.481.46-.027,2.192-.025,4.384-.029,6.577,0,.138.022.276.044.533M71.688,43.307H59.635v1.61c0,.542-.011,1.084,0,1.625.007.261-.071.367-.341.442-.644.178-1.278.4-1.9.636a.742.742,0,0,0-.414,1.087c.194.406.384.815.58,1.221.389.808.391.808-.252,1.449l-6.164,6.146c-.146.146-.259.289-.521.148-.589-.316-1.2-.592-1.806-.876a.729.729,0,0,0-1.052.428c-.2.543-.408,1.085-.574,1.639a.612.612,0,0,1-.711.516c-1.055-.034-2.111-.011-3.218-.011,0,.211,0,.388,0,.566q.009,5.127.018,10.254c0,1.677.013,3.353.017,5.03,0,.2-.025.4.285.37.475-.04.955-.033,1.427-.093a31.989,31.989,0,0,0,5.316-.917c.824-.25,1.673-.424,2.488-.7a33.263,33.263,0,0,0,11.6-6.689,34.322,34.322,0,0,0,5.755-6.548,1.71,1.71,0,0,0,.3-1.009c-.01-4.153-.018-8.307.006-12.46a5.9,5.9,0,0,1,.289-1.78,21.7,21.7,0,0,1,.921-2.087M74.3,31.665a9.489,9.489,0,0,1-1.947.655A22.245,22.245,0,0,1,69,32.4a4.153,4.153,0,0,1-4-4.36c0-1.109-.01-2.218.01-3.327a2.408,2.408,0,0,0-.587-1.824,7.954,7.954,0,0,0-1.04-.859,11.762,11.762,0,0,1-5.051-8.906,1.433,1.433,0,0,0-.951-1.35,32.439,32.439,0,0,0-8.742-2.959c-1.508-.252-3.028-.44-4.549-.6-.8-.084-.81-.027-.81.806q0,7.022,0,14.045v1.314h.457c.967,0,1.934.009,2.9-.006a.422.422,0,0,1,.482.326q.3.916.638,1.821a.763.763,0,0,0,.994.471c.609-.276,1.218-.557,1.8-.877a.392.392,0,0,1,.562.074q3.264,3.273,6.545,6.528a.517.517,0,0,1,.11.686c-.268.542-.524,1.091-.789,1.634a.735.735,0,0,0,.37,1.07c.647.248,1.31.462,1.977.651.234.066.312.151.31.385-.01.967,0,1.935,0,2.9v.407H75.821a33.463,33.463,0,0,0-1.52-8.791M8.134,40.452H24.35c0-1.085.011-2.142-.007-3.2a.424.424,0,0,1,.363-.486c.615-.185,1.227-.387,1.83-.61a.752.752,0,0,0,.458-1.13c-.193-.407-.381-.816-.583-1.22-.384-.769-.393-.773.205-1.369q3.122-3.113,6.246-6.225a.444.444,0,0,1,.634-.072c.542.3,1.105.552,1.668.806a.742.742,0,0,0,1.079-.451c.214-.593.437-1.184.624-1.786a.4.4,0,0,1,.468-.333c.993.013,1.986.007,2.979,0,.135,0,.269-.014.372-.02V8.255c-.07-.038-.092-.059-.115-.06q-.134-.006-.268,0a30.682,30.682,0,0,0-5.128.622,33.965,33.965,0,0,0-5.043,1.425.443.443,0,0,0-.325.489q.013,6.578.012,13.155c0,.5,0,.5-.5.5q-7.949,0-15.9-.007a.613.613,0,0,0-.609.347,33.419,33.419,0,0,0-2.7,5.762,31.718,31.718,0,0,0-1.691,7.2c-.1.906-.187,1.814-.285,2.767m-5.446,24.4a5.448,5.448,0,0,1,5.459,5.173A4.969,4.969,0,0,1,6.957,73.5a5.377,5.377,0,0,1-4.27,2.09c0,1.3,0,2.575,0,3.85a1.431,1.431,0,0,0,1.594,1.6L19.6,81.035c.258,0,.516.013.774,0a1.278,1.278,0,0,0,1.289-1.3c.018-1.276.007-2.553.024-3.83,0-.281-.1-.335-.361-.345a5.352,5.352,0,0,1,.037-10.687c.216-.006.333-.053.33-.3-.012-1.251,0-2.5-.018-3.752a1.385,1.385,0,0,0-1.49-1.449c-1.044,0-2.089,0-3.133,0H14.971c-.015-.178-.038-.328-.039-.478-.006-.747.03-1.5-.014-2.243-.131-2.2-1.908-2.919-3.714-2.449A2.483,2.483,0,0,0,9.5,56.626c0,.8,0,1.6,0,2.4,0,.11-.014.22-.023.342H9.011c-1.612,0-3.224,0-4.835,0a1.434,1.434,0,0,0-1.487,1.486c0,.787,0,1.574,0,2.36v1.642M50.33,54.6c.093-.08.192-.154.279-.241.439-.436.874-.876,1.313-1.313.85-.847,1.7-1.7,2.554-2.534a.476.476,0,0,0,.125-.666,8.827,8.827,0,0,1-.565-1.183.85.85,0,0,1,.006-.56c.28-.732.583-1.456.9-2.172a.729.729,0,0,1,.352-.35,11.551,11.551,0,0,1,1.278-.435c.194-.054.279-.122.278-.333-.006-1.96,0-3.92-.013-5.88a.4.4,0,0,0-.213-.287c-.43-.169-.881-.288-1.307-.466a.788.788,0,0,1-.379-.371c-.322-.715-.622-1.44-.909-2.169a.728.728,0,0,1-.018-.493,11.713,11.713,0,0,1,.622-1.285.372.372,0,0,0-.075-.532q-2-1.971-3.974-3.958a.39.39,0,0,0-.511-.1c-.414.208-.821.433-1.25.606a.843.843,0,0,1-.564,0c-.577-.218-1.122-.532-1.709-.706a1.349,1.349,0,0,1-1.064-1.106,2.764,2.764,0,0,0-.319-.783.507.507,0,0,0-.355-.239c-1.882-.018-3.764-.011-5.646-.024a.344.344,0,0,0-.391.274c-.128.391-.293.771-.411,1.164a.759.759,0,0,1-.495.534c-.751.3-1.487.639-2.237.945a.553.553,0,0,1-.39-.028c-.446-.2-.884-.418-1.319-.64a.359.359,0,0,0-.48.066c-1.349,1.35-2.707,2.69-4.048,4.048a.482.482,0,0,0-.043.426c.189.451.433.878.621,1.328a.712.712,0,0,1,0,.487c-.154.394-.353.771-.529,1.157a3.943,3.943,0,0,1-.634,1.32,3.465,3.465,0,0,1-1.4.5c-.229.061-.276.163-.275.373q.009,2.863,0,5.726c0,.242.061.369.313.439a12.286,12.286,0,0,1,1.275.443.622.622,0,0,1,.312.293c.34.776.665,1.56.98,2.347a.5.5,0,0,1-.007.352,11.947,11.947,0,0,1-.634,1.279.4.4,0,0,0,.089.591q1.966,1.945,3.916,3.907a.439.439,0,0,0,.577.115c.389-.2.772-.415,1.175-.583a.857.857,0,0,1,.576-.037c.72.272,1.435.566,2.131.9a1.2,1.2,0,0,1,.5.519,7.878,7.878,0,0,1,.459,1.185.344.344,0,0,0,.4.269c1.869-.005,3.739,0,5.608-.013a.491.491,0,0,0,.361-.237,6.816,6.816,0,0,0,.443-1.15.8.8,0,0,1,.581-.6,6.129,6.129,0,0,0,1.392-.56,1.668,1.668,0,0,1,2.052.1,5.2,5.2,0,0,0,.7.333M73.168,24.367a12.956,12.956,0,0,1,.236-1.288,5.636,5.636,0,0,1,2.354-3.057,9.065,9.065,0,0,0,4.029-9.4A9.513,9.513,0,0,0,60.9,12.168a8.882,8.882,0,0,0,1.324,4.821,9.46,9.46,0,0,0,2.908,3.055,5.36,5.36,0,0,1,2.3,2.962c.13.44.2.9.3,1.344H69.1c0-2.739,0-5.446-.011-8.153a.511.511,0,0,0-.263-.345,4,4,0,0,1-2.358-4.4A4.073,4.073,0,0,1,71.52,8.31a4.123,4.123,0,0,1,2.938,3.734,4.057,4.057,0,0,1-2.407,3.788.5.5,0,0,0-.352.54c.012,2.54.007,5.081.008,7.621,0,.124.011.247.017.374ZM78.54,72.955h2.74V51.337H78.54ZM73.151,51.329c0,.255,0,.47,0,.686q0,9.807.007,19.615c0,.361-.02.723,0,1.083,0,.093.115.258.179.259.82.018,1.641.011,2.464.011V51.329ZM27.108,2.734H24.373V21.579h2.735ZM13.539,21.572h2.737V8.118H13.539ZM81.268,48.525c.194-2.047-.2-3.843-2.133-4.826a3.988,3.988,0,0,0-4.506.4c-1.453,1.14-1.661,2.716-1.407,4.428ZM5.447,13.578H2.718v8.01H5.447Zm68.5,62.03c.09.193.161.355.24.512q1.078,2.157,2.159,4.311a.9.9,0,0,0,.883.574.943.943,0,0,0,.831-.588c.717-1.467,1.461-2.921,2.192-4.381.06-.12.1-.25.167-.429Zm-6.264-48.57c0,.5-.027.978.007,1.45a1.23,1.23,0,0,0,1.272,1.166c.836,0,1.673-.008,2.509-.008,1.315,0,1.8-.514,1.745-1.849a2.388,2.388,0,0,0-.049-.535c-.025-.089-.15-.214-.231-.215-1.735-.012-3.469-.009-5.252-.009M71.706,12.2a1.443,1.443,0,0,0-1.3-1.46,1.522,1.522,0,0,0-1.343,1.441,1.375,1.375,0,0,0,1.394,1.384A1.226,1.226,0,0,0,71.706,12.2" transform="translate(0 -0.001)" fill="#615842"/>
          <path id="Path_613277" data-name="Path 613277" d="M166.678,199.339c-.779.732-1.549,1.51-2.375,2.222a31.014,31.014,0,0,1-15.077,7.1c-.911.161-.915.183-1.088-.724-.079-.417-.107-.843-.186-1.26-.068-.36.066-.506.418-.566.835-.145,1.672-.294,2.5-.493a27.567,27.567,0,0,0,5.782-2.108,29.511,29.511,0,0,0,7.976-5.834c.073-.075.288-.136.33-.1.567.558,1.115,1.134,1.722,1.762" transform="translate(-101.997 -136.214)" fill="#615842"/>
          <path id="Path_613278" data-name="Path 613278" d="M211.241,180.683l2.272,1.308-1.8,2.761c-.7-.5-1.348-.963-1.979-1.447-.059-.045-.048-.275.012-.368.479-.744.976-1.475,1.5-2.254" transform="translate(-144.576 -124.575)" fill="#615842"/>
          <path id="Path_613279" data-name="Path 613279" d="M111.179,121.642a10.729,10.729,0,0,1-10.787-10.773,10.819,10.819,0,0,1,21.637-.012,10.738,10.738,0,0,1-10.85,10.785m8.076-10.7a7.872,7.872,0,0,0-8.043-8.146,8.137,8.137,0,0,0-.02,16.273c4.819-.018,8.392-4.068,8.063-8.128" transform="translate(-69.217 -69.056)" fill="#615842"/>
        </g>
      </g>
    </g>
  </g>
</svg>
