<svg xmlns="http://www.w3.org/2000/svg" xmlns:xlink="http://www.w3.org/1999/xlink" width="125" height="125" viewBox="0 0 125 125">
  <defs>
    <clipPath id="clip-path">
      <rect id="Rectangle_378638" data-name="Rectangle 378638" width="91" height="91" transform="translate(404 1177)" fill="#fff" stroke="#707070" stroke-width="1"/>
    </clipPath>
    <clipPath id="clip-path-2">
      <rect id="Rectangle_378958" data-name="Rectangle 378958" width="82" height="81.656" fill="#615842"/>
    </clipPath>
  </defs>
  <g id="Group_1074733" data-name="Group 1074733" transform="translate(-742 -1983.144)">
    <g id="Group_1074204" data-name="Group 1074204" transform="translate(356 -162.856)">
      <path id="Path_608385" data-name="Path 608385" d="M62.5,0A62.5,62.5,0,1,1,0,62.5,62.5,62.5,0,0,1,62.5,0Z" transform="translate(386 2146)" fill="#fff"/>
    </g>
    <g id="Mask_Group_154386" data-name="Mask Group 154386" transform="translate(355 824)" clip-path="url(#clip-path)">
      <g id="Group_1074680" data-name="Group 1074680" transform="translate(409 1182)">
        <g id="Group_1074679" data-name="Group 1074679" clip-path="url(#clip-path-2)">
          <path id="Path_613266" data-name="Path 613266" d="M76.662,70.835H57.431V81.656H54.769v-5.3H54.21q-24.773,0-49.546,0A4.523,4.523,0,0,1,1.04,74.926,3.873,3.873,0,0,1,0,72.27Q.019,38.131.005,3.993A3.939,3.939,0,0,1,2.318.35a3.021,3.021,0,0,1,1.5-.342Q40.577.014,77.335,0a4.456,4.456,0,0,1,2.838.621,3.967,3.967,0,0,1,1.817,3.35Q81.972,24.677,82,45.383a12.55,12.55,0,0,1-.781,4.386q-1.6,4.379-3.173,8.767a2.473,2.473,0,0,0-.125.76c-.017.662-.006,1.326-.006,2.039.358,0,.693.018,1.025-.005.3-.021.392.1.373.386s-.01.547-.009.821q.007,9.444.015,18.888c0,.064-.008.128-.014.226H76.662Zm2.671-54.549H25.084a1.825,1.825,0,0,1-.234,0c-.25-.032-.318.1-.308.32.013.286.012.573.012.86q0,12.554,0,25.107V43.5h.5q15.213,0,30.426.009a.719.719,0,0,0,.725-.429,4.687,4.687,0,0,1,4.9-2.333c.15.024.3.045.5.074,0-.8,0-1.569,0-2.334,0-3.767-.008-7.534.011-11.3a1.78,1.78,0,0,1,.3-.9c.687-1.06,1.422-2.089,2.113-3.146a1.528,1.528,0,0,0,.23-.759c.026-.964.009-1.929.009-2.894,0-.123,0-.246,0-.372h2.7v.4c0,.952-.008,1.9.007,2.855a1.073,1.073,0,0,0,.146.547c.807,1.23,1.639,2.444,2.444,3.677a1.359,1.359,0,0,1,.21.683c.021,1.147.009,2.294.011,3.441,0,.136.012.272.02.44l.222-.074a4.544,4.544,0,0,1,5.192,1.543q1.977,2.548,3.962,5.089c.025.032.077.043.155.084ZM56,61.341a13.79,13.79,0,0,0-.384-4.3,20.813,20.813,0,0,1-1.29-5.687,13.825,13.825,0,0,1,.427-4.561,3.64,3.64,0,0,0,.079-.468h-.559q-14.289,0-28.579,0c-.362,0-.878-.116-1.045.071-.193.215-.1.707-.1,1.078q-.005,12.55,0,25.1v.936H54.775V61.341ZM24.585,2.645c-.008.155-.016.244-.016.332,0,3.375,0,6.75-.007,10.126,0,.328.092.407.414.407q9.618-.015,19.236-.007l34.327,0h.781c0-3.285.009-6.5-.009-9.719a1.229,1.229,0,0,0-1.166-1.121c-.65-.033-1.3-.019-1.954-.019H24.585M21.9,46.321H3.062a.234.234,0,0,1-.039,0c-.329-.058-.4.111-.383.4.019.259.012.521.012.782q0,11.81,0,23.62c0,.365,0,.73.018,1.095a1.284,1.284,0,0,0,1.375,1.321H21.9Zm-.019-2.836v-27.2h-.534q-8.818,0-17.636,0c-.335,0-.79-.1-.972.074s-.085.631-.085.964q0,12.845,0,25.691v.469ZM75.206,61.324c0-.64-.014-1.237,0-1.834a4.377,4.377,0,0,1,.118-1.311c1.125-3.161,2.313-6.3,3.432-9.462a9.017,9.017,0,0,0-1.167-8.684c-.787-1.1-1.653-2.147-2.486-3.215-.705-.9-1.4-1.815-2.129-2.7a1.776,1.776,0,0,0-2.047-.539A1.722,1.722,0,0,0,69.773,35.3a2.35,2.35,0,0,0,.458,1.38c1.223,1.938,2.418,3.894,3.666,5.816a4.157,4.157,0,0,1,.157,4.791c-1.341,2.231-2.612,4.5-3.891,6.772a4.9,4.9,0,0,0-.584,1.433,4.209,4.209,0,0,1-3.42,3.02,4.075,4.075,0,0,1-4.572-3.959,43.232,43.232,0,0,0-.009-4.377,11.94,11.94,0,0,1,.634-3.828,2.441,2.441,0,0,0-.067-1.9,2.111,2.111,0,0,0-3.7.042,11.881,11.881,0,0,0-1.417,7.051,25.994,25.994,0,0,0,.988,4.207,13.628,13.628,0,0,1,.814,5.241,2.1,2.1,0,0,0,.021.338ZM21.884,13.479V2.645H16.273q-5.982,0-11.963,0c-1.236,0-1.665.454-1.662,1.685q.009,4.4.022,8.8c0,.112.015.224.024.348ZM76.628,64.093H57.435v4.074H76.628ZM64.214,31.315c-.011.133-.028.235-.028.338,0,3.517-.009,7.034,0,10.551a1.818,1.818,0,0,0,.221.812,4.822,4.822,0,0,1,.45,3.769,13.872,13.872,0,0,0-.565,2.5c-.106,1.085-.054,2.185-.066,3.279-.007.638-.039,1.278,0,1.914a1.368,1.368,0,0,0,1.423,1.355,1.319,1.319,0,0,0,1.312-1.473q0-11.314,0-22.628v-.422Zm5.6,9.677v8.217c.74-1.194,1.421-2.4,2.1-3.615a1.253,1.253,0,0,0-.057-1.3c-.285-.5-.594-.978-.9-1.464-.361-.581-.724-1.161-1.145-1.836M66.938,28.469c0-.354.108-.722-.021-.964-.361-.677-.821-1.3-1.281-2.007-.443.665-.819,1.253-1.221,1.823a1.4,1.4,0,0,0-.186,1.149Z" transform="translate(0 0)" fill="#615842"/>
          <path id="Path_613267" data-name="Path 613267" d="M86.834,69.291c.875,0,1.708-.007,2.54.011.085,0,.193.146.241.248a.782.782,0,0,1,.009.309V80.374a1.378,1.378,0,0,0,.195-.085c.771-.511,1.535-1.031,2.312-1.532a.633.633,0,0,0,.312-.61c-.009-2.789-.006-5.579-.006-8.368v-.5h1.448a5.586,5.586,0,0,0,.7,0c.395-.049.514.091.509.493-.026,2.254-.025,4.509-.032,6.764,0,.05.011.1.023.2a2.711,2.711,0,0,0,.28-.139c.707-.465,1.407-.942,2.121-1.4a.5.5,0,0,0,.275-.494c-.014-1.642-.008-3.284-.008-4.927v-.477c.155-.009.292-.025.429-.025.665,0,1.33.02,1.994,0,.3-.009.409.072.4.39-.019.99-.007,1.981-.007,2.971v.493c.7-.461,1.315-.937,1.993-1.3A1.327,1.327,0,0,0,103.4,70.3a6.2,6.2,0,0,1-.009-1.009c.848,0,1.652-.007,2.456.012.067,0,.175.171.185.27.025.258.006.52.006.781q0,7.468.007,14.937c0,.314-.071.444-.41.434-.728-.022-1.457-.007-2.236-.007V74.455c-.957.643-1.843,1.226-2.711,1.836-.09.063-.105.277-.106.421q-.008,4.262,0,8.524v.451H97.758V78.21c-.339.222-.619.4-.9.588a5.9,5.9,0,0,1-.978.642c-.74.3-.85.832-.823,1.55.053,1.445.015,2.893.03,4.34,0,.283-.076.4-.374.39-.741-.017-1.483-.005-2.267-.005v-3.9a5,5,0,0,0-.5.244c-.732.473-1.463.95-2.184,1.441a.438.438,0,0,0-.136.317c-.013.612-.006,1.225-.006,1.869h-2.79Z" transform="translate(-59.577 -47.526)" fill="#615842"/>
          <path id="Path_613268" data-name="Path 613268" d="M178.53,69.343c.884,0,1.753,0,2.621.008.056,0,.131.1.16.171a.631.631,0,0,1,.009.232q0,7.837,0,15.674v.3H178.53Z" transform="translate(-122.49 -47.576)" fill="#615842"/>
          <path id="Path_613269" data-name="Path 613269" d="M163.89,85.7h-2.518c-.013-.185-.036-.373-.037-.561q-.013-7.37-.021-14.741c0-.065,0-.13,0-.2-.014-.925-.014-.925.895-.925.456,0,.913.017,1.368-.008.293-.016.381.074.379.37q-.027,4.34-.03,8.68c0,2.32,0,4.64,0,6.96,0,.128-.022.256-.037.419" transform="translate(-110.674 -47.524)" fill="#615842"/>
          <path id="Path_613270" data-name="Path 613270" d="M92.431,164.785c.849,0,1.642-.008,2.434.013.078,0,.207.177.215.279.024.324,0,.651,0,.977q-.011,3.011-.019,6.022a1.894,1.894,0,0,0,.034.233c.144-.092.25-.158.354-.226.685-.452,1.362-.916,2.058-1.35a.47.47,0,0,0,.252-.468c-.009-1.681,0-3.363-.016-5.044,0-.349.1-.448.438-.439.778.022,1.558.007,2.38.007v3.879c.261-.165.455-.284.644-.409.642-.423,1.289-.837,1.916-1.282a.679.679,0,0,0,.25-.457c.03-.556.012-1.115.012-1.731.853,0,1.67-.007,2.485.014.061,0,.163.211.166.326.013.521-.008,1.042-.007,1.564q0,7,.008,14c0,.529,0,.528-.539.527h-2.1V169.981c-.249.169-.435.3-.622.421-.617.413-1.225.841-1.855,1.233a.711.711,0,0,0-.358.7c.013,2.776.007,5.553.007,8.329v.549h-2.8v-7.488l-.883.584c-.5.329-.995.669-1.505.982a.592.592,0,0,0-.31.574c.012,1.59.012,3.18.016,4.771,0,.581,0,.581-.563.581H92.447v-3.9c-.24.134-.421.221-.587.329-.687.449-1.374.9-2.048,1.365a.526.526,0,0,0-.186.369c-.019.6-.009,1.192-.009,1.838H86.824v-16.39h2.788V175.95c.555-.366,1.062-.7,1.563-1.034.41-.276.965-.48,1.175-.868a3.337,3.337,0,0,0,.079-1.453q.006-3.656,0-7.313v-.5" transform="translate(-59.57 -113.056)" fill="#615842"/>
          <path id="Path_613271" data-name="Path 613271" d="M155.84,24.151H139.569c0-.809-.009-1.6.014-2.39,0-.08.2-.219.3-.223.677-.023,1.354-.016,2.032-.016q6.782,0,13.564,0c.269,0,.369.063.363.345-.016.752-.006,1.505-.006,2.284" transform="translate(-95.757 -14.766)" fill="#615842"/>
          <path id="Path_613272" data-name="Path 613272" d="M21.831,170.347a5.32,5.32,0,0,1,5.434-5.419,5.413,5.413,0,0,1,5.43,5.614,5.035,5.035,0,0,1-1.749,3.758,5.4,5.4,0,0,1-9.115-3.952m5.441,2.745a2.714,2.714,0,0,0,2.734-2.727,2.791,2.791,0,0,0-5.582-.026,2.778,2.778,0,0,0,2.848,2.754" transform="translate(-14.97 -113.156)" fill="#615842"/>
          <path id="Path_613273" data-name="Path 613273" d="M21.777,208.427H32.634c0,.863.008,1.706-.013,2.549,0,.072-.189.2-.29.2-3.411.006-6.823-.006-10.234,0-.336,0-.422-.1-.406-.419.034-.688.027-1.378.042-2.067a1.794,1.794,0,0,1,.044-.264" transform="translate(-14.881 -143.002)" fill="#615842"/>
          <path id="Path_613274" data-name="Path 613274" d="M27.164,80.162c-2.935.2-5.347-2.667-5.439-5.048a5.457,5.457,0,1,1,10.905-.23,5.408,5.408,0,0,1-5.466,5.279m2.773-5.4a2.755,2.755,0,0,0-2.781-2.754,2.727,2.727,0,0,0-2.777,2.8,2.779,2.779,0,1,0,5.558-.045" transform="translate(-14.902 -47.575)" fill="#615842"/>
          <rect id="Rectangle_378957" data-name="Rectangle 378957" width="10.834" height="2.782" transform="translate(6.88 35.387)" fill="#615842"/>
          <path id="Path_613275" data-name="Path 613275" d="M21.829,24.1c0-.538.008-1.1,0-1.653-.016-.954-.02-.948.94-.947,3.154,0,6.308.008,9.462-.006.4,0,.522.116.5.511-.033.611-.016,1.225-.01,1.837,0,.2-.052.31-.283.31q-5.239-.009-10.478-.009a.651.651,0,0,1-.129-.042" transform="translate(-14.973 -14.75)" fill="#615842"/>
        </g>
      </g>
    </g>
  </g>
</svg>
