<svg xmlns="http://www.w3.org/2000/svg" xmlns:xlink="http://www.w3.org/1999/xlink" width="125" height="125" viewBox="0 0 125 125">
  <defs>
    <clipPath id="clip-path">
      <rect id="Rectangle_378636" data-name="Rectangle 378636" width="91" height="91" transform="translate(404 1177)" fill="#fff" stroke="#707070" stroke-width="1"/>
    </clipPath>
    <clipPath id="clip-path-2">
      <rect id="Rectangle_378955" data-name="Rectangle 378955" width="71.076" height="91" fill="#615842"/>
    </clipPath>
  </defs>
  <g id="Group_1074738" data-name="Group 1074738" transform="translate(-15415 9706.834)">
    <g id="Group_1072555" data-name="Group 1072555" transform="translate(15029 -11852.834)">
      <path id="Path_608385" data-name="Path 608385" d="M62.5,0A62.5,62.5,0,1,1,0,62.5,62.5,62.5,0,0,1,62.5,0Z" transform="translate(386 2146)" fill="#fff"/>
    </g>
    <g id="Mask_Group_154385" data-name="Mask Group 154385" transform="translate(15028 -10865.978)" clip-path="url(#clip-path)">
      <g id="Group_1074676" data-name="Group 1074676" transform="translate(414 1177)">
        <g id="Group_1074675" data-name="Group 1074675" clip-path="url(#clip-path-2)">
          <path id="Path_613254" data-name="Path 613254" d="M71.075,45.238q0,19.6,0,39.2a8.4,8.4,0,0,1-.441,3.032A5.318,5.318,0,0,1,66.8,90.79a11.2,11.2,0,0,1-2.8.205q-28.393.013-56.787,0c-.816,0-1.638-.022-2.449-.1a5.145,5.145,0,0,1-2.506-1.083A5.221,5.221,0,0,1,.106,86.069a13.777,13.777,0,0,1-.1-1.782Q0,45.233,0,6.178A6.671,6.671,0,0,1,.535,3.37,5.488,5.488,0,0,1,5.595.05C6.241.015,6.89,0,7.537,0q27.792,0,55.583,0A28.48,28.48,0,0,1,66.4.142a5.357,5.357,0,0,1,4.4,3.964,11.684,11.684,0,0,1,.265,2.513q.024,19.309.011,38.619m-3.2.388h0q0-19.455,0-38.91c0-.5,0-1-.021-1.5a2.507,2.507,0,0,0-2.812-2.434c-.478,0-.956.015-1.435.015q-24.853,0-49.705,0c-2.592,0-5.184-.011-7.775-.016-1.8,0-2.809.874-2.872,2.491-.014.36-.019.72-.019,1.08q0,34.858,0,69.714c0,3.2.017,6.4.01,9.6,0,1.483,1.063,2.551,2.916,2.549q25.015-.037,50.03-.018c2.978,0,5.955.012,8.932.018a2.536,2.536,0,0,0,2.7-1.9,5.5,5.5,0,0,0,.056-1.077q0-19.81,0-39.62" transform="translate(0 0)" fill="#615842"/>
          <path id="Path_613255" data-name="Path 613255" d="M61.368,135.26l4.478-3.441a1.508,1.508,0,0,0,.243-.191,2.806,2.806,0,0,1,2.392-.839c9.919.029,19.837.017,29.755.017h.635c.011.138.028.257.028.376,0,2.633-.008,5.265.011,7.9,0,.392-.136.485-.549.484q-14.646-.025-29.292-.029c-.509,0-1.021.035-1.526,0a1.59,1.59,0,0,1-.791-.254c-1.67-1.251-3.317-2.526-4.975-3.79a3.323,3.323,0,0,0-.41-.228m15.1-1.458c-2.4,0-4.809,0-7.214,0a3.623,3.623,0,0,0-.866.093,1.332,1.332,0,0,0-1.039,1.365,1.265,1.265,0,0,0,1.1,1.265,6.923,6.923,0,0,0,1.283.1c3.006,0,6.011-.009,9.017-.011,1.634,0,3.268.016,4.9.006a1.787,1.787,0,0,0,1.451-.512,1.231,1.231,0,0,0,.206-1.511,1.51,1.51,0,0,0-1.439-.8q-3.7.005-7.4,0" transform="translate(-38.543 -82.145)" fill="#615842"/>
          <path id="Path_613256" data-name="Path 613256" d="M99.074,173.757v8.657c-.245.012-.484.034-.724.034q-13.788,0-27.575,0c-1,0-2.005.019-3.006-.012a1.572,1.572,0,0,1-.839-.256c-1.736-1.308-3.448-2.643-5.166-3.97a.832.832,0,0,1-.1-.116,1.27,1.27,0,0,1,.163-.183c1.73-1.335,3.458-2.673,5.2-3.992a1.141,1.141,0,0,1,.634-.153q7.889-.012,15.777-.007H99.074Zm-22.382,2.9v.011c-2.344,0-4.687,0-7.03,0a5.106,5.106,0,0,0-.917.08A1.334,1.334,0,0,0,67.6,178.2a1.281,1.281,0,0,0,1.3,1.22c.367.034.738.049,1.107.049q6.845.006,13.69,0a5.728,5.728,0,0,0,.737-.044,1.355,1.355,0,0,0,1.175-1.678,1.626,1.626,0,0,0-1.793-1.089q-3.561-.007-7.122,0" transform="translate(-38.731 -109.131)" fill="#615842"/>
          <path id="Path_613257" data-name="Path 613257" d="M61.613,92.518c1.824-1.414,3.572-2.793,5.361-4.128a1.965,1.965,0,0,1,1.076-.238q8.791-.018,17.581,0,6.616,0,13.232,0a.964.964,0,0,1,.156.03v8.7H97.795q-14.921-.006-29.842-.006a1.836,1.836,0,0,1-1.215-.386c-1.571-1.226-3.163-2.431-4.746-3.645-.125-.1-.239-.2-.378-.322m14.975-1.444c-2.021,0-4.041,0-6.062,0a16.463,16.463,0,0,0-1.661.054,1.4,1.4,0,0,0-1.37,1.245,1.325,1.325,0,0,0,1.06,1.471,5.275,5.275,0,0,0,1.362.173q6.686.013,13.373,0a4.714,4.714,0,0,0,.874-.061c1.324-.252,1.853-1.275,1.168-2.244a1.857,1.857,0,0,0-1.664-.634q-3.54-.007-7.08,0" transform="translate(-38.697 -55.361)" fill="#615842"/>
          <path id="Path_613258" data-name="Path 613258" d="M134.323,33.443c0-2.147-.012-4.294.012-6.441a2.325,2.325,0,0,1,.276-.989,1.582,1.582,0,0,1,1.508-.7,1.448,1.448,0,0,1,1.264,1.067,3.775,3.775,0,0,1,.082.783q.007,5.279,0,10.558c0,.014,0,.028,0,.042-.013.965-.349,1.475-1.1,1.681-.738.2-1.291-.029-1.916-.831q-2.623-3.37-5.234-6.748a1.971,1.971,0,0,0-.552-.513c0,.171,0,.341,0,.512q-.006,2.888-.015,5.777a3.774,3.774,0,0,1-.041.5,1.528,1.528,0,0,1-1.635,1.387,1.562,1.562,0,0,1-1.53-1.5c-.006-.1,0-.194,0-.291,0-3.45,0-6.9.006-10.35a4.558,4.558,0,0,1,.148-1.024,1.392,1.392,0,0,1,1.3-1.03,1.534,1.534,0,0,1,1.466.629c1.811,2.325,3.607,4.661,5.411,6.991.145.188.306.365.46.547l.1-.048" transform="translate(-78.783 -15.89)" fill="#615842"/>
          <path id="Path_613259" data-name="Path 613259" d="M98.516,34.651c-1.246,0-2.432.01-3.618-.006-.334,0-.428.1-.424.384.015,1,0,1.995.017,2.992a1.376,1.376,0,0,1-1.076,1.429,1.567,1.567,0,0,1-1.78-.646,1.631,1.631,0,0,1-.218-.831c0-2.756.017-5.513.03-8.269.01-2.132,2.033-4.225,4.785-4.375a5,5,0,0,1,5.339,3.98,9.709,9.709,0,0,1,.069,1.243q.015,3.7.014,7.4a1.571,1.571,0,0,1-1.986,1.532,1.359,1.359,0,0,1-1.151-1.327c0-1.148,0-2.3,0-3.5m-.006-2.719c0-.787.044-1.562-.012-2.332a2.085,2.085,0,0,0-2.2-1.53,2,2,0,0,0-1.837,1.9c-.017.526.015,1.053,0,1.579-.008.309.12.4.465.392,1.17-.02,2.341-.008,3.579-.008" transform="translate(-57.416 -15.902)" fill="#615842"/>
          <path id="Path_613260" data-name="Path 613260" d="M36.512,33.793c0,1.362.021,2.677-.014,3.99a2.247,2.247,0,0,1-.312,1.016,1.43,1.43,0,0,1-1.524.635,1.357,1.357,0,0,1-1.218-1.094,3.806,3.806,0,0,1-.071-.7q-.007-5.3,0-10.6c0-1,.293-1.447,1.084-1.687a2.729,2.729,0,0,1,.77-.107c1.234,0,2.469-.02,3.7.02a4.52,4.52,0,0,1,4.622,4.368,4.378,4.378,0,0,1-3.892,4.02,23.931,23.931,0,0,1-2.762.139c-.1,0-.211,0-.382,0m.026-5.81v2.978c.806,0,1.587.021,2.365-.006a1.435,1.435,0,0,0,.48-2.823,8.852,8.852,0,0,0-2.846-.149" transform="translate(-20.957 -15.851)" fill="#615842"/>
          <path id="Path_613261" data-name="Path 613261" d="M66.708,36.695c.218.009.382.022.547.022,1.3,0,2.59,0,3.885,0a1.958,1.958,0,0,1,1.355.439,1.178,1.178,0,0,1,.45,1.277,1.438,1.438,0,0,1-1.071,1,2.865,2.865,0,0,1-.73.086q-2.845.011-5.689,0a3.259,3.259,0,0,1-.686-.075,1.262,1.262,0,0,1-1.079-1.227c0-3.85.018-7.7-.017-11.55a1.566,1.566,0,0,1,1.4-1.361,1.536,1.536,0,0,1,1.593,1.183,3.718,3.718,0,0,1,.028.539q.008,4.528.013,9.057c0,.191,0,.381,0,.609" transform="translate(-39.99 -15.894)" fill="#615842"/>
          <path id="Path_613262" data-name="Path 613262" d="M28.3,179.539c1.285-1.206,2.537-2.407,3.823-3.578a1.645,1.645,0,0,1,2.579.374.943.943,0,0,1-.037,1.137,4.565,4.565,0,0,1-.548.613q-2.3,2.075-4.612,4.135a1.608,1.608,0,0,1-1.391.6,2.49,2.49,0,0,1-1.028-.369,22.978,22.978,0,0,1-1.809-1.6,1.221,1.221,0,0,1-.219-1.544,1.6,1.6,0,0,1,1.5-.794,1.534,1.534,0,0,1,.628.223c.34.211.65.46,1.117.8" transform="translate(-15.624 -110.225)" fill="#615842"/>
          <path id="Path_613263" data-name="Path 613263" d="M28.229,136.722c1.111-1,2.207-1.995,3.308-2.983.251-.225.5-.449.775-.655a1.628,1.628,0,0,1,2.022.068,1.121,1.121,0,0,1,.214,1.769c-.673.719-1.42,1.384-2.161,2.049-1.046.939-2.1,1.874-3.182,2.779a1.689,1.689,0,0,1-2.058-.043c-.594-.5-1.166-1.028-1.751-1.542a1.223,1.223,0,0,1-.35-1.49,1.659,1.659,0,0,1,1.32-.936,1.121,1.121,0,0,1,.685.179c.4.231.758.513,1.178.8" transform="translate(-15.658 -83.386)" fill="#615842"/>
          <path id="Path_613264" data-name="Path 613264" d="M28.284,94.085c.28-.277.566-.584.879-.866,1-.9,1.992-1.812,3.017-2.692a1.613,1.613,0,0,1,2.514.374.928.928,0,0,1-.008,1.1,4.467,4.467,0,0,1-.628.713c-1.5,1.356-2.993,2.715-4.524,4.041a3.064,3.064,0,0,1-1.178.579,1.337,1.337,0,0,1-1.257-.37c-.553-.5-1.133-.98-1.669-1.495a1.291,1.291,0,0,1,.64-2.322,1.674,1.674,0,0,1,1.035.127,7.924,7.924,0,0,1,1.178.811" transform="translate(-15.643 -56.58)" fill="#615842"/>
        </g>
      </g>
    </g>
  </g>
</svg>
