<svg xmlns="http://www.w3.org/2000/svg" xmlns:xlink="http://www.w3.org/1999/xlink" width="125" height="125" viewBox="0 0 125 125">
  <defs>
    <clipPath id="clip-path">
      <rect id="Rectangle_378640" data-name="Rectangle 378640" width="91" height="91" transform="translate(404 1176.978)" fill="#fff" stroke="#707070" stroke-width="1"/>
    </clipPath>
    <clipPath id="clip-path-2">
      <rect id="Rectangle_378953" data-name="Rectangle 378953" width="82" height="81.688" fill="#5e5a55"/>
    </clipPath>
  </defs>
  <g id="Group_1074736" data-name="Group 1074736" transform="translate(-16119 9706.834)">
    <g id="Group_1074207" data-name="Group 1074207" transform="translate(15733 -11852.834)">
      <path id="Path_608385" data-name="Path 608385" d="M62.5,0A62.5,62.5,0,1,1,0,62.5,62.5,62.5,0,0,1,62.5,0Z" transform="translate(386 2146)" fill="#fff"/>
    </g>
    <g id="Mask_Group_154387" data-name="Mask Group 154387" transform="translate(15732 -10865.978)" clip-path="url(#clip-path)">
      <g id="Group_1074672" data-name="Group 1074672" transform="translate(409 1181.978)">
        <g id="Group_1074671" data-name="Group 1074671" clip-path="url(#clip-path-2)">
          <path id="Path_613239" data-name="Path 613239" d="M24.292,76.963H14.056l-.085.113a1.434,1.434,0,0,1,.276.159A6.312,6.312,0,0,1,16.4,82.019c.016,3.647-.01,7.294.016,10.941a1.531,1.531,0,0,1-1.488,1.677c-.121.009-.243.014-.365.014H1.791a2.478,2.478,0,0,1-.365-.016,1.486,1.486,0,0,1-1.419-1.71C0,89.8-.01,86.68.015,83.558A16.919,16.919,0,0,1,.23,80.54a5.923,5.923,0,0,1,2.885-4c.111-.068.22-.14.379-.24a6.706,6.706,0,0,1-2-5.683,6.411,6.411,0,0,1,2-4.005,6.768,6.768,0,0,1,8.782-.56V46.541l-.056-.016c-.261.83-.518,1.662-.784,2.491a20.711,20.711,0,0,1-.695,2.075A4.277,4.277,0,0,1,4.5,53.119,4.245,4.245,0,0,1,2.37,49.132a6.718,6.718,0,0,1,.41-1.583q.669-2.334,1.348-4.664.793-2.715,1.6-5.425a16.071,16.071,0,0,1,1.078-3.094A9.2,9.2,0,0,1,11.452,30.1a10.6,10.6,0,0,1,1.769-.545c.59-.133,1.2-.182,1.791-.266-2.127-3.674-1.818-7.041,1.75-9.65a6.1,6.1,0,0,1,7.348-.1c3.112,2.07,3.867,5.019,2.588,8.564a2.013,2.013,0,0,0,.28-.092c3.211-1.665,6.417-3.34,9.635-4.992a10.6,10.6,0,0,1,2.077-.875,4.334,4.334,0,0,1,2.89,8.087c-2.922,1.534-5.863,3.033-8.794,4.55-1.255.65-2.5,1.311-3.76,1.955a.523.523,0,0,0-.327.537q.011,13.558.006,27.115v.379c3.232-.37,5.781.677,7.345,3.56,1.588,2.927.859,5.59-1.236,8.011.08.057.124.1.174.123a6.21,6.21,0,0,1,3.231,4.934,13.864,13.864,0,0,1,.088,1.642q.005,4.9-.011,9.807a1.592,1.592,0,0,1-1.832,1.808q-6.368,0-12.736,0a3.643,3.643,0,0,1-.761-.085A1.341,1.341,0,0,1,21.9,93.131c-.031-.511-.031-1.024-.031-1.536q0-4.666.013-9.331a6.362,6.362,0,0,1,2.31-5.155.845.845,0,0,0,.1-.146m-.528-2.824a15.107,15.107,0,0,1-.461-2.275,6.464,6.464,0,0,1,2.363-5.494.906.906,0,0,0,.356-.818c-.031-.547-.017-1.1-.017-1.646q0-13.721,0-27.442a1.668,1.668,0,0,1,.975-1.673c3.33-1.7,6.648-3.423,9.969-5.141,1.125-.582,2.26-1.146,3.363-1.767a1.619,1.619,0,0,0,.747-2.268,1.723,1.723,0,0,0-2.323-.709c-.255.116-.5.245-.752.374q-6.13,3.178-12.259,6.358a3.248,3.248,0,0,1-1.647.394c-.755-.027-1.513,0-2.269,0-2.281,0-4.563-.038-6.843-.009a6.512,6.512,0,0,0-6.294,4.818c-.453,1.566-.9,3.134-1.354,4.7-.478,1.648-.966,3.292-1.442,4.941-.26.9-.535,1.8-.745,2.709a1.662,1.662,0,0,0,.956,1.8,1.709,1.709,0,0,0,2.037-.646,2.885,2.885,0,0,0,.3-.661c.367-1.147.717-2.3,1.079-3.448q1.359-4.316,2.725-8.63a3.971,3.971,0,0,1,.357-.834,1.216,1.216,0,0,1,1.422-.548,1.236,1.236,0,0,1,.982,1.355c.016,1.354.008,2.708.008,4.061q0,14.618,0,29.235a7.3,7.3,0,0,1-.354,2.7c-.07.179-.129.362-.2.559h4.68V51.05h2.728V74.139Zm-10.1,17.847c0-.63,0-1.213,0-1.8-.01-2.877.01-5.756-.044-8.632a3.319,3.319,0,0,0-3.036-3.214c-1.492-.108-3-.079-4.494-.042a3.36,3.36,0,0,0-2.535,1.281,4.2,4.2,0,0,0-.9,2.795c-.011,1.853.014,3.707.019,5.56q0,1.866-.007,3.731c0,.215.034.324.3.322,2.854-.011,5.708-.007,8.561-.006h2.132M24.6,91.975H35.493a1.443,1.443,0,0,0,.025-.174c.006-3.377.032-6.754.008-10.131a3.429,3.429,0,0,0-3.07-3.325c-1.491-.108-3-.074-4.494-.033a3.45,3.45,0,0,0-1.426.4,3.336,3.336,0,0,0-1.922,3.082c-.033,3.145-.01,6.291-.01,9.437v.747m0-66.714a4,4,0,0,0-3.712-4.091c-2.659-.027-4.431,1.571-4.5,3.936a4.125,4.125,0,0,0,4.073,4.236,4.069,4.069,0,0,0,4.14-4.081M8.228,67.425A3.959,3.959,0,0,0,4.1,71.235a4.107,4.107,0,1,0,8.208.228,4,4,0,0,0-4.084-4.037m17.743,4a4.1,4.1,0,0,0,8.208.1,3.991,3.991,0,0,0-3.733-4.1c-2.7-.024-4.454,1.545-4.475,4" transform="translate(0 -12.967)" fill="#5e5a55"/>
          <path id="Path_613240" data-name="Path 613240" d="M79.307,32.722V2.684H2.7c-.006.115-.019.245-.019.375q.012,12.552.035,25.1c0,.36-.1.459-.453.447C1.531,28.585.8,28.6.019,28.6v-.446q0-13.175,0-26.349C.019.56.576,0,1.837,0Q6.87,0,11.9,0,45.961,0,80.019,0a3.626,3.626,0,0,1,.619.036,1.433,1.433,0,0,1,1.37,1.6c0,.11,0,.22,0,.33q0,15.773,0,31.545c0,.061,0,.122,0,.183a1.546,1.546,0,0,1-1.741,1.736q-4.356,0-8.711,0l-39.677,0h-.445c0-.661,0-1.28,0-1.9,0-.814,0-.81.83-.81l44.618,0h2.423" transform="translate(-0.013 0)" fill="#5e5a55"/>
          <path id="Path_613241" data-name="Path 613241" d="M152.214,187.789c-.193-.264-.379-.527-.575-.784a6.55,6.55,0,0,1-1.479-4.08,6.807,6.807,0,0,1,13.424-1.584,6.45,6.45,0,0,1-1.409,5.808c-.473.568-.47.552.126.96a6.217,6.217,0,0,1,2.843,5.281c.036,1.828.029,3.658.032,5.486,0,1.683-.008,3.365-.013,5.048q0,.256-.009.512a1.468,1.468,0,0,1-1.608,1.626c-.292.013-.585,0-.878,0H150.741c-1.436,0-2-.517-2.006-1.945-.011-3.547-.036-7.094.035-10.64a6.271,6.271,0,0,1,2.713-5.252c.216-.152.453-.275.731-.441M162.441,203.4v-.419c0-3.109-.009-6.219.008-9.328a4.127,4.127,0,0,0-.309-1.809,3.255,3.255,0,0,0-2.792-2.076,35.9,35.9,0,0,0-4.783,0,3.4,3.4,0,0,0-3.036,3.308c-.025,3.365-.008,6.731-.006,10.1a1.56,1.56,0,0,0,.036.226ZM156.99,178.84a4,4,0,0,0-4.13,4.039,4.119,4.119,0,1,0,8.238-.05,4.03,4.03,0,0,0-4.108-3.989" transform="translate(-105.043 -124.382)" fill="#5e5a55"/>
          <path id="Path_613242" data-name="Path 613242" d="M236.2,187.691c.364.256.7.473,1.017.72a5.809,5.809,0,0,1,2.37,4.51c.082,2.681.061,5.365.079,8.047.007,1.11,0,2.22,0,3.33a1.537,1.537,0,0,1-1.751,1.757q-6.46.007-12.919,0a1.535,1.535,0,0,1-1.591-.878,1.564,1.564,0,0,1-.133-.6c-.008-3.891-.108-7.786.035-11.671a5.824,5.824,0,0,1,3.042-4.926c.378-.223.394-.229.1-.578a6.835,6.835,0,0,1-1.643-3.257,6.524,6.524,0,0,1,2.34-6.475,6.747,6.747,0,0,1,9.49,9.527c-.135.154-.272.307-.435.491m-4.713,15.689v.012c1.72,0,3.439,0,5.159,0,.262,0,.35-.046.348-.34-.016-2.78-.009-5.56-.013-8.34a14.349,14.349,0,0,0-.036-1.713,3.526,3.526,0,0,0-3.344-3.292c-1.4-.1-2.8-.039-4.2-.011a3.363,3.363,0,0,0-1.966.7,3.583,3.583,0,0,0-1.441,3.082q.023,4.792,0,9.584c0,.281.094.315.337.314,1.719-.01,3.439,0,5.158,0m0-24.55a4.073,4.073,0,1,0,4.1,4.067,3.976,3.976,0,0,0-4.1-4.067" transform="translate(-157.669 -124.372)" fill="#5e5a55"/>
          <path id="Path_613243" data-name="Path 613243" d="M194.814,50.917c0,.861.006,1.7-.01,2.537,0,.072-.141.185-.23.2a3.054,3.054,0,0,1-.547.011q-13.079,0-26.157.011c-.3,0-.377-.082-.371-.369.017-.79.006-1.58.006-2.392Z" transform="translate(-118.305 -35.963)" fill="#5e5a55"/>
          <path id="Path_613244" data-name="Path 613244" d="M153.592,25.929V23.213c.138-.006.266-.017.4-.017q13.248,0,26.5-.008c.315,0,.427.065.412.4-.029.645-.024,1.293,0,1.938.013.326-.095.411-.411.411-3.94-.008-7.88,0-11.82,0q-7.429,0-14.858-.007h-.215" transform="translate(-108.483 -16.377)" fill="#5e5a55"/>
          <path id="Path_613245" data-name="Path 613245" d="M148.716,78.754h26.893c.51,0,.51,0,.508.524,0,.61-.01,1.22,0,1.829,0,.254-.089.331-.346.331q-13.337-.007-26.675,0c-.288,0-.4-.036-.389-.373.035-.753.011-1.508.011-2.315" transform="translate(-105.03 -55.624)" fill="#5e5a55"/>
        </g>
      </g>
    </g>
  </g>
</svg>
