<svg xmlns="http://www.w3.org/2000/svg" xmlns:xlink="http://www.w3.org/1999/xlink" width="125" height="125" viewBox="0 0 125 125">
  <defs>
    <clipPath id="clip-path">
      <rect id="Rectangle_378640" data-name="Rectangle 378640" width="91" height="91" transform="translate(404 1176.978)" fill="#fff" stroke="#707070" stroke-width="1"/>
    </clipPath>
    <clipPath id="clip-path-2">
      <rect id="Rectangle_378952" data-name="Rectangle 378952" width="84.25" height="83.926" fill="#615842"/>
    </clipPath>
  </defs>
  <g id="Group_1074735" data-name="Group 1074735" transform="translate(-16469 9718.834)">
    <g id="Group_1074207" data-name="Group 1074207" transform="translate(16083 -11864.834)">
      <path id="Path_608385" data-name="Path 608385" d="M62.5,0A62.5,62.5,0,1,1,0,62.5,62.5,62.5,0,0,1,62.5,0Z" transform="translate(386 2146)" fill="#fff"/>
    </g>
    <g id="Mask_Group_154387" data-name="Mask Group 154387" transform="translate(16082 -10877.978)" clip-path="url(#clip-path)">
      <g id="Group_1074670" data-name="Group 1074670" transform="translate(407 1180.977)">
        <g id="Group_1074669" data-name="Group 1074669" clip-path="url(#clip-path-2)">
          <path id="Path_613226" data-name="Path 613226" d="M142.188,182.952c.16.087.285.164.417.226.561.266,1.13.514,1.683.794a1.248,1.248,0,0,1,.744,1.294,1.214,1.214,0,0,1-.961,1.138,1.694,1.694,0,0,1-1-.123c-1.328-.577-2.634-1.2-3.95-1.806-.681-.313-1.366-.619-2.049-.928-.106-.048-.214-.093-.316-.148a1.337,1.337,0,0,1-.332-2.344c.947-.9,1.921-1.776,2.882-2.664.589-.544,1.164-1.107,1.77-1.633a1.3,1.3,0,0,1,2.1.465,1.134,1.134,0,0,1-.268,1.383c-.491.5-1.017.959-1.532,1.431-.084.076-.188.129-.241.266a30.875,30.875,0,0,0,9.265-2.591,35.5,35.5,0,0,0,8.222-5c-.38-.391-.743-.724-1.058-1.1a2.109,2.109,0,0,1-.013-2.983c.174-.208.085-.308-.048-.449-.658-.695-1.313-1.393-1.974-2.094-2.716,1.883-5.549,2.652-8.682,1.723a9.588,9.588,0,0,1-3.654-16.47,9.6,9.6,0,0,1,14.447,12.32,3.031,3.031,0,0,0,.229.28c.664.654,1.327,1.309,2.008,1.945a.417.417,0,0,0,.379-.034,2.1,2.1,0,0,1,1.822-.447,4.086,4.086,0,0,1,1.239.677,7.992,7.992,0,0,1,.92.967c.218-.278.386-.484.547-.7a35.243,35.243,0,0,0,5.979-12.138c.266-.982.98-1.459,1.792-1.2a1.238,1.238,0,0,1,.883,1.48,30.517,30.517,0,0,1-2.029,5.81,37.845,37.845,0,0,1-5.175,8.494.531.531,0,0,0-.041.092c.742.709,1.506,1.409,2.232,2.146a5.334,5.334,0,0,1,.807,1.075,1.773,1.773,0,0,1-.294,2.16,39.415,39.415,0,0,1-2.791,2.861,2.11,2.11,0,0,1-2.827.025c-.855-.731-1.652-1.53-2.475-2.3l-.3-.285a40.144,40.144,0,0,1-18.357,8.385m7.272-17.481a6.824,6.824,0,0,0,6.988-7.153,6.976,6.976,0,1,0-6.988,7.153M166.717,173l-5.038-4.775-1.854,1.945a2.047,2.047,0,0,1,.257.193c.861.839,1.716,1.684,2.576,2.524.6.587,1.208,1.169,1.812,1.754.14.135.258.23.452.041.574-.558,1.167-1.1,1.8-1.682" transform="translate(-93.501 -102.508)" fill="#615842"/>
          <path id="Path_613227" data-name="Path 613227" d="M62.5,59.561h.549q14.885,0,29.77,0a1.717,1.717,0,0,1,1.689.808,1.191,1.191,0,0,1-.483,1.684,2.9,2.9,0,0,1-1.22.3q-14.9.024-29.809.012h-.5c-.011.211-.03.4-.03.587q.005,14.552.013,29.1c0,.311.009.622.011.932a1.4,1.4,0,0,1-1.278,1.361A1.363,1.363,0,0,1,59.9,93.066c-.022-1.113,0-2.227,0-3.341q0-12.318,0-24.636c0-.892,0-1.784,0-2.728h-.506q-14.942,0-29.886,0a1.677,1.677,0,0,1-1.663-.851,1.2,1.2,0,0,1,.487-1.629,3.119,3.119,0,0,1,1.257-.305c4.3-.022,8.6-.013,12.9-.013H59.916v-.507Q59.91,52.76,59.9,46.465,59.9,38.83,59.9,31.194c0-.738,0-1.476,0-2.214a1.29,1.29,0,0,1,2.423-.707,1.387,1.387,0,0,1,.148.667q.01,8.937,0,17.873,0,6.179,0,12.356c0,.114.012.228.021.391" transform="translate(-19.058 -18.986)" fill="#615842"/>
          <path id="Path_613228" data-name="Path 613228" d="M70.895,71.484q-3.75,0-7.5,0a1.927,1.927,0,0,1-2.109-2.126q0-9.791,0-19.582a2.023,2.023,0,0,1,2.108-2.146c3.173-.013,6.347,0,9.52-.005a2.308,2.308,0,0,1,1.644.844q1.924,1.922,3.846,3.846c.485.485.967.974,1.455,1.456a1.84,1.84,0,0,1,.56,1.36c0,1.735.014,3.471.017,5.206q.006,4.487,0,8.975c0,.168-.006.337-.02.5a1.728,1.728,0,0,1-1.794,1.667q-3.867.006-7.733,0M64.111,68.8c.085.009.146.022.208.022q6.373-.006,12.746-.017c.737,0,.683.153.684-.676q0-5.5,0-11V56.25H77.26c-1.179,0-2.358,0-3.536,0a1.83,1.83,0,0,1-1.93-1.961c0-.7.021-1.4.026-2.1,0-.6,0-1.206,0-1.826h-7.71ZM74.457,52.346c0,.294-.01.675.009,1.056a.273.273,0,0,0,.2.178c.364.018.729.008,1.094.008l.056-.109-1.357-1.134" transform="translate(-42.173 -32.771)" fill="#615842"/>
          <path id="Path_613229" data-name="Path 613229" d="M165.9,54.02a5,5,0,0,1-.3.853,1.441,1.441,0,0,0-.044,1.6c.13.213.156.487.267.715a.719.719,0,0,0,.307.3c.323.162.669.278.993.438a1.457,1.457,0,0,1,.861,1.4c0,.764-.017,1.529,0,2.292a1.477,1.477,0,0,1-1.054,1.622A2,2,0,0,0,165.55,64.6a1.7,1.7,0,0,0,.078,1.677,1.294,1.294,0,0,1-.193,1.667q-.876.909-1.778,1.793a1.48,1.48,0,0,1-2.058.357,1.7,1.7,0,0,0-1.47-.045,2.072,2.072,0,0,0-1.471,1.509,1.323,1.323,0,0,1-1.343.918c-.842,0-1.685-.019-2.526.007a1.5,1.5,0,0,1-1.559-1.035,3.032,3.032,0,0,1-.164-.476.827.827,0,0,0-.6-.651.187.187,0,0,1-.036-.013,2.274,2.274,0,0,0-2.447-.086,1.187,1.187,0,0,1-1.486-.309q-.939-.929-1.876-1.86A1.274,1.274,0,0,1,146.3,66.4a1.975,1.975,0,0,0-.02-2.093c-.219-.433-.409-.773-.931-.917-.552-.152-1.126-.377-1.266-1.062a1.985,1.985,0,0,1-.042-.384c0-.945,0-1.891,0-2.836a1.2,1.2,0,0,1,.712-1.152,3.3,3.3,0,0,1,.75-.313c.377-.084.528-.329.69-.649a2.23,2.23,0,0,0,.087-2.382,1.181,1.181,0,0,1,.292-1.519c.628-.636,1.271-1.257,1.9-1.89a1.241,1.241,0,0,1,1.586-.317,2.06,2.06,0,0,0,2.188-.011,1.421,1.421,0,0,0,.9-.945,1.539,1.539,0,0,1,1.78-1.312c.777,0,1.555,0,2.332,0a1.388,1.388,0,0,1,1.447,1,5.575,5.575,0,0,0,.287.718.987.987,0,0,0,.4.378,12.609,12.609,0,0,0,1.25.524.689.689,0,0,0,.431-.01c.3-.108.591-.26.89-.382a1.262,1.262,0,0,1,1.44.255c.727.7,1.445,1.412,2.134,2.15a2.9,2.9,0,0,1,.374.76m-16.041-.333c-.389.011-.82.647-.7.954a2.66,2.66,0,0,0,.215.539,1.252,1.252,0,0,1-.068,1.378,12.065,12.065,0,0,0-.772,1.812,1.819,1.819,0,0,1-1.38,1.46c-.5.11-.473.466-.49.858s.215.508.525.587a1.691,1.691,0,0,1,1.268,1.231,9.031,9.031,0,0,0,.725,1.788,1.71,1.71,0,0,1,.068,1.949c-.277.422-.139.69.211.969.214.172.39.27.652.117.166-.1.372-.128.531-.233a1.067,1.067,0,0,1,1.164.016,15.743,15.743,0,0,0,2.133.91,1.76,1.76,0,0,1,1.309,1.291.58.58,0,0,0,.7.526c.528-.03.608-.045.839-.719a1.661,1.661,0,0,1,1.135-1.069,11.364,11.364,0,0,0,1.9-.772,1.512,1.512,0,0,1,1.761-.069,1.524,1.524,0,0,0,.435.162c.079.022.2.048.245.007a2.626,2.626,0,0,0,.6-.646c.063-.121-.09-.376-.181-.553a1.663,1.663,0,0,1,.032-1.759,6.544,6.544,0,0,0,.718-1.667,1.99,1.99,0,0,1,1.506-1.549.474.474,0,0,0,.294-.206.843.843,0,0,0-.55-1.2,1.725,1.725,0,0,1-1.176-1.231,6.148,6.148,0,0,0-.611-1.544,1.965,1.965,0,0,1-.071-2.407.36.36,0,0,0,.035-.312.864.864,0,0,0-1.216-.441,2.075,2.075,0,0,0-.283.125,1.252,1.252,0,0,1-1.254-.024,15.869,15.869,0,0,0-2.024-.868,1.823,1.823,0,0,1-1.32-1.178c-.24-.686-.276-.664-.985-.661-.291,0-.391.11-.457.383a1.805,1.805,0,0,1-1.177,1.379c-.785.289-1.559.613-2.32.961a1.293,1.293,0,0,1-1.256,0,6.594,6.594,0,0,0-.7-.295" transform="translate(-99.12 -33.458)" fill="#615842"/>
          <path id="Path_613230" data-name="Path 613230" d="M73.257,154.89a11.975,11.975,0,1,1-11.933-11.965A11.982,11.982,0,0,1,73.257,154.89m-2.693-.049a9.282,9.282,0,1,0-9.18,9.264,9.261,9.261,0,0,0,9.18-9.264" transform="translate(-33.931 -98.353)" fill="#615842"/>
          <path id="Path_613231" data-name="Path 613231" d="M192.405,44.783c.059-.118.121-.235.176-.355.254-.552.489-1.112.762-1.654a1.32,1.32,0,0,1,2.491.273,1.518,1.518,0,0,1-.123.854c-.647,1.453-1.326,2.891-1.992,4.334-.3.646-.586,1.3-.893,1.937-.365.763-.934,1.1-1.6.905a1.517,1.517,0,0,1-.653-.388c-1.493-1.565-2.981-3.134-4.445-4.726a1.211,1.211,0,0,1,.063-1.829,1.289,1.289,0,0,1,1.846.03c.511.5.986,1.026,1.472,1.547a1.336,1.336,0,0,1,.153.266l.129-.088c-.1-.587-.179-1.178-.3-1.76a36.048,36.048,0,0,0-3.518-9.74,36.419,36.419,0,0,0-15.517-15.309,33.115,33.115,0,0,0-7.149-2.756,1.358,1.358,0,0,1-.718-2.3,1.262,1.262,0,0,1,1.263-.291,34.25,34.25,0,0,1,5.6,1.938,38.381,38.381,0,0,1,11.181,7.389,39.409,39.409,0,0,1,8.715,12.13,38.176,38.176,0,0,1,2.7,8.153c.1.466.186.935.279,1.4l.08.036" transform="translate(-111.604 -9.415)" fill="#615842"/>
          <path id="Path_613232" data-name="Path 613232" d="M45,3.47l-1.1-.515c-.339-.16-.689-.3-1.014-.485A1.291,1.291,0,0,1,42.336.7,1.29,1.29,0,0,1,44.088.141q3.051,1.394,6.1,2.794c.106.048.21.1.311.159a1.323,1.323,0,0,1,.29,2.324C49.726,6.422,48.639,7.4,47.563,8.394c-.5.456-.97.937-1.493,1.358a1.3,1.3,0,0,1-2.021-.5,1.2,1.2,0,0,1,.354-1.5c.473-.46.971-.9,1.456-1.343.09-.083.168-.178.252-.268l-.05-.113c-1.059.211-2.129.379-3.176.639a35.622,35.622,0,0,0-9.839,4.009,36.339,36.339,0,0,0-14.763,16.48,29.578,29.578,0,0,0-1.84,5.179,1.424,1.424,0,0,1-1.36,1.177,1.276,1.276,0,0,1-1.287-.976,1.338,1.338,0,0,1,0-.607,30.758,30.758,0,0,1,1.847-5.381,38.314,38.314,0,0,1,9.114-12.955A39.311,39.311,0,0,1,37.672,5.515,40.68,40.68,0,0,1,44,3.7c.322-.067.651-.1.977-.148L45,3.47" transform="translate(-9.469 0)" fill="#615842"/>
          <path id="Path_613233" data-name="Path 613233" d="M3.452,141.735c-.135.3-.266.608-.405.91-.178.387-.347.78-.548,1.156a1.328,1.328,0,0,1-1.794.583,1.3,1.3,0,0,1-.578-1.723q1.428-3.122,2.884-6.23a2.236,2.236,0,0,1,.6-.794,1.216,1.216,0,0,1,1.632.161q2.292,2.4,4.544,4.846a1.188,1.188,0,0,1-.072,1.711,1.27,1.27,0,0,1-1.816.091c-.546-.514-1.044-1.079-1.565-1.62-.069-.071-.145-.136-.3-.278.121.693.207,1.286.329,1.871a35.6,35.6,0,0,0,3.478,9.67,36.26,36.26,0,0,0,17.308,16.205A33.2,33.2,0,0,0,32.51,170.2a1.456,1.456,0,0,1,1.159,1.336,1.217,1.217,0,0,1-1,1.255,3.168,3.168,0,0,1-1.254-.131A39.236,39.236,0,0,1,5.1,147.822a52.558,52.558,0,0,1-1.65-6.087" transform="translate(0 -93.17)" fill="#615842"/>
          <path id="Path_613234" data-name="Path 613234" d="M79.968,79.922c-1.4,0-2.795.025-4.191-.011a1.41,1.41,0,0,1-1.283-1.36,1.444,1.444,0,0,1,1.423-1.28q4.058-.007,8.116,0a1.293,1.293,0,0,1,1.355,1.257,1.2,1.2,0,0,1-1.229,1.383c-1.4.045-2.794.012-4.191.011" transform="translate(-51.262 -53.171)" fill="#615842"/>
          <path id="Path_613235" data-name="Path 613235" d="M80.117,93.027c-1.358,0-2.717,0-4.075,0a1.306,1.306,0,0,1-1.152-.6,1.329,1.329,0,0,1,.927-2.05,8.616,8.616,0,0,1,1.085-.045q3.436-.009,6.871-.007a4.844,4.844,0,0,1,.541.038,1.315,1.315,0,0,1,1.2,1.416A1.231,1.231,0,0,1,84.27,93.01c-1,.031-1.992.02-2.989.026-.388,0-.776,0-1.164,0v-.009" transform="translate(-51.382 -62.156)" fill="#615842"/>
          <path id="Path_613236" data-name="Path 613236" d="M80.12,106.2c-1.309,0-2.617,0-3.926,0a1.423,1.423,0,0,1-1.217-.477,1.315,1.315,0,0,1,.811-2.161,3.965,3.965,0,0,1,.7-.059q3.576-.009,7.152-.005a4.6,4.6,0,0,1,.734.061,1.287,1.287,0,0,1,1.135,1.46,1.269,1.269,0,0,1-1.342,1.181c-1.348.006-2.695,0-4.042,0" transform="translate(-51.377 -71.223)" fill="#615842"/>
          <path id="Path_613237" data-name="Path 613237" d="M168.288,79.253a6.33,6.33,0,1,1,.08-12.66,6.33,6.33,0,1,1-.08,12.66m3.63-6.4a3.541,3.541,0,0,0-3.605-3.612,3.676,3.676,0,0,0-.022,7.352,3.563,3.563,0,0,0,3.627-3.74" transform="translate(-111.448 -45.825)" fill="#615842"/>
          <path id="Path_613238" data-name="Path 613238" d="M70.217,170.706a4.36,4.36,0,0,1,.773.478c.521.465,1.007.971,1.49,1.476.184.193.308.207.511.022,1.713-1.561,3.436-3.111,5.152-4.669a1.352,1.352,0,0,1,2.263.32,1.111,1.111,0,0,1-.128,1.241,6.673,6.673,0,0,1-.707.718q-2.788,2.535-5.583,5.063c-1.05.951-1.623.936-2.613-.057-.6-.605-1.215-1.2-1.814-1.812a7.6,7.6,0,0,1-.614-.7,1.107,1.107,0,0,1-.106-1.334,1.509,1.509,0,0,1,1.375-.746" transform="translate(-47.252 -115.296)" fill="#615842"/>
        </g>
      </g>
    </g>
  </g>
</svg>
