<svg xmlns="http://www.w3.org/2000/svg" xmlns:xlink="http://www.w3.org/1999/xlink" width="1240.331" height="469.953" viewBox="0 0 1240.331 469.953">
  <defs>
    <clipPath id="clip-path">
      <path id="Rectangle_652" data-name="Rectangle 652" d="M19.533,0H1220.8c10.787,0,19.533,7.583,19.533,16.938V453.015c0,9.354-8.745,16.938-19.533,16.938H19.533C8.745,469.953,0,462.37,0,453.015V16.938C0,7.583,8.745,0,19.533,0Z" transform="translate(0 0)" fill="#9ac1df"/>
    </clipPath>
    <clipPath id="clip-path-2">
      <rect id="Rectangle_378243" data-name="Rectangle 378243" width="1253" height="630.945" transform="translate(0 0)" fill="none"/>
    </clipPath>
  </defs>
  <g id="Mask_Group_154386" data-name="Mask Group 154386" clip-path="url(#clip-path)">
    <g id="fondo" transform="translate(-18.793 -18.979)">
      <path id="Path_610512" data-name="Path 610512" d="M0,0H1284.495V646.186H0Z" fill="#e1d6cb"/>
      <g id="Group_1073477" data-name="Group 1073477" transform="translate(18.793 6.476)" clip-path="url(#clip-path-2)">
        <line id="Line_3626" data-name="Line 3626" x1="1035.352" y2="995.811" transform="translate(-348.228 -646.227)" fill="none" stroke="#e3dad0" stroke-miterlimit="10" stroke-width="3"/>
        <line id="Line_3627" data-name="Line 3627" x1="1035.355" y2="995.811" transform="translate(-340.187 -638.489)" fill="none" stroke="#e3dad0" stroke-miterlimit="10" stroke-width="3"/>
        <line id="Line_3628" data-name="Line 3628" x1="1035.355" y2="995.811" transform="translate(-332.145 -630.755)" fill="none" stroke="#e3dad0" stroke-miterlimit="10" stroke-width="3"/>
        <line id="Line_3629" data-name="Line 3629" x1="1035.352" y2="995.811" transform="translate(-324.101 -623.021)" fill="none" stroke="#e3dad0" stroke-miterlimit="10" stroke-width="3"/>
        <line id="Line_3630" data-name="Line 3630" x1="1035.355" y2="995.808" transform="translate(-316.059 -615.283)" fill="none" stroke="#e3dad0" stroke-miterlimit="10" stroke-width="3"/>
        <line id="Line_3631" data-name="Line 3631" x1="1035.355" y2="995.811" transform="translate(-308.018 -607.549)" fill="none" stroke="#e3dad0" stroke-miterlimit="10" stroke-width="3"/>
        <line id="Line_3632" data-name="Line 3632" x1="1035.355" y2="995.811" transform="translate(-299.976 -599.814)" fill="none" stroke="#e3dad0" stroke-miterlimit="10" stroke-width="3"/>
        <line id="Line_3633" data-name="Line 3633" x1="1035.352" y2="995.808" transform="translate(-291.931 -592.077)" fill="none" stroke="#e3dad0" stroke-miterlimit="10" stroke-width="3"/>
        <line id="Line_3634" data-name="Line 3634" x1="1035.355" y2="995.811" transform="translate(-283.89 -584.342)" fill="none" stroke="#e3dad0" stroke-miterlimit="10" stroke-width="3"/>
        <line id="Line_3635" data-name="Line 3635" x1="1035.355" y2="995.811" transform="translate(-275.849 -576.608)" fill="none" stroke="#e3dad0" stroke-miterlimit="10" stroke-width="3"/>
        <line id="Line_3636" data-name="Line 3636" x1="1035.352" y2="995.811" transform="translate(-267.804 -568.874)" fill="none" stroke="#e3dad0" stroke-miterlimit="10" stroke-width="3"/>
        <line id="Line_3637" data-name="Line 3637" x1="1035.355" y2="995.808" transform="translate(-259.762 -561.136)" fill="none" stroke="#e3dad0" stroke-miterlimit="10" stroke-width="3"/>
        <line id="Line_3638" data-name="Line 3638" x1="1035.355" y2="995.811" transform="translate(-251.721 -553.402)" fill="none" stroke="#e3dad0" stroke-miterlimit="10" stroke-width="3"/>
        <line id="Line_3639" data-name="Line 3639" x1="1035.352" y2="995.811" transform="translate(-243.676 -545.668)" fill="none" stroke="#e3dad0" stroke-miterlimit="10" stroke-width="3"/>
        <line id="Line_3640" data-name="Line 3640" x1="1035.355" y2="995.808" transform="translate(-235.635 -537.93)" fill="none" stroke="#e3dad0" stroke-miterlimit="10" stroke-width="3"/>
        <line id="Line_3641" data-name="Line 3641" x1="1035.355" y2="995.811" transform="translate(-227.593 -530.196)" fill="none" stroke="#e3dad0" stroke-miterlimit="10" stroke-width="3"/>
        <line id="Line_3642" data-name="Line 3642" x1="1035.355" y2="995.811" transform="translate(-219.552 -522.461)" fill="none" stroke="#e3dad0" stroke-miterlimit="10" stroke-width="3"/>
        <line id="Line_3643" data-name="Line 3643" x1="1035.352" y2="995.808" transform="translate(-211.507 -514.724)" fill="none" stroke="#e3dad0" stroke-miterlimit="10" stroke-width="3"/>
        <line id="Line_3644" data-name="Line 3644" x1="1035.355" y2="995.811" transform="translate(-203.465 -506.99)" fill="none" stroke="#e3dad0" stroke-miterlimit="10" stroke-width="3"/>
        <line id="Line_3645" data-name="Line 3645" x1="1035.355" y2="995.811" transform="translate(-195.424 -499.255)" fill="none" stroke="#e3dad0" stroke-miterlimit="10" stroke-width="3"/>
        <line id="Line_3646" data-name="Line 3646" x1="1035.352" y2="995.811" transform="translate(-187.379 -491.521)" fill="none" stroke="#e3dad0" stroke-miterlimit="10" stroke-width="3"/>
        <line id="Line_3647" data-name="Line 3647" x1="1035.355" y2="995.811" transform="translate(-179.338 -483.783)" fill="none" stroke="#e3dad0" stroke-miterlimit="10" stroke-width="3"/>
        <line id="Line_3648" data-name="Line 3648" x1="1035.355" y2="995.811" transform="translate(-171.296 -476.049)" fill="none" stroke="#e3dad0" stroke-miterlimit="10" stroke-width="3"/>
        <line id="Line_3649" data-name="Line 3649" x1="1035.352" y2="995.811" transform="translate(-163.251 -468.315)" fill="none" stroke="#e3dad0" stroke-miterlimit="10" stroke-width="3"/>
        <line id="Line_3650" data-name="Line 3650" x1="1035.355" y2="995.808" transform="translate(-155.21 -460.577)" fill="none" stroke="#e3dad0" stroke-miterlimit="10" stroke-width="3"/>
        <line id="Line_3651" data-name="Line 3651" x1="1035.355" y2="995.811" transform="translate(-147.168 -452.843)" fill="none" stroke="#e3dad0" stroke-miterlimit="10" stroke-width="3"/>
        <line id="Line_3652" data-name="Line 3652" x1="1035.352" y2="995.811" transform="translate(-139.124 -445.108)" fill="none" stroke="#e3dad0" stroke-miterlimit="10" stroke-width="3"/>
        <line id="Line_3653" data-name="Line 3653" x1="1035.352" y2="995.808" transform="translate(-131.082 -437.371)" fill="none" stroke="#e3dad0" stroke-miterlimit="10" stroke-width="3"/>
        <line id="Line_3654" data-name="Line 3654" x1="1035.355" y2="995.811" transform="translate(-123.041 -429.637)" fill="none" stroke="#e3dad0" stroke-miterlimit="10" stroke-width="3"/>
        <line id="Line_3655" data-name="Line 3655" x1="1035.355" y2="995.811" transform="translate(-114.999 -421.902)" fill="none" stroke="#e3dad0" stroke-miterlimit="10" stroke-width="3"/>
        <line id="Line_3656" data-name="Line 3656" x1="1035.352" y2="995.811" transform="translate(-106.954 -414.168)" fill="none" stroke="#e3dad0" stroke-miterlimit="10" stroke-width="3"/>
        <line id="Line_3657" data-name="Line 3657" x1="1035.355" y2="995.811" transform="translate(-98.913 -406.43)" fill="none" stroke="#e3dad0" stroke-miterlimit="10" stroke-width="3"/>
        <line id="Line_3658" data-name="Line 3658" x1="1035.355" y2="995.811" transform="translate(-90.872 -398.696)" fill="none" stroke="#e3dad0" stroke-miterlimit="10" stroke-width="3"/>
        <line id="Line_3659" data-name="Line 3659" x1="1035.352" y2="995.811" transform="translate(-82.827 -390.962)" fill="none" stroke="#e3dad0" stroke-miterlimit="10" stroke-width="3"/>
        <line id="Line_3660" data-name="Line 3660" x1="1035.355" y2="995.808" transform="translate(-74.785 -383.224)" fill="none" stroke="#e3dad0" stroke-miterlimit="10" stroke-width="3"/>
        <line id="Line_3661" data-name="Line 3661" x1="1035.355" y2="995.811" transform="translate(-66.744 -375.49)" fill="none" stroke="#e3dad0" stroke-miterlimit="10" stroke-width="3"/>
        <line id="Line_3662" data-name="Line 3662" x1="1035.355" y2="995.811" transform="translate(-58.702 -367.756)" fill="none" stroke="#e3dad0" stroke-miterlimit="10" stroke-width="3"/>
        <line id="Line_3663" data-name="Line 3663" x1="1035.352" y2="995.808" transform="translate(-50.657 -360.018)" fill="none" stroke="#e3dad0" stroke-miterlimit="10" stroke-width="3"/>
        <line id="Line_3664" data-name="Line 3664" x1="1035.355" y2="995.811" transform="translate(-42.616 -352.284)" fill="none" stroke="#e3dad0" stroke-miterlimit="10" stroke-width="3"/>
        <line id="Line_3665" data-name="Line 3665" x1="1035.355" y2="995.811" transform="translate(-34.575 -344.549)" fill="none" stroke="#e3dad0" stroke-miterlimit="10" stroke-width="3"/>
        <line id="Line_3666" data-name="Line 3666" x1="1035.352" y2="995.811" transform="translate(-26.53 -336.815)" fill="none" stroke="#e3dad0" stroke-miterlimit="10" stroke-width="3"/>
        <line id="Line_3667" data-name="Line 3667" x1="1035.355" y2="995.811" transform="translate(-18.488 -329.077)" fill="none" stroke="#e3dad0" stroke-miterlimit="10" stroke-width="3"/>
        <line id="Line_3668" data-name="Line 3668" x1="1035.355" y2="995.811" transform="translate(-10.447 -321.343)" fill="none" stroke="#e3dad0" stroke-miterlimit="10" stroke-width="3"/>
        <line id="Line_3669" data-name="Line 3669" x1="1035.352" y2="995.811" transform="translate(-2.402 -313.609)" fill="none" stroke="#e3dad0" stroke-miterlimit="10" stroke-width="3"/>
        <line id="Line_3670" data-name="Line 3670" x1="1035.355" y2="995.808" transform="translate(5.639 -305.871)" fill="none" stroke="#e3dad0" stroke-miterlimit="10" stroke-width="3"/>
        <line id="Line_3671" data-name="Line 3671" x1="1035.355" y2="995.811" transform="translate(13.681 -298.137)" fill="none" stroke="#e3dad0" stroke-miterlimit="10" stroke-width="3"/>
        <line id="Line_3672" data-name="Line 3672" x1="1035.355" y2="995.811" transform="translate(21.722 -290.403)" fill="none" stroke="#e3dad0" stroke-miterlimit="10" stroke-width="3"/>
        <line id="Line_3673" data-name="Line 3673" x1="1035.352" y2="995.808" transform="translate(29.767 -282.665)" fill="none" stroke="#e3dad0" stroke-miterlimit="10" stroke-width="3"/>
        <line id="Line_3674" data-name="Line 3674" x1="1035.355" y2="995.811" transform="translate(37.809 -274.931)" fill="none" stroke="#e3dad0" stroke-miterlimit="10" stroke-width="3"/>
        <line id="Line_3675" data-name="Line 3675" x1="1035.355" y2="995.811" transform="translate(45.85 -267.196)" fill="none" stroke="#e3dad0" stroke-miterlimit="10" stroke-width="3"/>
        <line id="Line_3676" data-name="Line 3676" x1="1035.352" y2="995.811" transform="translate(53.895 -259.462)" fill="none" stroke="#e3dad0" stroke-miterlimit="10" stroke-width="3"/>
        <line id="Line_3677" data-name="Line 3677" x1="1035.355" y2="995.811" transform="translate(61.936 -251.725)" fill="none" stroke="#e3dad0" stroke-miterlimit="10" stroke-width="3"/>
        <line id="Line_3678" data-name="Line 3678" x1="1035.355" y2="995.811" transform="translate(69.978 -243.99)" fill="none" stroke="#e3dad0" stroke-miterlimit="10" stroke-width="3"/>
        <line id="Line_3679" data-name="Line 3679" x1="1035.352" y2="995.811" transform="translate(78.023 -236.256)" fill="none" stroke="#e3dad0" stroke-miterlimit="10" stroke-width="3"/>
        <line id="Line_3680" data-name="Line 3680" x1="1035.355" y2="995.808" transform="translate(86.064 -228.518)" fill="none" stroke="#e3dad0" stroke-miterlimit="10" stroke-width="3"/>
        <line id="Line_3681" data-name="Line 3681" x1="1035.355" y2="995.811" transform="translate(94.105 -220.784)" fill="none" stroke="#e3dad0" stroke-miterlimit="10" stroke-width="3"/>
        <line id="Line_3682" data-name="Line 3682" x1="1035.355" y2="995.811" transform="translate(102.147 -213.05)" fill="none" stroke="#e3dad0" stroke-miterlimit="10" stroke-width="3"/>
        <line id="Line_3683" data-name="Line 3683" x1="1035.352" y2="995.808" transform="translate(110.192 -205.312)" fill="none" stroke="#e3dad0" stroke-miterlimit="10" stroke-width="3"/>
        <line id="Line_3684" data-name="Line 3684" x1="1035.355" y2="995.811" transform="translate(118.233 -197.578)" fill="none" stroke="#e3dad0" stroke-miterlimit="10" stroke-width="3"/>
        <line id="Line_3685" data-name="Line 3685" x1="1035.355" y2="995.811" transform="translate(126.275 -189.844)" fill="none" stroke="#e3dad0" stroke-miterlimit="10" stroke-width="3"/>
        <line id="Line_3686" data-name="Line 3686" x1="1035.352" y2="995.811" transform="translate(134.32 -182.109)" fill="none" stroke="#e3dad0" stroke-miterlimit="10" stroke-width="3"/>
        <line id="Line_3687" data-name="Line 3687" x1="1035.355" y2="995.811" transform="translate(142.361 -174.372)" fill="none" stroke="#e3dad0" stroke-miterlimit="10" stroke-width="3"/>
        <line id="Line_3688" data-name="Line 3688" x1="1035.355" y2="995.811" transform="translate(150.402 -166.637)" fill="none" stroke="#e3dad0" stroke-miterlimit="10" stroke-width="3"/>
        <line id="Line_3689" data-name="Line 3689" x1="1035.352" y2="995.811" transform="translate(158.447 -158.903)" fill="none" stroke="#e3dad0" stroke-miterlimit="10" stroke-width="3"/>
        <line id="Line_3690" data-name="Line 3690" x1="1035.355" y2="995.808" transform="translate(166.489 -151.165)" fill="none" stroke="#e3dad0" stroke-miterlimit="10" stroke-width="3"/>
        <line id="Line_3691" data-name="Line 3691" x1="1035.355" y2="995.811" transform="translate(174.53 -143.431)" fill="none" stroke="#e3dad0" stroke-miterlimit="10" stroke-width="3"/>
        <line id="Line_3692" data-name="Line 3692" x1="1035.355" y2="995.811" transform="translate(182.572 -135.697)" fill="none" stroke="#e3dad0" stroke-miterlimit="10" stroke-width="3"/>
        <line id="Line_3693" data-name="Line 3693" x1="1035.352" y2="995.808" transform="translate(190.616 -127.959)" fill="none" stroke="#e3dad0" stroke-miterlimit="10" stroke-width="3"/>
        <line id="Line_3694" data-name="Line 3694" x1="1035.355" y2="995.811" transform="translate(198.658 -120.225)" fill="none" stroke="#e3dad0" stroke-miterlimit="10" stroke-width="3"/>
        <line id="Line_3695" data-name="Line 3695" x1="1035.355" y2="995.811" transform="translate(206.699 -112.491)" fill="none" stroke="#e3dad0" stroke-miterlimit="10" stroke-width="3"/>
        <line id="Line_3696" data-name="Line 3696" x1="1035.352" y2="995.811" transform="translate(214.744 -104.756)" fill="none" stroke="#e3dad0" stroke-miterlimit="10" stroke-width="3"/>
        <line id="Line_3697" data-name="Line 3697" x1="1035.355" y2="995.811" transform="translate(222.786 -97.019)" fill="none" stroke="#e3dad0" stroke-miterlimit="10" stroke-width="3"/>
        <line id="Line_3698" data-name="Line 3698" x1="1035.355" y2="995.811" transform="translate(230.827 -89.284)" fill="none" stroke="#e3dad0" stroke-miterlimit="10" stroke-width="3"/>
        <line id="Line_3699" data-name="Line 3699" x1="1035.352" y2="995.811" transform="translate(238.872 -81.55)" fill="none" stroke="#e3dad0" stroke-miterlimit="10" stroke-width="3"/>
        <line id="Line_3700" data-name="Line 3700" x1="1035.355" y2="995.808" transform="translate(246.913 -73.813)" fill="none" stroke="#e3dad0" stroke-miterlimit="10" stroke-width="3"/>
        <line id="Line_3701" data-name="Line 3701" x1="1035.355" y2="995.811" transform="translate(254.955 -66.078)" fill="none" stroke="#e3dad0" stroke-miterlimit="10" stroke-width="3"/>
        <line id="Line_3702" data-name="Line 3702" x1="1035.355" y2="995.811" transform="translate(262.996 -58.344)" fill="none" stroke="#e3dad0" stroke-miterlimit="10" stroke-width="3"/>
        <line id="Line_3703" data-name="Line 3703" x1="1035.352" y2="995.808" transform="translate(271.041 -50.606)" fill="none" stroke="#e3dad0" stroke-miterlimit="10" stroke-width="3"/>
        <line id="Line_3704" data-name="Line 3704" x1="1035.355" y2="995.811" transform="translate(279.083 -42.872)" fill="none" stroke="#e3dad0" stroke-miterlimit="10" stroke-width="3"/>
        <line id="Line_3705" data-name="Line 3705" x1="1035.355" y2="995.811" transform="translate(287.124 -35.138)" fill="none" stroke="#e3dad0" stroke-miterlimit="10" stroke-width="3"/>
        <line id="Line_3706" data-name="Line 3706" x1="1035.352" y2="995.811" transform="translate(295.169 -27.403)" fill="none" stroke="#e3dad0" stroke-miterlimit="10" stroke-width="3"/>
        <line id="Line_3707" data-name="Line 3707" x1="1035.355" y2="995.811" transform="translate(303.21 -19.666)" fill="none" stroke="#e3dad0" stroke-miterlimit="10" stroke-width="3"/>
        <line id="Line_3708" data-name="Line 3708" x1="1035.355" y2="995.811" transform="translate(311.252 -11.932)" fill="none" stroke="#e3dad0" stroke-miterlimit="10" stroke-width="3"/>
        <line id="Line_3709" data-name="Line 3709" x1="1035.352" y2="995.811" transform="translate(319.297 -4.197)" fill="none" stroke="#e3dad0" stroke-miterlimit="10" stroke-width="3"/>
        <line id="Line_3710" data-name="Line 3710" x1="1035.355" y2="995.808" transform="translate(327.338 3.54)" fill="none" stroke="#e3dad0" stroke-miterlimit="10" stroke-width="3"/>
        <line id="Line_3711" data-name="Line 3711" x1="1035.355" y2="995.811" transform="translate(335.379 11.275)" fill="none" stroke="#e3dad0" stroke-miterlimit="10" stroke-width="3"/>
        <line id="Line_3712" data-name="Line 3712" x1="1035.355" y2="995.811" transform="translate(343.421 19.009)" fill="none" stroke="#e3dad0" stroke-miterlimit="10" stroke-width="3"/>
        <line id="Line_3713" data-name="Line 3713" x1="1035.352" y2="995.808" transform="translate(351.466 26.747)" fill="none" stroke="#e3dad0" stroke-miterlimit="10" stroke-width="3"/>
        <line id="Line_3714" data-name="Line 3714" x1="1035.355" y2="995.811" transform="translate(359.507 34.481)" fill="none" stroke="#e3dad0" stroke-miterlimit="10" stroke-width="3"/>
        <line id="Line_3715" data-name="Line 3715" x1="1035.355" y2="995.811" transform="translate(367.549 42.215)" fill="none" stroke="#e3dad0" stroke-miterlimit="10" stroke-width="3"/>
        <line id="Line_3716" data-name="Line 3716" x1="1035.352" y2="995.811" transform="translate(375.593 49.949)" fill="none" stroke="#e3dad0" stroke-miterlimit="10" stroke-width="3"/>
        <line id="Line_3717" data-name="Line 3717" x1="1035.355" y2="995.811" transform="translate(383.635 57.687)" fill="none" stroke="#e3dad0" stroke-miterlimit="10" stroke-width="3"/>
        <line id="Line_3718" data-name="Line 3718" x1="1035.355" y2="995.811" transform="translate(391.676 65.421)" fill="none" stroke="#e3dad0" stroke-miterlimit="10" stroke-width="3"/>
        <line id="Line_3719" data-name="Line 3719" x1="1035.352" y2="995.811" transform="translate(399.721 73.156)" fill="none" stroke="#e3dad0" stroke-miterlimit="10" stroke-width="3"/>
        <line id="Line_3720" data-name="Line 3720" x1="1035.355" y2="995.808" transform="translate(407.763 80.893)" fill="none" stroke="#e3dad0" stroke-miterlimit="10" stroke-width="3"/>
        <line id="Line_3721" data-name="Line 3721" x1="1035.355" y2="995.811" transform="translate(415.804 88.628)" fill="none" stroke="#e3dad0" stroke-miterlimit="10" stroke-width="3"/>
        <line id="Line_3722" data-name="Line 3722" x1="1035.355" y2="995.811" transform="translate(423.845 96.362)" fill="none" stroke="#e3dad0" stroke-miterlimit="10" stroke-width="3"/>
        <line id="Line_3723" data-name="Line 3723" x1="1035.352" y2="995.808" transform="translate(431.89 104.099)" fill="none" stroke="#e3dad0" stroke-miterlimit="10" stroke-width="3"/>
        <line id="Line_3724" data-name="Line 3724" x1="1035.355" y2="995.811" transform="translate(439.932 111.834)" fill="none" stroke="#e3dad0" stroke-miterlimit="10" stroke-width="3"/>
        <line id="Line_3725" data-name="Line 3725" x1="1035.355" y2="995.811" transform="translate(447.973 119.568)" fill="none" stroke="#e3dad0" stroke-miterlimit="10" stroke-width="3"/>
        <line id="Line_3726" data-name="Line 3726" x1="1035.352" y2="995.811" transform="translate(456.018 127.302)" fill="none" stroke="#e3dad0" stroke-miterlimit="10" stroke-width="3"/>
        <line id="Line_3727" data-name="Line 3727" x1="1035.355" y2="995.811" transform="translate(464.059 135.04)" fill="none" stroke="#e3dad0" stroke-miterlimit="10" stroke-width="3"/>
        <line id="Line_3728" data-name="Line 3728" x1="1035.355" y2="995.811" transform="translate(472.101 142.774)" fill="none" stroke="#e3dad0" stroke-miterlimit="10" stroke-width="3"/>
        <line id="Line_3729" data-name="Line 3729" x1="1035.352" y2="995.811" transform="translate(480.146 150.508)" fill="none" stroke="#e3dad0" stroke-miterlimit="10" stroke-width="3"/>
        <line id="Line_3730" data-name="Line 3730" x1="1035.355" y2="995.808" transform="translate(488.187 158.246)" fill="none" stroke="#e3dad0" stroke-miterlimit="10" stroke-width="3"/>
        <line id="Line_3731" data-name="Line 3731" x1="1035.355" y2="995.811" transform="translate(496.229 165.98)" fill="none" stroke="#e3dad0" stroke-miterlimit="10" stroke-width="3"/>
        <line id="Line_3732" data-name="Line 3732" x1="1035.355" y2="995.811" transform="translate(504.27 173.715)" fill="none" stroke="#e3dad0" stroke-miterlimit="10" stroke-width="3"/>
        <line id="Line_3733" data-name="Line 3733" x1="1035.352" y2="995.808" transform="translate(512.315 181.452)" fill="none" stroke="#e3dad0" stroke-miterlimit="10" stroke-width="3"/>
        <line id="Line_3734" data-name="Line 3734" x1="1035.355" y2="995.811" transform="translate(520.357 189.187)" fill="none" stroke="#e3dad0" stroke-miterlimit="10" stroke-width="3"/>
        <line id="Line_3735" data-name="Line 3735" x1="1035.355" y2="995.811" transform="translate(528.398 196.921)" fill="none" stroke="#e3dad0" stroke-miterlimit="10" stroke-width="3"/>
        <line id="Line_3736" data-name="Line 3736" x1="1035.352" y2="995.811" transform="translate(536.443 204.655)" fill="none" stroke="#e3dad0" stroke-miterlimit="10" stroke-width="3"/>
        <line id="Line_3737" data-name="Line 3737" x1="1035.355" y2="995.811" transform="translate(544.484 212.393)" fill="none" stroke="#e3dad0" stroke-miterlimit="10" stroke-width="3"/>
        <line id="Line_3738" data-name="Line 3738" x1="1035.355" y2="995.811" transform="translate(552.526 220.127)" fill="none" stroke="#e3dad0" stroke-miterlimit="10" stroke-width="3"/>
        <line id="Line_3739" data-name="Line 3739" x1="1035.355" y2="995.811" transform="translate(557.03 231.22)" fill="none" stroke="#e3dad0" stroke-miterlimit="10" stroke-width="3"/>
        <line id="Line_3740" data-name="Line 3740" x1="1035.355" y2="995.811" transform="translate(561.535 242.316)" fill="none" stroke="#e3dad0" stroke-miterlimit="10" stroke-width="3"/>
        <line id="Line_3741" data-name="Line 3741" x1="1035.355" y2="995.811" transform="translate(566.039 253.408)" fill="none" stroke="#e3dad0" stroke-miterlimit="10" stroke-width="3"/>
        <line id="Line_3742" data-name="Line 3742" x1="1035.355" y2="995.808" transform="translate(570.544 264.504)" fill="none" stroke="#e3dad0" stroke-miterlimit="10" stroke-width="3"/>
        <line id="Line_3743" data-name="Line 3743" x1="1035.355" y2="995.811" transform="translate(575.049 275.596)" fill="none" stroke="#e3dad0" stroke-miterlimit="10" stroke-width="3"/>
      </g>
    </g>
    <path id="Union_219" data-name="Union 219" d="M0,501.1V432.356H18.584c-.07-4.3-.105-8.543-.105-11.121,0-162.275,136.641-293.826,305.2-293.826a316.914,316.914,0,0,1,83.11,11.022C474.725,54.212,580.913,0,700.259,0c177.023,0,325.092,119.235,362.332,278.83a76,76,0,0,1,15.078-1.507c40.4,0,73.153,31.532,73.153,70.427a68.315,68.315,0,0,1-1.471,14.109c40.428,10.005,75.544,38.465,100.477,70.5H1274V501.1Z" transform="translate(-19.001 -19.236)" fill="#ece6da" stroke="rgba(0,0,0,0)" stroke-miterlimit="10" stroke-width="1" opacity="0.5"/>
    <path id="Union_223" data-name="Union 223" d="M195.945,466.035c-19.15,27.692-51.889,45.939-89.06,45.939C47.855,511.975,0,465.95,0,409.175c0-53.182,41.993-96.934,95.823-102.26a252.348,252.348,0,0,1-4.285-46.408C91.538,116.631,212.8,0,362.391,0,473.624,0,569.2,64.493,610.894,156.719c86.663,5.639,155.151,75.037,155.151,159.822,0,88.47-74.568,160.187-166.552,160.187a171.643,171.643,0,0,1-67-13.487c-46.5,36.133-105.674,57.773-170.105,57.773C299.64,521.014,241.867,500.487,195.945,466.035Z" transform="translate(516.569 48.805)" fill="#ece3d9" stroke="rgba(0,0,0,0)" stroke-miterlimit="10" stroke-width="1" opacity="0.9"/>
  </g>
</svg>
