<svg id="Group_1073406" data-name="Group 1073406" xmlns="http://www.w3.org/2000/svg" xmlns:xlink="http://www.w3.org/1999/xlink" width="30.607" height="35" viewBox="0 0 30.607 35">
  <defs>
    <clipPath id="clip-path">
      <rect id="Rectangle_377827" data-name="Rectangle 377827" width="30.607" height="35" fill="#12263f"/>
    </clipPath>
  </defs>
  <g id="Group_1072367" data-name="Group 1072367" clip-path="url(#clip-path)">
    <path id="Path_609599" data-name="Path 609599" d="M28.485,27.4v4.371h2.081c0,1,.034,1.931-.036,2.853-.011.142-.5.352-.764.354-2.709.026-5.419.016-8.128.016q-7.945,0-15.891,0A5.366,5.366,0,0,1,0,29.222Q0,17.806,0,6.39A6.076,6.076,0,0,1,6.37.021c7.7-.006,15.4.012,23.106-.02.864,0,1.134.215,1.131,1.106-.032,8.341-.019,16.682-.019,25.023,0,1.21,0,1.208-1.256,1.224-.265,0-.531.031-.846.05M3.134,24.218c4.366-.035,8.551-.079,12.735-.1,3.5-.016,7-.025,10.5.014.771.008,1.049-.154,1.044-.994q-.055-9.448,0-18.9c0-.834-.261-1-1.039-1-6.664.029-13.328.016-19.992.017-2.174,0-3.244,1.066-3.245,3.244q0,8.4,0,16.8v.916m22.036,3.2c-.3-.026-.508-.059-.715-.059q-9.449,0-18.9,0A2.2,2.2,0,0,0,3.14,29.619a2.324,2.324,0,0,0,2.486,2.214c6.207-.06,12.416-.024,18.624-.027.293,0,.586-.034.92-.054Z" transform="translate(0 -0.001)" fill="#12263f"/>
    <path id="Path_609600" data-name="Path 609600" d="M48.356,42.378c.33-.018.6-.045.866-.045,4.476,0,8.952.016,13.427-.02.736-.006.976.211.925.926s-.011,1.446-.011,2.22H48.356Z" transform="translate(-39.521 -34.582)" fill="#12263f"/>
    <rect id="Rectangle_377826" data-name="Rectangle 377826" width="15.133" height="3.068" transform="translate(8.835 13.258)" fill="#12263f"/>
  </g>
</svg>
