<svg xmlns="http://www.w3.org/2000/svg" xmlns:xlink="http://www.w3.org/1999/xlink" width="125" height="125" viewBox="0 0 125 125">
  <defs>
    <clipPath id="clip-path">
      <rect id="Rectangle_378653" data-name="Rectangle 378653" width="91" height="91" transform="translate(404 1177)" fill="#fff" stroke="#707070" stroke-width="1"/>
    </clipPath>
    <clipPath id="clip-path-2">
      <rect id="Rectangle_378687" data-name="Rectangle 378687" width="83.5" height="83.223" fill="#615842"/>
    </clipPath>
  </defs>
  <g id="Group_1074729" data-name="Group 1074729" transform="translate(-6953 10551.856)">
    <g id="Group_1074220" data-name="Group 1074220" transform="translate(6567 -12697.856)">
      <path id="Path_608385" data-name="Path 608385" d="M62.5,0A62.5,62.5,0,1,1,0,62.5,62.5,62.5,0,0,1,62.5,0Z" transform="translate(386 2146)" fill="#fff"/>
    </g>
    <g id="Mask_Group_154394" data-name="Mask Group 154394" transform="translate(6566 -11711)" clip-path="url(#clip-path)">
      <g id="Group_1074268" data-name="Group 1074268" transform="translate(408 1181)">
        <g id="Group_1074267" data-name="Group 1074267" clip-path="url(#clip-path-2)">
          <path id="Path_612488" data-name="Path 612488" d="M75.2,2.7H25v.741c0,2.443,0,4.885-.006,7.328,0,.259.093.308.325.308q22.6-.011,45.2-.012a3.771,3.771,0,0,1,.871.06,1.319,1.319,0,0,1,.929,1.552,1.212,1.212,0,0,1-1.192,1.061c-.729.025-1.46.022-2.19.023q-10.216.006-20.431.008H45.774c.2.107.315.181.437.228a25.837,25.837,0,0,1,8.505,5.266.851.851,0,0,0,.531.186c1.54.014,3.08.006,4.62.007a1.246,1.246,0,0,1,1.308,1.074c.078.86-.327,1.489-1.1,1.555s-1.563.023-2.344.026c-.091,0-.181-.008-.347-.015.252.383.461.728.7,1.054A24.181,24.181,0,0,1,61.4,29.729,26.488,26.488,0,0,1,62.611,36,24,24,0,0,1,61.6,44.447a23.434,23.434,0,0,1-3.454,7.166c-.172.244-.13.368.065.56q3.212,3.152,6.414,6.314a.438.438,0,0,0,.362.1A4.193,4.193,0,0,1,69.6,59.611c1.159,1.169,2.33,2.326,3.5,3.488,3.019,3.007,6.011,6.042,9.07,9.008a4.193,4.193,0,0,1,.093,6.041c-1.283,1.27-2.554,2.552-3.838,3.822a3.86,3.86,0,0,1-2.046,1.17,4.057,4.057,0,0,1-3.67-.95c-1.367-1.317-2.732-2.636-4.077-3.975q-4.176-4.158-8.333-8.337a5.914,5.914,0,0,1-1.56-2.133,3.741,3.741,0,0,1,.078-2.941c.113-.242.008-.333-.125-.466q-3.017-3.01-6.033-6.02c-.556-.554-.566-.56-1.215-.126a24.851,24.851,0,0,1-7.924,3.5,27,27,0,0,1-6.937.77c-.347-.005-.452.083-.45.439q.03,4.4.016,8.8c0,.384.112.448.473.442,1.579-.029,3.16-.025,4.739-.025q8.543,0,17.086,0a3.843,3.843,0,0,1,.711.055,1.355,1.355,0,0,1,1.153,1.441,1.383,1.383,0,0,1-1.262,1.268,4.18,4.18,0,0,1-.477.012q-28.437,0-56.874,0a3.375,3.375,0,0,1-.671-.056A1.177,1.177,0,0,1,0,73.58Q0,68.4,0,63.225,0,49.644,0,36.062a1.262,1.262,0,0,1,.86-1.288,1.316,1.316,0,0,1,1.6.54,2.054,2.054,0,0,1,.228.946c.01,5.27,0,10.541,0,15.812q0,9.817,0,19.635c0,.387.114.457.474.44.728-.034,1.459-.01,2.25-.01v-.531q0-15.374,0-30.747a3.291,3.291,0,0,1,.082-.787,1.392,1.392,0,0,1,1.513-1.179q2.47,0,4.939,0h.454c.007-.135.02-.238.017-.34a26.447,26.447,0,0,1,.663-6.626,24.8,24.8,0,0,1,4.776-9.952,1.268,1.268,0,0,1,1.354-.554,1.534,1.534,0,0,1,1.145,1.251.994.994,0,0,1-.191.659c-.4.623-.866,1.208-1.268,1.832a22.1,22.1,0,0,0-3.633,11.844A22.105,22.105,0,0,0,29.057,57.975a21.221,21.221,0,0,0,10.126,1.566c8.524-.73,14.681-5.027,18.553-12.626a19.358,19.358,0,0,0,1.594-4.648,21.839,21.839,0,0,0,.492-6.514A22.243,22.243,0,0,0,54.689,23.1a2.4,2.4,0,0,0-.187-.175c-.505.806-1,1.585-1.477,2.378a.45.45,0,0,0,.08.384,18.936,18.936,0,0,1,2.444,4.27,18.623,18.623,0,0,1,1.483,7.911,1.4,1.4,0,0,1-1.269,1.27,1.427,1.427,0,0,1-1.424-1.1,6.091,6.091,0,0,1-.089-1.147,16.179,16.179,0,0,0-2.792-8.778.744.744,0,0,0-.109-.1c-.737,1.174-1.462,2.339-2.2,3.5a12.7,12.7,0,0,1-.874,1.278,1.327,1.327,0,0,1-1.66.261,1.283,1.283,0,0,1-.492-1.763c.808-1.355,1.657-2.685,2.491-4.025.3-.483.607-.964.909-1.444A16.691,16.691,0,0,0,20.9,38.893c.453,0,.914,0,1.375,0a1.291,1.291,0,0,1,1.295,1.159,1.345,1.345,0,0,1-1.017,1.466,11.377,11.377,0,0,1-1.188.111,16.126,16.126,0,0,0,4.358,7.635,16.606,16.606,0,0,0,7.73,4.346v-.487q0-2.31,0-4.62a1.289,1.289,0,0,1,1.19-1.3,1.363,1.363,0,0,1,1.436,1.012,3.559,3.559,0,0,1,.066.751c.006,1.62.01,3.239,0,4.859,0,.277.071.366.353.368a17.617,17.617,0,0,0,11.633-3.78,16.527,16.527,0,0,0,5.089-7.092,4.562,4.562,0,0,1,.345-.758,1.307,1.307,0,0,1,1.735-.5,1.349,1.349,0,0,1,.682,1.675,19.337,19.337,0,0,1-12.7,12.243,17.754,17.754,0,0,1-9.231.543A19.217,19.217,0,0,1,19.091,43.635a16.81,16.81,0,0,1-.965-7.675c.862-8.074,5.123-13.651,12.614-16.7a17.213,17.213,0,0,1,8.193-1.225,19.65,19.65,0,0,1,11.959,5.282,1.242,1.242,0,0,0,.148.091c.473-.769.949-1.527,1.4-2.3.041-.071-.069-.3-.17-.373-1.187-.868-2.339-1.794-3.59-2.559a20.759,20.759,0,0,0-6.5-2.493,23.657,23.657,0,0,0-5.418-.393,21.334,21.334,0,0,0-12.749,4.488c-.085.064-.173.123-.263.18a1.355,1.355,0,0,1-1.966-.292,1.389,1.389,0,0,1,.413-1.921,25.279,25.279,0,0,1,6.469-3.617c.185-.071.367-.151.549-.231.031-.014.05-.054.114-.125H2.694v1.053q0,7.707,0,15.413a1.432,1.432,0,0,1-.953,1.534A1.306,1.306,0,0,1,0,30.546q0-14.6,0-29.194A1.192,1.192,0,0,1,1.283.016C1.92,0,2.557,0,3.195,0h71.77c.491,0,.982-.007,1.473,0a1.542,1.542,0,0,1,1.624,1.572c.008.119,0,.239,0,.358q0,29.492-.006,58.985a2.868,2.868,0,0,1-.146.931A1.39,1.39,0,0,1,76.4,62.87a1.465,1.465,0,0,1-1.193-1.4c-.016-.171-.008-.345-.008-.517q0-28.875,0-57.75V2.7M8.287,41.583V63.9c0,2.628,0,5.257-.005,7.885,0,.292.068.392.38.376.715-.038,1.433-.041,2.149-.041q11.03,0,22.061,0h.565c.008-.181.019-.31.019-.44,0-3.04-.007-6.08.01-9.119,0-.366-.121-.52-.46-.59-.66-.136-1.317-.288-1.971-.449A23.7,23.7,0,0,1,24.191,58.6a1.86,1.86,0,0,0-.922-.26c-2.986-.019-5.973,0-8.96-.026a2.925,2.925,0,0,1-1.2-.334,1.275,1.275,0,0,1-.523-1.554,1.566,1.566,0,0,1,1.633-.96c1.845-.02,3.69-.007,5.535-.008.123,0,.246-.012.424-.021-.094-.115-.141-.177-.192-.235-.691-.786-1.376-1.578-2.084-2.351a.729.729,0,0,0-.481-.2c-1.181-.016-2.362-.024-3.542,0a1.322,1.322,0,0,1-1.288-.879,1.206,1.206,0,0,1,.258-1.325,1.231,1.231,0,0,1,1.083-.468c.632,0,1.264,0,1.948,0-.11-.218-.2-.418-.308-.61A23.591,23.591,0,0,1,13.5,44.309c-.213-.764-.34-1.551-.537-2.32-.04-.154-.221-.386-.341-.388-1.43-.027-2.86-.018-4.335-.018M66.658,60.941a1.915,1.915,0,0,0-1.267.629C64.2,62.763,63,63.948,61.819,65.152a2.379,2.379,0,0,0-.544.817,1.042,1.042,0,0,0,.028.781,5.655,5.655,0,0,0,.9,1.155q5.923,5.93,11.865,11.841c1.07,1.067,1.638,1.08,2.711.027,1.155-1.135,2.3-2.283,3.438-3.432a1.511,1.511,0,0,0,0-2.387c-3.823-3.78-7.617-7.59-11.423-11.387-.413-.412-.816-.841-1.266-1.209a4,4,0,0,0-.865-.418M2.759,2.718a.68.68,0,0,0-.045.133c-.006,2.654-.008,5.308-.021,7.962,0,.3.181.261.368.262l18.713.011h.507V2.718Zm51.551,53.5c.644.614,1.393,1.306,2.116,2.023,1.336,1.325,2.658,2.664,3.985,4,.136.137.253.278.457.076.609-.6,1.227-1.2,1.831-1.782l-6.364-6.456-2.024,2.141" transform="translate(0 0)" fill="#615842"/>
          <path id="Path_612489" data-name="Path 612489" d="M99.664,91.6c0-.423,0-.78,0-1.137,0-1.434-.037-2.869.018-4.3a2.813,2.813,0,0,0-2.863-2.856q-4.121.054-8.244,0a2.812,2.812,0,0,0-2.838,2.833c.076,2.134.017,4.274.013,6.411a4.168,4.168,0,0,1-.037.595,1.436,1.436,0,0,1-1.436,1.28,1.387,1.387,0,0,1-1.288-1.457q-.009-2.987,0-5.974a9.981,9.981,0,0,1,.057-1.707,5.49,5.49,0,0,1,3.824-4.43c.135-.048.274-.084.477-.145a6.677,6.677,0,0,1-1.441-5.727,6.361,6.361,0,0,1,2.49-4.048,6.851,6.851,0,0,1,8.8.139,6.986,6.986,0,0,1,.912,9.652,5.578,5.578,0,0,1,2.615,1.426,5.375,5.375,0,0,1,1.7,3.945q.006,3.385,0,6.77a1.438,1.438,0,0,1-1.541,1.592q-2.588.035-5.177,0a1.406,1.406,0,0,1-1.484-1.839A1.7,1.7,0,0,1,95.832,91.6c1.115-.006,2.23,0,3.345,0h.487M92.7,80.536a4.171,4.171,0,1,0-4.219-4.179A4.085,4.085,0,0,0,92.7,80.536" transform="translate(-56.541 -47.293)" fill="#615842"/>
          <path id="Path_612490" data-name="Path 612490" d="M98.449,19.933q-4.677,0-9.354,0a1.645,1.645,0,0,1-1.619-.872,1.237,1.237,0,0,1,.4-1.607,2.476,2.476,0,0,1,1.149-.372q9.433-.034,18.867,0a2.377,2.377,0,0,1,.982.268,1.238,1.238,0,0,1,.664,1.365,1.122,1.122,0,0,1-.744.992,2.729,2.729,0,0,1-.993.222c-3.118.017-6.236.01-9.354.01" transform="translate(-59.509 -11.626)" fill="#615842"/>
          <path id="Path_612491" data-name="Path 612491" d="M209.265,56.185c0,.955,0,1.91,0,2.865a1.227,1.227,0,0,1-1.239,1.274q-2.845.015-5.69,0a1.341,1.341,0,0,1-1.343-1.433q-.048-2.665,0-5.332a1.443,1.443,0,0,1,1.564-1.5c1.75-.031,3.5-.028,5.252,0a1.374,1.374,0,0,1,1.457,1.509q0,1.313,0,2.626M203.88,54.93V57.6c.837,0,1.643.005,2.449-.009.078,0,.22-.126.221-.195.016-.816.01-1.632.01-2.467Z" transform="translate(-136.935 -35.453)" fill="#615842"/>
          <path id="Path_612492" data-name="Path 612492" d="M177.392,19.927c-1.739,0-3.477,0-5.216,0a1.712,1.712,0,0,1-1.464-.664,1.241,1.241,0,0,1,.363-1.861,2.479,2.479,0,0,1,1.121-.328c3.464-.025,6.928-.016,10.392-.013a1.679,1.679,0,0,1,1.648.96,1.456,1.456,0,0,1-1.548,1.9c-1.765.011-3.531,0-5.3,0" transform="translate(-116.135 -11.621)" fill="#615842"/>
          <path id="Path_612493" data-name="Path 612493" d="M205.323,87.059c.862,0,1.724-.006,2.586,0a1.335,1.335,0,0,1,1.475,1.544,1.256,1.256,0,0,1-1.044,1.149,2.87,2.87,0,0,1-.708.081c-1.552.007-3.1.024-4.655-.01a2.837,2.837,0,0,1-1.208-.3,1.18,1.18,0,0,1-.6-1.317,1.249,1.249,0,0,1,1.02-1.08,2.936,2.936,0,0,1,.59-.065c.849-.007,1.7,0,2.546,0" transform="translate(-137.056 -59.319)" fill="#615842"/>
          <path id="Path_612494" data-name="Path 612494" d="M212.719,104.29c.437,0,.876-.019,1.312,0a1.492,1.492,0,0,1,1.342,1.012,1.288,1.288,0,0,1-.627,1.563,2.26,2.26,0,0,1-.878.2c-.782.027-1.564.017-2.347,0a2.444,2.444,0,0,1-.664-.1,1.3,1.3,0,0,1-.874-1.542,1.375,1.375,0,0,1,1.3-1.132c.474-.037.954-.007,1.431-.007v0" transform="translate(-143.069 -71.054)" fill="#615842"/>
          <path id="Path_612495" data-name="Path 612495" d="M47.548,209.063q3.3,0,6.606,0a1.647,1.647,0,0,1,1.252.4,1.251,1.251,0,0,1,.407,1.3,1.537,1.537,0,0,1-1.206,1.089,2.732,2.732,0,0,1-.594.045q-6.268,0-12.535-.007a5.068,5.068,0,0,1-1.22-.121,1.452,1.452,0,0,1-1.1-1.388,1.4,1.4,0,0,1,1.229-1.266,3.2,3.2,0,0,1,.592-.049q3.283,0,6.566,0" transform="translate(-26.681 -142.45)" fill="#615842"/>
          <path id="Path_612496" data-name="Path 612496" d="M47.5,194.32h-6.97a1.342,1.342,0,0,1-1.334-1.209,1.4,1.4,0,0,1,1.136-1.424,4.291,4.291,0,0,1,.673-.053q6.432,0,12.864,0a5.338,5.338,0,0,1,.911.063,1.42,1.42,0,0,1,1.109,1.409,1.34,1.34,0,0,1-1.34,1.212q-3.525,0-7.049,0" transform="translate(-26.702 -130.573)" fill="#615842"/>
          <path id="Path_612497" data-name="Path 612497" d="M18.635,17.234a1.386,1.386,0,0,1-.011,2.772,1.538,1.538,0,0,1-1.373-1.372,1.489,1.489,0,0,1,1.383-1.4" transform="translate(-11.754 -11.743)" fill="#615842"/>
          <path id="Path_612498" data-name="Path 612498" d="M55,18.609a1.486,1.486,0,0,1-1.33,1.4,1.585,1.585,0,0,1-1.441-1.352A1.6,1.6,0,0,1,53.6,17.236,1.475,1.475,0,0,1,55,18.609" transform="translate(-35.584 -11.744)" fill="#615842"/>
          <path id="Path_612499" data-name="Path 612499" d="M35,18.6a1.386,1.386,0,0,1,1.326-1.392,1.507,1.507,0,0,1,1.356,1.413,1.463,1.463,0,0,1-1.358,1.359A1.353,1.353,0,0,1,35,18.6" transform="translate(-23.849 -11.726)" fill="#615842"/>
        </g>
      </g>
    </g>
  </g>
</svg>
