<svg xmlns="http://www.w3.org/2000/svg" xmlns:xlink="http://www.w3.org/1999/xlink" width="125" height="125" viewBox="0 0 125 125">
  <defs>
    <clipPath id="clip-path">
      <rect id="Rectangle_378647" data-name="Rectangle 378647" width="91" height="91" transform="translate(404 1177)" fill="#fff" stroke="#707070" stroke-width="1"/>
    </clipPath>
    <clipPath id="clip-path-2">
      <rect id="Rectangle_378686" data-name="Rectangle 378686" width="80.024" height="79.977" fill="#615842"/>
    </clipPath>
  </defs>
  <g id="Group_1074728" data-name="Group 1074728" transform="translate(-7305 10551.856)">
    <g id="Group_1074212" data-name="Group 1074212" transform="translate(6919 -12697.856)">
      <path id="Path_608385" data-name="Path 608385" d="M62.5,0A62.5,62.5,0,1,1,0,62.5,62.5,62.5,0,0,1,62.5,0Z" transform="translate(386 2146)" fill="#fff"/>
    </g>
    <g id="Mask_Group_154391" data-name="Mask Group 154391" transform="translate(6918 -11711)" clip-path="url(#clip-path)">
      <g id="Group_1074266" data-name="Group 1074266" transform="translate(409 1183)">
        <g id="Group_1074265" data-name="Group 1074265" clip-path="url(#clip-path-2)">
          <path id="Path_612482" data-name="Path 612482" d="M53.921,59.472a35.087,35.087,0,0,1-5.448,3.483,33.169,33.169,0,0,1-7.645,2.789,31.929,31.929,0,0,1-9.639.77,28.117,28.117,0,0,1-3.468-.377,37.938,37.938,0,0,1-5.7-1.546A33.1,33.1,0,0,1,4.843,50.456a32.175,32.175,0,0,1-4.373-12A29,29,0,0,1,.1,31.176,40.017,40.017,0,0,1,1.039,25.4a32.625,32.625,0,0,1,5.8-12.144,33.107,33.107,0,0,1,15.9-11.442,36.876,36.876,0,0,1,7.339-1.6,25.178,25.178,0,0,1,5.4-.117,36.061,36.061,0,0,1,8.378,1.662,34.031,34.031,0,0,1,9.619,5.073A32.914,32.914,0,0,1,63.043,18.3a34.227,34.227,0,0,1,3.132,9.436,29.851,29.851,0,0,1,.406,6.131,28.677,28.677,0,0,1-.082,2.912,35.051,35.051,0,0,1-2.682,9.958,36.871,36.871,0,0,1-4.09,6.894c-.151.205-.156.31.022.486,1.474,1.463,2.938,2.936,4.413,4.4a.837.837,0,0,0,.463.256,4.889,4.889,0,0,1,3,1.338c.914.835,1.765,1.739,2.642,2.616,2.676,2.676,5.343,5.36,8.03,8.026a5.624,5.624,0,0,1,1.675,3.286A4.941,4.941,0,0,1,78.1,78.679a5.086,5.086,0,0,1-7.017-.222c-1.7-1.613-3.33-3.309-4.99-4.968-1.817-1.816-3.624-3.641-5.454-5.442a5.548,5.548,0,0,1-1.82-3.245,1.713,1.713,0,0,0-.582-1.054c-1.382-1.363-2.753-2.738-4.129-4.109-.051-.051-.107-.1-.184-.168M2.858,33.382A30.582,30.582,0,1,0,33.487,2.793C16.706,2.752,2.669,16.524,2.858,33.382M74.65,77.254a5.874,5.874,0,0,0,1.1-.237,2.665,2.665,0,0,0,.978-4.116c-.242-.277-.5-.544-.757-.8q-3.181-3.177-6.366-6.349C68.35,64.5,67.124,63.222,65.842,62A2.686,2.686,0,0,0,62.2,65.954c.686.7,1.406,1.372,2.1,2.067q4.1,4.105,8.2,8.218a2.827,2.827,0,0,0,2.151,1.015M56.022,57.744l3.361,3.465L61.208,59.4,57.89,55.957l-1.868,1.787" transform="translate(0 0)" fill="#615842"/>
          <path id="Path_612483" data-name="Path 612483" d="M74.42,46.473A27.881,27.881,0,1,1,46.5,18.6,27.838,27.838,0,0,1,74.42,46.473M46.586,21.252A25.253,25.253,0,1,0,71.852,46.538,25.253,25.253,0,0,0,46.586,21.252" transform="translate(-13.147 -13.105)" fill="#615842"/>
          <path id="Path_612484" data-name="Path 612484" d="M68.749,80.133H55.792a5.415,5.415,0,0,1-3.982-1.411,5.216,5.216,0,0,1-.951-6.386c1.251-2.213,2.485-4.436,3.726-6.654q4.8-8.584,9.6-17.171a5.237,5.237,0,0,1,3.636-2.8,4.937,4.937,0,0,1,5.251,2.381c1.579,2.761,3.123,5.543,4.677,8.318q4.159,7.425,8.311,14.854a16.1,16.1,0,0,1,.941,1.832,5.156,5.156,0,0,1-3.089,6.718,7.432,7.432,0,0,1-2.247.305c-4.306.028-8.613.014-12.92.014Zm0-2.637v0c4.479,0,8.959-.038,13.438.018a2.573,2.573,0,0,0,2.406-3.434,10.224,10.224,0,0,0-.524-1.095Q79.154,64.2,74.231,55.431,72.609,52.539,71,49.639a2.447,2.447,0,0,0-2.248-1.41,2.409,2.409,0,0,0-2.227,1.432c-.451.859-.946,1.694-1.421,2.541l-9.076,16.2Q54.615,70.93,53.2,73.454a2.793,2.793,0,0,0-.43,1.759,2.579,2.579,0,0,0,2.689,2.3c4.43-.04,8.86-.013,13.29-.013" transform="translate(-35.348 -32.141)" fill="#615842"/>
          <path id="Path_612485" data-name="Path 612485" d="M36.641,72.278a25.687,25.687,0,0,1,.93-5.655,22.7,22.7,0,0,1,6.021-9.894,1.246,1.246,0,0,1,1.779-.193,1.324,1.324,0,0,1,.12,1.984c-.549.6-1.141,1.154-1.659,1.776a19.245,19.245,0,0,0-4.3,9.439c-.119.748-.1,1.516-.164,2.274a7.982,7.982,0,0,1-.159,1.276,1.3,1.3,0,0,1-1.382,1.023,1.335,1.335,0,0,1-1.188-1.365c-.006-.221,0-.443,0-.664" transform="translate(-25.815 -39.63)" fill="#615842"/>
          <path id="Path_612486" data-name="Path 612486" d="M108.656,79.852c0-1.907.033-3.815-.014-5.721a1.394,1.394,0,0,1,1.31-1.518,1.37,1.37,0,0,1,1.349,1.429q.03,5.833,0,11.666a1.464,1.464,0,0,1-.705,1.3,1.323,1.323,0,0,1-1.945-1.1c.018-2.018.006-4.036.007-6.054" transform="translate(-76.548 -51.161)" fill="#615842"/>
          <path id="Path_612487" data-name="Path 612487" d="M108.691,132.3A1.361,1.361,0,0,1,110.025,131a1.33,1.33,0,0,1-.045,2.659,1.366,1.366,0,0,1-1.289-1.354" transform="translate(-76.583 -92.3)" fill="#615842"/>
        </g>
      </g>
    </g>
  </g>
</svg>
