<svg xmlns="http://www.w3.org/2000/svg" xmlns:xlink="http://www.w3.org/1999/xlink" width="125" height="125" viewBox="0 0 125 125">
  <defs>
    <clipPath id="clip-path">
      <rect id="Rectangle_378649" data-name="Rectangle 378649" width="91" height="91" transform="translate(404 1177)" fill="#fff" stroke="#707070" stroke-width="1"/>
    </clipPath>
    <clipPath id="clip-path-2">
      <rect id="Rectangle_378685" data-name="Rectangle 378685" width="79.82" height="77.313" fill="#615842"/>
    </clipPath>
  </defs>
  <g id="Group_1074727" data-name="Group 1074727" transform="translate(-7657 10551.856)">
    <g id="Group_1074215" data-name="Group 1074215" transform="translate(7271 -12697.856)">
      <path id="Path_608385" data-name="Path 608385" d="M62.5,0A62.5,62.5,0,1,1,0,62.5,62.5,62.5,0,0,1,62.5,0Z" transform="translate(386 2146)" fill="#fff"/>
    </g>
    <g id="Mask_Group_154392" data-name="Mask Group 154392" transform="translate(7270 -11711)" clip-path="url(#clip-path)">
      <g id="Group_1074264" data-name="Group 1074264" transform="translate(410 1184)">
        <g id="Group_1074263" data-name="Group 1074263" clip-path="url(#clip-path-2)">
          <path id="Path_612471" data-name="Path 612471" d="M40.724,92.719c-.194-1.073-.382-2.108-.569-3.144q-.534-2.959-1.066-5.918-.682-3.819-1.356-7.638-.357-2.013-.714-4.026a1.484,1.484,0,0,0-1.551-1.314q-6.134,0-12.269,0a4.19,4.19,0,0,1-.78-.042,1.181,1.181,0,0,1-.981-1.149,1.1,1.1,0,0,1,1.013-1.1,16.881,16.881,0,0,1,1.922-.031.522.522,0,0,0,.568-.345,8.566,8.566,0,0,1,4.23-4.159c.106-.05.209-.1.352-.176-.171-.2-.335-.367-.468-.554A8.7,8.7,0,0,1,27.345,57.9c.013-1.3.008-2.591,0-3.886a.843.843,0,0,0-.163-.481,6.064,6.064,0,0,1,.036-7.525.711.711,0,0,0,.128-.419c.01-1.188-.032-2.378.014-3.565a17.166,17.166,0,0,1,1.249-5.816,17.622,17.622,0,0,1,10.2-10.12,16.366,16.366,0,0,1,9.094-1.028A17.735,17.735,0,0,1,62.072,36.772a16.7,16.7,0,0,1,1.034,6.356c0,.2.068.253.248.243.261-.015.523-.007.784-.026a3.285,3.285,0,0,1,3.221,3.007A12.806,12.806,0,0,1,67.41,47.7c-.015.341.068.437.423.435,1.973-.015,3.947.025,5.92,0a3.457,3.457,0,0,1,3.5,3.34,10.3,10.3,0,0,1-.071,3.015,18.429,18.429,0,0,0-.324,3.563,5.526,5.526,0,0,1-2.6,4.762.74.74,0,0,0-.387.725c.02.474.026.951,0,1.425a1.008,1.008,0,0,1-1.029,1.05,1.079,1.079,0,0,1-1.173-.879,21.339,21.339,0,0,1,.011-2.838,1.524,1.524,0,0,1,.981-1.184,3.366,3.366,0,0,0,1.789-2.154,2.883,2.883,0,0,0,.062-.455,13.1,13.1,0,0,1-2.016.352,22.332,22.332,0,0,1-3.658-.132,4.579,4.579,0,0,1-3.671-4.23c-.074-2.279-.048-4.562-.065-6.843,0-.344.019-.691-.009-1.033a1.107,1.107,0,0,0-2.208,0c-.021.224-.012.451-.012.677,0,3.494.026,6.989,0,10.482a3.423,3.423,0,0,0,1.952,3.359,1.946,1.946,0,0,1,1.042,1.889q.007,8.112,0,16.224c0,1.925.058,3.853-.02,5.775A2.961,2.961,0,0,0,68.17,87.8a2.879,2.879,0,0,0,3.419-3.049c-.011-.166-.015-.332-.015-.5q0-6.686,0-13.371a3.8,3.8,0,0,1,.068-.743,1.136,1.136,0,0,1,1.185-.922,1.038,1.038,0,0,1,1.04,1.047c.012.142.022.285.026.427.014.551.013.541.583.552.724.014,1.451.013,2.17.083A1.934,1.934,0,0,1,78.348,73a7.28,7.28,0,0,1,.069,1.029c0,3.554-.015,7.107.008,10.661a10.076,10.076,0,0,1-3.306,7.891.656.656,0,0,0-.073.12c.136.008.248.02.359.02,1.07,0,2.14,0,3.21,0a1.187,1.187,0,0,1,1.148.8,1.087,1.087,0,0,1-.433,1.254,1.709,1.709,0,0,1-.59.214,2.144,2.144,0,0,1-.462.009q-35.273,0-70.545.022a4.153,4.153,0,0,1-4.186-3.437c-.25-1.867-.653-3.714-.986-5.571q-.678-3.782-1.352-7.565Q.63,75.194.054,71.936a2.973,2.973,0,0,1,2.937-3.589c.392-.012.784,0,1.177,0q6.259,0,12.518,0a2.461,2.461,0,0,1,1,.189,1.062,1.062,0,0,1,.562,1.165,1.23,1.23,0,0,1-1.094.974,2.682,2.682,0,0,1-.356.013L3.063,70.677c-.666,0-.889.326-.758.977.239,1.185.437,2.378.647,3.569.339,1.927.666,3.857,1.013,5.783.429,2.38.87,4.758,1.31,7.136.209,1.13.4,2.264.648,3.387a1.409,1.409,0,0,0,1.513,1.18c.44.008.88.01,1.32.01H40.724ZM62.4,92.7c-.2-.207-.369-.37-.528-.538s-.345-.361-.505-.552a9.61,9.61,0,0,1-2.342-6.269c-.02-3.957-.006-7.914-.005-11.872a2.046,2.046,0,0,1,1.843-2.157,11.458,11.458,0,0,1,1.386-.067c.4-.01.8,0,1.259,0,0-.666.015-1.294-.008-1.92a1.5,1.5,0,0,0-.171-.638,6.375,6.375,0,0,0-3.636-3.026,1.708,1.708,0,0,0-1.5.08,6.59,6.59,0,0,1-3.033.82c-1.58.037-3.16.041-4.74.031-.39,0-.688.023-.823.461a1.529,1.529,0,0,1-.325.464,5.067,5.067,0,0,1-8.549-.723.477.477,0,0,0-.361-.186c-1.474-.008-2.948.007-4.422,0a7.957,7.957,0,0,1-3.55-.791,1.937,1.937,0,0,0-1.591-.179,6.6,6.6,0,0,0-2.929,1.953c-.186.219-.339.467-.519.717a.634.634,0,0,0,.146.054q3.94-.012,7.879-.027a3.849,3.849,0,0,1,3.706,2.613,19.063,19.063,0,0,1,.527,2.5q.837,4.638,1.653,9.28c.233,1.308.469,2.616.693,3.925.041.237.149.308.381.306q1.818-.013,3.637,0c1.307.01,2.616,0,3.921.063a2.838,2.838,0,0,1,2.559,2.766V92.7ZM56.856,46.631c0-1.394-.035-2.452.007-3.508a4.013,4.013,0,0,0-5.273-4.117c-1.407.456-2.856.784-4.289,1.16-1.994.523-3.992,1.033-5.987,1.553q-2.6.677-5.194,1.365c-.652.173-1.3.35-1.945.559-.481.157-.548.288-.548.78,0,1.675-.032,3.351.014,5.025a10.557,10.557,0,0,0,.316,2.355,11.143,11.143,0,0,0,2.1,4.244,11.432,11.432,0,0,0,10.961,4.33,10.94,10.94,0,0,0,7.041-3.9,10.557,10.557,0,0,0,2.677-6.163c.1-1.336.094-2.681.125-3.686m3.842-2.5A15.318,15.318,0,0,0,53.25,29.376a15.637,15.637,0,0,0-17.329.874c-4.564,3.488-6.5,8.184-6.253,13.9.549-.125,1.069-.235,1.582-.369.073-.019.145-.141.171-.229a2.972,2.972,0,0,1,2.206-2.164c2.323-.628,4.655-1.221,6.982-1.834,1.972-.519,3.941-1.047,5.912-1.566,1.606-.422,3.22-.814,4.819-1.263a5.57,5.57,0,0,1,2.715-.135A6.383,6.383,0,0,1,58.8,40.8a7.955,7.955,0,0,1,.359,2.668c.005.172-.011.321.227.365.442.083.877.2,1.316.3m.634,35.859c0,1.628.005,3.256,0,4.883a7.65,7.65,0,0,0,.709,3.634,7.425,7.425,0,0,0,13.121.42,8.521,8.521,0,0,0,.958-4.4c.013-1.271-.006-2.543-.012-3.814q-.015-3.4-.03-6.808c0-.188.01-.362-.259-.361-.559,0-1.117-.015-1.675,0a.327.327,0,0,0-.227.221,9.424,9.424,0,0,0-.031.961c-.01,3.577,0,7.153-.044,10.729A4.23,4.23,0,0,1,73.477,87a5.185,5.185,0,0,1-5.206,3.127,5.267,5.267,0,0,1-4.4-3.347,6.96,6.96,0,0,1-.386-2.836q-.012-5.044,0-10.088c0-.211-.051-.309-.272-.308-.535,0-1.07,0-1.6-.011-.18,0-.26.068-.256.252s-.016.356-.016.534q0,2.834,0,5.668M40.078,64.2a.54.54,0,0,0,.041-.126c.011-.582-.013-1.166.039-1.744.035-.385-.124-.536-.445-.677a13.928,13.928,0,0,1-6.41-5.612.492.492,0,0,0-.493-.258,8.2,8.2,0,0,1-3.142-.4c0,1.02-.045,2.042.01,3.057a6.013,6.013,0,0,0,2.375,4.524A5.046,5.046,0,0,0,35.031,64.2c1.484.05,2.971.03,4.457.036.2,0,.4-.019.591-.029m10.278-.015a2.557,2.557,0,0,0,.3.043c1.271,0,2.543.022,3.813-.013A6.279,6.279,0,0,0,56.509,64a6.373,6.373,0,0,0,4.186-4.665.819.819,0,0,0,0-.28c-.036-.378-.1-.754-.11-1.132-.017-.792-.005-1.585-.005-2.311-1.043.06-2.046.108-3.047.186a.593.593,0,0,0-.362.271,14.989,14.989,0,0,1-2.767,3.284,15.486,15.486,0,0,1-3.719,2.35c-.131.059-.311.2-.316.316-.029.721-.015,1.443-.015,2.171M67.439,50.5c0,1.325-.058,2.6.017,3.863a2.276,2.276,0,0,0,2.08,2.178,29.931,29.931,0,0,0,3.2.015,2.322,2.322,0,0,0,2.115-2.149c.045-1,.032-1.995.009-2.991-.015-.636-.342-.915-.976-.915h-6.45ZM50.146,92.7c0-.871.022-1.7-.006-2.528-.025-.746-.2-.9-.966-.9q-3.08-.005-6.16,0c-.175,0-.35.016-.535.025a2.328,2.328,0,0,0,0,.383c.165.9.343,1.791.5,2.688.048.267.166.355.448.354,2.125-.013,4.249-.007,6.374-.008.1,0,.209-.011.339-.018M42.471,62.524c0,.752,0,1.51,0,2.268a1.556,1.556,0,0,0,.029.353,2.909,2.909,0,0,0,2.988,2.132A2.768,2.768,0,0,0,48,64.383c-.019-.485,0-.972,0-1.458,0-.132-.021-.263-.033-.39a13.281,13.281,0,0,1-5.5-.011M31.33,46.165C29.68,46.06,28.2,47.943,28.2,50.032a3.663,3.663,0,0,0,3.889,3.463,18.876,18.876,0,0,1-.76-7.329m27.026,7.344a4.689,4.689,0,0,0,1.936-.413.486.486,0,0,0,.294-.51c-.013-1.888-.013-3.777-.026-5.666,0-.118-.044-.3-.124-.341-.386-.189-.791-.34-1.277-.54,0,2.555.131,5.033-.8,7.47m2.664,10.14,2.487,1.529c0-.683,0-1.364,0-2.044a.217.217,0,0,0-.084-.147c-.426-.31-.855-.616-1.287-.925L61.02,63.649" transform="translate(0 -17.712)" fill="#615842"/>
          <path id="Path_612472" data-name="Path 612472" d="M32.246,20.621a4.525,4.525,0,0,1-3.232-4.962,4.472,4.472,0,0,1,8.845.07,4.55,4.55,0,0,1-3.278,4.893v1.166c0,1.153.005,2.306-.006,3.458,0,.238.068.306.3.3.5-.013,1,.025,1.5,0a.6.6,0,0,0,.431-.224c1.113-1.906,2.246-3.8,3.294-5.745a6.675,6.675,0,0,0,.608-4.569,1.212,1.212,0,0,1,.625-1.5,1.1,1.1,0,0,1,1.509.691,8.675,8.675,0,0,1,.037,4.4A12.581,12.581,0,0,1,41.3,22.13q-.9,1.556-1.807,3.11c-.058.1-.107.2-.111.213A7.66,7.66,0,0,1,40.5,26.529a2.209,2.209,0,0,1,.327,1.134c.04,1.187.016,2.376.015,3.565A2.081,2.081,0,0,1,38.816,33.3c-.626.017-.638.017-.637.641a4.713,4.713,0,0,1-1.528,3.738,4.435,4.435,0,0,1-4.34,1.164,4.686,4.686,0,0,1-3.473-3.482,13.957,13.957,0,0,1-.225-2.027c-.3-.032-.633-.052-.957-.1a2.066,2.066,0,0,1-1.649-1.9c-.014-1.283-.031-2.568.007-3.85a2.033,2.033,0,0,1,1.146-1.732c.1-.058.211-.1.358-.176-.073-.141-.136-.276-.209-.4q-1.163-2.021-2.329-4.042A9.535,9.535,0,0,1,28.787,7.938a9.454,9.454,0,0,1,10.565.821,3.178,3.178,0,0,1,.432.371,1.1,1.1,0,0,1,.082,1.517,1.127,1.127,0,0,1-1.511.193c-.385-.256-.741-.561-1.14-.791A7.419,7.419,0,0,0,26.325,14.3a7.152,7.152,0,0,0,.736,5.891c.971,1.688,1.954,3.367,2.924,5.055a.555.555,0,0,0,.562.333c.555-.022,1.112-.007,1.7-.007Zm-3.911,7.271c0,.918.016,1.807-.008,2.695-.009.349.1.434.441.433,3.123-.013,6.246-.007,9.369-.009.124,0,.249-.013.366-.019v-3.1Zm5.1-13.738a2.146,2.146,0,0,0-2.183,2.2,2.182,2.182,0,1,0,2.183-2.2M31.04,33.316A2.786,2.786,0,0,0,32.1,36.289a2.4,2.4,0,0,0,2.768-.069,2.847,2.847,0,0,0,.958-2.9Z" transform="translate(-16.916 -4.782)" fill="#615842"/>
          <path id="Path_612473" data-name="Path 612473" d="M51.776,217.863c-1.651-.037-3.3-.031-4.951-.123a3.8,3.8,0,0,1-3.186-3.451,3.912,3.912,0,0,1,3.248-3.989,2.911,2.911,0,0,1,.531-.041c2.9,0,5.8-.02,8.7.006a3.89,3.89,0,0,1,3.546,2.537,3.518,3.518,0,0,1-1.013,4.011,3.715,3.715,0,0,1-2.6,1c-1.426,0-2.852,0-4.278,0,0,.018,0,.036,0,.054m.005-2.362v-.027c1.473,0,2.946.015,4.419-.006a1.259,1.259,0,0,0,1.342-1.046,1.393,1.393,0,0,0-.643-1.594,2.5,2.5,0,0,0-1.118-.257c-2.7-.023-5.394-.017-8.091-.015a3,3,0,0,0-.636.067,1.426,1.426,0,0,0-1.114,1.562,1.325,1.325,0,0,0,1.279,1.279c.236.021.474.034.711.035,1.283,0,2.566,0,3.849,0" transform="translate(-31.146 -150.084)" fill="#615842"/>
          <path id="Path_612474" data-name="Path 612474" d="M171.624,2.624c0,.5,0,1,0,1.495a.947.947,0,0,1-.759,1.05,1.108,1.108,0,0,1-1.318-.517,1.775,1.775,0,0,1-.213-.739c-.026-.83-.025-1.662,0-2.491a2.221,2.221,0,0,1,.187-.786A1.058,1.058,0,0,1,170.786.03a.94.94,0,0,1,.832.993c.019.533,0,1.067,0,1.6Z" transform="translate(-120.862 0)" fill="#615842"/>
          <path id="Path_612475" data-name="Path 612475" d="M232.408,70.048c.579.039,1.165.041,1.737.126a1.026,1.026,0,0,1,.882,1.049,1.1,1.1,0,0,1-.858,1.081,1.816,1.816,0,0,1-.421.07c-.927.006-1.854.013-2.78,0a1.158,1.158,0,0,1-1.107-.7A1.129,1.129,0,0,1,230.91,70.1c.5-.019,1,0,1.5,0l0-.052" transform="translate(-164.009 -50.002)" fill="#615842"/>
          <path id="Path_612476" data-name="Path 612476" d="M200.781,14.24a1.136,1.136,0,0,1-1.041-1.54c.535-.949,1.066-1.9,1.641-2.825a1.022,1.022,0,0,1,1.219-.422,1.182,1.182,0,0,1,.816.986.79.79,0,0,1-.112.507c-.523.941-1.053,1.88-1.606,2.805a1.057,1.057,0,0,1-.918.488" transform="translate(-142.508 -6.71)" fill="#615842"/>
          <path id="Path_612477" data-name="Path 612477" d="M222.828,38.834a1.177,1.177,0,0,1-1.078-.772,1.009,1.009,0,0,1,.406-1.253c.788-.505,1.609-.959,2.416-1.433.072-.042.147-.077.219-.118a1.083,1.083,0,0,1,1.6.391,1.1,1.1,0,0,1-.46,1.555c-.813.488-1.638.958-2.467,1.418a3.515,3.515,0,0,1-.632.211" transform="translate(-158.24 -25.03)" fill="#615842"/>
          <path id="Path_612478" data-name="Path 612478" d="M145.861,125.181a6.448,6.448,0,0,1-4.293-1.613,2.818,2.818,0,0,1-.348-.356,1.113,1.113,0,0,1,1.526-1.6,6.054,6.054,0,0,0,1.75,1.068,4.015,4.015,0,0,0,3.909-.721c.132-.1.249-.221.382-.32a1.151,1.151,0,0,1,1.548.112,1.038,1.038,0,0,1-.036,1.532,6.223,6.223,0,0,1-4.438,1.9" transform="translate(-100.626 -86.651)" fill="#615842"/>
          <path id="Path_612479" data-name="Path 612479" d="M151.716,100.835a1.136,1.136,0,0,1-1.027,1.086.541.541,0,0,0-.569.432c-.073.288.159.39.354.5a1.165,1.165,0,0,1,.7,1.36,1.054,1.054,0,0,1-1.335.8,2.594,2.594,0,0,1-1.885-1.859,2.567,2.567,0,0,1,.616-2.6,2.852,2.852,0,0,1,1.813-.9,1.231,1.231,0,0,1,1.338,1.174" transform="translate(-105.519 -71.134)" fill="#615842"/>
          <path id="Path_612480" data-name="Path 612480" d="M135.649,94.076c0,.38.006.76,0,1.14a1.141,1.141,0,0,1-1,1.153,1.093,1.093,0,0,1-1.282-1.027,21.934,21.934,0,0,1-.006-2.454,1.075,1.075,0,0,1,1.251-1.022,1.129,1.129,0,0,1,1.036,1.176q0,.516,0,1.033" transform="translate(-95.176 -65.575)" fill="#615842"/>
          <path id="Path_612481" data-name="Path 612481" d="M175.611,94.169c0,.38.014.761,0,1.14a1.127,1.127,0,0,1-2.226.207,1.631,1.631,0,0,1-.055-.385c-.005-.713-.012-1.426,0-2.139a1.139,1.139,0,0,1,2.277-.035c.021.4,0,.808,0,1.212h0" transform="translate(-123.722 -65.582)" fill="#615842"/>
        </g>
      </g>
    </g>
  </g>
</svg>
