<svg xmlns="http://www.w3.org/2000/svg" xmlns:xlink="http://www.w3.org/1999/xlink" width="125" height="125" viewBox="0 0 125 125">
  <defs>
    <clipPath id="clip-path">
      <rect id="Rectangle_378662" data-name="Rectangle 378662" width="91" height="91" transform="translate(404 1177)" fill="#fff" stroke="#707070" stroke-width="1"/>
    </clipPath>
    <clipPath id="clip-path-2">
      <rect id="Rectangle_378683" data-name="Rectangle 378683" width="79.667" height="79.153" fill="#615842"/>
    </clipPath>
  </defs>
  <g id="Group_1074725" data-name="Group 1074725" transform="translate(-7305 10127.856)">
    <g id="Group_1074229" data-name="Group 1074229" transform="translate(6919 -12273.856)">
      <path id="Path_608385" data-name="Path 608385" d="M62.5,0A62.5,62.5,0,1,1,0,62.5,62.5,62.5,0,0,1,62.5,0Z" transform="translate(386 2146)" fill="#fff"/>
    </g>
    <g id="Mask_Group_154399" data-name="Mask Group 154399" transform="translate(6918 -11287)" clip-path="url(#clip-path)">
      <g id="Group_1074260" data-name="Group 1074260" transform="translate(409.667 1182.924)">
        <g id="Group_1074259" data-name="Group 1074259" clip-path="url(#clip-path-2)">
          <path id="Path_612458" data-name="Path 612458" d="M25.6,79.761,14.659,68.555c-.305.28-.519.461-.716.658q-3.754,3.759-7.505,7.521-1.8,1.794-3.63,3.555a1.5,1.5,0,0,1-2.319.051,1.477,1.477,0,0,1-.158-1.886A4.4,4.4,0,0,1,.826,77.9q8.248-8.187,16.5-16.371c.225-.224.433-.466.673-.726-.084-.091-.189-.215-.3-.329-.6-.593-1.2-1.179-1.791-1.777a5.08,5.08,0,0,1-1.636-3.629,5.168,5.168,0,0,1,3.063-4.851c.56-.281.564-.267.342-.843a5.179,5.179,0,0,1,2.655-6.71,4.023,4.023,0,0,1,2.105-.492c.125-.542.208-1.056.362-1.547a5.2,5.2,0,0,1,3.439-3.465,6.078,6.078,0,0,1,1.328-.221c.207-.024.273-.09.291-.3a5.241,5.241,0,0,1,4.517-4.928,4.79,4.79,0,0,1,4.04,1.157c.994.876,1.923,1.827,2.873,2.752a8.089,8.089,0,0,1,.523.621c.177-.165.281-.256.379-.353q2.373-2.352,4.743-4.706a6.014,6.014,0,0,1,3.783-1.919A5.276,5.276,0,0,1,53.8,32.219a6.562,6.562,0,0,1,.383,1.1c.1.374.169.759.255,1.161.339.053.7.1,1.059.167a5.219,5.219,0,0,1,4.09,4.682c.013.329.1.43.448.448a5.272,5.272,0,0,1,4.823,4.547c.025.211.056.421.086.642.361.058.722.1,1.077.177a5.188,5.188,0,0,1,4.1,4.37,4.947,4.947,0,0,1-1.365,4.268c-.856.917-1.761,1.79-2.654,2.673a.406.406,0,0,0-.081.556,16.688,16.688,0,0,1,1.419,4.254,22.709,22.709,0,0,1,.318,2.709,1.093,1.093,0,0,0,.367.759q4.513,4.458,9.019,8.923c.673.667,1.348,1.333,2,2.015a1.527,1.527,0,0,1,.466,1.673,1.5,1.5,0,0,1-2.485.6c-.789-.734-1.543-1.505-2.3-2.27-1.01-1.016-2.01-2.041-3.041-3.089-.137.117-.238.191-.326.278-.4.4-.8.811-1.206,1.206a1.456,1.456,0,0,1-1.672.321,1.56,1.56,0,0,1-.983-1.333,1.4,1.4,0,0,1,.466-1.113c.468-.5.958-.979,1.419-1.448l-3.481-3.43c-.026.023-.133.109-.23.205q-4.02,4-8.038,7.993c-1.445,1.436-2.889,2.873-4.349,4.294-.213.208-.118.3.03.448q1.465,1.451,2.924,2.906c.1.1.2.2.339.353.4-.409.786-.8,1.176-1.194a4.337,4.337,0,0,1,.471-.431,1.468,1.468,0,0,1,2.05.179,1.493,1.493,0,0,1,0,1.976c-.493.525-1.064.977-1.611,1.471.156.193.214.279.286.351Q64.88,91.4,70.707,97.186a2.008,2.008,0,0,1,.712,1.113,1.489,1.489,0,0,1-.687,1.521,1.414,1.414,0,0,1-1.694-.073c-.593-.507-1.149-1.06-1.7-1.61q-5.03-5-10.053-10-4.591-4.557-9.2-9.091a.723.723,0,0,0-.53-.176,12.256,12.256,0,0,1-3.3-.032,11.476,11.476,0,0,1-4.593-1.7c-1.234-.773-2.447-1.582-3.658-2.39a.509.509,0,0,0-.673-.024,16.969,16.969,0,0,0-1.488,1.2Q23.2,86.47,12.578,97.035q-1.2,1.19-2.39,2.384a1.72,1.72,0,0,1-1.368.548c-.885-.04-1.923-1.346-1.108-2.287.426-.491.86-.978,1.321-1.436q5.131-5.1,10.274-10.182,3.155-3.127,6.306-6.257c.033-.033.063-.069.094-.1l-.107.06m-.846-16.632c.074.089.12.156.177.212q4.293,4.275,8.585,8.553c.159.159.29.214.49.1a9.114,9.114,0,0,1,4.4-1.1,22.6,22.6,0,0,0,6.906-1.15,20.412,20.412,0,0,0,7.673-4.605c4.181-4.076,8.315-8.2,12.467-12.3a15.771,15.771,0,0,0,1.156-1.2,2.155,2.155,0,0,0-1.446-3.537,2.561,2.561,0,0,0-2.139.906c-1.382,1.415-2.792,2.8-4.194,4.2a11.46,11.46,0,0,1-.887.817,1.264,1.264,0,0,1-1.489.184,1.537,1.537,0,0,1-.931-1.392,1.634,1.634,0,0,1,.589-1.2c.784-.807,1.582-1.6,2.381-2.392.882-.876,1.773-1.744,2.657-2.619a2.071,2.071,0,0,0,.651-1.7,2.123,2.123,0,0,0-1.3-1.921,2.067,2.067,0,0,0-2.286.357,8.753,8.753,0,0,0-.672.633c-1.566,1.55-3.123,3.109-4.7,4.648a1.506,1.506,0,0,1-2.091.054,1.468,1.468,0,0,1-.137-2.077c.761-.857,1.589-1.655,2.4-2.467.98-.98,1.99-1.929,2.954-2.925a2.182,2.182,0,0,0,.185-2.738,2.376,2.376,0,0,0-3.346-.288c-.962,1-1.956,1.963-2.945,2.934a5.171,5.171,0,0,1-.835.71,1.414,1.414,0,0,1-1.8-.2,1.391,1.391,0,0,1-.3-1.8A3.851,3.851,0,0,1,47.5,39.1c.988-.988,1.99-1.964,2.984-2.946a3.912,3.912,0,0,0,.379-.422,2.162,2.162,0,0,0-2.482-3.294,6.033,6.033,0,0,0-1.339.965c-1.631,1.585-3.231,3.2-4.841,4.807a1.8,1.8,0,0,0-.164.239,2.477,2.477,0,0,1,.258.2,5.221,5.221,0,0,1,1.531,2.705,5.084,5.084,0,0,1-1.913,5.235,4.649,4.649,0,0,1-2.666,1.055c-.544.031-.515.048-.591.589a5.368,5.368,0,0,1-.32,1.3,5.239,5.239,0,0,1-4.683,3.42c-.244.022-.25.139-.262.318A5.194,5.194,0,0,1,28.5,58.146c-.286,0-.374.119-.4.4a5.146,5.146,0,0,1-3.028,4.4c-.1.052-.2.115-.318.184m26.2,14.5c.171-.148.255-.213.329-.286Q57.8,70.9,64.326,64.457a.987.987,0,0,0,.316-.851A15.763,15.763,0,0,0,63.7,59.26a1.81,1.81,0,0,0-.142-.246c-.1.085-.181.138-.247.2-2.327,2.312-4.669,4.609-6.974,6.942A26.1,26.1,0,0,1,48,71.965a25.162,25.162,0,0,1-6.268,1.761c-.451.066-.906.1-1.425.159a1.327,1.327,0,0,0,.147.168,10.95,10.95,0,0,0,2.731,1.418A9.7,9.7,0,0,0,48,75.707a1.674,1.674,0,0,1,1.618.5c.437.465.876.929,1.337,1.418m-34.115-11.2,11.03,11.135c.087-.071.125-.1.157-.13,1.025-1.019,2.042-2.046,3.08-3.051.247-.239.217-.364-.011-.589q-4.721-4.677-9.427-9.369c-.476-.473-.96-.937-1.5-1.465l-3.328,3.468m11.1-11.311a2.1,2.1,0,0,0,2.14-1.142,2.04,2.04,0,0,0-.274-2.412c-.612-.689-1.289-1.321-1.943-1.972-1.276-1.269-2.54-2.55-3.84-3.793a2.192,2.192,0,0,0-3.445.588,2.323,2.323,0,0,0,.617,2.8q2.639,2.633,5.3,5.24a1.985,1.985,0,0,0,1.443.694M40.87,42.242a1.886,1.886,0,0,0-.542-1.232q-1.087-1.1-2.178-2.192c-1.182-1.179-2.36-2.363-3.558-3.526a2.2,2.2,0,0,0-2.609-.275,2.175,2.175,0,0,0-1.027,2.3,2.634,2.634,0,0,0,.872,1.423q2.015,1.979,4.026,3.962c.489.482.956.988,1.471,1.439a2.168,2.168,0,0,0,3.543-1.9m-15.256.068a1.721,1.721,0,0,0,.487,1.2,5.064,5.064,0,0,0,.5.549q2.529,2.5,5.065,4.984a3.931,3.931,0,0,0,.72.572,2.11,2.11,0,0,0,2.58-.342A2.152,2.152,0,0,0,35.3,46.6a6.617,6.617,0,0,0-.708-.839q-2-2-4.012-3.979c-.463-.458-.9-.943-1.409-1.351a2.1,2.1,0,0,0-2.344-.232,2.141,2.141,0,0,0-1.209,2.108M17.347,55.174a1.809,1.809,0,0,0,.633,1.275c.717.755,1.464,1.482,2.209,2.211a13.99,13.99,0,0,0,1.428,1.325,2.17,2.17,0,0,0,2.839-3.259c-1.12-1.157-2.252-2.3-3.429-3.4a2,2,0,0,0-2.427-.356,2.279,2.279,0,0,0-1.254,2.206" transform="translate(-0.045 -20.914)" fill="#615842"/>
          <path id="Path_612459" data-name="Path 612459" d="M18.307,19.913a3.6,3.6,0,0,1-.64-.3,4.909,4.909,0,0,1-.689-.612q-3.366-3.341-6.727-6.688a1.527,1.527,0,1,1,2.084-2.207q2.122,2.1,4.233,4.207c1.007,1,2.019,2,3.014,3.014a1.36,1.36,0,0,1,.3,1.631,1.638,1.638,0,0,1-1.574.95" transform="translate(-6.899 -6.853)" fill="#615842"/>
          <path id="Path_612460" data-name="Path 612460" d="M235.344,19.922a1.62,1.62,0,0,1-1.512-.885,1.352,1.352,0,0,1,.147-1.56,5.588,5.588,0,0,1,.477-.525q3.377-3.355,6.757-6.706a1.665,1.665,0,0,1,1.714-.589,1.473,1.473,0,0,1,.737,2.406c-.459.524-.982.993-1.476,1.486q-2.781,2.77-5.565,5.538a3.711,3.711,0,0,1-.611.539,4.115,4.115,0,0,1-.669.3" transform="translate(-167.118 -6.863)" fill="#615842"/>
          <path id="Path_612461" data-name="Path 612461" d="M254.384,63.814c-.807,0-1.613.013-2.42,0a1.722,1.722,0,0,1-1.575-.791,1.469,1.469,0,0,1,.718-2.151,2.671,2.671,0,0,1,.9-.17c1.6-.017,3.2-.013,4.8-.006a1.624,1.624,0,0,1,1.757,1.331,1.453,1.453,0,0,1-.873,1.583,3.046,3.046,0,0,1-.964.2c-.782.028-1.566.009-2.348.009" transform="translate(-178.932 -43.406)" fill="#615842"/>
          <path id="Path_612462" data-name="Path 612462" d="M4.231,63.818c-.807,0-1.613.01-2.42,0a1.851,1.851,0,0,1-1.365-.5,1.448,1.448,0,0,1-.384-1.472A1.45,1.45,0,0,1,1.2,60.78a3.129,3.129,0,0,1,.7-.083c1.554-.007,3.108-.009,4.662,0a2.95,2.95,0,0,1,.8.127,1.487,1.487,0,0,1,.05,2.833,3.138,3.138,0,0,1-.868.151c-.77.021-1.542.007-2.313.007" transform="translate(0 -43.41)" fill="#615842"/>
          <path id="Path_612463" data-name="Path 612463" d="M207.858,4.209c0-.875,0-1.751,0-2.626A1.491,1.491,0,0,1,209.049.037a1.474,1.474,0,0,1,1.714.934,2.562,2.562,0,0,1,.218.92c.022,1.537.027,3.076,0,4.613a1.8,1.8,0,0,1-.8,1.614,1.463,1.463,0,0,1-1.525.071,1.42,1.42,0,0,1-.807-1.356c.014-.875,0-1.751,0-2.626" transform="translate(-148.667 0)" fill="#615842"/>
          <path id="Path_612464" data-name="Path 612464" d="M63.985,4.237c0,.887,0,1.774,0,2.661A1.447,1.447,0,0,1,62.872,8.32a1.466,1.466,0,0,1-1.716-.744,3.072,3.072,0,0,1-.291-1.152c-.033-1.5-.017-3-.012-4.506A1.848,1.848,0,0,1,61.975.109a1.484,1.484,0,0,1,2.006,1.361c.014.922,0,1.845,0,2.768" transform="translate(-43.519 -0.012)" fill="#615842"/>
          <path id="Path_612465" data-name="Path 612465" d="M219.868,196.362a1.456,1.456,0,0,1,1.486-1.515,1.569,1.569,0,0,1,1.63,1.5,1.636,1.636,0,0,1-1.577,1.537,1.536,1.536,0,0,1-1.54-1.525" transform="translate(-157.26 -139.364)" fill="#615842"/>
        </g>
      </g>
    </g>
  </g>
</svg>
