<svg xmlns="http://www.w3.org/2000/svg" xmlns:xlink="http://www.w3.org/1999/xlink" width="120" height="120" viewBox="0 0 120 120">
  <defs>
    <clipPath id="clip-path">
      <path id="Path_613288" data-name="Path 613288" d="M0,0H83V83H0Z" transform="translate(192 787)" fill="#fff" stroke="#707070" stroke-width="1"/>
    </clipPath>
    <clipPath id="clip-path-2">
      <rect id="Rectangle_378068" data-name="Rectangle 378068" width="80.888" height="80.316" fill="#615842" stroke="#ffe7af" stroke-width="1"/>
    </clipPath>
  </defs>
  <g id="Group_1074739" data-name="Group 1074739" transform="translate(-180 -767)">
    <g id="Group_1073054" data-name="Group 1073054" transform="translate(-89 -191.001)">
      <path id="Path_608974" data-name="Path 608974" d="M60,0A60,60,0,1,1,0,60,60,60,0,0,1,60,0Z" transform="translate(269 958)" fill="#ffe7af"/>
    </g>
    <g id="Mask_Group_154443" data-name="Mask Group 154443" transform="translate(7 -1)" clip-path="url(#clip-path)">
      <g id="Group_1073058" data-name="Group 1073058" transform="translate(193 788)">
        <g id="Group_1073057" data-name="Group 1073057" clip-path="url(#clip-path-2)">
          <path id="Path_611489" data-name="Path 611489" d="M26.722,67.583c-.812.841-1.674,1.711-2.51,2.6a7.6,7.6,0,0,1-5,2.347,6.3,6.3,0,0,1-3.712-.911,10.852,10.852,0,0,1-2-1.477c-1.205-1.132-2.356-2.323-3.506-3.512a7.113,7.113,0,0,1-2.094-5.007,7.267,7.267,0,0,1,2.244-5.273c.784-.795,1.577-1.582,2.387-2.35a.5.5,0,0,0,.155-.636c-.446-1.063-.884-2.131-1.348-3.186-.042-.1-.247-.168-.378-.169C9.713,50,8.473,50.037,7.234,50a7.128,7.128,0,0,1-5.566-2.752,7.229,7.229,0,0,1-1.65-4.611c-.006-1.692-.041-3.386.007-5.078A7.3,7.3,0,0,1,6.414,30.43c1.481-.154,2.985-.087,4.479-.1a.491.491,0,0,0,.549-.379c.354-.927.724-1.85,1.147-2.746a.767.767,0,0,0-.219-1.037c-.814-.764-1.613-1.546-2.377-2.359a7.029,7.029,0,0,1-.48-9.534,31.84,31.84,0,0,1,5.043-4.983A6.71,6.71,0,0,1,19.07,7.809a7.289,7.289,0,0,1,4.958,2.158c.843.85,1.7,1.684,2.54,2.54a.462.462,0,0,0,.623.095q1.417-.631,2.863-1.194a.6.6,0,0,0,.461-.664A28.574,28.574,0,0,1,30.6,6.481,7.054,7.054,0,0,1,35.918.347a8.152,8.152,0,0,1,2.1-.309c1.67-.044,3.343-.055,5.012-.005a7.266,7.266,0,0,1,6.388,3.784,7.247,7.247,0,0,1,.967,3.7c.006,1.128-.017,2.257,0,3.385a.551.551,0,0,0,.269.406q1.6.713,3.226,1.367a.484.484,0,0,0,.392-.137q1.334-1.291,2.645-2.606a7.11,7.11,0,0,1,4.97-2.117,7.034,7.034,0,0,1,5.048,1.929c1.47,1.38,2.881,2.827,4.253,4.3a6.768,6.768,0,0,1,1.823,4.582,6.968,6.968,0,0,1-1.854,4.895c-.891.987-1.864,1.9-2.812,2.837a.445.445,0,0,0-.142.584q.675,1.549,1.291,3.122c.1.249.254.262.467.261,1.2,0,2.4-.033,3.6,0a7.437,7.437,0,0,1,7.293,6.629,4.146,4.146,0,0,1,.021.523c0,1.76.041,3.521-.008,5.279A7.284,7.284,0,0,1,74.531,49.9a42.515,42.515,0,0,1-4.479.1.549.549,0,0,0-.611.415q-.573,1.482-1.219,2.935a.5.5,0,0,0,.147.658c.938.926,1.922,1.815,2.778,2.812a6.9,6.9,0,0,1,1.712,6.164,7.025,7.025,0,0,1-1.817,3.5q-1.956,2.008-3.962,3.969a7.559,7.559,0,0,1-4.788,2.091,6.39,6.39,0,0,1-3.709-.925,10.442,10.442,0,0,1-1.8-1.344c-.875-.8-1.693-1.655-2.529-2.494a.335.335,0,0,0-.446-.1q-1.492.659-3.006,1.27a.573.573,0,0,0-.436.641,37.707,37.707,0,0,1-.069,4.225,7.257,7.257,0,0,1-5.313,6.2,7.588,7.588,0,0,1-2.224.3c-1.617-.019-3.234-.013-4.851,0a7.466,7.466,0,0,1-6.776-4.467,8.192,8.192,0,0,1-.645-3.173c.007-1.061,0-2.123.022-3.183a.441.441,0,0,0-.335-.5c-1.112-.434-2.212-.9-3.451-1.4M34.947,9.837q0,1.27,0,2.539a2.291,2.291,0,0,1-1.886,2.611c-.089.03-.181.053-.269.086-1.1.406-2.2.785-3.283,1.227-.832.34-1.618.791-2.449,1.133a1.889,1.889,0,0,1-1.964-.366,8.29,8.29,0,0,1-.679-.632c-1.149-1.134-2.325-2.243-3.434-3.415a3.266,3.266,0,0,0-4.228.038c-1.212,1.279-2.49,2.495-3.726,3.75a2.677,2.677,0,0,0-.731,1.7,3.225,3.225,0,0,0,1.19,2.7q1.73,1.665,3.429,3.363a2.183,2.183,0,0,1,.413,2.892,27.113,27.113,0,0,0-2.2,5.262A2.4,2.4,0,0,1,12.464,34.7c-1.7.009-3.4,0-5.094-.006a2.822,2.822,0,0,0-2.3,1.056,2.992,2.992,0,0,0-.662,1.984c0,1.666,0,3.332.034,5a2.8,2.8,0,0,0,2.939,2.908c1.657.022,3.315,0,4.972,0a2.439,2.439,0,0,1,2.791,2.024A26.964,26.964,0,0,0,17.3,52.808a2.225,2.225,0,0,1-.462,3.022c-.913.914-1.837,1.816-2.752,2.728a16.368,16.368,0,0,0-1.177,1.217,2.788,2.788,0,0,0,.041,3.634c1.313,1.4,2.684,2.756,4.088,4.07a2.976,2.976,0,0,0,3.434.2A8.1,8.1,0,0,0,21.6,66.71c1.1-1.073,2.175-2.163,3.266-3.241a2.077,2.077,0,0,1,2.443-.488c.494.211.95.508,1.447.708,1.4.559,2.789,1.129,4.211,1.615a2.456,2.456,0,0,1,1.98,2.658q0,2.64,0,5.28a2.014,2.014,0,0,0,.051.477,2.843,2.843,0,0,0,2.82,2.217c1.737.038,3.476.032,5.214.01a2.926,2.926,0,0,0,2.929-3.073c-.077-1.756-.02-3.519-.019-5.279a2.77,2.77,0,0,1,.037-.4c.17-1.129.984-1.595,1.964-1.88a26.568,26.568,0,0,0,5.21-2.148,2.239,2.239,0,0,1,3,.426c1.236,1.218,2.5,2.415,3.691,3.671a3.227,3.227,0,0,0,4.346-.039c1.148-1.209,2.356-2.362,3.536-3.541a3.165,3.165,0,0,0,.263-.306,2.859,2.859,0,0,0,.6-2.113,3.143,3.143,0,0,0-1.024-1.957c-1.2-1.173-2.419-2.337-3.609-3.525a2.19,2.19,0,0,1-.443-2.827,26.642,26.642,0,0,0,2.244-5.373,2.3,2.3,0,0,1,1.651-1.816,5.037,5.037,0,0,1,1.157-.13c1.63-.01,3.261.02,4.891-.006a3.359,3.359,0,0,0,1.329-.259,2.935,2.935,0,0,0,1.688-3c-.02-1.491,0-2.982-.009-4.472a4.514,4.514,0,0,0-.09-1,2.763,2.763,0,0,0-2.767-2.2c-1.684-.02-3.369,0-5.053,0a2.532,2.532,0,0,1-2.864-2.155,22.643,22.643,0,0,0-1.855-4.534c-.114-.213-.228-.427-.333-.644a2.174,2.174,0,0,1,.413-2.732c1.273-1.295,2.6-2.542,3.86-3.844a2.847,2.847,0,0,0,.03-4.036c-1.2-1.255-2.479-2.43-3.671-3.69a3.21,3.21,0,0,0-4.221-.046c-.223.25-.487.463-.725.7-1.019,1.016-2.028,2.044-3.057,3.051a2.21,2.21,0,0,1-2.9.434c-.421-.21-.822-.467-1.258-.639-1.348-.535-2.693-1.081-4.066-1.545a2.345,2.345,0,0,1-1.963-2.641q0-2.579,0-5.159a2.238,2.238,0,0,0-.039-.479A2.848,2.848,0,0,0,42.989,4.4c-1.617-.014-3.234-.01-4.851,0a5.754,5.754,0,0,0-.885.074,2.784,2.784,0,0,0-2.307,2.713q0,1.33,0,2.66" transform="translate(0 0)" fill="#615842" stroke="#ffe7af" stroke-width="1"/>
          <path id="Path_611490" data-name="Path 611490" d="M74.368,68.99c.036-.7.063-1.364.105-2.029A4.756,4.756,0,0,1,79.3,62.412c2.789-.019,5.578-.049,8.366,0a4.59,4.59,0,0,1,4.356,2.808A7.309,7.309,0,0,1,92.5,68.1c.01.291,0,.583,0,.913.526,0,1.007,0,1.488,0,1.616.016,3.235-.021,4.847.068a4.462,4.462,0,0,1,4.117,2.83,5.534,5.534,0,0,1,.367,1.919c.056,1.435.029,2.874.029,4.31q0,7.837,0,15.675a4.836,4.836,0,0,1-1.494,3.775,5.467,5.467,0,0,1-3.567,1.287c-.161.009-.323.006-.485.006H69.228a6.682,6.682,0,0,1-2.961-.5,4.686,4.686,0,0,1-2.705-4.651c.014-3.036,0-6.071,0-9.107,0-3.519-.01-7.038,0-10.557a4.756,4.756,0,0,1,5.109-5.045c1.765-.021,3.53-.01,5.295-.015.131,0,.261-.012.395-.019M81.233,86.4a33.312,33.312,0,0,1-13.285-3.913v.486c0,3.506,0,7.013.02,10.519.006,1.172-.164.947.962.949q13.644.021,27.288.007c.755,0,1.509-.015,2.264.006.347.01.509-.091.451-.452a1.819,1.819,0,0,1,0-.282q0-5.2.009-10.4v-.8c-.281.133-.508.232-.728.345a32.5,32.5,0,0,1-11.732,3.448c-.482.05-.82.07-.966.7A2.138,2.138,0,0,1,83.23,88.5a2.358,2.358,0,0,1-2-2.1m-13.3-12.872c0,1.139.016,2.239-.008,3.339a.834.834,0,0,0,.465.854c1.415.743,2.789,1.581,4.255,2.2a28.912,28.912,0,0,0,4.289,1.372c1.3.323,2.64.465,3.962.689.257.043.377-.049.454-.311a2.232,2.232,0,0,1,2.1-1.641,2.157,2.157,0,0,1,2.118,1.606c.085.266.2.357.478.336a25.84,25.84,0,0,0,5.178-.964,28.449,28.449,0,0,0,7.19-3.22.993.993,0,0,0,.546-1.011c-.053-.91-.035-1.825-.045-2.738,0-.167,0-.335,0-.512ZM87.959,66.8H78.942v2.183h9.017Z" transform="translate(-43.005 -42.209)" fill="#615842" stroke="#ffe7af" stroke-width="1"/>
        </g>
      </g>
    </g>
  </g>
</svg>
