<svg xmlns="http://www.w3.org/2000/svg" xmlns:xlink="http://www.w3.org/1999/xlink" width="70" height="70" viewBox="0 0 70 70">
  <defs>
    <clipPath id="clip-path">
      <path id="Path_612975" data-name="Path 612975" d="M0,0H51V50H0Z" transform="translate(278 968)" fill="#5e5a55" stroke="#707070" stroke-width="1"/>
    </clipPath>
    <clipPath id="clip-path-2">
      <rect id="Rectangle_378989" data-name="Rectangle 378989" width="47.939" height="46.912" fill="#5e5a55"/>
    </clipPath>
  </defs>
  <g id="Group_1074756" data-name="Group 1074756" transform="translate(-300 -6558)">
    <g id="Group_1074406" data-name="Group 1074406" transform="translate(31 5600)">
      <circle id="Ellipse_5614" data-name="Ellipse 5614" cx="35" cy="35" r="35" transform="translate(269 958)" fill="#fff"/>
      <g id="Mask_Group_154417" data-name="Mask Group 154417" clip-path="url(#clip-path)">
        <g id="Group_1074411" data-name="Group 1074411" transform="translate(286 969)">
          <g id="Group_1074750" data-name="Group 1074750" transform="translate(-6 1)">
            <g id="Group_1074749" data-name="Group 1074749" clip-path="url(#clip-path-2)">
              <path id="Path_613310" data-name="Path 613310" d="M144.552.018c0,.154,0,.279,0,.4,0,2.621.007,5.242-.005,7.862a2.949,2.949,0,0,0,1.327,2.639,3.283,3.283,0,0,0,1.914.472q3.931,0,7.862-.011c.429,0,.382-.052.382.379q0,16.516,0,33.031c0,.356.006.713,0,1.069a.99.99,0,0,1-1.075,1.042q-3.786,0-7.572.006H134.243q-.768,0-1.536-.007a.96.96,0,0,1-1.045-.974c-.031-.459-.035-.92-.035-1.38q0-21.048,0-42.1c0-.475,0-.951.031-1.424A.973.973,0,0,1,132.768,0q2.595-.006,5.189,0,3.151,0,6.3.006c.088,0,.176.007.292.012m-1.837,39.209v.008h6.346a.983.983,0,1,0-.146-1.959l-11.09.005c-.46,0-.921-.012-1.381,0a1,1,0,0,0-.992,1,1.077,1.077,0,0,0,1.026.965c2.078-.03,4.157-.012,6.235-.012m.017-7v-.008q2.516,0,5.032,0c.423,0,.846.017,1.269.007a.962.962,0,0,0,.844-1.44.974.974,0,0,0-.961-.509c-2.426.009-4.853.006-7.279.007-1.744,0-3.488.014-5.231-.011a1.051,1.051,0,0,0-.942,1.123,1.013,1.013,0,0,0,1.058.831h6.212m.015-15.99v.005h-2.4q-1.959,0-3.918,0a1.021,1.021,0,0,0-.964,1.108,1,1,0,0,0,1.043.846h11.555c.356,0,.713.006,1.068-.018a.957.957,0,0,0,.891-.982,1.037,1.037,0,0,0-.992-.958h-6.278m0,8.945v-.015c2.13,0,4.261,0,6.391-.005a.792.792,0,0,0,.432-.121.935.935,0,0,0,.4-1.047.992.992,0,0,0-.963-.752c-.318-.013-.638.006-.957.006H137.3c-.275,0-.55-.017-.824-.006a1.035,1.035,0,0,0-1.026,1.022.972.972,0,0,0,1,.918q3.151,0,6.3,0m-3.53-15.945v0c-.92,0-1.841-.007-2.761,0a.966.966,0,0,0-.131,1.928,3.01,3.01,0,0,0,.443.031c1.67,0,3.339,0,5.009,0a1.955,1.955,0,0,0,.59-.088.766.766,0,0,0,.546-.57.986.986,0,0,0-1.025-1.307c-.89.012-1.781,0-2.672,0" transform="translate(-108.097 0)" fill="#5e5a55"/>
              <path id="Path_613311" data-name="Path 613311" d="M21.679.058a44.022,44.022,0,0,0-.085,4.933c-.023,2.762-.005,5.524,0,8.286,0,.544,0,.554-.5.688a9.862,9.862,0,0,0-3.749,1.876,9.819,9.819,0,0,0,1.274,16.2A9.57,9.57,0,0,0,21.4,33.111a.182.182,0,0,1,.171.21c0,.356.012.713.012,1.069q-.005,5.735-.008,11.471a10.528,10.528,0,0,0,.1,1.057,1.6,1.6,0,0,1-2.034-1.529,5.633,5.633,0,0,0-.44-2.1,4.966,4.966,0,0,0-2.867-2.7,7.7,7.7,0,0,0-1.771-.4,4.5,4.5,0,0,0-1.165.125A4.764,4.764,0,0,0,10.867,41.6a1.872,1.872,0,0,1-.907.531,1.4,1.4,0,0,1-1.233-.285c-.356-.3-.678-.643-1.01-.972-.755-.747-1.51-1.493-2.257-2.247a3.046,3.046,0,0,1-.476-.583,1.39,1.39,0,0,1,.17-1.673c.247-.316.53-.6.759-.931a4.968,4.968,0,0,0,.812-3.41A5.131,5.131,0,0,0,3.055,27.6a5.249,5.249,0,0,0-1.532-.233A1.594,1.594,0,0,1,.011,25.9c-.009-1.6-.02-3.208,0-4.811a1.5,1.5,0,0,1,1.438-1.426,5.578,5.578,0,0,0,2.837-.792A5.148,5.148,0,0,0,6.744,14.13a4.871,4.871,0,0,0-1.386-3.261,2.553,2.553,0,0,1-.363-.476A1.351,1.351,0,0,1,5.218,8.64C6.088,7.727,7,6.852,7.892,5.961c.221-.22.437-.445.664-.659A1.5,1.5,0,0,1,10.7,5.26a5.626,5.626,0,0,0,1.771,1.171,5.318,5.318,0,0,0,2.922.27,5.18,5.18,0,0,0,4.13-3.94c.1-.453.1-.929.165-1.39A1.506,1.506,0,0,1,21.211.058c.154,0,.309,0,.467,0" transform="translate(0 -0.047)" fill="#5e5a55"/>
              <path id="Path_613312" data-name="Path 613312" d="M224.235,10.2c-.1.009-.149.017-.2.017l-7.947.005c-.1,0-.193,0-.289-.007a.949.949,0,0,1-.98-1.014q-.008-3.985,0-7.97a.688.688,0,0,1,.008-.133c.01-.048.026-.13.046-.132a.237.237,0,0,1,.159.045c.12.1.235.2.345.315q1.8,1.791,3.591,3.585l5.156,5.137a1.52,1.52,0,0,1,.113.152" transform="translate(-176.415 -0.79)" fill="#5e5a55"/>
            </g>
          </g>
        </g>
      </g>
    </g>
  </g>
</svg>
