<svg xmlns="http://www.w3.org/2000/svg" xmlns:xlink="http://www.w3.org/1999/xlink" width="70" height="70" viewBox="0 0 70 70">
  <defs>
    <clipPath id="clip-path">
      <path id="Path_612975" data-name="Path 612975" d="M0,0H51V50H0Z" transform="translate(278 968)" fill="#5e5a55" stroke="#707070" stroke-width="1"/>
    </clipPath>
    <clipPath id="clip-path-2">
      <rect id="Rectangle_378798" data-name="Rectangle 378798" width="35.125" height="47.526" fill="#5e5a55"/>
    </clipPath>
  </defs>
  <g id="Group_1074758" data-name="Group 1074758" transform="translate(-915 -6558)">
    <g id="Group_1074413" data-name="Group 1074413" transform="translate(646 5600)">
      <circle id="Ellipse_5614" data-name="Ellipse 5614" cx="35" cy="35" r="35" transform="translate(269 958)" fill="#fff"/>
      <g id="Mask_Group_154417" data-name="Mask Group 154417" clip-path="url(#clip-path)">
        <g id="Group_1074411" data-name="Group 1074411" transform="translate(286 969)">
          <g id="Group_1074410" data-name="Group 1074410" clip-path="url(#clip-path-2)">
            <path id="Path_612973" data-name="Path 612973" d="M35.1,14.738c.005.076.014.155.014.233q.007,13.29.01,26.58a6.021,6.021,0,0,1-.552,2.928A5.414,5.414,0,0,1,30.6,47.4a7.428,7.428,0,0,1-1.327.12q-11.722.01-23.444,0A6.075,6.075,0,0,1,2.75,46.77a5.127,5.127,0,0,1-2.585-3.4,9.7,9.7,0,0,1-.158-2.128Q-.006,23.64.006,6.034A6.483,6.483,0,0,1,.333,3.569,5.376,5.376,0,0,1,4.528.13,7.625,7.625,0,0,1,5.976.005q6.316-.014,12.633,0h1c-.017.114-.022.192-.041.266q-.452,1.775-.907,3.549c-.243.948-.5,1.893-.727,2.844a4.8,4.8,0,0,0,2.853,5.6,7.634,7.634,0,0,0,1.788.416c1.039.157,2.077.32,3.113.493,1.084.181,2.163.388,3.248.566,1.746.287,3.495.558,5.242.838.3.049.6.11.925.169M17.536,25.613q-5.9,0-11.8,0a1.023,1.023,0,0,0-.379.051.968.968,0,0,0-.565.984.918.918,0,0,0,.829.765c.305.023.614.005.922.005h22.3c.235,0,.471.015.7-.008a.908.908,0,0,0-.246-1.8H17.536m.029,13.757v0H11.831c-2.025,0-4.049,0-6.074.005a1.1,1.1,0,0,0-.546.142.876.876,0,0,0-.4.963.945.945,0,0,0,.949.719c.226,0,.453-.021.68-.021q11.175,0,22.35,0c.227,0,.453.015.68.011a.916.916,0,1,0-.191-1.82H17.564m2.871-16.521q3.655,0,7.31,0c.469,0,.939.025,1.408.014a.912.912,0,0,0,.96-.889.937.937,0,0,0-.926-.984c-.395-.023-.792-.009-1.188-.009q-7.892-.011-15.784-.02a4.065,4.065,0,0,0-.629.035.969.969,0,0,0-.724.437.949.949,0,0,0,.856,1.435c.436.015.874-.019,1.31-.019q3.7,0,7.407,0m3.528,7.338v0q-2.563,0-5.125,0a3.454,3.454,0,0,0-.484.028.842.842,0,0,0-.789.832.909.909,0,0,0,.744.941,2.609,2.609,0,0,0,.506.041q5.1,0,10.2,0a3.03,3.03,0,0,0,.627-.053.9.9,0,0,0,.619-1.193.948.948,0,0,0-1.03-.6h-5.27M17.4,36.61V36.6q2.514,0,5.028,0a.869.869,0,0,0,.766-.337.9.9,0,0,0,.1-.985.924.924,0,0,0-.868-.523q-5.016-.006-10.033,0c-.04,0-.081,0-.121,0a.929.929,0,1,0,.15,1.851q2.49,0,4.98,0m-7.026-4.582v0q2.076,0,4.153,0a4.526,4.526,0,0,0,.654-.03.937.937,0,0,0,.8-.894.922.922,0,0,0-.778-.887,2.8,2.8,0,0,0-.483-.032q-4.3,0-8.6,0a3.454,3.454,0,0,0-.7.058A.889.889,0,0,0,4.839,31.4a.979.979,0,0,0,1.016.632q2.259,0,4.517,0M27.5,36.6v0c.647,0,1.294.012,1.94,0a.907.907,0,0,0,.887-.911.97.97,0,0,0-.9-.921q-1.928-.016-3.857,0a.881.881,0,0,0-.872.913.87.87,0,0,0,.929.925c.622.011,1.245,0,1.868,0m-20.115,0v0H8.964l.073,0a.924.924,0,0,0,.9-.906.964.964,0,0,0-.886-.931c-1.125-.013-2.251-.017-3.375,0a.905.905,0,0,0-.807.577.834.834,0,0,0,.126.909.894.894,0,0,0,.768.343c.542.008,1.084,0,1.627,0" transform="translate(0 0)" fill="#5e5a55"/>
            <path id="Path_612974" data-name="Path 612974" d="M114.3,16.177a1.179,1.179,0,0,1-.176.009c-.73-.136-1.457-.289-2.189-.408-1.212-.2-2.429-.367-3.642-.562-.749-.12-1.493-.271-2.242-.4-.98-.164-1.964-.31-2.944-.474a2.96,2.96,0,0,1-2.493-2.8,5.637,5.637,0,0,1,.267-1.472c.417-1.662.853-3.319,1.278-4.979.043-.169.06-.345.1-.6,4.062,3.865,7.967,7.812,12.038,11.681" transform="translate(-80.963 -3.618)" fill="#5e5a55"/>
          </g>
        </g>
      </g>
    </g>
  </g>
</svg>
