<svg xmlns="http://www.w3.org/2000/svg" xmlns:xlink="http://www.w3.org/1999/xlink" width="1030" height="495" viewBox="0 0 1030 495">
  <defs>
    <clipPath id="clip-path">
      <rect id="Rectangle_378732" data-name="Rectangle 378732" width="907" height="419.368" fill="none"/>
    </clipPath>
    <clipPath id="clip-path-2">
      <rect id="Rectangle_378731" data-name="Rectangle 378731" width="906.999" height="419.368" fill="none"/>
    </clipPath>
    <clipPath id="clip-path-3">
      <rect id="Rectangle_378727" data-name="Rectangle 378727" width="29.41" height="50.887" fill="none"/>
    </clipPath>
    <clipPath id="clip-path-4">
      <rect id="Rectangle_378728" data-name="Rectangle 378728" width="10.555" height="56.22" fill="none"/>
    </clipPath>
  </defs>
  <g id="Group_1074755" data-name="Group 1074755" transform="translate(-285 -3029.698)">
    <path id="Path_608309" data-name="Path 608309" d="M0,0H1030V495H0Z" transform="translate(285 3029.698)" fill="#fff8e7"/>
    <g id="Group_1074338" data-name="Group 1074338" transform="translate(346.5 3105.33)" clip-path="url(#clip-path)">
      <g id="Group_1074337" data-name="Group 1074337" transform="translate(0 0.001)">
        <g id="Group_1074336" data-name="Group 1074336" clip-path="url(#clip-path-2)">
          <path id="Path_612677" data-name="Path 612677" d="M886.743,416.072c-16.75,0-51.075,1.188-51.439,1.729H748.765l-25.329-.053H496.647l-66.233-.056H255.808l-72.929-.053H51l-.656-1.3-.073-.109a.466.466,0,0,1-.073-.162c-.292-.434-109.746-172.764,70.97-257.717,70.708-33.239,33.448-99.611,138.1-139.818C394.2-33.307,430.978,42.015,590.533,23.8,729.108,7.989,792.248,58.361,782.522,133.274c-4.568,35.188,26.8,62.161,57.733,67,85.353,13.347,82.294,91.525,75.317,148.964-4.3,35.411-28.237,66.836-28.83,66.836" transform="translate(-11.753 -0.003)" fill="#feefcd"/>
          <path id="Path_612678" data-name="Path 612678" d="M1126.359,891.642a5.8,5.8,0,0,0-2.739-1.746c-1.644-.413-5.2-2.148-4.782-1.239s2.4,1.983,2.065,2.644c0,0-5.644-1.57-5.809-.578s1.988,4.777,4.405,5.591c.8.268,6.361-.8,6.361-.8Z" transform="translate(-766.965 -611.049)" fill="#f2a16b"/>
          <path id="Path_612679" data-name="Path 612679" d="M1713.5,945.364a6.611,6.611,0,0,0-5.17-2.031c-1.51.2-3.694-2.178-3.584-.636s2.3,5.112,3.04,5.724c1.46,1.2,4.67.805,4.67.805l3.938,2.427Z" transform="translate(-1172.539 -648.036)" fill="#ffb27d"/>
          <path id="Path_612680" data-name="Path 612680" d="M189.161,742.19s-16.3,16.9-17.074,23.267,7.81,16.3,7.81,16.3Z" transform="translate(-118.33 -510.486)" fill="#ed7d2b"/>
          <path id="Path_612681" data-name="Path 612681" d="M250.485,1296.977s.575,8.967,2.311,9.091c.231.017,8.8,0,8.8,0l10.939-.087a3.55,3.55,0,0,0-3.276-3.186c-3.2-.55-8.555-2.786-10.5-7.008-2.048-4.441-8.272,1.191-8.272,1.191" transform="translate(-172.286 -890.081)" fill="#2358a5"/>
          <path id="Path_612682" data-name="Path 612682" d="M172.443,1297.147s.575,8.967,2.311,9.091c.231.017,8.8,0,8.8,0l10.939-.087a3.55,3.55,0,0,0-3.276-3.186c-3.2-.55-8.555-2.786-10.5-7.007-2.048-4.442-8.272,1.191-8.272,1.191" transform="translate(-118.608 -890.198)" fill="#2358a5"/>
          <path id="Path_612683" data-name="Path 612683" d="M207.325,964.5S204.5,982.8,193.9,1015.3s-12.026,46.573-12.026,46.573l-11.45-.3s-.175-35.5,4.708-51.842.933-58.886.933-58.886Z" transform="translate(-117.22 -654.007)" fill="#163560"/>
          <path id="Path_612684" data-name="Path 612684" d="M233.312,953.808a444.078,444.078,0,0,1-4.232,61.438c-4.7,33.865-3.049,48.233-3.049,48.233l-11.425.4s-6.9-33.853-4.981-50.8-9.477-58.126-9.477-58.126Z" transform="translate(-137.664 -656.039)" fill="#1c468a"/>
          <path id="Path_612685" data-name="Path 612685" d="M235.077,717.238l6.1,3.978,8.795-1.659c-.123-.71-.711-3.652-1.245-6.317-.032-.157-.065-.314-.095-.468-.458-2.268-.854-4.216-.854-4.216l-8.225-3.608-3.067-1.345c.008.048.243,2.517.276,2.878a20.948,20.948,0,0,1-1.681,10.757" transform="translate(-161.688 -483.946)" fill="#ffb27d"/>
          <path id="Path_612686" data-name="Path 612686" d="M245.717,734.612c-.171-.072-10.6-3.125-11.733-2.749s-1.8,2.569-1.8,2.569l17.059,3.818s-1.348-2.726-3.528-3.638" transform="translate(-159.7 -503.361)" fill="#ed7d2b"/>
          <path id="Path_612687" data-name="Path 612687" d="M185.1,810.143c1.784,8.057,31.193,8.949,38.757,1.616.86-.836.894-4.717.558-9.947-.658-10.22-2.734-25.591-2.831-33.447a62.179,62.179,0,0,0-1.279-11.195,90.911,90.911,0,0,0-3.759-13.394s-14.374-4.612-17.059-3.817c-12.939,3.832-16.172,62.126-14.387,70.183" transform="translate(-127.005 -508.889)" fill="#f99746"/>
          <path id="Path_612688" data-name="Path 612688" d="M280.33,836.615c-.658-10.22-2.734-25.591-2.831-33.447a62.2,62.2,0,0,0-1.279-11.194l-8.644-1.506s-8.372,34.523,12.753,46.147" transform="translate(-182.916 -543.692)" fill="#ed7d2b"/>
          <path id="Path_612689" data-name="Path 612689" d="M287.11,889.729a2.034,2.034,0,0,0,.653,2.352c1.239.943,2.044,2.472,1.764,3.592s-2.99,2.951-3.931,2.659-2.858-1.762-2.654-2.353-1.3-5.177.99-6.949,3.178.7,3.178.7" transform="translate(-194.406 -611.044)" fill="#ffb27d"/>
          <path id="Path_612690" data-name="Path 612690" d="M263.581,745.81s8.43,1.558,15.166,11.439,11.169,17.227,9.94,20.8-12.476,15.962-14.42,15.966-5.083-1.4-5.267-4.583c0,0,7.426-12.363,5.859-14.141-.67-.76-9.838-8.114-11.206-4.577-2.264,5.852-.071-24.9-.071-24.9" transform="translate(-180.638 -512.976)" fill="#f99746"/>
          <path id="Path_612691" data-name="Path 612691" d="M241.918,709.554c1.811,3.053,8.541,5.682,11.347,6.647l-.095-.468c-.458-2.268-.853-4.216-.853-4.216l-8.225-3.608c-1.816-.021-2.921.388-2.174,1.644" transform="translate(-166.231 -486.907)" fill="#fca56b"/>
          <path id="Path_612692" data-name="Path 612692" d="M244.928,669.88s-13.228,4.158-15.69-4.119-5.828-13.316,2.513-16.32,10.929-.337,12.423,2.227,4.131,16.918.754,18.213" transform="translate(-155.745 -445.776)" fill="#ffb27d"/>
          <path id="Path_612693" data-name="Path 612693" d="M231.066,640.909s-.823,9.64-2.817,9.226-3.8-.72-3.5,2.184,3.069,6.254-3.072,6.781-15.007-15.3-13.326-18.3c4.85-8.665,29.735-10.466,22.72.107" transform="translate(-143.159 -435.816)" fill="#163560"/>
          <path id="Path_612694" data-name="Path 612694" d="M2479.438,839.386s-1.128-1.862-1.817-2.891-2.065-2.313-2.416-1.982,1.056,1.693.992,2.147-2.421-1.073-2.676-1.417c-.511-.689-1.86-1.433-2.026-.566s.838,3.594,1.292,4.378a8.6,8.6,0,0,0,3.409,2.4c1.052.372,2.854,1.239,2.854,1.239Z" transform="translate(-1699.906 -573.83)" fill="#ffb27d"/>
          <path id="Path_612695" data-name="Path 612695" d="M2579.578,652.106a9.17,9.17,0,0,0-7.25-.776c-12.314-1.446-15.907,12.915-15.74,17.857s.731,10.249-4.769,16.668c-15.885,18.544,17.384,19.361,17.384,19.361.282-14.816,18.042-9.41,17.263-7.908,22.767,5.464,2.264-40.454-6.888-45.2" transform="translate(-1752.211 -447.712)" fill="#163560"/>
          <path id="Path_612696" data-name="Path 612696" d="M2526.466,797.973a32.451,32.451,0,0,1-3.312,5.009c-2.573,3.223-6.541,6.947-11.523,7.681a12.37,12.37,0,0,1-6.845-1.111l-.008,0c-6.051-2.686-10.6-8.862-10.6-8.862a4.974,4.974,0,0,1,.679-4.881s12.217,2.748,13.381,2.166,7.951-20.135,9.566-22.592,7.125-3.733,7.125-3.733Z" transform="translate(-1715.282 -530.748)" fill="#f99746"/>
          <path id="Path_612697" data-name="Path 612697" d="M2547.284,857.753c-2.573,3.223-6.541,6.947-11.523,7.681a12.371,12.371,0,0,1-6.846-1.111c.237.031,6.279.777,8.688-3.531,2.457-4.4,5.114-11.378,8.763-9.05,1.574,1,1.505,3.5.917,6.012" transform="translate(-1739.412 -585.518)" fill="#ed7d2b"/>
          <path id="Path_612698" data-name="Path 612698" d="M2714.61,1274.853s3.728,3.4,3,5.819-4.091,4.029-4.546,6.983-2.273,4.566-3.91,4.566h-7.8s-1.2-2.079,1.7-2.706,4.007-4.1,3.825-7.321a56.836,56.836,0,0,1,.273-7.521l6.183-1.433Z" transform="translate(-1857.846 -875.748)" fill="#2358a5"/>
          <path id="Path_612699" data-name="Path 612699" d="M2596.5,1283.03s1.342,14.413-.3,15.218l-20.946-.043s0-2.417,3.364-2.954,9.274-2.507,10.275-6.894,7.6-5.327,7.6-5.327" transform="translate(-1771.286 -882.481)" fill="#2358a5"/>
          <path id="Path_612700" data-name="Path 612700" d="M2613.458,798.2c-4.31-9.666-6.948-12.441-6.444-15.441.375-2.233-1.141-41.633-1.141-41.633-.511-.158-1.536-.3-2.1-.425a5.259,5.259,0,0,1-3.84-3.34,26.811,26.811,0,0,1-1.3-8.89l-.552.109-9.283,1.838s.211,2.922.217,5.674c0,.023,0,.046,0,.068a5.339,5.339,0,0,1-3.854,5.163c-1.172.338-2.193.628-2.193.628a85.122,85.122,0,0,0-4.06,19.73c-.651,10,6.2,14.342-.052,34.322-6.381,20.406,36.983,7.538,34.6,2.2" transform="translate(-1773.321 -501.049)" fill="#ffb27d"/>
          <path id="Path_612701" data-name="Path 612701" d="M2612.111,730.656s.211,2.921.217,5.674c5.2-.146,7.941-4.885,9.066-7.512Z" transform="translate(-1796.636 -501.289)" fill="#e8945b"/>
          <path id="Path_612702" data-name="Path 612702" d="M2597.534,697.36s12.291.2,12.3-7.454,1.6-12.786-6.246-13.24-9.375,2.467-10,5.022.75,15.422,3.947,15.672" transform="translate(-1783.793 -465.387)" fill="#ffb27d"/>
          <path id="Path_612703" data-name="Path 612703" d="M2608.01,672.741s3.365,8.982,8.53,10.31,7.4-.056,7.4-.056a14.625,14.625,0,0,1-4.783-8.641s-8.613-5.889-11.151-1.614" transform="translate(-1793.815 -461.648)" fill="#163560"/>
          <path id="Path_612704" data-name="Path 612704" d="M2596.97,675.278a7.628,7.628,0,0,0-3.522,2.753,12.376,12.376,0,0,0-1.661,7.029s-2.536-6.105.313-9.559c3.022-3.662,4.87-.223,4.87-.223" transform="translate(-1781.941 -463.456)" fill="#163560"/>
          <path id="Path_612705" data-name="Path 612705" d="M2605.339,726.894a3.089,3.089,0,0,1-2.545,1.036,2.261,2.261,0,0,1-1.895-1.25,8.258,8.258,0,0,1,4.439.215" transform="translate(-1788.924 -499.67)" fill="#ebf3fa"/>
          <path id="Path_612706" data-name="Path 612706" d="M2611.531,786.431a83.388,83.388,0,0,1,0,9.681c-.208,3.5-3.749,8.189-4.25,9.349-1.26,2.909-2.682,3.382-2.682,3.382l-11,2.7-3.866.946-12.194-3.642s-5.554-15.5-3.323-24.229a67.053,67.053,0,0,1,5.637-14.787s9.95,9.743,22.906-.826Z" transform="translate(-1770.208 -528.927)" fill="#f99746"/>
          <path id="Path_612707" data-name="Path 612707" d="M2641.661,852.618c-.208,3.5-.53,6.76-1.032,7.92-1.261,2.909-2.682,3.382-2.682,3.382l-11,2.7-4.776-1.4s15.944-2.416,14.178-16.135Z" transform="translate(-1803.556 -584.004)" fill="#f2ccaa"/>
          <path id="Path_612708" data-name="Path 612708" d="M2574.332,904.16s-6.039,18.8-6.427,25.2,11.543,90.911,12.023,93.859c.452,2.78,3.9,4.552,3.9,4.552a5.223,5.223,0,0,0,3.853.3c3.144-.887,4.137-1.95,4.137-1.95s4.7-60.273,1.792-81.8a340.927,340.927,0,0,1-2.943-40.149Z" transform="translate(-1766.224 -621.891)" fill="#163560"/>
          <path id="Path_612709" data-name="Path 612709" d="M2618.476,902.364s9.211,12.359,10.07,20.714,1.348,37.7,3.177,45.847,8.551,23.819,8.551,49.223a5.066,5.066,0,0,1-2.856,2.232,23.522,23.522,0,0,1-2.511.695,3.95,3.95,0,0,1-4.417-2.1c-4.544-9.15-19.02-38.661-19.762-44.787-.525-4.335-5.1-33.027-15.066-49.863-2.394-4.042,1.469-20.115,1.469-20.115Z" transform="translate(-1784.783 -620.655)" fill="#1c468a"/>
          <path id="Path_612710" data-name="Path 612710" d="M2604.8,727.226s-.213.9-2.457.763c0,0-1.885-.116-1.827-1.108a6.065,6.065,0,0,1,4.284.345" transform="translate(-1788.662 -499.797)" fill="#fff"/>
          <path id="Path_612711" data-name="Path 612711" d="M2584.666,894.865s2.425,1.918,7.24,2.015c5.752.116,20.006-1.466,20.006-1.466a11.78,11.78,0,0,1,.608,3.638s-17.409,4.391-27.5.641a6.374,6.374,0,0,1-.359-4.827" transform="translate(-1777.523 -615.498)" fill="#233862"/>
          <path id="Path_612712" data-name="Path 612712" d="M2598.409,904.107a2.994,2.994,0,1,1,2.625-2.971,2.817,2.817,0,0,1-2.625,2.971m0-5.072a2.135,2.135,0,1,0,1.755,2.1,1.954,1.954,0,0,0-1.755-2.1" transform="translate(-1785.406 -617.767)" fill="#fff"/>
          <rect id="Rectangle_378726" data-name="Rectangle 378726" width="23.65" height="32.373" transform="matrix(0.754, -0.657, 0.657, 0.754, 814.036, 273.884)" fill="#afcdfb"/>
          <path id="Path_612713" data-name="Path 612713" d="M2644.578,905.938s-6.934,1.065-6.914,2.617,1.434,4.357,2.835,4.579c1.78.282,5.318-4.31,5.318-4.31Z" transform="translate(-1814.211 -623.114)" fill="#ffb27d"/>
          <path id="Path_612714" data-name="Path 612714" d="M2643.967,905.829a9.061,9.061,0,0,0-4.027-.5c-1.7.351-3.28.092-2.893.712s2.694.39,3.059.632.371.091.371.091Z" transform="translate(-1813.746 -622.638)" fill="#ffb27d"/>
          <path id="Path_612715" data-name="Path 612715" d="M2658.087,769s8.725.612,12.07,8.742,9.69,21.781,9.69,24.077-3.544,9.376-22.581,13.446c0,0-1.969-2.071-1.85-3.709,0,0,11.884-10.207,11.851-11.4-.06-2.257-1.948-5.236-12.381-15.672-2.836-2.837,3.2-15.484,3.2-15.484" transform="translate(-1825.535 -528.927)" fill="#f99746"/>
          <path id="Path_612716" data-name="Path 612716" d="M531.818,785.217a77.457,77.457,0,0,1-13.682-1.212,75.893,75.893,0,0,1-12.05-3.2,97.865,97.865,0,0,1-18.281.02c-18.723-1.745-35.932-7.355-50.2-16.094a39.66,39.66,0,0,1-10.494.825c-8.749-.453-17.033-3.745-24.62-9.784-7.212-5.741-13.441-13.665-18.514-23.553-8.893-17.333-13.294-39.115-12.392-61.333a136.848,136.848,0,0,1,21.31-68.418c10.188-15.861,21.444-28.178,33.454-36.607A76.512,76.512,0,0,1,469.622,551.4a111.326,111.326,0,0,1,34.6-13.287,82.234,82.234,0,0,1,59.528,9.97c23.71,14.181,42.68,40.572,56.382,78.44q1.176,3.249,2.18,6.481c3.143,1.625,6.538,3.454,10.327,5.5l.248.134c11.844,6.381,30.321,11.487,49.426,13.659,15.93,1.81,39.59,2.442,61.843-4.829,20.795-6.8,35.488-18.941,43.67-36.1l1.79.853c-8.425,17.669-23.513,30.162-44.844,37.133-22.592,7.382-46.557,6.747-62.683,4.914-19.343-2.2-38.088-7.389-50.142-13.884l-.248-.134c-3.119-1.681-5.957-3.21-8.591-4.593,5.509,19.009,6.574,37.584,3.161,55.34a97.629,97.629,0,0,1-23.11,47.169A85.725,85.725,0,0,1,592.286,748.3c-.266.585-.539,1.167-.816,1.739A14.372,14.372,0,0,1,593.5,757.3c-.235,3.552-4.269,6.674-11.988,9.281q-.954.322-1.972.631a56.484,56.484,0,0,1-22.795,13.984,79.453,79.453,0,0,1-24.928,4.024m-21.024-4.971a74.157,74.157,0,0,0,7.692,1.808,76.925,76.925,0,0,0,37.637-2.743,55.21,55.21,0,0,0,19.357-10.985c-10.427,2.606-24.481,4.31-39.625,4.893q-.889.382-1.789.748a99.183,99.183,0,0,1-23.272,6.279m-70.489-16.206a115.646,115.646,0,0,0,47.684,14.81,95.756,95.756,0,0,0,13.815.28,73.062,73.062,0,0,1-14.212-8.036,162.232,162.232,0,0,1-19.474-3.808,74.315,74.315,0,0,1-18.566-7.312,40.265,40.265,0,0,1-9.248,4.067m51.6,7.605a71.807,71.807,0,0,0,14.43,7.143,97.354,97.354,0,0,0,23.72-5.4c-7.393.142-14.965.018-22.432-.4-5.438-.3-10.7-.753-15.718-1.345m-3.533-2.435c6.016.814,12.488,1.419,19.361,1.8,9.247.513,18.651.578,27.664.245a92.508,92.508,0,0,0,15.531-8.572,43.516,43.516,0,0,1-7.767-1.209c-5.946-1.493-10.82-5.037-14.81-10.874a113.259,113.259,0,0,1-18.97-1.075C494,747.374,481.4,742.7,471.712,735.585c-1.6,2.813-3.2,5.309-4.759,7.522a67.731,67.731,0,0,0,18.407,23.754q1.474,1.217,3.015,2.35m65.847-6.428a93.177,93.177,0,0,1-13.6,8.233c14.892-.822,28.38-2.751,37.872-5.564a56.432,56.432,0,0,0,5.225-6.221,64.749,64.749,0,0,0,5.147-8.417,71.532,71.532,0,0,1-14.756,7.966,55.4,55.4,0,0,1-19.892,4m-102.758-4.015c7.7,4.316,18.953,7.682,32.928,9.864l-.294-.242a69.644,69.644,0,0,1-18.47-23.456,67.938,67.938,0,0,1-5.943,6.972,52,52,0,0,1-8.22,6.862m138.889-6.524a64.376,64.376,0,0,1-8.038,11.947c5.794-2.147,9.048-4.62,9.207-7.026a10.731,10.731,0,0,0-1.169-4.921M466.272,553.489c-2.167.158-4.2.4-6.147.691a75.9,75.9,0,0,0-32.64,13.3c-11.8,8.281-22.876,20.412-32.925,36.056a134.858,134.858,0,0,0-21,67.427c-.888,21.882,3.436,43.314,12.175,60.348,4.944,9.635,10.994,17.342,17.985,22.907,7.257,5.776,15.159,8.924,23.487,9.355a38.018,38.018,0,0,0,7.927-.4,87.976,87.976,0,0,1-22.782-21.255,79.345,79.345,0,0,1-7.877-13.13A43.753,43.753,0,0,1,387.963,713.1c-5.894-9.444-9-21.506-8.984-34.881a87.19,87.19,0,0,1,1.7-16.866c-.613-16.111,6.026-34.764,18.754-52.637,12.205-17.14,28.143-30.889,43.726-37.724q2.612-1.145,5.153-2.006a82.016,82.016,0,0,1,7.232-7.306,90.315,90.315,0,0,1,10.729-8.186M407.405,730.227a77.607,77.607,0,0,0,6.545,10.512,86.608,86.608,0,0,0,23.994,21.875,37.753,37.753,0,0,0,9.709-3.837,28.681,28.681,0,0,1-5.678-4.883,138.171,138.171,0,0,1-14.029-19.076,69.479,69.479,0,0,1-9.787-1.216,50.061,50.061,0,0,1-10.754-3.375m123.323,20.279a22.688,22.688,0,0,0,12.92,9.046,42.266,42.266,0,0,0,9.926,1.247,82.791,82.791,0,0,0,15.15-14.475,75.375,75.375,0,0,0,6.145-8.827,95.526,95.526,0,0,1-44.141,13.009m47.21-14.387a76.849,76.849,0,0,1-7.67,11.45,84.124,84.124,0,0,1-13.312,13.137,54.649,54.649,0,0,0,16.436-3.772,69.871,69.871,0,0,0,15.027-8.227,69.9,69.9,0,0,0-8.014-10.03q-1.188-1.269-2.466-2.559m-147.623-1.212a136.851,136.851,0,0,0,13.154,17.683,27.542,27.542,0,0,0,6.092,5.047,49.2,49.2,0,0,0,8.71-7.12,67.089,67.089,0,0,0,6.4-7.626q-.9-2.009-1.691-4.094-.822-2.169-1.512-4.4-1.071-.231-2.12-.524a34.119,34.119,0,0,1-5.152-1.9,88.956,88.956,0,0,1-23.883,2.927m44.031.114c9.221,6.344,21.028,10.544,35.313,12.542a111.972,111.972,0,0,0,17.444,1.084,66.457,66.457,0,0,1-6.539-15.924q-.348-1.218-.677-2.473-3.95-.545-7.894-1.375a78.1,78.1,0,0,1-9.72-2.69,102.007,102.007,0,0,1-18.558,7.114,60.6,60.6,0,0,1-9.369,1.723m47.665-4.5q.225.836.459,1.656a61.936,61.936,0,0,0,6.931,16.4,93.384,93.384,0,0,0,46.772-14.212c-2.687-2.618-5.627-5.28-8.76-7.943q-4.317,1.311-8.669,2.271a109.777,109.777,0,0,1-36.733,1.825m57.3,4.163q1.319,1.329,2.544,2.638a73.175,73.175,0,0,1,8.164,10.214q.335-.253.668-.509a96.589,96.589,0,0,0,6.292-20.293q.92-4.582,1.545-9.541a90.16,90.16,0,0,1-19.213,17.491m21.55-20.462q-.71,6.778-1.939,12.9a102.107,102.107,0,0,1-4.981,17.259,84.781,84.781,0,0,0,7.75-7.557,95.531,95.531,0,0,0,22.473-45.393,138.1,138.1,0,0,1-18.6,15.912q-2.188,3.54-4.7,6.876M463.679,734.8q.541,1.662,1.158,3.29.557,1.47,1.171,2.9c1.189-1.739,2.4-3.649,3.611-5.743a40.01,40.01,0,0,1-5.94-.449m-.654-2.118a37.543,37.543,0,0,0,5.719.563,54.724,54.724,0,0,1-4.561-4.306q-.987.348-1.985.681.383,1.544.827,3.062m14.713-9.36c-1.528,3.6-3.1,6.862-4.673,9.807a57.093,57.093,0,0,0,10.149-1.754,96.7,96.7,0,0,0,16.476-6.159,59.072,59.072,0,0,1-12.551-6.743c-2.97,1.652-6.113,3.286-9.4,4.849m-48.65,9.56a84.8,84.8,0,0,0,22.431-2.29,42.024,42.024,0,0,1-13.248-12.4,73.257,73.257,0,0,1-5.584-9.221,111.818,111.818,0,0,1-13.523-3.374q-.476-.15-.954-.307c1.43,8.508,5.17,17.974,10.879,27.592m140.553-7.162c2.764,2.378,5.369,4.752,7.779,7.092a69.832,69.832,0,0,0,4.621-11.887,123.329,123.329,0,0,1-12.4,4.795m-163.65,1.613a46.879,46.879,0,0,0,12.554,4.319,67.2,67.2,0,0,0,8.18,1.1,105.56,105.56,0,0,1-5.22-10.215,70.178,70.178,0,0,1-5.426-17.973,67.262,67.262,0,0,1-17.292-8.961,79.077,79.077,0,0,0,7.2,31.733m60.234.866a53.293,53.293,0,0,0,4.873,4.407c1.322-2.446,2.641-5.116,3.937-8.033-2.845,1.284-5.789,2.5-8.81,3.626m-8.916,2.935a32.723,32.723,0,0,0,3.522,1.081q-.274-.986-.523-1.983-1.491.47-3,.9m127.094-11.3a71.52,71.52,0,0,1-4.231,11.829,88.147,88.147,0,0,0,18.773-18.2c.059-.583.116-1.173.169-1.764q-2.044,1.3-4.222,2.583-5.181,3.042-10.488,5.556m-149.26-10.447a71.266,71.266,0,0,0,4.744,7.655,38.76,38.76,0,0,0,14.5,12.841q2.762-.723,5.466-1.581-.68-3.051-1.129-6.195-.172-.255-.341-.512a57.636,57.636,0,0,1-5.626-11.053,94.667,94.667,0,0,1-17.613-1.154m86.333,19.064a107.841,107.841,0,0,0,36.841-1.7q3.649-.805,7.277-1.862a246.085,246.085,0,0,0-27.655-19.78c-2.168,1.344-4.447,2.79-6.818,4.294-3.79,2.4-7.836,4.97-12.056,7.517.71,4.04,1.5,7.9,2.412,11.53m-16.69-3.525a77.551,77.551,0,0,0,7.616,2q3.477.732,6.961,1.238c-.787-3.228-1.486-6.621-2.119-10.153-4.031,2.4-8.206,4.752-12.458,6.915m-43.46.724q.2,1.021.42,2.034.5-.167,1-.338-.725-.834-1.415-1.7m-.7-4.275a51.19,51.19,0,0,0,4.135,5.255c3.963-1.443,7.791-3.06,11.447-4.775q1.868-4.474,3.634-9.674-.617-.643-1.21-1.307a48.48,48.48,0,0,1-3.229-4.029q-1.388.422-2.788.8a85.763,85.763,0,0,1-12.772,2.4,86.233,86.233,0,0,0,.783,11.33m-79.11-52.589a83.854,83.854,0,0,0-.551,9.423c-.017,13,2.986,24.7,8.683,33.829a42.129,42.129,0,0,0,13.44,13.633,81.729,81.729,0,0,1-6.3-31.629,42.112,42.112,0,0,1-15.268-25.256m158.314,35.162a246.82,246.82,0,0,1,28.035,20.256,121.572,121.572,0,0,0,14.841-5.764,71.827,71.827,0,0,0,1.831-22.754,40.1,40.1,0,0,1-9.527,5.883c-8.875,3.818-16.943,3.956-23.98.411a27.371,27.371,0,0,1-3.758-2.3c-2.267,1.179-4.761,2.631-7.442,4.266M489.056,717.4a58.542,58.542,0,0,0,13.1,6.639c5.033-2.483,9.982-5.271,14.727-8.108-.868-5.121-1.61-10.515-2.285-16.1-3.616,2.929-7.347,5.749-11.119,8.4-4,2.808-8.877,6-14.419,9.172m-7.654-3.649q-1.237,3.6-2.534,6.835c2.252-1.109,4.432-2.251,6.526-3.4a51.223,51.223,0,0,1-3.991-3.433m-26.554-3.285a56.788,56.788,0,0,0,3.344,7.022q-.31-3.565-.334-7.234-1.5.132-3.01.212m131.542-16.37A74.178,74.178,0,0,1,585,717.35q4.484-2.193,8.881-4.775,2.831-1.663,5.432-3.364a225.506,225.506,0,0,0-.085-32.081,62.153,62.153,0,0,1-12.844,16.961M482.1,711.663a49.172,49.172,0,0,0,5.179,4.463c5.809-3.288,10.908-6.615,15.053-9.525,4.2-2.95,8.212-6.008,11.982-9.1q-.3-2.586-.59-5.219-3.3-1.437-6.442-2.611a98.217,98.217,0,0,1-22.717,13.819q-1.186,4.294-2.467,8.172m34.309-13.326c.68,5.726,1.422,11.251,2.293,16.491,3.965-2.4,7.774-4.821,11.353-7.09,2.068-1.311,4.066-2.578,5.985-3.775q-.793-.479-1.587-.949c-4.944-2.93-9.752-5.533-14.374-7.791q-1.809,1.572-3.669,3.114m84.806,12s0,.008,0,.012l.015-.022-.014.01m-123.826-4.116q1.281,1.734,2.715,3.341c.145.162.291.324.438.484q.868-2.7,1.695-5.589-2.406.955-4.848,1.764m-43.378.979a93.7,93.7,0,0,0,18.025,1.385q-5.4-15.593-3.939-36.81-1.476-1.344-2.844-2.822-.84-.908-1.637-1.863c-4.5,2.082-8.471,4.091-11.707,5.9a31.3,31.3,0,0,0-5.349,3.738c.006.218.013.435.021.652a73.4,73.4,0,0,0,7.43,29.818m15.964-33.805q-1.177,20.233,4.135,35.12,1.883-.087,3.753-.255a102.391,102.391,0,0,1,.845-11.592,72.4,72.4,0,0,1,3.016-16.256,47.35,47.35,0,0,1-11.749-7.017m13.622,7.756a72,72,0,0,0-2.91,15.636l-.008.091a100.5,100.5,0,0,0-.831,11.18,83.72,83.72,0,0,0,12.246-2.321q1.066-.286,2.125-.6a54.165,54.165,0,0,1-8.285-23.179q-1.186-.378-2.338-.807m137.363-7.5a236.218,236.218,0,0,1,.439,34.173q1.374-.931,2.674-1.856A90.859,90.859,0,0,0,617.318,657c-.132-7.988-2.489-13.366-7.206-16.442a15.217,15.217,0,0,0-1.6-.909,80.738,80.738,0,0,1-7.545,34.007M417.889,703.1q.924.314,1.871.613a110.59,110.59,0,0,0,11.841,3.04,75.378,75.378,0,0,1-6.95-28.181,25.746,25.746,0,0,0-6.624,13.531,37.636,37.636,0,0,0-.138,11m50.129-20.526a51.856,51.856,0,0,0,8.179,21.951q3.393-1.1,6.714-2.483c1.617-5.973,2.867-11.818,3.791-17.276q-1.1-.063-2.147-.063a62.254,62.254,0,0,1-16.537-2.128m140.434-45.131a17.536,17.536,0,0,1,2.742,1.453c5.237,3.414,7.964,9.494,8.105,18.07a93.014,93.014,0,0,1-11.233,46.061,123.018,123.018,0,0,0,16.755-15.213c2.823-17.163,1.425-35.093-4.16-53.436a112.1,112.1,0,0,0-13.255-5.969,60.611,60.611,0,0,1,1.006,8.229c.015.268.028.537.039.805m-86.76,56.365c4.446,2.2,9.053,4.7,13.775,7.5q1.235.732,2.467,1.483c2.728-1.677,5.28-3.184,7.624-4.438-4.4-3.688-8.145-8.824-11.416-14.964q-1.063.291-2.122.524c-3.2,3.323-6.672,6.647-10.328,9.895m27.6,4.875a24.664,24.664,0,0,0,2.625,1.536c6.58,3.316,13.876,3.164,22.3-.462a38.854,38.854,0,0,0,10.088-6.466,83.472,83.472,0,0,0-3.445-16.213,50.614,50.614,0,0,0-2.416-6.217c-9.08,13.8-19.037,23.789-26.662,26.742q-1.185.459-2.5,1.081m-150.528-5.554A62.468,62.468,0,0,0,415.8,702.36a38.982,38.982,0,0,1,.27-10.6,27.568,27.568,0,0,1,8.487-15.907,82.807,82.807,0,0,1,7.023-34.7,91.885,91.885,0,0,1-1.89-19.217q-3.122-.161-6.19-.1A143.05,143.05,0,0,0,400.9,673.656a98.083,98.083,0,0,0-2.129,19.473m89.917-8.2c-.859,5.107-2,10.545-3.453,16.109A96.423,96.423,0,0,0,505.1,688.88a73.391,73.391,0,0,0-16.415-3.956m47.423-2.12c3.487,6.459,7.258,11.282,11.376,14.554,1.269-.63,2.468-1.171,3.591-1.605,7.179-2.78,17.081-12.806,25.843-26.167q.256-.39.509-.781a40.654,40.654,0,0,0-10.446-12.737,48,48,0,0,1-11.429,15.321A53.794,53.794,0,0,1,536.107,682.8m-20.281,10.412q.155,1.4.313,2.776,1.013-.85,2-1.7-1.167-.551-2.316-1.073m-.25-2.28q2.07.919,4.192,1.935c3.19-2.811,6.165-5.616,8.9-8.364a34.013,34.013,0,0,1-7.644.189,11.493,11.493,0,0,1-5.64-2.191c-.21.2-.42.406-.631.608q.407,3.952.824,7.823m64.138-22.027a52.129,52.129,0,0,1,3.044,7.57,86.1,86.1,0,0,1,3.359,15.156,62.217,62.217,0,0,0,12.175-17.007q.333-.667.654-1.343-.957-11.792-2.926-24.757a92.607,92.607,0,0,0-1.885-9.234,142.79,142.79,0,0,1-14.422,29.615M382.669,661.5q.012.291.028.582a40.9,40.9,0,0,0,9.275,24.474,43.365,43.365,0,0,0,4.834,4.949,101,101,0,0,1,2.15-18.252,144.839,144.839,0,0,1,22.085-51.323,76.268,76.268,0,0,0-10.82,1.3c-8,1.564-15.434,8.286-20.928,18.927a75.056,75.056,0,0,0-6.624,19.343m126.378,26.73q2.181.838,4.437,1.8-.278-2.587-.549-5.21-1.924,1.765-3.888,3.412M489,682.966a77.77,77.77,0,0,1,17.9,4.462q2.776-2.279,5.469-4.8l.3-.286q-.128-1.247-.257-2.5a48.1,48.1,0,0,1-7.208-11.517c-5.089,1.453-9.2,2.058-11.977,1.384-.822-.2-1.712-.441-2.657-.725-.264,4.145-.779,8.878-1.58,13.98m27.81-1.872a9.484,9.484,0,0,0,4.4,1.628,33.573,33.573,0,0,0,9.8-.615q.825-.863,1.615-1.715a123.658,123.658,0,0,1-4.891-11.74,134.45,134.45,0,0,1-10.918,12.442m-49.048-.657a59.808,59.808,0,0,0,16.792,2.281q1.2,0,2.469.08c.837-5.3,1.361-10.192,1.612-14.429a85.469,85.469,0,0,1-15.986-7.339q-1.286,2.01-2.454,4.131c-.985,1.789-1.868,3.569-2.66,5.322a64.805,64.805,0,0,0,.226,9.953m67.253.275.159.316a51.706,51.706,0,0,0,19.04-11.1,45.817,45.817,0,0,0,11.149-15.091,44.749,44.749,0,0,0-9.874-5.376q-.645-.256-1.3-.494-1.568.618-3.133,1.247a64.586,64.586,0,0,1-1.574,8.83c-1.327,5.127-6.594,13.014-14.469,21.672m-20.686-1.706c.3.3.6.593.9.864a133.056,133.056,0,0,0,11.708-13.442q-.924-2.666-1.794-5.435c-4.324,1.782-8.421,3.415-12.194,4.786.455,4.213.885,8.422,1.312,12.6l.064.628m-50.148.241q.757.283,1.529.545-.187-2.134-.234-4.3-.716,1.924-1.295,3.753m64.985-12.476c.778,2.19,1.59,4.334,2.441,6.414q1.212,2.961,2.471,5.612c7.463-8.294,12.288-15.618,13.488-20.252a61.014,61.014,0,0,0,1.4-7.486c-4.281,1.741-8.511,3.517-12.6,5.24q-3.422,5.442-7.2,10.473m-79.023,4.167a45.242,45.242,0,0,0,12.173,7.566,82.84,82.84,0,0,1,3.263-8.512,73.849,73.849,0,0,1,1.793-12.346l-.193-.135c-5.75,2.048-11.26,4.215-16.325,6.37q-.447,3.6-.71,7.057m56.988-3.182a55.237,55.237,0,0,0,4.928,8.537q-.5-4.9-1.027-9.83-2.023.707-3.9,1.292M432.36,644.437a82.463,82.463,0,0,0-5.823,29.736,34.447,34.447,0,0,1,4.408-2.915c3.167-1.771,7.027-3.73,11.4-5.763a58.475,58.475,0,0,1-9.984-21.058m163.373-6.855a94.406,94.406,0,0,1,2.248,10.648q1.681,11.061,2.628,21.292a78.12,78.12,0,0,0,5.905-30.7,29.338,29.338,0,0,0-10.781-1.24m-150.241,28.65q.6.7,1.22,1.372.775.837,1.587,1.63.191-2.195.454-4.45-1.667.726-3.26,1.447m45.2.718c1.08.332,2.09.61,3.014.835,2.37.576,6.068.02,10.658-1.276-2.1-4.583-4.087-9.683-6.112-14.874q-.55-1.408-1.1-2.823c-2.9.632-5.706,1.31-8.372,2a25.034,25.034,0,0,1,1.892,7.906,73.525,73.525,0,0,1,.024,8.227m77.1-12.781a42.275,42.275,0,0,1,10.854,12.72,139.9,139.9,0,0,0,13.9-29.064,112.154,112.154,0,0,0-22.314,5.285,34.082,34.082,0,0,1-2.439,11.059m-94.054,5.217a83.6,83.6,0,0,0,15,6.928,69.959,69.959,0,0,0-.048-7.455,23.126,23.126,0,0,0-1.851-7.529c-3.013.813-6.024,1.692-9.007,2.621q-2.169,2.6-4.1,5.435m25.379-10.992q.495,1.263.985,2.52c2.055,5.266,4.073,10.436,6.18,15.027,1.441-.445,2.955-.95,4.533-1.508-.651-5.943-1.355-11.887-2.174-17.758-3.249.495-6.436,1.078-9.524,1.718m-29.981,10.445q-.675,3.054-1.083,6.12.2-.376.409-.753,1.187-2.157,2.494-4.2-.911-.567-1.82-1.165M433.66,641.375a57.537,57.537,0,0,0,10.534,23.27q2.338-1.062,4.841-2.141,1.181-9.02,3.48-18.918a49.618,49.618,0,0,1-5.073-8.3,43.807,43.807,0,0,1-3.482-10.317,66.564,66.564,0,0,0-9.669,15.048q-.321.677-.63,1.363m93.324,18.858q.679,2.156,1.4,4.273,2.453-3.33,4.759-6.851-3.136,1.32-6.156,2.578M510.6,646.39c.8,5.74,1.492,11.549,2.13,17.354,3.688-1.351,7.676-2.943,11.826-4.653-1.362-4.458-2.632-9.078-3.84-13.77-3.4.235-6.782.6-10.116,1.069m-56.51-.8q-1.875,8.332-2.938,16.018c4.422-1.86,9.16-3.721,14.086-5.5a65.08,65.08,0,0,1-11.148-10.516M469.615,656.8q1.208.812,2.42,1.563,1.154-1.7,2.393-3.324-2.406.784-4.774,1.6l-.039.156m53.109-11.6c1.127,4.372,2.342,8.793,3.668,13.133,2.622-1.089,5.3-2.217,8-3.355l.626-.264q2.734-4.386,5.216-9.01a99.408,99.408,0,0,0-17.511-.5m-68.068-2.065A62.757,62.757,0,0,0,467.473,655.3l.531-.186a78.964,78.964,0,0,1,5.876-15.323q.646-1.272,1.33-2.506l-.008-.007a68.6,68.6,0,0,0-16.354-9.042q-1.034,2.834-1.871,5.861-1.272,4.6-2.32,9.031m22.125-4.588q-.582,1.059-1.135,2.148a77.106,77.106,0,0,0-5.369,13.639q3.172-1.082,6.411-2.1a68.474,68.474,0,0,1,6.687-6.843,40.537,40.537,0,0,0-6.594-6.844m65.546,7.447q-2.005,3.775-4.181,7.4c3.612-1.518,7.323-3.065,11.071-4.583.044-.451.085-.909.123-1.371a66.8,66.8,0,0,0-7.013-1.45m14.6,1.905a46.755,46.755,0,0,1,9.22,5.045,32.209,32.209,0,0,0,2.063-9.156c-3.719,1.261-7.5,2.652-11.283,4.111M445.785,572.032q-.91.367-1.831.771c-15.04,6.6-31.08,20.449-42.907,37.058-10.1,14.178-16.284,28.815-17.962,42.19a71.02,71.02,0,0,1,4.445-10.805c5.778-11.19,13.7-18.28,22.31-19.962a78.839,78.839,0,0,1,12.6-1.386q3.792-5.386,7.933-10.284a73.775,73.775,0,0,1,15.406-37.58m38.735,74.993q-2.177,1.949-4.18,4.09,2.811-.837,5.638-1.606-.654-1.255-1.458-2.485m1.51-1.312a30.89,30.89,0,0,1,1.907,3.274q4.307-1.13,8.473-2.048c-.9-2.276-1.815-4.546-2.756-6.774q-1.434.9-2.813,1.858-2.5,1.741-4.811,3.691m65.4.253q1.39.41,2.726.877c4.734-1.858,9.482-3.628,14.12-5.187a33.337,33.337,0,0,0-4.456-16.248c-3.858.287-8.062.643-12.677,1.064-.139.37-.279.735-.42,1.1a92.675,92.675,0,0,1,.707,18.39m-56.059-6.838c1.029,2.429,2.026,4.906,3.006,7.388q5.111-1.074,9.982-1.82-.795-5.507-1.747-10.9a73.274,73.274,0,0,0-11.241,5.328m47.931,5q3.206.524,6.179,1.3a90.593,90.593,0,0,0-.293-14q-2.688,6.5-5.886,12.708m-34.8-11.015c.667,3.717,1.268,7.489,1.817,11.292q5.093-.717,9.893-1.064c-.943-3.731-1.851-7.5-2.738-11.274q-.169-.72-.317-1.448a85.683,85.683,0,0,0-8.655,2.495m-30.729,3.677a42.9,42.9,0,0,1,7.106,7.3q2.325-1.949,4.828-3.694,1.545-1.077,3.158-2.075a102.175,102.175,0,0,0-6.641-13.087,68.236,68.236,0,0,0-8.451,11.559m51.015,6.231a92.544,92.544,0,0,1,12.441.8,165.88,165.88,0,0,0,7.458-16.482c-.031-.211-.062-.42-.095-.631-5.585.521-11.751,1.128-18.6,1.811a102.063,102.063,0,0,0-10.9,1.672q.144.716.311,1.424c.881,3.744,1.813,7.643,2.814,11.6q.437-.025.871-.047,2.909-.144,5.7-.144m-82.952-18.814a41.685,41.685,0,0,0,3.392,10.214,47.251,47.251,0,0,0,3.89,6.627q.9-3.679,1.947-7.476.862-3.12,1.93-6.044a90.593,90.593,0,0,0-11.16-3.321m120.157,1.043A35.3,35.3,0,0,1,570.247,641c2.421-.788,4.808-1.513,7.14-2.158a90.791,90.791,0,0,1,15.761-3.079,89.465,89.465,0,0,0-4.126-11,181.193,181.193,0,0,0-23.029.483m-134.316-3.187a92.271,92.271,0,0,0,1.332,16.042,67.569,67.569,0,0,1,9.588-14.583,93.907,93.907,0,0,0-10.92-1.46m55.953,1.678a101.092,101.092,0,0,1,6.951,13.549,75.465,75.465,0,0,1,11.669-5.474q-1-5.357-2.2-10.532-.988-4.207-2.1-8.088a52.072,52.072,0,0,0-14.32,10.544m110.021,11.81a30.17,30.17,0,0,1,8.78,1.159,58.126,58.126,0,0,0-1.2-9.043,59.471,59.471,0,0,0-7.333-1.849c-.675,3.216-1.531,6.487-2.556,9.792q1.185-.059,2.309-.059m-138.089-9.191a70.63,70.63,0,0,1,16.64,9.192,69.9,69.9,0,0,1,8.912-12.04c-5.26-7.827-10.981-11.655-17.451-11.666a61.113,61.113,0,0,0-8.1,14.513m131.7-1.428q1.632,3.728,2.927,7.588,1.013-3.553,1.747-7.033c-1.5-.23-3.049-.414-4.675-.555m15.651,1.212a101.384,101.384,0,0,1,12.91,5.587q-.738-2.267-1.561-4.539c-13.543-37.427-32.228-63.473-55.536-77.413a80.279,80.279,0,0,0-58.113-9.729A110.107,110.107,0,0,0,473.582,551.4a102.572,102.572,0,0,1,23.129,3.465,79.454,79.454,0,0,1,28.678-2.75c12.582,1.256,22.3,5.889,28.091,13.13,11-2.6,22.246.812,32.5,10.062,9.192,8.292,13.842,20.093,13.737,34.581q.442.617.865,1.254a46.559,46.559,0,0,1,6.337,15M503.771,612.354q1.173,4.066,2.209,8.479,1.188,5.063,2.162,10.31a87.973,87.973,0,0,1,8.663-2.476,56.561,56.561,0,0,1,.766-20.96,72.545,72.545,0,0,0-13.8,4.646m15.93-5.081a54.868,54.868,0,0,0-.958,20.966,103.868,103.868,0,0,1,11.055-1.693c6.819-.681,12.939-1.281,18.471-1.794a80.624,80.624,0,0,0-2.249-9.418,69.587,69.587,0,0,0-2.4-6.67,46.3,46.3,0,0,0-23.915-1.391m-73.263,15.021a91.912,91.912,0,0,1,11.273,3.357,63.733,63.733,0,0,1,7.349-13.62c-6.412.851-12.863,4.484-18.622,10.263m151.848,1.584a61.107,61.107,0,0,1,6.413,1.557,44.644,44.644,0,0,0-5.092-12.136,81.811,81.811,0,0,1-1.25,10.2q-.035.19-.071.38m-43.318-8.888c-.9,3.109-1.926,6.262-3.07,9.43,3.88-.349,7.458-.651,10.769-.9a37.116,37.116,0,0,0-7.7-8.529m-8.812-5.333c.676,1.743,1.259,3.452,1.761,5.1a82.03,82.03,0,0,1,2.161,8.868c1.2-3.341,2.272-6.661,3.2-9.926q-.844-.609-1.727-1.174a37.979,37.979,0,0,0-5.4-2.868m44.181,13.219c1.318.1,2.586.219,3.819.369q1.107.134,2.176.3c.026-.136.051-.271.076-.407a77.016,77.016,0,0,0,1.308-12.627,37.846,37.846,0,0,0-19.822-13.629c-2.313-.707-4.836-1.439-7.533-2.164a99.615,99.615,0,0,1,19.977,28.158m-34.786-9.954a39.079,39.079,0,0,1,9.354,10.431,197.1,197.1,0,0,1,23.169-.614,99.282,99.282,0,0,0-21.588-29.026c-2.262-.565-4.624-1.117-7.066-1.641a116.95,116.95,0,0,1-3.869,20.85m-86.357-2.995c6.438.54,12.131,4.531,17.324,12.121a53.761,53.761,0,0,1,14.868-10.779,111.916,111.916,0,0,0-7.183-18.382,63.462,63.462,0,0,0-9.291,4.149,54.29,54.29,0,0,0-15.718,12.892m-37.5,10.157a96.2,96.2,0,0,1,11.728,1.565c-1.026-8.426.421-17.324,4.337-26.606a128.716,128.716,0,0,0-15.48,15.391q-.139,1.26-.238,2.533-.284,3.632-.347,7.117M451.187,592.3q-.258.526-.509,1.063c-4.455,9.551-6.245,18.676-5.366,27.275,6.481-6.4,13.819-10.247,21.077-10.729l.277-.016A56.2,56.2,0,0,1,483.957,595.3a65.208,65.208,0,0,1,9.32-4.183,63.4,63.4,0,0,0-10.324-14.378q-.164-.168-.329-.333a76.345,76.345,0,0,0-20.377,8.432,103.184,103.184,0,0,0-11.06,7.461M425.21,619.854q2.246,0,4.5.112.063-3.351.326-6.837-2.637,3.255-5.132,6.725h.3M545.1,607.092a40.076,40.076,0,0,1,7.519,3.763q.62.4,1.221.814a113.206,113.206,0,0,0,3.635-20,174.012,174.012,0,0,0-25.071-3.345,59.217,59.217,0,0,1,12.7,18.771m-49-14.848a113.988,113.988,0,0,1,7.107,18.193,73.656,73.656,0,0,1,14.874-4.866,66.569,66.569,0,0,1,3.164-9.38,65.264,65.264,0,0,1,4.086-8.076h-.3a94.237,94.237,0,0,0-28.93,4.13m71.373-.327c4.02,1.013,7.72,2.065,11,3.069a40.092,40.092,0,0,1,19.215,12.31c-.369-10.707-3.589-22-13.035-30.515s-19.771-11.832-29.876-9.771a27.006,27.006,0,0,1,3.861,8.8,42.581,42.581,0,0,1,1.046,9.4q2.837,2.249,5.6,4.709,1.11.99,2.185,2M449.455,570.689a71.768,71.768,0,0,0-16.7,36.182,127.01,127.01,0,0,1,16.859-15.864,64.435,64.435,0,0,1,18.6-22.151,29.847,29.847,0,0,0-2.967-.374,40.808,40.808,0,0,0-15.792,2.207m80.015,33.669a45.085,45.085,0,0,1,13.062,1.864,56.077,56.077,0,0,0-13.177-18.037c-.575-.019-1.147-.034-1.723-.046a63.185,63.185,0,0,0-4.563,8.82,64.752,64.752,0,0,0-2.834,8.2,55.056,55.056,0,0,1,9.235-.8m30.093-14.281q1.982.422,3.888.865-1.874-1.652-3.787-3.205-.031,1.15-.1,2.34M484.9,575.9a66.165,66.165,0,0,1,10.275,14.561c9.952-3.27,20.724-4.439,31.373-4.314l.134-.206a54.514,54.514,0,0,0-17.1-8.954A48.615,48.615,0,0,0,484.9,575.9m45.262,10.339a172.71,172.71,0,0,1,27.45,3.433q.1-1.794.1-3.487a144.474,144.474,0,0,0-17.944-11.908,52.9,52.9,0,0,0-10.428,11.26q.415.348.818.7m-59.394-16.8a63.833,63.833,0,0,0-17.343,18.74q3.858-2.742,7.825-5.052a79.4,79.4,0,0,1,19.627-8.324,26.444,26.444,0,0,0-10.109-5.364m24.711,3.4a47.843,47.843,0,0,1,14.715,2.268,56.57,56.57,0,0,1,17.607,9.188,55.379,55.379,0,0,1,10.1-11.049,172.956,172.956,0,0,0-22.38-10.2c-7.091-2.644-13.336-4.629-18.9-6.093a84.945,84.945,0,0,0-13.687,5.205,80.04,80.04,0,0,0-10.119,5.834,28.609,28.609,0,0,1,10.4,6.241,56.229,56.229,0,0,1,12.257-1.4m46.019.146a147.029,147.029,0,0,1,16.17,10.667,38.391,38.391,0,0,0-.957-7.367,24.909,24.909,0,0,0-4.014-8.767,34.578,34.578,0,0,0-8.334,3.6q-1.453.859-2.865,1.868m-40.93-17.053c5.348,1.545,10.564,3.363,15.648,5.259A174.638,174.638,0,0,1,539.6,571.912a42.164,42.164,0,0,1,3.754-2.507,37.288,37.288,0,0,1,8.013-3.583c-5.525-6.442-14.561-10.572-26.174-11.731a76.018,76.018,0,0,0-24.625,1.835m-30.281-2.618a90.027,90.027,0,0,0-13.423,9.847q-2.555,2.281-4.866,4.719a40.66,40.66,0,0,1,13.4-1.368,31.285,31.285,0,0,1,4.953.772,81.018,81.018,0,0,1,11.724-6.907,86.363,86.363,0,0,1,10.816-4.351,90.844,90.844,0,0,0-22.605-2.712" transform="translate(-255.498 -368.898)" fill="#2b478b"/>
          <path id="Path_612717" data-name="Path 612717" d="M640.982,247.969c5.093-19.794,13.7-37.007,37.007-37.007,20.438,0,38.976,18,37.629,40.192-1.239,20.4-18.954,37.682-40.641,35.253-20.311-2.275-39.826-15.774-33.995-38.438" transform="translate(-433.436 -73.082)" fill="#e6d09d"/>
          <g id="Group_1074332" data-name="Group 1074332" transform="translate(229.047 152.281)" opacity="0.8">
            <g id="Group_1074331" data-name="Group 1074331" transform="translate(0 0)">
              <g id="Group_1074330" data-name="Group 1074330" clip-path="url(#clip-path-3)">
                <path id="Path_612718" data-name="Path 612718" d="M728.483,297.018a26.735,26.735,0,0,1,.291-4.223,12.7,12.7,0,0,1,2.684-6.1,30.984,30.984,0,0,1,2.6-2.838q1.162-1.129,2.171-2.138a17.364,17.364,0,0,0,1.778-2.069,9.394,9.394,0,0,0,1.214-2.257,7.613,7.613,0,0,0,.444-2.668,6.911,6.911,0,0,0-1.589-4.907,6.1,6.1,0,0,0-4.668-1.693,8.467,8.467,0,0,0-2.394.342,5.911,5.911,0,0,0-2.086,1.095,5.564,5.564,0,0,0-1.487,1.915,6.37,6.37,0,0,0-.564,2.8h-8.311a13.54,13.54,0,0,1,1.18-5.66,11.7,11.7,0,0,1,3.146-4.1,13.6,13.6,0,0,1,4.685-2.5,21.237,21.237,0,0,1,11.987.051,12.543,12.543,0,0,1,4.582,2.6A11.057,11.057,0,0,1,747,268.838a15.047,15.047,0,0,1,.974,5.575,12.07,12.07,0,0,1-.718,4.207,15.991,15.991,0,0,1-1.915,3.659,26.149,26.149,0,0,1-2.736,3.284q-1.539,1.573-3.18,3.112a8.489,8.489,0,0,0-2.514,3.745,16.183,16.183,0,0,0-.667,4.6Zm-.581,10.636a5.029,5.029,0,0,1,.308-1.779,4.038,4.038,0,0,1,2.377-2.394,6.021,6.021,0,0,1,4,0,4.112,4.112,0,0,1,1.47.957,4.328,4.328,0,0,1,.924,1.436,4.8,4.8,0,0,1,.325,1.779,4.331,4.331,0,0,1-1.231,3.146,4.643,4.643,0,0,1-3.488,1.265,4.585,4.585,0,0,1-3.471-1.265,4.366,4.366,0,0,1-1.214-3.146" transform="translate(-718.565 -261.179)" fill="#fff"/>
              </g>
            </g>
          </g>
          <path id="Path_612725" data-name="Path 612725" d="M1813.958,727.277c-35.38,0-70.431-15.6-93.765-41.734-19.981-22.378-29.233-50.128-26.053-78.14l.474.054-.474-.054c4.349-38.311,17.3-68,38.484-88.235,20.1-19.2,47.452-29.8,81.309-31.53,39.608-2.019,70.088,9.263,90.587,33.535,8.967,10.618,16.021,23.78,20.965,39.12a189.957,189.957,0,0,1,8.291,47.137c1.056,18.286-.563,34.907-4.813,49.4-4.339,14.8-11.463,27.514-21.174,37.8-20.448,21.663-52.017,32.647-93.832,32.647m8.841-238.915q-4.331,0-8.817.229c-33.622,1.715-60.772,12.234-80.7,31.267-21.02,20.079-33.871,49.57-38.195,87.653-3.149,27.737,6.019,55.224,25.816,77.4,23.155,25.932,57.941,41.415,93.052,41.415,41.541,0,72.877-10.883,93.137-32.348,9.607-10.178,16.656-22.766,20.952-37.416,4.219-14.387,5.826-30.9,4.776-49.075a189.043,189.043,0,0,0-8.246-46.9c-4.906-15.221-11.9-28.274-20.786-38.8-18.75-22.2-45.971-33.426-80.992-33.426" transform="translate(-1164.824 -335.244)" fill="#2b478b"/>
          <path id="Path_612726" data-name="Path 612726" d="M1812.5,726.481c-35.564,0-70.8-15.684-94.257-41.955-19.952-22.345-29.273-50.02-26.289-78h0l.149-1.313h0c4.441-38.153,17.428-67.75,38.609-87.982,20.213-19.308,47.712-29.977,81.732-31.712,39.828-2.031,70.487,9.331,91.126,33.769,9.023,10.683,16.118,23.921,21.089,39.343a190.606,190.606,0,0,1,8.322,47.3c1.06,18.363-.568,35.058-4.839,49.623-4.369,14.9-11.545,27.705-21.328,38.07-20.577,21.8-52.308,32.854-94.312,32.854m8.841-238.915c-2.861,0-5.816.077-8.783.228-33.459,1.706-60.467,12.164-80.275,31.085-20.905,19.97-33.689,49.325-37.994,87.25-3.128,27.549,5.982,54.852,25.652,76.882,23.032,25.795,57.634,41.194,92.56,41.194,41.352,0,72.526-10.814,92.657-32.14,9.534-10.1,16.532-22.6,20.8-37.148,4.2-14.314,5.8-30.75,4.751-48.851a188.35,188.35,0,0,0-8.215-46.735c-4.88-15.139-11.831-28.117-20.662-38.573-18.6-22.024-45.68-33.192-80.487-33.192" transform="translate(-1163.368 -333.788)" fill="#2b478b"/>
          <path id="Path_612727" data-name="Path 612727" d="M1792.1,733.054c-19.869,0-41.735-5.643-65.382-16.906-31.941-15.214-56.877-44.372-66.705-78-8.416-28.795-4.836-57.827,10.081-81.75,20.4-32.717,44.857-53.951,72.687-63.111,26.4-8.688,55.656-6.5,86.966,6.5,36.63,15.209,59.294,38.5,67.363,69.23,3.53,13.442,4.238,28.358,2.105,44.333a189.959,189.959,0,0,1-12.785,46.122c-6.91,16.964-15.519,31.272-25.588,42.528-10.279,11.492-22.18,19.911-35.372,25.023a91.611,91.611,0,0,1-33.37,6.031m-121.6-176.4.4.253c-14.771,23.688-18.313,52.446-9.974,80.976,9.752,33.37,34.5,62.307,66.2,77.405,37.5,17.863,70.475,21.513,98,10.847,13.05-5.057,24.827-13.391,35.005-24.769,10-11.174,18.547-25.389,25.415-42.252a189.026,189.026,0,0,0,12.723-45.888c2.116-15.851,1.415-30.643-2.083-43.964-7.99-30.425-30.466-53.5-66.806-68.592-31.092-12.911-60.128-15.089-86.3-6.473-27.612,9.088-51.9,30.187-72.176,62.71Z" transform="translate(-1138.708 -335.705)" fill="#2b478b"/>
          <path id="Path_612728" data-name="Path 612728" d="M1790.644,732.257c-19.932,0-42.025-5.71-65.667-16.97-32.108-15.294-57.175-44.606-67.056-78.41-8.47-28.978-4.863-58.2,10.155-82.285,20.486-32.852,45.06-54.18,73.041-63.39,26.552-8.739,55.966-6.547,87.425,6.516,36.831,15.293,59.625,38.734,67.749,69.673,3.552,13.526,4.266,28.527,2.121,44.589a190.6,190.6,0,0,1-12.828,46.283c-6.938,17.033-15.587,31.406-25.707,42.719-10.35,11.57-22.336,20.048-35.626,25.2a92.619,92.619,0,0,1-33.609,6.076M1670.008,555.8c-14.67,23.526-18.186,52.094-9.9,80.441,9.7,33.192,34.317,61.975,65.849,76.994,37.334,17.782,70.129,21.426,97.474,10.827,12.952-5.019,24.644-13.294,34.752-24.594,9.945-11.117,18.456-25.268,25.3-42.06a188.384,188.384,0,0,0,12.68-45.726c2.1-15.765,1.409-30.471-2.067-43.709-7.934-30.215-30.281-53.144-66.42-68.149-30.942-12.848-59.823-15.02-85.841-6.456-27.461,9.039-51.626,30.044-71.822,62.432" transform="translate(-1137.251 -334.248)" fill="#2b478b"/>
          <path id="Path_612729" data-name="Path 612729" d="M1827.649,730.784c-28.831,0-58.446-13.855-88.137-41.257-26.914-24.84-42.626-61.319-42.029-97.582.511-31.052,12.957-58.66,35.044-77.737l.323.374-.323-.374c30.208-26.092,60.9-39.585,91.228-40.105,28.753-.495,57.023,10.643,83.993,33.1,31.552,26.274,46.816,56.257,45.369,89.114-.633,14.373-4.508,29.338-11.517,44.48-6.381,13.785-15.394,27.808-26.788,41.681-12.036,14.653-24.936,26.159-38.345,34.2-13.689,8.209-28.038,12.883-42.649,13.891q-3.076.212-6.168.213m-2.064-255.708c-.605,0-1.207.006-1.813.016-30.089.516-60.571,13.929-90.6,39.865-21.871,18.891-34.195,46.238-34.7,77.005-.593,35.986,15,72.188,41.711,96.84,31.6,29.166,63.08,42.89,93.566,40.784,14.454-1,28.656-5.624,42.209-13.753,13.311-7.982,26.126-19.414,38.089-33.98,11.341-13.808,20.31-27.76,26.655-41.469,6.955-15.024,10.8-29.864,11.427-44.108,1.433-32.533-13.712-62.245-45.014-88.311-26.213-21.829-53.636-32.889-81.53-32.889" transform="translate(-1167.534 -326.083)" fill="#2b478b"/>
          <path id="Path_612730" data-name="Path 612730" d="M1826.193,729.989h0c-28.991,0-58.8-13.938-88.585-41.432-27.05-24.965-42.842-61.63-42.242-98.078.51-31.009,12.854-58.608,34.774-77.793v0l1-.864h0c30.167-25.913,60.829-39.314,91.148-39.834,28.918-.5,57.331,10.691,84.427,33.254,31.719,26.414,47.063,56.577,45.606,89.651-.636,14.46-4.532,29.509-11.577,44.728-6.4,13.836-15.447,27.907-26.878,41.823-12.084,14.711-25.042,26.268-38.516,34.347-13.779,8.263-28.228,12.968-42.944,13.984-2.056.142-4.147.214-6.214.214m-2.064-255.708c-.6,0-1.2.005-1.8.015-29.93.514-60.271,13.872-90.178,39.7-21.727,18.766-33.969,45.94-34.473,76.516-.589,35.8,14.924,71.817,41.5,96.343,29.373,27.109,58.617,40.819,87.02,40.819q3.034,0,6.052-.208c14.35-.991,28.452-5.587,41.915-13.66,13.246-7.944,26-19.326,37.918-33.833,11.306-13.765,20.244-27.669,26.566-41.327,6.918-14.945,10.742-29.7,11.366-43.86,1.423-32.316-13.642-61.848-44.777-87.775-26.084-21.721-53.373-32.735-81.108-32.735" transform="translate(-1166.078 -324.626)" fill="#2b478b"/>
          <path id="Path_612731" data-name="Path 612731" d="M1754.873,732.657a91.98,91.98,0,0,1-32.2-5.635c-28.91-10.734-52.137-36.384-69.035-76.237-14.3-33.72-13.593-73.432,1.884-106.232,13.253-28.086,35.963-48.12,63.946-56.409,38.273-11.337,71.8-10.993,99.649,1.021,26.416,11.4,47.582,33.181,62.91,64.753,17.932,36.935,19.5,70.544,4.646,99.89-6.5,12.837-16.19,24.879-28.812,35.791-11.492,9.934-25.48,19-41.576,26.951-17,8.4-33.5,13.57-49.026,15.376a107.271,107.271,0,0,1-12.386.731m-35.265-244.039.141.474c-27.709,8.208-50.2,28.054-63.333,55.883-15.358,32.549-16.057,71.96-1.867,105.424,16.787,39.593,39.824,65.061,68.469,75.7,13.583,5.043,28.428,6.674,44.128,4.849,15.417-1.793,31.8-6.933,48.7-15.28,16.021-7.912,29.939-16.933,41.367-26.813,12.525-10.827,22.139-22.767,28.576-35.489,14.7-29.057,13.138-62.369-4.653-99.013-15.221-31.352-36.22-52.978-62.412-64.277-27.632-11.92-60.932-12.251-98.977-.981Z" transform="translate(-1130.342 -330.074)" fill="#2b478b"/>
          <path id="Path_612732" data-name="Path 612732" d="M1753.419,731.862a92.841,92.841,0,0,1-32.43-5.676c-29.088-10.8-52.442-36.572-69.414-76.6-14.37-33.89-13.661-73.8,1.9-106.771,13.335-28.259,36.19-48.418,64.356-56.761,38.426-11.381,72.1-11.028,100.1,1.048,26.565,11.46,47.843,33.353,63.243,65.071,18.028,37.131,19.589,70.937,4.641,100.478-6.535,12.914-16.282,25.024-28.969,35.992-11.536,9.971-25.571,19.07-41.716,27.043-17.069,8.43-33.637,13.625-49.243,15.44a108.29,108.29,0,0,1-12.462.735M1718.482,488.27c-27.527,8.154-49.873,27.875-62.923,55.531-15.28,32.382-15.974,71.59-1.857,104.884,16.714,39.419,39.623,64.765,68.091,75.335,13.483,5.007,28.227,6.625,43.822,4.812,15.341-1.784,31.654-6.9,48.486-15.216,15.971-7.887,29.842-16.877,41.228-26.72,12.46-10.771,22.021-22.643,28.419-35.288,14.6-28.862,13.037-61.977-4.659-98.425-15.15-31.205-36.037-52.725-62.079-63.959-27.488-11.858-60.637-12.179-98.527-.954" transform="translate(-1128.888 -328.618)" fill="#2b478b"/>
          <path id="Path_612733" data-name="Path 612733" d="M1836.494,727.277c-35.379,0-65.323-18.573-88.656-44.706-19.981-22.378-34.341-47.156-31.161-75.168,4.35-38.311,17.3-68,38.484-88.235,20.1-19.2,47.451-29.8,81.309-31.53,39.611-2.019,70.088,9.263,90.587,33.535,8.967,10.618,16.021,23.78,20.965,39.12a189.99,189.99,0,0,1,8.291,47.137c1.056,18.286-.563,34.907-4.813,49.4-4.339,14.8-11.463,27.514-21.174,37.8-20.448,21.663-52.017,32.647-93.832,32.647m-119.343-119.82.475.054c-3.149,27.737,12.006,52.5,31.8,74.667,23.155,25.933,51.954,44.144,87.065,44.144,41.541,0,72.877-10.883,93.137-32.348,9.607-10.178,16.656-22.766,20.953-37.416,4.219-14.387,5.826-30.9,4.776-49.075a189.026,189.026,0,0,0-8.246-46.9c-4.906-15.221-11.9-28.274-20.786-38.8-20.3-24.032-50.512-35.2-89.809-33.2-33.622,1.715-60.773,12.234-80.7,31.267-21.021,20.079-33.871,49.57-38.195,87.653Z" transform="translate(-1180.443 -335.244)" fill="#2b478b"/>
          <path id="Path_612734" data-name="Path 612734" d="M1835.022,726.482a103.581,103.581,0,0,1-49.156-12.631c-14.139-7.544-27.594-18.41-39.993-32.3-11.184-12.526-19.157-24.183-24.374-35.637-6.193-13.6-8.466-26.7-6.951-40.045,4.367-38.469,17.383-68.291,38.684-88.639,20.213-19.308,47.712-29.977,81.732-31.712,39.831-2.027,70.488,9.331,91.126,33.769,9.022,10.683,16.118,23.921,21.089,39.343a190.64,190.64,0,0,1,8.322,47.3c1.06,18.362-.568,35.058-4.839,49.623-4.369,14.9-11.545,27.705-21.328,38.069-20.577,21.8-52.308,32.855-94.312,32.855M1716.81,606.129c-2.661,23.435,7.393,47,31.64,74.152,26.024,29.146,55.151,43.923,86.572,43.923,41.352,0,72.526-10.813,92.657-32.14,9.535-10.1,16.532-22.6,20.8-37.148,4.2-14.314,5.8-30.75,4.75-48.851a188.37,188.37,0,0,0-8.215-46.735c-4.88-15.139-11.832-28.117-20.662-38.572-20.156-23.866-50.187-34.958-89.271-32.964-33.459,1.706-60.467,12.164-80.275,31.085-20.905,19.969-33.689,49.324-37.995,87.25m6.52,40.594c5.166,10.9,12.875,22.02,23.528,33.951a168.737,168.737,0,0,0,14.031,14.016,174.461,174.461,0,0,1-13.426-13.528c-10.777-12.07-18.779-23.45-24.133-34.439" transform="translate(-1178.971 -333.788)" fill="#2b478b"/>
          <path id="Path_612735" data-name="Path 612735" d="M1925.831,986.4c-.058.1-.119.211-.18.319-1.436,2.495-4.729,8.609-8.356,15.3-1.715,3.174-3.512,6.479-5.216,9.588-2.936,5.366-5.608,10.145-7.166,12.67-1.585,2.568-2.752,4.372-3.224,5.094l0,0a1.2,1.2,0,0,0-.154.745,38.935,38.935,0,0,1-.1,6.729,51.617,51.617,0,0,1-16.865,33.432l-4.364.645s6.176-22.88,8-35.816a24.866,24.866,0,0,0,.334-5.128c-.323-3.37.276-8.318,1.408-14a313.679,313.679,0,0,1,8.924-32.4c.2-.633,6.341-22.834,6.341-22.834,5.151,4.5,23.94,6.36,23.94,6.36s3.185,7.746-3.309,19.3" transform="translate(-1293.218 -660.808)" fill="#f99746"/>
          <path id="Path_612736" data-name="Path 612736" d="M1850.858,1309.022h18.214a10,10,0,0,0-.515-4.882c-.912-2.021-2.211-2.085-.166-5.253-1.157,1.192-4.878,1.685-7.511,1.33-.323.523-2.08,4.033-3.158,4.807-1.19.855-6.5.55-6.865,4" transform="translate(-1273.038 -893.388)" fill="#2358a5"/>
          <path id="Path_612737" data-name="Path 612737" d="M1997.715,1019.257c-.058.1-.119.211-.18.319-1.436,2.495-9.2,16.835-12.826,23.525,4.2-17.292,1.28-34.583,1.28-34.583Z" transform="translate(-1365.102 -693.669)" fill="#ed7d2b"/>
          <path id="Path_612738" data-name="Path 612738" d="M1801.153,752.007s-.721-7.859,8.06-7.859a10.313,10.313,0,0,0-4.037,2.165s5.6-3.288,11.7,1.764,2.307,17.724,4.161,20.129,9.071,2.887,8.189,10.666-22.907,17.522-21.493,23.958c0,0-8.631-12.688-2.459-18.479,0,0-3.009,2.834-3.315,6.2,0,0-.816-6.576,3.368-8.68,3.7-1.862,6.737-8.669,6.416-9.885s-10.586-19.983-10.586-19.983" transform="translate(-1238.841 -511.833)" fill="#202d4f"/>
          <path id="Path_612739" data-name="Path 612739" d="M1766.541,875.033s-12.493,31.526-15.186,30.358-18.559-6.207-18.559-6.207a34.9,34.9,0,0,0,.823,4.7c2.323,1.841,14,10.85,21,11.309,7.769.509,18.293-22.382,18.293-22.382Z" transform="translate(-1191.834 -601.857)" fill="#ffb27d"/>
          <path id="Path_612740" data-name="Path 612740" d="M1787.123,765.5c-.119-.479,10.4,4.755,10.936,5.347,4.935,5.474,3.528,12.617.7,12.686-1.811.044-1.46,3.055-1.46,3.055l-20.175-8.535s2.43-14.165,9.994-12.553" transform="translate(-1222.327 -526.432)" fill="#202d4f"/>
          <path id="Path_612741" data-name="Path 612741" d="M1824.94,877.136s-2.687,2.783-2.687,11.11c0,0,3.7,5.844,13.3,7.323,0,0-8.255-18.438-10.616-18.433" transform="translate(-1253.364 -603.303)" fill="#1c468a"/>
          <path id="Path_612742" data-name="Path 612742" d="M1980.751,960.083l-.062-3.407c6.787.856,23.4-8.111,23.4-8.111s7.1,4.723,8.073,18.21c.474,6.583,3.476,34.424,3.808,42.737.121,3.013.161,5.163.175,6.022a.013.013,0,0,0,0,.008,1.182,1.182,0,0,0,.289.7,38.93,38.93,0,0,1,3.677,5.638c10.357,19.27,4.941,45.453,4.941,45.453l-2.405-.612s-8.757-27.143-14.481-38.884a24.573,24.573,0,0,0-2.592-4.437c-2.152-2.614-4.422-7.053-6.658-12.394-4.228-10.1-18.167-50.925-18.167-50.925" transform="translate(-1362.338 -652.434)" fill="#f99746"/>
          <path id="Path_612743" data-name="Path 612743" d="M2076.4,1308.732h18.214a10,10,0,0,0-.515-4.882c-.912-2.021-2.34-2.94-2-5.385a6.557,6.557,0,0,1-5.677,2.172,19.982,19.982,0,0,1-3.16,4.1c-1.19.855-6.5.55-6.864,4" transform="translate(-1428.17 -893.098)" fill="#2358a5"/>
          <path id="Path_612744" data-name="Path 612744" d="M1842.7,875.087c2.447.417-.4,2.362,2.966,2.728,4.789.523,9.734.881,12.325,1.914a2.782,2.782,0,0,1,1.774,1.437c1.123,3.376,6.071,8.586,6.071,8.586,31.716-1.444,35.2-14.709,35.2-14.709-20.585-19.992-39.51-31.781-53.962-33.341-2.473-.268-5.6,1.3-7.828,2.294-5.062,2.254-8.388,8.748-8.388,8.748s2.549,20.759,11.845,22.345" transform="translate(-1259.283 -578.91)" fill="#1c468a"/>
          <path id="Path_612745" data-name="Path 612745" d="M1878.3,900.6c4.789.523,9.734.88,12.325,1.914a50.505,50.505,0,0,0-6.406-27.716s-4.87,19.816-5.918,25.8" transform="translate(-1291.914 -601.696)" fill="#163560"/>
          <path id="Path_612746" data-name="Path 612746" d="M1846.182,866.189s12.044-.658,14.184,6.9-4.015,37.745-5.342,40.86c-2.415,5.671-14.172,21.858-14.172,21.858l-3.242-1.666s6.758-24.38,8.508-26.827c2.747-3.841-3.542-37.84.063-41.13" transform="translate(-1263.927 -595.764)" fill="#ffb27d"/>
          <path id="Path_612747" data-name="Path 612747" d="M1829.9,1076.652a14.918,14.918,0,0,1-2.97,5.518c-.9.9-1.711,3.626-1.752,5.028,0,0-.147,1.16.358,1.046s1.071-2.63,1.971-2.505a17.459,17.459,0,0,1-.957,3.6c-.477.791-.76,3.239-.082,3.537,1.642.723,4.07-2.374,5.515-4.316s.023-9.826.023-9.826Z" transform="translate(-1255.364 -740.532)" fill="#ffb27d"/>
          <path id="Path_612748" data-name="Path 612748" d="M1872.884,878.284c-.032.177-11.4,2.091-18.507-1.517,0,0-5.939-18.606,2.548-17.716s13.513,3.563,13.727,7.627,2.232,11.606,2.232,11.606" transform="translate(-1274.069 -590.844)" fill="#1c468a"/>
          <path id="Path_612749" data-name="Path 612749" d="M1828.947,835.189s-3.349,12.494-8.388,8.748c.142-.6-.737-2.357-1.773-4.138-1.324-2.276-2.9-4.6-2.9-4.6l6.817-5.972.407-.357a18,18,0,0,0,5.84,6.321" transform="translate(-1248.982 -570.104)" fill="#ffb27d"/>
          <path id="Path_612750" data-name="Path 612750" d="M1815.885,835.985s1.576,2.321,2.9,4.6c4.237-2.612,4.242-7.857,3.915-10.575Z" transform="translate(-1248.984 -570.89)" fill="#ed985f"/>
          <path id="Path_612751" data-name="Path 612751" d="M1790.8,812.14s10.288-5.725,6.624-12.076-4.8-11.369-11.526-7.982-6.59,6.54-5.884,8.957,8.015,12.427,10.786,11.1" transform="translate(-1224.09 -544.052)" fill="#ffb27d"/>
          <path id="Path_612752" data-name="Path 612752" d="M1775.016,795.439c.471-2.82,1.9-3.09,2.9-2.9a8.228,8.228,0,0,1,10.006-3.831,14.006,14.006,0,0,0,8.109,4.87s-1.195,2.221-6.113,3.6a8.4,8.4,0,0,1-4.852-.388,27.466,27.466,0,0,0,6.982,2.632c-6.482.593-12.65-5.333-13.289-5.967a9.228,9.228,0,0,0-.51,4.247c.427,1.91,2.123,5.37,1.087,5.818,0,0-5.029-3.846-4.322-8.076" transform="translate(-1220.827 -542.157)" fill="#202d4f"/>
          <path id="Path_612753" data-name="Path 612753" d="M1727.264,949.813a3.4,3.4,0,0,1-3.708-1.091c-.955-.974-2.667-1.5-1.782-2.024s3.242.551,3.8.739,1.695,2.375,1.695,2.375" transform="translate(-1184.083 -651.052)" fill="#ffb27d"/>
          <path id="Path_612754" data-name="Path 612754" d="M1957.958,195.876c5.053-19.64,13.6-36.72,36.72-36.72,20.28,0,38.674,17.865,37.337,39.881-1.229,20.242-18.808,37.389-40.326,34.979-20.154-2.257-39.517-15.651-33.731-38.14" transform="translate(-1324.306 -34.128)" fill="#e6d09d"/>
          <g id="Group_1074335" data-name="Group 1074335" transform="translate(664.917 135.449)" opacity="0.8">
            <g id="Group_1074334" data-name="Group 1074334" transform="translate(0 0.001)">
              <g id="Group_1074333" data-name="Group 1074333" clip-path="url(#clip-path-4)">
                <path id="Path_612755" data-name="Path 612755" d="M2070.069,246.948a5.334,5.334,0,0,1,.364-1.989,4.828,4.828,0,0,1,1.032-1.606,4.6,4.6,0,0,1,1.645-1.071,6.738,6.738,0,0,1,4.475,0,4.61,4.61,0,0,1,1.644,1.071,4.849,4.849,0,0,1,1.033,1.606,5.373,5.373,0,0,1,.363,1.989,4.845,4.845,0,0,1-1.377,3.518,6.084,6.084,0,0,1-7.8,0,4.846,4.846,0,0,1-1.377-3.518m9.14-12.008h-7.993l-.879-39.277h9.791Z" transform="translate(-2070.07 -195.662)" fill="#fff"/>
              </g>
            </g>
          </g>
          <path id="Path_612756" data-name="Path 612756" d="M1112.036,231.159c12.408-48.222,33.382-90.158,90.158-90.158,49.793,0,94.955,43.864,91.672,97.918-3.018,49.7-46.178,91.8-99.011,85.883-49.484-5.542-97.026-38.428-82.819-93.643" transform="translate(-763.115 -96.983)" fill="#e6d09d"/>
          <path id="Path_612757" data-name="Path 612757" d="M1361.069,328.546a37.973,37.973,0,0,1-8.646,24.407,31.9,31.9,0,0,0-7.335,20.228v10.657a12.338,12.338,0,0,1-12.3,12.3h-19.681a12.334,12.334,0,0,1-12.3-12.3V373.2a31.777,31.777,0,0,0-7.3-20.2,38.128,38.128,0,0,1,21.129-61.433q.727-.163,1.465-.3c.262-.048.524-.092.787-.135a38.137,38.137,0,0,1,44.175,37.409" transform="translate(-883.719 -199.917)" fill="#f9ddbf"/>
          <path id="Path_612758" data-name="Path 612758" d="M1391.286,628.529l-.042.327L1390.7,633l-.142,1.092v.009l-.145,1.1-.539,4.143-.142,1.092,0,.009-.142,1.1-.08.607c-.274,2.1-2.678,3.708-5.552,3.708h-6.477a7.4,7.4,0,0,1-1.949-.257h0a6.279,6.279,0,0,1-1.508-.627l-.035-.021a4.991,4.991,0,0,1-.98-.747,3.547,3.547,0,0,1-1.073-2.017l-.229-1.607-.146-1.012v0l0-.022v0l-.142-.99-.55-3.842-.144-1.009,0-.022-.142-1-.6-4.162Z" transform="translate(-942.285 -432.309)" fill="#ed7d2b"/>
          <path id="Path_612759" data-name="Path 612759" d="M1390.029,628.529h-3.66c-5.907,1.708-11.766,3.4-14.48,4.162l.143,1,0,.022.145,1.009c2.2-.609,7.476-2.121,20.378-5.861l.042-.327Z" transform="translate(-943.598 -432.309)" fill="#f99746"/>
          <path id="Path_612760" data-name="Path 612760" d="M1374.722,649.4v0l0,.022v0l.146,1.012c2.542-.714,7.787-2.219,18.71-5.385l.145-1.1v-.009l.142-1.092c-6.9,2-15.258,4.412-19.288,5.557Z" transform="translate(-945.45 -442.163)" fill="#f99746"/>
          <path id="Path_612761" data-name="Path 612761" d="M1380.664,668.789l.035.021a6.29,6.29,0,0,0,1.508.627h0c3-.859,7.443-2.143,14.057-4.058l.142-1.1,0-.009.142-1.092c-5.907,1.71-12.683,3.668-16.87,4.865a5,5,0,0,0,.981.747" transform="translate(-948.959 -456.14)" fill="#f99746"/>
          <rect id="Rectangle_378729" data-name="Rectangle 378729" width="1.724" height="49.465" transform="translate(423.285 147.594) rotate(-9.615)" fill="#ed7d2b"/>
          <rect id="Rectangle_378730" data-name="Rectangle 378730" width="48.798" height="1.724" transform="matrix(0.18, -0.984, 0.984, 0.18, 444.452, 196.065)" fill="#ed7d2b"/>
          <path id="Path_612762" data-name="Path 612762" d="M1378.193,479.052a3.356,3.356,0,0,1-.745-.091,1.069,1.069,0,0,1-.845-.924c-.2-1.077.649-3.054,1.836-4.728a4.647,4.647,0,0,0-2.313-2.239c-1.28-.388-3.244.794-4.612,2.3a10.261,10.261,0,0,1,.673,1.1c.7,1.323,1.2,3.015.515,3.8-.255.29-.777.553-1.811.163a2.148,2.148,0,0,1-1.274-3,6.9,6.9,0,0,1,1.224-2.092c-1.059-1.382-2.475-2.432-3.87-2.256a4.273,4.273,0,0,0-1.916.723c.892,1.66,1.1,3.767.478,4.9a1.554,1.554,0,0,1-2.074.688c-.658-.234-1-1.14-.875-2.307a5.33,5.33,0,0,1,1.789-3.412,4.428,4.428,0,0,0-.991-1.112,3.285,3.285,0,0,0-4.474.223l-.375-.363a3.862,3.862,0,0,1,5.169-.272,4.9,4.9,0,0,1,1.086,1.207,4.793,4.793,0,0,1,2.118-.79c1.564-.2,3.124.907,4.282,2.375,1.489-1.617,3.609-2.812,5.088-2.366a4.983,4.983,0,0,1,2.49,2.3,8.959,8.959,0,0,1,2.006-1.973c1.089-.721,1.8-.556,2.2-.29a3.939,3.939,0,0,1,1.058,1.058,5.884,5.884,0,0,1,1.012-.652,2.86,2.86,0,0,1,3.262.13l-.337.4a2.45,2.45,0,0,0-2.693-.061,5.446,5.446,0,0,0-.97.628,5.52,5.52,0,0,1,.522,4.444,1.1,1.1,0,0,1-1.476.579,1.961,1.961,0,0,1-1.451-1.788,4.7,4.7,0,0,1,1.727-3.332,3.419,3.419,0,0,0-.941-.968c-.493-.324-1.157-.021-1.626.29a8.806,8.806,0,0,0-2.017,2.027,6.792,6.792,0,0,1,.892,4.344,1.688,1.688,0,0,1-1.742,1.354m.517-5.233c-1.033,1.506-1.76,3.21-1.593,4.123a.561.561,0,0,0,.447.509c1.022.232,1.651-.066,1.867-.887a6.085,6.085,0,0,0-.721-3.745m-7.545-.038a6.2,6.2,0,0,0-1.053,1.813,1.627,1.627,0,0,0,.964,2.346c.417.157.97.282,1.235-.019.41-.465.169-1.785-.585-3.208a9.956,9.956,0,0,0-.561-.931m-6.524-1.653a4.8,4.8,0,0,0-1.536,3.008c-.1.89.122,1.613.531,1.759a1.055,1.055,0,0,0,1.441-.447c.531-.969.338-2.832-.436-4.32m19.257.333a4.185,4.185,0,0,0-1.475,2.847,1.471,1.471,0,0,0,1.109,1.327.59.59,0,0,0,.831-.324,5,5,0,0,0-.465-3.85" transform="translate(-934.412 -322.755)" fill="#ed7d2b"/>
          <path id="Path_612763" data-name="Path 612763" d="M1442.817,329.153c3.134,2.952,2.74,8.385-1.291,9.594a8.877,8.877,0,0,1-9.811-4.185c-2.24-3.879-1.207-7.067,1.541-8.654s6.3.173,9.561,3.245" transform="translate(-983.908 -223.755)" fill="#fff0e3"/>
          <path id="Path_612764" data-name="Path 612764" d="M1400.777,229.254h-.365a1.216,1.216,0,0,1-1.213-1.213V213.021a1.216,1.216,0,0,1,1.213-1.213h.365a1.216,1.216,0,0,1,1.213,1.213v15.021a1.216,1.216,0,0,1-1.213,1.213" transform="translate(-962.383 -145.684)" fill="#fff0e3"/>
          <path id="Path_612765" data-name="Path 612765" d="M1549,309.559l-.2-.347a1.2,1.2,0,0,1,.437-1.632l7.365-4.252a1.2,1.2,0,0,1,1.632.437l.2.348a1.2,1.2,0,0,1-.437,1.632L1550.637,310a1.2,1.2,0,0,1-1.632-.437" transform="translate(-1065.173 -208.523)" fill="#fff0e3"/>
          <path id="Path_612766" data-name="Path 612766" d="M1565.916,387.853h0a1.4,1.4,0,0,1,1.4-1.4h18.625a1.4,1.4,0,1,1,0,2.791h-18.625a1.4,1.4,0,0,1-1.4-1.4" transform="translate(-1077.052 -265.81)" fill="#fff0e3"/>
          <path id="Path_612767" data-name="Path 612767" d="M1480.668,230.895h0a1.4,1.4,0,0,1-.736-1.831l9.886-23.178a1.4,1.4,0,1,1,2.567,1.095l-9.887,23.178a1.4,1.4,0,0,1-1.831.736" transform="translate(-1017.835 -141.028)" fill="#fff0e3"/>
          <path id="Path_612768" data-name="Path 612768" d="M1242.384,309.559l.2-.347a1.2,1.2,0,0,0-.437-1.632l-7.365-4.252a1.2,1.2,0,0,0-1.632.437l-.2.348a1.2,1.2,0,0,0,.437,1.632l7.365,4.252a1.2,1.2,0,0,0,1.632-.437" transform="translate(-847.925 -208.523)" fill="#fff0e3"/>
          <path id="Path_612769" data-name="Path 612769" d="M1200.219,387.853h0a1.4,1.4,0,0,0-1.4-1.4H1180.2a1.4,1.4,0,1,0,0,2.791h18.625a1.4,1.4,0,0,0,1.4-1.4" transform="translate(-810.792 -265.81)" fill="#fff0e3"/>
          <path id="Path_612770" data-name="Path 612770" d="M1304.722,230.895h0a1.4,1.4,0,0,0,.736-1.831l-9.886-23.178a1.4,1.4,0,1,0-2.567,1.095l9.886,23.178a1.4,1.4,0,0,0,1.831.736" transform="translate(-889.265 -141.028)" fill="#fff0e3"/>
          <path id="Path_612771" data-name="Path 612771" d="M1258.058,627.124c.019-.527.427-6.21,9.083-6.507,0,0-4.257.507-4.992,2.379,0,0,2.9-2.312,5.259-1.568s3.747,4.879,3.76,6.239-1.3,5.745-2.8,6.118a4.569,4.569,0,0,1-1.814,0,20.354,20.354,0,0,1,1.163,2.075c3.454,7.09-.108,14.019-3.032,13.254-1.875-.491-2.406,2.709-2.406,2.709l-18.22-14.75s6.692-13.847,13.995-9.95" transform="translate(-855.679 -426.867)" fill="#2c3a64"/>
          <path id="Path_612772" data-name="Path 612772" d="M1268.57,1045.6l3.87,1.441s16.81-23.313,18.879-43.825a31.16,31.16,0,0,0-.553-10.486s.164-.938.452-2.6c.133-.774.3-1.706.483-2.774.547-3.131,1.3-7.415,2.158-12.294,1.978-11.226,4.54-25.577,6.531-36.126l-1.043-.335-11.283-3.64-2.332-7.406-8.4-2.212s-1.877,3.671-3.554,21.014c-.31,2.275-.591,4.783-.8,7.5a148.488,148.488,0,0,0,.8,30.379q.578,4.521,1.475,9.324a41.591,41.591,0,0,1,.322,9.207c-.847,16.768-7,42.827-7,42.827" transform="translate(-872.535 -636.46)" fill="#1c468a"/>
          <path id="Path_612773" data-name="Path 612773" d="M1282.678,945.4l18.243,36.269c.133-.774.3-1.706.483-2.774.547-3.131,1.3-7.416,2.158-12.294,1.978-11.226,4.54-25.577,6.531-36.126l-1.042-.335-11.283-3.64-2.332-7.406-10.91-6.05s0,1.689-.95,20.14c-.31,2.275-.687,9.5-.9,12.216" transform="translate(-882.238 -628.003)" fill="#163560"/>
          <path id="Path_612774" data-name="Path 612774" d="M1308.386,917.047l.422-3.621c7.075,1.879,26.8-6.91,26.8-6.91s6.034,7.683,5.135,22.126c-.439,7.049-1.242,37-2.08,45.869-.3,3.213-.568,5.5-.677,6.412a.016.016,0,0,0,0,.009,1.269,1.269,0,0,0,.206.785,41.623,41.623,0,0,1,3.093,6.5c8.225,21.919-1.267,48.911-1.267,48.911l-2.463-.993s-5.4-30.04-9.791-43.311a26.286,26.286,0,0,0-2.114-5.077c-1.908-3.08-3.679-8.112-5.287-14.1-3.038-11.316-5.483-26.037-7.111-37.4a111.366,111.366,0,0,0-4.865-19.208" transform="translate(-899.921 -623.511)" fill="#1c468a"/>
          <path id="Path_612775" data-name="Path 612775" d="M1146.358,812.544l-.55,4.163s2.507-.334,2.918-.363c1.289-.088,5.1-.335,8.646-.716,5.331-.527,9.193-.65,11.712-2.2,3.837-2.343,10.134-9.518,14.234-16.694a4.639,4.639,0,0,0,.293-.527c2.138-3.807,3.632-7.586,3.749-10.6a15.135,15.135,0,0,0-.5-4.8,12.242,12.242,0,0,0-2.167-4.334,2.178,2.178,0,0,0-.41-.5,10.116,10.116,0,0,0-2.783-2.372c-.7-.293-3.038,2.539-3.828,3.388l-.661,1.963c-.645.674-7.719,23.418-10.911,26.962-1.376,1.523-7.789,3.916-13.63,5.535a27.692,27.692,0,0,1-6.113,1.1" transform="translate(-788.098 -532.073)" fill="#f2a16b"/>
          <path id="Path_612776" data-name="Path 612776" d="M1265.089,741.52a22.034,22.034,0,0,0,8.148,1.908c12.165.667,14.926-10,15.428-17.074a10.2,10.2,0,0,0-4.174-.528c-.706.038-1.437.1-2.086.178a1.169,1.169,0,0,1-.858-.241c-1.532-1.2-3.865-4.843-5.268-10.579l-.524.243-8.777,4.127s.932,2.856,1.621,5.589a28.641,28.641,0,0,1,.658,3.247,1.925,1.925,0,0,1-1.164,1.995.025.025,0,0,1,0,.009,60.24,60.24,0,0,0-3,11.125" transform="translate(-870.141 -491.912)" fill="#ffb27d"/>
          <path id="Path_612777" data-name="Path 612777" d="M1299.416,801.809c-.1,4.5-31.783,8.488-37.235,5.469,0,0-1.414-6.82-3.215-14.486-.542-2.306-1.12-4.685-1.7-6.982a91.645,91.645,0,0,0-3.866-12.652c-.112-.245-.212-.479-.3-.724-2.429-6.436,2.118-13.319-1.021-15.354,0,0,1.86-1.715,7.068-3.76a.025.025,0,0,1,0,.01c-.082.3-.545,4.576.347,6.248,1.761,3.3,8.644,1.576,11.783-2.5a22.218,22.218,0,0,0,3.912-7.055l.36-1.262s5.806-.786,9.066.535a25.076,25.076,0,0,0-1.761,5.885c-.046.294-.082.589-.112.882a11.563,11.563,0,0,0-.046,1.85,3.555,3.555,0,0,0,1.12,2.211,17.415,17.415,0,0,0,2.34,1.94c.6.436,1.252.892,1.92,1.391a157.5,157.5,0,0,0,.476,15.989,10.764,10.764,0,0,0,1.553,4.537,11.129,11.129,0,0,0,1.15,1.549c3.43,3.843,8.287,15.754,8.171,16.28" transform="translate(-861.189 -514.845)" fill="#f99746"/>
          <path id="Path_612778" data-name="Path 612778" d="M1271.14,720.1s.933,2.854,1.621,5.589c5.13-1.431,6.688-6.824,7.157-9.715Z" transform="translate(-874.303 -492.453)" fill="#ed985f"/>
          <path id="Path_612779" data-name="Path 612779" d="M1250.485,689.683s12.274-2.841,10.388-10.457-1.573-13.113-9.49-11.622-8.714,4.774-8.7,7.469,4.563,15.152,7.8,14.61" transform="translate(-854.728 -459.017)" fill="#ffb27d"/>
          <path id="Path_612780" data-name="Path 612780" d="M1239.266,667.691c1.32-2.761,2.872-2.613,3.844-2.124a8.805,8.805,0,0,1,11.425-.977,14.991,14.991,0,0,0,6.9,7.409s-1.886,1.931-7.351,1.888a8.993,8.993,0,0,1-4.875-1.836,29.376,29.376,0,0,0,6.4,4.773c-6.842-1.309-11.429-9.229-11.9-10.071a9.87,9.87,0,0,0-1.781,4.216c-.127,2.091.593,6.151-.6,6.3,0,0-4.033-5.445-2.054-9.585" transform="translate(-852.004 -455.958)" fill="#2c3a64"/>
          <path id="Path_612781" data-name="Path 612781" d="M1245.282,775.916s-1.089.626-3.081,6.714c0,0,2.281,2.834,5.064,2.569,0,0,.371-8.588-1.983-9.283" transform="translate(-854.398 -533.683)" fill="#f99746"/>
          <path id="Path_612782" data-name="Path 612782" d="M1363.833,1307.146h19.492a10.7,10.7,0,0,0-.551-5.224c-.975-2.163-2.5-3.146-2.138-5.762a7.019,7.019,0,0,1-6.075,2.324c-.345.56-2.229,3.556-3.382,4.384-1.274.915-6.954.589-7.346,4.278" transform="translate(-938.058 -891.512)" fill="#2358a5"/>
          <path id="Path_612783" data-name="Path 612783" d="M1229.775,1309.071h19.492s.729-3.109-.551-5.224c-1.133-1.872-.7-2.938.141-4.487a7.579,7.579,0,0,1-3.283.618,6.866,6.866,0,0,1-2.9-1.02,70.178,70.178,0,0,1-5.553,5.834c-1.274.915-6.954.589-7.346,4.278" transform="translate(-845.851 -893.437)" fill="#2358a5"/>
          <path id="Path_612784" data-name="Path 612784" d="M1149.375,841.74s-1.71-2.3-2.778-2.787-2.079-3.457-2.671-2.548c-.36.554.551,2.613.318,3.078s-2.59-.518-3-1.178c-.277-.443-2.707-3.375-2.762-2.024s2.066,6.539,3.112,7.2a27.736,27.736,0,0,0,5.006,1.552Z" transform="translate(-783.056 -574.96)" fill="#ffb27d"/>
          <path id="Path_612785" data-name="Path 612785" d="M1292.068,814.055c-4.408,10.781-21.371,24.137-21.371,24.137l-.294-.33c-.542-2.307-1.12-4.685-1.7-6.982l18.07-16.825Z" transform="translate(-872.625 -559.916)" fill="#ed7d2b"/>
          <path id="Path_612786" data-name="Path 612786" d="M1165.038,784.943l-.553,3.075s9.7,2.217,11.834,2.685l.026.012c3.693.733,7.858,1.49,11.487,1.871a30.778,30.778,0,0,0,6.542.078,3.557,3.557,0,0,0,.5-.095c4.153-.828,10.913-5.776,17.069-11.583.852-.8,1.678-1.613,2.491-2.4a80.08,80.08,0,0,0,7.687-8.713,31.473,31.473,0,0,0,2.936-4.485,12.985,12.985,0,0,0,.651-1.344c3.5-7.739.158-10.567.158-10.567-.067-.063-.135-.127-.229-.2-.616-.413-1.516-.279-2.639.268a26.616,26.616,0,0,0-5.161,3.717c-3.1,2.734-21.669,25.344-26,26.2-3.764.747-26.792,1.477-26.792,1.477" transform="translate(-800.944 -517.945)" fill="#ffb27d"/>
          <path id="Path_612787" data-name="Path 612787" d="M1325.1,750.441a5.9,5.9,0,0,1,4.116,5.027c.33,3.965-.185,16.235-.185,16.235s-12.371-3.547-17.41-11.114c0,0,9.086-10.051,13.479-10.149" transform="translate(-902.144 -516.161)" fill="#f99746"/>
          <path id="Path_612788" data-name="Path 612788" d="M902.541,1335.084H1.278A1.282,1.282,0,0,1,0,1333.807v-1.178a1.282,1.282,0,0,1,1.278-1.278H902.541a1.282,1.282,0,0,1,1.278,1.278v1.178a1.282,1.282,0,0,1-1.278,1.278" transform="translate(0 -915.717)" fill="#2e3552"/>
        </g>
      </g>
    </g>
    <path id="Path_613321" data-name="Path 613321" d="M9,0H190a9,9,0,0,1,9,9V30.2a9,9,0,0,1-9,9H9a9,9,0,0,1-9-9V9A9,9,0,0,1,9,0Z" transform="translate(328.5 3171.001)" fill="#ddf1ff"/>
    <path id="Path_613322" data-name="Path 613322" d="M70.507,13.186H65.825L64.846,16H62.663L67.228,3.914h1.884L73.686,16H71.495Zm-4.092-1.693h3.5L68.166,6.479Zm9.919-4.474.058,1.038a3.229,3.229,0,0,1,2.615-1.2q2.806,0,2.855,3.212V16H79.845V10.181a1.85,1.85,0,0,0-.369-1.266A1.554,1.554,0,0,0,78.268,8.5a1.944,1.944,0,0,0-1.818,1.1V16H74.433V7.019ZM89.283,16a3.113,3.113,0,0,1-.232-.838,3.393,3.393,0,0,1-4.565.232,2.47,2.47,0,0,1-.855-1.909,2.55,2.55,0,0,1,1.067-2.2,5.169,5.169,0,0,1,3.051-.768h1.237V9.924a1.573,1.573,0,0,0-.39-1.116,1.547,1.547,0,0,0-1.187-.419,1.777,1.777,0,0,0-1.129.344,1.066,1.066,0,0,0-.44.876H83.821a2.239,2.239,0,0,1,.49-1.382,3.263,3.263,0,0,1,1.332-1.009,4.68,4.68,0,0,1,1.88-.365,3.769,3.769,0,0,1,2.515.793A2.827,2.827,0,0,1,91,9.874v4.051a4.591,4.591,0,0,0,.34,1.934V16Zm-2.216-1.453a2.294,2.294,0,0,0,1.125-.291,1.941,1.941,0,0,0,.793-.78V11.783H87.9a2.973,2.973,0,0,0-1.685.39,1.264,1.264,0,0,0-.564,1.1,1.179,1.179,0,0,0,.386.926A1.5,1.5,0,0,0,87.067,14.547ZM95.26,16H93.243V3.25H95.26ZM99.6,16H97.584V7.019H99.6ZM97.459,4.686a1.071,1.071,0,0,1,.295-.772,1.113,1.113,0,0,1,.843-.307,1.127,1.127,0,0,1,.847.307,1.062,1.062,0,0,1,.3.772,1.038,1.038,0,0,1-.3.76,1.136,1.136,0,0,1-.847.3,1.122,1.122,0,0,1-.843-.3A1.046,1.046,0,0,1,97.459,4.686Zm6.491,9.7h4.781V16h-7.288V14.68L106,8.646h-4.474V7.019h7.031V8.3ZM115.713,16a3.113,3.113,0,0,1-.232-.838,3.393,3.393,0,0,1-4.565.232,2.47,2.47,0,0,1-.855-1.909,2.55,2.55,0,0,1,1.067-2.2,5.169,5.169,0,0,1,3.051-.768h1.237V9.924a1.573,1.573,0,0,0-.39-1.116,1.547,1.547,0,0,0-1.187-.419,1.777,1.777,0,0,0-1.129.344,1.066,1.066,0,0,0-.44.876h-2.017a2.239,2.239,0,0,1,.49-1.382,3.263,3.263,0,0,1,1.332-1.009,4.68,4.68,0,0,1,1.88-.365,3.769,3.769,0,0,1,2.515.793,2.827,2.827,0,0,1,.963,2.229v4.051a4.591,4.591,0,0,0,.34,1.934V16ZM113.5,14.547a2.294,2.294,0,0,0,1.125-.291,1.941,1.941,0,0,0,.793-.78V11.783h-1.087a2.973,2.973,0,0,0-1.685.39,1.264,1.264,0,0,0-.564,1.1,1.179,1.179,0,0,0,.386.926A1.5,1.5,0,0,0,113.5,14.547Zm10.75-5.686a4.991,4.991,0,0,0-.822-.066,1.85,1.85,0,0,0-1.868,1.063V16H119.54V7.019h1.926l.05,1a2.273,2.273,0,0,1,2.025-1.17,1.888,1.888,0,0,1,.714.116Z" transform="translate(334.5 3178.001)" fill="#12263f"/>
    <path id="Path_613323" data-name="Path 613323" d="M0,0H55V4H0Z" transform="translate(400.5 3206.198)" fill="#615842"/>
    <path id="Path_613324" data-name="Path 613324" d="M9,0H190a9,9,0,0,1,9,9V28.2a9,9,0,0,1-9,9H9a9,9,0,0,1-9-9V9A9,9,0,0,1,9,0Z" transform="translate(646 3102.55)" fill="#ddf1ff"/>
    <path id="Path_613325" data-name="Path 613325" d="M23.728,11.352H21.387V16h-2.1V3.914h4.25a4.944,4.944,0,0,1,3.229.939A3.321,3.321,0,0,1,27.9,7.57,3.4,3.4,0,0,1,27.318,9.6a3.724,3.724,0,0,1-1.631,1.259L28.4,15.892V16h-2.25ZM21.387,9.658h2.158a2.4,2.4,0,0,0,1.66-.535,1.867,1.867,0,0,0,.6-1.465,1.988,1.988,0,0,0-.552-1.5A2.345,2.345,0,0,0,23.6,5.607H21.387Zm12.269,6.508a4.173,4.173,0,0,1-3.109-1.208,4.381,4.381,0,0,1-1.191-3.217v-.249a5.389,5.389,0,0,1,.519-2.4,3.949,3.949,0,0,1,1.457-1.648,3.851,3.851,0,0,1,2.092-.589,3.525,3.525,0,0,1,2.835,1.17,4.949,4.949,0,0,1,1,3.312v.813H31.389a2.7,2.7,0,0,0,.743,1.76,2.23,2.23,0,0,0,1.639.647,2.731,2.731,0,0,0,2.258-1.121l1.087,1.038a3.631,3.631,0,0,1-1.44,1.249A4.509,4.509,0,0,1,33.656,16.166Zm-.241-7.695a1.7,1.7,0,0,0-1.341.581,3.012,3.012,0,0,0-.652,1.619h3.843v-.149a2.452,2.452,0,0,0-.54-1.531A1.686,1.686,0,0,0,33.415,8.471ZM43.857,13.56a.914.914,0,0,0-.444-.822,4.723,4.723,0,0,0-1.473-.5,7.574,7.574,0,0,1-1.718-.548,2.293,2.293,0,0,1-1.511-2.117,2.391,2.391,0,0,1,.979-1.942,3.872,3.872,0,0,1,2.49-.78,4.029,4.029,0,0,1,2.6.8,2.529,2.529,0,0,1,.992,2.067H43.758a1.243,1.243,0,0,0-.432-.967,1.654,1.654,0,0,0-1.146-.386A1.787,1.787,0,0,0,41.1,8.67a.968.968,0,0,0-.419.822.818.818,0,0,0,.39.722,5.365,5.365,0,0,0,1.577.519,7.466,7.466,0,0,1,1.864.623,2.639,2.639,0,0,1,1,.867,2.212,2.212,0,0,1,.328,1.229,2.34,2.34,0,0,1-1,1.963,4.283,4.283,0,0,1-2.631.751,4.644,4.644,0,0,1-1.967-.4,3.238,3.238,0,0,1-1.345-1.1,2.594,2.594,0,0,1-.481-1.5h1.959a1.421,1.421,0,0,0,.54,1.1,2.1,2.1,0,0,0,1.32.386,2.04,2.04,0,0,0,1.212-.3A.938.938,0,0,0,43.857,13.56Zm3.362-2.133a5.3,5.3,0,0,1,.523-2.378,3.819,3.819,0,0,1,1.469-1.627,4.14,4.14,0,0,1,2.175-.569,3.923,3.923,0,0,1,2.951,1.17,4.6,4.6,0,0,1,1.224,3.1l.008.473a5.343,5.343,0,0,1-.51,2.374A3.773,3.773,0,0,1,53.6,15.593a4.17,4.17,0,0,1-2.2.573A3.9,3.9,0,0,1,48.36,14.9a4.848,4.848,0,0,1-1.141-3.374Zm2.017.174a3.619,3.619,0,0,0,.573,2.171,1.862,1.862,0,0,0,1.594.784,1.842,1.842,0,0,0,1.59-.8,4,4,0,0,0,.569-2.333,3.572,3.572,0,0,0-.585-2.158,1.973,1.973,0,0,0-3.158-.012A3.922,3.922,0,0,0,49.236,11.6ZM59.421,16H57.4V3.25h2.017Zm5.362-2.557,1.9-6.425h2.083L65.655,16H63.9L60.766,7.019h2.092Zm9.089,2.723a4.173,4.173,0,0,1-3.109-1.208,4.381,4.381,0,0,1-1.191-3.217v-.249a5.389,5.389,0,0,1,.519-2.4,3.949,3.949,0,0,1,1.457-1.648,3.851,3.851,0,0,1,2.092-.589,3.525,3.525,0,0,1,2.835,1.17,4.949,4.949,0,0,1,1,3.312v.813H71.607a2.7,2.7,0,0,0,.743,1.76,2.23,2.23,0,0,0,1.639.647,2.731,2.731,0,0,0,2.258-1.121l1.087,1.038a3.631,3.631,0,0,1-1.44,1.249A4.509,4.509,0,0,1,73.873,16.166Zm-.241-7.695a1.7,1.7,0,0,0-1.341.581,3.012,3.012,0,0,0-.652,1.619h3.843v-.149a2.452,2.452,0,0,0-.54-1.531A1.686,1.686,0,0,0,73.632,8.471Zm10.11.39a4.991,4.991,0,0,0-.822-.066,1.85,1.85,0,0,0-1.868,1.063V16H79.036V7.019h1.926l.05,1a2.273,2.273,0,0,1,2.025-1.17,1.888,1.888,0,0,1,.714.116ZM97.115,11.6a5.348,5.348,0,0,1-.946,3.324,3.287,3.287,0,0,1-4.906.27v4.258H89.246V7.019h1.859l.083.913A2.963,2.963,0,0,1,93.6,6.853a3.062,3.062,0,0,1,2.577,1.224,5.49,5.49,0,0,1,.934,3.4Zm-2.009-.174a3.746,3.746,0,0,0-.535-2.133A1.741,1.741,0,0,0,93.039,8.5a1.856,1.856,0,0,0-1.776,1.021V13.51a1.873,1.873,0,0,0,1.793,1.046,1.739,1.739,0,0,0,1.507-.776A4.124,4.124,0,0,0,95.106,11.426Zm8.417-2.565a4.991,4.991,0,0,0-.822-.066,1.85,1.85,0,0,0-1.868,1.063V16H98.817V7.019h1.926l.05,1a2.273,2.273,0,0,1,2.025-1.17,1.888,1.888,0,0,1,.714.116Zm.6,2.565a5.3,5.3,0,0,1,.523-2.378,3.819,3.819,0,0,1,1.469-1.627,4.14,4.14,0,0,1,2.175-.569,3.923,3.923,0,0,1,2.951,1.17,4.6,4.6,0,0,1,1.224,3.1l.008.473a5.343,5.343,0,0,1-.51,2.374,3.773,3.773,0,0,1-1.461,1.619,4.17,4.17,0,0,1-2.2.573,3.9,3.9,0,0,1-3.042-1.266,4.848,4.848,0,0,1-1.141-3.374Zm2.017.174a3.619,3.619,0,0,0,.573,2.171,1.862,1.862,0,0,0,1.594.784,1.842,1.842,0,0,0,1.59-.8,4,4,0,0,0,.569-2.333,3.572,3.572,0,0,0-.585-2.158,1.973,1.973,0,0,0-3.158-.012A3.922,3.922,0,0,0,106.138,11.6Zm15.921,0a5.4,5.4,0,0,1-.934,3.329,3.042,3.042,0,0,1-2.569,1.237,2.93,2.93,0,0,1-2.457-1.137L116,16h-1.826V3.25h2.017V7.882a2.92,2.92,0,0,1,2.349-1.029,3.077,3.077,0,0,1,2.582,1.22,5.484,5.484,0,0,1,.938,3.412Zm-2.017-.174a3.813,3.813,0,0,0-.515-2.191,1.714,1.714,0,0,0-1.494-.73A1.873,1.873,0,0,0,116.19,9.65v3.7a1.892,1.892,0,0,0,1.859,1.17,1.7,1.7,0,0,0,1.461-.706,3.7,3.7,0,0,0,.531-2.133ZM125.894,16h-2.017V3.25h2.017Zm6.151.166a4.173,4.173,0,0,1-3.109-1.208,4.381,4.381,0,0,1-1.191-3.217v-.249a5.389,5.389,0,0,1,.519-2.4,3.949,3.949,0,0,1,1.457-1.648,3.851,3.851,0,0,1,2.092-.589,3.525,3.525,0,0,1,2.835,1.17,4.949,4.949,0,0,1,1,3.312v.813h-5.869a2.7,2.7,0,0,0,.743,1.76,2.23,2.23,0,0,0,1.639.647,2.731,2.731,0,0,0,2.258-1.121l1.087,1.038a3.631,3.631,0,0,1-1.44,1.249A4.509,4.509,0,0,1,132.045,16.166ZM131.8,8.471a1.7,1.7,0,0,0-1.341.581,3.012,3.012,0,0,0-.652,1.619h3.843v-.149a2.452,2.452,0,0,0-.54-1.531A1.686,1.686,0,0,0,131.8,8.471Zm7.3-1.453.058.938a3.232,3.232,0,0,1,2.59-1.1,2.483,2.483,0,0,1,2.465,1.378,3.186,3.186,0,0,1,2.756-1.378,2.8,2.8,0,0,1,2.212.822,3.618,3.618,0,0,1,.743,2.424V16h-2.017V10.156a1.786,1.786,0,0,0-.374-1.253,1.635,1.635,0,0,0-1.237-.4,1.679,1.679,0,0,0-1.125.369,1.948,1.948,0,0,0-.61.967L144.579,16h-2.017V10.09A1.439,1.439,0,0,0,140.943,8.5a1.776,1.776,0,0,0-1.718.988V16h-2.017V7.019ZM157.37,16a3.113,3.113,0,0,1-.232-.838,3.393,3.393,0,0,1-4.565.232,2.47,2.47,0,0,1-.855-1.909,2.55,2.55,0,0,1,1.067-2.2,5.169,5.169,0,0,1,3.051-.768h1.237V9.924a1.573,1.573,0,0,0-.39-1.116,1.547,1.547,0,0,0-1.187-.419,1.777,1.777,0,0,0-1.129.344,1.066,1.066,0,0,0-.44.876h-2.017a2.239,2.239,0,0,1,.49-1.382,3.263,3.263,0,0,1,1.332-1.009,4.68,4.68,0,0,1,1.88-.365,3.769,3.769,0,0,1,2.515.793,2.827,2.827,0,0,1,.963,2.229v4.051a4.591,4.591,0,0,0,.34,1.934V16Zm-2.216-1.453a2.294,2.294,0,0,0,1.125-.291,1.941,1.941,0,0,0,.793-.78V11.783h-1.087a2.973,2.973,0,0,0-1.685.39,1.264,1.264,0,0,0-.564,1.1,1.179,1.179,0,0,0,.386.926A1.5,1.5,0,0,0,155.154,14.547Zm11.082-.988a.914.914,0,0,0-.444-.822,4.723,4.723,0,0,0-1.473-.5,7.574,7.574,0,0,1-1.718-.548,2.293,2.293,0,0,1-1.511-2.117,2.391,2.391,0,0,1,.979-1.942,3.872,3.872,0,0,1,2.49-.78,4.029,4.029,0,0,1,2.6.8,2.529,2.529,0,0,1,.992,2.067h-2.017a1.243,1.243,0,0,0-.432-.967,1.654,1.654,0,0,0-1.146-.386,1.787,1.787,0,0,0-1.083.307.968.968,0,0,0-.419.822.818.818,0,0,0,.39.722,5.365,5.365,0,0,0,1.577.519,7.466,7.466,0,0,1,1.864.623,2.639,2.639,0,0,1,1,.867,2.212,2.212,0,0,1,.328,1.229,2.34,2.34,0,0,1-1,1.963,4.283,4.283,0,0,1-2.631.751,4.644,4.644,0,0,1-1.967-.4,3.238,3.238,0,0,1-1.345-1.1,2.594,2.594,0,0,1-.481-1.5h1.959a1.421,1.421,0,0,0,.54,1.1,2.1,2.1,0,0,0,1.32.386,2.04,2.04,0,0,0,1.212-.3A.938.938,0,0,0,166.236,13.56Z" transform="translate(652 3109.55)" fill="#12263f"/>
    <path id="Path_613326" data-name="Path 613326" d="M0,0H55V4H0Z" transform="translate(718 3139.747)" fill="#615842"/>
    <path id="Path_613327" data-name="Path 613327" d="M9,0H190a9,9,0,0,1,9,9V24.2a9,9,0,0,1-9,9H9a9,9,0,0,1-9-9V9A9,9,0,0,1,9,0Z" transform="translate(860 3136.85)" fill="#ddf1ff"/>
    <path id="Path_613328" data-name="Path 613328" d="M36.175,5.607H32.406V16H30.323V5.607H26.587V3.914h9.587Zm-.714,5.819a5.3,5.3,0,0,1,.523-2.378,3.819,3.819,0,0,1,1.469-1.627,4.14,4.14,0,0,1,2.175-.569,3.923,3.923,0,0,1,2.951,1.17,4.6,4.6,0,0,1,1.224,3.1l.008.473a5.343,5.343,0,0,1-.51,2.374,3.773,3.773,0,0,1-1.461,1.619,4.17,4.17,0,0,1-2.2.573A3.9,3.9,0,0,1,36.6,14.9a4.848,4.848,0,0,1-1.141-3.374Zm2.017.174a3.619,3.619,0,0,0,.573,2.171,1.862,1.862,0,0,0,1.594.784,1.842,1.842,0,0,0,1.59-.8,4,4,0,0,0,.569-2.333,3.572,3.572,0,0,0-.585-2.158,1.973,1.973,0,0,0-3.158-.012A3.922,3.922,0,0,0,37.478,11.6Zm9.936-4.582.058.938a3.232,3.232,0,0,1,2.59-1.1A2.483,2.483,0,0,1,52.527,8.23a3.186,3.186,0,0,1,2.756-1.378,2.8,2.8,0,0,1,2.212.822,3.618,3.618,0,0,1,.743,2.424V16H56.221V10.156A1.786,1.786,0,0,0,55.848,8.9a1.635,1.635,0,0,0-1.237-.4,1.679,1.679,0,0,0-1.125.369,1.948,1.948,0,0,0-.61.967L52.884,16H50.867V10.09A1.439,1.439,0,0,0,49.249,8.5a1.776,1.776,0,0,0-1.718.988V16H45.513V7.019ZM65.676,16a3.113,3.113,0,0,1-.232-.838,3.393,3.393,0,0,1-4.565.232,2.47,2.47,0,0,1-.855-1.909,2.55,2.55,0,0,1,1.067-2.2,5.169,5.169,0,0,1,3.051-.768h1.237V9.924a1.573,1.573,0,0,0-.39-1.116A1.547,1.547,0,0,0,63.8,8.388a1.777,1.777,0,0,0-1.129.344,1.066,1.066,0,0,0-.44.876H60.214a2.239,2.239,0,0,1,.49-1.382,3.263,3.263,0,0,1,1.332-1.009,4.68,4.68,0,0,1,1.88-.365,3.769,3.769,0,0,1,2.515.793,2.827,2.827,0,0,1,.963,2.229v4.051a4.591,4.591,0,0,0,.34,1.934V16Zm-2.216-1.453a2.294,2.294,0,0,0,1.125-.291,1.941,1.941,0,0,0,.793-.78V11.783H64.29a2.973,2.973,0,0,0-1.685.39,1.264,1.264,0,0,0-.564,1.1,1.179,1.179,0,0,0,.386.926A1.5,1.5,0,0,0,63.459,14.547Zm10.75-5.686a4.991,4.991,0,0,0-.822-.066A1.85,1.85,0,0,0,71.52,9.857V16H69.5V7.019h1.926l.05,1A2.273,2.273,0,0,1,73.5,6.853a1.888,1.888,0,0,1,.714.116Zm5.13,2.582A5.34,5.34,0,0,1,80.3,8.11a3.085,3.085,0,0,1,2.582-1.258,2.931,2.931,0,0,1,2.308,1V3.25h2.017V16H85.382l-.1-.93a2.973,2.973,0,0,1-2.416,1.1,3.068,3.068,0,0,1-2.552-1.27A5.535,5.535,0,0,1,79.339,11.443Zm2.017.174a3.739,3.739,0,0,0,.527,2.137,1.71,1.71,0,0,0,1.5.768,1.9,1.9,0,0,0,1.81-1.1V9.583A1.876,1.876,0,0,0,83.4,8.5a1.723,1.723,0,0,0-1.511.776A4.163,4.163,0,0,0,81.356,11.617Zm11.912,4.549a4.173,4.173,0,0,1-3.109-1.208,4.381,4.381,0,0,1-1.191-3.217v-.249a5.389,5.389,0,0,1,.519-2.4,3.949,3.949,0,0,1,1.457-1.648,3.851,3.851,0,0,1,2.092-.589,3.525,3.525,0,0,1,2.835,1.17,4.949,4.949,0,0,1,1,3.312v.813H91a2.7,2.7,0,0,0,.743,1.76,2.23,2.23,0,0,0,1.639.647,2.731,2.731,0,0,0,2.258-1.121l1.087,1.038a3.631,3.631,0,0,1-1.44,1.249A4.509,4.509,0,0,1,93.268,16.166Zm-.241-7.695a1.7,1.7,0,0,0-1.341.581,3.012,3.012,0,0,0-.652,1.619h3.843v-.149a2.452,2.452,0,0,0-.54-1.531A1.686,1.686,0,0,0,93.027,8.471Zm9.1,6.084a1.824,1.824,0,0,0,1.253-.44,1.5,1.5,0,0,0,.531-1.087h1.9a2.963,2.963,0,0,1-.523,1.565,3.43,3.43,0,0,1-1.328,1.15,3.958,3.958,0,0,1-1.81.423,3.829,3.829,0,0,1-2.988-1.22,4.84,4.84,0,0,1-1.1-3.37v-.208a4.759,4.759,0,0,1,1.1-3.283,3.8,3.8,0,0,1,2.988-1.233,3.69,3.69,0,0,1,2.611.934,3.345,3.345,0,0,1,1.058,2.453h-1.9a1.847,1.847,0,0,0-.527-1.27,1.7,1.7,0,0,0-1.258-.5,1.775,1.775,0,0,0-1.511.71,3.621,3.621,0,0,0-.54,2.154v.324a3.681,3.681,0,0,0,.527,2.179A1.773,1.773,0,0,0,102.125,14.556ZM109.479,16h-2.017V7.019h2.017ZM107.337,4.686a1.071,1.071,0,0,1,.295-.772,1.113,1.113,0,0,1,.843-.307,1.127,1.127,0,0,1,.847.307,1.062,1.062,0,0,1,.3.772,1.038,1.038,0,0,1-.3.76,1.136,1.136,0,0,1-.847.3,1.122,1.122,0,0,1-.843-.3A1.046,1.046,0,0,1,107.337,4.686Zm9.372,8.874a.914.914,0,0,0-.444-.822,4.723,4.723,0,0,0-1.473-.5,7.574,7.574,0,0,1-1.718-.548,2.293,2.293,0,0,1-1.511-2.117,2.391,2.391,0,0,1,.979-1.942,3.872,3.872,0,0,1,2.49-.78,4.029,4.029,0,0,1,2.6.8,2.529,2.529,0,0,1,.992,2.067h-2.017a1.243,1.243,0,0,0-.432-.967,1.654,1.654,0,0,0-1.146-.386,1.787,1.787,0,0,0-1.083.307.968.968,0,0,0-.419.822.818.818,0,0,0,.39.722,5.365,5.365,0,0,0,1.577.519,7.466,7.466,0,0,1,1.864.623,2.639,2.639,0,0,1,1,.867,2.212,2.212,0,0,1,.328,1.229,2.34,2.34,0,0,1-1,1.963,4.283,4.283,0,0,1-2.631.751,4.644,4.644,0,0,1-1.967-.4,3.238,3.238,0,0,1-1.345-1.1,2.594,2.594,0,0,1-.481-1.5h1.959a1.421,1.421,0,0,0,.54,1.1,2.1,2.1,0,0,0,1.32.386,2.04,2.04,0,0,0,1.212-.3A.938.938,0,0,0,116.709,13.56ZM122.594,16h-2.017V7.019h2.017ZM120.453,4.686a1.071,1.071,0,0,1,.295-.772,1.113,1.113,0,0,1,.843-.307,1.127,1.127,0,0,1,.847.307,1.062,1.062,0,0,1,.3.772,1.038,1.038,0,0,1-.3.76,1.136,1.136,0,0,1-.847.3,1.122,1.122,0,0,1-.843-.3A1.046,1.046,0,0,1,120.453,4.686Zm3.959,6.74a5.3,5.3,0,0,1,.523-2.378A3.819,3.819,0,0,1,126.4,7.421a4.14,4.14,0,0,1,2.175-.569,3.923,3.923,0,0,1,2.951,1.17,4.6,4.6,0,0,1,1.224,3.1l.008.473a5.343,5.343,0,0,1-.51,2.374,3.773,3.773,0,0,1-1.461,1.619,4.17,4.17,0,0,1-2.2.573,3.9,3.9,0,0,1-3.042-1.266,4.848,4.848,0,0,1-1.141-3.374Zm2.017.174A3.619,3.619,0,0,0,127,13.771a1.862,1.862,0,0,0,1.594.784,1.842,1.842,0,0,0,1.59-.8,4,4,0,0,0,.569-2.333,3.572,3.572,0,0,0-.585-2.158,1.973,1.973,0,0,0-3.158-.012A3.922,3.922,0,0,0,126.429,11.6Zm9.911-4.582.058,1.038a3.229,3.229,0,0,1,2.615-1.2q2.806,0,2.855,3.212V16h-2.017V10.181a1.85,1.85,0,0,0-.369-1.266,1.554,1.554,0,0,0-1.208-.411,1.944,1.944,0,0,0-1.818,1.1V16h-2.017V7.019Zm11.538,9.147a4.173,4.173,0,0,1-3.109-1.208,4.381,4.381,0,0,1-1.191-3.217v-.249a5.389,5.389,0,0,1,.519-2.4,3.949,3.949,0,0,1,1.457-1.648,3.851,3.851,0,0,1,2.092-.589,3.525,3.525,0,0,1,2.835,1.17,4.949,4.949,0,0,1,1,3.312v.813h-5.869a2.7,2.7,0,0,0,.743,1.76,2.23,2.23,0,0,0,1.639.647,2.731,2.731,0,0,0,2.258-1.121l1.087,1.038a3.631,3.631,0,0,1-1.44,1.249A4.509,4.509,0,0,1,147.878,16.166Zm-.241-7.695a1.7,1.7,0,0,0-1.341.581,3.012,3.012,0,0,0-.652,1.619h3.843v-.149a2.452,2.452,0,0,0-.54-1.531A1.686,1.686,0,0,0,147.638,8.471ZM158.08,13.56a.914.914,0,0,0-.444-.822,4.723,4.723,0,0,0-1.473-.5,7.574,7.574,0,0,1-1.718-.548,2.293,2.293,0,0,1-1.511-2.117,2.391,2.391,0,0,1,.979-1.942,3.872,3.872,0,0,1,2.49-.78,4.029,4.029,0,0,1,2.6.8A2.529,2.529,0,0,1,160,9.716H157.98a1.243,1.243,0,0,0-.432-.967,1.654,1.654,0,0,0-1.146-.386,1.787,1.787,0,0,0-1.083.307.968.968,0,0,0-.419.822.818.818,0,0,0,.39.722,5.365,5.365,0,0,0,1.577.519,7.466,7.466,0,0,1,1.864.623,2.639,2.639,0,0,1,1,.867,2.212,2.212,0,0,1,.328,1.229,2.34,2.34,0,0,1-1,1.963,4.283,4.283,0,0,1-2.631.751,4.644,4.644,0,0,1-1.967-.4,3.238,3.238,0,0,1-1.345-1.1,2.594,2.594,0,0,1-.481-1.5h1.959a1.421,1.421,0,0,0,.54,1.1,2.1,2.1,0,0,0,1.32.386,2.04,2.04,0,0,0,1.212-.3A.938.938,0,0,0,158.08,13.56Z" transform="translate(866 3143.85)" fill="#12263f"/>
    <path id="Path_613329" data-name="Path 613329" d="M0,0H55V4H0Z" transform="translate(932 3170.047)" fill="#615842"/>
    <path id="Path_613330" data-name="Path 613330" d="M9,0H190a9,9,0,0,1,9,9V28.2a9,9,0,0,1-9,9H9a9,9,0,0,1-9-9V9A9,9,0,0,1,9,0Z" transform="translate(1077 3171.001)" fill="#ddf1ff"/>
    <path id="Path_613331" data-name="Path 613331" d="M30.231,12.065A4.364,4.364,0,0,1,28.8,15.083a4.867,4.867,0,0,1-3.312,1.083,4.713,4.713,0,0,1-2.544-.685,4.5,4.5,0,0,1-1.7-1.947,7.024,7.024,0,0,1-.623-2.93V9.476a7.075,7.075,0,0,1,.606-3.013,4.567,4.567,0,0,1,1.739-2.009,4.851,4.851,0,0,1,2.619-.706,4.672,4.672,0,0,1,3.221,1.083A4.527,4.527,0,0,1,30.231,7.9H28.14a2.985,2.985,0,0,0-.76-1.88,2.51,2.51,0,0,0-1.789-.577,2.452,2.452,0,0,0-2.1,1,5,5,0,0,0-.751,2.937v1.072a5.308,5.308,0,0,0,.7,2.991,2.328,2.328,0,0,0,2.054,1.03,2.715,2.715,0,0,0,1.859-.556,2.9,2.9,0,0,0,.789-1.851Zm1.3-.639a5.3,5.3,0,0,1,.523-2.378,3.819,3.819,0,0,1,1.469-1.627A4.14,4.14,0,0,1,35.7,6.853a3.923,3.923,0,0,1,2.951,1.17,4.6,4.6,0,0,1,1.224,3.1l.008.473a5.343,5.343,0,0,1-.51,2.374,3.773,3.773,0,0,1-1.461,1.619,4.17,4.17,0,0,1-2.2.573A3.9,3.9,0,0,1,32.676,14.9a4.848,4.848,0,0,1-1.141-3.374Zm2.017.174a3.619,3.619,0,0,0,.573,2.171,1.862,1.862,0,0,0,1.594.784,1.842,1.842,0,0,0,1.59-.8,4,4,0,0,0,.569-2.333,3.572,3.572,0,0,0-.585-2.158,1.973,1.973,0,0,0-3.158-.012A3.922,3.922,0,0,0,33.552,11.6Zm9.936-4.582.058.938a3.232,3.232,0,0,1,2.59-1.1A2.483,2.483,0,0,1,48.6,8.23a3.186,3.186,0,0,1,2.756-1.378,2.8,2.8,0,0,1,2.212.822,3.618,3.618,0,0,1,.743,2.424V16H52.295V10.156A1.786,1.786,0,0,0,51.921,8.9a1.635,1.635,0,0,0-1.237-.4,1.679,1.679,0,0,0-1.125.369,1.948,1.948,0,0,0-.61.967L48.958,16H46.941V10.09A1.439,1.439,0,0,0,45.322,8.5a1.776,1.776,0,0,0-1.718.988V16H41.587V7.019ZM64.248,11.6a5.348,5.348,0,0,1-.946,3.324,3.287,3.287,0,0,1-4.906.27v4.258H56.379V7.019h1.859l.083.913a2.963,2.963,0,0,1,2.416-1.079,3.062,3.062,0,0,1,2.577,1.224,5.49,5.49,0,0,1,.934,3.4Zm-2.009-.174A3.746,3.746,0,0,0,61.7,9.293,1.741,1.741,0,0,0,60.172,8.5,1.856,1.856,0,0,0,58.4,9.525V13.51a1.873,1.873,0,0,0,1.793,1.046A1.739,1.739,0,0,0,61.7,13.78,4.124,4.124,0,0,0,62.239,11.426ZM71.32,16a3.113,3.113,0,0,1-.232-.838,3.393,3.393,0,0,1-4.565.232,2.47,2.47,0,0,1-.855-1.909,2.55,2.55,0,0,1,1.067-2.2,5.169,5.169,0,0,1,3.051-.768h1.237V9.924a1.573,1.573,0,0,0-.39-1.116,1.547,1.547,0,0,0-1.187-.419,1.777,1.777,0,0,0-1.129.344,1.066,1.066,0,0,0-.44.876H65.858a2.239,2.239,0,0,1,.49-1.382A3.263,3.263,0,0,1,67.68,7.218a4.68,4.68,0,0,1,1.88-.365,3.769,3.769,0,0,1,2.515.793,2.827,2.827,0,0,1,.963,2.229v4.051a4.591,4.591,0,0,0,.34,1.934V16ZM69.1,14.547a2.294,2.294,0,0,0,1.125-.291,1.941,1.941,0,0,0,.793-.78V11.783H69.934a2.973,2.973,0,0,0-1.685.39,1.264,1.264,0,0,0-.564,1.1,1.179,1.179,0,0,0,.386.926A1.5,1.5,0,0,0,69.1,14.547Zm10.75-5.686a4.991,4.991,0,0,0-.822-.066,1.85,1.85,0,0,0-1.868,1.063V16H75.147V7.019h1.926l.05,1a2.273,2.273,0,0,1,2.025-1.17,1.888,1.888,0,0,1,.714.116ZM86.245,16a3.113,3.113,0,0,1-.232-.838,3.393,3.393,0,0,1-4.565.232,2.47,2.47,0,0,1-.855-1.909,2.55,2.55,0,0,1,1.067-2.2,5.169,5.169,0,0,1,3.051-.768h1.237V9.924a1.573,1.573,0,0,0-.39-1.116,1.547,1.547,0,0,0-1.187-.419,1.777,1.777,0,0,0-1.129.344,1.066,1.066,0,0,0-.44.876H80.783a2.239,2.239,0,0,1,.49-1.382,3.263,3.263,0,0,1,1.332-1.009,4.68,4.68,0,0,1,1.88-.365A3.769,3.769,0,0,1,87,7.645a2.827,2.827,0,0,1,.963,2.229v4.051a4.591,4.591,0,0,0,.34,1.934V16Zm-2.216-1.453a2.294,2.294,0,0,0,1.125-.291,1.941,1.941,0,0,0,.793-.78V11.783H84.859a2.973,2.973,0,0,0-1.685.39,1.264,1.264,0,0,0-.564,1.1A1.179,1.179,0,0,0,83,14.2,1.5,1.5,0,0,0,84.029,14.547Zm10.75-5.686a4.991,4.991,0,0,0-.822-.066,1.85,1.85,0,0,0-1.868,1.063V16H90.072V7.019H92l.05,1a2.273,2.273,0,0,1,2.025-1.17,1.888,1.888,0,0,1,.714.116Zm8.649,4.25,1.826-6.093h2.15l-3.569,10.343a2.9,2.9,0,0,1-2.789,2.266,3.6,3.6,0,0,1-.971-.15V17.909l.382.025a1.964,1.964,0,0,0,1.15-.278,1.842,1.842,0,0,0,.61-.933l.291-.771L99.352,7.019h2.175Zm13.323,3.055a4.173,4.173,0,0,1-3.109-1.208,4.381,4.381,0,0,1-1.191-3.217v-.249a5.389,5.389,0,0,1,.519-2.4,3.949,3.949,0,0,1,1.457-1.648,3.851,3.851,0,0,1,2.092-.589,3.525,3.525,0,0,1,2.835,1.17,4.949,4.949,0,0,1,1,3.312v.813h-5.869a2.7,2.7,0,0,0,.743,1.76,2.23,2.23,0,0,0,1.639.647,2.731,2.731,0,0,0,2.258-1.121l1.087,1.038a3.631,3.631,0,0,1-1.44,1.249A4.509,4.509,0,0,1,116.75,16.166Zm-.241-7.695a1.7,1.7,0,0,0-1.341.581,3.012,3.012,0,0,0-.652,1.619h3.843v-.149a2.452,2.452,0,0,0-.54-1.531A1.686,1.686,0,0,0,116.51,8.471Zm8.467,4.972,1.9-6.425h2.083L125.848,16H124.1l-3.138-8.981h2.092ZM135.46,16a3.113,3.113,0,0,1-.232-.838,3.393,3.393,0,0,1-4.565.232,2.47,2.47,0,0,1-.855-1.909,2.55,2.55,0,0,1,1.067-2.2,5.169,5.169,0,0,1,3.051-.768h1.237V9.924a1.573,1.573,0,0,0-.39-1.116,1.547,1.547,0,0,0-1.187-.419,1.777,1.777,0,0,0-1.129.344,1.066,1.066,0,0,0-.44.876H130a2.239,2.239,0,0,1,.49-1.382,3.263,3.263,0,0,1,1.332-1.009,4.68,4.68,0,0,1,1.88-.365,3.769,3.769,0,0,1,2.515.793,2.827,2.827,0,0,1,.963,2.229v4.051a4.591,4.591,0,0,0,.34,1.934V16Zm-2.216-1.453a2.294,2.294,0,0,0,1.125-.291,1.941,1.941,0,0,0,.793-.78V11.783h-1.087a2.973,2.973,0,0,0-1.685.39,1.264,1.264,0,0,0-.564,1.1,1.179,1.179,0,0,0,.386.926A1.5,1.5,0,0,0,133.244,14.547ZM141.437,16H139.42V3.25h2.017Zm7.637-.88a3.128,3.128,0,0,1-2.523,1.046,2.788,2.788,0,0,1-2.212-.855,3.637,3.637,0,0,1-.751-2.474V7.019H145.6v5.794q0,1.71,1.419,1.71a1.993,1.993,0,0,0,1.984-1.054V7.019h2.017V16h-1.9Zm9.372.88a3.113,3.113,0,0,1-.232-.838,3.393,3.393,0,0,1-4.565.232,2.47,2.47,0,0,1-.855-1.909,2.55,2.55,0,0,1,1.067-2.2,5.169,5.169,0,0,1,3.051-.768h1.237V9.924a1.573,1.573,0,0,0-.39-1.116,1.547,1.547,0,0,0-1.187-.419,1.777,1.777,0,0,0-1.129.344,1.066,1.066,0,0,0-.44.876h-2.017a2.239,2.239,0,0,1,.49-1.382,3.263,3.263,0,0,1,1.332-1.009,4.68,4.68,0,0,1,1.88-.365,3.769,3.769,0,0,1,2.515.793,2.827,2.827,0,0,1,.963,2.229v4.051a4.591,4.591,0,0,0,.34,1.934V16Zm-2.216-1.453a2.294,2.294,0,0,0,1.125-.291,1.941,1.941,0,0,0,.793-.78V11.783h-1.087a2.973,2.973,0,0,0-1.685.39,1.264,1.264,0,0,0-.564,1.1,1.179,1.179,0,0,0,.386.926A1.5,1.5,0,0,0,156.229,14.547Zm10.75-5.686a4.991,4.991,0,0,0-.822-.066,1.85,1.85,0,0,0-1.868,1.063V16h-2.017V7.019H164.2l.05,1a2.273,2.273,0,0,1,2.025-1.17,1.888,1.888,0,0,1,.714.116Z" transform="translate(1083 3179.832)" fill="#12263f"/>
    <path id="Path_613332" data-name="Path 613332" d="M0,0H55V4H0Z" transform="translate(1149 3206.198)" fill="#615842"/>
    <path id="Path_613333" data-name="Path 613333" d="M6.5,0A6.5,6.5,0,1,1,0,6.5,6.5,6.5,0,0,1,6.5,0Z" transform="translate(421.5 3279.698)" fill="#615842"/>
    <path id="Path_613334" data-name="Path 613334" d="M0,0V69.5" transform="translate(428 3210.198)" fill="none" stroke="#615842" stroke-width="2"/>
    <path id="Path_613335" data-name="Path 613335" d="M6.5,0A6.5,6.5,0,1,1,0,6.5,6.5,6.5,0,0,1,6.5,0Z" transform="translate(738 3265.649)" fill="#615842"/>
    <path id="Path_613336" data-name="Path 613336" d="M0,0V122.6" transform="translate(744.5 3143.051)" fill="none" stroke="#615842" stroke-width="2"/>
    <path id="Path_613337" data-name="Path 613337" d="M6.5,0A6.5,6.5,0,1,1,0,6.5,6.5,6.5,0,0,1,6.5,0Z" transform="translate(954 3353.047)" fill="#615842"/>
    <path id="Path_613338" data-name="Path 613338" d="M0,0V181.7" transform="translate(960.5 3171.35)" fill="none" stroke="#615842" stroke-width="2"/>
    <path id="Path_613339" data-name="Path 613339" d="M6.5,0A6.5,6.5,0,1,1,0,6.5,6.5,6.5,0,0,1,6.5,0Z" transform="translate(1170 3279.698)" fill="#615842"/>
    <path id="Path_613340" data-name="Path 613340" d="M0,0V69.5" transform="translate(1176.5 3210.198)" fill="none" stroke="#615842" stroke-width="2"/>
  </g>
</svg>
