<svg xmlns="http://www.w3.org/2000/svg" xmlns:xlink="http://www.w3.org/1999/xlink" width="139" height="139" viewBox="0 0 139 139">
  <defs>
    <clipPath id="clip-path">
      <rect id="Rectangle_378624" data-name="Rectangle 378624" width="98.719" height="101.809" fill="none"/>
    </clipPath>
  </defs>
  <g id="Group_1074139" data-name="Group 1074139" transform="translate(-1434.668 -5882)">
    <g id="Group_1072229" data-name="Group 1072229" transform="translate(1434.668 5882)">
      <path id="Path_608385" data-name="Path 608385" d="M69.5,0A69.5,69.5,0,1,1,0,69.5,69.5,69.5,0,0,1,69.5,0Z" transform="translate(0)" fill="#fff"/>
    </g>
    <g id="Group_1074190" data-name="Group 1074190" transform="translate(1453.449 5897.969)">
      <g id="Group_1074189" data-name="Group 1074189" clip-path="url(#clip-path)">
        <path id="Path_612243" data-name="Path 612243" d="M183.126,123.267q-19.406,0-38.813.011a3,3,0,0,1-1.868-.745,2.666,2.666,0,0,1-1.011-2.3q.005-25.711-.024-51.422a3.17,3.17,0,0,1,2.467-3.024,5.831,5.831,0,0,1,1.116-.119c2.117.012,4.234.006,6.351.006l1.96,0a.778.778,0,0,1,.062.549c-.128,1.314-.02,2.632-.071,3.947a1.081,1.081,0,0,0,.872,1.17,2.685,2.685,0,0,0,.792.069q9.221,0,18.441,0a4.076,4.076,0,0,0,.517-.016c.9-.115,1.21-.463,1.219-1.382.012-1.379.018-2.759.026-4.139l.148-.1a.98.98,0,0,1,.543-.1q2.222,0,4.444,0l2.833,0c0,.078,0,.157,0,.235q0,28.677,0,57.355m-26.724-11.2q0-1.34,0-2.68a1.806,1.806,0,0,0-1.524-1.742,40.881,40.881,0,0,0-5.445-.05,2.054,2.054,0,0,0-2.061,2.261q-.012,2.3,0,4.607a2.058,2.058,0,0,0,2.042,2.129c.482.035.954-.012,1.43-.011,1.144,0,2.289-.024,3.432,0a1.968,1.968,0,0,0,2.14-2.167c-.063-.779-.012-1.566-.012-2.35m0-14.775c0-.863,0-1.725,0-2.587a1.853,1.853,0,0,0-1.616-1.838,34.518,34.518,0,0,0-5.164-.056,2.174,2.174,0,0,0-2.243,2.147c-.029,1.646-.026,3.293,0,4.939a1.941,1.941,0,0,0,1.749,1.9c1.834.027,3.669.031,5.5-.006a1.782,1.782,0,0,0,1.773-1.869c0-.878,0-1.756,0-2.634m0-14.663c0-.908.008-1.817,0-2.725a1.729,1.729,0,0,0-1.663-1.7c-1.754-.015-3.508-.008-5.262-.008a2,2,0,0,0-2.089,2.069c-.055,1.611-.032,3.226-.007,4.839a2.008,2.008,0,0,0,1.9,2.017q2.607.048,5.215,0a1.886,1.886,0,0,0,1.911-2q0-1.245,0-2.49m14.664,1.112h-5.6c-.862,0-1.724-.01-2.586,0a1.873,1.873,0,0,0-1.725,1.3,1.524,1.524,0,0,0,.6,1.659,2.242,2.242,0,0,0,1.464.406q7.734.007,15.469,0a4.609,4.609,0,0,0,.976-.112,1.481,1.481,0,0,0,1.291-1.452,1.735,1.735,0,0,0-1.759-1.806c-2.711-.006-5.423,0-8.134,0m-.06,12.422q4.067,0,8.134,0a1.789,1.789,0,0,0,1.809-1.282,1.656,1.656,0,0,0-1.283-1.958,2.636,2.636,0,0,0-.873-.148q-7.711.005-15.422,0a2.514,2.514,0,0,0-.282.006,2.057,2.057,0,0,0-1.913,1.281,1.674,1.674,0,0,0,1.743,2.1c2.7.007,5.392,0,8.087,0m-.019,20.337v.006q2.7,0,5.408,0c1,0,2.007,0,3.01-.01a1.782,1.782,0,0,0,1.61-1.475,1.569,1.569,0,0,0-1.189-1.643,3.713,3.713,0,0,0-1.107-.169q-7.713,0-15.425,0a4.426,4.426,0,0,0-1.155.174,1.7,1.7,0,0,0-1.032,1.858,1.842,1.842,0,0,0,1.7,1.272c2.728-.026,5.455-.011,8.183-.011m-.008-14.691h4.468c1.239,0,2.477.013,3.715,0a1.65,1.65,0,0,0,1.8-1.64,1.624,1.624,0,0,0-1.786-1.639c-.125,0-.251,0-.376,0H163.321c-.188,0-.377-.009-.564.007a1.616,1.616,0,0,0-1.356,2.529,1.707,1.707,0,0,0,1.488.752q4.044,0,8.09,0m.029-20.327q4.046,0,8.092,0a1.733,1.733,0,0,0,1.859-1.6c.02-1.069-.628-1.69-1.8-1.692q-6.563-.011-13.126-.007c-1.082,0-2.164-.008-3.246.009a1.68,1.68,0,0,0-1.638,1.245,1.6,1.6,0,0,0,.717,1.708,1.845,1.845,0,0,0,1.146.34q4-.008,8,0m-.021,29.361h3.106c1.725,0,3.45.007,5.175,0a1.7,1.7,0,0,0,1.683-1.3,1.576,1.576,0,0,0-1.113-1.833,3.9,3.9,0,0,0-1.16-.144q-7.646,0-15.292,0a5.241,5.241,0,0,0-.932.09,1.762,1.762,0,0,0-1.343,1.357,1.615,1.615,0,0,0,.877,1.633,1.841,1.841,0,0,0,.905.2q4.046-.005,8.093,0" transform="translate(-88.173 -40.946)" fill="#e7eaed"/>
        <path id="Path_612244" data-name="Path 612244" d="M33.706,65.677l7.8,0c0,.686,0,1.373-.005,2.06-.045,3.392.03,6.783-.056,10.176-.041,1.627.031,3.266.062,4.9,0,.27-.132.541-.078.785a14.6,14.6,0,0,1,.045,2.929c.042,2.016.045,4.035-.016,6.054-.027.868,0,1.763.027,2.645.033.981-.059,1.978-.018,2.949.047,1.12-.024,2.236.012,3.353.075,2.356.023,4.716.023,7.075v5.523q0,2.431,0,4.86,0,2.14,0,4.279-19.479,0-38.959,0a2.751,2.751,0,0,1-2.089-1.343A2.543,2.543,0,0,1,0,120.208Q0,94.541,0,68.874a2.759,2.759,0,0,1,1.942-2.921,3.613,3.613,0,0,1,1.413-.268c2.478-.015,4.956-.011,7.435,0a4.06,4.06,0,0,0,1.06,0q0,2.279.007,4.558a1.016,1.016,0,0,0,.882,1.094,2.916,2.916,0,0,0,.6.076q9.448.008,18.9,0c1.053,0,1.444-.417,1.448-1.46,0-1.425.014-2.851.022-4.276M12.894,116.533l.088,0c1.214-.113,1.615-.479,1.917-1.667a7.441,7.441,0,0,0,.079-1.307,15.7,15.7,0,0,0-.178-4.755,1.844,1.844,0,0,0-1.482-1.237c-1.8-.011-3.606-.028-5.408.009a1.8,1.8,0,0,0-1.887,1.993q0,2.586,0,5.173A1.594,1.594,0,0,0,7.77,116.51c1.708.017,3.416.016,5.125.023M6.025,97.385q0,.634,0,1.269,0,.658,0,1.316a1.735,1.735,0,0,0,1.84,1.851q2.538.005,5.076,0a1.844,1.844,0,0,0,2.01-1.8,29.553,29.553,0,0,0,.011-5.343,2.036,2.036,0,0,0-2.12-1.9q-2.233-.007-4.465,0a2.962,2.962,0,0,0-1.318.287,1.656,1.656,0,0,0-1.035,1.59c.01.908,0,1.818,0,2.726m0-14.676q0,1.245,0,2.49a1.787,1.787,0,0,0,1.826,1.928c1.707.033,3.415.039,5.121,0a1.819,1.819,0,0,0,1.873-1.405,7.943,7.943,0,0,0,.143-1.413,26.63,26.63,0,0,0,.05-3.329,5.664,5.664,0,0,0-.259-1.7,1.659,1.659,0,0,0-1.4-1.089c-1.864-.006-3.728-.011-5.591.011a1.69,1.69,0,0,0-1.764,1.831c0,.893,0,1.785,0,2.678m23.562,1.037H26.764c-1.786,0-3.573-.007-5.36,0a1.85,1.85,0,0,0-1.821,1.514,1.642,1.642,0,0,0,1.24,1.72,3.906,3.906,0,0,0,1.113.14q7.311,0,14.622.006a14.952,14.952,0,0,0,1.5-.091c.934-.093,1.879-1.3,1.376-2.15a2.047,2.047,0,0,0-1.853-1.144q-4,0-7.993,0m-.051,12.423c2.713,0,5.425.009,8.137-.006a1.87,1.87,0,0,0,1.722-1.022,1.289,1.289,0,0,0-.175-1.524,2.158,2.158,0,0,0-1.813-.831q-7.784-.016-15.568,0a2.77,2.77,0,0,0-1.351.344,1.538,1.538,0,0,0-.831,1.6,1.45,1.45,0,0,0,.93,1.242,2.044,2.044,0,0,0,.954.2c2.665-.007,5.331,0,8,0m.013,20.37v-.028c.925,0,1.85,0,2.775,0,1.865,0,3.731.006,5.6-.021a1.684,1.684,0,0,0,1.57-1.214,1.386,1.386,0,0,0-.48-1.511,2.5,2.5,0,0,0-1.976-.54c-5-.02-10-.009-15-.017a6.791,6.791,0,0,0-1.073.1,1.586,1.586,0,0,0-1.382,1.713,1.86,1.86,0,0,0,1.6,1.518q4.184,0,8.368,0m-.013-35.05c2.68,0,5.36,0,8.039,0a1.781,1.781,0,0,0,1.112-.308c1.07-.815,1.2-1.658.253-2.578a1.667,1.667,0,0,0-1.214-.415q-8.134,0-16.267,0c-.078,0-.157,0-.235,0A1.591,1.591,0,0,0,19.7,79.317a1.559,1.559,0,0,0,.811,1.915,1.889,1.889,0,0,0,1.031.259q4-.008,7.993,0m.06,17.042h-.705c-2.492,0-4.984,0-7.476,0a1.757,1.757,0,0,0-1.681,1.062,1.579,1.579,0,0,0,.559,1.845,2.014,2.014,0,0,0,1.28.378q7.946-.007,15.892,0a3.468,3.468,0,0,0,.376-.007,1.944,1.944,0,0,0,1.645-1.229c.268-.587-.059-1.033-.381-1.453a1.722,1.722,0,0,0-1.468-.6h-8.04M29.5,110.849q4.137,0,8.275,0a1.772,1.772,0,0,0,1.744-1.316,1.593,1.593,0,0,0-.719-1.611,2.869,2.869,0,0,0-1.722-.341q-7.546-.023-15.091-.007a6.808,6.808,0,0,0-1.027.088,1.547,1.547,0,0,0-1.294,1.5,1.564,1.564,0,0,0,1.7,1.686q4.066.007,8.133,0" transform="translate(0 -40.95)" fill="#e7eaed"/>
        <path id="Path_612245" data-name="Path 612245" d="M110.1,123.277q0-2.139,0-4.279,0-2.429,0-4.86v-5.524c0-2.359.053-4.719-.023-7.075-.036-1.117.035-2.232-.012-3.353-.041-.971.051-1.968.017-2.949-.03-.882-.053-1.777-.027-2.645.062-2.02.058-4.039.016-6.054a14.572,14.572,0,0,0-.045-2.929c-.054-.243.083-.514.078-.785-.031-1.634-.1-3.272-.061-4.9.085-3.393.011-6.784.056-10.176.009-.687,0-1.374,0-2.06a4.667,4.667,0,0,1,2.531.489,3,3,0,0,1,1.412,2.2,11.512,11.512,0,0,1,.1,2.246q0,24.7,0,49.4a3.05,3.05,0,0,1-2,3.13,1.491,1.491,0,0,1-.589.128c-.486-.008-.972,0-1.458-.005" transform="translate(-68.592 -40.958)" fill="#c4c4cb"/>
        <path id="Path_612246" data-name="Path 612246" d="M252.216,123.258q0-28.677,0-57.355c0-.078,0-.157,0-.235a3.845,3.845,0,0,1,2.352.465,2.6,2.6,0,0,1,1.41,2.307q0,26.108,0,52.217a2.676,2.676,0,0,1-1.359,2.256c-.761.541-1.6.283-2.406.346" transform="translate(-157.262 -40.938)" fill="#c4c4cb"/>
        <path id="Path_612247" data-name="Path 612247" d="M57.641,232.885a1.357,1.357,0,0,1,1.128.447c.674.679,1.321,1.388,2.033,2.024a28.721,28.721,0,0,0,4.768,3.484,35.52,35.52,0,0,0,3.187,1.647,33.471,33.471,0,0,0,5.9,2.042,35.209,35.209,0,0,0,3.893.725c1.195.149,2.386.282,3.588.369,1.062.077,2.12,0,3.174.029,1.256.034,2.475-.215,3.716-.235.8-.013,1.552-.313,2.319-.394.907-.1,1.774-.354,2.671-.473a13.526,13.526,0,0,0,2.033-.606,34.085,34.085,0,0,0,4.2-1.635,28.966,28.966,0,0,0,6.236-3.828,30.811,30.811,0,0,0,3.255-3.068,1.659,1.659,0,0,1,2.322-.144,1.623,1.623,0,0,1,.175,2.165,24.131,24.131,0,0,1-2.455,2.5,28.665,28.665,0,0,1-3.6,2.765,34.8,34.8,0,0,1-5.169,2.8,40.494,40.494,0,0,1-8.846,2.713c-1.56.29-3.138.43-4.71.622-1.2.146-2.4.118-3.6.165-1.244.049-2.452-.243-3.682-.307a27.123,27.123,0,0,1-3.381-.44,33.217,33.217,0,0,1-3.69-.832c-.565-.169-1.146-.257-1.707-.463-1.3-.477-2.59-.964-3.863-1.505-1.052-.447-2.065-.972-3.067-1.513a16.4,16.4,0,0,1-2.072-1.233,44.2,44.2,0,0,1-4.013-3.22,17.387,17.387,0,0,1-1.67-1.7,2.581,2.581,0,0,1-.692-1.358,1.623,1.623,0,0,1,1.419-1.546c.078-.006.157,0,.2,0" transform="translate(-34.932 -145.196)" fill="#5e5a55"/>
        <path id="Path_612248" data-name="Path 612248" d="M79.554.331c.666-.061,1.33-.129,2-.181A27.062,27.062,0,0,1,85.387.03c.965.061,1.928.121,2.889.224a40.981,40.981,0,0,1,6.268,1.076c.922.247,1.846.494,2.763.763.615.181,1.181.457,1.782.656a32.487,32.487,0,0,1,6.734,3.341,30.891,30.891,0,0,1,3.526,2.566c.83.688,1.5,1.535,2.325,2.221a2.848,2.848,0,0,1,.845,1.353,1.838,1.838,0,0,1-.553,1.609,1.9,1.9,0,0,1-1.58.183,6.423,6.423,0,0,1-1.342-1.161,14.679,14.679,0,0,0-2.79-2.544c-.493-.352-.945-.764-1.45-1.108a26.661,26.661,0,0,0-4.558-2.563A9.85,9.85,0,0,0,98.2,5.857a5.961,5.961,0,0,1-1.05-.44,32.813,32.813,0,0,0-3.656-1.075C92.3,4,91.061,3.952,89.876,3.61a.982.982,0,0,0-.23-.04A51.293,51.293,0,0,0,83,3.294a56.163,56.163,0,0,0-5.951.667,39.49,39.49,0,0,0-7.183,2.046,30.006,30.006,0,0,0-6.346,3.432,27.507,27.507,0,0,0-4.831,4.339,1.576,1.576,0,0,1-2.164-.146c-.719-.93-.676-1.444.089-2.346A27.7,27.7,0,0,1,62.3,6.355a34.406,34.406,0,0,1,7.624-3.823,44.581,44.581,0,0,1,8.3-2.068c.44-.069.885-.107,1.328-.16,0,.009,0,.018,0,.027" transform="translate(-34.924 0)" fill="#5e5a55"/>
        <path id="Path_612249" data-name="Path 612249" d="M53.332,56.838c-.008,1.425-.017,2.851-.022,4.276,0,1.042-.4,1.458-1.448,1.459q-9.448.007-18.9,0a2.942,2.942,0,0,1-.6-.076,1.017,1.017,0,0,1-.883-1.094q-.007-2.28-.007-4.559c.008-.266,0-.535.03-.8a1.056,1.056,0,0,1,1.019-.8c1.63-.015,3.261-.014,4.891-.019l.042.009.043,0c.185.045.191-.152.294-.218l.032-.01v-.032a4.6,4.6,0,0,1,4.484-3.406c.385.011.91-.149,1.127-.006.386.253.82.353,1.2.58a4.836,4.836,0,0,1,2.276,2.724.457.457,0,0,0,.5.38c1.317-.02,2.634-.014,3.951-.021a3.178,3.178,0,0,0,.466-.043,1.183,1.183,0,0,1,1.474,1.141c.017.171.014.344.021.517M42.416,54.206A1.3,1.3,0,0,0,41.13,55.44a1.483,1.483,0,0,0,1.277,1.294A1.371,1.371,0,0,0,43.619,55.5a1.4,1.4,0,0,0-1.2-1.291" transform="translate(-19.625 -32.112)" fill="#ecac62"/>
        <path id="Path_612250" data-name="Path 612250" d="M194.842,57.081c-.008,1.38-.014,2.76-.026,4.139-.008.919-.315,1.267-1.219,1.382a4.076,4.076,0,0,1-.517.016q-9.221,0-18.441,0a2.685,2.685,0,0,1-.792-.069,1.081,1.081,0,0,1-.872-1.17c.051-1.315-.056-2.633.071-3.947a.778.778,0,0,0-.062-.549c.014-.277.015-.555.044-.83a1.03,1.03,0,0,1,1.087-.769c1.5-.011,3.007-.025,4.509,0a.688.688,0,0,0,.764-.515,4.927,4.927,0,0,1,3.331-3.055,4.3,4.3,0,0,1,2.318.029,4.617,4.617,0,0,1,3.4,3.17.47.47,0,0,0,.544.372c1.423-.067,2.847.019,4.271-.052.67-.033,1.34.074,1.556.87a3.744,3.744,0,0,1,.035.858c0,.039,0,.078,0,.117m-9.721-1.528a1.241,1.241,0,0,0-1.237-1.3,1.429,1.429,0,0,0-1.218,1.269,1.4,1.4,0,0,0,1.222,1.272,1.42,1.42,0,0,0,1.233-1.238" transform="translate(-107.853 -32.155)" fill="#ecac62"/>
        <path id="Path_612251" data-name="Path 612251" d="M231.06,66.015V65.9l.148.017-.147.1" transform="translate(-144.071 -41.089)" fill="#c4c4cb"/>
        <path id="Path_612252" data-name="Path 612252" d="M48.294,60.721v.032l-.032.01a.133.133,0,0,1,.033-.042" transform="translate(-30.092 -37.861)" fill="#e7eaed"/>
        <path id="Path_612253" data-name="Path 612253" d="M47.337,61.354l-.043,0-.042-.01c.032-.042.06-.037.085.006" transform="translate(-29.463 -38.234)" fill="#c4c4cb"/>
        <path id="Path_612254" data-name="Path 612254" d="M166.262,181.4c0,.783-.051,1.571.012,2.35a1.968,1.968,0,0,1-2.139,2.167c-1.143-.026-2.288,0-3.432,0-.477,0-.948.045-1.43.011a2.058,2.058,0,0,1-2.042-2.129q-.013-2.3,0-4.607a2.054,2.054,0,0,1,2.061-2.261,40.947,40.947,0,0,1,5.446.05,1.806,1.806,0,0,1,1.524,1.742c0,.893,0,1.786,0,2.68" transform="translate(-98.034 -110.278)" fill="#ecac62"/>
        <path id="Path_612255" data-name="Path 612255" d="M166.252,142.136c0,.878,0,1.756,0,2.634a1.781,1.781,0,0,1-1.773,1.869c-1.833.037-3.669.034-5.5.006a1.941,1.941,0,0,1-1.748-1.9c-.024-1.646-.027-3.293,0-4.939a2.174,2.174,0,0,1,2.243-2.147,34.51,34.51,0,0,1,5.163.056,1.854,1.854,0,0,1,1.616,1.838c0,.862,0,1.725,0,2.587" transform="translate(-98.023 -85.788)" fill="#ecac62"/>
        <path id="Path_612256" data-name="Path 612256" d="M166.24,103.373q0,1.245,0,2.49a1.885,1.885,0,0,1-1.911,2q-2.606.054-5.215,0a2.008,2.008,0,0,1-1.9-2.017c-.025-1.613-.048-3.228.007-4.839a2,2,0,0,1,2.089-2.069c1.754,0,3.508-.008,5.262.008a1.729,1.729,0,0,1,1.663,1.7c.009.908,0,1.817,0,2.725" transform="translate(-98.011 -61.688)" fill="#ecac62"/>
        <path id="Path_612257" data-name="Path 612257" d="M203.664,113.67c2.711,0,5.423,0,8.134,0a1.735,1.735,0,0,1,1.759,1.806,1.481,1.481,0,0,1-1.291,1.452,4.659,4.659,0,0,1-.976.112q-7.734.008-15.469,0a2.243,2.243,0,0,1-1.464-.406,1.525,1.525,0,0,1-.6-1.66,1.873,1.873,0,0,1,1.725-1.3c.862-.014,1.724,0,2.586,0h5.6" transform="translate(-120.771 -70.874)" fill="#948998"/>
        <path id="Path_612258" data-name="Path 612258" d="M203.593,141.057c-2.7,0-5.392,0-8.087,0a1.674,1.674,0,0,1-1.743-2.1,2.058,2.058,0,0,1,1.913-1.281,2.512,2.512,0,0,1,.282-.005q7.711,0,15.422,0a2.635,2.635,0,0,1,.873.148,1.656,1.656,0,0,1,1.283,1.958,1.788,1.788,0,0,1-1.809,1.282q-4.068.009-8.134,0" transform="translate(-120.76 -85.839)" fill="#948998"/>
        <path id="Path_612259" data-name="Path 612259" d="M203.552,195.238c-2.728,0-5.456-.015-8.183.011a1.843,1.843,0,0,1-1.7-1.272,1.7,1.7,0,0,1,1.032-1.858,4.428,4.428,0,0,1,1.155-.174l15.425,0a3.711,3.711,0,0,1,1.107.169,1.57,1.57,0,0,1,1.189,1.643,1.783,1.783,0,0,1-1.61,1.475c-1,.009-2.007.009-3.01.01q-2.7,0-5.408,0Z" transform="translate(-120.738 -119.682)" fill="#948998"/>
        <path id="Path_612260" data-name="Path 612260" d="M203.594,156.222q-4.045,0-8.09,0a1.707,1.707,0,0,1-1.488-.752,1.616,1.616,0,0,1,1.356-2.529c.187-.015.376-.006.564-.006h15.474c.125,0,.251,0,.376,0a1.624,1.624,0,0,1,1.786,1.639,1.65,1.65,0,0,1-1.8,1.64c-1.238.018-2.477,0-3.716,0h-4.468" transform="translate(-120.789 -95.357)" fill="#948998"/>
        <path id="Path_612261" data-name="Path 612261" d="M203.6,102.21q-4,0-8,0a1.848,1.848,0,0,1-1.146-.34,1.6,1.6,0,0,1-.717-1.708,1.68,1.68,0,0,1,1.638-1.245c1.082-.017,2.164-.009,3.246-.009q6.563,0,13.126.007c1.175,0,1.823.622,1.8,1.691a1.732,1.732,0,0,1-1.859,1.6q-4.046.007-8.092,0" transform="translate(-120.768 -61.672)" fill="#948998"/>
        <path id="Path_612262" data-name="Path 612262" d="M203.582,180.234q-4.046,0-8.093,0a1.841,1.841,0,0,1-.905-.2,1.615,1.615,0,0,1-.877-1.634,1.763,1.763,0,0,1,1.343-1.357,5.311,5.311,0,0,1,.932-.09q7.646-.007,15.292,0a3.917,3.917,0,0,1,1.16.144,1.576,1.576,0,0,1,1.113,1.833,1.7,1.7,0,0,1-1.683,1.3c-1.725.01-3.45,0-5.175,0h-3.106" transform="translate(-120.77 -110.335)" fill="#948998"/>
        <path id="Path_612263" data-name="Path 612263" d="M16,142.275c0-.908.007-1.817,0-2.726a1.657,1.657,0,0,1,1.035-1.59,2.966,2.966,0,0,1,1.318-.286q2.232-.006,4.465,0a2.036,2.036,0,0,1,2.12,1.9,29.553,29.553,0,0,1-.011,5.343,1.844,1.844,0,0,1-2.01,1.8q-2.538,0-5.075,0A1.735,1.735,0,0,1,16,144.86c0-.439,0-.878,0-1.316q0-.634,0-1.269" transform="translate(-9.973 -85.84)" fill="#76b9e8"/>
        <path id="Path_612264" data-name="Path 612264" d="M22.87,185.9c-1.708-.007-3.417-.006-5.125-.023A1.6,1.6,0,0,1,16,184.109q0-2.586,0-5.172a1.8,1.8,0,0,1,1.887-1.994c1.8-.037,3.6-.019,5.407-.009a1.843,1.843,0,0,1,1.482,1.237,15.709,15.709,0,0,1,.179,4.756,7.447,7.447,0,0,1-.079,1.307c-.3,1.188-.7,1.554-1.917,1.667a.1.1,0,0,0-.088,0" transform="translate(-9.975 -110.314)" fill="#76b9e8"/>
        <path id="Path_612265" data-name="Path 612265" d="M16,103.425c0-.893,0-1.786,0-2.678a1.689,1.689,0,0,1,1.763-1.831c1.864-.023,3.727-.017,5.591-.012a1.66,1.66,0,0,1,1.4,1.09,5.659,5.659,0,0,1,.259,1.7,26.636,26.636,0,0,1-.05,3.329,7.884,7.884,0,0,1-.143,1.413,1.82,1.82,0,0,1-1.873,1.405c-1.706.041-3.415.035-5.121,0A1.787,1.787,0,0,1,16,105.915q0-1.245,0-2.49" transform="translate(-9.975 -61.666)" fill="#76b9e8"/>
        <path id="Path_612266" data-name="Path 612266" d="M61.993,113.672q4,0,7.993,0a2.047,2.047,0,0,1,1.853,1.145c.5.846-.441,2.057-1.376,2.15a14.947,14.947,0,0,1-1.5.091q-7.311-.01-14.622-.006a3.9,3.9,0,0,1-1.113-.141,1.641,1.641,0,0,1-1.24-1.719,1.851,1.851,0,0,1,1.821-1.515c1.787-.011,3.573,0,5.36,0h2.821" transform="translate(-32.407 -70.876)" fill="#948998"/>
        <path id="Path_612267" data-name="Path 612267" d="M62.076,141.06q-4,0-8,0a2.049,2.049,0,0,1-.954-.2,1.451,1.451,0,0,1-.93-1.242,1.54,1.54,0,0,1,.831-1.6,2.774,2.774,0,0,1,1.351-.344q7.784,0,15.568,0a2.159,2.159,0,0,1,1.813.831,1.289,1.289,0,0,1,.175,1.524,1.869,1.869,0,0,1-1.722,1.022c-2.712.015-5.425.006-8.137.006" transform="translate(-32.542 -85.841)" fill="#948998"/>
        <path id="Path_612268" data-name="Path 612268" d="M61.958,195.262q-4.184,0-8.368,0a1.859,1.859,0,0,1-1.6-1.517,1.588,1.588,0,0,1,1.382-1.713,6.836,6.836,0,0,1,1.073-.1c5,.008,10,0,15,.017a2.5,2.5,0,0,1,1.976.54A1.385,1.385,0,0,1,71.9,194a1.684,1.684,0,0,1-1.57,1.215c-1.865.027-3.731.017-5.6.021-.925,0-1.85,0-2.775,0v.027" transform="translate(-32.412 -119.674)" fill="#948998"/>
        <path id="Path_612269" data-name="Path 612269" d="M62.072,102.219q-4,0-7.993,0a1.888,1.888,0,0,1-1.031-.26,1.558,1.558,0,0,1-.811-1.915,1.591,1.591,0,0,1,1.523-1.119c.078-.006.157,0,.235,0q8.133,0,16.267,0a1.667,1.667,0,0,1,1.214.415c.951.92.817,1.763-.253,2.578a1.777,1.777,0,0,1-1.112.308c-2.679-.008-5.36,0-8.039,0" transform="translate(-32.538 -61.681)" fill="#948998"/>
        <path id="Path_612270" data-name="Path 612270" d="M62.107,152.943h8.04a1.721,1.721,0,0,1,1.468.6c.322.419.649.866.381,1.453a1.946,1.946,0,0,1-1.645,1.23,3.672,3.672,0,0,1-.376.006q-7.946,0-15.892,0a2.021,2.021,0,0,1-1.28-.378,1.579,1.579,0,0,1-.559-1.846,1.757,1.757,0,0,1,1.681-1.062c2.492-.007,4.984,0,7.476,0h.705" transform="translate(-32.513 -95.363)" fill="#948998"/>
        <path id="Path_612271" data-name="Path 612271" d="M62.067,180.232q-4.067,0-8.133,0a1.564,1.564,0,0,1-1.7-1.686,1.547,1.547,0,0,1,1.294-1.5,6.761,6.761,0,0,1,1.027-.088q7.546-.007,15.091.007a2.872,2.872,0,0,1,1.722.341,1.592,1.592,0,0,1,.719,1.611,1.773,1.773,0,0,1-1.744,1.317q-4.137.007-8.275,0" transform="translate(-32.568 -110.333)" fill="#948998"/>
        <path id="Path_612272" data-name="Path 612272" d="M34.25,200.749a.1.1,0,0,1,.088,0l-.088,0" transform="translate(-21.356 -125.166)" fill="#c4c4cb"/>
        <path id="Path_612273" data-name="Path 612273" d="M58.408,58.687a1.4,1.4,0,0,1,1.2,1.291A1.371,1.371,0,0,1,58.4,61.215a1.483,1.483,0,0,1-1.277-1.294,1.3,1.3,0,0,1,1.286-1.234" transform="translate(-35.617 -36.593)" fill="#e7eaed"/>
        <path id="Path_612274" data-name="Path 612274" d="M201.174,59.993a1.42,1.42,0,0,1-1.233,1.238,1.4,1.4,0,0,1-1.222-1.272,1.429,1.429,0,0,1,1.218-1.269,1.241,1.241,0,0,1,1.237,1.3" transform="translate(-123.906 -36.595)" fill="#e7eaed"/>
      </g>
    </g>
  </g>
</svg>
