<svg xmlns="http://www.w3.org/2000/svg" xmlns:xlink="http://www.w3.org/1999/xlink" width="139" height="139" viewBox="0 0 139 139">
  <defs>
    <clipPath id="clip-path">
      <rect id="Rectangle_378625" data-name="Rectangle 378625" width="93.036" height="92.409" fill="none"/>
    </clipPath>
  </defs>
  <g id="Group_1074140" data-name="Group 1074140" transform="translate(-1434.668 -5882)">
    <g id="Group_1072229" data-name="Group 1072229" transform="translate(1434.668 5882)">
      <path id="Path_608385" data-name="Path 608385" d="M69.5,0A69.5,69.5,0,1,1,0,69.5,69.5,69.5,0,0,1,69.5,0Z" transform="translate(0)" fill="#fff"/>
    </g>
    <g id="Group_1074192" data-name="Group 1074192" transform="translate(1457.65 5902.298)">
      <g id="Group_1074191" data-name="Group 1074191" clip-path="url(#clip-path)">
        <path id="Path_612275" data-name="Path 612275" d="M45.03,223.415a1.918,1.918,0,0,1-.567.081c-1.411,0-2.823.039-4.233.012-1.811-.034-3.622.009-5.432.024-10.147.083-20.294.007-30.441.039a4.679,4.679,0,0,1-1.984-.355,3.77,3.77,0,0,1-2.342-3.6c-.044-4.317-.035-8.635-.007-12.952a8.113,8.113,0,0,1,3.108-6.449,7.2,7.2,0,0,1,3.108-1.443c3.239-.682,6.5-1.226,9.743-1.9a6.511,6.511,0,0,0,1.8-.445.689.689,0,0,1,.122.164,5.008,5.008,0,0,0,1.577,2.156,5.808,5.808,0,0,0,4.115,1.321,5.544,5.544,0,0,0,4.629-3.22.875.875,0,0,1,.274-.4,26.775,26.775,0,0,0,3.509.768c1.988.391,3.976.78,5.97,1.136a17.837,17.837,0,0,1,2.978.675,7.97,7.97,0,0,1,4.155,3.508c.082.135.117.321.324.341.125.326.063.718.351.987a2.2,2.2,0,0,0,.035.244,10.841,10.841,0,0,1,.441,2.654q.021,7.256,0,14.511a2.149,2.149,0,0,1-1.233,2.148" transform="translate(0 -131.163)" fill="#e6d09d"/>
        <path id="Path_612276" data-name="Path 612276" d="M41.671,0C47.58,0,53.49-.005,59.4.01a4.454,4.454,0,0,1,2.73.757,3.886,3.886,0,0,1,1.75,3.207q.03,7.834,0,15.668a3.864,3.864,0,0,1-2.571,3.641c-.233.081-.446.2-.693.26-.3.073-.389.343-.386.651.009,1.021,0,2.042,0,3.063,0,.593-.009,1.187,0,1.78a.946.946,0,0,1-.476.981c-.412.179-.764-.071-1.064-.37-1.857-1.856-3.722-3.705-5.574-5.566a1.543,1.543,0,0,0-1.176-.487q-14.138.013-28.276.005A4.192,4.192,0,0,1,19.783,21a3.67,3.67,0,0,1-.24-1.371q-.009-7.866,0-15.731a4.115,4.115,0,0,1,3.62-3.83c1.079-.09,2.154-.061,3.23-.063q7.64-.017,15.28,0Z" transform="translate(-13.046 0)" fill="#abdbff"/>
        <path id="Path_612277" data-name="Path 612277" d="M135.536,238.2a2.149,2.149,0,0,0,1.233-2.148q.011-7.255,0-14.511a10.842,10.842,0,0,0-.441-2.654,2.2,2.2,0,0,1-.035-.244,3.856,3.856,0,0,0,1.092-.064q8.375.008,16.75,0c.249,0,.5-.013.745-.019.152.145.342.084.515.084q4.4.005,8.791,0c.135,0,.278.039.4-.054,2.988.017,5.975-.029,8.963.027,2.767.052,5.535.013,8.3.012.553,0,1.106-.009,1.659-.014.01.179.027.357.027.536q0,7.41,0,14.819a4.292,4.292,0,0,1-.64,2.484,3.945,3.945,0,0,1-3.442,1.809q-6,.012-12,0-15.632,0-31.264,0a5.872,5.872,0,0,1-.656-.071" transform="translate(-90.506 -145.949)" fill="#d6a78d"/>
        <path id="Path_612278" data-name="Path 612278" d="M32.671,123.58a15.167,15.167,0,0,1-2.793-.492,28.157,28.157,0,0,1-4.183-1.308,6.071,6.071,0,0,1-3.4-3.858,8.435,8.435,0,0,1-.2-3.177,51.759,51.759,0,0,1,1.1-5.069c.136-.791.2-1.6.346-2.384.242-1.272.023-2.564.18-3.826a14.315,14.315,0,0,1,8.033-11.4A13.22,13.22,0,0,1,37.3,90.716,14.13,14.13,0,0,1,51.7,101.99a6,6,0,0,1,.166,1.268,25.463,25.463,0,0,0,.109,2.754,29.07,29.07,0,0,0,.475,3.6c.306,1.293.746,2.556.941,3.874a12.7,12.7,0,0,1,.2,3.316,6,6,0,0,1-3.651,5,23.939,23.939,0,0,1-4.35,1.291,8.359,8.359,0,0,1-2.431.423c-.058,0-.12.056-.18.086a1.4,1.4,0,0,0-.37.005,16.831,16.831,0,0,1-3.6.294,30.329,30.329,0,0,1-3.47-.051,12.287,12.287,0,0,1-2.867-.27" transform="translate(-14.718 -60.571)" fill="#2a5f83"/>
        <path id="Path_612279" data-name="Path 612279" d="M196.235,79.456a29.2,29.2,0,0,1,.01,3.427,1.7,1.7,0,0,1-1.447,1.548c-.16.043-.322.077-.478.129a.31.31,0,0,0-.244.3,9.6,9.6,0,0,1-1.483,4.731,9.9,9.9,0,0,1-2.861,2.985.541.541,0,0,0-.28.5c.012,1.9.01,3.8.013,5.705-.911.8-1.914,1.486-2.863,2.239-.831.658-1.66,1.32-2.543,1.91l-.139-.013c-.04-.185-.209-.245-.338-.342l-5.09-3.809c0-1.819-.013-3.637.016-5.456a.94.94,0,0,0-.442-.865,10.208,10.208,0,0,1-3.968-5.884,5.017,5.017,0,0,1-.254-1.7c.014-.193-.069-.3-.279-.332a3.487,3.487,0,0,1-.674-.189A1.534,1.534,0,0,1,171.77,82.7c0-1.1,0-2.2,0-3.306a11.76,11.76,0,0,0,2.058,0,2.082,2.082,0,0,0,2.016-2.043,6.2,6.2,0,0,1-.006-.868,2.529,2.529,0,0,1,.692-1.767,2.018,2.018,0,0,1,1.874-.675c1.092.21,2.165.5,3.263.7a13.309,13.309,0,0,0,3.505.154,18.516,18.516,0,0,0,4-.794A2.291,2.291,0,0,1,192,75.9a15.139,15.139,0,0,1,.109,1.6,2.2,2.2,0,0,0,1.611,1.89,10.867,10.867,0,0,0,2.517.064" transform="translate(-114.702 -49.42)" fill="#fbd2c3"/>
        <path id="Path_612280" data-name="Path 612280" d="M155.108,147.669l5.09,3.809c.129.1.3.156.338.342-.495.44-.977.894-1.487,1.315a11.7,11.7,0,0,1-2.258,1.732c-.233.112-.181.251-.071.39a24.57,24.57,0,0,1,1.574,2.572,1.267,1.267,0,0,1,.211.743,14.139,14.139,0,0,1-.539,2.615c-.4,1.576-.73,3.166-1.087,4.75-.378,1.672-.716,3.354-1.19,5-.249.007-.5.019-.745.019q-8.375,0-16.751,0a3.841,3.841,0,0,1-1.092.063c-.288-.268-.226-.661-.351-.987a1.452,1.452,0,0,0,.1-.6c0-3.5.019-7-.013-10.506a8.751,8.751,0,0,1,.635-3.176A8.221,8.221,0,0,1,139.207,153a7.378,7.378,0,0,1,3.218-2.023c1.4-.429,2.8-.856,4.216-1.237a36.08,36.08,0,0,0,3.77-1.147c.839-.328,1.612-.84,2.423-1.256a1.139,1.139,0,0,1,.512-.064,2.236,2.236,0,0,1,1.762.4" transform="translate(-91.317 -98.326)" fill="#2a5f83"/>
        <path id="Path_612281" data-name="Path 612281" d="M208.762,151.819c.883-.589,1.712-1.252,2.543-1.91.95-.753,1.952-1.438,2.863-2.239a2.465,2.465,0,0,1,2.657-.108,9.123,9.123,0,0,1,1.6.86,3.19,3.19,0,0,0,1.084.391c1.5.43,3,.854,4.482,1.326,1.088.346,2.219.558,3.279.993a8.686,8.686,0,0,1,3.346,2.529,10.1,10.1,0,0,1,1.509,2.887,4.355,4.355,0,0,1,.212,1.421c.026.6.107,1.2.1,1.807-.015,3.556-.007,7.113-.009,10.669,0,.179-.015.357-.022.536-.553,0-1.106.014-1.659.014-2.768,0-5.536.04-8.3-.012-2.988-.056-5.976-.01-8.963-.027-.159-1.145-.477-2.259-.706-3.389a14.766,14.766,0,0,0-.562-2.285c-.1-.277-.071-.6-.18-.886a22.183,22.183,0,0,1-.524-2.245c-.278-1.063-.442-2.157-.729-3.218a1.121,1.121,0,0,1,.129-.96c.546-.926,1.073-1.863,1.6-2.8.077-.137.187-.27-.038-.411-1.348-.843-2.353-2.117-3.714-2.945" transform="translate(-139.404 -98.313)" fill="#2a5f83"/>
        <path id="Path_612282" data-name="Path 612282" d="M196.222,63.146a10.867,10.867,0,0,1-2.517-.064,2.2,2.2,0,0,1-1.611-1.89,15.138,15.138,0,0,0-.109-1.6,2.291,2.291,0,0,0-2.826-1.792,18.516,18.516,0,0,1-4,.794,13.308,13.308,0,0,1-3.505-.154c-1.1-.2-2.171-.494-3.263-.7a2.018,2.018,0,0,0-1.874.675,2.529,2.529,0,0,0-.692,1.767,6.2,6.2,0,0,0,.006.868,2.082,2.082,0,0,1-2.016,2.043,11.759,11.759,0,0,1-2.058,0c0-2.51-.024-5.021.007-7.53a5.627,5.627,0,0,1,.976-2.749,6.883,6.883,0,0,1,3.4-2.809,5.12,5.12,0,0,1,1.97-.4q5.52-.013,11.04-.008a2.959,2.959,0,0,1,2.877,2.578,1.947,1.947,0,0,0,.255.98.908.908,0,0,0,.761.416,3.106,3.106,0,0,1,3.2,3.338c.015,1.876.006,3.752,0,5.627,0,.206-.02.412-.03.619" transform="translate(-114.689 -33.111)" fill="#d6a78d"/>
        <path id="Path_612283" data-name="Path 612283" d="M53.685,189.65a12.288,12.288,0,0,0,2.867.27,30.335,30.335,0,0,0,3.47.051,16.832,16.832,0,0,0,3.6-.294,1.4,1.4,0,0,1,.37-.005,2.651,2.651,0,0,1,.16,1.24c.023.337-.092.686.078,1.011a.877.877,0,0,0-.274.4,5.542,5.542,0,0,1-4.629,3.22,5.808,5.808,0,0,1-4.115-1.321,5.01,5.01,0,0,1-1.577-2.155.675.675,0,0,0-.122-.165c.156-.145.081-.334.088-.5a8.907,8.907,0,0,1,.086-1.747" transform="translate(-35.733 -126.641)" fill="#fbd2c3"/>
        <path id="Path_612284" data-name="Path 612284" d="M198.741,161.024c1.361.828,2.366,2.1,3.714,2.945.225.141.115.275.038.411-.53.935-1.057,1.872-1.6,2.8a1.121,1.121,0,0,0-.129.96c.287,1.061.451,2.155.729,3.218a22.185,22.185,0,0,0,.524,2.245c.109.29.076.609.18.886a14.766,14.766,0,0,1,.562,2.285c.228,1.13.547,2.244.706,3.389-.123.093-.267.054-.4.054q-4.4,0-8.791,0c-.172,0-.362.06-.514-.084.474-1.65.812-3.331,1.19-5,.358-1.584.689-3.174,1.087-4.75a14.137,14.137,0,0,0,.539-2.615,1.267,1.267,0,0,0-.211-.743,24.576,24.576,0,0,0-1.574-2.572c-.11-.139-.161-.278.071-.39a11.694,11.694,0,0,0,2.258-1.732c.51-.421.992-.876,1.487-1.315l.139.013" transform="translate(-129.382 -107.517)" fill="#e6d09d"/>
      </g>
    </g>
  </g>
</svg>
