<svg xmlns="http://www.w3.org/2000/svg" xmlns:xlink="http://www.w3.org/1999/xlink" width="139" height="139" viewBox="0 0 139 139">
  <defs>
    <clipPath id="clip-path">
      <rect id="Rectangle_378626" data-name="Rectangle 378626" width="90.76" height="90.424" fill="none"/>
    </clipPath>
  </defs>
  <g id="Group_1074141" data-name="Group 1074141" transform="translate(-1434.668 -5882)">
    <g id="Group_1072229" data-name="Group 1072229" transform="translate(1434.668 5882)">
      <path id="Path_608385" data-name="Path 608385" d="M69.5,0A69.5,69.5,0,1,1,0,69.5,69.5,69.5,0,0,1,69.5,0Z" transform="translate(0)" fill="#fff"/>
    </g>
    <g id="Group_1074194" data-name="Group 1074194" transform="translate(1458.788 5906.289)">
      <g id="Group_1074193" data-name="Group 1074193" clip-path="url(#clip-path)">
        <path id="Path_612285" data-name="Path 612285" d="M122.774,54.276l-22.1,0a.763.763,0,0,1-.572-.141,3.336,3.336,0,0,1,.231-.277c.828-.8,1.653-1.606,2.491-2.4a.508.508,0,0,0,.211-.443.606.606,0,0,0,.385-.2c.914-.94,1.845-1.866,2.732-2.831a1.426,1.426,0,0,0,.188-1.823.488.488,0,0,1,.035-.557,1.75,1.75,0,0,1,.165-.227q2.274-2.266,4.553-4.527c.353.007.269.283.27.474.007,1.714,0,3.428,0,5.142a1.966,1.966,0,0,0,2.057,2.054q3.361.005,6.722,0l14.74,0a1.962,1.962,0,0,0,1.471-.535,1.923,1.923,0,0,0,.525-1.477q.008-10.871,0-21.742a.814.814,0,0,0-.034-.356,1.983,1.983,0,0,0-1.9-1.255c-1.113.015-2.226.025-3.338,0-.884-.018-1.767.02-2.65.017-5.183-.022-10.366-.013-15.55-.01a1.891,1.891,0,0,0-2.037,2.036q0,5.486,0,10.973a.8.8,0,0,0,.072.472c-.039.2-.205.311-.336.441-1.587,1.568-3.139,3.171-4.772,4.693-.638.594-1.219,1.25-1.826,1.879-.176-.261-.481-.091-.708-.215a.931.931,0,0,0-1.015.086c-.454.292-.7.776-1.1,1.107-.77.633-1.431,1.379-2.145,2.071a.786.786,0,0,0-.307.5.6.6,0,0,0-.442.208c-.9.92-1.773,1.861-2.728,2.722a.913.913,0,0,1-.33-.743,3.026,3.026,0,0,1,0-.364V17.5c.122,0,.243-.006.364-.006l50.926,0c1.808,0,3.616.009,5.424.014q0,17.938,0,35.877c0,.766-.125.891-.894.891H122.774" transform="translate(-64.608 -11.807)" fill="#e2f1fc"/>
        <path id="Path_612286" data-name="Path 612286" d="M38.429,103.84a.508.508,0,0,1-.211.443c-.838.791-1.664,1.595-2.491,2.4a3.272,3.272,0,0,0-.232.277,19.76,19.76,0,0,0-1.937,1.886,4.321,4.321,0,0,1-2.712,1.38,3.438,3.438,0,0,1-2.214-.718,7.853,7.853,0,0,1-1.144-1.07q-2.263-2.262-4.53-4.52c-.063-.063-.111-.155-.258-.156v.709q0,7.736,0,15.471c0,.877-.307,1.182-1.192,1.183q-9.459.006-18.917.008c-.162,0-.323.009-.485.014l-.389-.007c-.175-.006-.35-.014-.526-.017-.9-.013-1.189-.3-1.189-1.19,0-.931.007-1.862.007-2.793,0-5.263-.02-10.525.009-15.788a5.44,5.44,0,0,1,4.3-5.459,5.921,5.921,0,0,1,1.365-.134q2.834,0,5.668,0,0,2.744,0,5.488,0,6.58-.007,13.16a1.1,1.1,0,0,0,1.131,1.125c1.08.009,2.16,0,3.24,0,.916,0,1.3-.38,1.3-1.295q0-5.79,0-11.581c0-.472-.011-.944-.017-1.416l.006-.684,0-.125c0-.066,0-.132,0-.2,0-.043,0-.086,0-.13q0-.1,0-.194l0-.13,0-.2c0-.043,0-.085,0-.128,0-.065,0-.13,0-.2,0-.043,0-.086,0-.129,0-.065,0-.13,0-.2,0-.043,0-.085,0-.128,0-.065,0-.13,0-.2,0-.043,0-.085,0-.128,0-.065,0-.13,0-.2,0-.043,0-.086,0-.129,0-.065,0-.13,0-.2,0-.043,0-.085,0-.128,0-.065,0-.13,0-.2l0-.129v-.2c0-.068,0-.136,0-.2,0-.04,0-.079,0-.119v-.2c0-.041,0-.082,0-.123q0-.139,0-.279c0-.071,0-.142,0-.214l0-.106q.021-.151.042-.3c1.454.017,2.908-.077,4.361.057a4.291,4.291,0,0,1,2.653,1.326q2.005,1.967,4,3.949c.68.673,1.349,1.358,2.042,2.017.581.554.854.512,1.352-.148.955-.861,1.831-1.8,2.728-2.722a.6.6,0,0,1,.441-.208l3.809,3.8" transform="translate(0 -64.627)" fill="#52a2db"/>
        <path id="Path_612287" data-name="Path 612287" d="M146.7,5.7c-1.808,0-3.616-.014-5.424-.014l-50.926,0c-.122,0-.243,0-.364.006-.526,0-1.053,0-1.579-.005a1.036,1.036,0,0,1-1.173-1.168c0-1.106.043-2.215-.014-3.319A1.147,1.147,0,0,1,88.589.013a3.02,3.02,0,0,0,.364.006q27.963,0,55.926-.012c1.168,0,2.336.041,3.5.01a1.085,1.085,0,0,1,1.243,1.239q.005,1.559,0,3.118c0,.968-.355,1.32-1.307,1.323L146.7,5.7" transform="translate(-58.869 -0.001)" fill="#9ac1df"/>
        <path id="Path_612288" data-name="Path 612288" d="M104.678,251.718c0-1.429-.091-2.866.024-4.286a4.337,4.337,0,0,1,2.275-3.5,4.882,4.882,0,0,1,2.462-.622q6.374-.046,12.749,0a5.765,5.765,0,0,1,1.919.308,8.33,8.33,0,0,1,.154,1.113q.024,2.855,0,5.71a.955.955,0,0,1-.8,1.059c-.329.1-.417-.013-.414-.316.006-.688.017-1.377,0-2.065a1.414,1.414,0,0,0-.837-1.329A1.386,1.386,0,0,0,120.3,249.1c-.015.7-.012,1.4,0,2.106.005.259-.073.355-.343.354q-3.929-.012-7.857,0c-.3,0-.4-.117-.4-.409.014-.647.011-1.3,0-1.944a1.492,1.492,0,0,0-1.219-1.538,1.44,1.44,0,0,0-1.53,1.426c-.014.715-.008,1.431,0,2.146,0,.217-.057.318-.295.318a24.385,24.385,0,0,0-3.989.162" transform="translate(-70.63 -164.208)" fill="#7d6f80"/>
        <path id="Path_612289" data-name="Path 612289" d="M17.5,251.732c0-1.294-.023-2.588-.007-3.881a4.5,4.5,0,0,1,4.08-4.473,12.478,12.478,0,0,1,1.409-.074H35.122a5.861,5.861,0,0,1,1.89.336q0,2.955,0,5.91a2.186,2.186,0,0,0,.048.439,1.2,1.2,0,0,1-.684,1.49c-.4.16-.5.092-.5-.354,0-.661.006-1.323,0-1.983a1.361,1.361,0,0,0-1.381-1.465,1.414,1.414,0,0,0-1.37,1.491c0,.675-.011,1.35,0,2.024.006.272-.063.381-.359.38q-3.907-.015-7.814,0c-.314,0-.434-.1-.426-.421.017-.674.007-1.349,0-2.024a1.352,1.352,0,0,0-1.355-1.449,1.406,1.406,0,0,0-1.4,1.464c0,.7-.005,1.4,0,2.105,0,.212-.046.324-.289.323a24.288,24.288,0,0,0-3.988.163" transform="translate(-11.805 -164.221)" fill="#7d6f80"/>
        <path id="Path_612290" data-name="Path 612290" d="M191.936,251.724a38.529,38.529,0,0,1,.056-4.4,4.521,4.521,0,0,1,3.57-3.861,8.212,8.212,0,0,1,1.684-.17q6.149.011,12.3,0a5.973,5.973,0,0,1,1.9.327q0,3.46,0,6.921c0,.568-.1.717-.641.932-.383.154-.49.087-.493-.322,0-.688.01-1.377,0-2.064a1.359,1.359,0,0,0-1.385-1.418,1.407,1.407,0,0,0-1.365,1.456c0,.7-.008,1.4,0,2.1,0,.241-.071.333-.322.333q-3.947-.01-7.894,0c-.279,0-.385-.1-.381-.382.011-.688.006-1.376,0-2.064a1.352,1.352,0,0,0-1.357-1.447,1.406,1.406,0,0,0-1.4,1.465c0,.7-.006,1.4,0,2.1,0,.213-.048.323-.29.322a24.073,24.073,0,0,0-3.987.163" transform="translate(-129.526 -164.213)" fill="#7d6f80"/>
        <path id="Path_612291" data-name="Path 612291" d="M36.274,53.367a7.312,7.312,0,0,1-1.338,4.666,6.508,6.508,0,0,1-5.163,2.72,5.9,5.9,0,0,1-1.884-.128,7.593,7.593,0,0,1-1.809-.774,6.888,6.888,0,0,1-3.054-3.872,5.8,5.8,0,0,1-.294-2.619c.83-.823,1.664-1.643,2.49-2.471a3.946,3.946,0,0,1,3.232-1.348c.965.077,1.94.025,2.911.02a2.592,2.592,0,0,1,1.133.24,10.763,10.763,0,0,1,1.184,1.018c.749.843,1.569,1.615,2.38,2.4a.2.2,0,0,0,.21.153" transform="translate(-15.31 -33.429)" fill="#fec692"/>
        <path id="Path_612292" data-name="Path 612292" d="M191.991,252.41a24.073,24.073,0,0,1,3.987-.163c.242,0,.293-.11.29-.322-.008-.7,0-1.4,0-2.1a1.406,1.406,0,0,1,1.4-1.465,1.352,1.352,0,0,1,1.357,1.447c0,.688.008,1.376,0,2.064,0,.279.1.382.381.382q3.947-.009,7.894,0c.251,0,.326-.092.322-.333-.012-.7-.006-1.4,0-2.1a1.407,1.407,0,0,1,1.365-1.456,1.359,1.359,0,0,1,1.385,1.418c.015.688,0,1.376,0,2.064,0,.41.11.476.493.322.536-.215.641-.364.641-.932q0-3.46,0-6.921a4.32,4.32,0,0,1,2.673,2.3,4.537,4.537,0,0,1,.482,2.108q0,2.691,0,5.382c0,.876-.358,1.222-1.232,1.223H193.18c-.835,0-1.2-.369-1.2-1.213,0-.566.006-1.132.009-1.7" transform="translate(-129.581 -164.898)" fill="#645966"/>
        <path id="Path_612293" data-name="Path 612293" d="M17.5,252.43a24.292,24.292,0,0,1,3.988-.163c.243,0,.292-.111.289-.323-.008-.7,0-1.4,0-2.105a1.406,1.406,0,0,1,1.4-1.464,1.352,1.352,0,0,1,1.355,1.449c0,.675.013,1.35,0,2.024-.008.32.112.422.426.421q3.907-.013,7.814,0c.3,0,.365-.108.359-.38-.015-.674-.006-1.349,0-2.024a1.414,1.414,0,0,1,1.37-1.491,1.361,1.361,0,0,1,1.381,1.465c.008.661,0,1.322,0,1.983,0,.445.1.514.5.354a1.2,1.2,0,0,0,.684-1.49,2.187,2.187,0,0,1-.048-.439q0-2.955,0-5.91a3.69,3.69,0,0,1,1.653.946,4.566,4.566,0,0,1,1.5,3.546c.013,1.754,0,3.507,0,5.261,0,.881-.376,1.251-1.244,1.251h-20.2c-.791,0-1.077-.228-1.231-.973q.15-.121,0-.241.008-.849.016-1.7" transform="translate(-11.799 -164.919)" fill="#645966"/>
        <path id="Path_612294" data-name="Path 612294" d="M104.723,252.38a24.385,24.385,0,0,1,3.989-.162c.238,0,.3-.1.295-.318-.008-.715-.014-1.431,0-2.146a1.439,1.439,0,0,1,1.53-1.426,1.492,1.492,0,0,1,1.219,1.538c.008.648.011,1.3,0,1.944-.006.292.092.41.4.409q3.929-.012,7.857,0c.27,0,.348-.095.343-.354-.014-.7-.017-1.4,0-2.106a1.386,1.386,0,0,1,1.909-1.316,1.414,1.414,0,0,1,.837,1.329c.021.688.009,1.377,0,2.065,0,.3.086.411.414.316a.955.955,0,0,0,.8-1.059q.024-2.855,0-5.71a8.333,8.333,0,0,0-.154-1.113,1.084,1.084,0,0,1,.679.214,4.6,4.6,0,0,1,2.557,4.277c.031,1.78.01,3.561,0,5.342a1.046,1.046,0,0,1-1.2,1.187q-10.139,0-20.277,0c-.893,0-1.194-.312-1.2-1.212-.006-.566.007-1.133.011-1.7" transform="translate(-70.676 -164.87)" fill="#645966"/>
        <path id="Path_612295" data-name="Path 612295" d="M173.075,130.659h2.77q0,4.9-.01,9.8a.432.432,0,0,0,.3.449,3.99,3.99,0,0,1,2.4,3,3.907,3.907,0,0,1-1.609,4.107,3.953,3.953,0,0,1-4.315.438,4.13,4.13,0,0,1,.113-7.505c.228-.1.373-.2.372-.491-.016-3.267-.016-6.533-.02-9.8m2.775,14.077a1.375,1.375,0,0,0-1.4-1.44,1.522,1.522,0,0,0-1.456,1.53,1.43,1.43,0,1,0,2.859-.09" transform="translate(-114.909 -88.19)" fill="#7d6f80"/>
        <path id="Path_612296" data-name="Path 612296" d="M39.542,208.754a9.444,9.444,0,0,1-1.942-.817,5.348,5.348,0,0,1-1.853-1.818,5.729,5.729,0,0,1-.825-3,5.268,5.268,0,0,1,.98-3.092,5.6,5.6,0,0,1,3.212-2.286,4.618,4.618,0,0,1,.512-.081,2.056,2.056,0,0,0,.776.647,5.553,5.553,0,0,1,2.676,5.744,5.319,5.319,0,0,1-2.974,4.12c-.241.131-.516.257-.563.587" transform="translate(-23.572 -133.411)" fill="#7d6f80"/>
        <path id="Path_612297" data-name="Path 612297" d="M126.861,208.7a6.087,6.087,0,0,1-3.533-2.118,5.74,5.74,0,0,1,.606-7.519,5.124,5.124,0,0,1,3.012-1.489c.092.382.469.487.727.67a6.942,6.942,0,0,1,1.7,1.643,5.352,5.352,0,0,1,.984,3.455,5.09,5.09,0,0,1-2.082,4.113,11.71,11.71,0,0,1-1.195.815.384.384,0,0,0-.216.43" transform="translate(-82.454 -133.355)" fill="#7d6f80"/>
        <path id="Path_612298" data-name="Path 612298" d="M214.064,208.777a13.626,13.626,0,0,1-1.318-.492,5.546,5.546,0,0,1-3.222-4.357,5.673,5.673,0,0,1,4.336-6.222,1.5,1.5,0,0,1,.281-.016c0,.134.119.161.2.228.459.372,1,.633,1.432,1.04a5.412,5.412,0,0,1,1.806,3.369,6.038,6.038,0,0,1-.453,3.329,5.572,5.572,0,0,1-2.471,2.515c-.253.144-.551.252-.592.606" transform="translate(-141.382 -133.434)" fill="#7d6f80"/>
        <path id="Path_612299" data-name="Path 612299" d="M32.527,38.361a2.587,2.587,0,0,0-1.133-.24c-.971.006-1.946.058-2.91-.02a3.946,3.946,0,0,0-3.233,1.348c-.827.827-1.66,1.647-2.49,2.471-.064-.983-.031-1.966-.008-2.949a6.469,6.469,0,0,1,1.423-3.928,6.249,6.249,0,0,1,4.138-2.463c-.029.21.132.267.273.349a7.924,7.924,0,0,1,2.575,2.02,5.7,5.7,0,0,1,1.366,3.412" transform="translate(-15.337 -21.99)" fill="#7d6f80"/>
        <path id="Path_612300" data-name="Path 612300" d="M136.61,208.668a.384.384,0,0,1,.216-.43,11.714,11.714,0,0,0,1.195-.815,5.09,5.09,0,0,0,2.082-4.113,5.353,5.353,0,0,0-.984-3.455,6.942,6.942,0,0,0-1.7-1.643c-.259-.183-.635-.288-.727-.67.534-.041,1.073.018,1.6,0,.875-.022,1.522.547,2.314.709.158.032.23.284.392.409a5.259,5.259,0,0,1,2.212,4.694,5.646,5.646,0,0,1-4.821,5.31,3.863,3.863,0,0,1-1.783,0" transform="translate(-92.203 -133.324)" fill="#645966"/>
        <path id="Path_612301" data-name="Path 612301" d="M223.613,208.589c.041-.354.339-.462.592-.606a5.572,5.572,0,0,0,2.471-2.515,6.038,6.038,0,0,0,.453-3.329,5.412,5.412,0,0,0-1.806-3.369c-.434-.407-.973-.668-1.432-1.04-.082-.067-.2-.094-.2-.228a2.945,2.945,0,0,1,1.122-.072,4.063,4.063,0,0,1,1.426.134,6.456,6.456,0,0,1,1.848.995,5.9,5.9,0,0,1,1.961,2.84,5.6,5.6,0,0,1-3.872,7.015,5.312,5.312,0,0,1-1.814.278,6.709,6.709,0,0,1-.749-.1" transform="translate(-150.931 -133.246)" fill="#645966"/>
        <path id="Path_612302" data-name="Path 612302" d="M49.135,208.6c.047-.329.321-.456.563-.587a5.319,5.319,0,0,0,2.974-4.12A5.553,5.553,0,0,0,50,198.152a2.056,2.056,0,0,1-.776-.647,5.517,5.517,0,0,1,4.52,1.194,5.314,5.314,0,0,1,1.839,2.738,5.562,5.562,0,0,1-2.8,6.556,5.757,5.757,0,0,1-3.139.7,4.343,4.343,0,0,1-.507-.091" transform="translate(-33.164 -133.26)" fill="#645966"/>
        <path id="Path_612303" data-name="Path 612303" d="M40.564,98.626c0,.065,0,.13,0,.2-.052.042-.054.085,0,.128,0,.065,0,.13,0,.2-.052.042-.054.085,0,.128q0,.1,0,.2c-.052.042-.054.085,0,.128l0,.2c-.053.043-.056.085,0,.129,0,.065,0,.129,0,.194-.052.043-.054.086,0,.129,0,.066,0,.132,0,.2-.051.041-.053.083,0,.125l-.006.684a33.687,33.687,0,0,1-5.648,0q0-2.743,0-5.487l5.7.01q-.021.151-.042.3c-.046.033-.048.069,0,.106,0,.071,0,.142,0,.214a.181.181,0,0,0,0,.279c0,.041,0,.082,0,.123a.122.122,0,0,0,0,.2c0,.04,0,.079,0,.119a.121.121,0,0,0,0,.2v.2c-.052.042-.055.085,0,.128,0,.065,0,.13,0,.2-.052.042-.054.085,0,.128l0,.2c-.052.042-.055.085,0,.128l0,.2c-.052.042-.055.085,0,.128" transform="translate(-23.56 -64.641)" fill="#fec692"/>
        <path id="Path_612304" data-name="Path 612304" d="M44.128,38.083a5.7,5.7,0,0,0-1.366-3.412,7.924,7.924,0,0,0-2.575-2.02c-.141-.082-.3-.138-.273-.349a6.268,6.268,0,0,1,3.658.358A6.715,6.715,0,0,1,47.863,38.4c.067,1.035.044,2.067.046,3.1h-.217c-.811-.781-1.631-1.553-2.38-2.4a10.765,10.765,0,0,0-1.184-1.018" transform="translate(-26.938 -21.712)" fill="#645966"/>
        <path id="Path_612305" data-name="Path 612305" d="M17.3,274.46q.151.12,0,.24c-.117-.08-.116-.16,0-.24" transform="translate(-11.62 -185.25)" fill="#7d6f80"/>
        <path id="Path_612306" data-name="Path 612306" d="M5.276,173.852l.389.007a.355.355,0,0,1-.389-.007" transform="translate(-3.561 -117.344)" fill="#e2f1fc"/>
        <path id="Path_612307" data-name="Path 612307" d="M63.851,60.868h.217l-.008.154a.2.2,0,0,1-.21-.153" transform="translate(-43.097 -41.083)" fill="#7d6f80"/>
        <path id="Path_612308" data-name="Path 612308" d="M143.367,48.421a.8.8,0,0,1-.072-.472q0-5.486,0-10.972a1.891,1.891,0,0,1,2.037-2.036c5.183,0,10.367-.012,15.55.01.883,0,1.766-.034,2.65-.017,1.112.022,2.226.012,3.338,0a1.983,1.983,0,0,1,1.9,1.255.819.819,0,0,1,.035.356q0,10.871,0,21.742a1.925,1.925,0,0,1-.524,1.477,1.963,1.963,0,0,1-1.471.535l-14.74,0q-3.361,0-6.722,0a1.966,1.966,0,0,1-2.057-2.054c-.007-1.714,0-3.428,0-5.142,0-.19.083-.467-.269-.474a6.242,6.242,0,0,1,.937-.936c1.527-1.539,3.107-3.026,4.575-4.622a1.162,1.162,0,0,0,.241-1.4,1.279,1.279,0,0,0-1.012-.761,1.558,1.558,0,0,0-1.348.588c-.886.868-1.754,1.753-2.63,2.631a.8.8,0,0,1-.419.3" transform="translate(-96.535 -23.576)" fill="#9ac1df"/>
        <path id="Path_612309" data-name="Path 612309" d="M129.639,69.1a.8.8,0,0,0,.419-.3c.876-.878,1.744-1.764,2.63-2.631a1.558,1.558,0,0,1,1.348-.588,1.279,1.279,0,0,1,1.012.761,1.162,1.162,0,0,1-.241,1.4c-1.468,1.6-3.048,3.083-4.575,4.622a6.244,6.244,0,0,0-.937.936q-2.278,2.263-4.553,4.527a1.727,1.727,0,0,0-.165.227A6.422,6.422,0,0,1,122.8,76.57a.455.455,0,0,1-.1-.454c.607-.628,1.187-1.284,1.825-1.878,1.634-1.521,3.185-3.125,4.772-4.693.131-.13.3-.238.336-.441" transform="translate(-82.806 -44.258)" fill="#7d6f80"/>
        <path id="Path_612310" data-name="Path 612310" d="M111.79,97.332a.455.455,0,0,0,.1.454,6.422,6.422,0,0,0,1.771,1.491.488.488,0,0,0-.035.557,1.427,1.427,0,0,1-.188,1.823c-.887.965-1.818,1.891-2.732,2.831a.605.605,0,0,1-.385.2l-3.808-3.8a.787.787,0,0,1,.307-.5c.713-.691,1.374-1.437,2.144-2.07.4-.332.65-.815,1.1-1.107a.93.93,0,0,1,1.015-.086c.228.124.532-.046.709.215" transform="translate(-71.892 -65.474)" fill="#fec692"/>
        <path id="Path_612311" data-name="Path 612311" d="M34.9,112.645a33.686,33.686,0,0,0,5.648,0c.006.472.017.944.017,1.416q0,5.791,0,11.581c0,.915-.384,1.3-1.3,1.295-1.08,0-2.16.006-3.24,0a1.1,1.1,0,0,1-1.131-1.125q0-6.58.007-13.16" transform="translate(-23.551 -76.029)" fill="#7d6f80"/>
        <path id="Path_612312" data-name="Path 612312" d="M52.177,97.991a.181.181,0,0,1,0-.279q0,.139,0,.279" transform="translate(-35.172 -65.952)" fill="#7d6f80"/>
        <path id="Path_612313" data-name="Path 612313" d="M52.2,100.146a.122.122,0,0,1,0-.2c0,.068,0,.136,0,.2" transform="translate(-35.198 -67.457)" fill="#7d6f80"/>
        <path id="Path_612314" data-name="Path 612314" d="M52.2,99.152a.122.122,0,0,1,0-.2v.2" transform="translate(-35.198 -66.786)" fill="#7d6f80"/>
        <path id="Path_612315" data-name="Path 612315" d="M52.233,110.277c-.051-.043-.049-.084,0-.125l0,.125" transform="translate(-35.23 -74.349)" fill="#7d6f80"/>
        <path id="Path_612316" data-name="Path 612316" d="M52.235,109.276c-.053-.044-.05-.087,0-.129,0,.043,0,.086,0,.129" transform="translate(-35.231 -73.67)" fill="#7d6f80"/>
        <path id="Path_612317" data-name="Path 612317" d="M52.235,107.283c-.053-.043-.05-.086,0-.128,0,.043,0,.085,0,.128" transform="translate(-35.231 -72.326)" fill="#7d6f80"/>
        <path id="Path_612318" data-name="Path 612318" d="M52.235,106.286c-.053-.043-.05-.086,0-.128,0,.043,0,.085,0,.128" transform="translate(-35.231 -71.653)" fill="#7d6f80"/>
        <path id="Path_612319" data-name="Path 612319" d="M52.235,105.289c-.053-.043-.05-.086,0-.128,0,.043,0,.085,0,.128" transform="translate(-35.231 -70.98)" fill="#7d6f80"/>
        <path id="Path_612320" data-name="Path 612320" d="M52.235,104.292c-.053-.043-.05-.086,0-.128l0,.128" transform="translate(-35.231 -70.307)" fill="#7d6f80"/>
        <path id="Path_612321" data-name="Path 612321" d="M52.235,103.3c-.053-.044-.05-.086,0-.128,0,.043,0,.085,0,.128" transform="translate(-35.231 -69.634)" fill="#7d6f80"/>
        <path id="Path_612322" data-name="Path 612322" d="M52.235,102.3c-.053-.043-.05-.086,0-.128,0,.043,0,.085,0,.128" transform="translate(-35.231 -68.962)" fill="#7d6f80"/>
        <path id="Path_612323" data-name="Path 612323" d="M52.236,101.3c-.053-.044-.051-.086,0-.128,0,.043,0,.085,0,.128" transform="translate(-35.231 -68.289)" fill="#7d6f80"/>
        <path id="Path_612324" data-name="Path 612324" d="M52.243,96.835c-.044-.037-.042-.072,0-.106,0,.035,0,.071,0,.106" transform="translate(-35.241 -65.289)" fill="#7d6f80"/>
        <path id="Path_612325" data-name="Path 612325" d="M52.234,108.28c-.054-.044-.051-.087,0-.129l0,.129" transform="translate(-35.23 -72.998)" fill="#7d6f80"/>
        <path id="Path_612326" data-name="Path 612326" d="M181.554,170.977a1.43,1.43,0,1,1-2.859.09,1.522,1.522,0,0,1,1.456-1.53,1.375,1.375,0,0,1,1.4,1.44" transform="translate(-120.613 -114.431)" fill="#f5f4f4"/>
      </g>
    </g>
  </g>
</svg>
