<svg xmlns="http://www.w3.org/2000/svg" xmlns:xlink="http://www.w3.org/1999/xlink" width="107" height="107" viewBox="0 0 107 107">
  <defs>
    <clipPath id="clip-path">
      <rect id="Rectangle_378980" data-name="Rectangle 378980" width="75" height="75" transform="translate(-24 -3)" fill="#fff" stroke="#707070" stroke-width="1"/>
    </clipPath>
    <clipPath id="clip-path-2">
      <rect id="Rectangle_378445" data-name="Rectangle 378445" width="58.813" height="68.989" fill="#fff"/>
    </clipPath>
  </defs>
  <g id="Grupo_156312" data-name="Grupo 156312" transform="translate(-288.668 -4448.017)">
    <path id="Elipse_5845" data-name="Elipse 5845" d="M53.5,0A53.5,53.5,0,1,1,0,53.5,53.5,53.5,0,0,1,53.5,0Z" transform="translate(288.668 4448.017)" fill="#5e5a55"/>
    <g id="Group_1073909" data-name="Group 1073909" transform="translate(312.668 4467.017)">
      <g id="Mask_Group_154441" data-name="Mask Group 154441" transform="translate(16)" clip-path="url(#clip-path)">
        <g id="Group_1073908" data-name="Group 1073908" transform="translate(-15)" clip-path="url(#clip-path-2)">
          <path id="Path_611698" data-name="Path 611698" d="M8.054,16.082c0-1.188,0-2.319,0-3.451,0-.473.012-.948.045-1.42A3.292,3.292,0,0,1,9.908,8.48,3.016,3.016,0,0,1,11.447,8.1c1.532,0,3.064,0,4.634,0,0-.161,0-.282,0-.4.016-1.493-.018-2.989.062-4.478A3.4,3.4,0,0,1,19.273.062C19.682.026,20.094,0,20.505,0q12-.005,24,0a1.87,1.87,0,0,1,1.414.557q4.595,4.6,9.211,9.179c1.021,1.017,2.038,2.04,3.063,3.053a1.762,1.762,0,0,1,.6,1.305c0,.257.022.514.022.772q0,15.668,0,31.337a5.243,5.243,0,0,1-.357,2.269A3.146,3.146,0,0,1,55.695,50.5c-1.54.083-3.086.072-4.629.082-.281,0-.37.072-.37.36,0,1.792-.006,3.585-.019,5.377A3.4,3.4,0,0,1,47.7,59.707c-.9.1-1.806.075-2.71.092-.679.012-1.359.009-2.038,0-.242,0-.318.075-.317.319.008,1.648.024,3.3-.012,4.944a5.339,5.339,0,0,1-.274,1.691,3.214,3.214,0,0,1-2.852,2.174,11.93,11.93,0,0,1-1.355.062q-17.063,0-34.126,0a8.759,8.759,0,0,1-1.228-.1A3.524,3.524,0,0,1,0,65.543Q.036,42.5,0,19.465a3.455,3.455,0,0,1,3.1-3.316c1.425-.1,2.859-.05,4.29-.067.2,0,.407,0,.66,0M40.29,31.038h-.316c-2.543,0-5.086,0-7.628-.009-.875,0-1.749-.036-2.623-.043a2.207,2.207,0,0,1-2.033-2.14q-.025-5.083-.03-10.166c0-.224-.044-.273-.267-.273q-11.489.008-22.978,0c-.38,0-.762-.009-1.141.022a1.038,1.038,0,0,0-.964.823,2.147,2.147,0,0,0-.068.579q-.006,4.929,0,9.859,0,17.771,0,35.542c0,1.034.5,1.485,1.551,1.518.267.008.535-.012.8-.012H37.482c.474,0,.947.014,1.421.015a1.224,1.224,0,0,0,1.388-1.371q0-16.952,0-33.9Zm2.337,26.469c1.53,0,3.011.021,4.49-.008.905-.018,1.311-.49,1.31-1.4q0-3.94-.011-7.88,0-11.836,0-23.672V23H44.232c-2.038,0-4.077-.019-6.115.008a2.364,2.364,0,0,1-2.351-2.118c0-.308-.041-.617-.042-.925q-.01-4.667-.012-9.333c0-.069-.008-.139-.014-.246h-.409l-13.372,0q-5.234,0-10.469.006a.966.966,0,0,0-1.059,1.055c-.01,1.493,0,2.987,0,4.481a.853.853,0,0,0,.032.158h.224q8.864,0,17.727-.006a1.86,1.86,0,0,1,1.434.576c.869.893,1.755,1.769,2.637,2.648q4.715,4.7,9.44,9.389a2.393,2.393,0,0,1,.757,1.836q-.023,13-.01,25.991v.992M43.75,2.251H42.674q-11.318-.009-22.635-.012c-1.367,0-1.637.568-1.645,1.544-.011,1.359.008,2.719.007,4.079,0,.184.075.229.243.219.267-.016.535-.019.8-.019q8.261,0,16.522,0c.288,0,.575.023.863.032a1.33,1.33,0,0,1,.954.431c.551.57,1.118,1.125,1.679,1.685q5.28,5.271,10.565,10.535a2.054,2.054,0,0,1,.669,1.576q-.025,12.747-.007,25.494v.478h.348l3.088,0c.4,0,.8.011,1.2-.01a1.051,1.051,0,0,0,1.108-1.137c.012-.35-.008-.7-.008-1.05q0-15.389,0-30.779c0-.274-.058-.371-.353-.368-1.39.015-2.779,0-4.169,0-1.843,0-3.685,0-5.528,0a2.55,2.55,0,0,1-1.952-.759,2.589,2.589,0,0,1-.682-1.894q0-4.836,0-9.672v-.38M29.935,20.035v8.686H38.61l-8.675-8.686m8.079-8.029c-.007.114-.019.2-.019.294,0,2.7.008,5.4,0,8.094,0,.251.074.31.317.31,2.675,0,5.351,0,8.026.007h.31l-8.637-8.7m16.681.605.054-.08-8.624-8.6a.349.349,0,0,0-.086.228c0,2.707.012,5.415,0,8.122,0,.257.057.333.318.331,1.759-.01,3.519-.005,5.278-.005H54.7" transform="translate(0 0)" fill="#fff"/>
          <path id="Path_611699" data-name="Path 611699" d="M18.313,93.546c0-.6,0-1.195,0-1.792a3.611,3.611,0,0,1,3.469-3.835,8.611,8.611,0,0,1,3.4.215,3.471,3.471,0,0,1,2.363,3.092,1.254,1.254,0,0,1-.983,1.289,1.13,1.13,0,0,1-1.115-.664c-.115-.285-.194-.585-.281-.88a.97.97,0,0,0-.893-.726c-.854-.017-1.709-.026-2.562-.01a1.037,1.037,0,0,0-1.015,1.054q-.021,2.379-.033,4.758a.985.985,0,0,0,.8.993c.972.05,1.95.047,2.923.016a.818.818,0,0,0,.8-.736,5.344,5.344,0,0,1,.21-.709,1.023,1.023,0,0,1,1.114-.733,1.035,1.035,0,0,1,1,.893,2.516,2.516,0,0,1-.033.885,3.432,3.432,0,0,1-3.333,2.735c-.75.023-1.5.02-2.253,0a3.459,3.459,0,0,1-3.516-3.345c-.054-.83-.009-1.667-.009-2.5h-.044" transform="translate(-13.772 -66.07)" fill="#fff"/>
          <path id="Path_611700" data-name="Path 611700" d="M69.676,96.108c.051-.125.089-.2.117-.287q.955-2.882,1.909-5.765c.113-.341.224-.683.35-1.02a1.223,1.223,0,0,1,1.127-.819,1.065,1.065,0,0,1,1.019.842,2.361,2.361,0,0,1-.127,1.02c-.6,1.869-1.224,3.73-1.839,5.593-.287.868-.56,1.742-.865,2.6a2.589,2.589,0,0,1-.438.806,1.654,1.654,0,0,1-2.806-.483c-.231-.525-.4-1.08-.577-1.626q-1.133-3.408-2.257-6.819a5.067,5.067,0,0,1-.171-.592,1.028,1.028,0,0,1,.426-1.112,1.07,1.07,0,0,1,1.7.477c.2.462.346.945.5,1.423q.91,2.767,1.813,5.536a1.636,1.636,0,0,0,.118.22" transform="translate(-48.953 -66.339)" fill="#fff"/>
          <path id="Path_611701" data-name="Path 611701" d="M32.427,169.188q-3.706,0-7.412,0a7.045,7.045,0,0,1-.831-.047,1.176,1.176,0,0,1-1.026-1,1.119,1.119,0,0,1,.8-1.148,2.968,2.968,0,0,1,.849-.13q7.566-.012,15.132,0a3.261,3.261,0,0,1,.88.131,1.143,1.143,0,0,1,.786,1.1,1.184,1.184,0,0,1-.908,1.047,3.288,3.288,0,0,1-.644.049q-3.814,0-7.628,0" transform="translate(-17.414 -125.489)" fill="#fff"/>
          <path id="Path_611702" data-name="Path 611702" d="M32.321,206.355q-3.735,0-7.47,0a5.875,5.875,0,0,1-.708-.043,1.227,1.227,0,0,1-1.02-1.051,1.14,1.14,0,0,1,.854-1.11,3.65,3.65,0,0,1,.854-.1q7.563-.012,15.126-.006a2.925,2.925,0,0,1,.819.119,1.147,1.147,0,0,1,.781,1.1,1.223,1.223,0,0,1-1.025,1.048,5.252,5.252,0,0,1-.615.038q-3.8,0-7.594,0Z" transform="translate(-17.388 -153.455)" fill="#fff"/>
          <path id="Path_611703" data-name="Path 611703" d="M32.4,243.459q-3.952,0-7.9,0a1.218,1.218,0,0,1-1.2-.7,1.057,1.057,0,0,1,.637-1.445,3.14,3.14,0,0,1,.881-.121q7.581-.01,15.161,0a3.319,3.319,0,0,1,.763.088,1.142,1.142,0,0,1,.873,1.124,1.2,1.2,0,0,1-1.15,1.055c-.947.008-1.894,0-2.841,0H32.4" transform="translate(-17.449 -181.393)" fill="#fff"/>
          <path id="Path_611704" data-name="Path 611704" d="M83.746,222.62q3.905,0,7.811,0a1.188,1.188,0,0,1,1.258.79,1.087,1.087,0,0,1-.862,1.441,4.065,4.065,0,0,1-.858.076q-7.41.006-14.819,0a3.656,3.656,0,0,1-1.031-.14.973.973,0,0,1-.711-1.064,1.048,1.048,0,0,1,.792-1.02,2.687,2.687,0,0,1,.672-.067q3.875-.006,7.749,0Z" transform="translate(-56.055 -167.429)" fill="#fff"/>
          <path id="Path_611705" data-name="Path 611705" d="M83.745,185.516q3.935,0,7.871,0a1.124,1.124,0,0,1,1.232.969,1.035,1.035,0,0,1-.694,1.194,2.791,2.791,0,0,1-.788.118q-7.253,0-14.506-.014a12.374,12.374,0,0,1-1.384-.044,1.015,1.015,0,0,1-.949-1.034,1.087,1.087,0,0,1,.919-1.139,3.2,3.2,0,0,1,.582-.048q3.858,0,7.716,0" transform="translate(-56.051 -139.524)" fill="#fff"/>
          <path id="Path_611706" data-name="Path 611706" d="M83.711,150.8q-3.906,0-7.813,0a2.35,2.35,0,0,1-.519-.055,1.052,1.052,0,0,1-.846-1.212,1.064,1.064,0,0,1,1.07-.955c.535-.008,1.071,0,1.606,0,4.838,0,9.676.011,14.514-.012a1.133,1.133,0,0,1,1.082,1.484,1.167,1.167,0,0,1-1.189.755H83.711" transform="translate(-56.049 -111.733)" fill="#fff"/>
          <path id="Path_611707" data-name="Path 611707" d="M112.177,206.362c-1.235,0-2.469.017-3.7-.011a2.261,2.261,0,0,1-.991-.247.97.97,0,0,1-.471-1.06,1,1,0,0,1,.819-.893,3.834,3.834,0,0,1,.823-.1q3.457-.012,6.913,0a3.7,3.7,0,0,1,.972.126,1.047,1.047,0,0,1,.748,1.08,1.144,1.144,0,0,1-.917,1.063,2.64,2.64,0,0,1-.46.037q-1.868,0-3.735,0Z" transform="translate(-80.47 -153.46)" fill="#fff"/>
          <path id="Path_611708" data-name="Path 611708" d="M112.195,169.178c-1.214,0-2.429.006-3.643,0a2.911,2.911,0,0,1-.82-.11,1.025,1.025,0,0,1-.739-.966,1,1,0,0,1,.609-1.048,2.6,2.6,0,0,1,.925-.194q3.6-.023,7.193,0a2.733,2.733,0,0,1,.786.13,1.074,1.074,0,0,1,.781,1.065,1.149,1.149,0,0,1-.869,1.074,2.208,2.208,0,0,1-.519.056c-1.235,0-2.47,0-3.7,0Z" transform="translate(-80.464 -125.482)" fill="#fff"/>
          <path id="Path_611709" data-name="Path 611709" d="M112.111,243.452c-1.348,0-2.7,0-4.042,0a1.116,1.116,0,0,1-1.1-.943,1.033,1.033,0,0,1,.593-1.17,2.315,2.315,0,0,1,.81-.15q3.733-.017,7.467,0a2.286,2.286,0,0,1,.606.091,1.058,1.058,0,0,1,.8,1.162,1.092,1.092,0,0,1-1.092,1.014c-1.348.008-2.7,0-4.042,0" transform="translate(-80.436 -181.387)" fill="#fff"/>
          <path id="Path_611710" data-name="Path 611710" d="M28.327,185.515h3.795a1.258,1.258,0,0,1,1.214.638,1.053,1.053,0,0,1-.566,1.519,2.273,2.273,0,0,1-.724.125c-2.489.009-4.977.016-7.466-.008a2.059,2.059,0,0,1-1.009-.3.905.905,0,0,1-.416-.993,1.164,1.164,0,0,1,.83-.912,2.073,2.073,0,0,1,.578-.071c1.254-.006,2.509,0,3.764,0" transform="translate(-17.396 -139.522)" fill="#fff"/>
          <path id="Path_611711" data-name="Path 611711" d="M28.325,222.638c1.306,0,2.612,0,3.918,0a1.175,1.175,0,0,1,1.074.6,1.032,1.032,0,0,1-.438,1.488,2.041,2.041,0,0,1-.8.188c-2.53.013-5.059.017-7.589-.008a1.752,1.752,0,0,1-.912-.3.95.95,0,0,1-.409-1.082,1.223,1.223,0,0,1,1.085-.876c.246-.02.493-.017.74-.017q1.666,0,3.332,0v.008" transform="translate(-17.395 -167.437)" fill="#fff"/>
          <path id="Path_611712" data-name="Path 611712" d="M28.347,148.612h3.922a1.144,1.144,0,0,1,1.246,1.085,1.164,1.164,0,0,1-1.246,1.138c-1.647.008-3.294,0-4.941,0q-1.421,0-2.841,0a1.325,1.325,0,0,1-.94-.321,1.039,1.039,0,0,1-.315-1.119,1.107,1.107,0,0,1,1.069-.785c1.348,0,2.7,0,4.045,0" transform="translate(-17.43 -111.768)" fill="#fff"/>
        </g>
      </g>
    </g>
  </g>
</svg>
