<svg xmlns="http://www.w3.org/2000/svg" xmlns:xlink="http://www.w3.org/1999/xlink" width="107" height="107" viewBox="0 0 107 107">
  <defs>
    <clipPath id="clip-path">
      <rect id="Rectangle_378979" data-name="Rectangle 378979" width="75" height="75" transform="translate(288.668 4464.017)" fill="#fff" stroke="#707070" stroke-width="1"/>
    </clipPath>
    <clipPath id="clip-path-2">
      <rect id="Rectangle_378444" data-name="Rectangle 378444" width="60.5" height="69.732" fill="#fff"/>
    </clipPath>
  </defs>
  <g id="Grupo_156312" data-name="Grupo 156312" transform="translate(-288.668 -4448.017)">
    <path id="Elipse_5845" data-name="Elipse 5845" d="M53.5,0A53.5,53.5,0,1,1,0,53.5,53.5,53.5,0,0,1,53.5,0Z" transform="translate(288.668 4448.017)" fill="#5e5a55"/>
    <g id="Mask_Group_154440" data-name="Mask Group 154440" transform="translate(16)" clip-path="url(#clip-path)">
      <g id="Grupo_156261" data-name="Grupo 156261" transform="translate(291.668 4465.732)">
        <g id="Group_1073907" data-name="Group 1073907" transform="translate(5 1.284)">
          <g id="Group_1073906" data-name="Group 1073906" clip-path="url(#clip-path-2)">
            <path id="Path_611691" data-name="Path 611691" d="M35.716,61.248H19.806c0,.314,0,.6,0,.892,0,2.052,0,4.1.008,6.155a1.351,1.351,0,0,1-.727,1.254,1.214,1.214,0,0,1-1.407-.1c-.82-.606-1.62-1.239-2.429-1.86-.206-.158-.419-.308-.625-.468a.265.265,0,0,0-.382.013c-.892.7-1.792,1.392-2.692,2.083a1.565,1.565,0,0,1-1.517.428,1.618,1.618,0,0,1-1.026-1.625q0-3.2,0-6.4v-.379H8.181c-1.343,0-2.688.028-4.03-.014A4.074,4.074,0,0,1,.465,59,3.675,3.675,0,0,1,0,57.233q0-10.5,0-20.995a1.4,1.4,0,0,1,.972-1.376,1.284,1.284,0,0,1,1.546.561,1.07,1.07,0,0,1,.17.46c.038.424.057.852.057,1.278q0,9.373,0,18.745a11.47,11.47,0,0,1-.034,1.155,1.359,1.359,0,0,0,1.392,1.446c1.509-.044,3.02-.015,4.53-.017H8.99V2.751H8.7q-2.359,0-4.718,0A1.2,1.2,0,0,0,2.725,4.034q.014,9.435.026,18.87c0,.416,0,.834-.022,1.249A1.447,1.447,0,0,1,1.547,25.5,1.408,1.408,0,0,1,.1,24.577a2.375,2.375,0,0,1-.1-.8Q0,18.266,0,12.752,0,8.363.009,3.974A4.036,4.036,0,0,1,3.534.065,10.966,10.966,0,0,1,4.687,0Q26.025,0,47.364,0a3.331,3.331,0,0,1,.65.06,1.3,1.3,0,0,1,1.1,1.317c.011.364,0,.729,0,1.093q0,20.635,0,41.271c0,.63,0,.616.617.718a12.64,12.64,0,0,1,8.656,5.587,11.915,11.915,0,0,1,1.781,4.13,12.3,12.3,0,0,1,.175,4.707,12.789,12.789,0,0,1-3.289,6.771,12.522,12.522,0,0,1-4.949,3.281,11.846,11.846,0,0,1-4.366.792,12.721,12.721,0,0,1-10.129-5.012,12.213,12.213,0,0,1-1.9-3.47m-.736-2.774a.686.686,0,0,0,.02-.11c0-.135,0-.271-.005-.406a12.126,12.126,0,0,1,.5-4.466A12.539,12.539,0,0,1,37.35,49.7a12.746,12.746,0,0,1,8.305-5.236c.743-.133.746-.11.746-.889q0-8.935,0-17.869.009-11.309.027-22.617c0-.1-.011-.2-.017-.315H11.773v55.7Zm12.431,8.507a10,10,0,1,0-9.715-10.8,9.952,9.952,0,0,0,9.715,10.8M11.768,65.66c.627-.473,1.2-.905,1.768-1.335a1.277,1.277,0,0,1,1.788-.035c.535.379,1.047.79,1.57,1.184a1.323,1.323,0,0,0,.187.1V61.256H11.768Z" transform="translate(0 0)" fill="#fff"/>
            <path id="Path_611692" data-name="Path 611692" d="M.03,115.86a1.451,1.451,0,0,1,1.385-1.34A1.4,1.4,0,0,1,2.749,115.9a1.369,1.369,0,0,1-1.364,1.3A1.331,1.331,0,0,1,.03,115.86" transform="translate(-0.022 -85.895)" fill="#fff"/>
            <path id="Path_611693" data-name="Path 611693" d="M81.175,41.28q5.06,0,10.121,0a3.736,3.736,0,0,1,.559.036,1.39,1.39,0,0,1,1.253,1.239,3.171,3.171,0,0,1,.047.528q0,4.233,0,8.466a1.659,1.659,0,0,1-.473,1.371,1.786,1.786,0,0,1-.741.344,4.334,4.334,0,0,1-.933.055q-9.871,0-19.742,0a7.3,7.3,0,0,1-.779-.044,1.3,1.3,0,0,1-1.118-1.132c-.037-.424-.055-.852-.056-1.279q-.008-3.951,0-7.9a1.468,1.468,0,0,1,1.684-1.682H81.175M72.021,50.6h.65L87.915,50.6c.75,0,1.5,0,2.249,0,.167,0,.267-.01.267-.229q-.01-3.076,0-6.153c0-.177-.054-.238-.235-.23-.3.013-.6,0-.905,0q-8.481-.009-16.962-.024c-.231,0-.308.055-.307.292.007,1.416,0,2.832,0,4.248,0,.686,0,1.372,0,2.1" transform="translate(-51.983 -30.961)" fill="#fff"/>
            <path id="Path_611694" data-name="Path 611694" d="M78.692,166.989q3.858,0,7.716,0a1.321,1.321,0,0,1,.922.312,1.248,1.248,0,0,1,.5,1.349,1.386,1.386,0,0,1-1.2,1.037,4.249,4.249,0,0,1-.591.035c-5.009,0-10.018,0-15.026.015a1.376,1.376,0,1,1-.128-2.743q3.9,0,7.81,0" transform="translate(-52.116 -125.247)" fill="#fff"/>
            <path id="Path_611695" data-name="Path 611695" d="M75.22,196.194c-1.415,0-2.831,0-4.246,0a1.307,1.307,0,0,1-1.454-1.315,1.356,1.356,0,0,1,1.445-1.357c1.332-.014,2.664,0,4,0,1.5,0,3,0,4.5,0a1.382,1.382,0,0,1,1.434.885,1.347,1.347,0,0,1-1.237,1.8c-1.28-.009-2.56.008-3.84.013H75.22v-.018" transform="translate(-52.143 -145.143)" fill="#fff"/>
            <path id="Path_611696" data-name="Path 611696" d="M178.8,221.43c-.217.062-.395.115-.573.164a1.28,1.28,0,0,1-1.471-.6,1.266,1.266,0,0,1,.233-1.621,1.324,1.324,0,0,1,.248-.187c.773-.428,1.536-.876,2.327-1.269a1.294,1.294,0,0,1,1.931,1.153c.037,1.633.021,3.268.016,4.9,0,.516-.018.535.488.531a1.339,1.339,0,0,1,1.3,1.756,1.286,1.286,0,0,1-1.14.9,15.315,15.315,0,0,1-2.21-.027,1.235,1.235,0,0,1-1.107-1.138,4.331,4.331,0,0,1-.029-.592q0-1.874,0-3.748c0-.061-.007-.122-.013-.219" transform="translate(-132.432 -163.327)" fill="#fff"/>
            <path id="Path_611697" data-name="Path 611697" d="M188.259,201.4a1.384,1.384,0,0,1-1.34,1.331,1.359,1.359,0,0,1-1.338-1.393,1.265,1.265,0,0,1,1.324-1.279,1.345,1.345,0,0,1,1.355,1.341" transform="translate(-139.194 -150.054)" fill="#fff"/>
          </g>
        </g>
      </g>
    </g>
  </g>
</svg>
