<svg xmlns="http://www.w3.org/2000/svg" xmlns:xlink="http://www.w3.org/1999/xlink" width="107" height="107" viewBox="0 0 107 107">
  <defs>
    <clipPath id="clip-path">
      <rect id="Rectangle_378978" data-name="Rectangle 378978" width="75" height="75" transform="translate(-14 -4)" fill="#fff" stroke="#707070" stroke-width="1"/>
    </clipPath>
    <clipPath id="clip-path-2">
      <rect id="Rectangle_378443" data-name="Rectangle 378443" width="67" height="67.134" fill="#fff"/>
    </clipPath>
  </defs>
  <g id="Grupo_156312" data-name="Grupo 156312" transform="translate(-288.668 -4448.017)">
    <circle id="Elipse_5845" data-name="Elipse 5845" cx="53.5" cy="53.5" r="53.5" transform="translate(288.668 4448.017)" fill="#5e5a55"/>
    <g id="Group_1073905" data-name="Group 1073905" transform="translate(308.668 4468.017)">
      <g id="Mask_Group_154439" data-name="Mask Group 154439" transform="translate(10)" clip-path="url(#clip-path)">
        <g id="Group_1073904" data-name="Group 1073904" transform="translate(-10 0)" clip-path="url(#clip-path-2)">
          <path id="Path_611688" data-name="Path 611688" d="M13.521,4.88V2.435c0-.441.024-.884-.005-1.324A1.016,1.016,0,0,1,14.955.093a37.673,37.673,0,0,1,4.8,2.275,32.035,32.035,0,0,1,8.2,6.472,27.818,27.818,0,0,1,5.284,8.472c.077.194.146.391.251.672.072-.164.117-.254.153-.348a27.367,27.367,0,0,1,5.476-8.873A33.43,33.43,0,0,1,50.66.682c.477-.208.961-.4,1.441-.6a1.01,1.01,0,0,1,1.39,1c-.015,1.183,0,2.367,0,3.55v.251c.338-.114.645-.224.956-.321,1.393-.434,2.786-.869,4.182-1.294a1.238,1.238,0,0,1,1.341.436c.927.972,1.883,1.917,2.828,2.873.035.035.076.064.124.1.257-.135.514-.269.769-.4A2.33,2.33,0,0,1,67,8.37q-.037,14.352-.015,28.7c0,.281,0,.562.012.842a1.014,1.014,0,0,1-.974,1.106,1.132,1.132,0,0,1-.993-1.074q.027-14.638.013-29.276c0-.11,0-.221,0-.331-.012-.361-.216-.5-.531-.33-.68.363-1.353.741-2.025,1.118l-12.843,7.2c-3.39,1.9-6.776,3.808-10.177,5.689a.962.962,0,0,0-.574,1.059,7.328,7.328,0,0,1,.013.782q0,19.873,0,39.747c0,.04,0,.08,0,.12.018.5.225.638.673.393,1.072-.586,2.135-1.19,3.2-1.787q5.362-3,10.723-6.006,5.61-3.144,11.221-6.285a.55.55,0,0,0,.33-.558c-.015-1.7.009-3.41-.018-5.115A.994.994,0,0,1,66,43.392a.945.945,0,0,1,1,.972c0,1.775,0,3.55-.018,5.325a2.209,2.209,0,0,1-1.207,1.952c-1,.585-2.025,1.139-3.038,1.707L46.458,62.471c-1.992,1.116-3.989,2.226-5.977,3.349a2.373,2.373,0,0,1-1.617.313.577.577,0,0,0-.6.235,2.27,2.27,0,0,1-1.8.755q-2.979.019-5.958,0a2.331,2.331,0,0,1-1.877-.863.454.454,0,0,0-.36-.134,2.567,2.567,0,0,1-1.71-.307q-2.219-1.235-4.435-2.475-4.957-2.773-9.913-5.547-5.466-3.062-10.929-6.13A2.381,2.381,0,0,1,.005,49.444q0-10.305-.005-20.61Q0,18.815.016,8.8A4.325,4.325,0,0,1,.188,7.5a2.284,2.284,0,0,1,3.1-1.246l.243.12c.195.1.406.29.58.262s.325-.274.479-.43c.831-.842,1.67-1.677,2.487-2.533a1.171,1.171,0,0,1,1.263-.41q2.124.643,4.244,1.3c.3.094.6.2.936.317M1.966,29q0,10.215-.009,20.429a.635.635,0,0,0,.384.647Q7.83,53.125,13.305,56.2q6.946,3.894,13.889,7.793a2.147,2.147,0,0,0,.465.205c.275.076.421-.038.439-.323.011-.18.011-.361.011-.541q.007-20.083.024-40.166a1.236,1.236,0,0,0-.734-1.244q-7.256-4.017-14.484-8.082Q7.71,10.928,2.509,8.007c-.313-.176-.525-.051-.542.318,0,.09,0,.181,0,.271q0,10.2,0,20.4M15.459,2.371c0,1.049.008,2.031-.006,3.012a.4.4,0,0,0,.284.427c.661.288,1.319.58,1.969.892.6.29,1.2.593,1.792.915a.791.791,0,0,1,.489.876,1,1,0,0,1-1.508.736,49.154,49.154,0,0,0-5.927-2.62C11.243,6.142,9.914,5.728,8.593,5.3a.444.444,0,0,0-.518.106c-.523.554-1.059,1.095-1.6,1.63-.2.2-.428.359-.683.57.208.136.3.206.406.264Q11.675,10.932,17.155,14q5.739,3.217,11.472,6.445a3.108,3.108,0,0,0,1.748.451c.517-.033,1.034-.06,1.578-.092a2.02,2.02,0,0,0-.116-.229,30.188,30.188,0,0,0-3.276-4.033,35.8,35.8,0,0,0-4.654-3.986.958.958,0,1,1,1.134-1.542A39.361,39.361,0,0,1,29.436,14.7c.247.238.483.487.724.731l.074-.082C26.9,9.244,21.782,5.165,15.459,2.371m21.4,53.874V31.757H30.128c-.008.092-.02.169-.02.247q0,7.294.008,14.587,0,4.707-.012,9.414c0,.253.121.241.3.241,2.145,0,4.29,0,6.461,0M34.978,20.79c.571.032,1.041.046,1.508.089a2.839,2.839,0,0,0,1.658-.313c.546-.3,1.08-.613,1.622-.916q5.153-2.882,10.308-5.763Q55.45,10.88,60.822,7.866a2.718,2.718,0,0,0,.271-.2.423.423,0,0,0-.04-.088c-.729-.745-1.453-1.5-2.2-2.227a.517.517,0,0,0-.409-.058c-.36.084-.712.2-1.066.311a50.984,50.984,0,0,0-8.371,3.379A37.29,37.29,0,0,0,36.7,18.534c-.578.712-1.114,1.459-1.721,2.256M51.525,2.452a.218.218,0,0,0-.082-.009,1.249,1.249,0,0,0-.168.064A32.328,32.328,0,0,0,42.7,7.926a26.32,26.32,0,0,0-5.786,7.2,3.076,3.076,0,0,0-.139.352.234.234,0,0,0,.161-.076c.931-.881,1.821-1.81,2.8-2.633A45.468,45.468,0,0,1,51.247,5.833a.42.42,0,0,0,.307-.468c-.024-.611-.023-1.222-.028-1.834,0-.358,0-.717,0-1.08m-21.4,60.115c0,.811,0,1.59,0,2.369,0,.237.172.265.354.265,2.023,0,4.046,0,6.07,0,.249,0,.331-.1.328-.342-.009-.661,0-1.322,0-1.983,0-.105-.009-.21-.014-.313Zm6.744-39.714c-.127-.008-.215-.019-.3-.019-2.055,0-4.111,0-6.166,0-.191,0-.276.061-.276.255q0,1.067-.018,2.135c0,.184.108.179.238.179q3.023,0,6.046,0h.48Zm-6.734,6.931h6.752c0-.72-.01-1.42.006-2.12.006-.245-.082-.309-.31-.309q-3.112.008-6.224,0c-.208,0-.253.08-.251.266,0,.661,0,1.323,0,1.984a1.078,1.078,0,0,0,.031.181m6.732,28.469c-.039-.019-.047-.026-.056-.027q-3.249-.008-6.5-.017c-.191,0-.2.1-.2.247,0,.672,0,1.343,0,2.015a.649.649,0,0,0,.033.14h6.726Z" transform="translate(0 0)" fill="#fff"/>
          <path id="Path_611689" data-name="Path 611689" d="M193.354,74.8c0,1.013-.006,2.025,0,3.038a1.008,1.008,0,0,1-.531.969c-1.47.838-2.936,1.683-4.406,2.52q-6.722,3.827-13.446,7.65c-.183.1-.366.207-.551.307a.974.974,0,0,1-1.405-.663,3.267,3.267,0,0,1-.053-.657c0-1.815.018-3.629-.005-5.444a1.46,1.46,0,0,1,.836-1.425q5.5-3.1,10.971-6.229,3.511-2,7.019-4a.982.982,0,0,1,1.569.9q0,1.519,0,3.037M174.978,86.74a.683.683,0,0,0,.118-.034l3.55-2.022q4.633-2.642,9.266-5.283,1.566-.892,3.139-1.773a.618.618,0,0,0,.389-.626c-.029-1.092-.011-2.186-.011-3.279V73.3a.559.559,0,0,0-.121.027q-1.683.96-3.365,1.922-6.37,3.629-12.744,7.251a.443.443,0,0,0-.254.452c.009,1.173.007,2.346.01,3.519,0,.085.015.17.025.266" transform="translate(-131.2 -53.612)" fill="#fff"/>
          <path id="Path_611690" data-name="Path 611690" d="M136.662,160.411q0,2.932,0,5.864a1.008,1.008,0,0,1-.955,1,.974.974,0,0,1-.991-.958c-.013-2.426-.014-4.851-.016-7.277,0-1.483.006-2.967.006-4.45a.931.931,0,0,1,.379-.808c.273-.2.55-.373.908-.18a1.015,1.015,0,0,1,.666.914q0,2.947,0,5.894Z" transform="translate(-102.179 -116.454)" fill="#fff"/>
        </g>
      </g>
    </g>
  </g>
</svg>
