<svg xmlns="http://www.w3.org/2000/svg" xmlns:xlink="http://www.w3.org/1999/xlink" width="139" height="139" viewBox="0 0 139 139">
  <defs>
    <clipPath id="clip-path">
      <rect id="Rectangle_378974" data-name="Rectangle 378974" width="97" height="97" transform="translate(439 2675)" fill="#fff" stroke="#707070" stroke-width="1"/>
    </clipPath>
    <clipPath id="clip-path-2">
      <rect id="Rectangle_378447" data-name="Rectangle 378447" width="94" height="80.509" fill="#615842"/>
    </clipPath>
  </defs>
  <g id="Group_1074717" data-name="Group 1074717" transform="translate(-421 -2651)">
    <g id="Group_1073924" data-name="Group 1073924">
      <g id="Group_1072263" data-name="Group 1072263" transform="translate(-1013.668 -3231)">
        <g id="Group_1072229" data-name="Group 1072229" transform="translate(1434.668 5882)">
          <path id="Path_608385" data-name="Path 608385" d="M69.5,0A69.5,69.5,0,1,1,0,69.5,69.5,69.5,0,0,1,69.5,0Z" transform="translate(0)" fill="#fff"/>
        </g>
      </g>
    </g>
    <g id="Mask_Group_154438" data-name="Mask Group 154438" transform="translate(3 -3)" clip-path="url(#clip-path)">
      <g id="Group_1073920" data-name="Group 1073920" transform="translate(440 2683)">
        <g id="Group_1073919" data-name="Group 1073919" clip-path="url(#clip-path-2)">
          <path id="Path_611714" data-name="Path 611714" d="M88.6,61.343a9.234,9.234,0,0,0,3.225-2.884,11.064,11.064,0,0,0,2.161-6.463c.03-3.563.007-7.127.009-10.691a9.83,9.83,0,0,0-.185-1.774,10.91,10.91,0,0,0-3.582-6.462,9.638,9.638,0,0,0-6.616-2.351c-7.272.008-14.545-.108-21.817.068-.652.016-.649.012-.649-.636q.006-10.32.013-20.641c0-.459.021-.921.028-1.378,0-.255.033-.361.247-.45a3.783,3.783,0,0,0,2.584-3.831,3.808,3.808,0,0,0-2-3.269A5.318,5.318,0,0,0,59.231,0Q52.378,0,45.526.021c-7.493.035-14.987.012-22.48.016q-3.732,0-7.463.015c-3.952.006-7.9,0-11.856.026A3.578,3.578,0,0,0,1.847.7,3.894,3.894,0,0,0,.215,2.893a3.312,3.312,0,0,0,0,2.334A4.648,4.648,0,0,0,2.359,7.544c.175.1.332.17.352.39A.041.041,0,0,0,2.7,8,9.59,9.59,0,0,0,2.7,9.5v.349c0,.049,0,.1,0,.146,0,.068,0,.135,0,.2,0,.049,0,.1,0,.146,0,.068,0,.136,0,.2h0V10.7c0,.067,0,.134,0,.2a.048.048,0,0,0,0,.062c0,.1,0,.2,0,.294,0,.046,0,.091,0,.137,0,.071,0,.142,0,.213,0,.045,0,.09,0,.135a10.365,10.365,0,0,0,0,1.609c0,.046,0,.092,0,.139,0,.07,0,.14,0,.21,0,.047,0,.093,0,.139,0,.069,0,.139,0,.209v.49c0,.069,0,.139,0,.209,0,.047,0,.093,0,.14,0,.07,0,.139,0,.209v.35c0,.046,0,.092,0,.138,0,.07,0,.14,0,.21v.139q0,.1,0,.21v.139a1.464,1.464,0,0,0,0,.559c0,.047,0,.093,0,.14,0,.068,0,.137,0,.206a.042.042,0,0,0,0,.058q0,.149.006.3c0,.044,0,.088,0,.132,0,.073,0,.145,0,.218v.13a1.3,1.3,0,0,0,0,.568v.131l0,.216v.484c0,.071,0,.143,0,.214,0,.045,0,.09,0,.135a3.756,3.756,0,0,0-.014.9.056.056,0,0,0,0,.064c0,.095,0,.19,0,.285a.055.055,0,0,0,0,.063c0,.1,0,.193,0,.289v.144c0,.069,0,.138,0,.206,0,.047,0,.094,0,.142,0,.069,0,.138,0,.207,0,.047,0,.095,0,.142,0,.069,0,.138,0,.206v.143c0,.069,0,.138,0,.207,0,.047,0,.094,0,.142l0,.208v.139q0,.1,0,.209a.035.035,0,0,0,0,.053,7.511,7.511,0,0,0,0,1.349c0,.044,0,.088,0,.131,0,.072,0,.144,0,.216,0,.045,0,.09,0,.135q0,.107,0,.214c0,.045,0,.09,0,.135q0,.107,0,.213c0,.046,0,.091,0,.136q0,.106,0,.212c0,.046,0,.092,0,.139-.007,1.279-.016,2.557-.02,3.836-.007,2.617-.018,5.234-.014,7.851A2.527,2.527,0,0,0,5.3,40.726c.761,0,1.521.032,2.282.029q14.294-.046,28.589-.023,2.383,0,4.767,0,3.912,0,7.823,0,4.232,0,8.463-.014a.215.215,0,0,0-.058-.119.215.215,0,0,1,.058.119c.174.005.349.015.523.015,3.477,0,6.954.009,10.432-.009.414,0,.485.128.5.509a14.815,14.815,0,0,0,.062,2.151c.357,2.015.219,4.075.452,6.1.14,1.22.11,2.448.243,3.669.113,1.035.144,2.081.191,3.123a30.92,30.92,0,0,0,.295,3.312c.017.333.036.667.052,1a13.38,13.38,0,0,0,.074,1.824.3.3,0,0,0,.021.294,8.027,8.027,0,0,0,.018.827,37.682,37.682,0,0,1,.326,5.116,5.247,5.247,0,0,0,.018.739c.137,1.084.282,2.166.334,3.259.034.708-.046,1.413.055,2.125.14.989.2,1.99.291,2.986.022.227-.033.34-.3.34q-2.082,0-4.165.036a1.172,1.172,0,0,0-1.135.766.988.988,0,0,0,.214,1.038,1.391,1.391,0,0,0,1.287.482q11.841.008,23.682.008c.348,0,.7-.023,1.044-.035.094.252.125,0,.183-.023a3.435,3.435,0,0,0,.434-.011,1.037,1.037,0,0,0,.842-1.064.933.933,0,0,0-.714-1.079,4.724,4.724,0,0,0-1.207-.128c-1.249.009-2.5.006-3.747.012-.226,0-.376-.006-.348-.324.143-1.639.144-3.287.329-4.924.178-1.321.139-2.656.27-3.981.095-.952.079-1.918.209-2.864a13.753,13.753,0,0,1,.3-2.848c-.325-.369.01-.775-.064-1.162a.578.578,0,0,1,.375-.659M2.312,4.034A1.842,1.842,0,0,1,4.067,2.329c1.73.014,3.46,0,5.19,0q3.249,0,6.5-.014c.189.005.377.015.566.015h43.46a1.76,1.76,0,0,1,1.81,1.156,1.574,1.574,0,0,1-1.68,2.074q-5.236.006-10.472,0l-32.769.006c-.131,0-.261.011-.392.016L7.557,5.571c-1.192,0-2.384.006-3.576-.014A1.707,1.707,0,0,1,2.312,4.034m2.723,7.883a.125.125,0,0,0-.015.058.125.125,0,0,1,.015-.058m0,3.862a.212.212,0,0,0,0,.159.212.212,0,0,1,0-.159M48.643,38.46c-.116.007-.233,0-.349,0q-21.033-.009-42.067-.024c-.368,0-.859.2-1.073-.077-.178-.232-.057-.7-.057-1.061Q5.091,29.747,5.088,22.2c0-.407.007-.814.011-1.221v-.024q0-1.158,0-2.317l.057-.027L5.1,18.581q-.016-1.282-.031-2.563a.34.34,0,0,1-.039-.07.36.36,0,0,0,.039.07c.16-.1.158-.209.006-.318q0-1.8,0-3.607a.175.175,0,0,1-.054-.1.174.174,0,0,0,.054.1c.14-.077.14-.156,0-.235,0-1.163.016-2.327-.005-3.49-.007-.371.116-.457.471-.456q6.153.023,12.306.018c.145,0,.29-.011.435-.016a.435.435,0,0,0,0-.108.435.435,0,0,1,0,.108q5,.005,9.994.01l26.667.015c1.149,0,2.3.024,3.448-.011.432-.013.5.143.495.519q-.014,9.447-.007,18.894c0,.945-.025,1.892.011,2.836.017.442-.1.567-.55.56q-2.378-.039-4.757,0a4.922,4.922,0,0,0-3.3,1.041,5.219,5.219,0,0,0-1.8,5.071.939.939,0,0,0,.185.482,2.009,2.009,0,0,0,.259.593c.194.32.084.512-.295.535m.29-1.26a.567.567,0,0,1-.155.112.567.567,0,0,0,.155-.112m38.721,1.785a2,2,0,0,0-.293.946c-.033,1.087-.2,2.164-.2,3.253a22.18,22.18,0,0,1-.33,3.67,5.489,5.489,0,0,0-.013.915,32.4,32.4,0,0,1-.33,4.676,18.375,18.375,0,0,0-.086,2.351,35.211,35.211,0,0,1-.364,4.2,2.163,2.163,0,0,0-.007.261c-.016,1.7-.117,3.389-.271,5.077-.119,1.307-.2,2.615-.267,3.925-.047.863-.089,1.726-.142,2.589a.244.244,0,0,1,.092.028.244.244,0,0,0-.091-.028,15.832,15.832,0,0,0-.184,2.327c-.116,1.435-.171,2.876-.271,4.312-.042.6-.076.607-.68.607-3.415,0-6.831,0-10.247.013-.423,0-.6-.053-.616-.551-.069-1.63-.2-3.258-.333-4.885-.147-1.8-.106-3.618-.345-5.412-.285-2.142-.072-4.316-.453-6.449-.176-2-.071-4.024-.4-6.02-.1-.581-.028-1.186-.078-1.782-.092-1.1-.132-2.2-.2-3.3q-.173-2.729-.357-5.457c-.108-1.56-.235-3.119-.339-4.679a1.073,1.073,0,0,0-1.084-1.112c-.551-.027-1.1-.022-1.657-.023q-7.283,0-14.567,0a3.067,3.067,0,0,1-1.7-.425h0l-.459-.441c-.082.129-.273.227-.319.367.047-.14.237-.238.319-.367a2.96,2.96,0,0,1-.374-2.969,2.354,2.354,0,0,1,2.148-1.54q8.225.02,16.45,0c4.058,0,8.116-.017,12.174-.012a29.038,29.038,0,0,1,3.388.105,6.41,6.41,0,0,1,3.7,1.812,8.8,8.8,0,0,1,2.76,5.944c.213,3.063.037,6.132.09,9.2a14.819,14.819,0,0,1-.344,3.807,9.721,9.721,0,0,1-2.533,4.448c-.057.061-.113.154-.211.121s-.074-.148-.071-.226a27.692,27.692,0,0,1,.139-3.219c.094-.627.111-1.267.149-1.9.108-1.805.18-3.612.388-5.412a23,23,0,0,0,.123-2.515c.008-1.424.243-2.828.326-4.245.03-.507.041-1.018.026-1.525a1.048,1.048,0,0,0-.882-.947,1.063,1.063,0,0,0-1.165.479" transform="translate(0 0)" fill="#615842"/>
          <path id="Path_611715" data-name="Path 611715" d="M37.2,171.617a4.981,4.981,0,0,0-3.6-1.515c-3.782-.031-7.563-.02-11.345-.009a7.967,7.967,0,0,0-3.16.393,5.7,5.7,0,0,0-2.2,1.463,5.372,5.372,0,0,0-1.3,3.64q-.025,7.044-.016,14.09a1.178,1.178,0,0,0,1.068,1.216,3.612,3.612,0,0,0,.564.039q5.018,0,10.036,0v0q5.105,0,10.21,0a1.194,1.194,0,0,0,1.35-1.249q0-7.176-.019-14.352a5.18,5.18,0,0,0-1.589-3.714M36,188.6a2.094,2.094,0,0,0-.348-.009H27.1v0c-2.908,0-5.817,0-8.725.006-.282,0-.376-.074-.376-.361.012-4.361,0-8.722.025-13.084a2.781,2.781,0,0,1,2.673-2.7c1.075-.04,2.152-.019,3.228-.019,3.069,0,6.137.008,9.2-.005a3.15,3.15,0,0,1,2.561.953,2.9,2.9,0,0,1,.744,1.817c.131,2.278.073,4.558.081,6.838.007,2.05.006,4.1.007,6.15,0,.486-.025.5-.525.415" transform="translate(-10.12 -110.504)" fill="#615842"/>
          <path id="Path_611716" data-name="Path 611716" d="M118.484,170.1c-4.029.015-8.059.005-12.089,0a6.5,6.5,0,0,0-1.04.089,5.18,5.18,0,0,0-4.414,4.481c-.129,1.518-.085,3.052-.1,4.577-.006.744.049,1.5.043,2.253a34.728,34.728,0,0,1-.062,3.607,10.587,10.587,0,0,0,.076,1.738c.047.833-.056,1.663-.017,2.5.056,1.182.437,1.6,1.61,1.6h11.211c2.172-.025,5.518.052,8.863-.043,1.05-.03,1.463-.448,1.463-1.51q0-6.915,0-13.83a5.666,5.666,0,0,0-.257-1.618,5.321,5.321,0,0,0-5.295-3.847m2.7,18.509q-8.444,0-16.888,0c-.32,0-.64,0-.96.008-.222.009-.277-.1-.256-.294.008-.006.022-.012.022-.018a.318.318,0,0,0-.012-.054.289.289,0,0,0-.011.071.289.289,0,0,1,.011-.071c.13-2.208.036-4.418.054-6.628.017-2.094.006-4.188.024-6.282a3.093,3.093,0,0,1,1.957-2.726,3.789,3.789,0,0,1,1.143-.166c4.058,0,8.117.008,12.175-.012a2.984,2.984,0,0,1,2.9,1.557,3.8,3.8,0,0,1,.315,1.885c.019,4.116.005,8.231.022,12.346,0,.425-.226.38-.494.38" transform="translate(-65.495 -110.516)" fill="#615842"/>
          <path id="Path_611717" data-name="Path 611717" d="M212.807,55a6.971,6.971,0,0,0,.377-13.937,6.972,6.972,0,0,0-7.212,7.05A7.149,7.149,0,0,0,212.807,55m-.271-11.6a4.621,4.621,0,0,1,5.053,4.647c.216,2.541-2.327,4.6-4.582,4.649a4.842,4.842,0,0,1-4.655-4.662,4.754,4.754,0,0,1,4.184-4.634" transform="translate(-133.823 -26.672)" fill="#615842"/>
          <path id="Path_611718" data-name="Path 611718" d="M36.251,137.25a6.871,6.871,0,0,0,6.563-6.866,6.97,6.97,0,1,0-6.563,6.866m-.381-11.5a4.471,4.471,0,0,1,4.667,4.486,4.682,4.682,0,0,1-4.729,4.691,4.8,4.8,0,0,1-4.621-4.632,4.516,4.516,0,0,1,4.683-4.545" transform="translate(-18.76 -80.122)" fill="#615842"/>
          <path id="Path_611719" data-name="Path 611719" d="M122.09,137.15a6.479,6.479,0,0,0,3.546-1.611,6.9,6.9,0,0,0,1.96-7.722,7.251,7.251,0,0,0-6.461-4.543,3.923,3.923,0,0,0-1.435.218,12.162,12.162,0,0,0-1.409.4c-2.739,1.315-4.139,3.488-4.208,7.006a4.278,4.278,0,0,0,.792,2.609,7.106,7.106,0,0,0,7.215,3.638m-1.4-11.487c3.03-.09,4.971,1.817,4.97,4.6.2,2.708-2.5,4.733-4.673,4.636a4.621,4.621,0,0,1-4.613-4.582,4.434,4.434,0,0,1,4.316-4.649" transform="translate(-74.107 -80.092)" fill="#615842"/>
          <path id="Path_611720" data-name="Path 611720" d="M14.594,59.82h-.038v.024l.038-.025" transform="translate(-9.457 -38.866)" fill="#615842"/>
          <path id="Path_611721" data-name="Path 611721" d="M74.107,44.279c-.194-.268-.382-.336-.687-.1a5.267,5.267,0,0,0-.465.532c-1.06,1.038-2.112,2.084-3.171,3.123-1.3,1.272-2.555,2.585-3.952,3.751a1.115,1.115,0,0,0-.449.964c.032,1.716.013,3.432.013,5.149,0,1.789.005,3.578-.006,5.367,0,.3.03.479.4.422.325-.051.661-.036.984-.093a11.771,11.771,0,0,0,6.514-3.278,11.473,11.473,0,0,0,3.271-6.359,11.925,11.925,0,0,0-.249-4.865,13.6,13.6,0,0,0-2.2-4.608M69.473,60c-.416.235-.869.4-1.3.611-.3.145-.416.066-.413-.272.01-1.149,0-2.3,0-3.446h.008q0-1.68,0-3.359a1.289,1.289,0,0,1,.44-1.017c1.618-1.526,3.207-3.083,4.8-4.629.3-.286.362-.261.525.115a9.324,9.324,0,0,1,.836,3.763A8.974,8.974,0,0,1,69.473,60" transform="translate(-42.48 -28.609)" fill="#615842"/>
          <path id="Path_611722" data-name="Path 611722" d="M41.35,32.608a12.145,12.145,0,0,1-1.224.3,11,11,0,0,0-3.781,1.408,11.432,11.432,0,0,0-3.037,2.585,12.282,12.282,0,0,0-2.792,7.52,15.732,15.732,0,0,0,.259,2.28c.014.153.087.169.235.153a8.107,8.107,0,0,0,1.711-.4c1.06-.358,2.162-.531,3.224-.867.512-.162,1.065-.268,1.584-.413,1.3-.363,2.583-.756,3.9-1.036.3-.063.354-.2.352-.477-.011-1.773-.006-3.546-.006-5.319H41.8c0-1.8-.008-3.6.007-5.406,0-.373-.15-.418-.452-.336M39.2,42.357c-1.74.449-3.474.925-5.211,1.387-.2.052-.4.077-.6.115-.533.1-.606.058-.514-.468a9.743,9.743,0,0,1,5.344-7.482c.31-.156.635-.285.957-.417.3-.122.423-.02.419.309-.011,1.017,0,2.034,0,3.051,0,.988-.011,1.976.007,2.964a.455.455,0,0,1-.4.54" transform="translate(-19.824 -21.163)" fill="#615842"/>
          <path id="Path_611723" data-name="Path 611723" d="M43.006,73.869V68.9c0-.507-.143-.649-.625-.5-.594.189-1.2.324-1.8.485-2.569.688-5.125,1.424-7.715,2.031-.525.123-.562.193-.369.716.03.082.065.162.1.241a12.451,12.451,0,0,0,3.519,4.737,11.206,11.206,0,0,0,4.3,2.285,19.709,19.709,0,0,0,2.129.364c.359.048.459-.022.457-.379C42.99,77.211,43,75.54,43,73.869ZM40.45,76.505a10.458,10.458,0,0,1-4.732-3.652c-.147-.2-.144-.282.11-.347,1.488-.386,2.974-.781,4.46-1.174.526-.139.526-.141.528.416q0,1.091,0,2.182c0,.771-.006,1.542,0,2.313,0,.287-.039.39-.368.263" transform="translate(-21.043 -44.404)" fill="#615842"/>
          <path id="Path_611724" data-name="Path 611724" d="M65.479,43.05c.115.037.2-.092.282-.173.841-.8,1.687-1.6,2.525-2.408,1.5-1.443,2.985-2.894,4.483-4.335.239-.23.27-.383-.015-.624s-.636-.436-.946-.664a14.211,14.211,0,0,0-5.915-2.289c-.315-.061-.524-.032-.515.424.035,1.613.014,3.228.014,4.842s0,3.257,0,4.886c0,.117-.081.29.084.343m2.491-7.635c.483.192.971.375,1.447.583.15.065.036.173-.033.239-.45.432-.9.862-1.357,1.287-.166.155-.266.084-.269-.121-.009-.594-.008-1.189-.011-1.784,0-.147.062-.219.222-.2" transform="translate(-42.475 -21.137)" fill="#615842"/>
          <path id="Path_611725" data-name="Path 611725" d="M111.385,41c1.992-.006,3.983,0,5.975,0q3.01,0,6.019,0a1.211,1.211,0,0,0,1.176-.859,1.156,1.156,0,0,0-.7-1.381,2.4,2.4,0,0,0-1.015-.2q-5.561.006-11.122,0a2.264,2.264,0,0,0-1.285.345,1.061,1.061,0,0,0-.206,1.6,1.487,1.487,0,0,0,1.158.509" transform="translate(-71.439 -25.044)" fill="#615842"/>
          <path id="Path_611726" data-name="Path 611726" d="M118.307,57.778c1.658,0,3.316,0,4.974-.011a1.194,1.194,0,0,0,1.31-1.251,1.222,1.222,0,0,0-1.327-1.108c-1.251-.009-2.5.008-3.752-.005-2.57-.027-5.141.058-7.712-.036a2,2,0,0,0-1.229.212,1.112,1.112,0,0,0-.516,1.377,1.29,1.29,0,0,0,1.315.815c1.978,0,3.956,0,5.934,0v0h1" transform="translate(-71.455 -35.967)" fill="#615842"/>
          <path id="Path_611727" data-name="Path 611727" d="M123.86,74.591a1.031,1.031,0,0,0,.719-.9,1.134,1.134,0,0,0-1.237-1.29c-2.022-.007-4.044,0-6.067,0h-.785c-1.8,0-3.608,0-5.412.008a1.108,1.108,0,0,0-1.1.929,1.142,1.142,0,0,0,.852,1.253,2.728,2.728,0,0,0,.733.094q5.826,0,11.654,0a1.794,1.794,0,0,0,.643-.1" transform="translate(-71.449 -47.038)" fill="#615842"/>
        </g>
      </g>
    </g>
  </g>
</svg>
