<svg id="Group_1072350" data-name="Group 1072350" xmlns="http://www.w3.org/2000/svg" xmlns:xlink="http://www.w3.org/1999/xlink" width="166.114" height="28.438" viewBox="0 0 166.114 28.438">
  <defs>
    <clipPath id="clip-path">
      <rect id="Rectangle_377792" data-name="Rectangle 377792" width="166.114" height="28.438" fill="none"/>
    </clipPath>
  </defs>
  <g id="Group_1072326" data-name="Group 1072326" clip-path="url(#clip-path)">
    <path id="Path_609529" data-name="Path 609529" d="M669.783,49.413A17.134,17.134,0,0,1,686.254,61.83H653.312a17.134,17.134,0,0,1,16.471-12.417" transform="translate(-520.139 -39.341)" fill="#fff"/>
    <path id="Path_609530" data-name="Path 609530" d="M245.5,20.594a25.24,25.24,0,0,1,24.263,18.292H221.24A25.24,25.24,0,0,1,245.5,20.594" transform="translate(-176.142 -16.396)" fill="#fff"/>
    <path id="Path_609531" data-name="Path 609531" d="M427.773,22.489C424.053,9.616,409.309,0,391.686,0S359.319,9.616,355.6,22.489Z" transform="translate(-283.113)" fill="#fff"/>
    <path id="Path_609532" data-name="Path 609532" d="M311.593,97.191a11.9,11.9,0,0,1,11.442,8.626H300.151a11.9,11.9,0,0,1,11.442-8.626" transform="translate(-238.968 -77.379)" fill="#d2c1b0"/>
    <path id="Path_609533" data-name="Path 609533" d="M16.855,77.172A17.534,17.534,0,0,1,33.71,89.879H0A17.534,17.534,0,0,1,16.855,77.172" transform="translate(0 -61.441)" fill="#d2c1b0"/>
    <path id="Path_609534" data-name="Path 609534" d="M143.474,78.488c-2.585-8.943-12.826-15.623-25.069-15.623s-22.484,6.68-25.069,15.623Z" transform="translate(-74.31 -50.05)" fill="#d2c1b0"/>
  </g>
</svg>
