<svg xmlns="http://www.w3.org/2000/svg" xmlns:xlink="http://www.w3.org/1999/xlink" width="139" height="139" viewBox="0 0 139 139">
  <defs>
    <clipPath id="clip-path">
      <rect id="Rectangle_378066" data-name="Rectangle 378066" width="94.533" height="94.494" fill="none"/>
    </clipPath>
  </defs>
  <g id="Group_1074754" data-name="Group 1074754" transform="translate(-731 -1005)">
    <g id="Group_1073044" data-name="Group 1073044" transform="translate(-703.668 -4877)">
      <g id="Group_1072229" data-name="Group 1072229" transform="translate(1434.668 5882)">
        <path id="Path_608385" data-name="Path 608385" d="M69.5,0A69.5,69.5,0,1,1,0,69.5,69.5,69.5,0,0,1,69.5,0Z" transform="translate(0)" fill="#fff"/>
      </g>
      <g id="Group_1073049" data-name="Group 1073049" transform="translate(1456.902 5910.667)">
        <g id="Group_1073048" data-name="Group 1073048" clip-path="url(#clip-path)">
          <path id="Path_611402" data-name="Path 611402" d="M18.032,6.141a14.131,14.131,0,0,1,.17-3.151,3.711,3.711,0,0,1,1.077-1.968A3.625,3.625,0,0,1,21.141.134,7.818,7.818,0,0,1,22.186.049q9.892.005,19.784,0c3.314,0,6.628.018,9.942-.017.606-.006,1.229-.064,1.822-.016A5.422,5.422,0,0,1,55.8.666a3.608,3.608,0,0,1,.877.569c-.264.145-.166.4-.166.608Q56.5,29.124,56.5,56.4a1.893,1.893,0,0,1-.064.752.154.154,0,0,0,.072.182,16.9,16.9,0,0,0-.186,1.706c.048.6.015,1.209.01,1.814,0,.129.063.3-.13.356s-.216-.14-.308-.233a1.327,1.327,0,0,1-.088-.143,2.742,2.742,0,0,0-2.871-1.226,2.872,2.872,0,0,0-2.095,1.7,6.991,6.991,0,0,0-1.043.082q-14.691,0-29.383,0a1.2,1.2,0,0,1-.72-.194,4.841,4.841,0,0,1-1.2-.907.4.4,0,0,0-.364-.175c-.006-.577-.017-1.155-.017-1.733q0-25.878,0-51.756a.845.845,0,0,0-.085-.491M51.763,25.434q.722,1.413,1.956.686a1.488,1.488,0,0,0,.743-1.316,1.5,1.5,0,0,0-1.421-1.1,1.179,1.179,0,0,0-1.285.975l-.049.112q0,.262,0,.524l.052.122M25.54,42.294c0-.679-.781-1.619-1.342-1.49a1.735,1.735,0,0,0-.894.477,1.551,1.551,0,0,0-.458,1.13,1.511,1.511,0,0,0,1.406,1.214,1.222,1.222,0,0,0,1.289-1.331m21.737-35.9A1.257,1.257,0,0,0,45.97,7.73a1.407,1.407,0,0,0,1.359,1.386,1.561,1.561,0,0,0,1.362-1.381,1.471,1.471,0,0,0-1.414-1.342m4.417,1.352a1.507,1.507,0,0,0,1.352,1.37A1.594,1.594,0,0,0,54.479,7.7a1.547,1.547,0,0,0-1.415-1.312,1.361,1.361,0,0,0-1.37,1.352M30.038,49.374a1.207,1.207,0,0,0,1.315-1.26,1.3,1.3,0,0,0-1.39-1.4,1.512,1.512,0,0,0-1.38,1.465c0,.534.8,1.2,1.455,1.2m21.669-7.1a1.372,1.372,0,0,0,1.361,1.354,1.522,1.522,0,0,0,1.411-1.37,1.591,1.591,0,0,0-1.456-1.339c-.585-.03-1.426.709-1.316,1.356M25.6,7.723a1.331,1.331,0,0,0-1.383-1.331,1.506,1.506,0,0,0-1.363,1.356A1.551,1.551,0,0,0,24.274,9.11,1.48,1.48,0,0,0,25.6,7.723M35.77,6.391a1.306,1.306,0,0,0-1.327,1.335,1.438,1.438,0,0,0,1.365,1.388,1.31,1.31,0,0,0,1.3-1.364,1.291,1.291,0,0,0-1.34-1.36M25.54,48.112a1.215,1.215,0,0,0-1.309-1.393c-.751-.008-1.369.382-1.377,1.483,0,.526.738,1.158,1.349,1.175a1.189,1.189,0,0,0,1.337-1.265m14.686-.03a1.315,1.315,0,0,0,1.406,1.3c.9.014,1.217-.662,1.259-1.341A1.416,1.416,0,0,0,41.482,46.7a1.2,1.2,0,0,0-1.256,1.384M28.665,42.163A1.487,1.487,0,0,0,30.2,43.676c.514.034,1.143-.662,1.161-1.287A1.425,1.425,0,0,0,30,40.924a1.391,1.391,0,0,0-1.337,1.239m7.213,1.464A1.211,1.211,0,0,0,37.1,42.321a1.368,1.368,0,0,0-1.331-1.395,1.3,1.3,0,0,0-1.357,1.339,1.379,1.379,0,0,0,1.465,1.362m11.379,5.747a1.348,1.348,0,0,0,1.4-1.35,1.444,1.444,0,0,0-1.372-1.32,1.212,1.212,0,0,0-1.329,1.324,1.338,1.338,0,0,0,1.3,1.346M37.112,13.567a1.334,1.334,0,1,0-2.666-.074,1.407,1.407,0,0,0,1.239,1.362c.93-.019,1.391-.459,1.427-1.288M47.289,29.5c-.865,0-1.331.413-1.331,1.18a1.631,1.631,0,0,0,1.3,1.528,1.6,1.6,0,0,0,1.4-1.444,1.287,1.287,0,0,0-1.37-1.264M34.474,47.87a1.369,1.369,0,0,0,1.1,1.5A1.227,1.227,0,0,0,37.1,48.208a1.318,1.318,0,0,0-1.293-1.5c-.543-.027-1.4.329-1.33,1.163M28.667,30.485a1.612,1.612,0,0,0,1.3,1.713,1.622,1.622,0,0,0,1.388-1.41A1.191,1.191,0,0,0,30.246,29.5c-.359.012-.76-.156-1.066.2-.248.287-.5.564-.513.783M25.54,25a1.184,1.184,0,0,0-1.259-1.31,1.424,1.424,0,0,0-1.424,1.457,1.571,1.571,0,0,0,1.322,1.219A1.335,1.335,0,0,0,25.54,25M40.227,30.57c-.009.812.628,1.632,1.268,1.632A1.405,1.405,0,0,0,42.836,30.8a1.233,1.233,0,0,0-1.08-1.306c-1.017-.06-1.58.267-1.529,1.08m-4.435-4.2A1.336,1.336,0,0,0,35.8,23.7a1.226,1.226,0,0,0-1.336,1.294,1.335,1.335,0,0,0,1.324,1.377m-5.822,0a1.475,1.475,0,0,0,1.4-1.287,1.352,1.352,0,0,0-2.7-.089,1.4,1.4,0,0,0,1.3,1.376m15.988-1.343a1.38,1.38,0,0,0,1.33,1.348c.615.025,1.417-.923,1.389-1.4A1.4,1.4,0,0,0,47.261,23.7a1.223,1.223,0,0,0-1.3,1.324" transform="translate(-11.925 0)" fill="#d7eef8"/>
          <path id="Path_611403" data-name="Path 611403" d="M139.431,5.289c.175-.009.216-.124.26-.275.108-.376.135-.768.267-1.143a5.063,5.063,0,0,1,1.743-2.29A6.905,6.905,0,0,1,146.154.119c9.036.025,18.073.014,27.109.015-.017.231.088.346.321.334a.663.663,0,0,1,.433.138,4.152,4.152,0,0,1,1.165,1.076,3.958,3.958,0,0,1,.79,2.168c-.021,6.683-.012,13.366-.012,20.049,0,.113-.007.226,0,.338.016.209-.1.272-.282.276a1.306,1.306,0,0,0-1.1-.732,1.232,1.232,0,0,0-1.329.748,1.354,1.354,0,0,0,.173,1.41,1.285,1.285,0,0,0,2.261-.343.516.516,0,0,1,.085-.092c.239.1.191.315.192.506,0,1.245-.006,2.49.006,3.735a1.2,1.2,0,0,1-.2.747,1.379,1.379,0,0,0-1.833-.9,1.443,1.443,0,0,0-.82,1.378,1.426,1.426,0,0,0,1.762,1.2,1.7,1.7,0,0,0,.91-.92,1.047,1.047,0,0,1,.182.459q-.009,4.89,0,9.779c0,.183-.021.343-.25.364-.554-.831-1.183-1.047-1.948-.67a1.348,1.348,0,0,0-.3,2.068,1.325,1.325,0,0,0,2.3-.393c.175.07.2.217.2.381q0,2.009,0,4.017c0,.191-.045.336-.265.356a1.389,1.389,0,0,0-.73-.708,1.317,1.317,0,0,0-1.663.495c-.4.853-.329,1.26.39,1.8a1.328,1.328,0,0,0,1.4.183c.38-.169.489-.547.692-.855a.939.939,0,0,1,.175.673q-.005,5.811,0,11.622c0,.736.089.664-.642.664q-11.063,0-22.125,0a3.128,3.128,0,0,0-.666.073c-.166.036-.193.136-.207.267a4.229,4.229,0,0,0-1.919-.246c-.1-.219-.3-.205-.472-.173a6.3,6.3,0,0,1-2.038-.006c-.074-.119-.146-.24-.222-.357a2.708,2.708,0,0,0-3.593-1.094,2.593,2.593,0,0,0-1.162,1.057c-.094.151-.182.38-.374.33-.157-.041-.071-.274-.073-.419-.009-.619.014-1.239-.01-1.857A4,4,0,0,0,141.8,57a2.608,2.608,0,0,0-2.281-1.2q0-24.88,0-49.759a2.541,2.541,0,0,0-.084-.75m30.455,20.394a1.362,1.362,0,0,0-.322-1.634,1.593,1.593,0,0,0-1.63-.075A1.451,1.451,0,0,0,167.4,25.5a1.475,1.475,0,0,0,1.476.94,2.583,2.583,0,0,0,.752-.34c.167,0,.183-.114.181-.241l.011-.094.069-.084m-12.319.676.078-.038.095-.045.08-.059.163-.114.092-.081a1.328,1.328,0,0,0,.3-1.581,1.138,1.138,0,0,0-1.091-.655,1.28,1.28,0,0,0-1.308.732,1.357,1.357,0,0,0,.226,1.522,1.234,1.234,0,0,0,1.369.319m.924,10.247a1.257,1.257,0,0,0-1.325-1.359,1.316,1.316,0,0,0-1.356,1.334,1.343,1.343,0,1,0,2.681.025m-12.9,7.1a1.348,1.348,0,1,0,.041-2.693,1.438,1.438,0,0,0-1.392,1.335,1.572,1.572,0,0,0,1.351,1.358m21.766-1.312a1.5,1.5,0,0,0,1.417,1.387c.709-.048,1.245-.522,1.288-1.528A1.433,1.433,0,0,0,168.713,41a1.375,1.375,0,0,0-1.358,1.386m.013-5.772a1.344,1.344,0,0,0,1.285,1.351,1.363,1.363,0,0,0,.089-2.725,1.268,1.268,0,0,0-1.374,1.374m-20.43-.022a1.24,1.24,0,0,0-1.311-1.345,1.469,1.469,0,0,0-1.386,1.361,1.767,1.767,0,0,0,1.467,1.425,1.456,1.456,0,0,0,1.23-1.441m21.777-15.9a1.317,1.317,0,0,0,1.356-1.312,1.408,1.408,0,0,0-1.365-1.39,1.345,1.345,0,0,0-1.338,1.306,1.4,1.4,0,0,0,1.347,1.4m-23.031,31.9a1.389,1.389,0,0,0-1.442,1.252,1.509,1.509,0,0,0,1.382,1.371,1.358,1.358,0,0,0,1.39-1.337,1.214,1.214,0,0,0-1.33-1.286m23.111-3.135a1.218,1.218,0,0,0,1.271-1.272,1.4,1.4,0,0,0-1.387-1.4,1.249,1.249,0,0,0-1.323,1.245,1.382,1.382,0,0,0,1.44,1.428M157.153,43.7a1.3,1.3,0,0,0,1.338-1.369A1.33,1.33,0,0,0,157.136,41a1.36,1.36,0,0,0-1.34,1.376,1.378,1.378,0,0,0,1.357,1.321M145.617,29.575a1.365,1.365,0,0,0-1.384,1.286,1.871,1.871,0,0,0,1.4,1.409A1.652,1.652,0,0,0,147,30.888a1.223,1.223,0,0,0-1.387-1.313m1.321-15.995a1.256,1.256,0,0,0-1.313-1.356,1.552,1.552,0,0,0-1.384,1.356,1.569,1.569,0,0,0,1.405,1.344,1.259,1.259,0,0,0,1.292-1.344m5.737-5.761c0-.884-.448-1.352-1.281-1.349a1.446,1.446,0,0,0-1.35,1.356,1.523,1.523,0,0,0,1.368,1.362,1.286,1.286,0,0,0,1.263-1.37m16.032-1.348a1.317,1.317,0,0,0-1.338,1.33,1.437,1.437,0,0,0,1.32,1.39,1.47,1.47,0,0,0,1.375-1.384,1.379,1.379,0,0,0-1.357-1.335m-1.352,47.287a1.5,1.5,0,0,0,1.428,1.524c.575.071,1.27-.723,1.285-1.364a1.291,1.291,0,0,0-1.277-1.33,1.264,1.264,0,0,0-1.436,1.17m-10.2-4.309a1.291,1.291,0,0,0,1.34-1.309,1.2,1.2,0,0,0-1.212-1.315A1.277,1.277,0,0,0,155.8,48.1a1.3,1.3,0,0,0,1.349,1.348m.01,3.14c-.846-.068-1.248.456-1.345,1.211a1.4,1.4,0,0,0,1.347,1.456,1.361,1.361,0,0,0,1.331-1.366,1.165,1.165,0,0,0-1.333-1.3m1.331-39.019a1.273,1.273,0,0,0-1.309-1.347,1.416,1.416,0,0,0-1.369,1.342,1.46,1.46,0,0,0,1.365,1.358,1.318,1.318,0,0,0,1.313-1.353m5.741,28.817a1.312,1.312,0,1,0-2.622-.077,1.351,1.351,0,0,0,1.357,1.4,1.23,1.23,0,0,0,1.265-1.319M162.924,6.47a1.3,1.3,0,0,0-1.306,1.315,1.391,1.391,0,0,0,1.34,1.4,1.376,1.376,0,0,0,1.292-1.4,1.249,1.249,0,0,0-1.326-1.32M152.675,48.116a1.111,1.111,0,0,0-1.184-1.28,1.406,1.406,0,0,0-1.516,1.275,1.617,1.617,0,0,0,1.333,1.341,1.844,1.844,0,0,0,1.307-.582c.255-.238-.054-.533.06-.753m10.246-35.893a1.352,1.352,0,1,0,1.351,1.366,1.343,1.343,0,0,0-1.351-1.366M146.938,25.075a1.116,1.116,0,0,0-1.254-1.272,1.306,1.306,0,0,0-1.437,1.3,1.539,1.539,0,0,0,1.321,1.341,1.362,1.362,0,0,0,1.37-1.37m15.96,1.37a1.484,1.484,0,0,0,1.373-1.374,1.242,1.242,0,0,0-1.316-1.29,1.284,1.284,0,0,0-1.337,1.318,1.37,1.37,0,0,0,1.281,1.346" transform="translate(-92.235 -0.079)" fill="#d7eef8"/>
          <path id="Path_611404" data-name="Path 611404" d="M115.273,170.38a4.227,4.227,0,0,1,1.919.246,2.194,2.194,0,0,0,.224.186,2.974,2.974,0,0,1,1.4,2.623c.02,1.028.009,2.057.012,3.086-.005.829-.021,1.658-.014,2.487.01,1.208-.043,2.417.03,3.625-.007.394-.021.789-.022,1.183,0,3.906,0,7.812-.009,11.718a7.731,7.731,0,0,1-2.179,5.505,7.175,7.175,0,0,1-4.57,2.264c-1.18.106-2.357.061-3.535.066-2.925.014-5.85.034-8.774-.015a7.2,7.2,0,0,1-5.482-2.749,16.88,16.88,0,0,1-1.644-2.537q-1.68-2.853-3.352-5.711c-.581-.989-1.15-1.985-1.75-2.963a11.126,11.126,0,0,1-1.142-2.424,2.209,2.209,0,0,1,.018-1.041,3.378,3.378,0,0,1,2.341-2.966,3.225,3.225,0,0,0,.447-.227l.451-.037a5.921,5.921,0,0,1,1.235.072,3.35,3.35,0,0,1,1.442.748q1.505,1.35,2.942,2.773c.09.089.158.275.332.189.154-.075.109-.245.109-.381q0-1.5-.007-3c0-.136.035-.286-.092-.4a1.741,1.741,0,0,0,.1-.573c-.006-1.756,0-3.513-.005-5.269,0-.136.037-.284-.076-.4a1,1,0,0,0,.08-.492c0-.941.006-1.882-.006-2.823a7.653,7.653,0,0,1,.325-2.945,2.872,2.872,0,0,1,2.095-1.7,2.742,2.742,0,0,1,2.871,1.226,1.385,1.385,0,0,0,.088.143c.091.092.12.285.308.233s.128-.227.13-.356c.005-.605.038-1.213-.01-1.815a16.906,16.906,0,0,1,.186-1.706c.172-.01.216-.17.288-.276a2.767,2.767,0,0,1,2.406-1.342,2.607,2.607,0,0,1,2.281,1.2,4,4,0,0,1,.66,2.05c.024.618,0,1.238.01,1.857,0,.146-.084.377.073.419.192.05.28-.18.374-.33a2.594,2.594,0,0,1,1.162-1.058,2.708,2.708,0,0,1,3.593,1.095c.076.118.149.238.222.357a4.518,4.518,0,0,1,.259,1.43c-.005.108-.008.357.172.367.131.007.256-.132.316-.3a1.552,1.552,0,0,1,.595-.683,12.264,12.264,0,0,1,1.169-.639" transform="translate(-57.107 -108.892)" fill="#fec693"/>
          <path id="Path_611405" data-name="Path 611405" d="M32.536,85.811l-.451.037a14.469,14.469,0,0,0-2.974-.068q-12.484-.032-24.968-.014c-.478,0-.956-.021-1.434-.013a2.838,2.838,0,0,1-2.48-1.775,2.439,2.439,0,0,1-.2-1.281,1.7,1.7,0,0,0,0-.338q0-30.538-.009-61.076a3.215,3.215,0,0,1,1.419-2.793,2.1,2.1,0,0,1,1.081-.252c1.077-.121,2.161-.066,3.242-.086.03.037.06.036.088,0l.253-.006a.846.846,0,0,1,.085.492q0,25.878,0,51.756c0,.577.011,1.155.017,1.733.011,1.7-.076,3.4.052,5.108a2.783,2.783,0,0,0,2.65,2.348c2.278-.018,4.555,0,6.833,0l22.778,0c.113.116.076.264.076.4,0,1.756,0,3.513.005,5.269a1.742,1.742,0,0,1-.1.573c-.813,0-1.627.021-2.438-.018a21.126,21.126,0,0,0-2.273-.009,3.828,3.828,0,0,0-1.25.021" transform="translate(0 -12.002)" fill="#445866"/>
          <path id="Path_611406" data-name="Path 611406" d="M182.312,85.71c-.073-1.208-.019-2.416-.03-3.625-.007-.829.008-1.658.014-2.487a.977.977,0,0,1,.454-.064l22.186.006c.492,0,.984.005,1.476-.009a2.54,2.54,0,0,0,2.312-1.726,8.033,8.033,0,0,0,.314-2.012,20.69,20.69,0,0,0-.084-4.352.278.278,0,0,1,.023-.2.9.9,0,0,0,.115-.649c0-2.989.012-5.978,0-8.967-.044-14.309.1-28.619-.071-42.928,0-.2-.085-.424.092-.6,1.068,0,2.137,0,3.2.016a2.775,2.775,0,0,1,2.725,2.082,1.857,1.857,0,0,1,.063.541q0,31.2,0,62.395a2.684,2.684,0,0,1-2.644,2.655,41.918,41.918,0,0,1-4.806,0c-.969-.05-1.935-.048-2.9-.049q-11.072-.014-22.145-.016c-.1,0-.2-.005-.3-.008" transform="translate(-120.575 -11.968)" fill="#445866"/>
          <path id="Path_611407" data-name="Path 611407" d="M205.964,6.218c-.177.177-.094.4-.092.6.17,14.309.027,28.618.071,42.927.009,2.989,0,5.978,0,8.967a.9.9,0,0,1-.115.649.281.281,0,0,0-.023.2,20.692,20.692,0,0,1,.084,4.352,8.048,8.048,0,0,1-.314,2.011,2.54,2.54,0,0,1-2.312,1.726c-.491.015-.984.009-1.476.009L179.6,67.66a.978.978,0,0,0-.454.064c0-1.029.008-2.058-.011-3.086a2.974,2.974,0,0,0-1.4-2.623,2.242,2.242,0,0,1-.224-.187c.014-.132.041-.231.207-.267a3.127,3.127,0,0,1,.665-.073q11.062,0,22.125,0c.732,0,.642.072.642-.664q0-5.811,0-11.622a.938.938,0,0,0-.175-.672c.172-.325-.013-.613-.092-.913.22-.02.266-.165.265-.356q0-2.009,0-4.017c0-.165-.021-.311-.2-.381a1.219,1.219,0,0,0-.054-1c.229-.021.25-.181.25-.364q0-4.89,0-9.779a1.042,1.042,0,0,0-.182-.459,1.133,1.133,0,0,0-.019-.75,1.2,1.2,0,0,0,.2-.747c-.012-1.245,0-2.49-.006-3.735,0-.19.048-.4-.192-.505.2-.351.024-.669-.088-.992.18,0,.3-.066.282-.276-.008-.112,0-.225,0-.338,0-6.683-.009-13.366.012-20.049a3.961,3.961,0,0,0-.79-2.168A4.148,4.148,0,0,0,199.207.62a.662.662,0,0,0-.433-.138c-.233.013-.337-.1-.32-.334,1.108,0,2.215-.015,3.323,0a3.885,3.885,0,0,1,3.662,2.19,4.116,4.116,0,0,1,.424,1.571,23.067,23.067,0,0,0,.1,2.308" transform="translate(-117.424 -0.094)" fill="#bee4f6"/>
          <path id="Path_611408" data-name="Path 611408" d="M134.253,58.133a2.768,2.768,0,0,0-2.406,1.343c-.072.106-.116.265-.288.276a.153.153,0,0,1-.072-.181,1.894,1.894,0,0,0,.064-.752q0-27.281.005-54.562c0-.211-.1-.464.166-.608a6.221,6.221,0,0,1,2.448,3.976,2.537,2.537,0,0,1,.084.749q0,24.88,0,49.759" transform="translate(-86.973 -2.413)" fill="#bee4f6"/>
          <path id="Path_611409" data-name="Path 611409" d="M17.12,18.16c-.028.038-.058.039-.088,0l.088,0" transform="translate(-11.267 -12.013)" fill="#bee4f6"/>
          <path id="Path_611410" data-name="Path 611410" d="M50.611,185.066l-22.778,0c-2.278,0-4.555-.017-6.833,0a2.783,2.783,0,0,1-2.65-2.348c-.129-1.7-.041-3.406-.052-5.108a.4.4,0,0,1,.364.174,4.841,4.841,0,0,0,1.2.907,1.194,1.194,0,0,0,.72.194q14.691,0,29.383,0a6.992,6.992,0,0,1,1.043-.082,7.653,7.653,0,0,0-.325,2.945c.012.941,0,1.882.006,2.824a1,1,0,0,1-.08.492" transform="translate(-12.092 -117.493)" fill="#bee4f6"/>
          <path id="Path_611411" data-name="Path 611411" d="M34.954,122.012a1.221,1.221,0,0,1-1.289,1.331,1.511,1.511,0,0,1-1.406-1.214,1.551,1.551,0,0,1,.458-1.13,1.734,1.734,0,0,1,.894-.477c.561-.129,1.342.811,1.342,1.49" transform="translate(-21.339 -79.719)" fill="#347dc0"/>
          <path id="Path_611412" data-name="Path 611412" d="M101.884,18.883a1.471,1.471,0,0,1,1.414,1.342,1.561,1.561,0,0,1-1.362,1.381,1.408,1.408,0,0,1-1.359-1.386,1.257,1.257,0,0,1,1.307-1.338" transform="translate(-66.532 -12.491)" fill="#347dc0"/>
          <path id="Path_611413" data-name="Path 611413" d="M117.489,20.236a1.362,1.362,0,0,1,1.37-1.352,1.548,1.548,0,0,1,1.415,1.312,1.6,1.6,0,0,1-1.433,1.41,1.507,1.507,0,0,1-1.352-1.37" transform="translate(-77.72 -12.492)" fill="#347dc0"/>
          <path id="Path_611414" data-name="Path 611414" d="M50.668,140.658c-.651,0-1.458-.665-1.455-1.2a1.512,1.512,0,0,1,1.379-1.465,1.3,1.3,0,0,1,1.39,1.4,1.207,1.207,0,0,1-1.315,1.26" transform="translate(-32.555 -91.284)" fill="#347dc0"/>
          <path id="Path_611415" data-name="Path 611415" d="M117.508,122.23c-.111-.647.73-1.385,1.315-1.356a1.592,1.592,0,0,1,1.456,1.339,1.522,1.522,0,0,1-1.411,1.37,1.372,1.372,0,0,1-1.361-1.354" transform="translate(-77.726 -79.959)" fill="#347dc0"/>
          <path id="Path_611416" data-name="Path 611416" d="M35.033,20.216A1.48,1.48,0,0,1,33.707,21.6a1.551,1.551,0,0,1-1.421-1.362,1.506,1.506,0,0,1,1.363-1.356,1.331,1.331,0,0,1,1.384,1.331" transform="translate(-21.357 -12.492)" fill="#347dc0"/>
          <path id="Path_611417" data-name="Path 611417" d="M67.85,18.88a1.291,1.291,0,0,1,1.34,1.36,1.311,1.311,0,0,1-1.3,1.364,1.439,1.439,0,0,1-1.365-1.388A1.306,1.306,0,0,1,67.85,18.88" transform="translate(-44.005 -12.489)" fill="#347dc0"/>
          <path id="Path_611418" data-name="Path 611418" d="M34.975,139.414a1.189,1.189,0,0,1-1.337,1.265c-.611-.017-1.353-.649-1.349-1.175.008-1.1.626-1.491,1.377-1.483a1.215,1.215,0,0,1,1.309,1.393" transform="translate(-21.359 -91.302)" fill="#347dc0"/>
          <path id="Path_611419" data-name="Path 611419" d="M83.611,139.344a1.2,1.2,0,0,1,1.255-1.384,1.416,1.416,0,0,1,1.409,1.341c-.042.679-.36,1.355-1.259,1.341a1.315,1.315,0,0,1-1.406-1.3" transform="translate(-55.309 -91.261)" fill="#347dc0"/>
          <path id="Path_611420" data-name="Path 611420" d="M49.453,122.14A1.39,1.39,0,0,1,50.79,120.9a1.425,1.425,0,0,1,1.358,1.465c-.019.625-.648,1.321-1.161,1.287a1.487,1.487,0,0,1-1.533-1.513" transform="translate(-32.713 -79.977)" fill="#347dc0"/>
          <path id="Path_611421" data-name="Path 611421" d="M67.9,123.607a1.379,1.379,0,0,1-1.465-1.362,1.3,1.3,0,0,1,1.357-1.339,1.367,1.367,0,0,1,1.331,1.395,1.211,1.211,0,0,1-1.223,1.306" transform="translate(-43.942 -79.98)" fill="#347dc0"/>
          <path id="Path_611422" data-name="Path 611422" d="M101.841,140.645a1.338,1.338,0,0,1-1.3-1.346,1.212,1.212,0,0,1,1.329-1.324,1.444,1.444,0,0,1,1.372,1.319,1.349,1.349,0,0,1-1.4,1.35" transform="translate(-66.509 -91.271)" fill="#347dc0"/>
          <path id="Path_611423" data-name="Path 611423" d="M69.2,37.3c-.036.829-.5,1.269-1.427,1.288a1.406,1.406,0,0,1-1.239-1.362A1.334,1.334,0,1,1,69.2,37.3" transform="translate(-44.013 -23.734)" fill="#347dc0"/>
          <path id="Path_611424" data-name="Path 611424" d="M101.872,87.139a1.287,1.287,0,0,1,1.37,1.264,1.6,1.6,0,0,1-1.4,1.443,1.63,1.63,0,0,1-1.3-1.528c0-.767.466-1.18,1.331-1.18" transform="translate(-66.509 -57.643)" fill="#347dc0"/>
          <path id="Path_611425" data-name="Path 611425" d="M117.531,71.628q0-.262,0-.524l.049-.111a1.179,1.179,0,0,1,1.285-.975,1.269,1.269,0,0,1,.678,2.418q-1.232.728-1.956-.686l-.052-.122" transform="translate(-77.745 -46.317)" fill="#347dc0"/>
          <path id="Path_611426" data-name="Path 611426" d="M66.591,139.146c-.066-.834.787-1.19,1.33-1.163a1.318,1.318,0,0,1,1.292,1.5,1.227,1.227,0,0,1-1.523,1.163,1.37,1.37,0,0,1-1.1-1.5" transform="translate(-44.042 -91.276)" fill="#347dc0"/>
          <path id="Path_611427" data-name="Path 611427" d="M49.459,88.086c.011-.218.264-.5.513-.783.307-.354.707-.186,1.066-.2a1.191,1.191,0,0,1,1.106,1.283,1.622,1.622,0,0,1-1.389,1.41,1.612,1.612,0,0,1-1.3-1.713" transform="translate(-32.717 -57.601)" fill="#347dc0"/>
          <path id="Path_611428" data-name="Path 611428" d="M34.981,71.3a1.335,1.335,0,0,1-1.36,1.365A1.571,1.571,0,0,1,32.3,71.447a1.425,1.425,0,0,1,1.424-1.457,1.184,1.184,0,0,1,1.259,1.31" transform="translate(-21.365 -46.299)" fill="#347dc0"/>
          <path id="Path_611429" data-name="Path 611429" d="M83.6,88.187c-.051-.813.512-1.141,1.53-1.081a1.233,1.233,0,0,1,1.08,1.306,1.405,1.405,0,0,1-1.342,1.407c-.64,0-1.277-.82-1.268-1.632" transform="translate(-55.303 -57.617)" fill="#347dc0"/>
          <path id="Path_611430" data-name="Path 611430" d="M67.921,72.672A1.335,1.335,0,0,1,66.6,71.3,1.226,1.226,0,0,1,67.933,70a1.336,1.336,0,0,1-.013,2.671" transform="translate(-44.054 -46.306)" fill="#347dc0"/>
          <path id="Path_611431" data-name="Path 611431" d="M50.758,72.674a1.4,1.4,0,0,1-1.3-1.376A1.337,1.337,0,0,1,50.83,70a1.324,1.324,0,0,1,1.326,1.384,1.475,1.475,0,0,1-1.4,1.287" transform="translate(-32.714 -46.307)" fill="#347dc0"/>
          <path id="Path_611432" data-name="Path 611432" d="M100.541,71.336a1.223,1.223,0,0,1,1.3-1.324,1.4,1.4,0,0,1,1.416,1.275c.027.474-.774,1.422-1.389,1.4a1.38,1.38,0,0,1-1.33-1.348" transform="translate(-66.509 -46.313)" fill="#347dc0"/>
          <path id="Path_611433" data-name="Path 611433" d="M117.576,72.9l-.049.111.049-.111" transform="translate(-77.745 -48.223)" fill="#bee4f6"/>
          <path id="Path_611434" data-name="Path 611434" d="M117.54,74.777l.052.122-.052-.122" transform="translate(-77.754 -49.466)" fill="#bee4f6"/>
          <path id="Path_611435" data-name="Path 611435" d="M241.53,121.724a1.221,1.221,0,0,1,.054,1,1.325,1.325,0,0,1-2.3.393,1.348,1.348,0,0,1,.3-2.068c.765-.377,1.394-.161,1.948.67" transform="translate(-158.053 -79.96)" fill="#347dc0"/>
          <path id="Path_611436" data-name="Path 611436" d="M190.5,105.256a1.343,1.343,0,1,1-2.682-.025,1.316,1.316,0,0,1,1.357-1.334,1.257,1.257,0,0,1,1.325,1.359" transform="translate(-124.242 -68.729)" fill="#347dc0"/>
          <path id="Path_611437" data-name="Path 611437" d="M241.423,138.813c.079.3.264.588.092.913-.2.308-.312.686-.692.855a1.328,1.328,0,0,1-1.4-.183c-.719-.537-.785-.944-.39-1.8a1.318,1.318,0,0,1,1.663-.495,1.388,1.388,0,0,1,.729.708" transform="translate(-157.961 -91.29)" fill="#347dc0"/>
          <path id="Path_611438" data-name="Path 611438" d="M154.985,123.611a1.572,1.572,0,0,1-1.351-1.358,1.438,1.438,0,0,1,1.392-1.335,1.348,1.348,0,1,1-.041,2.693" transform="translate(-101.63 -79.988)" fill="#347dc0"/>
          <path id="Path_611439" data-name="Path 611439" d="M221.926,122.287a1.375,1.375,0,0,1,1.358-1.386,1.432,1.432,0,0,1,1.346,1.246c-.043,1.006-.579,1.48-1.288,1.528a1.5,1.5,0,0,1-1.417-1.387" transform="translate(-146.805 -79.976)" fill="#347dc0"/>
          <path id="Path_611440" data-name="Path 611440" d="M221.955,105.259a1.268,1.268,0,0,1,1.374-1.374,1.363,1.363,0,0,1-.089,2.725,1.344,1.344,0,0,1-1.285-1.351" transform="translate(-146.822 -68.72)" fill="#347dc0"/>
          <path id="Path_611441" data-name="Path 611441" d="M156.337,105.253a1.457,1.457,0,0,1-1.23,1.441,1.768,1.768,0,0,1-1.467-1.425,1.469,1.469,0,0,1,1.386-1.361,1.24,1.24,0,0,1,1.311,1.345" transform="translate(-101.634 -68.735)" fill="#347dc0"/>
          <path id="Path_611442" data-name="Path 611442" d="M241.582,87.94a1.138,1.138,0,0,1,.019.75,1.7,1.7,0,0,1-.91.92,1.426,1.426,0,0,1-1.762-1.2,1.442,1.442,0,0,1,.82-1.377,1.378,1.378,0,0,1,1.833.9" transform="translate(-158.053 -57.528)" fill="#347dc0"/>
          <path id="Path_611443" data-name="Path 611443" d="M223.311,55.615a1.4,1.4,0,0,1-1.347-1.4,1.346,1.346,0,0,1,1.338-1.306,1.407,1.407,0,0,1,1.365,1.39,1.316,1.316,0,0,1-1.356,1.312" transform="translate(-146.831 -35.002)" fill="#347dc0"/>
          <path id="Path_611444" data-name="Path 611444" d="M155.086,155.129a1.214,1.214,0,0,1,1.33,1.286,1.358,1.358,0,0,1-1.389,1.337,1.509,1.509,0,0,1-1.382-1.371,1.39,1.39,0,0,1,1.442-1.252" transform="translate(-101.637 -102.619)" fill="#347dc0"/>
          <path id="Path_611445" data-name="Path 611445" d="M223.366,140.644a1.382,1.382,0,0,1-1.44-1.428,1.249,1.249,0,0,1,1.323-1.245,1.4,1.4,0,0,1,1.387,1.4,1.218,1.218,0,0,1-1.271,1.273" transform="translate(-146.806 -91.269)" fill="#347dc0"/>
          <path id="Path_611446" data-name="Path 611446" d="M189.135,123.6a1.377,1.377,0,0,1-1.357-1.321,1.359,1.359,0,0,1,1.34-1.376,1.329,1.329,0,0,1,1.355,1.328,1.3,1.3,0,0,1-1.338,1.369" transform="translate(-124.216 -79.98)" fill="#347dc0"/>
          <path id="Path_611447" data-name="Path 611447" d="M155,87.139a1.223,1.223,0,0,1,1.387,1.313,1.652,1.652,0,0,1-1.369,1.383,1.871,1.871,0,0,1-1.4-1.409A1.365,1.365,0,0,1,155,87.139" transform="translate(-101.62 -57.643)" fill="#347dc0"/>
          <path id="Path_611448" data-name="Path 611448" d="M156.338,37.236a1.259,1.259,0,0,1-1.292,1.344,1.569,1.569,0,0,1-1.405-1.344,1.552,1.552,0,0,1,1.384-1.356,1.256,1.256,0,0,1,1.313,1.356" transform="translate(-101.635 -23.735)" fill="#347dc0"/>
          <path id="Path_611449" data-name="Path 611449" d="M173.415,20.231a1.287,1.287,0,0,1-1.263,1.37,1.524,1.524,0,0,1-1.368-1.362,1.447,1.447,0,0,1,1.35-1.356c.833,0,1.278.464,1.282,1.348" transform="translate(-112.974 -12.491)" fill="#347dc0"/>
          <path id="Path_611450" data-name="Path 611450" d="M223.305,18.886a1.378,1.378,0,0,1,1.356,1.335,1.47,1.47,0,0,1-1.375,1.384,1.437,1.437,0,0,1-1.32-1.39,1.317,1.317,0,0,1,1.338-1.329" transform="translate(-146.833 -12.493)" fill="#347dc0"/>
          <path id="Path_611451" data-name="Path 611451" d="M221.926,156.3a1.264,1.264,0,0,1,1.436-1.17,1.291,1.291,0,0,1,1.278,1.33c-.015.641-.71,1.435-1.285,1.364a1.5,1.5,0,0,1-1.428-1.524" transform="translate(-146.806 -102.619)" fill="#347dc0"/>
          <path id="Path_611452" data-name="Path 611452" d="M189.143,140.714a1.3,1.3,0,0,1-1.349-1.348,1.277,1.277,0,0,1,1.477-1.276,1.2,1.2,0,0,1,1.212,1.315,1.29,1.29,0,0,1-1.34,1.309" transform="translate(-124.226 -91.343)" fill="#347dc0"/>
          <path id="Path_611453" data-name="Path 611453" d="M189.167,155.117a1.165,1.165,0,0,1,1.333,1.3,1.361,1.361,0,0,1-1.331,1.366,1.4,1.4,0,0,1-1.347-1.457c.1-.755.5-1.279,1.345-1.211" transform="translate(-124.24 -102.607)" fill="#347dc0"/>
          <path id="Path_611454" data-name="Path 611454" d="M190.511,37.223a1.318,1.318,0,0,1-1.313,1.353,1.46,1.46,0,0,1-1.365-1.358,1.416,1.416,0,0,1,1.369-1.342,1.273,1.273,0,0,1,1.309,1.347" transform="translate(-124.253 -23.732)" fill="#347dc0"/>
          <path id="Path_611455" data-name="Path 611455" d="M241.537,70.743c.112.323.287.64.089.991a.52.52,0,0,0-.085.092,1.285,1.285,0,0,1-2.261.343,1.355,1.355,0,0,1-.173-1.41,1.233,1.233,0,0,1,1.329-.748,1.306,1.306,0,0,1,1.1.732" transform="translate(-158.092 -46.31)" fill="#347dc0"/>
          <path id="Path_611456" data-name="Path 611456" d="M207.581,122.313a1.23,1.23,0,0,1-1.265,1.319,1.351,1.351,0,0,1-1.357-1.4,1.312,1.312,0,1,1,2.622.078" transform="translate(-135.582 -80.004)" fill="#347dc0"/>
          <path id="Path_611457" data-name="Path 611457" d="M206.283,18.882a1.249,1.249,0,0,1,1.326,1.32,1.376,1.376,0,0,1-1.292,1.4,1.391,1.391,0,0,1-1.34-1.4,1.3,1.3,0,0,1,1.306-1.315" transform="translate(-135.594 -12.491)" fill="#347dc0"/>
          <path id="Path_611458" data-name="Path 611458" d="M173.281,139.413c-.114.221.195.516-.06.753a1.842,1.842,0,0,1-1.307.582,1.617,1.617,0,0,1-1.333-1.341,1.406,1.406,0,0,1,1.516-1.275,1.111,1.111,0,0,1,1.183,1.28" transform="translate(-112.841 -91.376)" fill="#347dc0"/>
          <path id="Path_611459" data-name="Path 611459" d="M206.281,35.877a1.336,1.336,0,0,1,1.351,1.366,1.328,1.328,0,1,1-1.351-1.366" transform="translate(-135.594 -23.733)" fill="#347dc0"/>
          <path id="Path_611460" data-name="Path 611460" d="M190.032,72.343l-.163.114c-.056-.02-.073.013-.08.059l-.095.045-.078.038a1.234,1.234,0,0,1-1.369-.319,1.357,1.357,0,0,1-.225-1.522,1.28,1.28,0,0,1,1.308-.733,1.139,1.139,0,0,1,1.091.655,1.328,1.328,0,0,1-.3,1.581l-.092.081" transform="translate(-124.285 -46.319)" fill="#347dc0"/>
          <path id="Path_611461" data-name="Path 611461" d="M224.346,72.017l-.011.095c-.167,0-.159.131-.181.24a2.589,2.589,0,0,1-.752.34,1.476,1.476,0,0,1-1.476-.94,1.451,1.451,0,0,1,.538-1.528,1.592,1.592,0,0,1,1.63.075,1.361,1.361,0,0,1,.322,1.634c-.047.008-.076.031-.069.084" transform="translate(-146.763 -46.328)" fill="#347dc0"/>
          <path id="Path_611462" data-name="Path 611462" d="M156.348,71.359a1.361,1.361,0,0,1-1.37,1.37,1.538,1.538,0,0,1-1.321-1.341,1.306,1.306,0,0,1,1.437-1.3,1.116,1.116,0,0,1,1.254,1.272" transform="translate(-101.645 -46.363)" fill="#347dc0"/>
          <path id="Path_611463" data-name="Path 611463" d="M206.257,72.686a1.37,1.37,0,0,1-1.281-1.346,1.284,1.284,0,0,1,1.337-1.318,1.242,1.242,0,0,1,1.316,1.29,1.484,1.484,0,0,1-1.373,1.374" transform="translate(-135.593 -46.32)" fill="#347dc0"/>
          <path id="Path_611464" data-name="Path 611464" d="M166.935,181.28a12.266,12.266,0,0,0-1.169.639,1.552,1.552,0,0,0-.595.683c-.06.163-.185.3-.316.3-.18-.009-.177-.258-.172-.367a4.518,4.518,0,0,0-.259-1.43,6.3,6.3,0,0,0,2.038.006c.171-.033.374-.046.472.173" transform="translate(-108.768 -119.792)" fill="#bee4f6"/>
          <path id="Path_611465" data-name="Path 611465" d="M228.632,76.41c.022-.109.014-.241.181-.241,0,.127-.014.241-.181.241" transform="translate(-151.242 -50.386)" fill="#bee4f6"/>
          <path id="Path_611466" data-name="Path 611466" d="M229.2,75.726c-.007-.053.022-.076.069-.084l-.069.084" transform="translate(-151.615 -50.038)" fill="#bee4f6"/>
          <path id="Path_611467" data-name="Path 611467" d="M194.236,76.725l.092-.081-.092.081" transform="translate(-128.488 -50.701)" fill="#bee4f6"/>
          <path id="Path_611468" data-name="Path 611468" d="M193.52,77.267c.007-.046.024-.079.08-.06l-.08.06" transform="translate(-128.015 -51.07)" fill="#bee4f6"/>
          <path id="Path_611469" data-name="Path 611469" d="M193.009,77.566l.078-.038-.078.038" transform="translate(-127.677 -51.285)" fill="#bee4f6"/>
          <path id="Path_611470" data-name="Path 611470" d="M99.785,217.939a21.216,21.216,0,0,1,2.273.009c.811.039,1.625.015,2.438.018.127.109.091.259.092.4q.008,1.5.007,3c0,.136.045.306-.109.381-.174.086-.242-.1-.332-.189q-1.435-1.426-2.943-2.773a3.345,3.345,0,0,0-1.442-.747l.015-.094" transform="translate(-65.999 -144.151)" fill="#f5f4f4"/>
          <path id="Path_611471" data-name="Path 611471" d="M97.371,217.91l-.015.094a5.9,5.9,0,0,0-1.235-.073,3.821,3.821,0,0,1,1.251-.021" transform="translate(-63.584 -144.122)" fill="#bee4f6"/>
        </g>
      </g>
    </g>
  </g>
</svg>
