<svg xmlns="http://www.w3.org/2000/svg" xmlns:xlink="http://www.w3.org/1999/xlink" width="139" height="139" viewBox="0 0 139 139">
  <defs>
    <clipPath id="clip-path">
      <rect id="Rectangle_378067" data-name="Rectangle 378067" width="91.539" height="99.667" fill="none"/>
    </clipPath>
  </defs>
  <g id="Group_1074755" data-name="Group 1074755" transform="translate(-1144 -1005)">
    <g id="Group_1073045" data-name="Group 1073045" transform="translate(-290.668 -4877)">
      <g id="Group_1072229" data-name="Group 1072229" transform="translate(1434.668 5882)">
        <path id="Path_608385" data-name="Path 608385" d="M69.5,0A69.5,69.5,0,1,1,0,69.5,69.5,69.5,0,0,1,69.5,0Z" transform="translate(0)" fill="#fff"/>
      </g>
      <g id="Group_1073051" data-name="Group 1073051" transform="translate(1465.364 5905)">
        <g id="Group_1073050" data-name="Group 1073050" clip-path="url(#clip-path)">
          <path id="Path_611472" data-name="Path 611472" d="M49.584,89.66a15.2,15.2,0,0,0-2.917-.079,19.254,19.254,0,0,0-2.972.06,7.068,7.068,0,0,1-.921-.078q-17.333.007-34.665-.011a7.948,7.948,0,0,1-5.175-1.911A8.713,8.713,0,0,1,.131,83.1,8.734,8.734,0,0,1,.026,80.82C.02,80.529,0,80.235,0,79.942Q.009,43.932.022,7.923A7.678,7.678,0,0,1,4.08,1.12,8.376,8.376,0,0,1,8.574,0Q35.386,0,62.2,0a8.562,8.562,0,0,1,3.368.753A6.162,6.162,0,0,1,67.49,2.039,8.306,8.306,0,0,1,70.072,6.6a18.513,18.513,0,0,1,.25,3.049q-.006,28.642,0,57.285c0,.235-.111.521.188.681l-.211.251a.64.64,0,0,0-.355.252q-.718.76-1.437,1.52c-1.911,2.01-3.956,3.882-5.931,5.825Q59.989,78,57.433,80.582c-2.111,2.129-4.313,4.169-6.263,6.455a4.33,4.33,0,0,0-.987,1.619c-.354.242-.326.714-.6,1m-14.49-82.6h0c-5.088,0-10.175.019-15.262-.013a3.8,3.8,0,0,0-3.168,1.587,3.306,3.306,0,0,0-.833,2.32c.077,1.215.018,2.439.019,3.66a3.675,3.675,0,0,0,.908,2.315,4.257,4.257,0,0,0,3.493,1.544q14.617.026,29.234.015a7.839,7.839,0,0,0,1.972-.245,3.944,3.944,0,0,0,1.9-1.167,3.58,3.58,0,0,0,.911-2,21.193,21.193,0,0,0,.038-4.622,3.938,3.938,0,0,0-3.817-3.409c-5.131.036-10.264.012-15.4.012M23.148,51.021A6.651,6.651,0,0,0,15.8,44.678a6.793,6.793,0,0,0-5.62,6.88,6.489,6.489,0,0,0,12.966-.537m-5.93,12.652c-4.128-.022-7.3,3.026-7.041,6.876a6.523,6.523,0,0,0,6.373,6.206,6.363,6.363,0,0,0,4.736-2.02,6.348,6.348,0,0,0,1.893-5.2,6.035,6.035,0,0,0-1.924-3.945,6.478,6.478,0,0,0-4.037-1.913m27.643,7.946v0q6.026,0,12.054,0a2.008,2.008,0,0,0,1.18-.315,1.429,1.429,0,0,0,.168-2.083,2.436,2.436,0,0,0-1.525-.538q-11.676.017-23.351,0a3.288,3.288,0,0,0-1.086.164,1.31,1.31,0,0,0-.951,1.481c.206.749.529,1.286,1.413,1.284q6.049-.012,12.1,0m.183-40.909v0H33.876a5.673,5.673,0,0,0-1.643.157,1.34,1.34,0,0,0-.855,1.553,1.431,1.431,0,0,0,1.571,1.155H52.926c1.427,0,2.854.006,4.281,0a1.387,1.387,0,0,0,1.361-1,1.417,1.417,0,0,0-.943-1.781,2.793,2.793,0,0,0-.968-.088q-5.806,0-11.612,0M45.009,49.74v0H33.485a5.279,5.279,0,0,0-1.106.08,1.373,1.373,0,0,0-.939,1.849,1.639,1.639,0,0,0,1.712.926q11.857,0,23.716,0a2.869,2.869,0,0,0,.791-.1c.681-.195.918-.6.911-1.518a1.2,1.2,0,0,0-.933-1.151,3.636,3.636,0,0,0-1.015-.088H45.009M10.429,30.359a1.354,1.354,0,0,0-1.313.826A1.331,1.331,0,0,0,9.432,32.7c1.117,1.244,2.251,2.473,3.487,3.6a1.389,1.389,0,0,0,1.312.425,2.059,2.059,0,0,0,1.007-.611c.455-.508.955-.976,1.438-1.46Q19.331,32,21.991,29.34c.554-.551,1.05-1.154,1.635-1.684a1.465,1.465,0,0,0,.614-1.463,1.377,1.377,0,0,0-2.48-.643c-1.955,1.966-3.95,3.891-5.861,5.9-.5.524-1.047,1-1.569,1.5-.26.249-.449.26-.722-.038-.652-.711-1.351-1.378-2.035-2.059a1.466,1.466,0,0,0-1.143-.5" fill="#fdedc2"/>
          <path id="Path_611473" data-name="Path 611473" d="M140.473,210.752a4.326,4.326,0,0,1,.987-1.619c1.95-2.285,4.152-4.326,6.263-6.455q2.556-2.578,5.144-5.124c1.976-1.942,4.021-3.815,5.931-5.825q.721-.758,1.438-1.52a.64.64,0,0,1,.355-.252,1.074,1.074,0,0,0,.319.42q1.413,1.417,2.828,2.831,2.583,2.567,5.172,5.129a3.99,3.99,0,0,1,.868,1.059c-.025.34-.354.418-.542.608q-4.2,4.236-8.42,8.45-2.656,2.663-5.308,5.33c-1.39,1.4-2.762,2.81-4.182,4.175a6.391,6.391,0,0,1-2.273,1.57,1.261,1.261,0,0,0-.417-.611c-2.1-2.09-4.161-4.217-6.293-6.273a24.124,24.124,0,0,1-1.869-1.9m19.775-9.673a.941.941,0,0,0-.269-.81,1.436,1.436,0,0,0-2.289-.088c-1.564,1.522-3.1,3.079-4.621,4.641a1.221,1.221,0,0,0-.319,1.273,1.407,1.407,0,0,0,2.29.763,10.426,10.426,0,0,0,1.162-1.15c1.173-1.147,2.344-2.3,3.5-3.466a1.311,1.311,0,0,0,.549-1.163" transform="translate(-90.289 -122.096)" fill="#8689c1"/>
          <path id="Path_611474" data-name="Path 611474" d="M212.557,162.9a7.313,7.313,0,0,1,1.018-1.042c.916-.877,1.827-1.762,2.687-2.693a13.163,13.163,0,0,1,1.79-1.615,4.395,4.395,0,0,1,2.237-.823,4.759,4.759,0,0,1,3.592.953,18.891,18.891,0,0,1,1.854,1.68,18.293,18.293,0,0,1,1.255,1.342,5.234,5.234,0,0,1,1.148,2.823,5.1,5.1,0,0,1-1.69,4.284c-1.132,1.106-2.246,2.233-3.36,3.359a7.973,7.973,0,0,1-1.149,1.082l-3.134-3.139c-2.076-2.078-4.118-4.189-6.249-6.211" transform="translate(-136.622 -100.712)" fill="#de718b"/>
          <path id="Path_611475" data-name="Path 611475" d="M202.42,174.069c2.131,2.022,4.173,4.133,6.249,6.211l3.134,3.139c-.855.973-1.8,1.855-2.715,2.771q-1.28,1.283-2.571,2.555c-.165.162-.3.378-.543.439a4,4,0,0,0-.868-1.059q-2.583-2.567-5.172-5.129-1.42-1.41-2.828-2.831a1.078,1.078,0,0,1-.32-.42l.212-.251c.642-.467,1.054-1.16,1.659-1.67a15.193,15.193,0,0,0,1.64-1.623,20.017,20.017,0,0,0,1.977-2.053c.027-.041.1-.053.147-.079" transform="translate(-126.485 -111.883)" fill="#47515e"/>
          <path id="Path_611476" data-name="Path 611476" d="M136.308,248.162a24.058,24.058,0,0,0,1.869,1.9c2.132,2.056,4.195,4.182,6.293,6.273a1.258,1.258,0,0,1,.417.611,10.082,10.082,0,0,1-2.769,1.091c-1.2.364-2.416.686-3.628,1.013a3.447,3.447,0,0,1-3.651-1.247,3.575,3.575,0,0,1-.734-3.254c.236-1.043.665-2.022.929-3.047.2-.786.48-1.546.674-2.331.274-.29.245-.762.6-1" transform="translate(-86.125 -159.507)" fill="#47515e"/>
          <path id="Path_611477" data-name="Path 611477" d="M63.564,19.729c5.132,0,10.264.024,15.4-.012a3.938,3.938,0,0,1,3.816,3.409,21.193,21.193,0,0,1-.038,4.622,3.58,3.58,0,0,1-.911,2,3.944,3.944,0,0,1-1.9,1.167,7.839,7.839,0,0,1-1.972.245q-14.617-.011-29.234-.015A4.259,4.259,0,0,1,45.228,29.6a3.679,3.679,0,0,1-.908-2.316c0-1.22.058-2.444-.019-3.66a3.307,3.307,0,0,1,.833-2.32A3.8,3.8,0,0,1,48.3,19.717c5.087.032,10.175.013,15.262.013Z" transform="translate(-28.47 -12.673)" fill="#91d3f6"/>
          <path id="Path_611478" data-name="Path 611478" d="M41.459,131.339a6.489,6.489,0,0,1-12.966.537A6.792,6.792,0,0,1,34.114,125a6.65,6.65,0,0,1,7.346,6.342m-2.934.176a3.548,3.548,0,0,0-3.557-3.611,3.729,3.729,0,0,0-3.634,3.6,4.011,4.011,0,0,0,3.413,3.651,3.677,3.677,0,0,0,3.778-3.645" transform="translate(-18.312 -80.319)" fill="#47515e"/>
          <path id="Path_611479" data-name="Path 611479" d="M35.5,178.232a6.479,6.479,0,0,1,4.037,1.913,6.037,6.037,0,0,1,1.924,3.946,6.713,6.713,0,0,1-6.629,7.223,6.523,6.523,0,0,1-6.373-6.206c-.255-3.85,2.914-6.9,7.042-6.877m3,6.421a3.5,3.5,0,0,0-3.736-3.575,4.036,4.036,0,0,0-3.466,3.576,3.8,3.8,0,0,0,3.629,3.732,3.583,3.583,0,0,0,3.573-3.733" transform="translate(-18.283 -114.559)" fill="#47515e"/>
          <path id="Path_611480" data-name="Path 611480" d="M101.2,195.2q-6.049,0-12.1,0c-.883,0-1.206-.534-1.413-1.284a1.31,1.31,0,0,1,.951-1.482,3.289,3.289,0,0,1,1.086-.164q11.676,0,23.351,0a2.436,2.436,0,0,1,1.525.538,1.43,1.43,0,0,1-.169,2.083,2.008,2.008,0,0,1-1.18.315q-6.027-.006-12.054,0Z" transform="translate(-56.342 -123.583)" fill="#47515e"/>
          <path id="Path_611481" data-name="Path 611481" d="M101.425,85.959q5.806,0,11.612,0a2.792,2.792,0,0,1,.968.088,1.416,1.416,0,0,1,.943,1.78,1.387,1.387,0,0,1-1.361,1c-1.427.009-2.854,0-4.281,0H89.33a1.431,1.431,0,0,1-1.57-1.155,1.339,1.339,0,0,1,.854-1.553,5.679,5.679,0,0,1,1.644-.157h11.167Z" transform="translate(-56.381 -55.25)" fill="#47515e"/>
          <path id="Path_611482" data-name="Path 611482" d="M101.383,139.232H113a3.624,3.624,0,0,1,1.015.088,1.2,1.2,0,0,1,.933,1.151c.006.922-.23,1.324-.911,1.518a2.858,2.858,0,0,1-.791.1H89.526a1.639,1.639,0,0,1-1.712-.926,1.373,1.373,0,0,1,.939-1.849,5.279,5.279,0,0,1,1.106-.08h11.524Z" transform="translate(-56.374 -89.491)" fill="#47515e"/>
          <path id="Path_611483" data-name="Path 611483" d="M26.611,75.323a1.466,1.466,0,0,1,1.142.5c.684.681,1.383,1.348,2.035,2.059.273.3.463.287.722.038.522-.5,1.071-.975,1.569-1.5,1.911-2.011,3.905-3.936,5.861-5.9a1.377,1.377,0,0,1,2.48.643,1.463,1.463,0,0,1-.614,1.463c-.584.529-1.08,1.133-1.634,1.684q-2.667,2.649-5.314,5.318c-.482.483-.982.952-1.437,1.46a2.066,2.066,0,0,1-1.007.611,1.389,1.389,0,0,1-1.312-.425c-1.236-1.129-2.37-2.359-3.487-3.6a1.331,1.331,0,0,1-.316-1.517,1.356,1.356,0,0,1,1.313-.826" transform="translate(-16.181 -44.964)" fill="#149b1d"/>
          <path id="Path_611484" data-name="Path 611484" d="M182.223,218.525a1.311,1.311,0,0,1-.549,1.163c-1.153,1.168-2.324,2.318-3.5,3.466a10.424,10.424,0,0,1-1.162,1.15,1.407,1.407,0,0,1-2.29-.763,1.221,1.221,0,0,1,.319-1.273c1.525-1.562,3.057-3.119,4.621-4.641a1.436,1.436,0,0,1,2.289.088.941.941,0,0,1,.269.81" transform="translate(-112.265 -139.543)" fill="#fdedc2"/>
          <path id="Path_611485" data-name="Path 611485" d="M43.638,136.813a3.677,3.677,0,0,1-3.778,3.645,4.011,4.011,0,0,1-3.413-3.651,3.729,3.729,0,0,1,3.634-3.6,3.548,3.548,0,0,1,3.557,3.611" transform="translate(-23.425 -85.616)" fill="#fdedc2"/>
          <path id="Path_611486" data-name="Path 611486" d="M43.624,189.769a3.583,3.583,0,0,1-3.573,3.733,3.8,3.8,0,0,1-3.629-3.732,4.036,4.036,0,0,1,3.466-3.576,3.5,3.5,0,0,1,3.736,3.575" transform="translate(-23.41 -119.676)" fill="#fdedc2"/>
        </g>
      </g>
    </g>
  </g>
</svg>
