<svg xmlns="http://www.w3.org/2000/svg" xmlns:xlink="http://www.w3.org/1999/xlink" width="139" height="139" viewBox="0 0 139 139">
  <defs>
    <clipPath id="clip-path">
      <rect id="Rectangle_378934" data-name="Rectangle 378934" width="89.334" height="89.336" fill="none"/>
    </clipPath>
  </defs>
  <g id="Group_1074630" data-name="Group 1074630" transform="translate(-1430.668 -5885.173)">
    <g id="Group_1072229" data-name="Group 1072229" transform="translate(1430.668 5885.173)">
      <path id="Path_608385" data-name="Path 608385" d="M69.5,0A69.5,69.5,0,1,1,0,69.5,69.5,69.5,0,0,1,69.5,0Z" transform="translate(0)" fill="#fff"/>
    </g>
    <g id="Group_1074662" data-name="Group 1074662" transform="translate(1454.669 5909.172)">
      <g id="Mask_Group_1074661" data-name="Mask Group 1074661" transform="translate(0 0)" clip-path="url(#clip-path)">
        <path id="Path_613193" data-name="Path 613193" d="M41.155,32.464A11.02,11.02,0,1,1,30.128,43.476,11.01,11.01,0,0,1,41.155,32.464" transform="translate(22.44 24.181)" fill="#fff"/>
        <path id="Path_613194" data-name="Path 613194" d="M40.182,66.187a1.622,1.622,0,1,0-3.238.181A22.648,22.648,0,0,0,40.7,77.787a1.619,1.619,0,0,0,1.342.712,1.511,1.511,0,0,0,.906-.279,1.609,1.609,0,0,0,.447-2.247,19.377,19.377,0,0,1-3.211-9.785m4.969-17.058a1.615,1.615,0,0,0-2.289.1A22.585,22.585,0,0,0,37.306,60.6a1.616,1.616,0,0,0,1.3,1.884,2.058,2.058,0,0,0,.293.028,1.651,1.651,0,0,0,1.6-1.34,19.285,19.285,0,0,1,4.748-9.743,1.632,1.632,0,0,0-.1-2.3m1.593-25.265a2.1,2.1,0,0,0-2.289-1.87l-7.512.74,2.108-7.621a2.095,2.095,0,1,0-4.034-1.131l-2.93,10.581a2.078,2.078,0,0,0,.419,1.9,2.112,2.112,0,0,0,1.6.754c.072,0,.141-.016.209-.016l10.539-1.045a2.092,2.092,0,0,0,1.886-2.289m5.821-9a1.626,1.626,0,0,0,1.4-1.829,1.647,1.647,0,0,0-1.83-1.4,16.341,16.341,0,0,0-11.1,6.52A1.629,1.629,0,0,0,41.4,20.43a1.735,1.735,0,0,0,.947.307,1.633,1.633,0,0,0,1.326-.684,13.151,13.151,0,0,1,8.893-5.193m6.924,24.567a1.616,1.616,0,0,0-2.261-.4c-.462.321-.923.628-1.4.935-1.021.656-2.08,1.3-3.128,1.94-1.843,1.117-3.739,2.275-5.528,3.559a1.643,1.643,0,0,0-.363,2.275,1.665,1.665,0,0,0,1.328.67,1.638,1.638,0,0,0,.949-.307c1.675-1.214,3.516-2.345,5.3-3.434,1.077-.642,2.15-1.3,3.2-1.984.5-.319,1.005-.656,1.494-1a1.6,1.6,0,0,0,.407-2.247M66.3,22.789a1.543,1.543,0,0,0,.612-.112,1.636,1.636,0,0,0,.893-2.122A14.613,14.613,0,0,0,63.271,14.5a13.988,13.988,0,0,0-5.139-2.513,1.623,1.623,0,0,0-.824,3.141,10.707,10.707,0,0,1,3.964,1.94,11.114,11.114,0,0,1,3.519,4.718A1.631,1.631,0,0,0,66.3,22.789m1.017,2.038a1.608,1.608,0,0,0-1.619,1.6,11.362,11.362,0,0,1-.447,3.031A15.118,15.118,0,0,1,61.2,35.771a1.613,1.613,0,0,0-.014,2.289,1.639,1.639,0,0,0,1.159.487,1.559,1.559,0,0,0,1.131-.473,18.108,18.108,0,0,0,4.872-7.691,13.992,13.992,0,0,0,.586-3.922,1.62,1.62,0,0,0-1.6-1.633ZM85.352,1.6V85.35H28.6a5.2,5.2,0,0,1-3.7-1.492l-.084-.07a5.3,5.3,0,0,1-1.563-3.771V63.7H5.494A5.462,5.462,0,0,1,3.9,62.935a5.259,5.259,0,0,1-2.3-4.369V1.6ZM73.418,66.464A11.02,11.02,0,1,0,62.406,77.493,11.008,11.008,0,0,0,73.418,66.464M29,47.51V41.927H21.547V34.471H15.964v7.456H8.51V47.51h7.454v7.454h5.583V47.51Z" transform="translate(1.192 1.192)" fill="#fff"/>
        <path id="Path_613195" data-name="Path 613195" d="M42.095,14.912a1.619,1.619,0,0,1,1.6,1.633,13.993,13.993,0,0,1-.586,3.922,18.091,18.091,0,0,1-4.872,7.691,1.559,1.559,0,0,1-1.131.473,1.639,1.639,0,0,1-1.159-.487,1.613,1.613,0,0,1,.014-2.289,15.14,15.14,0,0,0,4.05-6.309,11.361,11.361,0,0,0,.445-3.031,1.608,1.608,0,0,1,1.619-1.6Z" transform="translate(26.428 11.108)" fill="#ffe578"/>
        <path id="Path_613196" data-name="Path 613196" d="M44.542,16.145a1.637,1.637,0,0,1-.9,2.122,1.529,1.529,0,0,1-.611.112,1.633,1.633,0,0,1-1.509-1.005,11.1,11.1,0,0,0-3.518-4.718,10.742,10.742,0,0,0-3.966-1.94,1.624,1.624,0,0,1,.825-3.141,14.035,14.035,0,0,1,5.137,2.513,14.6,14.6,0,0,1,4.537,6.058" transform="translate(24.456 5.603)" fill="#ffe578"/>
        <path id="Path_613197" data-name="Path 613197" d="M40.317,23.578a1.6,1.6,0,0,1-.4,2.247c-.49.347-.991.684-1.5,1-1.045.684-2.12,1.342-3.2,1.984-1.785,1.089-3.628,2.219-5.3,3.434A1.63,1.63,0,0,1,28,29.609c1.788-1.284,3.687-2.443,5.528-3.561,1.049-.642,2.108-1.282,3.128-1.939.475-.309.933-.614,1.4-.935a1.616,1.616,0,0,1,2.261.4" transform="translate(20.361 17.042)" fill="#ffe578"/>
        <path id="Path_613198" data-name="Path 613198" d="M35.864,10.582a13.151,13.151,0,0,0-8.893,5.193,1.632,1.632,0,0,1-1.324.684,1.736,1.736,0,0,1-.949-.307,1.628,1.628,0,0,1-.365-2.275,16.332,16.332,0,0,1,11.1-6.519,1.644,1.644,0,0,1,1.83,1.4,1.625,1.625,0,0,1-1.4,1.827" transform="translate(17.893 5.471)" fill="#ffe578"/>
        <path id="Path_613199" data-name="Path 613199" d="M30.019,31.326a19.3,19.3,0,0,0-4.748,9.743,1.65,1.65,0,0,1-1.6,1.34,2.082,2.082,0,0,1-.293-.028,1.619,1.619,0,0,1-1.3-1.884,22.587,22.587,0,0,1,5.557-11.376,1.613,1.613,0,0,1,2.287-.1,1.631,1.631,0,0,1,.1,2.3" transform="translate(16.421 21.299)" fill="#ffe578"/>
        <path id="Path_613200" data-name="Path 613200" d="M28.306,49.057A1.609,1.609,0,0,1,27.86,51.3a1.511,1.511,0,0,1-.906.279,1.617,1.617,0,0,1-1.342-.714,22.619,22.619,0,0,1-3.755-11.416,1.622,1.622,0,1,1,3.238-.181,19.377,19.377,0,0,0,3.211,9.785" transform="translate(16.278 28.107)" fill="#ffe578"/>
        <path id="Path_613201" data-name="Path 613201" d="M31.471,17.36a2.09,2.09,0,1,1,.4,4.16L21.336,22.565c-.068,0-.138.016-.209.016a2.118,2.118,0,0,1-1.6-.754,2.083,2.083,0,0,1-.419-1.9L22.035,9.348a2.094,2.094,0,1,1,4.032,1.131L23.96,18.1Z" transform="translate(14.174 5.826)" fill="#ffe578"/>
        <path id="Path_613202" data-name="Path 613202" d="M18.945,38.987H5.419a8.331,8.331,0,0,1-1.787-.2h15.1Z" transform="translate(2.705 28.894)" fill="#95afad"/>
        <path id="Path_613203" data-name="Path 613203" d="M18.6,27.9V20.439H13.015V27.9H5.559v5.583h7.456v7.454H18.6V33.479h7.454V27.9Z" transform="translate(4.141 15.225)" fill="#615842"/>
        <path id="Path_613204" data-name="Path 613204" d="M20.149,52.854a8.031,8.031,0,0,0,2.387,5.737L2.015,38.072A8.337,8.337,0,0,0,4.836,39.33a8.443,8.443,0,0,0,1.787.194H20.149Z" transform="translate(1.501 28.358)" fill="#bececd"/>
        <path id="Path_613205" data-name="Path 613205" d="M86.542,86.544V2.792H2.79V59.757a5.261,5.261,0,0,0,2.3,4.369,5.441,5.441,0,0,0,1.591.768H24.442V81.212A5.307,5.307,0,0,0,26,84.981l.085.07a5.2,5.2,0,0,0,3.7,1.494H86.542ZM89.334,0V89.336H29.788a8.139,8.139,0,0,1-5.681-2.3l-.07-.084a8.034,8.034,0,0,1-2.387-5.737V67.686H6.337a8.334,8.334,0,0,1-2.821-1.256A8.087,8.087,0,0,1,0,59.757V0Z" transform="translate(0 0.001)" fill="#ffe578"/>
        <path id="Path_613206" data-name="Path 613206" d="M42.05,57.492A13.114,13.114,0,1,1,55.157,44.369,13.138,13.138,0,0,1,42.05,57.492m0-22.041a8.927,8.927,0,1,0,8.918,8.918,8.936,8.936,0,0,0-8.918-8.918" transform="translate(21.546 23.287)" fill="#615842"/>
      </g>
    </g>
  </g>
</svg>
