<svg xmlns="http://www.w3.org/2000/svg" xmlns:xlink="http://www.w3.org/1999/xlink" width="504" height="213" viewBox="0 0 504 213">
  <defs>
    <clipPath id="clip-path">
      <rect id="Rectangle_378485" data-name="Rectangle 378485" width="504" height="213" transform="translate(891.333 4765.601)" fill="#fff" stroke="#707070" stroke-width="1"/>
    </clipPath>
    <clipPath id="clip-path-2">
      <rect id="Rectangle_378484" data-name="Rectangle 378484" width="504.433" height="308.884" fill="none"/>
    </clipPath>
    <clipPath id="clip-path-4">
      <rect id="Rectangle_378460" data-name="Rectangle 378460" width="471.718" height="308.289" fill="#fff8e7"/>
    </clipPath>
    <clipPath id="clip-path-5">
      <path id="Path_611743" data-name="Path 611743" d="M339.069,182.907l-12.156,98.084h62.739s-1.178-5.717,0-32.454,20.262-57.008,12.546-86.813c-5.346-20.656-14.614-28.271-24.454-28.268-20.237.006-42.874,32.227-38.676,49.451" transform="translate(-326.913 -133.456)" fill="none"/>
    </clipPath>
    <clipPath id="clip-path-7">
      <path id="Path_611750" data-name="Path 611750" d="M240.1,218.886a142.228,142.228,0,0,0-15.933,1.962c-2.759.667-24.366,6.312-24.366,6.312l-26.605,25.3s.391,4.468,6.647,2.056c5.613-2.166,17.019-14.1,17.019-14.1s-4.4,9.289,1.015,11.826c1.968.922,5.892-1.806,5.892-1.806,2.714,2.434,6.139,2.616,7.531-1,0,0,2.819,2.631,5.825,1.667,6.451-2.075,6.266-6.816,5.6-8.726,0,0,1.518.686,6.2.142s11.379-7.68,10.994-10.36c-.381-2.658,3.821-13.276.279-13.276-.029,0-.059,0-.088,0" transform="translate(-173.197 -218.884)" fill="none"/>
    </clipPath>
    <clipPath id="clip-path-9">
      <path id="Path_611755" data-name="Path 611755" d="M314.247,102.44c-1.571.6-10.666,6.493-14.293,11.865-3.5,5.186-10.064,17.761-10.064,17.761l4.128,2.771s.4,12.365,9.84,18.72c1.831,1.233,4.64,1.586,7.869,1.359,1.148,6.452.652,13.077-5.792,22.068,0,0,25.054-9.342,30.71-14.734.1-.092-2.117-10.679-4.128-13.726.51-.274.99-.546,1.436-.814,7.31-4.4,14.505-30.021,6.945-37.817-6.944-7.164-23.62-7.455-26.29-7.455-.236,0-.362,0-.362,0" transform="translate(-289.89 -102.438)" fill="none"/>
    </clipPath>
    <clipPath id="clip-path-11">
      <path id="Path_611758" data-name="Path 611758" d="M332.217,152.427c-3.6,1.048-8.27,8.57-20.006,10.159,0,0-11.33,7.608-23.315,40.959-7.754,21.577-10.4,70.428-10.4,70.428h98.692s-4.119-73.957-12.551-97.4c-6.93-19.268-14.542-25.535-23.9-25.535a30.727,30.727,0,0,0-8.521,1.389" transform="translate(-278.499 -151.038)" fill="#9ac1df"/>
    </clipPath>
    <clipPath id="clip-path-13">
      <path id="Path_611780" data-name="Path 611780" d="M313.631,233.324a3.849,3.849,0,0,0-2.654,1.049,3.5,3.5,0,0,0-1.1,2.532v1.453a7.46,7.46,0,0,0,7.633,7.274h78a7.462,7.462,0,0,0,7.632-7.274v-1.045a3.894,3.894,0,0,0-1.226-2.82,4.29,4.29,0,0,0-2.959-1.168Z" transform="translate(-309.878 -233.324)" fill="none"/>
    </clipPath>
    <clipPath id="clip-path-15">
      <path id="Path_611803" data-name="Path 611803" d="M18.11,243.286c-.409,0-1.532.776-1.987,3.257-.529,2.878-.319,7.62.389,9.3.31.736.715,1.425,1.6,1.425h76.8v-1.425H18.113a15.2,15.2,0,0,1,0-11.13H94.906v-1.426Z" transform="translate(-15.827 -243.286)" fill="none"/>
    </clipPath>
    <clipPath id="clip-path-17">
      <path id="Path_611809" data-name="Path 611809" d="M241.809,236.907a22.587,22.587,0,0,0-.9,6.341,20.846,20.846,0,0,0,4.947,13.82,3.919,3.919,0,0,0,2.91,1.272c3.41.014,11.244.014,14.652.014a3.939,3.939,0,0,0,2.923-1.276,20.957,20.957,0,0,0,4.935-13.83,22.59,22.59,0,0,0-.894-6.341Z" transform="translate(-240.914 -236.907)" fill="none"/>
    </clipPath>
  </defs>
  <g id="Mask_Group_154359" data-name="Mask Group 154359" transform="translate(-891.333 -4765.601)" clip-path="url(#clip-path)">
    <g id="Group_1073939" data-name="Group 1073939" transform="translate(947 4800.129)">
      <rect id="Rectangle_377812" data-name="Rectangle 377812" width="449.155" height="178.23" rx="81" transform="translate(0 0.152)" fill="#d2c1b0"/>
      <path id="Intersection_2" data-name="Intersection 2" d="M1.347,178.092C-3.132,160,3.086,139.832,27.078,121.738c46.4-35,79.771-44.721,85.4-101.108A42.2,42.2,0,0,1,119.853,0h78.664a81,81,0,0,1,81,81V97.092a81,81,0,0,1-81,81Z" transform="translate(169.561 0)" fill="#c5ab92"/>
    </g>
    <path id="Intersection_7" data-name="Intersection 7" d="M1.341,178.025C-3.122,159.947,3.079,139.781,27,121.7c46.275-34.987,79.547-44.7,85.156-101.073A42.224,42.224,0,0,1,119.515,0h3.457a81,81,0,0,1,81,81V97.025a81,81,0,0,1-81,81Z" transform="translate(1192.314 4800.129)" fill="#b4997f"/>
    <g id="Group_1073977" data-name="Group 1073977" transform="translate(891.333 4669.747)">
      <g id="Group_1073976" data-name="Group 1073976" clip-path="url(#clip-path-2)">
        <g id="Group_1073949" data-name="Group 1073949">
          <g id="Group_1073948" data-name="Group 1073948" clip-path="url(#clip-path-2)">
            <path id="Path_611741" data-name="Path 611741" d="M339.069,182.907c-6.239-25.6,46.786-84.325,63.131-21.182,7.716,29.8-11.371,60.073-12.547,86.811s0,32.454,0,32.454H326.913Z" transform="translate(74.603 22.765)" fill="#404053" fill-rule="evenodd"/>
          </g>
        </g>
        <g id="Group_1073951" data-name="Group 1073951" transform="translate(401.516 156.221)">
          <g id="Group_1073950" data-name="Group 1073950" clip-path="url(#clip-path-5)">
            <path id="Path_611742" data-name="Path 611742" d="M345.481,134.1c2.824-.849,21.185-4.886,31.071,9.921s8.61,45.234,3.5,67.254-7.533,41.508-5.919,50.738,3.5,19.621,3.5,19.621l22.215-2.442a56.727,56.727,0,0,1-7.031-40.559c4.843-23.077,18.025-46.409,13.72-67.177S396.039,135.3,382.05,130.945s-39.395,4-36.569,3.156" transform="translate(-322.725 -134.1)" fill="#48485d" fill-rule="evenodd"/>
          </g>
        </g>
        <g id="Group_1073953" data-name="Group 1073953">
          <g id="Group_1073952" data-name="Group 1073952" clip-path="url(#clip-path-2)">
            <path id="Path_611744" data-name="Path 611744" d="M233.6,192.769c-.786-2.093-4.746-28.627-5.87-29.778s-3.451-1.3-4.013.267.224,11.407.224,11.407l-11.7-18.939c-1.388-2.21-5.162-2.464-4.5,1.042.489,2.579,9.576,19.676,9.576,19.676s-15.942-18.485-17.782-20.022c-2.817-2.353-5.122,1.85-3.9,3.111l16.3,19.631s-16.183-13.059-18.08-14.455c-3.247-2.387-5.873,1.876-3.954,3.562,6.373,5.6,10.813,9.84,16.971,14.69,0,0-12.012-7.838-13.812-8.56-4.666-1.874-5.623,2.681-3.434,4.172,1.154.785,17.142,10.744,17.142,10.744s9.208,12.244,14.487,11.092,13.138-5.546,12.352-7.639" transform="translate(43.016 26.285)" fill="#fbbc93" fill-rule="evenodd"/>
            <path id="Path_611745" data-name="Path 611745" d="M218.473,174.358s-.879-.059-.254,5.334,3.164,7.77,3.164,7.77c-2.593-1.22-6.873-5.922-5.382-10.191-3.062,1.174-6.756,6.638-8.507,9.348a13.628,13.628,0,0,1,3.386-8.214,12.311,12.311,0,0,1,7.593-4.048" transform="translate(47.351 29.742)" fill="#db905f" fill-rule="evenodd"/>
            <path id="Path_611746" data-name="Path 611746" d="M294.411,115.974c-2.588,0-4.688,3.482-4.688,7.773s2.1,7.773,4.688,7.773,4.688-3.482,4.688-7.773-2.1-7.773-4.688-7.773" transform="translate(66.116 19.783)" fill="#ffd2a3" fill-rule="evenodd"/>
            <path id="Path_611747" data-name="Path 611747" d="M294.447,116.3c-2.485,0-4.5,3.348-4.5,7.466s2.013,7.467,4.5,7.467,4.5-3.348,4.5-7.467-2.014-7.466-4.5-7.466m0-.612c2.692,0,4.88,3.617,4.88,8.078s-2.187,8.079-4.88,8.079-4.88-3.617-4.88-8.079,2.187-8.078,4.88-8.078" transform="translate(66.08 19.735)" fill="#824336" fill-rule="evenodd"/>
            <rect id="Rectangle_378462" data-name="Rectangle 378462" width="71.602" height="1.917" transform="translate(205.068 293.806)" fill="#2b2b37"/>
            <path id="Path_611748" data-name="Path 611748" d="M240.1,218.885a142.458,142.458,0,0,0-15.933,1.963c-2.759.667-24.368,6.312-24.368,6.312l-26.6,25.3s.391,4.469,6.647,2.057c5.613-2.166,17.019-14.1,17.019-14.1s-4.4,9.289,1.015,11.826c1.968.921,5.892-1.806,5.892-1.806,2.714,2.434,6.139,2.616,7.53-1,0,0,2.82,2.631,5.827,1.666,6.451-2.073,6.265-6.814,5.6-8.724,0,0,1.518.686,6.2.142s11.379-7.68,10.992-10.36,3.89-13.449.192-13.274" transform="translate(39.524 37.337)" fill="#fbbc93" fill-rule="evenodd"/>
          </g>
        </g>
        <g id="Group_1073955" data-name="Group 1073955" transform="translate(212.721 256.221)">
          <g id="Group_1073954" data-name="Group 1073954" clip-path="url(#clip-path-7)">
            <path id="Path_611749" data-name="Path 611749" d="M170.911,251.992c1.118.622,7.264.976,12.849-3.283s15.365-13.755,15.365-13.755-3.156,14.849,0,14.564,3.935-1.42,3.935-1.42,2.741-14.484,2.561-13.233-1.43,12.723.776,13.631a4.113,4.113,0,0,0,4.052-.739s2.563-14.028,2.384-12.212.436,12.552,3.2,12.269,5.683-1.875,5.5-3.806a27.629,27.629,0,0,0-.774-4.09,37.171,37.171,0,0,0,7.127-.426c4.469-.625,5.124-2.045,5.124-2.045l-2.2-14.437,10.242,19.524-17.039,10.693c-18.305,2.054-36.524,3.708-53.892,1.3,0,0-.327-3.159.791-2.538" transform="translate(-173.909 -218.18)" fill="#db905f" fill-rule="evenodd"/>
          </g>
        </g>
        <g id="Group_1073957" data-name="Group 1073957">
          <g id="Group_1073956" data-name="Group 1073956" clip-path="url(#clip-path-2)">
            <path id="Path_611751" data-name="Path 611751" d="M303.051,104.194s-4.025-2.849-5.635,8.22,5.576,30.319,6.855,38.868-1.135,4.275-4.471,17.1,2.185,17.426,3.45,17.1,35.179-15.352,30.7-28.28-.341-28.712-2.3-38.9-28.6-14.1-28.6-14.1" transform="translate(67.818 17.717)" fill="#824336" fill-rule="evenodd"/>
            <path id="Path_611752" data-name="Path 611752" d="M343.239,170.258c-1.274-1.8-15.634-9.354-15.634-9.354L280,216.148l-53.167-32.942-15.792,17.847s51.707,53.018,67.408,57.008,69.294-74.422,69.294-74.422-3.23-11.585-4.5-13.381" transform="translate(48.16 27.447)" fill="#9ac1df" fill-rule="evenodd"/>
            <path id="Path_611753" data-name="Path 611753" d="M311.729,154.916c1.148,6.452.651,13.077-5.793,22.069,0,0,25.054-9.344,30.71-14.735.1-.092-2.117-10.679-4.128-13.726.51-.274.99-.546,1.436-.814,7.311-4.4,14.505-30.021,6.945-37.818s-26.652-7.452-26.652-7.452c-1.571.595-10.665,6.493-14.294,11.865-3.5,5.187-10.063,17.761-10.063,17.761l4.128,2.771s.4,12.366,9.842,18.72c1.829,1.233,4.639,1.587,7.869,1.359" transform="translate(66.154 17.474)" fill="#fbbc93" fill-rule="evenodd"/>
          </g>
        </g>
        <g id="Group_1073959" data-name="Group 1073959" transform="translate(356.044 119.912)">
          <g id="Group_1073958" data-name="Group 1073958" clip-path="url(#clip-path-9)">
            <path id="Path_611754" data-name="Path 611754" d="M322.854,129.288c-.489.849-1,7.726-3.212,11.7-5.561,10-20.733,7.3-20.733,7.3s8.523,5.276,16.465,2.835c4.931-1.515,5.393,3.477,12.168,5.407s4.321-.761,4.251-2.292-5.446-3.061-5.935-9.186a89.107,89.107,0,0,1,.629-14.843s-3.144-1.763-3.633-.914" transform="translate(-287.832 -97.897)" fill="#db905f" fill-rule="evenodd"/>
          </g>
        </g>
        <g id="Group_1073961" data-name="Group 1073961">
          <g id="Group_1073960" data-name="Group 1073960" clip-path="url(#clip-path-2)">
            <path id="Path_611756" data-name="Path 611756" d="M312.211,162.587s-11.33,7.608-23.315,40.96c-7.755,21.576-10.4,70.427-10.4,70.427h98.692s-4.119-73.957-12.551-97.4c-8.919-24.8-18.967-28.064-32.423-24.147-3.6,1.048-8.27,8.57-20.006,10.159" transform="translate(63.555 25.764)" fill="#ddf1ff" fill-rule="evenodd"/>
          </g>
        </g>
        <g id="Group_1073963" data-name="Group 1073963" transform="translate(342.054 176.802)">
          <g id="Group_1073962" data-name="Group 1073962" clip-path="url(#clip-path-11)">
            <path id="Path_611757" data-name="Path 611757" d="M361.827,183.745l4.315,19.391s.651,25.879-34.957,60.833c-7.284,7.151-58.923.3-58.923.3l2.017-23.48,2.732-20.154-.238,1.761,21.438-4.482c29.17-56.531,46.02-49.339,63.617-34.169" transform="translate(-279.923 -147.302)" fill="#9ac1df" fill-rule="evenodd"/>
          </g>
        </g>
        <g id="Group_1073965" data-name="Group 1073965">
          <g id="Group_1073964" data-name="Group 1073964" clip-path="url(#clip-path-2)">
            <path id="Path_611759" data-name="Path 611759" d="M322.739,118.735c-14.609-2.155-37.814-9.194-21.082-22.98,4.132-3.4,18.733.687,22,4.4,1.842,2.091,4.535.253,7.237,0,6.01-.563,10.7,3.961,11.174,7.781,10.462-.636,13.255,20.711,6.166,34.437-6.377,12.344,30.962,42.869,12.569,44.16-4.483.315-1.745-18.2-19.729-20.1-14.213-1.495-27.007-8.8-13.723-28.625,5.674-8.469-4.212-19.015-4.608-19.073" transform="translate(67.511 16.117)" fill="#824336" fill-rule="evenodd"/>
            <path id="Path_611760" data-name="Path 611760" d="M362.954,156.791c-21.9-9.006-51.082,66.286-51.082,66.286l-93.2,6.525,6.444,25.491,111.925,9.459c5.974.569,30.737-29.243,38.559-46.024,6.858-14.713,18.231-49.043-12.647-61.738" transform="translate(49.902 26.618)" fill="#abdbff" fill-rule="evenodd"/>
            <path id="Path_611761" data-name="Path 611761" d="M302.513,115.55c-3.1,0-5.619,3.619-5.619,8.078s2.518,8.079,5.619,8.079,5.619-3.621,5.619-8.079-2.518-8.078-5.619-8.078" transform="translate(67.752 19.71)" fill="#ffd2a3" fill-rule="evenodd"/>
            <path id="Path_611762" data-name="Path 611762" d="M300.487,122.243a1.862,1.862,0,1,0,1.952,1.86,1.908,1.908,0,0,0-1.952-1.86" transform="translate(68.127 20.852)" fill="#824336" fill-rule="evenodd"/>
            <path id="Path_611763" data-name="Path 611763" d="M302.555,115.914c-2.977,0-5.391,3.48-5.391,7.761s2.413,7.761,5.391,7.761,5.391-3.48,5.391-7.761-2.413-7.761-5.391-7.761m0-.636c3.224,0,5.846,3.76,5.846,8.4s-2.622,8.4-5.846,8.4-5.846-3.759-5.846-8.4,2.622-8.4,5.846-8.4" transform="translate(67.71 19.664)" fill="#824336" fill-rule="evenodd"/>
            <path id="Path_611764" data-name="Path 611764" d="M299.2,117.42c.018.014-.59,1.406-.59,1.406a8.807,8.807,0,0,0-3.612-.564c-.54,0-.749-1.389.859-1.494a10.364,10.364,0,0,1,3.343.652" transform="translate(67.23 19.917)" fill="#824336" fill-rule="evenodd"/>
            <path id="Path_611765" data-name="Path 611765" d="M305.414,118.955l10.995,1.361L316.3,121.6l-10.334-.816Z" transform="translate(69.697 20.291)" fill="#824336" fill-rule="evenodd"/>
            <path id="Path_611766" data-name="Path 611766" d="M312.657,120.13a4.558,4.558,0,0,1,1.631-3.43,6,6,0,0,1,3.934-1.421h8.414a6.007,6.007,0,0,1,3.936,1.421,4.555,4.555,0,0,1,1.629,3.43v14.2a4.557,4.557,0,0,1-1.629,3.431,6.013,6.013,0,0,1-3.936,1.421h-8.414a6,6,0,0,1-3.934-1.421,4.56,4.56,0,0,1-1.631-3.431Z" transform="translate(71.35 19.664)" fill="#595973" fill-rule="evenodd"/>
            <path id="Path_611767" data-name="Path 611767" d="M314.782,119.639a3.55,3.55,0,0,1,1.271-2.676,4.681,4.681,0,0,1,3.071-1.11h6.565a4.681,4.681,0,0,1,3.07,1.11,3.55,3.55,0,0,1,1.271,2.676v11.08a3.55,3.55,0,0,1-1.271,2.676,4.681,4.681,0,0,1-3.07,1.11h-6.565a4.681,4.681,0,0,1-3.071-1.11,3.55,3.55,0,0,1-1.271-2.676Z" transform="translate(71.835 19.762)" fill="#404053" fill-rule="evenodd"/>
            <rect id="Rectangle_378466" data-name="Rectangle 378466" width="7.235" height="23.903" transform="translate(391.163 114.863)" fill="#404053"/>
            <path id="Path_611768" data-name="Path 611768" d="M294.985,133.4a6.064,6.064,0,0,0,5.125,1.633c1.832-.227,3.476-1.224,3.807-3.1a.357.357,0,0,1,.413-.28.341.341,0,0,1,.292.393c-.388,2.189-2.276,3.394-4.419,3.659a6.825,6.825,0,0,1-5.763-1.866.33.33,0,0,1,.039-.481.372.372,0,0,1,.5.037" transform="translate(67.173 22.458)" fill="#824336" fill-rule="evenodd"/>
            <path id="Path_611769" data-name="Path 611769" d="M298.807,113.435a10.208,10.208,0,0,1,6.955.008,6.9,6.9,0,0,1,3.543,2.679.707.707,0,0,1-.264.994.782.782,0,0,1-1.043-.252,5.4,5.4,0,0,0-2.782-2.068,8.562,8.562,0,0,0-5.831-.021.772.772,0,0,1-.991-.394.713.713,0,0,1,.413-.946" transform="translate(68.082 19.246)" fill="#824336" fill-rule="evenodd"/>
            <path id="Path_611770" data-name="Path 611770" d="M26.32,170.381a5.514,5.514,0,0,1,1.145-4.859,6.122,6.122,0,0,1,4.708-2.167H169.862a5.955,5.955,0,0,1,5.851,4.427c4.978,20.37,25.435,104.09,25.435,104.09H51.119s-18.925-77.457-24.8-101.492" transform="translate(5.97 27.865)" fill="#676785" fill-rule="evenodd"/>
            <path id="Path_611771" data-name="Path 611771" d="M22.947,175.1a9.231,9.231,0,0,1,1.916-8.125,10.236,10.236,0,0,1,7.868-3.622h129.4a9.96,9.96,0,0,1,9.785,7.4c5.976,24.457,24.708,101.115,24.708,101.115H46.593S29.809,203.182,22.947,175.1" transform="translate(5.177 27.865)" fill="#48485d" fill-rule="evenodd"/>
            <path id="Path_611772" data-name="Path 611772" d="M153.612,163.355h4.819a9.96,9.96,0,0,1,9.785,7.4c5.976,24.457,24.708,101.115,24.708,101.115H42.9l-4.008-16.4a103.609,103.609,0,0,0,27.751,3.743c49.549,0,89.777-34.4,89.777-76.767a66.336,66.336,0,0,0-2.8-19.1" transform="translate(8.874 27.865)" fill="#404053" fill-rule="evenodd"/>
            <path id="Path_611773" data-name="Path 611773" d="M275.346,251.566H41.1v5.259H269.827a5.657,5.657,0,0,0,3.9-1.54,5.133,5.133,0,0,0,1.616-3.718Z" transform="translate(9.38 42.912)" fill="#676785" fill-rule="evenodd"/>
            <path id="Path_611774" data-name="Path 611774" d="M247.47,251.566H163.258v5.259h78.693a5.394,5.394,0,0,0,5.518-5.258Z" transform="translate(37.256 42.912)" fill="#8d8da7" fill-rule="evenodd"/>
            <rect id="Rectangle_378467" data-name="Rectangle 378467" width="11.392" height="2.308" transform="translate(224.456 296.259)" fill="#2b2b37"/>
            <rect id="Rectangle_378468" data-name="Rectangle 378468" width="11.392" height="2.308" transform="translate(165.292 296.042)" fill="#2b2b37"/>
            <path id="Path_611775" data-name="Path 611775" d="M147.255,252.9a1.156,1.156,0,1,1-1.211,1.154,1.184,1.184,0,0,1,1.211-1.154" transform="translate(33.328 43.14)" fill="#2b2b37" fill-rule="evenodd"/>
            <path id="Path_611776" data-name="Path 611776" d="M152.286,252.9a1.156,1.156,0,1,1-1.211,1.154,1.184,1.184,0,0,1,1.211-1.154" transform="translate(34.476 43.14)" fill="#2b2b37" fill-rule="evenodd"/>
            <rect id="Rectangle_378469" data-name="Rectangle 378469" width="11.392" height="2.308" transform="translate(243.52 296.259)" fill="#2b2b37"/>
            <rect id="Rectangle_378470" data-name="Rectangle 378470" width="524.472" height="10.258" transform="translate(-24.832 298.627)" fill="#ffaa53"/>
            <path id="Path_611810" data-name="Path 611810" d="M-21,0H500.674V5.129H-21Z" transform="translate(-1.034 303.755)" fill="#ed9e4d"/>
            <path id="Path_611777" data-name="Path 611777" d="M84.6,200.47a5.988,5.988,0,0,1,5.909,5.223,4.745,4.745,0,0,1-4.9,5.223,5.988,5.988,0,0,1-5.909-5.223,4.744,4.744,0,0,1,4.9-5.223m-.106-1.085a5.737,5.737,0,0,0-5.932,6.308A7.241,7.241,0,0,0,85.712,212a5.737,5.737,0,0,0,5.932-6.308,7.242,7.242,0,0,0-7.153-6.308" transform="translate(17.921 34.011)" fill="#dcdab7" fill-rule="evenodd"/>
            <path id="Path_611778" data-name="Path 611778" d="M403.139,237.312a3.9,3.9,0,0,0-1.226-2.82,4.29,4.29,0,0,0-2.96-1.167H313.631a3.858,3.858,0,0,0-2.655,1.048,3.5,3.5,0,0,0-1.1,2.531v1.453a7.46,7.46,0,0,0,7.633,7.275h77.995a7.461,7.461,0,0,0,7.633-7.275Z" transform="translate(70.715 39.801)" fill="#404053" fill-rule="evenodd"/>
          </g>
        </g>
        <g id="Group_1073967" data-name="Group 1073967" transform="translate(380.593 273.124)">
          <g id="Group_1073966" data-name="Group 1073966" clip-path="url(#clip-path-13)">
            <path id="Path_611779" data-name="Path 611779" d="M413.618,235.717a3.894,3.894,0,0,0-1.226-2.82,4.29,4.29,0,0,0-2.96-1.167H324.11a3.854,3.854,0,0,0-2.655,1.048,3.5,3.5,0,0,0-1.1,2.531V240.5a7.1,7.1,0,0,0,2.234,5.145,7.836,7.836,0,0,0,5.4,2.13h77.995a7.83,7.83,0,0,0,5.4-2.13,7.105,7.105,0,0,0,2.237-5.145Z" transform="translate(-307.487 -233.596)" fill="#48485d" fill-rule="evenodd"/>
          </g>
        </g>
        <g id="Group_1073969" data-name="Group 1073969">
          <g id="Group_1073968" data-name="Group 1073968" clip-path="url(#clip-path-2)">
            <path id="Path_611781" data-name="Path 611781" d="M321.69,133.108l-14.72,8.07a4.322,4.322,0,0,1-1.653.509l-11.437,1.124.19,1,11.712-.954a4.3,4.3,0,0,0,1.446-.375l16.241-7.409c.972-.851-.916-2.39-1.778-1.962" transform="translate(67.065 22.693)" fill="#595973" fill-rule="evenodd"/>
            <path id="Path_611782" data-name="Path 611782" d="M297.3,141.584a.846.846,0,0,0-.265-.61.933.933,0,0,0-.639-.252h-2.07a.927.927,0,0,0-.639.252.841.841,0,0,0-.265.61v.29a.837.837,0,0,0,.265.61.921.921,0,0,0,.639.252h2.07a.928.928,0,0,0,.639-.252.842.842,0,0,0,.265-.61Z" transform="translate(66.96 24.004)" fill="#404053" fill-rule="evenodd"/>
            <path id="Path_611783" data-name="Path 611783" d="M264.153,88.924l11.759,13.946.23-13.986a8,8,0,0,0,7.388-7.809V64.57a8.049,8.049,0,0,0-8.237-7.849h-80.78a8.049,8.049,0,0,0-8.237,7.849v16.5a8.049,8.049,0,0,0,8.237,7.849Z" transform="translate(65.941 39.334)" fill="#445866" fill-rule="evenodd"/>
            <path id="Path_611784" data-name="Path 611784" d="M212.771,71.616a3.278,3.278,0,1,1-3.435,3.275,3.36,3.36,0,0,1,3.435-3.275" transform="translate(64.593 37.805)" fill="#fff" fill-rule="evenodd"/>
            <path id="Path_611785" data-name="Path 611785" d="M237.71,71.616a3.278,3.278,0,1,1-3.438,3.275,3.359,3.359,0,0,1,3.438-3.275" transform="translate(63.135 37.805)" fill="#fff" fill-rule="evenodd"/>
            <path id="Path_611786" data-name="Path 611786" d="M262.647,71.616a3.278,3.278,0,1,1-3.437,3.275,3.359,3.359,0,0,1,3.437-3.275" transform="translate(61.677 37.805)" fill="#fff" fill-rule="evenodd"/>
            <path id="Path_611787" data-name="Path 611787" d="M117.979,145.713,105.242,160.82l-.249-15.151a8.669,8.669,0,0,1-8-8.458V119.333a8.72,8.72,0,0,1,8.921-8.5h87.5a8.721,8.721,0,0,1,8.922,8.5v17.878a8.721,8.721,0,0,1-8.922,8.5Z" transform="translate(22.134 27.134)" fill="#fff8e7" fill-rule="evenodd"/>
            <path id="Path_611788" data-name="Path 611788" d="M118.706,123.1a3.976,3.976,0,1,1-4.166,3.971,4.074,4.074,0,0,1,4.166-3.971" transform="translate(24.62 28.216)" fill="#5e5a55" fill-rule="evenodd"/>
            <path id="Path_611789" data-name="Path 611789" d="M143.643,123.1a3.976,3.976,0,1,1-4.166,3.971,4.074,4.074,0,0,1,4.166-3.971" transform="translate(28.154 28.216)" fill="#5e5a55" fill-rule="evenodd"/>
            <path id="Path_611790" data-name="Path 611790" d="M168.581,123.1a3.976,3.976,0,1,1-4.166,3.971,4.074,4.074,0,0,1,4.166-3.971" transform="translate(31.687 28.216)" fill="#5e5a55" fill-rule="evenodd"/>
            <rect id="Rectangle_378479" data-name="Rectangle 378479" width="51.526" height="48.818" rx="7.569" transform="translate(279.711 144.135)" fill="#48485d"/>
            <path id="Path_611791" data-name="Path 611791" d="M368.95,57.918a12.123,12.123,0,0,0-3.811-8.77,13.354,13.354,0,0,0-9.2-3.633h-32.9a13.347,13.347,0,0,0-9.2,3.633,12.116,12.116,0,0,0-3.814,8.77v18.41a12.115,12.115,0,0,0,3.814,8.771,13.351,13.351,0,0,0,9.2,3.632h32.9a13.358,13.358,0,0,0,9.2-3.632,12.122,12.122,0,0,0,3.811-8.771Z" transform="translate(127.746 63.993)" fill="#615842" fill-rule="evenodd"/>
            <path id="Path_611794" data-name="Path 611794" d="M262.75,129.914a3.878,3.878,0,0,1,0,7.08c-5.283,2.516-12.283,5.853-17.213,8.2a4.33,4.33,0,0,1-4.04-.173,3.921,3.921,0,0,1-1.97-3.367v-16.4a3.92,3.92,0,0,1,1.97-3.367,4.33,4.33,0,0,1,4.04-.173l17.213,8.2" transform="translate(54.661 34.433)" fill="#fff" fill-rule="evenodd"/>
            <path id="Path_611795" data-name="Path 611795" d="M327.16,63.392a8.459,8.459,0,0,1-.71-3.4,9.3,9.3,0,0,1,18.574,0,8.458,8.458,0,0,1-.71,3.4c-.08.184-.167.364-.259.542l-4.03,8.4h-8.578l-4.027-8.4c-.095-.178-.181-.358-.26-.542" transform="translate(131.495 64.953)" fill="#fff" fill-rule="evenodd"/>
            <path id="Path_611796" data-name="Path 611796" d="M339.043,70.586a.876.876,0,0,0-.273-.632.963.963,0,0,0-.666-.262h-6.631a.957.957,0,0,0-.663.262.864.864,0,0,0,0,1.264.957.957,0,0,0,.663.262H338.1a.963.963,0,0,0,.666-.262.88.88,0,0,0,.273-.632" transform="translate(132.427 68.118)" fill="#fff" fill-rule="evenodd"/>
            <path id="Path_611797" data-name="Path 611797" d="M339.043,72.542a.876.876,0,0,0-.273-.632.962.962,0,0,0-.666-.262h-6.631a.957.957,0,0,0-.663.262.864.864,0,0,0,0,1.264.957.957,0,0,0,.663.262H338.1a.962.962,0,0,0,.666-.262.88.88,0,0,0,.273-.632" transform="translate(132.427 68.451)" fill="#fff" fill-rule="evenodd"/>
            <path id="Path_611798" data-name="Path 611798" d="M339.043,74.664a.876.876,0,0,0-.273-.632.962.962,0,0,0-.666-.262h-6.631a.957.957,0,0,0-.663.262.864.864,0,0,0,0,1.264.957.957,0,0,0,.663.262H338.1a.962.962,0,0,0,.666-.262.88.88,0,0,0,.273-.632" transform="translate(132.427 68.813)" fill="#fff" fill-rule="evenodd"/>
            <path id="Path_611799" data-name="Path 611799" d="M336.29,76.36a.627.627,0,0,0-.2-.448.685.685,0,0,0-.47-.186h-2.763a.68.68,0,0,0-.47.186.612.612,0,0,0,0,.9.681.681,0,0,0,.47.186h2.763a.685.685,0,0,0,.47-.186.627.627,0,0,0,.2-.448" transform="translate(132.806 69.147)" fill="#fff" fill-rule="evenodd"/>
            <path id="Path_611800" data-name="Path 611800" d="M93.387,243.588H16.827v12.923h76.56c-3.588-4.06-3.477-8.376,0-12.923" transform="translate(3.84 41.551)" fill="#f8f3d6" fill-rule="evenodd"/>
            <path id="Path_611801" data-name="Path 611801" d="M87.523,244.5H43.764c-1.69,4.2-1.62,7.885,0,11.129h43.76c-2.627-3.39-2.711-7.089,0-11.129" transform="translate(9.704 41.707)" fill="#fcfbeb" fill-rule="evenodd"/>
            <rect id="Rectangle_378480" data-name="Rectangle 378480" width="76.559" height="12.923" transform="translate(19.377 271.158)" fill="#f8f3d6"/>
            <path id="Path_611802" data-name="Path 611802" d="M94.906,243.286H18.11c-.409,0-1.533.776-1.988,3.257-.528,2.878-.319,7.62.389,9.3.311.736.716,1.426,1.6,1.426h76.8v-1.426H18.112a15.207,15.207,0,0,1,0-11.13H94.906Z" transform="translate(3.612 41.5)" fill="#9c9893" fill-rule="evenodd"/>
          </g>
        </g>
        <g id="Group_1073971" data-name="Group 1073971" transform="translate(19.438 284.786)">
          <g id="Group_1073970" data-name="Group 1073970" clip-path="url(#clip-path-15)">
            <rect id="Rectangle_378482" data-name="Rectangle 378482" width="37.606" height="15.39" transform="translate(-1.941 -0.705)" fill="#7b7771"/>
          </g>
        </g>
        <g id="Group_1073973" data-name="Group 1073973">
          <g id="Group_1073972" data-name="Group 1073972" clip-path="url(#clip-path-2)">
            <path id="Path_611804" data-name="Path 611804" d="M93.728,231.342h-76.8a1.52,1.52,0,0,0-1.6,1.426V243.9a1.521,1.521,0,0,0,1.6,1.426h76.8V243.9H16.933v-11.13H93.728Z" transform="translate(3.499 39.462)" fill="#ff8767" fill-rule="evenodd"/>
            <path id="Path_611805" data-name="Path 611805" d="M65.63,232.093l-49.949.048a13.476,13.476,0,0,0,.119,12.35H65.63c-2.865-3.808-2.928-7.933,0-12.4" transform="translate(3.251 39.59)" fill="#ff8767" fill-rule="evenodd"/>
            <path id="Path_611806" data-name="Path 611806" d="M262.133,241.176a21.893,21.893,0,0,1,6.68-2.428c2.533-.375,5.044.082,6.506,2.288a8.769,8.769,0,0,1-.05,9.6,7.6,7.6,0,0,1-4.929,3.513,22.322,22.322,0,0,1-8.441-.214,1.083,1.083,0,0,1-.782-1.313c.146-.578,1.815-2.112,2.395-1.965a8.2,8.2,0,0,0,6.451,1.364,5.437,5.437,0,0,0,3.489-2.549,6.61,6.61,0,0,0,.071-7.234c-.975-1.47-2.706-1.6-4.392-1.346a6.972,6.972,0,0,0-4.5,2.75c-.516.3-2.587-.467-2.886-.983a1.085,1.085,0,0,1,.391-1.477" transform="translate(59.58 40.706)" fill="#414154" fill-rule="evenodd"/>
            <path id="Path_611807" data-name="Path 611807" d="M263.423,258.355a3.936,3.936,0,0,0,2.922-1.277,20.951,20.951,0,0,0,4.935-13.83,22.6,22.6,0,0,0-.893-6.341H241.809a22.594,22.594,0,0,0-.9,6.341,20.846,20.846,0,0,0,4.947,13.82,3.919,3.919,0,0,0,2.91,1.272c3.408.015,11.243.015,14.652.015" transform="translate(54.978 40.412)" fill="#48485d" fill-rule="evenodd"/>
          </g>
        </g>
        <g id="Group_1073975" data-name="Group 1073975" transform="translate(295.892 277.319)">
          <g id="Group_1073974" data-name="Group 1073974" clip-path="url(#clip-path-17)">
            <path id="Path_611808" data-name="Path 611808" d="M246.649,233.3h7.12a63.455,63.455,0,0,0,1.381,28.3h-7.12a46.285,46.285,0,0,1-1.38-28.3" transform="translate(-239.965 -237.522)" fill="#53536b" fill-rule="evenodd"/>
          </g>
        </g>
      </g>
    </g>
  </g>
</svg>
