<svg xmlns="http://www.w3.org/2000/svg" xmlns:xlink="http://www.w3.org/1999/xlink" width="125" height="125" viewBox="0 0 125 125">
  <defs>
    <clipPath id="clip-path">
      <rect id="Rectangle_378664" data-name="Rectangle 378664" width="91" height="91" transform="translate(404 1177)" fill="#fff" stroke="#707070" stroke-width="1"/>
    </clipPath>
    <clipPath id="clip-path-2">
      <rect id="Rectangle_378682" data-name="Rectangle 378682" width="78.667" height="78.395" fill="#615842"/>
    </clipPath>
  </defs>
  <g id="Group_1074726" data-name="Group 1074726" transform="translate(-7657 10127.856)">
    <g id="Group_1074232" data-name="Group 1074232" transform="translate(7271 -12273.856)">
      <path id="Path_608385" data-name="Path 608385" d="M62.5,0A62.5,62.5,0,1,1,0,62.5,62.5,62.5,0,0,1,62.5,0Z" transform="translate(386 2146)" fill="#fff"/>
    </g>
    <g id="Mask_Group_154400" data-name="Mask Group 154400" transform="translate(7270 -11287)" clip-path="url(#clip-path)">
      <g id="Group_1074258" data-name="Group 1074258" transform="translate(410 1183)">
        <g id="Group_1074257" data-name="Group 1074257" clip-path="url(#clip-path-2)">
          <path id="Path_612456" data-name="Path 612456" d="M64.834,64.075A3.565,3.565,0,0,0,67,60.784c-.037-2.656,0-5.313,0-7.97a1.179,1.179,0,0,1,.653-1.154,1.132,1.132,0,0,1,1.6.806,2.309,2.309,0,0,1,.057.556c0,2.54.032,5.08,0,7.62a5.919,5.919,0,0,1-4.2,5.731c-.238.073-.269.206-.268.412.011,2.306.037,4.612.011,6.917a7.591,7.591,0,0,1-.266,2.075A3.477,3.477,0,0,1,61.645,78.3a6.933,6.933,0,0,1-1.188.077q-14.5.006-29,0A3.809,3.809,0,0,1,27.4,74.49c-.01-2.469-.019-4.939-.012-7.409,0-.331-.079-.438-.424-.438q-6.477,0-12.954-.026c-.068,0-.135.013-.234.023v.391q0,4.2,0,8.392a2.671,2.671,0,0,1-2.583,2.922,17.137,17.137,0,0,1-3.151-.051A2.481,2.481,0,0,1,5.89,75.9c.021-2.621,0-5.243-.008-7.865,0-.351-.032-.7-.008-1.052.021-.306-.114-.364-.381-.384A5.771,5.771,0,0,1,1.1,64.11a5.954,5.954,0,0,1-1.08-3.6C0,53.917-.016,47.328.023,40.738A5.88,5.88,0,0,1,4.157,35.1a6.543,6.543,0,0,1,2.176-.266c.1,0,.206-.009.4-.019,0-.473-.026-.938,0-1.4a8.553,8.553,0,0,1,5.957-7.538c1.262-.375,2.574-.582,3.862-.87,1.23-.274,2.457-.56,3.688-.826.22-.048.3-.143.275-.355a.53.53,0,0,1,0-.07,3.692,3.692,0,0,0-.046-1.353c-.16-.367-.626-.6-.955-.9a8.162,8.162,0,0,1-2.525-3.847c-.093-.323-.114-.667-.2-.993a.63.63,0,0,0-.24-.371,3.224,3.224,0,0,1-1.813-3.019c.01-2-.09-4.009.043-6A7.434,7.434,0,0,1,19.616.587,7.834,7.834,0,0,1,22.732,0c.994,0,1.989-.009,2.983,0a5.94,5.94,0,0,1,3.759,1.12,3.274,3.274,0,0,0,1.819.549A5.043,5.043,0,0,1,36,6.6c.071,2.3.042,4.611.018,6.916a3.081,3.081,0,0,1-1.772,2.75.476.476,0,0,0-.234.291,7.226,7.226,0,0,1-1.339,3.386,10.068,10.068,0,0,1-2.136,2.167.549.549,0,0,0-.185.363c-.022.444.008.89-.014,1.334a.338.338,0,0,0,.308.411c.844.182,1.692.354,2.528.568A53.156,53.156,0,0,1,39,26.185a.516.516,0,0,0,.418-.036,7.077,7.077,0,0,1,3.972-1.316c1.318-.057,2.643-.011,3.963.041a3.554,3.554,0,0,1,1.909.631,5.527,5.527,0,0,0,2.546.9,4.339,4.339,0,0,1,3.6,2.909,5.482,5.482,0,0,1,.341,1.774c.054,1.133.032,2.27.015,3.405,0,.29.087.353.356.352,2.435-.008,4.869-.023,7.3,0a5.737,5.737,0,0,1,4.859,2.606,5.861,5.861,0,0,1,1.025,3.34c.037,2.387.018,4.775.018,7.163A1.163,1.163,0,1,1,67,48.037c-.033-.924-.026-1.849-.026-2.773q0-2.4.01-4.811a3.458,3.458,0,0,0-3.19-3.334c-2.654-.062-5.31-.016-7.97-.016-.088.63-.144,1.234-.26,1.825a9.945,9.945,0,0,1-4.07,6.369A1.017,1.017,0,0,0,51,46.308c.044.652.021,1.31.008,1.964,0,.234.059.3.3.343.826.154,1.641.362,2.461.546,1.652.371,3.328.66,4.951,1.128a8.227,8.227,0,0,1,5.332,4.733,10.379,10.379,0,0,1,.8,4.241c.024,1.451-.014,2.9-.024,4.353,0,.138,0,.276,0,.457M30.126,26.4c-.111.252-.216.522-.345.781a4.887,4.887,0,0,1-7.453,1.668,4.666,4.666,0,0,1-1.548-2.168c-.051-.148-.054-.365-.337-.289q-.962.257-1.935.476-2.052.457-4.109.892a6.912,6.912,0,0,0-2.892,1.189,6.222,6.222,0,0,0-2.481,5.891c1.138,0,2.259,0,3.38,0a1.1,1.1,0,0,1,1.052.773,1.035,1.035,0,0,1-.406,1.237,1.963,1.963,0,0,1-.919.25c-2.071.017-4.143.005-6.214,0a3.508,3.508,0,0,0-2.436.912A3.808,3.808,0,0,0,2.264,41q-.017,9.621,0,19.242a6.7,6.7,0,0,0,.2,1.553,3.5,3.5,0,0,0,3.569,2.581c.35-.024.7-.036,1.052-.036q9.9,0,19.8,0c.5,0,.493,0,.494-.485,0-1.826-.024-3.652.024-5.477a8.5,8.5,0,0,1,1.563-4.832,8.748,8.748,0,0,1,5.667-3.566c2.186-.428,4.354-.943,6.532-1.42.01-.018.03-.039.03-.059.006-.888.017-1.777.006-2.666a.49.49,0,0,0-.2-.295c-.316-.26-.663-.484-.968-.755A10.12,10.12,0,0,1,36.463,37.4c-.008-.2-.055-.3-.28-.288-.327.017-.655,0-.983,0q-8.145,0-16.291,0c-.655,0-1.313.015-1.965-.033a1.129,1.129,0,0,1,.175-2.251q9.427.01,18.854,0h.47c.008-.154.019-.268.02-.382.006-.843.015-1.685.012-2.528a6.2,6.2,0,0,1,.351-2.344c.2-.5.45-.991.709-1.553L30.126,26.4M46.1,76.136v.005q7.389,0,14.779,0a1.466,1.466,0,0,0,1.647-1.58c.016-1.6.072-3.211-.032-4.808a7.2,7.2,0,0,0-4.428-6.4,9.123,9.123,0,0,0-4.047-.637c-5.254.032-10.508.01-15.762.014a18.481,18.481,0,0,0-2.066.058,7.411,7.411,0,0,0-6.5,7.277c0,1.509-.013,3.019,0,4.528a1.8,1.8,0,0,0,.2.834,1.523,1.523,0,0,0,1.465.71q7.372-.005,14.744,0M29.7,63.757l.154.1a2.21,2.21,0,0,1,.228-.349,9.786,9.786,0,0,1,7.18-3.091c5.838-.064,11.678-.012,17.518-.026a11.079,11.079,0,0,1,3,.48,9.377,9.377,0,0,1,4.347,2.655c.1.1.206.2.35.342a1.873,1.873,0,0,0,.048-.268c-.005-1.9.037-3.793-.032-5.686a6.192,6.192,0,0,0-4.955-5.638c-.63-.116-1.258-.247-1.884-.385-1.4-.311-2.8-.646-4.2-.94a13.116,13.116,0,0,0-2.275-.355c-1.636-.048-3.278.054-4.913-.012a14.712,14.712,0,0,0-3.953.449c-1.887.438-3.777.87-5.676,1.251a6.246,6.246,0,0,0-4.949,6.008q.011,2.457.014,4.915c0,.182,0,.365,0,.547M53.38,34.508h.039c0-1.217.008-2.434-.006-3.651A2.149,2.149,0,0,0,53.282,30a2.325,2.325,0,0,0-1.935-1.429,5.088,5.088,0,0,1-2.163-.522c-1.908-1.168-1.567-.929-3.844-.932a21.324,21.324,0,0,0-2.733.076,4.6,4.6,0,0,0-3.844,4.4c.054,2.047.011,4.1.014,6.145a3.438,3.438,0,0,0,.043.628,7.97,7.97,0,0,0,2.3,4.368,6.8,6.8,0,0,0,5.392,2.088,7.26,7.26,0,0,0,6.216-4.393,5.8,5.8,0,0,0,.669-2.9c-.05-1-.011-2.013-.011-3.019M17.047,12.121c0,.406,0,.778,0,1.15.011.778.138.922.912,1.051a.926.926,0,0,1,.878.924,7.484,7.484,0,0,0,.8,2.954,8.492,8.492,0,0,0,3.124,2.909,4.94,4.94,0,0,0,3.949.568,7.686,7.686,0,0,0,3.018-1.8,5.308,5.308,0,0,0,2.044-3.956,3.7,3.7,0,0,1,.048-.383,1.222,1.222,0,0,1,1.174-1.225.744.744,0,0,0,.724-.848c0-.339.012-.679-.008-1.017a.414.414,0,0,0-.153-.3,11.343,11.343,0,0,1-2.916-2.165,1.3,1.3,0,0,0-1.615-.251c-.26.132-.523.261-.779.4A18.672,18.672,0,0,1,22.541,12.2a14.6,14.6,0,0,1-5.494-.075m16.644-2.4c.022-.176.038-.243.038-.311,0-1.053-.005-2.106-.014-3.16a1.136,1.136,0,0,0-.066-.342A2.855,2.855,0,0,0,30.973,3.89a4.944,4.944,0,0,1-2.811-.951,3.761,3.761,0,0,0-2.238-.684c-1.1,0-2.2-.012-3.3.015a5.641,5.641,0,0,0-3.306.991A5.027,5.027,0,0,0,17.072,7.3c-.02.678,0,1.357-.028,2.035-.011.318.111.448.42.523a11.1,11.1,0,0,0,4.9.085A19.025,19.025,0,0,0,27.8,7.84a3.671,3.671,0,0,1,4.532.648c.42.4.862.782,1.36,1.232M8.142,66.645v8c0,.351-.005.7,0,1.052.006.3.165.438.469.434.619-.008,1.239,0,1.858,0,1.022,0,1.037-.008,1.037-1.056q0-3.174-.009-6.347c0-.685,0-1.369,0-2.084ZM22.764,23.589c0,.547,0,1.014,0,1.481a2.542,2.542,0,0,0,2.179,2.571,2.641,2.641,0,0,0,2.882-1.561,7.172,7.172,0,0,0,.2-2.494,6.726,6.726,0,0,1-5.266,0M43.576,46.73V48.3h5.111V46.75a9.288,9.288,0,0,1-5.111-.019" transform="translate(0 0)" fill="#615842"/>
          <path id="Path_612457" data-name="Path 612457" d="M196.836.084c3.16,0,6.319-.006,9.478,0a3.715,3.715,0,0,1,3.72,2.3,4.238,4.238,0,0,1,.326,1.6c.03,3.195.018,6.39.014,9.585a3.769,3.769,0,0,1-3.923,3.909c-.761,0-1.523.032-2.282-.01a1.535,1.535,0,0,0-1.371.624c-.6.751-1.182,1.511-1.765,2.272-.74.966-1.472,1.938-2.209,2.905a1.848,1.848,0,0,1-1.839.852,1.812,1.812,0,0,1-1.566-1.764c-.034-1.076-.024-2.153-.022-3.229a1.421,1.421,0,0,0-.685-1.463,1.551,1.551,0,0,0-.66-.18c-2.282-.012-4.564-.006-6.845-.006a3.789,3.789,0,0,1-3.764-3.1,2.612,2.612,0,0,1-.033-.488c0-3.3.052-6.6-.021-9.9a3.88,3.88,0,0,1,3.9-3.914c2.539.015,5.078,0,7.618,0h1.931ZM197.718,21c.092-.111.137-.161.177-.214q1.547-2.02,3.093-4.04a3.675,3.675,0,0,1,3.089-1.513c.772,0,1.544-.011,2.316-.01a1.536,1.536,0,0,0,1.733-1.727q0-4.581,0-9.163a3.782,3.782,0,0,0-.066-.731,1.444,1.444,0,0,0-1.339-1.231,6.039,6.039,0,0,0-.735-.042q-9.109,0-18.218,0a5.2,5.2,0,0,0-.838.062A1.385,1.385,0,0,0,185.673,3.8c-.008.14-.005.281-.005.421q.008,4.3.018,8.6c0,.362-.006.727.028,1.087a1.358,1.358,0,0,0,1.21,1.258,5.8,5.8,0,0,0,.8.052c2.153.008,4.306-.006,6.459.019a3.609,3.609,0,0,1,3.465,3.217c.057.662.025,1.331.037,2,0,.159.017.318.029.548" transform="translate(-131.713 -0.059)" fill="#615842"/>
        </g>
      </g>
    </g>
  </g>
</svg>
