<svg xmlns="http://www.w3.org/2000/svg" xmlns:xlink="http://www.w3.org/1999/xlink" width="125" height="125" viewBox="0 0 125 125">
  <defs>
    <clipPath id="clip-path">
      <rect id="Rectangle_378679" data-name="Rectangle 378679" width="91" height="91" transform="translate(404 1177)" fill="#fff" stroke="#707070" stroke-width="1"/>
    </clipPath>
    <clipPath id="clip-path-2">
      <rect id="Rectangle_378681" data-name="Rectangle 378681" width="78.418" height="87.667" fill="#5e5a55"/>
    </clipPath>
  </defs>
  <g id="Group_1074723" data-name="Group 1074723" transform="translate(-6953 9703.856)">
    <g id="Group_1074250" data-name="Group 1074250" transform="translate(6567 -11849.856)">
      <path id="Path_608385" data-name="Path 608385" d="M62.5,0A62.5,62.5,0,1,1,0,62.5,62.5,62.5,0,0,1,62.5,0Z" transform="translate(386 2146)" fill="#fff"/>
    </g>
    <g id="Mask_Group_154408" data-name="Mask Group 154408" transform="translate(6566 -10863)" clip-path="url(#clip-path)">
      <g id="Group_1074256" data-name="Group 1074256" transform="translate(410 1179)">
        <g id="Group_1074255" data-name="Group 1074255" clip-path="url(#clip-path-2)">
          <path id="Path_612455" data-name="Path 612455" d="M47.008,60.616l-2.284,2.419a5.465,5.465,0,0,0,.489.46,2.426,2.426,0,0,1,.99,2.251c-.07,1.227-.014,2.462-.005,3.693a1.274,1.274,0,0,1-.528,1.124,1.143,1.143,0,0,1-1.258.137,1.387,1.387,0,0,1-.807-1.216c-.02-.509,0-1.019,0-1.518-1.471.1-2.922.279-4.372.28s-2.918-.173-4.431-.274c0,.466.021,1-.006,1.528a1.368,1.368,0,0,1-.818,1.2,1.2,1.2,0,0,1-1.356-.192,1.1,1.1,0,0,1-.417-.893c0-1.533-.017-3.066.036-4.6a2.02,2.02,0,0,1,.447-1.006,5.513,5.513,0,0,1,.844-.818c.146-.13.185-.23.031-.384-.71-.715-1.413-1.436-2.1-2.137-.782.753-1.548,1.441-2.252,2.189a1.951,1.951,0,0,0-.364,1.416c.012,1.336.027,2.672.036,4.008a5.425,5.425,0,0,1-.039.7,1.191,1.191,0,0,1-1.174,1.136,1.217,1.217,0,0,1-1.273-1.138c-.063-.689-.055-1.385-.073-2.078-.008-.283,0-.567,0-.919l-2.5,1.434c-.828.476-1.666.935-2.481,1.433a6.871,6.871,0,0,1-4.76.887,5.977,5.977,0,0,1-2.992-1.394.542.542,0,0,0-.81-.043,7.279,7.279,0,0,1-3.527,1.438,8.025,8.025,0,0,1-6.96-2.442A7.624,7.624,0,0,1,0,61.784a8.029,8.029,0,0,1,4.768-7.406c.139-.066.279-.13.369-.172a6.758,6.758,0,0,1,2.181-6.6,6.629,6.629,0,0,1,1.253-.873c1.582-.922,3.177-1.823,4.767-2.732.044-.025.084-.056.188-.126-.183-.129-.326-.248-.486-.34-1.473-.851-2.943-1.707-4.424-2.544a6.778,6.778,0,0,1-3.141-3.54,5.443,5.443,0,0,1-.346-3.714c.112-.34-.155-.34-.319-.416a8.053,8.053,0,0,1,0-14.717,7.963,7.963,0,0,1,4.555-.642,8.228,8.228,0,0,1,3.517,1.475.4.4,0,0,0,.578-.015,6.766,6.766,0,0,1,5.506-1.5,7.976,7.976,0,0,1,2.888,1.181c1.465.861,2.944,1.7,4.48,2.58.014-.167.033-.3.033-.426.008-2.015-.13-4.044.053-6.043a6.553,6.553,0,0,1,4.417-5.788c.262-.1.26-.239.242-.443A8.327,8.327,0,0,1,36.588.439,8.126,8.126,0,0,1,47.06,6.174a6.311,6.311,0,0,1,.233,2.831c-.067.316.154.379.362.458a6.649,6.649,0,0,1,3.7,3.445,6.125,6.125,0,0,1,.662,2.606c.023,1.886,0,3.772,0,5.658,0,.152,0,.3,0,.55l1.893-1.083c1.169-.669,2.31-1.395,3.514-2a6.587,6.587,0,0,1,7.4.7.571.571,0,0,0,.809.015,7.934,7.934,0,0,1,5.652-1.433,7.545,7.545,0,0,1,3.548,1.384,1.219,1.219,0,0,1,.417,1.68,1.235,1.235,0,0,1-1.815.367,5.632,5.632,0,0,0-3.109-.945.5.5,0,0,0-.5.293,5.539,5.539,0,0,0,3.809,8.161,3.264,3.264,0,0,0,.469.039c1.091.046.9.191,1.312-.855a10.053,10.053,0,0,0,.405-2.019,5.329,5.329,0,0,0,.008-.628,1.228,1.228,0,0,1,.958-1.188,1.143,1.143,0,0,1,1.436.725,3.356,3.356,0,0,1,.18,1.377,8.2,8.2,0,0,1-3.073,5.926,23.824,23.824,0,0,1-2.1,1.334c.013.054.051.2.081.348a6.4,6.4,0,0,1-1.2,5,7.5,7.5,0,0,1-2.644,2.238c-1.467.834-2.928,1.68-4.39,2.522-.044.025-.084.057-.182.125a2.93,2.93,0,0,0,.328.26c1.563.9,3.134,1.794,4.693,2.7a7.043,7.043,0,0,1,3.526,5.707,4.238,4.238,0,0,1-.18,1.391c-.061.251-.026.345.2.443A8.048,8.048,0,0,1,74.327,68.7a8.034,8.034,0,0,1-5.134,1.054,7.789,7.789,0,0,1-3.507-1.394.661.661,0,0,0-.948.032A6.5,6.5,0,0,1,60.8,69.82a7.187,7.187,0,0,1-3.876-1.046q-2.311-1.335-4.625-2.663c-.065-.037-.133-.068-.273-.138,0,.242,0,.43,0,.619,0,1.9.107,3.806-.03,5.7a6.582,6.582,0,0,1-4.23,5.885.559.559,0,0,0-.419.677,8.3,8.3,0,0,1-6.9,8.725,8.131,8.131,0,0,1-8.812-5.132,8.05,8.05,0,0,1-.573-3.846.423.423,0,0,0-.229-.313,7.315,7.315,0,0,1-3.342-2.7,1.354,1.354,0,0,1,.2-1.837,1.338,1.338,0,0,1,1.825.388,5.057,5.057,0,0,0,1.937,1.679c.439.209.488.172.74-.234a8.116,8.116,0,0,1,14.015.024c.223.353.417.384.754.214a4.293,4.293,0,0,0,2.53-3.825c.051-.953,0-1.911.009-2.866.011-1.6.022-3.2.049-4.794a2.445,2.445,0,0,0-.806-2c-.583-.523-1.117-1.1-1.735-1.717M14.725,41.622c.09-.495.19-.961.257-1.431A23.456,23.456,0,0,1,17.777,32a2.665,2.665,0,0,1,.564-.693,1.106,1.106,0,0,1,1.345-.017,1.151,1.151,0,0,1,.5,1.454c-.162.357-.347.7-.528,1.052a21.794,21.794,0,0,0-2.29,7.458c-.1.839-.085.81.664.995q2.7.665,5.388,1.388a6.31,6.31,0,0,1,1.295.54,4.1,4.1,0,0,1,1.956,4.106,4.3,4.3,0,0,1-3.36,3.525,5.555,5.555,0,0,1-2.589-.278c-.746-.211-1.5-.41-2.261-.618.059,2.551,5.779,10.042,8.347,10.992a4.229,4.229,0,0,1,.425-.606c1.467-1.477,2.911-2.98,4.432-4.4a3.525,3.525,0,0,1,3.024-.923,4.114,4.114,0,0,1,3.434,2.716,3.957,3.957,0,0,1-.86,4.27c-.637.677-1.313,1.316-1.969,1.976-.092.093-.166.2-.316.391a22.839,22.839,0,0,0,8.453,0c-.155-.176-.244-.284-.34-.385a31.126,31.126,0,0,1-2.267-2.391,3.81,3.81,0,0,1-.358-4.245.975.975,0,0,0-.007-.9c-.457-1.013-.9-2.032-1.345-3.051-.706-1.617-1.4-3.242-2.125-4.85a1.469,1.469,0,0,0-.589-.678c-.625-.322-1.295-.559-1.946-.831q-4.994-2.087-9.988-4.175a2.466,2.466,0,0,1-1.421-3.49c.736-1.618,1.388-3.274,2.081-4.911q.825-1.95,1.663-3.9A2.288,2.288,0,0,1,28.667,30.1a3.094,3.094,0,0,1,1.667.355c3.533,1.48,7.074,2.944,10.588,4.466a1.884,1.884,0,0,0,1.754-.012c1.294-.625,2.63-1.164,3.954-1.726.287-.122.408-.248.273-.582a3.237,3.237,0,0,1-.092-2.083,61.242,61.242,0,0,1,1.849-6.441A.673.673,0,0,0,48.548,24a21.1,21.1,0,0,0-6.766-1.908,22.889,22.889,0,0,0-7.3.34A21.429,21.429,0,0,0,25.8,26.469c-.8.628-1.541,1.338-2.307,2.014a1.249,1.249,0,0,1-2.049-.423,1.123,1.123,0,0,1,.353-1.379c.846-.781,1.723-1.528,2.59-2.285.192-.168.4-.322.615-.5a2.637,2.637,0,0,0-.288-.233c-1.715-.98-3.391-2.042-5.163-2.905a4.085,4.085,0,0,0-4.089.293c-.608.378-.6.387-.263,1.02a7.554,7.554,0,0,1,.386,6.982A7.9,7.9,0,0,1,8.1,34.016c-.393.011-.572.11-.59.52a4.261,4.261,0,0,0,2.1,4.11c1.664,1.011,3.365,1.96,5.12,2.977M48.706,58.706c.587.608,1.139,1.164,1.672,1.737a9.554,9.554,0,0,1,1.009,1.2c.178.27.28.281.5.1.822-.688,1.689-1.329,2.468-2.063a21.48,21.48,0,0,0,6.357-11.358,21.927,21.927,0,0,0,.228-7.772,20.253,20.253,0,0,0-2.851-7.916c-.686-1.1-1.475-2.142-2.272-3.291-.093.227-.148.329-.178.438-.221.82-.444,1.64-.654,2.462a4.249,4.249,0,0,1-2.65,3.04c-.287.117-.579.225-.908.352.082.171.157.318.222.468,1.533,3.51,3.074,7.016,4.593,10.532a2.307,2.307,0,0,1-1.253,3.22c-.4.191-.816.35-1.224.525-.28.12-.345.28-.2.583.419.9.806,1.816,1.2,2.728a1.969,1.969,0,0,1-.032,1.67,2.707,2.707,0,0,1-1.488,1.38c-1.021.438-2.039.885-3.058,1.328l-1.478.643M19.582,48.546c.267-.947.5-1.839.775-2.721.1-.318.046-.434-.293-.506a16.138,16.138,0,0,1-2-.529,1.409,1.409,0,0,0-1.263.107c-2.4,1.383-4.832,2.724-7.208,4.153a4.229,4.229,0,0,0-2.08,4.119c.021.4.194.494.565.493a7.776,7.776,0,0,1,6,2.616,7.785,7.785,0,0,1,2.1,6.463,8.149,8.149,0,0,1-1.113,3.121c-.162.274-.123.429.141.606a4.441,4.441,0,0,0,4.926.194c1.5-.829,2.975-1.7,4.459-2.56a4.949,4.949,0,0,0,.433-.32c-.178-.141-.317-.257-.461-.366a24.6,24.6,0,0,1-6.034-6.5,20.329,20.329,0,0,1-2.3-4.662c-.076-.236-.2-.239-.382-.132-.349.206-.689.431-1.052.609a1.227,1.227,0,0,1-1.759-.575,1.123,1.123,0,0,1,.547-1.585c1.19-.712,2.392-1.4,3.595-2.092a1.512,1.512,0,0,1,1.206-.177c.412.115.841.173,1.208.245m44.052-6.907c.728-.418,1.351-.772,1.971-1.133,1.131-.658,2.292-1.269,3.381-1.991a4.2,4.2,0,0,0,1.894-4.053c-.023-.34-.168-.459-.525-.446a7.58,7.58,0,0,1-4.289-1.169,7.991,7.991,0,0,1-2.827-10.861c.3-.524.311-.543-.21-.871a4.348,4.348,0,0,0-4.69-.129c-2.3,1.277-4.56,2.619-6.842,3.925a1.817,1.817,0,0,0-.911,1.17c-.17.658-.337,1.318-.546,1.964-.1.315-.008.417.281.489.646.162,1.288.345,1.929.526.955.27.985.268,1.166-.715a1.665,1.665,0,0,1,.879-1.225c.651-.364,1.291-.746,1.939-1.115.693-.395,1.376-.811,2.089-1.167a1.169,1.169,0,0,1,1.655.7,1.23,1.23,0,0,1-.593,1.537c-.5.309-1.007.6-1.542.915a24.64,24.64,0,0,1,5.792,13.649M46.877,41.9c-.275.127-.462.219-.653.3l-7.553,3.275c-.589.256-.589.264-.345.821q2.076,4.738,4.151,9.478c.071.162.152.319.238.5a3.8,3.8,0,0,1,3.734.378.748.748,0,0,0,.581.023c1.316-.544,2.622-1.112,3.928-1.678.463-.2.919-.416,1.371-.621L46.877,41.9m6.507,21.873a2.022,2.022,0,0,0,.256.215c1.678.964,3.322,2,5.05,2.865a4.231,4.231,0,0,0,4.531-.4.358.358,0,0,0,.125-.576,8.269,8.269,0,0,1-1.108-3A7.66,7.66,0,0,1,63.9,56.771a7.8,7.8,0,0,1,6.442-3.1c.394,0,.529-.133.545-.511a4.3,4.3,0,0,0-2.122-4.139c-1.047-.643-2.123-1.242-3.188-1.856-.619-.357-1.242-.706-1.947-1.106A24.77,24.77,0,0,1,53.384,63.775m-3.9-42.107c.011-.093.025-.156.025-.219.011-1.689.031-3.379.026-5.068a8.465,8.465,0,0,0-.125-1.288,4.221,4.221,0,0,0-2.5-3.251c-.336-.165-.5-.106-.7.233a8.035,8.035,0,0,1-9.2,3.772,7.822,7.822,0,0,1-4.847-3.8c-.165-.288-.343-.357-.637-.216A4.721,4.721,0,0,0,29.8,13.162a5.234,5.234,0,0,0-.951,3.333c-.017,1.388.019,2.777.031,4.165,0,.319,0,.639,0,1a24.54,24.54,0,0,1,20.6.011M25.317,41.445l10.1,4.244c.031-.025.061-.037.069-.057a.7.7,0,0,0,.057-.186,2.435,2.435,0,0,1,1.681-2.077c.36-.152.717-.314,1.073-.476.245-.112.286-.24.155-.516-.418-.885-.8-1.79-1.168-2.7a2.189,2.189,0,0,1,.3-2.226c.229-.316.474-.619.712-.929.066.039-.01-.028-.1-.065q-4.394-1.836-8.789-3.671c-.274-.115-.41-.089-.532.2-1.175,2.807-2.361,5.609-3.563,8.455m23.138-6.377c-.325.165-.541.288-.768.387q-2.247.979-4.5,1.949c-1.032.446-2.061.9-3.1,1.337-.313.133-.412.289-.248.626.326.669.624,1.353.912,2.041.115.275.229.35.527.218,1.6-.709,3.214-1.4,4.823-2.091a2.1,2.1,0,0,1,1.818.043,2.92,2.92,0,0,1,1.4,1.622q1.336,3.1,2.687,6.187c.118.271.254.534.4.834l1.5-.656-5.459-12.5M2.552,61.7A5.509,5.509,0,0,0,8.06,67.268a.509.509,0,0,0,.526-.308A5.728,5.728,0,0,0,9.169,63.2a5.444,5.444,0,0,0-5.4-4.454.555.555,0,0,0-.56.319A5.254,5.254,0,0,0,2.552,61.7m73.28.005a5.3,5.3,0,0,0-.529-2.426.772.772,0,0,0-.882-.526,5.208,5.208,0,0,0-4.642,2.917,5.356,5.356,0,0,0,.062,5.317.575.575,0,0,0,.416.255,5.456,5.456,0,0,0,5.574-5.537M4.062,28.942a9.908,9.908,0,0,0,1.045-.154A5.545,5.545,0,0,0,8.552,20.67a.491.491,0,0,0-.517-.252A5.564,5.564,0,0,0,3.071,28.36c.287.6.287.6.991.582M39.174,8.466c.195,0,.352,0,.509,0a5.144,5.144,0,0,0,4.261-2.541.661.661,0,0,0-.034-.828,6.009,6.009,0,0,0-3.364-2.413A5.716,5.716,0,0,0,34.772,4.7c-.6.821-.607,1.02.072,1.79a5.118,5.118,0,0,0,4.33,1.98m-.053,70.755a4.127,4.127,0,0,0-2.207.393,5.278,5.278,0,0,0-2.476,2.207.76.76,0,0,0,0,.644,5.554,5.554,0,0,0,9.27.4c.511-.692.537-.793,0-1.469a5.166,5.166,0,0,0-4.583-2.173m-5.367-70.1a5.251,5.251,0,0,0,2.878,3.893,5.421,5.421,0,0,0,5.831-.425A5.353,5.353,0,0,0,44.7,9.013c-3.691,2.738-7.293,2.743-10.942.1m10.919,69.53a5.532,5.532,0,0,0-6.395-4.524c-2.259.332-4.861,2.946-4.5,4.492,3.607-2.706,7.223-2.694,10.89.032m27.415-47.5c-4.07-1.858-5.949-4.935-5.4-9.421a5.508,5.508,0,0,0,5.4,9.421M11.683,21.7c.561,4.562-1.331,7.61-5.378,9.425.611.5,3.076.421,4.237-.167a5.351,5.351,0,0,0,3.142-4.994,5.268,5.268,0,0,0-2-4.264m60.429,34.89c-.545-.509-2.887-.49-4.083.061a5.336,5.336,0,0,0-3.319,5,5.189,5.189,0,0,0,2.02,4.3,7.868,7.868,0,0,1,.927-5.639,8.222,8.222,0,0,1,4.456-3.719M6.235,56.512c4.155,1.892,6.035,4.977,5.457,9.479a5.559,5.559,0,0,0,.51-8.049A4.833,4.833,0,0,0,9.043,56.29a5.5,5.5,0,0,0-2.807.222M22.853,46.073l-.829,3.22a1.753,1.753,0,0,0,2.145-1.207,1.707,1.707,0,0,0-1.316-2.013m26.379-15.22A4.313,4.313,0,0,0,49.338,32a1.658,1.658,0,0,0,2.83.422c.4-.475.364-.677-.233-.852-.862-.253-1.738-.462-2.7-.715M33.192,58.882l2.28,2.284A1.6,1.6,0,0,0,35.414,59a1.573,1.573,0,0,0-2.222-.116m9.325,1.352c.034.134.089.375.156.612.087.307.237.336.464.109.61-.609,1.224-1.215,1.847-1.81.243-.233.162-.357-.092-.491a1.672,1.672,0,0,0-2.374,1.581" transform="translate(0 -0.001)" fill="#5e5a55"/>
        </g>
      </g>
    </g>
  </g>
</svg>
