<svg xmlns="http://www.w3.org/2000/svg" xmlns:xlink="http://www.w3.org/1999/xlink" width="288.027" height="380" viewBox="0 0 288.027 380">
  <defs>
    <clipPath id="clip-path">
      <path id="Trazado_194907" data-name="Trazado 194907" d="M0,117.31c0,35.334,29.177,63.977,65.17,63.977s65.17-28.643,65.17-63.977S101.162,53.333,65.17,53.333,0,81.977,0,117.31" transform="translate(0 -53.333)" fill="#ffe7af"/>
    </clipPath>
    <clipPath id="clip-path-2">
      <path id="Trazado_194907-2" data-name="Trazado 194907" d="M0,84.845A31.513,31.513,0,1,0,31.512,53.333,31.513,31.513,0,0,0,0,84.845" transform="translate(0 -53.333)" fill="#7f4fc7"/>
    </clipPath>
    <clipPath id="clip-path-3">
      <rect id="Rectángulo_46351" data-name="Rectángulo 46351" width="85.95" height="88.934" fill="none"/>
    </clipPath>
    <clipPath id="clip-path-4">
      <rect id="Rectangle_378442" data-name="Rectangle 378442" width="288.027" height="379.999" fill="none"/>
    </clipPath>
    <clipPath id="clip-path-5">
      <rect id="Rectangle_378435" data-name="Rectangle 378435" width="186.87" height="379.999" fill="none"/>
    </clipPath>
    <clipPath id="clip-path-6">
      <rect id="Rectangle_378780" data-name="Rectangle 378780" width="277.711" height="342.324" fill="none"/>
    </clipPath>
    <clipPath id="clip-path-8">
      <rect id="Rectangle_378768" data-name="Rectangle 378768" width="59.921" height="19.658" fill="none"/>
    </clipPath>
    <clipPath id="clip-path-9">
      <rect id="Rectangle_378769" data-name="Rectangle 378769" width="21.217" height="80.212" fill="none"/>
    </clipPath>
    <clipPath id="clip-path-10">
      <rect id="Rectangle_378770" data-name="Rectangle 378770" width="21.069" height="68.862" fill="none"/>
    </clipPath>
    <clipPath id="clip-path-11">
      <rect id="Rectangle_378771" data-name="Rectangle 378771" width="15.02" height="15.64" fill="none"/>
    </clipPath>
    <clipPath id="clip-path-12">
      <rect id="Rectangle_378774" data-name="Rectangle 378774" width="34.9" height="227.331" fill="none"/>
    </clipPath>
    <clipPath id="clip-path-13">
      <rect id="Rectangle_378776" data-name="Rectangle 378776" width="2.773" height="6.985" fill="none"/>
    </clipPath>
    <clipPath id="clip-path-14">
      <rect id="Rectangle_378777" data-name="Rectangle 378777" width="6.915" height="6.915" fill="none"/>
    </clipPath>
    <clipPath id="clip-path-15">
      <rect id="Rectangle_378778" data-name="Rectangle 378778" width="6.003" height="15.119" fill="none"/>
    </clipPath>
  </defs>
  <g id="conectada_01.375dd2a5" transform="translate(124.59 -19.365)">
    <g id="Grupo_155444" data-name="Grupo 155444" transform="translate(-56.253 22.364)">
      <g id="Grupo_155253" data-name="Grupo 155253" transform="translate(38.469 135.088)">
        <path id="Trazado_196478" data-name="Trazado 196478" d="M315.923,144.946q-.244.252-.483.509a38.835,38.835,0,0,0-10.477,28.025l16.272-.567a22.81,22.81,0,1,1,45.592-1.594l16.271-.567a39.092,39.092,0,0,0-67.176-25.8" transform="translate(-304.936 -133.025)" fill="#b4997f"/>
        <path id="Trazado_196479" data-name="Trazado 196479" d="M304.88,230.13a39.092,39.092,0,1,0,78.136-2.73l-16.272.567a22.81,22.81,0,0,1-45.592,1.594Z" transform="translate(-304.853 -189.676)" fill="#615842"/>
      </g>
      <g id="Grupo_154313" data-name="Grupo 154313" transform="translate(89.349 239.717)">
        <g id="Grupo_152768" data-name="Grupo 152768" clip-path="url(#clip-path)">
          <path id="Trazado_194826" data-name="Trazado 194826" d="M3.424,55.016a1.7,1.7,0,0,0-1.714-1.683,1.684,1.684,0,1,0,0,3.368,1.7,1.7,0,0,0,1.714-1.685" transform="translate(0.007 -53.333)" fill="#ffe7af"/>
          <path id="Trazado_194827" data-name="Trazado 194827" d="M11.7,54.99a1.716,1.716,0,1,0-1.714,1.685A1.716,1.716,0,0,0,11.7,54.99" transform="translate(7.591 -53.307)" fill="#ffe7af"/>
          <path id="Trazado_194828" data-name="Trazado 194828" d="M19.975,54.99a1.716,1.716,0,1,0-1.714,1.685,1.716,1.716,0,0,0,1.714-1.685" transform="translate(15.183 -53.307)" fill="#ffe7af"/>
          <path id="Trazado_194829" data-name="Trazado 194829" d="M28.248,54.99a1.716,1.716,0,1,0-1.714,1.685,1.716,1.716,0,0,0,1.714-1.685" transform="translate(22.774 -53.307)" fill="#ffe7af"/>
          <path id="Trazado_194830" data-name="Trazado 194830" d="M36.52,54.99a1.716,1.716,0,1,0-1.714,1.685A1.716,1.716,0,0,0,36.52,54.99" transform="translate(30.364 -53.307)" fill="#ffe7af"/>
          <path id="Trazado_194831" data-name="Trazado 194831" d="M44.789,54.99a1.716,1.716,0,1,0-1.714,1.685,1.716,1.716,0,0,0,1.714-1.685" transform="translate(37.957 -53.307)" fill="#ffe7af"/>
          <path id="Trazado_194832" data-name="Trazado 194832" d="M53.065,54.99a1.716,1.716,0,1,0-1.714,1.685,1.716,1.716,0,0,0,1.714-1.685" transform="translate(45.547 -53.307)" fill="#ffe7af"/>
          <path id="Trazado_194833" data-name="Trazado 194833" d="M61.338,54.99a1.716,1.716,0,1,0-1.714,1.685,1.716,1.716,0,0,0,1.714-1.685" transform="translate(53.138 -53.307)" fill="#ffe7af"/>
          <path id="Trazado_194834" data-name="Trazado 194834" d="M69.611,54.99A1.716,1.716,0,1,0,67.9,56.674a1.716,1.716,0,0,0,1.716-1.684" transform="translate(60.729 -53.307)" fill="#ffe7af"/>
          <path id="Trazado_194835" data-name="Trazado 194835" d="M3.444,63.289A1.7,1.7,0,0,0,1.73,61.606a1.683,1.683,0,0,0,0,3.366,1.7,1.7,0,0,0,1.714-1.683" transform="translate(-0.014 -46.032)" fill="#ffe7af"/>
          <path id="Trazado_194836" data-name="Trazado 194836" d="M11.7,63.262a1.716,1.716,0,1,0-1.714,1.683A1.716,1.716,0,0,0,11.7,63.262" transform="translate(7.591 -46.005)" fill="#ffe7af"/>
          <path id="Trazado_194837" data-name="Trazado 194837" d="M19.975,63.262a1.716,1.716,0,1,0-1.714,1.683,1.716,1.716,0,0,0,1.714-1.683" transform="translate(15.183 -46.005)" fill="#ffe7af"/>
          <path id="Trazado_194838" data-name="Trazado 194838" d="M28.248,63.262a1.716,1.716,0,1,0-1.714,1.683,1.716,1.716,0,0,0,1.714-1.683" transform="translate(22.774 -46.005)" fill="#ffe7af"/>
          <path id="Trazado_194839" data-name="Trazado 194839" d="M36.52,63.262a1.716,1.716,0,1,0-1.714,1.683,1.716,1.716,0,0,0,1.714-1.683" transform="translate(30.364 -46.005)" fill="#ffe7af"/>
          <path id="Trazado_194840" data-name="Trazado 194840" d="M44.789,63.262a1.716,1.716,0,1,0-1.714,1.683,1.716,1.716,0,0,0,1.714-1.683" transform="translate(37.957 -46.005)" fill="#ffe7af"/>
          <path id="Trazado_194841" data-name="Trazado 194841" d="M53.065,63.262a1.716,1.716,0,1,0-1.714,1.683,1.716,1.716,0,0,0,1.714-1.683" transform="translate(45.547 -46.005)" fill="#ffe7af"/>
          <path id="Trazado_194842" data-name="Trazado 194842" d="M61.338,63.262a1.716,1.716,0,1,0-1.714,1.683,1.716,1.716,0,0,0,1.714-1.683" transform="translate(53.138 -46.005)" fill="#ffe7af"/>
          <path id="Trazado_194843" data-name="Trazado 194843" d="M69.611,63.262A1.716,1.716,0,1,0,67.9,64.945a1.716,1.716,0,0,0,1.716-1.683" transform="translate(60.729 -46.005)" fill="#ffe7af"/>
          <path id="Trazado_194844" data-name="Trazado 194844" d="M3.444,71.562A1.7,1.7,0,0,0,1.73,69.879a1.683,1.683,0,1,0,0,3.366,1.7,1.7,0,0,0,1.714-1.683" transform="translate(-0.014 -38.731)" fill="#ffe7af"/>
          <path id="Trazado_194845" data-name="Trazado 194845" d="M11.7,71.535a1.716,1.716,0,1,0-1.714,1.683A1.716,1.716,0,0,0,11.7,71.535" transform="translate(7.591 -38.705)" fill="#ffe7af"/>
          <path id="Trazado_194846" data-name="Trazado 194846" d="M19.975,71.535a1.716,1.716,0,1,0-1.714,1.683,1.716,1.716,0,0,0,1.714-1.683" transform="translate(15.183 -38.705)" fill="#ffe7af"/>
          <path id="Trazado_194847" data-name="Trazado 194847" d="M28.248,71.535a1.716,1.716,0,1,0-1.714,1.683,1.716,1.716,0,0,0,1.714-1.683" transform="translate(22.774 -38.705)" fill="#ffe7af"/>
          <path id="Trazado_194848" data-name="Trazado 194848" d="M36.52,71.535a1.716,1.716,0,1,0-1.714,1.683,1.716,1.716,0,0,0,1.714-1.683" transform="translate(30.364 -38.705)" fill="#ffe7af"/>
          <path id="Trazado_194849" data-name="Trazado 194849" d="M44.789,71.535a1.716,1.716,0,1,0-1.714,1.683,1.716,1.716,0,0,0,1.714-1.683" transform="translate(37.957 -38.705)" fill="#ffe7af"/>
          <path id="Trazado_194850" data-name="Trazado 194850" d="M53.065,71.535a1.716,1.716,0,1,0-1.714,1.683,1.716,1.716,0,0,0,1.714-1.683" transform="translate(45.547 -38.705)" fill="#ffe7af"/>
          <path id="Trazado_194851" data-name="Trazado 194851" d="M61.338,71.535a1.716,1.716,0,1,0-1.714,1.683,1.716,1.716,0,0,0,1.714-1.683" transform="translate(53.138 -38.705)" fill="#ffe7af"/>
          <path id="Trazado_194852" data-name="Trazado 194852" d="M69.611,71.535A1.716,1.716,0,1,0,67.9,73.218a1.716,1.716,0,0,0,1.716-1.683" transform="translate(60.729 -38.705)" fill="#ffe7af"/>
          <path id="Trazado_194853" data-name="Trazado 194853" d="M3.444,79.834A1.7,1.7,0,0,0,1.73,78.151a1.683,1.683,0,1,0,0,3.366,1.7,1.7,0,0,0,1.714-1.683" transform="translate(-0.014 -31.431)" fill="#ffe7af"/>
          <path id="Trazado_194854" data-name="Trazado 194854" d="M11.7,79.807a1.716,1.716,0,1,0-1.714,1.682A1.716,1.716,0,0,0,11.7,79.807" transform="translate(7.591 -31.404)" fill="#ffe7af"/>
          <path id="Trazado_194855" data-name="Trazado 194855" d="M19.975,79.807a1.716,1.716,0,1,0-1.714,1.682,1.716,1.716,0,0,0,1.714-1.682" transform="translate(15.183 -31.404)" fill="#ffe7af"/>
          <path id="Trazado_194856" data-name="Trazado 194856" d="M28.248,79.807a1.716,1.716,0,1,0-1.714,1.682,1.716,1.716,0,0,0,1.714-1.682" transform="translate(22.774 -31.404)" fill="#ffe7af"/>
          <path id="Trazado_194857" data-name="Trazado 194857" d="M36.52,79.807a1.716,1.716,0,1,0-1.714,1.682,1.716,1.716,0,0,0,1.714-1.682" transform="translate(30.364 -31.404)" fill="#ffe7af"/>
          <path id="Trazado_194858" data-name="Trazado 194858" d="M44.789,79.807a1.716,1.716,0,1,0-1.711,1.682,1.716,1.716,0,0,0,1.711-1.682" transform="translate(37.957 -31.404)" fill="#ffe7af"/>
          <path id="Trazado_194859" data-name="Trazado 194859" d="M53.065,79.807a1.716,1.716,0,1,0-1.714,1.682,1.716,1.716,0,0,0,1.714-1.682" transform="translate(45.547 -31.404)" fill="#ffe7af"/>
          <path id="Trazado_194860" data-name="Trazado 194860" d="M61.338,79.807a1.716,1.716,0,1,0-1.714,1.682,1.716,1.716,0,0,0,1.714-1.682" transform="translate(53.138 -31.404)" fill="#ffe7af"/>
          <path id="Trazado_194861" data-name="Trazado 194861" d="M69.611,79.807A1.716,1.716,0,1,0,67.9,81.489a1.716,1.716,0,0,0,1.716-1.682" transform="translate(60.729 -31.404)" fill="#ffe7af"/>
          <path id="Trazado_194862" data-name="Trazado 194862" d="M3.424,88.108a1.7,1.7,0,0,0-1.714-1.683,1.684,1.684,0,1,0,0,3.368,1.7,1.7,0,0,0,1.714-1.684" transform="translate(0.007 -24.13)" fill="#ffe7af"/>
          <path id="Trazado_194863" data-name="Trazado 194863" d="M11.7,88.082a1.716,1.716,0,1,0-1.714,1.684A1.716,1.716,0,0,0,11.7,88.082" transform="translate(7.591 -24.104)" fill="#ffe7af"/>
          <path id="Trazado_194864" data-name="Trazado 194864" d="M19.975,88.082a1.716,1.716,0,1,0-1.714,1.684,1.716,1.716,0,0,0,1.714-1.684" transform="translate(15.183 -24.104)" fill="#ffe7af"/>
          <path id="Trazado_194865" data-name="Trazado 194865" d="M28.248,88.082a1.716,1.716,0,1,0-1.714,1.684,1.716,1.716,0,0,0,1.714-1.684" transform="translate(22.774 -24.104)" fill="#ffe7af"/>
          <path id="Trazado_194866" data-name="Trazado 194866" d="M36.52,88.082a1.716,1.716,0,1,0-1.714,1.684,1.716,1.716,0,0,0,1.714-1.684" transform="translate(30.364 -24.104)" fill="#ffe7af"/>
          <path id="Trazado_194867" data-name="Trazado 194867" d="M44.789,88.082a1.716,1.716,0,1,0-1.714,1.684,1.716,1.716,0,0,0,1.714-1.684" transform="translate(37.957 -24.104)" fill="#ffe7af"/>
          <path id="Trazado_194868" data-name="Trazado 194868" d="M53.065,88.082a1.716,1.716,0,1,0-1.714,1.684,1.716,1.716,0,0,0,1.714-1.684" transform="translate(45.547 -24.104)" fill="#ffe7af"/>
          <path id="Trazado_194869" data-name="Trazado 194869" d="M61.338,88.082a1.716,1.716,0,1,0-1.714,1.684,1.716,1.716,0,0,0,1.714-1.684" transform="translate(53.138 -24.104)" fill="#ffe7af"/>
          <path id="Trazado_194870" data-name="Trazado 194870" d="M69.611,88.082A1.716,1.716,0,1,0,67.9,89.765a1.716,1.716,0,0,0,1.716-1.684" transform="translate(60.729 -24.104)" fill="#ffe7af"/>
          <path id="Trazado_194871" data-name="Trazado 194871" d="M3.444,96.381A1.7,1.7,0,0,0,1.73,94.7a1.683,1.683,0,0,0,0,3.366,1.7,1.7,0,0,0,1.714-1.683" transform="translate(-0.014 -16.83)" fill="#ffe7af"/>
          <path id="Trazado_194872" data-name="Trazado 194872" d="M11.7,96.353a1.716,1.716,0,1,0-1.714,1.683A1.716,1.716,0,0,0,11.7,96.353" transform="translate(7.591 -16.802)" fill="#ffe7af"/>
          <path id="Trazado_194873" data-name="Trazado 194873" d="M19.975,96.353a1.716,1.716,0,1,0-1.714,1.683,1.716,1.716,0,0,0,1.714-1.683" transform="translate(15.183 -16.802)" fill="#ffe7af"/>
          <path id="Trazado_194874" data-name="Trazado 194874" d="M28.248,96.353a1.716,1.716,0,1,0-1.714,1.683,1.716,1.716,0,0,0,1.714-1.683" transform="translate(22.774 -16.802)" fill="#ffe7af"/>
          <path id="Trazado_194875" data-name="Trazado 194875" d="M36.52,96.353a1.716,1.716,0,1,0-1.714,1.683,1.716,1.716,0,0,0,1.714-1.683" transform="translate(30.364 -16.802)" fill="#ffe7af"/>
          <path id="Trazado_194876" data-name="Trazado 194876" d="M44.789,96.353a1.716,1.716,0,1,0-1.714,1.683,1.716,1.716,0,0,0,1.714-1.683" transform="translate(37.957 -16.802)" fill="#ffe7af"/>
          <path id="Trazado_194877" data-name="Trazado 194877" d="M53.065,96.353a1.716,1.716,0,1,0-1.714,1.683,1.716,1.716,0,0,0,1.714-1.683" transform="translate(45.547 -16.802)" fill="#ffe7af"/>
          <path id="Trazado_194878" data-name="Trazado 194878" d="M61.338,96.353a1.716,1.716,0,1,0-1.714,1.683,1.716,1.716,0,0,0,1.714-1.683" transform="translate(53.138 -16.802)" fill="#ffe7af"/>
          <path id="Trazado_194879" data-name="Trazado 194879" d="M69.611,96.353A1.716,1.716,0,1,0,67.9,98.036a1.716,1.716,0,0,0,1.716-1.683" transform="translate(60.729 -16.802)" fill="#ffe7af"/>
          <path id="Trazado_194880" data-name="Trazado 194880" d="M3.444,104.652a1.7,1.7,0,0,0-1.714-1.683,1.683,1.683,0,1,0,0,3.366,1.7,1.7,0,0,0,1.714-1.683" transform="translate(-0.014 -9.529)" fill="#ffe7af"/>
          <path id="Trazado_194881" data-name="Trazado 194881" d="M11.7,104.625a1.716,1.716,0,1,0-1.714,1.683,1.716,1.716,0,0,0,1.714-1.683" transform="translate(7.591 -9.502)" fill="#ffe7af"/>
          <path id="Trazado_194882" data-name="Trazado 194882" d="M19.975,104.625a1.716,1.716,0,1,0-1.714,1.683,1.716,1.716,0,0,0,1.714-1.683" transform="translate(15.183 -9.502)" fill="#ffe7af"/>
          <path id="Trazado_194883" data-name="Trazado 194883" d="M28.248,104.625a1.716,1.716,0,1,0-1.714,1.683,1.716,1.716,0,0,0,1.714-1.683" transform="translate(22.774 -9.502)" fill="#ffe7af"/>
          <path id="Trazado_194884" data-name="Trazado 194884" d="M36.52,104.625a1.716,1.716,0,1,0-1.714,1.683,1.716,1.716,0,0,0,1.714-1.683" transform="translate(30.364 -9.502)" fill="#ffe7af"/>
          <path id="Trazado_194885" data-name="Trazado 194885" d="M44.789,104.625a1.716,1.716,0,1,0-1.714,1.683,1.716,1.716,0,0,0,1.714-1.683" transform="translate(37.957 -9.502)" fill="#ffe7af"/>
          <path id="Trazado_194886" data-name="Trazado 194886" d="M53.065,104.625a1.716,1.716,0,1,0-1.714,1.683,1.716,1.716,0,0,0,1.714-1.683" transform="translate(45.547 -9.502)" fill="#ffe7af"/>
          <path id="Trazado_194887" data-name="Trazado 194887" d="M61.338,104.625a1.716,1.716,0,1,0-1.714,1.683,1.716,1.716,0,0,0,1.714-1.683" transform="translate(53.138 -9.502)" fill="#ffe7af"/>
          <path id="Trazado_194888" data-name="Trazado 194888" d="M69.611,104.625a1.716,1.716,0,1,0-1.714,1.683,1.716,1.716,0,0,0,1.714-1.683" transform="translate(60.729 -9.502)" fill="#ffe7af"/>
          <path id="Trazado_194889" data-name="Trazado 194889" d="M3.444,112.925a1.7,1.7,0,0,0-1.714-1.683,1.683,1.683,0,0,0,0,3.366,1.7,1.7,0,0,0,1.714-1.683" transform="translate(-0.014 -2.228)" fill="#ffe7af"/>
          <path id="Trazado_194890" data-name="Trazado 194890" d="M11.7,112.9a1.716,1.716,0,1,0-1.714,1.683A1.716,1.716,0,0,0,11.7,112.9" transform="translate(7.591 -2.202)" fill="#ffe7af"/>
          <path id="Trazado_194891" data-name="Trazado 194891" d="M19.975,112.9a1.716,1.716,0,1,0-1.714,1.683,1.716,1.716,0,0,0,1.714-1.683" transform="translate(15.183 -2.202)" fill="#ffe7af"/>
          <path id="Trazado_194892" data-name="Trazado 194892" d="M28.248,112.9a1.716,1.716,0,1,0-1.714,1.683,1.716,1.716,0,0,0,1.714-1.683" transform="translate(22.774 -2.202)" fill="#ffe7af"/>
          <path id="Trazado_194893" data-name="Trazado 194893" d="M36.52,112.9a1.716,1.716,0,1,0-1.714,1.683A1.716,1.716,0,0,0,36.52,112.9" transform="translate(30.364 -2.202)" fill="#ffe7af"/>
          <path id="Trazado_194894" data-name="Trazado 194894" d="M44.789,112.9a1.716,1.716,0,1,0-1.714,1.683,1.716,1.716,0,0,0,1.714-1.683" transform="translate(37.957 -2.202)" fill="#ffe7af"/>
          <path id="Trazado_194895" data-name="Trazado 194895" d="M53.065,112.9a1.716,1.716,0,1,0-1.714,1.683,1.716,1.716,0,0,0,1.714-1.683" transform="translate(45.547 -2.202)" fill="#ffe7af"/>
          <path id="Trazado_194896" data-name="Trazado 194896" d="M61.338,112.9a1.716,1.716,0,1,0-1.714,1.683,1.716,1.716,0,0,0,1.714-1.683" transform="translate(53.138 -2.202)" fill="#ffe7af"/>
          <path id="Trazado_194897" data-name="Trazado 194897" d="M69.611,112.9a1.716,1.716,0,1,0-1.714,1.683,1.716,1.716,0,0,0,1.714-1.683" transform="translate(60.729 -2.202)" fill="#ffe7af"/>
          <path id="Trazado_194898" data-name="Trazado 194898" d="M3.444,121.2a1.7,1.7,0,0,0-1.714-1.683,1.683,1.683,0,0,0,0,3.366A1.7,1.7,0,0,0,3.444,121.2" transform="translate(-0.014 5.072)" fill="#ffe7af"/>
          <path id="Trazado_194899" data-name="Trazado 194899" d="M11.7,121.17a1.716,1.716,0,1,0-1.714,1.683A1.716,1.716,0,0,0,11.7,121.17" transform="translate(7.591 5.099)" fill="#ffe7af"/>
          <path id="Trazado_194900" data-name="Trazado 194900" d="M19.975,121.17a1.716,1.716,0,1,0-1.714,1.683,1.716,1.716,0,0,0,1.714-1.683" transform="translate(15.183 5.099)" fill="#ffe7af"/>
          <path id="Trazado_194901" data-name="Trazado 194901" d="M28.248,121.17a1.716,1.716,0,1,0-1.714,1.683,1.716,1.716,0,0,0,1.714-1.683" transform="translate(22.774 5.099)" fill="#ffe7af"/>
          <path id="Trazado_194902" data-name="Trazado 194902" d="M36.52,121.17a1.716,1.716,0,1,0-1.714,1.683,1.716,1.716,0,0,0,1.714-1.683" transform="translate(30.364 5.099)" fill="#ffe7af"/>
          <path id="Trazado_194903" data-name="Trazado 194903" d="M44.789,121.17a1.716,1.716,0,1,0-1.714,1.683,1.716,1.716,0,0,0,1.714-1.683" transform="translate(37.957 5.099)" fill="#ffe7af"/>
          <path id="Trazado_194904" data-name="Trazado 194904" d="M53.065,121.17a1.716,1.716,0,1,0-1.714,1.683,1.716,1.716,0,0,0,1.714-1.683" transform="translate(45.547 5.099)" fill="#ffe7af"/>
          <path id="Trazado_194905" data-name="Trazado 194905" d="M61.338,121.17a1.716,1.716,0,1,0-1.714,1.683,1.716,1.716,0,0,0,1.714-1.683" transform="translate(53.138 5.099)" fill="#ffe7af"/>
          <path id="Trazado_194906" data-name="Trazado 194906" d="M69.611,121.17a1.716,1.716,0,1,0-1.714,1.683,1.716,1.716,0,0,0,1.714-1.683" transform="translate(60.729 5.099)" fill="#ffe7af"/>
        </g>
      </g>
      <g id="Grupo_154805" data-name="Grupo 154805" transform="translate(145.281 0)">
        <g id="Grupo_152768-2" data-name="Grupo 152768" transform="translate(0)" clip-path="url(#clip-path-2)">
          <path id="Trazado_194826-2" data-name="Trazado 194826" d="M1.659,54.159a.829.829,0,1,0-.829.83.829.829,0,0,0,.829-.83" transform="translate(0 -53.332)" fill="#7f4fc7"/>
          <path id="Trazado_194827-2" data-name="Trazado 194827" d="M9.931,54.159a.829.829,0,1,0-.829.83.829.829,0,0,0,.829-.83" transform="translate(-0.602 -53.332)" fill="#7f4fc7"/>
          <path id="Trazado_194828-2" data-name="Trazado 194828" d="M18.2,54.159a.829.829,0,1,0-.829.83.829.829,0,0,0,.829-.83" transform="translate(-1.204 -53.332)" fill="#7f4fc7"/>
          <path id="Trazado_194829-2" data-name="Trazado 194829" d="M26.477,54.159a.829.829,0,1,0-.829.83.829.829,0,0,0,.829-.83" transform="translate(-1.806 -53.332)" fill="#7f4fc7"/>
          <path id="Trazado_194830-2" data-name="Trazado 194830" d="M34.749,54.159a.829.829,0,1,0-.829.83.829.829,0,0,0,.829-.83" transform="translate(-2.407 -53.332)" fill="#7f4fc7"/>
          <path id="Trazado_194831-2" data-name="Trazado 194831" d="M43.018,54.159a.829.829,0,1,0-.829.83.829.829,0,0,0,.829-.83" transform="translate(-3.008 -53.332)" fill="#7f4fc7"/>
          <path id="Trazado_194832-2" data-name="Trazado 194832" d="M51.294,54.159a.829.829,0,1,0-.829.83.829.829,0,0,0,.829-.83" transform="translate(-3.611 -53.332)" fill="#7f4fc7"/>
          <path id="Trazado_194833-2" data-name="Trazado 194833" d="M59.567,54.159a.829.829,0,1,0-.829.83.829.829,0,0,0,.829-.83" transform="translate(-4.213 -53.332)" fill="#7f4fc7"/>
          <path id="Trazado_194834-2" data-name="Trazado 194834" d="M67.84,54.159a.829.829,0,1,0-.829.83.829.829,0,0,0,.829-.83" transform="translate(-4.815 -53.332)" fill="#7f4fc7"/>
          <path id="Trazado_194835-2" data-name="Trazado 194835" d="M1.659,62.435a.828.828,0,1,0-.243.586.829.829,0,0,0,.243-.586" transform="translate(0 -53.935)" fill="#7f4fc7"/>
          <path id="Trazado_194836-2" data-name="Trazado 194836" d="M9.931,62.435a.828.828,0,1,0-.243.586.829.829,0,0,0,.243-.586" transform="translate(-0.602 -53.935)" fill="#7f4fc7"/>
          <path id="Trazado_194837-2" data-name="Trazado 194837" d="M18.2,62.435a.828.828,0,1,0-.243.586.829.829,0,0,0,.243-.586" transform="translate(-1.204 -53.935)" fill="#7f4fc7"/>
          <path id="Trazado_194838-2" data-name="Trazado 194838" d="M26.477,62.435a.828.828,0,1,0-.243.586.829.829,0,0,0,.243-.586" transform="translate(-1.806 -53.935)" fill="#7f4fc7"/>
          <path id="Trazado_194839-2" data-name="Trazado 194839" d="M34.749,62.435a.828.828,0,1,0-.243.586.829.829,0,0,0,.243-.586" transform="translate(-2.407 -53.935)" fill="#7f4fc7"/>
          <path id="Trazado_194840-2" data-name="Trazado 194840" d="M43.018,62.435a.828.828,0,1,0-.243.586.829.829,0,0,0,.243-.586" transform="translate(-3.008 -53.935)" fill="#7f4fc7"/>
          <path id="Trazado_194841-2" data-name="Trazado 194841" d="M51.294,62.435a.828.828,0,1,0-.243.586.829.829,0,0,0,.243-.586" transform="translate(-3.611 -53.935)" fill="#7f4fc7"/>
          <path id="Trazado_194842-2" data-name="Trazado 194842" d="M59.567,62.435a.829.829,0,1,0-.829.829.829.829,0,0,0,.829-.829" transform="translate(-4.213 -53.935)" fill="#7f4fc7"/>
          <path id="Trazado_194843-2" data-name="Trazado 194843" d="M67.84,62.435a.828.828,0,1,0-.243.586.829.829,0,0,0,.243-.586" transform="translate(-4.815 -53.935)" fill="#7f4fc7"/>
          <path id="Trazado_194844-2" data-name="Trazado 194844" d="M1.659,70.708a.828.828,0,1,0-.243.586.829.829,0,0,0,.243-.586" transform="translate(0 -54.537)" fill="#7f4fc7"/>
          <path id="Trazado_194845-2" data-name="Trazado 194845" d="M9.931,70.708a.828.828,0,1,0-.243.586.829.829,0,0,0,.243-.586" transform="translate(-0.602 -54.537)" fill="#7f4fc7"/>
          <path id="Trazado_194846-2" data-name="Trazado 194846" d="M18.2,70.708a.828.828,0,1,0-.243.586.829.829,0,0,0,.243-.586" transform="translate(-1.204 -54.537)" fill="#7f4fc7"/>
          <path id="Trazado_194847-2" data-name="Trazado 194847" d="M26.477,70.708a.828.828,0,1,0-.243.586.829.829,0,0,0,.243-.586" transform="translate(-1.806 -54.537)" fill="#7f4fc7"/>
          <path id="Trazado_194848-2" data-name="Trazado 194848" d="M34.749,70.708a.828.828,0,1,0-.243.586.829.829,0,0,0,.243-.586" transform="translate(-2.407 -54.537)" fill="#7f4fc7"/>
          <path id="Trazado_194849-2" data-name="Trazado 194849" d="M43.018,70.708a.828.828,0,1,0-.243.586.829.829,0,0,0,.243-.586" transform="translate(-3.008 -54.537)" fill="#7f4fc7"/>
          <path id="Trazado_194850-2" data-name="Trazado 194850" d="M51.294,70.708a.828.828,0,1,0-.243.586.829.829,0,0,0,.243-.586" transform="translate(-3.611 -54.537)" fill="#7f4fc7"/>
          <path id="Trazado_194851-2" data-name="Trazado 194851" d="M59.567,70.708a.829.829,0,1,0-.829.829.829.829,0,0,0,.829-.829" transform="translate(-4.213 -54.537)" fill="#7f4fc7"/>
          <path id="Trazado_194852-2" data-name="Trazado 194852" d="M67.84,70.708a.828.828,0,1,0-.243.586.829.829,0,0,0,.243-.586" transform="translate(-4.815 -54.537)" fill="#7f4fc7"/>
          <path id="Trazado_194853-2" data-name="Trazado 194853" d="M1.659,78.98a.828.828,0,1,0-.243.587.829.829,0,0,0,.243-.587" transform="translate(0 -55.139)" fill="#7f4fc7"/>
          <path id="Trazado_194854-2" data-name="Trazado 194854" d="M9.931,78.98a.828.828,0,1,0-.243.587.829.829,0,0,0,.243-.587" transform="translate(-0.602 -55.139)" fill="#7f4fc7"/>
          <path id="Trazado_194855-2" data-name="Trazado 194855" d="M18.2,78.98a.828.828,0,1,0-.243.587.829.829,0,0,0,.243-.587" transform="translate(-1.204 -55.139)" fill="#7f4fc7"/>
          <path id="Trazado_194856-2" data-name="Trazado 194856" d="M26.477,78.98a.828.828,0,1,0-.243.587.829.829,0,0,0,.243-.587" transform="translate(-1.806 -55.139)" fill="#7f4fc7"/>
          <path id="Trazado_194857-2" data-name="Trazado 194857" d="M34.749,78.98a.828.828,0,1,0-.243.587.829.829,0,0,0,.243-.587" transform="translate(-2.407 -55.139)" fill="#7f4fc7"/>
          <path id="Trazado_194858-2" data-name="Trazado 194858" d="M43.018,78.98a.828.828,0,1,0-.243.587.829.829,0,0,0,.243-.587" transform="translate(-3.008 -55.139)" fill="#7f4fc7"/>
          <path id="Trazado_194859-2" data-name="Trazado 194859" d="M51.294,78.98a.828.828,0,1,0-.243.587.829.829,0,0,0,.243-.587" transform="translate(-3.611 -55.139)" fill="#7f4fc7"/>
          <path id="Trazado_194860-2" data-name="Trazado 194860" d="M59.567,78.98a.829.829,0,1,0-.829.829.829.829,0,0,0,.829-.829" transform="translate(-4.213 -55.139)" fill="#7f4fc7"/>
          <path id="Trazado_194861-2" data-name="Trazado 194861" d="M67.84,78.98a.828.828,0,1,0-.243.587.829.829,0,0,0,.243-.587" transform="translate(-4.815 -55.139)" fill="#7f4fc7"/>
          <path id="Trazado_194862-2" data-name="Trazado 194862" d="M1.659,87.253a.828.828,0,1,0-.242.587.829.829,0,0,0,.242-.587" transform="translate(0 -55.741)" fill="#7f4fc7"/>
          <path id="Trazado_194863-2" data-name="Trazado 194863" d="M9.931,87.253a.828.828,0,1,0-.242.587.829.829,0,0,0,.242-.587" transform="translate(-0.602 -55.741)" fill="#7f4fc7"/>
          <path id="Trazado_194864-2" data-name="Trazado 194864" d="M18.2,87.253a.828.828,0,1,0-.242.587.829.829,0,0,0,.242-.587" transform="translate(-1.204 -55.741)" fill="#7f4fc7"/>
          <path id="Trazado_194865-2" data-name="Trazado 194865" d="M26.477,87.253a.828.828,0,1,0-.242.587.829.829,0,0,0,.242-.587" transform="translate(-1.806 -55.741)" fill="#7f4fc7"/>
          <path id="Trazado_194866-2" data-name="Trazado 194866" d="M34.749,87.253a.828.828,0,1,0-.242.587.829.829,0,0,0,.242-.587" transform="translate(-2.407 -55.741)" fill="#7f4fc7"/>
          <path id="Trazado_194867-2" data-name="Trazado 194867" d="M43.018,87.253a.828.828,0,1,0-.242.587.829.829,0,0,0,.242-.587" transform="translate(-3.008 -55.741)" fill="#7f4fc7"/>
          <path id="Trazado_194868-2" data-name="Trazado 194868" d="M51.294,87.253a.828.828,0,1,0-.242.587.829.829,0,0,0,.242-.587" transform="translate(-3.611 -55.741)" fill="#7f4fc7"/>
          <path id="Trazado_194869-2" data-name="Trazado 194869" d="M59.567,87.253a.829.829,0,1,0-.829.83.829.829,0,0,0,.829-.83" transform="translate(-4.213 -55.741)" fill="#7f4fc7"/>
          <path id="Trazado_194870-2" data-name="Trazado 194870" d="M67.84,87.253a.828.828,0,1,0-.242.587.829.829,0,0,0,.242-.587" transform="translate(-4.815 -55.741)" fill="#7f4fc7"/>
          <path id="Trazado_194871-2" data-name="Trazado 194871" d="M1.659,95.526a.828.828,0,1,0-.243.586.829.829,0,0,0,.243-.586" transform="translate(0 -56.342)" fill="#7f4fc7"/>
          <path id="Trazado_194872-2" data-name="Trazado 194872" d="M9.931,95.526a.828.828,0,1,0-.243.586.829.829,0,0,0,.243-.586" transform="translate(-0.602 -56.342)" fill="#7f4fc7"/>
          <path id="Trazado_194873-2" data-name="Trazado 194873" d="M18.2,95.526a.828.828,0,1,0-.243.586.829.829,0,0,0,.243-.586" transform="translate(-1.204 -56.342)" fill="#7f4fc7"/>
          <path id="Trazado_194874-2" data-name="Trazado 194874" d="M26.477,95.526a.828.828,0,1,0-.243.586.829.829,0,0,0,.243-.586" transform="translate(-1.806 -56.342)" fill="#7f4fc7"/>
          <path id="Trazado_194875-2" data-name="Trazado 194875" d="M34.749,95.526a.828.828,0,1,0-.243.586.829.829,0,0,0,.243-.586" transform="translate(-2.407 -56.342)" fill="#7f4fc7"/>
          <path id="Trazado_194876-2" data-name="Trazado 194876" d="M43.018,95.526a.828.828,0,1,0-.243.586.829.829,0,0,0,.243-.586" transform="translate(-3.008 -56.342)" fill="#7f4fc7"/>
          <path id="Trazado_194877-2" data-name="Trazado 194877" d="M51.294,95.526a.828.828,0,1,0-.243.586.829.829,0,0,0,.243-.586" transform="translate(-3.611 -56.342)" fill="#7f4fc7"/>
          <path id="Trazado_194878-2" data-name="Trazado 194878" d="M59.567,95.526a.829.829,0,1,0-.829.829.829.829,0,0,0,.829-.829" transform="translate(-4.213 -56.342)" fill="#7f4fc7"/>
          <path id="Trazado_194879-2" data-name="Trazado 194879" d="M67.84,95.526a.828.828,0,1,0-.243.586.829.829,0,0,0,.243-.586" transform="translate(-4.815 -56.342)" fill="#7f4fc7"/>
          <path id="Trazado_194880-2" data-name="Trazado 194880" d="M1.659,103.8a.828.828,0,1,0-.243.586.829.829,0,0,0,.243-.586" transform="translate(0 -56.944)" fill="#7f4fc7"/>
          <path id="Trazado_194881-2" data-name="Trazado 194881" d="M9.931,103.8a.828.828,0,1,0-.243.586.829.829,0,0,0,.243-.586" transform="translate(-0.602 -56.944)" fill="#7f4fc7"/>
          <path id="Trazado_194882-2" data-name="Trazado 194882" d="M18.2,103.8a.828.828,0,1,0-.243.586.829.829,0,0,0,.243-.586" transform="translate(-1.204 -56.944)" fill="#7f4fc7"/>
          <path id="Trazado_194883-2" data-name="Trazado 194883" d="M26.477,103.8a.828.828,0,1,0-.243.586.829.829,0,0,0,.243-.586" transform="translate(-1.806 -56.944)" fill="#7f4fc7"/>
          <path id="Trazado_194884-2" data-name="Trazado 194884" d="M34.749,103.8a.828.828,0,1,0-.243.586.829.829,0,0,0,.243-.586" transform="translate(-2.407 -56.944)" fill="#7f4fc7"/>
          <path id="Trazado_194885-2" data-name="Trazado 194885" d="M43.018,103.8a.828.828,0,1,0-.243.586.829.829,0,0,0,.243-.586" transform="translate(-3.008 -56.944)" fill="#7f4fc7"/>
          <path id="Trazado_194886-2" data-name="Trazado 194886" d="M51.294,103.8a.828.828,0,1,0-.243.586.829.829,0,0,0,.243-.586" transform="translate(-3.611 -56.944)" fill="#7f4fc7"/>
          <path id="Trazado_194887-2" data-name="Trazado 194887" d="M59.567,103.8a.829.829,0,1,0-.829.829.829.829,0,0,0,.829-.829" transform="translate(-4.213 -56.944)" fill="#7f4fc7"/>
          <path id="Trazado_194888-2" data-name="Trazado 194888" d="M67.84,103.8a.828.828,0,1,0-.243.586.829.829,0,0,0,.243-.586" transform="translate(-4.815 -56.944)" fill="#7f4fc7"/>
          <path id="Trazado_194889-2" data-name="Trazado 194889" d="M1.659,112.071a.828.828,0,1,0-.243.586.829.829,0,0,0,.243-.586" transform="translate(0 -57.546)" fill="#7f4fc7"/>
          <path id="Trazado_194890-2" data-name="Trazado 194890" d="M9.931,112.071a.828.828,0,1,0-.243.586.829.829,0,0,0,.243-.586" transform="translate(-0.602 -57.546)" fill="#7f4fc7"/>
          <path id="Trazado_194891-2" data-name="Trazado 194891" d="M18.2,112.071a.828.828,0,1,0-.243.586.829.829,0,0,0,.243-.586" transform="translate(-1.204 -57.546)" fill="#7f4fc7"/>
          <path id="Trazado_194892-2" data-name="Trazado 194892" d="M26.477,112.071a.828.828,0,1,0-.243.586.829.829,0,0,0,.243-.586" transform="translate(-1.806 -57.546)" fill="#7f4fc7"/>
          <path id="Trazado_194893-2" data-name="Trazado 194893" d="M34.749,112.071a.828.828,0,1,0-.243.586.829.829,0,0,0,.243-.586" transform="translate(-2.407 -57.546)" fill="#7f4fc7"/>
          <path id="Trazado_194894-2" data-name="Trazado 194894" d="M43.018,112.071a.828.828,0,1,0-.243.586.829.829,0,0,0,.243-.586" transform="translate(-3.008 -57.546)" fill="#7f4fc7"/>
          <path id="Trazado_194895-2" data-name="Trazado 194895" d="M51.294,112.071a.828.828,0,1,0-.243.586.829.829,0,0,0,.243-.586" transform="translate(-3.611 -57.546)" fill="#7f4fc7"/>
          <path id="Trazado_194896-2" data-name="Trazado 194896" d="M59.567,112.071a.829.829,0,1,0-.829.829.829.829,0,0,0,.829-.829" transform="translate(-4.213 -57.546)" fill="#7f4fc7"/>
          <path id="Trazado_194897-2" data-name="Trazado 194897" d="M67.84,112.071a.828.828,0,1,0-.243.586.829.829,0,0,0,.243-.586" transform="translate(-4.815 -57.546)" fill="#7f4fc7"/>
          <path id="Trazado_194898-2" data-name="Trazado 194898" d="M1.659,120.343a.828.828,0,1,0-.243.586.829.829,0,0,0,.243-.586" transform="translate(0 -58.148)" fill="#7f4fc7"/>
          <path id="Trazado_194899-2" data-name="Trazado 194899" d="M9.931,120.343a.828.828,0,1,0-.243.586.829.829,0,0,0,.243-.586" transform="translate(-0.602 -58.148)" fill="#7f4fc7"/>
          <path id="Trazado_194900-2" data-name="Trazado 194900" d="M18.2,120.343a.828.828,0,1,0-.243.586.829.829,0,0,0,.243-.586" transform="translate(-1.204 -58.148)" fill="#7f4fc7"/>
          <path id="Trazado_194901-2" data-name="Trazado 194901" d="M26.477,120.343a.828.828,0,1,0-.243.586.829.829,0,0,0,.243-.586" transform="translate(-1.806 -58.148)" fill="#7f4fc7"/>
          <path id="Trazado_194902-2" data-name="Trazado 194902" d="M34.749,120.343a.828.828,0,1,0-.243.586.829.829,0,0,0,.243-.586" transform="translate(-2.407 -58.148)" fill="#7f4fc7"/>
          <path id="Trazado_194903-2" data-name="Trazado 194903" d="M43.018,120.343a.828.828,0,1,0-.243.586.829.829,0,0,0,.243-.586" transform="translate(-3.008 -58.148)" fill="#7f4fc7"/>
          <path id="Trazado_194904-2" data-name="Trazado 194904" d="M51.294,120.343a.828.828,0,1,0-.243.586.829.829,0,0,0,.243-.586" transform="translate(-3.611 -58.148)" fill="#7f4fc7"/>
          <path id="Trazado_194905-2" data-name="Trazado 194905" d="M59.567,120.343a.829.829,0,1,0-.829.829.829.829,0,0,0,.829-.829" transform="translate(-4.213 -58.148)" fill="#7f4fc7"/>
          <path id="Trazado_194906-2" data-name="Trazado 194906" d="M67.84,120.343a.828.828,0,1,0-.243.586.829.829,0,0,0,.243-.586" transform="translate(-4.815 -58.148)" fill="#7f4fc7"/>
        </g>
      </g>
      <g id="Grupo_155254" data-name="Grupo 155254" transform="translate(56.699 300.201)">
        <g id="Grupo_154318" data-name="Grupo 154318">
          <g id="Grupo_154315" data-name="Grupo 154315" transform="translate(24.387 7.112)">
            <path id="Trazado_195058" data-name="Trazado 195058" d="M13.6,225.013h30.18a1.134,1.134,0,0,0,0-2.263H13.6a1.134,1.134,0,1,0,0,2.263" transform="translate(-12.394 -222.747)" fill="#12263f"/>
            <path id="Trazado_195059" data-name="Trazado 195059" d="M83.56,225.013H91.18a1.134,1.134,0,0,0,0-2.263H83.56a1.134,1.134,0,1,0,0,2.263" transform="translate(-47.133 -222.747)" fill="#12263f"/>
            <path id="Trazado_195064" data-name="Trazado 195064" d="M105.271,232.612h-21.2a.795.795,0,1,0,0,1.59h21.2a.795.795,0,1,0,0-1.59" transform="translate(-47.57 -227.645)" fill="#12263f"/>
            <path id="Trazado_195065" data-name="Trazado 195065" d="M71.76,232.612H66.408a.795.795,0,1,0,0,1.59H71.76a.795.795,0,1,0,0-1.59" transform="translate(-38.799 -227.645)" fill="#12263f"/>
          </g>
          <g id="Grupo_154316" data-name="Grupo 154316">
            <path id="Trazado_195062" data-name="Trazado 195062" d="M148.935,1.333H113.3c-.738,0-1.335.354-1.335.794s.6.8,1.335.8h35.631c.738,0,1.336-.354,1.336-.8s-.6-.794-1.336-.794" transform="translate(-88.74 -1.333)" fill="#12263f"/>
            <path id="Trazado_195063" data-name="Trazado 195063" d="M110.368,1.333H96.385c-1.147,0-2.076.354-2.076.794s.928.8,2.076.8h13.983c1.147,0,2.076-.354,2.076-.8s-.928-.794-2.076-.794" transform="translate(-94.309 -1.333)" fill="#12263f"/>
          </g>
        </g>
      </g>
      <g id="Grupo_154801" data-name="Grupo 154801" transform="translate(0 288.066)">
        <g id="Grupo_154721" data-name="Grupo 154721" clip-path="url(#clip-path-3)">
          <line id="Línea_1878" data-name="Línea 1878" x1="16.089" y2="75.841" transform="translate(45.532 21.941)" fill="none" stroke="#1e0b4a" stroke-linecap="round" stroke-linejoin="round" stroke-width="1.052"/>
          <path id="Trazado_196481" data-name="Trazado 196481" d="M233.865,272.66a6.044,6.044,0,1,1-6.044-6.044,6.044,6.044,0,0,1,6.044,6.044" transform="translate(-166.2 -250.718)" fill="#e6d09d"/>
          <path id="Trazado_196482" data-name="Trazado 196482" d="M239.45,320.969c-6.7,19.275-27.791,29.455-27.791,29.455s-10.234-21.068-3.537-40.342,27.791-29.455,27.791-29.455,10.234,21.067,3.537,40.341" transform="translate(-160.317 -252.642)" fill="#12263f"/>
          <path id="Trazado_196483" data-name="Trazado 196483" d="M278.044,307.45c3.105,29.3-18.192,55.579-18.192,55.579S233.522,341.8,230.417,312.5s18.193-55.579,18.193-55.579,26.33,21.23,29.435,50.532" transform="translate(-217.876 -249.387)" fill="#e6d09d"/>
          <path id="Trazado_196484" data-name="Trazado 196484" d="M293.655,319.322a11.042,11.042,0,1,1-11.042-11.042,11.042,11.042,0,0,1,11.042,11.042" transform="translate(-268.951 -256.437)" fill="#12263f"/>
          <line id="Línea_1879" data-name="Línea 1879" x2="10.862" y2="102.508" transform="translate(31.115 11.134)" fill="none" stroke="#1e0b4a" stroke-linecap="round" stroke-linejoin="round" stroke-width="1.052"/>
          <line id="Línea_1880" data-name="Línea 1880" y1="13.352" x2="20.759" transform="translate(37.624 59.211)" fill="none" stroke="#1e0b4a" stroke-linecap="round" stroke-linejoin="round" stroke-width="1.052"/>
          <line id="Línea_1881" data-name="Línea 1881" x1="17.841" y1="9.347" transform="translate(17.023 37.169)" fill="none" stroke="#1e0b4a" stroke-linecap="round" stroke-linejoin="round" stroke-width="1.052"/>
          <line id="Línea_1882" data-name="Línea 1882" x2="19.413" y2="39.817" transform="translate(13.662 62.884)" fill="none" stroke="#1e0b4a" stroke-linecap="round" stroke-linejoin="round" stroke-width="1.052"/>
        </g>
      </g>
      <g id="Grupo_155255" data-name="Grupo 155255" transform="translate(35.281 17.405)">
        <g id="Grupo_154317" data-name="Grupo 154317">
          <g id="Grupo_154315-2" data-name="Grupo 154315" transform="translate(35.487 6.125)">
            <path id="Trazado_195058-2" data-name="Trazado 195058" d="M14.141,226.033H57.925a1.641,1.641,0,1,0,0-3.282H14.141a1.641,1.641,0,1,0,0,3.282" transform="translate(-12.5 -222.751)" fill="#615842"/>
            <path id="Trazado_195059-2" data-name="Trazado 195059" d="M84.1,226.033H95.157a1.641,1.641,0,1,0,0-3.282H84.1a1.641,1.641,0,1,0,0,3.282" transform="translate(-31.366 -222.751)" fill="#615842"/>
            <path id="Trazado_195064-2" data-name="Trazado 195064" d="M115.182,232.612H84.426a1.153,1.153,0,1,0,0,2.306h30.756a1.153,1.153,0,0,0,0-2.306" transform="translate(-31.585 -225.41)" fill="#615842"/>
            <path id="Trazado_195065-2" data-name="Trazado 195065" d="M74.533,232.612H66.766a1.153,1.153,0,1,0,0,2.306h7.767a1.153,1.153,0,0,0,0-2.306" transform="translate(-26.822 -225.41)" fill="#615842"/>
          </g>
          <g id="Grupo_154316-2" data-name="Grupo 154316">
            <path id="Trazado_195062-2" data-name="Trazado 195062" d="M165.594,1.333H113.9c-1.07,0-1.937.517-1.937,1.152s.867,1.153,1.937,1.153h51.689c1.07,0,1.938-.517,1.938-1.153s-.868-1.152-1.938-1.152" transform="translate(-78.27 -1.333)" fill="#615842"/>
            <path id="Trazado_195063-2" data-name="Trazado 195063" d="M117.605,1.333H97.32c-1.664,0-3.011.517-3.011,1.152s1.346,1.153,3.011,1.153h20.285c1.664,0,3.011-.517,3.011-1.153s-1.346-1.152-3.011-1.152" transform="translate(-94.309 -1.333)" fill="#615842"/>
          </g>
        </g>
      </g>
      <g id="Grupo_155256" data-name="Grupo 155256" transform="translate(183.727 115.89)">
        <rect id="Rectángulo_45220" data-name="Rectángulo 45220" width="79.577" height="18.898" transform="translate(35.963) rotate(90)" fill="#615842"/>
        <rect id="Rectángulo_45221" data-name="Rectángulo 45221" width="2.448" height="2.448" transform="translate(0 17.169) rotate(-90)" fill="#e6d09d"/>
        <rect id="Rectángulo_45222" data-name="Rectángulo 45222" width="2.448" height="2.448" transform="translate(0 22.37) rotate(-90)" fill="#e6d09d"/>
        <rect id="Rectángulo_45223" data-name="Rectángulo 45223" width="2.448" height="2.448" transform="translate(0 27.57) rotate(-90)" fill="#e6d09d"/>
        <rect id="Rectángulo_45224" data-name="Rectángulo 45224" width="2.447" height="2.448" transform="translate(0 32.771) rotate(-90)" fill="#e6d09d"/>
        <rect id="Rectángulo_45225" data-name="Rectángulo 45225" width="2.448" height="2.448" transform="translate(0 37.972) rotate(-90)" fill="#e6d09d"/>
        <rect id="Rectángulo_45226" data-name="Rectángulo 45226" width="2.447" height="2.448" transform="translate(0 43.172) rotate(-90)" fill="#e6d09d"/>
        <rect id="Rectángulo_45227" data-name="Rectángulo 45227" width="2.448" height="2.448" transform="translate(0 48.373) rotate(-90)" fill="#e6d09d"/>
        <rect id="Rectángulo_45228" data-name="Rectángulo 45228" width="2.447" height="2.448" transform="translate(0 53.574) rotate(-90)" fill="#e6d09d"/>
        <rect id="Rectángulo_45229" data-name="Rectángulo 45229" width="2.448" height="2.448" transform="translate(0 58.775) rotate(-90)" fill="#e6d09d"/>
        <rect id="Rectángulo_46135" data-name="Rectángulo 46135" width="2.448" height="2.448" transform="translate(0 74.377) rotate(-90)" fill="#e6d09d"/>
        <rect id="Rectángulo_46159" data-name="Rectángulo 46159" width="2.448" height="2.448" transform="translate(0 89.979) rotate(-90)" fill="#e6d09d"/>
        <rect id="Rectángulo_45230" data-name="Rectángulo 45230" width="2.448" height="2.448" transform="translate(0 63.975) rotate(-90)" fill="#e6d09d"/>
        <rect id="Rectángulo_46125" data-name="Rectángulo 46125" width="2.448" height="2.448" transform="translate(0 79.577) rotate(-90)" fill="#e6d09d"/>
        <rect id="Rectángulo_46160" data-name="Rectángulo 46160" width="2.448" height="2.448" transform="translate(0 95.179) rotate(-90)" fill="#e6d09d"/>
        <rect id="Rectángulo_46168" data-name="Rectángulo 46168" width="2.448" height="2.448" transform="translate(0 105.58) rotate(-90)" fill="#e6d09d"/>
        <rect id="Rectángulo_45231" data-name="Rectángulo 45231" width="2.448" height="2.448" transform="translate(0 69.176) rotate(-90)" fill="#e6d09d"/>
        <rect id="Rectángulo_46123" data-name="Rectángulo 46123" width="2.448" height="2.448" transform="translate(0 84.778) rotate(-90)" fill="#e6d09d"/>
        <rect id="Rectángulo_46161" data-name="Rectángulo 46161" width="2.448" height="2.448" transform="translate(0 100.38) rotate(-90)" fill="#e6d09d"/>
        <rect id="Rectángulo_46162" data-name="Rectángulo 46162" width="2.448" height="2.448" transform="translate(0 110.781) rotate(-90)" fill="#e6d09d"/>
        <rect id="Rectángulo_45232" data-name="Rectángulo 45232" width="2.448" height="2.448" transform="translate(5.201 17.169) rotate(-90)" fill="#e6d09d"/>
        <rect id="Rectángulo_45233" data-name="Rectángulo 45233" width="2.448" height="2.448" transform="translate(5.201 22.37) rotate(-90)" fill="#e6d09d"/>
        <rect id="Rectángulo_45234" data-name="Rectángulo 45234" width="2.448" height="2.448" transform="translate(5.201 27.57) rotate(-90)" fill="#e6d09d"/>
        <rect id="Rectángulo_45235" data-name="Rectángulo 45235" width="2.447" height="2.448" transform="translate(5.201 32.771) rotate(-90)" fill="#e6d09d"/>
        <rect id="Rectángulo_45236" data-name="Rectángulo 45236" width="2.448" height="2.448" transform="translate(5.201 37.972) rotate(-90)" fill="#e6d09d"/>
        <rect id="Rectángulo_45237" data-name="Rectángulo 45237" width="2.447" height="2.448" transform="translate(5.201 43.172) rotate(-90)" fill="#e6d09d"/>
        <rect id="Rectángulo_45238" data-name="Rectángulo 45238" width="2.448" height="2.448" transform="translate(5.201 48.373) rotate(-90)" fill="#e6d09d"/>
        <rect id="Rectángulo_45239" data-name="Rectángulo 45239" width="2.447" height="2.448" transform="translate(5.201 53.574) rotate(-90)" fill="#e6d09d"/>
        <rect id="Rectángulo_45240" data-name="Rectángulo 45240" width="2.448" height="2.448" transform="translate(5.201 58.775) rotate(-90)" fill="#e6d09d"/>
        <rect id="Rectángulo_46136" data-name="Rectángulo 46136" width="2.448" height="2.448" transform="translate(5.201 74.377) rotate(-90)" fill="#e6d09d"/>
        <rect id="Rectángulo_46156" data-name="Rectángulo 46156" width="2.448" height="2.448" transform="translate(5.201 89.979) rotate(-90)" fill="#e6d09d"/>
        <rect id="Rectángulo_45241" data-name="Rectángulo 45241" width="2.448" height="2.448" transform="translate(5.201 63.975) rotate(-90)" fill="#e6d09d"/>
        <rect id="Rectángulo_46126" data-name="Rectángulo 46126" width="2.448" height="2.448" transform="translate(5.201 79.577) rotate(-90)" fill="#e6d09d"/>
        <rect id="Rectángulo_46157" data-name="Rectángulo 46157" width="2.448" height="2.448" transform="translate(5.201 95.179) rotate(-90)" fill="#e6d09d"/>
        <rect id="Rectángulo_46169" data-name="Rectángulo 46169" width="2.448" height="2.448" transform="translate(5.201 105.58) rotate(-90)" fill="#e6d09d"/>
        <rect id="Rectángulo_45242" data-name="Rectángulo 45242" width="2.448" height="2.448" transform="translate(5.201 69.176) rotate(-90)" fill="#e6d09d"/>
        <rect id="Rectángulo_46124" data-name="Rectángulo 46124" width="2.448" height="2.448" transform="translate(5.201 84.778) rotate(-90)" fill="#e6d09d"/>
        <rect id="Rectángulo_46158" data-name="Rectángulo 46158" width="2.448" height="2.448" transform="translate(5.201 100.38) rotate(-90)" fill="#e6d09d"/>
        <rect id="Rectángulo_46163" data-name="Rectángulo 46163" width="2.448" height="2.448" transform="translate(5.201 110.781) rotate(-90)" fill="#e6d09d"/>
        <rect id="Rectángulo_45243" data-name="Rectángulo 45243" width="2.448" height="2.448" transform="translate(9.574 17.169) rotate(-90)" fill="#e6d09d"/>
        <rect id="Rectángulo_45244" data-name="Rectángulo 45244" width="2.448" height="2.448" transform="translate(9.574 22.37) rotate(-90)" fill="#e6d09d"/>
        <rect id="Rectángulo_45245" data-name="Rectángulo 45245" width="2.448" height="2.448" transform="translate(9.574 27.57) rotate(-90)" fill="#e6d09d"/>
        <rect id="Rectángulo_45246" data-name="Rectángulo 45246" width="2.447" height="2.448" transform="translate(9.574 32.771) rotate(-90)" fill="#e6d09d"/>
        <rect id="Rectángulo_45247" data-name="Rectángulo 45247" width="2.448" height="2.448" transform="translate(9.574 37.972) rotate(-90)" fill="#e6d09d"/>
        <rect id="Rectángulo_45248" data-name="Rectángulo 45248" width="2.447" height="2.448" transform="translate(9.574 43.172) rotate(-90)" fill="#e6d09d"/>
        <rect id="Rectángulo_45249" data-name="Rectángulo 45249" width="2.448" height="2.448" transform="translate(9.574 48.373) rotate(-90)" fill="#e6d09d"/>
        <rect id="Rectángulo_45250" data-name="Rectángulo 45250" width="2.447" height="2.448" transform="translate(9.574 53.574) rotate(-90)" fill="#e6d09d"/>
        <rect id="Rectángulo_45251" data-name="Rectángulo 45251" width="2.448" height="2.448" transform="translate(9.574 58.775) rotate(-90)" fill="#e6d09d"/>
        <rect id="Rectángulo_46137" data-name="Rectángulo 46137" width="2.448" height="2.448" transform="translate(9.574 74.377) rotate(-90)" fill="#e6d09d"/>
        <rect id="Rectángulo_46146" data-name="Rectángulo 46146" width="2.448" height="2.448" transform="translate(9.574 89.979) rotate(-90)" fill="#e6d09d"/>
        <rect id="Rectángulo_45252" data-name="Rectángulo 45252" width="2.448" height="2.448" transform="translate(9.574 63.975) rotate(-90)" fill="#e6d09d"/>
        <rect id="Rectángulo_46127" data-name="Rectángulo 46127" width="2.448" height="2.448" transform="translate(9.574 79.577) rotate(-90)" fill="#e6d09d"/>
        <rect id="Rectángulo_46147" data-name="Rectángulo 46147" width="2.448" height="2.448" transform="translate(9.574 95.179) rotate(-90)" fill="#e6d09d"/>
        <rect id="Rectángulo_46170" data-name="Rectángulo 46170" width="2.448" height="2.448" transform="translate(9.574 105.58) rotate(-90)" fill="#e6d09d"/>
        <rect id="Rectángulo_45253" data-name="Rectángulo 45253" width="2.448" height="2.448" transform="translate(9.574 69.176) rotate(-90)" fill="#e6d09d"/>
        <rect id="Rectángulo_46128" data-name="Rectángulo 46128" width="2.448" height="2.448" transform="translate(9.574 84.778) rotate(-90)" fill="#e6d09d"/>
        <rect id="Rectángulo_46148" data-name="Rectángulo 46148" width="2.448" height="2.448" transform="translate(9.574 100.38) rotate(-90)" fill="#e6d09d"/>
        <rect id="Rectángulo_46164" data-name="Rectángulo 46164" width="2.448" height="2.448" transform="translate(9.574 110.781) rotate(-90)" fill="#e6d09d"/>
        <rect id="Rectángulo_45221-2" data-name="Rectángulo 45221" width="2.448" height="2.448" transform="translate(13.961 17.169) rotate(-90)" fill="#e6d09d"/>
        <rect id="Rectángulo_45222-2" data-name="Rectángulo 45222" width="2.448" height="2.448" transform="translate(13.961 22.37) rotate(-90)" fill="#e6d09d"/>
        <rect id="Rectángulo_45223-2" data-name="Rectángulo 45223" width="2.448" height="2.448" transform="translate(13.961 27.57) rotate(-90)" fill="#e6d09d"/>
        <rect id="Rectángulo_45224-2" data-name="Rectángulo 45224" width="2.447" height="2.448" transform="translate(13.961 32.771) rotate(-90)" fill="#e6d09d"/>
        <rect id="Rectángulo_45225-2" data-name="Rectángulo 45225" width="2.448" height="2.448" transform="translate(13.961 37.972) rotate(-90)" fill="#e6d09d"/>
        <rect id="Rectángulo_45226-2" data-name="Rectángulo 45226" width="2.447" height="2.448" transform="translate(13.961 43.172) rotate(-90)" fill="#e6d09d"/>
        <rect id="Rectángulo_45227-2" data-name="Rectángulo 45227" width="2.448" height="2.448" transform="translate(13.961 48.373) rotate(-90)" fill="#e6d09d"/>
        <rect id="Rectángulo_45228-2" data-name="Rectángulo 45228" width="2.447" height="2.448" transform="translate(13.961 53.574) rotate(-90)" fill="#e6d09d"/>
        <rect id="Rectángulo_45229-2" data-name="Rectángulo 45229" width="2.448" height="2.448" transform="translate(13.961 58.775) rotate(-90)" fill="#e6d09d"/>
        <rect id="Rectángulo_46138" data-name="Rectángulo 46138" width="2.448" height="2.448" transform="translate(13.961 74.377) rotate(-90)" fill="#e6d09d"/>
        <rect id="Rectángulo_46149" data-name="Rectángulo 46149" width="2.448" height="2.448" transform="translate(13.961 89.979) rotate(-90)" fill="#e6d09d"/>
        <rect id="Rectángulo_45230-2" data-name="Rectángulo 45230" width="2.448" height="2.448" transform="translate(13.961 63.975) rotate(-90)" fill="#e6d09d"/>
        <rect id="Rectángulo_46129" data-name="Rectángulo 46129" width="2.448" height="2.448" transform="translate(13.961 79.577) rotate(-90)" fill="#e6d09d"/>
        <rect id="Rectángulo_46150" data-name="Rectángulo 46150" width="2.448" height="2.448" transform="translate(13.961 95.179) rotate(-90)" fill="#e6d09d"/>
        <rect id="Rectángulo_46171" data-name="Rectángulo 46171" width="2.448" height="2.448" transform="translate(13.961 105.58) rotate(-90)" fill="#e6d09d"/>
        <rect id="Rectángulo_45231-2" data-name="Rectángulo 45231" width="2.448" height="2.448" transform="translate(13.961 69.176) rotate(-90)" fill="#e6d09d"/>
        <rect id="Rectángulo_46130" data-name="Rectángulo 46130" width="2.448" height="2.448" transform="translate(13.961 84.778) rotate(-90)" fill="#e6d09d"/>
        <rect id="Rectángulo_46151" data-name="Rectángulo 46151" width="2.448" height="2.448" transform="translate(13.961 100.38) rotate(-90)" fill="#e6d09d"/>
        <rect id="Rectángulo_46165" data-name="Rectángulo 46165" width="2.448" height="2.448" transform="translate(13.961 110.781) rotate(-90)" fill="#e6d09d"/>
        <rect id="Rectángulo_45232-2" data-name="Rectángulo 45232" width="2.448" height="2.448" transform="translate(18.748 17.169) rotate(-90)" fill="#e6d09d"/>
        <rect id="Rectángulo_45233-2" data-name="Rectángulo 45233" width="2.448" height="2.448" transform="translate(18.748 22.37) rotate(-90)" fill="#e6d09d"/>
        <rect id="Rectángulo_45234-2" data-name="Rectángulo 45234" width="2.448" height="2.448" transform="translate(18.748 27.57) rotate(-90)" fill="#e6d09d"/>
        <rect id="Rectángulo_45235-2" data-name="Rectángulo 45235" width="2.447" height="2.448" transform="translate(18.748 32.771) rotate(-90)" fill="#e6d09d"/>
        <rect id="Rectángulo_45236-2" data-name="Rectángulo 45236" width="2.448" height="2.448" transform="translate(18.748 37.972) rotate(-90)" fill="#e6d09d"/>
        <rect id="Rectángulo_45237-2" data-name="Rectángulo 45237" width="2.447" height="2.448" transform="translate(18.748 43.172) rotate(-90)" fill="#e6d09d"/>
        <rect id="Rectángulo_45238-2" data-name="Rectángulo 45238" width="2.448" height="2.448" transform="translate(18.748 48.373) rotate(-90)" fill="#e6d09d"/>
        <rect id="Rectángulo_45239-2" data-name="Rectángulo 45239" width="2.447" height="2.448" transform="translate(18.748 53.574) rotate(-90)" fill="#e6d09d"/>
        <rect id="Rectángulo_45240-2" data-name="Rectángulo 45240" width="2.448" height="2.448" transform="translate(18.748 58.775) rotate(-90)" fill="#e6d09d"/>
        <rect id="Rectángulo_46139" data-name="Rectángulo 46139" width="2.448" height="2.448" transform="translate(18.748 74.377) rotate(-90)" fill="#e6d09d"/>
        <rect id="Rectángulo_46152" data-name="Rectángulo 46152" width="2.448" height="2.448" transform="translate(18.748 89.979) rotate(-90)" fill="#e6d09d"/>
        <rect id="Rectángulo_45241-2" data-name="Rectángulo 45241" width="2.448" height="2.448" transform="translate(18.748 63.975) rotate(-90)" fill="#e6d09d"/>
        <rect id="Rectángulo_46131" data-name="Rectángulo 46131" width="2.448" height="2.448" transform="translate(18.748 79.577) rotate(-90)" fill="#e6d09d"/>
        <rect id="Rectángulo_46153" data-name="Rectángulo 46153" width="2.448" height="2.448" transform="translate(18.748 95.179) rotate(-90)" fill="#e6d09d"/>
        <rect id="Rectángulo_46172" data-name="Rectángulo 46172" width="2.448" height="2.448" transform="translate(18.748 105.58) rotate(-90)" fill="#e6d09d"/>
        <rect id="Rectángulo_45242-2" data-name="Rectángulo 45242" width="2.448" height="2.448" transform="translate(18.748 69.176) rotate(-90)" fill="#e6d09d"/>
        <rect id="Rectángulo_46132" data-name="Rectángulo 46132" width="2.448" height="2.448" transform="translate(18.748 84.778) rotate(-90)" fill="#e6d09d"/>
        <rect id="Rectángulo_46154" data-name="Rectángulo 46154" width="2.448" height="2.448" transform="translate(18.748 100.38) rotate(-90)" fill="#e6d09d"/>
        <rect id="Rectángulo_46166" data-name="Rectángulo 46166" width="2.448" height="2.448" transform="translate(18.748 110.781) rotate(-90)" fill="#e6d09d"/>
        <rect id="Rectángulo_45243-2" data-name="Rectángulo 45243" width="2.448" height="2.448" transform="translate(23.535 17.169) rotate(-90)" fill="#e6d09d"/>
        <rect id="Rectángulo_45244-2" data-name="Rectángulo 45244" width="2.448" height="2.448" transform="translate(23.535 22.37) rotate(-90)" fill="#e6d09d"/>
        <rect id="Rectángulo_45245-2" data-name="Rectángulo 45245" width="2.448" height="2.448" transform="translate(23.535 27.57) rotate(-90)" fill="#e6d09d"/>
        <rect id="Rectángulo_45246-2" data-name="Rectángulo 45246" width="2.447" height="2.448" transform="translate(23.535 32.771) rotate(-90)" fill="#e6d09d"/>
        <rect id="Rectángulo_45247-2" data-name="Rectángulo 45247" width="2.448" height="2.448" transform="translate(23.535 37.972) rotate(-90)" fill="#e6d09d"/>
        <rect id="Rectángulo_45248-2" data-name="Rectángulo 45248" width="2.447" height="2.448" transform="translate(23.535 43.172) rotate(-90)" fill="#e6d09d"/>
        <rect id="Rectángulo_45249-2" data-name="Rectángulo 45249" width="2.448" height="2.448" transform="translate(23.535 48.373) rotate(-90)" fill="#e6d09d"/>
        <rect id="Rectángulo_45250-2" data-name="Rectángulo 45250" width="2.447" height="2.448" transform="translate(23.535 53.574) rotate(-90)" fill="#e6d09d"/>
        <rect id="Rectángulo_45251-2" data-name="Rectángulo 45251" width="2.448" height="2.448" transform="translate(23.535 58.775) rotate(-90)" fill="#e6d09d"/>
        <rect id="Rectángulo_46140" data-name="Rectángulo 46140" width="2.448" height="2.448" transform="translate(23.535 74.377) rotate(-90)" fill="#e6d09d"/>
        <rect id="Rectángulo_46144" data-name="Rectángulo 46144" width="2.448" height="2.448" transform="translate(23.535 89.979) rotate(-90)" fill="#e6d09d"/>
        <rect id="Rectángulo_45252-2" data-name="Rectángulo 45252" width="2.448" height="2.448" transform="translate(23.535 63.975) rotate(-90)" fill="#e6d09d"/>
        <rect id="Rectángulo_46133" data-name="Rectángulo 46133" width="2.448" height="2.448" transform="translate(23.535 79.577) rotate(-90)" fill="#e6d09d"/>
        <rect id="Rectángulo_46145" data-name="Rectángulo 46145" width="2.448" height="2.448" transform="translate(23.535 95.179) rotate(-90)" fill="#e6d09d"/>
        <rect id="Rectángulo_46173" data-name="Rectángulo 46173" width="2.448" height="2.448" transform="translate(23.535 105.58) rotate(-90)" fill="#e6d09d"/>
        <rect id="Rectángulo_45253-2" data-name="Rectángulo 45253" width="2.448" height="2.448" transform="translate(23.535 69.176) rotate(-90)" fill="#e6d09d"/>
        <rect id="Rectángulo_46134" data-name="Rectángulo 46134" width="2.448" height="2.448" transform="translate(23.535 84.778) rotate(-90)" fill="#e6d09d"/>
        <rect id="Rectángulo_46155" data-name="Rectángulo 46155" width="2.448" height="2.448" transform="translate(23.535 100.38) rotate(-90)" fill="#e6d09d"/>
        <rect id="Rectángulo_46167" data-name="Rectángulo 46167" width="2.448" height="2.448" transform="translate(23.535 110.781) rotate(-90)" fill="#e6d09d"/>
      </g>
    </g>
    <g id="Group_1073903" data-name="Group 1073903" transform="translate(-89.269 65.965)">
      <g id="Group_1073902" data-name="Group 1073902" transform="translate(-35.322 -46.601)" clip-path="url(#clip-path-4)">
        <g id="Group_1073884" data-name="Group 1073884" transform="translate(101.157)">
          <g id="Group_1073883" data-name="Group 1073883" clip-path="url(#clip-path-5)">
            <path id="Path_611595" data-name="Path 611595" d="M120.793,46.94a7.611,7.611,0,0,0,2.074.922,35.847,35.847,0,0,0,5.284,1.482c2.114.408,4.041.61,5.434.753a8.3,8.3,0,0,0,2.275.095c.036-.2-3.407-.723-7.579-1.468-4.146-.839-7.418-1.988-7.488-1.784" transform="translate(-99.914 9.985)" fill="#455a64"/>
          </g>
        </g>
        <g id="Group_1074391" data-name="Group 1074391" transform="translate(10.316 37.675)">
          <g id="Group_1074390" data-name="Group 1074390" clip-path="url(#clip-path-6)">
            <g id="Group_1074389" data-name="Group 1074389" transform="translate(0 0)">
              <g id="Group_1074388" data-name="Group 1074388" clip-path="url(#clip-path-6)">
                <path id="Path_612898" data-name="Path 612898" d="M212.422,303.8,76.186,338.56a19.921,19.921,0,0,1-24.227-14.379L.623,122.948A19.921,19.921,0,0,1,15,98.721L151.237,63.966a19.921,19.921,0,0,1,24.227,14.379L226.8,279.577A19.921,19.921,0,0,1,212.422,303.8" transform="translate(0 -46.366)" fill="#9ac1df"/>
                <rect id="Rectangle_378747" data-name="Rectangle 378747" width="148.517" height="215.738" transform="matrix(0.969, -0.247, 0.247, 0.969, 13.966, 62.914)" fill="#f6f5f5"/>
                <path id="Path_612899" data-name="Path 612899" d="M248.225,97.764c20.84,81.5,48.552,179.145,44.949,203.248-39.328,14.218-86.23,27.527-136.045,40.485L123.435,130.27Z" transform="translate(-90.351 -71.561)" fill="#e4e4e4"/>
                <path id="Path_612900" data-name="Path 612900" d="M232.841,308.636c-60.3,26.1-102.173,37.346-136.894,43.508C88.371,304.012,70.22,225.471,52.111,147.054L127.9,127.9l69.711-12.964c21.642,80.664,40.819,155.381,35.226,193.7" transform="translate(-38.144 -84.128)" fill="#fff"/>
                <rect id="Rectangle_378748" data-name="Rectangle 378748" width="78.15" height="11.904" transform="translate(51.951 73.757) rotate(-12.963)" fill="#615842"/>
                <rect id="Rectangle_378749" data-name="Rectangle 378749" width="70.491" height="5.449" transform="matrix(0.975, -0.224, 0.224, 0.975, 81.208, 96.534)" fill="#615842"/>
                <rect id="Rectangle_378750" data-name="Rectangle 378750" width="47.914" height="5.449" transform="translate(83.873 108.112) rotate(-12.963)" fill="#bbb4a2"/>
                <rect id="Rectangle_378751" data-name="Rectangle 378751" width="16.688" height="16.688" transform="translate(43.379 105.571) rotate(-12.963)" fill="#fff"/>
                <rect id="Rectangle_378752" data-name="Rectangle 378752" width="16.688" height="16.688" transform="translate(43.379 105.571) rotate(-12.963)" fill="none" stroke="#615842" stroke-miterlimit="10" stroke-width="6"/>
                <path id="Path_612901" data-name="Path 612901" d="M175.43,369.34c.986,1.783,3.95,9.552,7.387,6.291.793-.752,1.228-2.316,1.719-3.277l2.649-5.185,5.3-10.369c.452-.886-2.823-1.982-3.391-.87l-4.709,9.217-2.354,4.608c-.545,1.066-1.6,4.326-2.676,4.865l2.009.126c.529.247-.932-2.088-.968-2.153l-1.828-3.305c-.5-.91-3.88-1.3-3.134.051" transform="translate(-128.332 -260.188)" fill="#ee6f57"/>
                <rect id="Rectangle_378753" data-name="Rectangle 378753" width="58.048" height="5.449" transform="translate(88.014 126.1) rotate(-12.963)" fill="#615842"/>
                <rect id="Rectangle_378754" data-name="Rectangle 378754" width="70.491" height="5.449" transform="matrix(0.975, -0.224, 0.224, 0.975, 90.679, 137.678)" fill="#bbb4a2"/>
                <rect id="Rectangle_378755" data-name="Rectangle 378755" width="16.688" height="16.688" transform="translate(50.184 135.137) rotate(-12.963)" fill="#fff"/>
                <rect id="Rectangle_378756" data-name="Rectangle 378756" width="16.688" height="16.688" transform="translate(50.184 135.137) rotate(-12.963)" fill="none" stroke="#615842" stroke-miterlimit="10" stroke-width="6"/>
                <path id="Path_612902" data-name="Path 612902" d="M201.216,481.361c.986,1.784,3.95,9.552,7.387,6.291.793-.752,1.227-2.316,1.718-3.277l2.649-5.185,5.3-10.369c.452-.886-2.823-1.982-3.391-.87l-4.709,9.217-2.354,4.609c-.545,1.066-1.6,4.326-2.675,4.865l2.009.126c.529.247-.932-2.088-.968-2.153l-1.828-3.305c-.5-.91-3.88-1.3-3.134.051" transform="translate(-147.207 -342.184)" fill="#ee6f57"/>
                <rect id="Rectangle_378757" data-name="Rectangle 378757" width="70.491" height="5.449" transform="matrix(0.975, -0.224, 0.224, 0.975, 94.82, 155.666)" fill="#615842"/>
                <rect id="Rectangle_378758" data-name="Rectangle 378758" width="31.525" height="5.449" transform="translate(97.484 167.243) rotate(-12.963)" fill="#bbb4a2"/>
                <rect id="Rectangle_378759" data-name="Rectangle 378759" width="16.688" height="16.688" transform="translate(56.99 164.703) rotate(-12.963)" fill="#fff"/>
                <rect id="Rectangle_378760" data-name="Rectangle 378760" width="16.688" height="16.688" transform="translate(56.99 164.703) rotate(-12.963)" fill="none" stroke="#615842" stroke-miterlimit="10" stroke-width="6"/>
                <path id="Path_612903" data-name="Path 612903" d="M227.626,592.242c.986,1.783,3.95,9.552,7.387,6.291.793-.752,1.227-2.316,1.718-3.277l2.649-5.185,5.3-10.369c.452-.886-2.823-1.982-3.391-.87l-4.709,9.217-2.354,4.608c-.545,1.066-1.6,4.326-2.675,4.865l2.009.126c.529.247-.932-2.088-.968-2.153l-1.828-3.305c-.5-.91-3.88-1.3-3.134.051" transform="translate(-166.538 -423.346)" fill="#ee6f57"/>
                <rect id="Rectangle_378761" data-name="Rectangle 378761" width="70.491" height="5.449" transform="matrix(0.975, -0.224, 0.224, 0.975, 101.625, 185.232)" fill="#615842"/>
                <rect id="Rectangle_378762" data-name="Rectangle 378762" width="55.685" height="5.449" transform="matrix(0.975, -0.224, 0.224, 0.975, 104.29, 196.809)" fill="#bbb4a2"/>
                <rect id="Rectangle_378763" data-name="Rectangle 378763" width="16.688" height="16.688" transform="translate(63.796 194.269) rotate(-12.963)" fill="#fff"/>
                <rect id="Rectangle_378764" data-name="Rectangle 378764" width="16.688" height="16.688" transform="translate(63.796 194.269) rotate(-12.963)" fill="none" stroke="#615842" stroke-miterlimit="10" stroke-width="6"/>
                <path id="Path_612904" data-name="Path 612904" d="M252.852,701.827c.986,1.783,3.95,9.552,7.387,6.291.793-.752,1.227-2.316,1.718-3.277l2.649-5.185,5.3-10.369c.452-.886-2.823-1.982-3.391-.87l-4.709,9.217-2.354,4.608c-.544,1.066-1.6,4.326-2.675,4.865l2.009.126c.529.247-.932-2.088-.968-2.153l-1.828-3.305c-.5-.91-3.881-1.3-3.134.051" transform="translate(-185.002 -503.559)" fill="#ee6f57"/>
                <rect id="Rectangle_378765" data-name="Rectangle 378765" width="27.943" height="5.449" transform="translate(108.38 214.575) rotate(-12.963)" fill="#615842"/>
                <path id="Path_612905" data-name="Path 612905" d="M483,784.767,414.3,800.58l1.222,5.31c26.577-6.12,60.53-13.464,67.125-16.268a6.114,6.114,0,0,0,.347-4.855" transform="translate(-303.259 -574.428)" fill="#bbb4a2"/>
                <rect id="Rectangle_378766" data-name="Rectangle 378766" width="16.688" height="16.688" transform="translate(70.778 223.559) rotate(-12.963)" fill="#fff"/>
                <rect id="Rectangle_378767" data-name="Rectangle 378767" width="16.688" height="16.688" transform="translate(70.778 223.559) rotate(-12.963)" fill="none" stroke="#615842" stroke-miterlimit="10" stroke-width="6"/>
                <path id="Path_612906" data-name="Path 612906" d="M277.857,810.453c.986,1.783,3.95,9.552,7.387,6.291.793-.752,1.227-2.316,1.718-3.277l2.649-5.185,5.3-10.369c.452-.886-2.823-1.982-3.391-.87l-4.709,9.217-2.354,4.608c-.545,1.066-1.6,4.326-2.675,4.865l2.009.126c.529.247-.932-2.088-.968-2.153l-1.828-3.305c-.5-.91-3.881-1.3-3.134.051" transform="translate(-203.305 -583.071)" fill="#ee6f57"/>
                <path id="Path_612910" data-name="Path 612910" d="M256.76,138.182c3.632-.687,7.026-6.755,8.205-9.081a2.889,2.889,0,0,0,.261-1.846l-1.445-7.66s-3.335.567-3.077,5.008a3.272,3.272,0,0,1-.232,1.352l-1.277,3.34-3.774-2.922,2.07-5.844s2.77.761,4.2.3c2.937-.937-.913-3.226-2.131-3.47s-3.9-1.217-5.114.852S252.5,121.5,252.5,121.5s-1.339-4.627-.426-14.976c.041-.466-1.126-.456-1.453-.122-.98,1-2.542,4.035-2.625,13.272,0,0-.163-10.764-2.009-11.871-1.522-.913-2.291,4.355-1.218,13.289,0,0-1.987-7.736-3.408-7.749-2.4-.023-.032,20.659,6,26.824Z" transform="translate(-175.991 -77.709)" fill="#f9b384"/>
                <path id="Path_612911" data-name="Path 612911" d="M258.864,213.813q.161,1.544.354,2.991v.011a86.938,86.938,0,0,0,1.587,9.124c.032.129.054.247.086.365,1.833,7.515,2.166,11.193,8.427,10.206l6.443-7.333.064-.075.472-.536-1.308-3.86-.172-.5-.965-2.809-.118-.365-1.651-4.835-.665-1.962Z" transform="translate(-189.481 -156.506)" fill="#f9b384"/>
                <path id="Path_612912" data-name="Path 612912" d="M663.8,1210.075l1.64,5.126c11.246,3.695,17.805,7.927,18.226,12.865H651.144l-2.607-17.163a25.225,25.225,0,0,0,15.262-.828" transform="translate(-474.711 -885.742)" fill="#2d2828"/>
                <path id="Path_612913" data-name="Path 612913" d="M655.128,1162.533l4.077,12.743a25.228,25.228,0,0,1-15.261.828l-1.681-11.069Z" transform="translate(-470.119 -850.943)" fill="#f9b384"/>
                <path id="Path_612914" data-name="Path 612914" d="M480.218,1172.512l-.954-12.979,15.277.8.835,11.964a25,25,0,0,1-15.158.21" transform="translate(-350.808 -848.747)" fill="#f9b384"/>
                <path id="Path_612915" data-name="Path 612915" d="M414.264,1225.941c.42-4.938,6.165-11.7,18.762-13.312l-.386-5.247a25,25,0,0,0,15.158-.21l1.31,18.769Z" transform="translate(-303.23 -883.617)" fill="#2d2828"/>
                <path id="Path_612916" data-name="Path 612916" d="M529.024,162.28l18.43.129V134.534H529.581l-.011,1.7-.086,8.834-.129,14.184Z" transform="translate(-387.231 -98.475)" fill="#f9b384"/>
                <path id="Path_612917" data-name="Path 612917" d="M530.744,154.727c3.313,3.484,11.954-.45,15.6-4.288l-15.513-4.546Z" transform="translate(-388.49 -106.79)" fill="#e28b6d"/>
                <path id="Path_612918" data-name="Path 612918" d="M514.778,59.823a39.876,39.876,0,0,0,.483,6.272c.9,5.618,3.281,10.475,8.77,10.625,12.973.376,16.671-7.044,19.116-13.112s-1.522-20.692-1.522-20.692l-16.789-1.662-9.22,7.558a68.8,68.8,0,0,0-.836,11.011" transform="translate(-376.801 -30.197)" fill="#f9b384"/>
                <path id="Path_612919" data-name="Path 612919" d="M521.473,29.936s-3.7-.17-4.333-9.723c-6.618,2.215-11.454.2-15.285-4.212-3.27,4.318-12.422,5.67-15.513-3.17-2.234-6.388,3.931-15.9,12.91-10.14,8.8-4.446,22.147-4.141,25.987,6.764,0,0,13.352,6.156-.786,19.711a16.337,16.337,0,0,1-2.98.771" transform="translate(-355.652 -0.001)" fill="#102048"/>
                <path id="Path_612920" data-name="Path 612920" d="M428.257,611.833l10.187,154.035h23.944L456.4,616.4l-3.663-1.7Z" transform="translate(-313.473 -447.846)" fill="#30404b"/>
                <path id="Path_612921" data-name="Path 612921" d="M487.209,501.969l16.8,175.111H477.917L453.08,531.631l-28.232-8.577L423.6,491.963l62.9-1.43Z" transform="translate(-310.062 -359.057)" fill="#445866"/>
                <g id="Group_1074366" data-name="Group 1074366" transform="translate(118.779 125.574)" opacity="0.6">
                  <g id="Group_1074365" data-name="Group 1074365">
                    <g id="Group_1074364" data-name="Group 1074364" clip-path="url(#clip-path-8)">
                      <path id="Path_612922" data-name="Path 612922" d="M497.785,486.233c-14.249,5.115-47.681-.731-54.623-7.855l4.933-9.865,54.988,7.307Z" transform="translate(-443.162 -468.512)" fill="#102048"/>
                    </g>
                  </g>
                </g>
                <path id="Path_612923" data-name="Path 612923" d="M447.944,280.58c.461.193.932.4,1.415.579a96.769,96.769,0,0,0,17.861,5.318,81.961,81.961,0,0,0,11.975,1.469,69.2,69.2,0,0,0,18.8-1.522l-7.987-74.469-.976-9.081s-10.453,12.865-21.978-1.34Z" transform="translate(-327.883 -147.517)" fill="#fff"/>
                <g id="Group_1074369" data-name="Group 1074369" transform="translate(148.901 60.314)" opacity="0.3">
                  <g id="Group_1074368" data-name="Group 1074368">
                    <g id="Group_1074367" data-name="Group 1074367" clip-path="url(#clip-path-9)">
                      <path id="Path_612924" data-name="Path 612924" d="M557.956,305.146a69.195,69.195,0,0,0,18.8-1.522l-7.987-74.469-2.852-4.122c-7.044,17.132-14.259,55.069-7.966,80.113" transform="translate(-555.543 -225.032)" fill="#1f3c88"/>
                    </g>
                  </g>
                </g>
                <path id="Path_612925" data-name="Path 612925" d="M578.219,195.533c-7.942,33.718-11.209,68.414.491,106.943,8.677,3.3,18.124,3.263,28.232.357l-2.5-70.044,58.877,40.472,3.574-22.067c-22.633-21.641-61.764-54.334-88.672-55.661" transform="translate(-418.002 -143.125)" fill="#e6d09d"/>
                <g id="Group_1074372" data-name="Group 1074372" transform="translate(121.476 70.097)" opacity="0.3">
                  <g id="Group_1074371" data-name="Group 1074371">
                    <g id="Group_1074370" data-name="Group 1074370" clip-path="url(#clip-path-10)">
                      <path id="Path_612926" data-name="Path 612926" d="M453.224,325.077a96.779,96.779,0,0,0,17.861,5.318c3.549-20.349,4.331-53.777,1.447-68.862Z" transform="translate(-453.224 -261.532)" fill="#1f3c88"/>
                    </g>
                  </g>
                </g>
                <g id="Group_1074375" data-name="Group 1074375" transform="translate(71.323 64.522)" opacity="0.6">
                  <g id="Group_1074374" data-name="Group 1074374">
                    <g id="Group_1074373" data-name="Group 1074373" clip-path="url(#clip-path-11)">
                      <path id="Path_612927" data-name="Path 612927" d="M266.1,245.644c.032.129.054.247.086.365,1.833,7.515,2.166,11.193,8.427,10.206l6.443-7.333.064-.075-.836-4.4-.172-.5-.965-2.809-.118-.365Z" transform="translate(-266.104 -240.733)" fill="#e28b6d"/>
                    </g>
                  </g>
                </g>
                <path id="Path_612928" data-name="Path 612928" d="M270.264,218.289s15.814,33.5,25.195,34.307c9.094.779,13.4-8.041,13.4-8.041l-6.433,48.963a41.052,41.052,0,0,0,25.377,3.57c8.5-27.607,11.716-63.3,12.348-103.057-6.883.429-20.515,1.017-25.4,4.154-8.756,5.629-19.566,25.731-19.566,25.731l-12.6-17.154Z" transform="translate(-197.826 -142.027)" fill="#e6d09d"/>
                <path id="Path_612929" data-name="Path 612929" d="M969.065,66.632s-.957-16.027-2.588-15.271-4.9,14.692-4.9,14.692l3.5,5.645Z" transform="translate(-703.846 -37.576)" fill="#6f3428"/>
                <path id="Path_612930" data-name="Path 612930" d="M808.484,1188.2l-.474,5.275a16.929,16.929,0,0,0,15.346,18.375l1.356.122a16.929,16.929,0,0,0,18.376-15.346l.474-5.275Z" transform="translate(-591.391 -869.731)" fill="#ee6f57"/>
                <rect id="Rectangle_378772" data-name="Rectangle 378772" width="256.448" height="35.219" transform="matrix(0.089, -0.996, 0.996, 0.089, 217.093, 318.47)" fill="#fbc343"/>
                <g id="Group_1074378" data-name="Group 1074378" transform="translate(230.536 57.781)" opacity="0.3">
                  <g id="Group_1074377" data-name="Group 1074377">
                    <g id="Group_1074376" data-name="Group 1074376" clip-path="url(#clip-path-12)">
                      <rect id="Rectangle_378773" data-name="Rectangle 378773" width="224.785" height="12.508" transform="translate(1.164 225.047) rotate(-84.866)" fill="none" stroke="#6f3428" stroke-miterlimit="10" stroke-width="8"/>
                    </g>
                  </g>
                </g>
                <path id="Path_612931" data-name="Path 612931" d="M809.984,1080.555l35.069,3.152.922-10.292.643-7.151,1.983-21.978-35.079-3.152-1.973,21.978-.643,7.151Z" transform="translate(-592.886 -762.081)" fill="#102048"/>
                <rect id="Rectangle_378775" data-name="Rectangle 378775" width="7.18" height="35.21" transform="matrix(0.09, -0.996, 0.996, 0.09, 218.02, 308.181)" fill="#fbc343"/>
                <path id="Path_612932" data-name="Path 612932" d="M930.671,137.551,920.927,98.5a8.375,8.375,0,0,1-7.443-1.028L895.591,134.4Z" transform="translate(-655.548 -71.349)" fill="#e6d09d"/>
                <path id="Path_612933" data-name="Path 612933" d="M604.678,100.863c.157-.576,2.775-1.368,3.352-1.527a4.02,4.02,0,0,1,2.734.025c3.166,1.43,2.743,5.964,1.1,8.346a7.139,7.139,0,0,1-3.872,2.841c-.575.165-6.02.23-5.781-.646,0,0,2.46-9.02,2.465-9.04" transform="translate(-440.798 -72.545)" fill="#f9b384"/>
                <path id="Path_612934" data-name="Path 612934" d="M980.329,436.228a4.767,4.767,0,0,1,6.091-3.147c3.99,1.377,7.466,3.715,8,7.692.49,3.621-1.321,15.188-9.41,16.674l.66-5.943s-4.953-1.156-5.943-3.3c-.693-1.5-.74-7.778.6-11.974" transform="translate(-716.788 -316.813)" fill="#f9b384"/>
                <path id="Path_612935" data-name="Path 612935" d="M413.728,297.109c-.425,2.531-.787,5.07-1.135,7.611s-.645,5.087-.971,7.63L410.79,320c-.242,2.553-.48,5.106-.636,7.669l.416.049c.439-2.53.8-5.069,1.15-7.609l.956-7.632c.269-2.549.579-5.094.816-7.648s.482-5.106.652-7.667Z" transform="translate(-300.222 -217.476)" fill="#1f3c88"/>
                <path id="Path_612936" data-name="Path 612936" d="M692.483,295.516c.006,2.843.075,5.682.159,8.521s.218,5.675.324,8.514l.465,8.507c.19,2.834.385,5.668.66,8.5l.419-.02c.008-2.843-.065-5.683-.144-8.522l-.339-8.513c-.162-2.835-.284-5.673-.48-8.506s-.383-5.668-.645-8.5Z" transform="translate(-506.879 -216.295)" fill="#1f3c88"/>
                <path id="Path_612937" data-name="Path 612937" d="M562.719,100.416a1.685,1.685,0,0,0,.93,2.131c.74.166,1.524-.519,1.751-1.53a1.685,1.685,0,0,0-.93-2.131c-.74-.166-1.524.519-1.751,1.53" transform="translate(-411.85 -72.364)" fill="#102048"/>
                <path id="Path_612938" data-name="Path 612938" d="M523.012,94.72c.044,1.035.694,1.849,1.452,1.816s1.337-.9,1.293-1.933-.694-1.848-1.452-1.816-1.337.9-1.293,1.932" transform="translate(-382.828 -67.918)" fill="#102048"/>
                <path id="Path_612939" data-name="Path 612939" d="M535.241,103.168a24.274,24.274,0,0,0-.547,2.567,2.01,2.01,0,0,1-.519.891,3.392,3.392,0,0,1-1.006.495,2.8,2.8,0,0,0-1.27.957,1.663,1.663,0,0,0-.13,1.754,3.3,3.3,0,0,0,1.048,1.06c.368.248.722.512,1.1.744l.276-.316c-.281-.347-.591-.662-.886-.993a3.13,3.13,0,0,1-.692-.9c-.227-.5.259-1.039.963-1.319a3.736,3.736,0,0,0,1.307-.742,2.615,2.615,0,0,0,.688-1.418c.177-.993-.026-1.843.071-2.669Z" transform="translate(-389.099 -75.516)" fill="#e28b6d"/>
                <path id="Path_612940" data-name="Path 612940" d="M564.444,87.968A3.119,3.119,0,0,0,563.35,86.3a3.331,3.331,0,0,0-1.943-.727,3.6,3.6,0,0,0-3.38,1.9l.328.261a4.6,4.6,0,0,1,3-1.094,3.5,3.5,0,0,1,2.709,1.51Z" transform="translate(-408.46 -62.63)" fill="#102048"/>
                <path id="Path_612941" data-name="Path 612941" d="M526.469,83.783a3.228,3.228,0,0,0-.841-1.354,2.8,2.8,0,0,0-1.522-.753,2.669,2.669,0,0,0-2.843,1.418l.335.251a3.4,3.4,0,0,1,2.35-.614,3.015,3.015,0,0,1,1.12.41,7.415,7.415,0,0,1,1.04.856Z" transform="translate(-381.55 -59.758)" fill="#102048"/>
                <path id="Path_612942" data-name="Path 612942" d="M545.629,141.907c-1.872,2.93-4.366,3.248-6.292.165Z" transform="translate(-394.78 -103.872)" fill="#fff"/>
                <g id="Group_1074381" data-name="Group 1074381" transform="translate(137.926 28.912)" opacity="0.4">
                  <g id="Group_1074380" data-name="Group 1074380">
                    <g id="Group_1074379" data-name="Group 1074379" clip-path="url(#clip-path-13)">
                      <path id="Path_612943" data-name="Path 612943" d="M514.6,107.867a49.44,49.44,0,0,0,.533,6.987,3.229,3.229,0,0,0,2.241-3.077c0-1.619-1.24-3.663-2.773-3.91" transform="translate(-514.597 -107.868)" fill="#fc8879"/>
                    </g>
                  </g>
                </g>
                <g id="Group_1074384" data-name="Group 1074384" transform="translate(151.962 31.279)" opacity="0.4">
                  <g id="Group_1074383" data-name="Group 1074383">
                    <g id="Group_1074382" data-name="Group 1074382" clip-path="url(#clip-path-14)">
                      <path id="Path_612944" data-name="Path 612944" d="M566.965,120.158a3.457,3.457,0,1,0,3.457-3.457,3.457,3.457,0,0,0-3.457,3.457" transform="translate(-566.965 -116.701)" fill="#fc8879"/>
                    </g>
                  </g>
                </g>
                <path id="Path_612945" data-name="Path 612945" d="M618.975,111.689a17.3,17.3,0,0,1,1.933-1.273,1.688,1.688,0,0,1,.853-.221,1.911,1.911,0,0,1,.892.409l.352-.228a1.667,1.667,0,0,0-1.018-1.1,1.99,1.99,0,0,0-1.551.179,4.015,4.015,0,0,0-1.793,1.975Z" transform="translate(-452.828 -79.926)" fill="#e28b6d"/>
                <g id="Group_1074387" data-name="Group 1074387" transform="translate(262.944 131.389)" opacity="0.6">
                  <g id="Group_1074386" data-name="Group 1074386">
                    <g id="Group_1074385" data-name="Group 1074385" clip-path="url(#clip-path-15)">
                      <path id="Path_612946" data-name="Path 612946" d="M981.034,490.207l4.976,15.12,1.028-11.816a10.311,10.311,0,0,1-6-3.3" transform="translate(-981.034 -490.207)" fill="#6f3428"/>
                    </g>
                  </g>
                </g>
              </g>
            </g>
          </g>
        </g>
      </g>
    </g>
  </g>
</svg>
