<svg xmlns="http://www.w3.org/2000/svg" xmlns:xlink="http://www.w3.org/1999/xlink" width="125" height="125" viewBox="0 0 125 125">
  <defs>
    <clipPath id="clip-path">
      <rect id="Rectangle_378675" data-name="Rectangle 378675" width="91" height="91" transform="translate(404 1177)" fill="#fff" stroke="#707070" stroke-width="1"/>
    </clipPath>
    <clipPath id="clip-path-2">
      <rect id="Rectangle_378680" data-name="Rectangle 378680" width="81" height="72.249" fill="#615842"/>
    </clipPath>
  </defs>
  <g id="Group_1074722" data-name="Group 1074722" transform="translate(-7305 9703.856)">
    <g id="Group_1074244" data-name="Group 1074244" transform="translate(6919 -11849.856)">
      <path id="Path_608385" data-name="Path 608385" d="M62.5,0A62.5,62.5,0,1,1,0,62.5,62.5,62.5,0,0,1,62.5,0Z" transform="translate(386 2146)" fill="#fff"/>
    </g>
    <g id="Mask_Group_154406" data-name="Mask Group 154406" transform="translate(6918 -10863)" clip-path="url(#clip-path)">
      <g id="Group_1074246" data-name="Group 1074246" transform="translate(445 1143.459)">
        <g id="Group_1074254" data-name="Group 1074254" transform="translate(-36 46)">
          <g id="Group_1074253" data-name="Group 1074253" clip-path="url(#clip-path-2)">
            <path id="Path_612449" data-name="Path 612449" d="M68.459,33.554c2.67,9.017.437,16.574-6.518,22.839.2.2.423.433.649.658q3.39,3.38,6.782,6.758c1.58,1.572,3.149,3.153,4.752,4.7a2.191,2.191,0,0,0,3.262-.235,2.318,2.318,0,0,0-.176-2.92c-1.072-1.108-2.175-2.187-3.265-3.277-.4-.4-.808-.794-1.206-1.2a7.572,7.572,0,0,1-.531-.59,1.46,1.46,0,0,1,.537-2.353,1.332,1.332,0,0,1,1.348.055,3.511,3.511,0,0,1,.65.514c1.555,1.545,3.13,3.072,4.647,4.654A5.264,5.264,0,0,1,77.5,71.856a4.853,4.853,0,0,1-5.128-.808c-1.237-1.03-2.362-2.2-3.506-3.335q-4.6-4.573-9.179-9.172c-.4-.4-.408-.406-.923-.123A20.3,20.3,0,0,1,49.4,60.9a19.8,19.8,0,0,1-7.393-1.283,20.627,20.627,0,0,1-6.592-3.94,20.084,20.084,0,0,1-5.606-8.16A19,19,0,0,1,28.77,37.37c.221-1.215.557-2.408.84-3.612.011-.046.017-.093.037-.2h-.464c-7.4,0-14.8.021-22.2-.013a6.727,6.727,0,0,1-5.708-2.655A5.936,5.936,0,0,1,.087,27.721c-.049-.66-.08-1.322-.081-1.984Q0,16.414.007,7.091a7.067,7.067,0,0,1,1-4A6.229,6.229,0,0,1,5.726.174C6.74.063,7.766.044,8.788.022c1.168-.024,2.339-.035,3.507,0a1.918,1.918,0,0,1,1.945,1.107,1.511,1.511,0,0,1-.956,1.978,2.673,2.673,0,0,1-.677.083c-2.037.006-4.074-.007-6.111.008a3.339,3.339,0,0,0-2.447.985,2.816,2.816,0,0,0-.862,2.04q0,10.57,0,21.14a3.058,3.058,0,0,0,2.572,2.926,4.7,4.7,0,0,0,.861.075q12.076.006,24.153.01a.62.62,0,0,0,.632-.369,20.212,20.212,0,0,1,4.205-5.017,19.891,19.891,0,0,1,4.763-3.083l-2.982-5.767c-.436.914-.836,1.757-1.24,2.6s-.792,1.7-1.236,2.527a2.663,2.663,0,0,1-.767.92,1.365,1.365,0,0,1-1.883-.283,4.04,4.04,0,0,1-.51-.782q-1.908-3.644-3.8-7.3a1.86,1.86,0,0,1-.242-1.716,1.464,1.464,0,0,1,2.488-.443,9.346,9.346,0,0,1,1.035,1.723c.611,1.146,1.2,2.306,1.794,3.459.077.149.171.289.289.488a3.76,3.76,0,0,0,.242-.373q1.114-2.306,2.221-4.616c.042-.086.081-.175.128-.258a1.615,1.615,0,0,1,1.438-.938,1.557,1.557,0,0,1,1.405.925c.469.867.918,1.746,1.369,2.623.429.833.851,1.671,1.279,2.505a1.4,1.4,0,0,0,.157.2c.307-.639.6-1.248.893-1.858.489-1.019.973-2.04,1.468-3.056a4.226,4.226,0,0,1,.423-.712,1.453,1.453,0,0,1,1.833-.46A1.411,1.411,0,0,1,47,13.07a8.962,8.962,0,0,1-.553,1.327c-.963,2.006-1.937,4.006-2.9,6.009-.045.094-.078.193-.148.366a20.459,20.459,0,0,1,8.626-.607c-.086-.188-.129-.294-.181-.4q-1.605-3.09-3.212-6.178a1.57,1.57,0,0,1-.02-1.707A1.5,1.5,0,0,1,51,11.653a3.4,3.4,0,0,1,.5.747c.783,1.491,1.554,2.988,2.33,4.482.082.158.175.309.293.517.3-.616.581-1.18.855-1.748.491-1.018.977-2.039,1.47-3.056a6.659,6.659,0,0,1,.395-.729,1.462,1.462,0,0,1,2.464-.1,12.1,12.1,0,0,1,.869,1.536c.7,1.327,1.389,2.66,2.127,4.077.128-.222.24-.394.329-.577.722-1.494,1.437-2.991,2.161-4.484a2.325,2.325,0,0,1,.36-.579,1.442,1.442,0,0,1,1.549-.519,1.484,1.484,0,0,1,1.151,1.335,2.373,2.373,0,0,1-.283,1.094c-.652,1.408-1.336,2.8-2.008,4.2q-.774,1.61-1.548,3.218-.11.228-.227.451a1.57,1.57,0,0,1-1.409.918,1.5,1.5,0,0,1-1.408-.9c-.539-1.021-1.065-2.049-1.6-3.073-.377-.723-.758-1.445-1.138-2.167l-.11-.019-2.323,4.8c.278.124.533.251.8.355a20.175,20.175,0,0,1,8.338,6.088c.67.815,1.23,1.722,1.82,2.6a.49.49,0,0,0,.462.259c2.471,0,4.941.013,7.412-.006a3.2,3.2,0,0,0,3.206-3.241q-.06-10.352,0-20.706a3.217,3.217,0,0,0-3.2-3.224c-.12-.006-.241,0-.361,0q-23.665,0-47.329,0a1.708,1.708,0,0,1-1.7-.8A1.449,1.449,0,0,1,25.9.333,3.524,3.524,0,0,1,27.22.03q23.321-.023,46.642,0a7.573,7.573,0,0,1,3.828.9,6.073,6.073,0,0,1,3.234,5.1c.055.792.07,1.588.071,2.382q.008,8.926,0,17.851a7.518,7.518,0,0,1-.826,3.945,6.329,6.329,0,0,1-4.45,3.141,21.383,21.383,0,0,1-3.889.2c-1.107.01-2.214,0-3.371,0m-19.4,24.241A17.349,17.349,0,1,0,31.633,40.446,17.344,17.344,0,0,0,49.054,57.795" transform="translate(0 -0.001)" fill="#615842"/>
            <path id="Path_612450" data-name="Path 612450" d="M29.249,44.678c.854-1.769,1.685-3.487,2.512-5.206a1.606,1.606,0,0,1,1.446-1.032,1.559,1.559,0,0,1,1.457.957c.834,1.586,1.656,3.178,2.486,4.766.076.146.17.282.29.477.107-.2.19-.334.26-.479q1.108-2.288,2.214-4.578a1.9,1.9,0,0,1,.9-.993,1.479,1.479,0,0,1,1.693.319,1.365,1.365,0,0,1,.345,1.676c-.677,1.449-1.37,2.89-2.063,4.331-.537,1.116-1.082,2.228-1.625,3.341-.1.205-.194.415-.311.611a1.506,1.506,0,0,1-2.716.023c-.5-.848-.934-1.736-1.388-2.611s-.9-1.755-1.346-2.632c-.015-.028-.051-.046-.13-.113-.129.242-.256.463-.367.692q-1.07,2.207-2.134,4.417a3.006,3.006,0,0,1-.153.286,1.513,1.513,0,0,1-2.65.023c-.446-.726-.812-1.5-1.206-2.258Q25.257,43.8,23.755,40.9a1.638,1.638,0,0,1-.141-1.521,1.539,1.539,0,0,1,1.363-.929,1.494,1.494,0,0,1,1.413.846c.45.8.855,1.615,1.278,2.425q.71,1.359,1.419,2.718a2.7,2.7,0,0,0,.161.238" transform="translate(-16.67 -27.289)" fill="#615842"/>
            <path id="Path_612451" data-name="Path 612451" d="M66.477,1.966a1.54,1.54,0,0,1-1.539,1.529A1.565,1.565,0,0,1,63.4,1.986a1.536,1.536,0,1,1,3.073-.02" transform="translate(-45.012 -0.298)" fill="#615842"/>
            <path id="Path_612452" data-name="Path 612452" d="M236.195,189.389a1.612,1.612,0,0,1-1.547-1.52,1.661,1.661,0,0,1,1.567-1.544,1.569,1.569,0,0,1,1.519,1.528,1.54,1.54,0,0,1-1.539,1.537" transform="translate(-166.58 -132.274)" fill="#615842"/>
            <path id="Path_612453" data-name="Path 612453" d="M121.094,105.549a13.9,13.9,0,0,1,27.8-.215,13.71,13.71,0,0,1-13.582,14,13.861,13.861,0,0,1-14.222-13.78m13.94-10.687a11.169,11.169,0,0,0-2.758.267,10.191,10.191,0,0,0-3.567,1.678,10.5,10.5,0,0,0-4.28,10.642,10.79,10.79,0,0,0,8.506,8.586,11.294,11.294,0,0,0,5.276-.285,10.72,10.72,0,0,0,7.428-11.956,10.509,10.509,0,0,0-2.08-4.814,10.186,10.186,0,0,0-8.525-4.119" transform="translate(-85.967 -65.082)" fill="#615842"/>
            <path id="Path_612454" data-name="Path 612454" d="M172.375,121.819a1.606,1.606,0,0,1-1.188,1.69,1.507,1.507,0,0,1-1.753-.934,2.238,2.238,0,0,1-.217-.867,3.846,3.846,0,0,0-3.349-3.6q-.429-.057-.855-.133a1.42,1.42,0,0,1-1.189-1.113,1.386,1.386,0,0,1,.475-1.495,1.73,1.73,0,0,1,1.477-.4,8.542,8.542,0,0,1,3.073.965,7.112,7.112,0,0,1,3.409,4.79,9.632,9.632,0,0,1,.118,1.1" transform="translate(-116.261 -81.595)" fill="#615842"/>
          </g>
        </g>
      </g>
    </g>
  </g>
</svg>
