<svg xmlns="http://www.w3.org/2000/svg" xmlns:xlink="http://www.w3.org/1999/xlink" width="120" height="120" viewBox="0 0 120 120">
  <defs>
    <clipPath id="clip-path">
      <rect id="Rectangle_378971" data-name="Rectangle 378971" width="86" height="86" transform="translate(0.5 0.5)" fill="#fff" stroke="#707070" stroke-width="1"/>
    </clipPath>
    <clipPath id="clip-path-2">
      <rect id="Rectangle_378627" data-name="Rectangle 378627" width="77.684" height="70.382" fill="#615842"/>
    </clipPath>
  </defs>
  <g id="Group_1074716" data-name="Group 1074716" transform="translate(-180 -5340)">
    <g id="Group_1074186" data-name="Group 1074186" transform="translate(-89 4382)">
      <path id="Path_608974" data-name="Path 608974" d="M60,0A60,60,0,1,1,0,60,60,60,0,0,1,60,0Z" transform="translate(269 958)" fill="#ffe7af"/>
    </g>
    <g id="Group_1074706" data-name="Group 1074706" transform="translate(182.44 5407.833)">
      <g id="Mask_Group_154436" data-name="Mask Group 154436" transform="translate(14.06 -51.333)" clip-path="url(#clip-path)">
        <g id="Group_1074707" data-name="Group 1074707" transform="translate(4.5 8.5)">
          <g id="Group_1074195" data-name="Group 1074195" clip-path="url(#clip-path-2)">
            <path id="Path_612327" data-name="Path 612327" d="M75.318,58.364c.142.088.3.183.455.282A3.258,3.258,0,0,1,77.28,60.9c.107.584.269,1.158.358,1.744a3.046,3.046,0,0,1-2.325,3.589c-1.325.355-2.676.613-4.017.906-1.548.339-3.1.664-4.647,1q-3.806.835-7.609,1.683c-.647.144-1.291.306-1.934.467A3.161,3.161,0,0,1,53.4,68.179a16.235,16.235,0,0,1-.515-2.6,2.505,2.505,0,0,1,.414-1.9.324.324,0,0,0-.059-.307,20.667,20.667,0,0,1-5.413-7.4,1.043,1.043,0,0,0-1.131-.729c-5.862.028-11.724.013-17.586.013-7.707,0-15.415.042-23.122-.021a5.886,5.886,0,0,1-5.376-3.6,7.572,7.572,0,0,1-.6-3.52Q-.007,32.722,0,17.324c0-3.316-.01-6.633.007-9.949A12.291,12.291,0,0,1,.177,5.04,6.044,6.044,0,0,1,3.626.636,6.338,6.338,0,0,1,6.468.008Q18.449.015,30.43,0,47,0,63.571,0a8.831,8.831,0,0,1,2.735.287,6.237,6.237,0,0,1,4.177,4.05,6.973,6.973,0,0,1,.355,2.405q-.018,15.239-.017,30.479a.552.552,0,0,0,.386.6,3.36,3.36,0,0,1,2.02,2.434c.246,1.067.469,2.139.71,3.207.418,1.852.844,3.7,1.263,5.554.29,1.284.6,2.563.856,3.854a9.176,9.176,0,0,1-.335,4.354c-.109.378-.261.743-.4,1.141m-10.359-21.1V36.191q0-11.841-.008-23.681c0-2.055.017-4.11.013-6.165,0-.485-.032-.5-.529-.507-.782-.011-1.565-.01-2.347-.01H6.525c-.675,0-.679,0-.679.608q-.005,10.9-.009,21.791,0,10.142-.011,20.285c0,.989-.012.991,1,.991l37.766,0c.1,0,.2-.014.336-.025-.06-.12-.1-.2-.14-.279a3.208,3.208,0,0,1-.044-3.209c.945-1.815,3.027-2.132,4.82-1.5a6.674,6.674,0,0,1,2.554,1.972.786.786,0,0,1,.1.247l.126-.108a3.7,3.7,0,0,0-.044-.448q-.753-3.449-1.515-6.9c-.5-2.24-1.024-4.475-1.5-6.721a3.54,3.54,0,0,1,0-1.461,3.282,3.282,0,0,1,2.413-2.568,3.316,3.316,0,0,1,3.453.839,4.465,4.465,0,0,1,1.1,2.377c.469,2.114.928,4.23,1.388,6.334.083,0,.11.008.128,0,.188-.094.37-.2.561-.284a2.421,2.421,0,0,1,.52-.191,3.578,3.578,0,0,1,3.1.677c.152.124.248.1.385-.029a3.558,3.558,0,0,1,2.628-.967m9.088,16.512c-.116-.593-.3-1.647-.531-2.692-.521-2.378-1.063-4.751-1.6-7.126-.248-1.1-.481-2.209-.745-3.309a1.414,1.414,0,1,0-2.694.853c.276,1.274.58,2.543.865,3.815.114.511.231,1.024.305,1.543a1,1,0,0,1-.968,1.091,1.108,1.108,0,0,1-1.143-.958c-.136-.554-.237-1.116-.36-1.673-.368-1.661-.734-3.323-1.114-4.981a1.187,1.187,0,0,0-.629-.836,1.446,1.446,0,0,0-1.608.185,1.309,1.309,0,0,0-.447,1.479c.411,1.7.825,3.394,1.219,5.1a1.714,1.714,0,0,1,.015.784.937.937,0,0,1-.91.695.91.91,0,0,1-.978-.588c-.213-.613-.362-1.25-.519-1.881-.4-1.582-.761-3.172-1.176-4.75a1.344,1.344,0,0,0-2.105-.723,1.433,1.433,0,0,0-.536,1.676q.563,2.488,1.119,4.978a.853.853,0,0,1-.021.409,1.027,1.027,0,0,1-1.057.8,1.179,1.179,0,0,1-1.049-1.014q-.811-3.686-1.629-7.37-.86-3.853-1.738-7.7c-.211-.922-.653-1.2-1.6-1.085a1.217,1.217,0,0,0-1.08,1.446c.054.334.121.665.193,1q.7,3.209,1.411,6.417c.515,2.32,1.04,4.637,1.554,6.957.36,1.627.715,3.255,1.05,4.887a1.273,1.273,0,0,1-.059.74,1,1,0,0,1-1.746.208c-.4-.5-.736-1.05-1.108-1.573a21.546,21.546,0,0,0-2.769-3.425,2.684,2.684,0,0,0-1.919-.876,1.338,1.338,0,0,0-1.213,2.179c.4.71.78,1.434,1.106,2.179.766,1.75,1.436,3.544,2.253,5.269a17.255,17.255,0,0,0,4.839,6.175.673.673,0,0,0,.639.144c1.281-.3,2.568-.569,3.853-.853q4.2-.929,8.391-1.862c1.649-.366,3.3-.729,4.947-1.107a.59.59,0,0,0,.37-.252,9.668,9.668,0,0,0,.919-4.355M46.592,53.2c-.052-.171-.078-.279-.118-.382-.121-.315-.264-.623-.367-.944A.348.348,0,0,0,45.7,51.6c-.466.022-.934.029-1.4.029q-19.022,0-38.044,0a2.548,2.548,0,0,1-2.443-2,8.259,8.259,0,0,1-.088-1.115q-.007-20.861,0-41.723a7.5,7.5,0,0,1,.064-.977A2.5,2.5,0,0,1,6.17,3.666H64.6a2.567,2.567,0,0,1,2.515,2.426c.012.362.031.723.031,1.085q-.009,15.309-.021,30.617a1.848,1.848,0,0,0,.018.279c.043.276.178.361.436.214a9.021,9.021,0,0,1,.831-.443.415.415,0,0,0,.288-.456q-.034-.665-.033-1.33,0-14.276,0-28.551c0-.572.024-1.145-.013-1.715a3.879,3.879,0,0,0-3.211-3.531,17.2,17.2,0,0,0-2.409-.092q-27.57-.007-55.14,0c-.677,0-1.355-.016-2.03.026a3.945,3.945,0,0,0-3.7,3.965q0,21.474-.007,42.949A3.793,3.793,0,0,0,2.478,50.7a3.73,3.73,0,0,0,2.888,2.343,17.987,17.987,0,0,0,2.753.135q19,.019,38.009.02h.464m29.005,9.8c-.117-.536-.241-1.285-.453-2.009A.949.949,0,0,0,74,60.293a4.948,4.948,0,0,0-.621.1c-1.745.4-3.487.818-5.235,1.208-1.2.269-2.419.493-3.625.756-1.99.433-3.978.88-5.966,1.325-.966.216-1.937.414-2.894.666a.913.913,0,0,0-.733,1.168c.114.665.262,1.327.435,1.979a.908.908,0,0,0,1.088.718c.554-.068,1.1-.183,1.649-.3,1.869-.395,3.738-.79,5.6-1.2,1.9-.418,3.794-.859,5.692-1.284,1.135-.254,2.274-.494,3.41-.747.693-.155,1.39-.3,2.073-.492.509-.142.727-.485.721-1.2" transform="translate(0 0)" fill="#615842"/>
            <path id="Path_612328" data-name="Path 612328" d="M60.852,118.308a7.169,7.169,0,0,1-6.9-5.045,6.932,6.932,0,0,1,4.51-8.452,6.757,6.757,0,0,1,6.728,1.4c.446.375.434.383.846-.029.371-.372.735-.753,1.129-1.1a.959.959,0,0,1,1.483.024,1.065,1.065,0,0,1-.048,1.46c-.52.552-1.078,1.067-1.6,1.615a.421.421,0,0,0-.074.376,6.21,6.21,0,0,1,.611,3.021,6.914,6.914,0,0,1-4.944,6.408,12.364,12.364,0,0,1-1.737.319M64.1,108.049a4.676,4.676,0,0,0-3.616-1.475,4.594,4.594,0,0,0-3.429,1.475,4.5,4.5,0,0,0-1.32,3.933,4.8,4.8,0,0,0,5.991,4.1,4.849,4.849,0,0,0,3.71-5.354,3.511,3.511,0,0,0-.233-.687l-.129-.022c-.236.258-.463.523-.708.771q-1.478,1.494-2.967,2.976a1.006,1.006,0,0,1-1.473.127q-1.372-1.326-2.672-2.724a.914.914,0,0,1,.2-1.406.938.938,0,0,1,1.356.108c.5.455.965.95,1.449,1.423.112.109.241.2.342.282l3.5-3.528" transform="translate(-38.629 -75.179)" fill="#615842"/>
            <path id="Path_612329" data-name="Path 612329" d="M65.64,45.662c.516-.515,1-1.022,1.508-1.5a.888.888,0,0,1,1.171-.226,1.033,1.033,0,0,1,.252,1.723q-.756.779-1.537,1.533a.358.358,0,0,0-.079.505,5.9,5.9,0,0,1,.582,2.989,6.768,6.768,0,0,1-4.592,6.231,6.89,6.89,0,0,1-4.839-12.9,6.743,6.743,0,0,1,7.3,1.441c.075.067.152.132.235.2m-.481,3.431c-.167.149-.318.272-.455.408-.306.3-.6.618-.909.923-.81.807-1.614,1.621-2.438,2.415a.985.985,0,0,1-1.42.127c-.915-.883-1.818-1.781-2.678-2.717a.974.974,0,0,1,.453-1.568,1.021,1.021,0,0,1,1.148.284c.5.485,1,.983,1.486,1.485.168.172.279.215.478.013,1.016-1.031,2.05-2.044,3.075-3.066a3.215,3.215,0,0,0,.23-.286c-.084-.073-.14-.115-.189-.165a4.916,4.916,0,0,0-6.767.038,4.67,4.67,0,0,0-1.434,4.064,4.847,4.847,0,0,0,4.843,4.226,4.9,4.9,0,0,0,4.9-4.713,2.107,2.107,0,0,0-.322-1.468" transform="translate(-38.635 -31.321)" fill="#615842"/>
            <path id="Path_612330" data-name="Path 612330" d="M129.492,81.311h10.054a1.177,1.177,0,0,1,1.165.68.955.955,0,0,1-.421,1.283,1.986,1.986,0,0,1-.8.2q-10,.016-20,0a2.032,2.032,0,0,1-1.042-.318.84.84,0,0,1-.344-.957,1.144,1.144,0,0,1,1.06-.875c.326-.022.654-.015.98-.015h9.354Z" transform="translate(-84.972 -58.517)" fill="#615842"/>
            <path id="Path_612331" data-name="Path 612331" d="M129.549,49.53q-4.815,0-9.63,0a5.6,5.6,0,0,1-.8-.048,1.031,1.031,0,0,1-.758-1.617.887.887,0,0,1,.718-.435c.348-.034.7-.057,1.047-.057q9.56-.005,19.121,0a5.567,5.567,0,0,1,.732.052,1.065,1.065,0,0,1,.929.951,1.092,1.092,0,0,1-.788,1.075,3.2,3.2,0,0,1-.762.079q-4.9.008-9.806,0" transform="translate(-85.057 -34.092)" fill="#615842"/>
            <path id="Path_612332" data-name="Path 612332" d="M129.4,66.52q-4.78,0-9.559,0a6.978,6.978,0,0,1-.8-.048,1.108,1.108,0,0,1-1.009-1.031,1.166,1.166,0,0,1,1.015-1.029,4.82,4.82,0,0,1,.593-.036q9.8,0,19.609,0a3.93,3.93,0,0,1,.662.051,1.105,1.105,0,0,1,.892,1.025,1.059,1.059,0,0,1-.9,1.011,6.078,6.078,0,0,1-.871.06q-4.815.006-9.629,0Z" transform="translate(-84.95 -46.33)" fill="#615842"/>
            <path id="Path_612333" data-name="Path 612333" d="M124.929,142.318c1.867,0,3.734,0,5.6,0a1.11,1.11,0,0,1,.961.471.985.985,0,0,1-.459,1.549,2.685,2.685,0,0,1-.859.124q-5.251.014-10.5.008a5.043,5.043,0,0,1-.663-.049,1.1,1.1,0,0,1-.97-1.033,1.19,1.19,0,0,1,.874-1.016,2.484,2.484,0,0,1,.52-.046q2.748,0,5.5,0Z" transform="translate(-84.956 -102.428)" fill="#615842"/>
            <path id="Path_612334" data-name="Path 612334" d="M124.7,127.473h-5.148c-.548,0-1.048-.078-1.3-.672a1.014,1.014,0,0,1,.7-1.385,3.679,3.679,0,0,1,.73-.063q5.114-.008,10.228-.006c.557,0,1.082.053,1.32.684a1.012,1.012,0,0,1-.854,1.41c-.487.041-.98.033-1.469.035-1.4,0-2.8,0-4.2,0Z" transform="translate(-85.049 -90.216)" fill="#615842"/>
            <path id="Path_612335" data-name="Path 612335" d="M124.4,108.335c1.668,0,3.337-.005,5,0a1.06,1.06,0,0,1,1.151,1.277,1.134,1.134,0,0,1-1.178.89q-3.238,0-6.475,0c-1.131,0-2.263,0-3.395,0a1.243,1.243,0,0,1-1.279-.729.969.969,0,0,1,.522-1.3,2.536,2.536,0,0,1,.819-.136c1.61-.012,3.22-.006,4.83-.006Z" transform="translate(-85.032 -77.97)" fill="#615842"/>
          </g>
        </g>
      </g>
    </g>
  </g>
</svg>
