<svg xmlns="http://www.w3.org/2000/svg" xmlns:xlink="http://www.w3.org/1999/xlink" width="120" height="120" viewBox="0 0 120 120">
  <defs>
    <clipPath id="clip-path">
      <rect id="Rectangle_378971" data-name="Rectangle 378971" width="86" height="86" transform="translate(0.5 0.5)" fill="#fff" stroke="#707070" stroke-width="1"/>
    </clipPath>
    <clipPath id="clip-path-2">
      <rect id="Rectangle_378628" data-name="Rectangle 378628" width="74.881" height="74.358" fill="#615842"/>
    </clipPath>
  </defs>
  <g id="Group_1074199" data-name="Group 1074199" transform="translate(-180 -5250)">
    <g id="Group_1074187" data-name="Group 1074187" transform="translate(-89 4292)">
      <path id="Path_608974" data-name="Path 608974" d="M60,0A60,60,0,1,1,0,60,60,60,0,0,1,60,0Z" transform="translate(269 958)" fill="#ffe7af"/>
    </g>
    <g id="Group_1074198" data-name="Group 1074198" transform="translate(182.44 5317.833)">
      <g id="Mask_Group_154436" data-name="Mask Group 154436" transform="translate(14.06 -51.333)" clip-path="url(#clip-path)">
        <g id="Group_1074197" data-name="Group 1074197" transform="translate(5.898 5.898)" clip-path="url(#clip-path-2)">
          <path id="Path_612336" data-name="Path 612336" d="M19.425,58.259H18.71c-.791,0-1.582.014-2.373-.006a2.544,2.544,0,0,1-2.607-2.594,7.042,7.042,0,0,1,0-.8c.023-.284-.109-.325-.354-.324-1.95.009-3.9.014-5.849,0-1.046-.006-2.093-.038-3.139-.079A4.888,4.888,0,0,1,.141,50.567a8.749,8.749,0,0,1-.136-1.522Q-.005,29.616,0,10.188A5.013,5.013,0,0,1,3.9,5.111a7.447,7.447,0,0,1,1.757-.152q12.952-.013,25.9-.005.284,0,.567.02c.252.017.337-.068.341-.343A8.039,8.039,0,0,1,32.6,2.848,3.508,3.508,0,0,1,35.867.066a18.592,18.592,0,0,1,3.4.024,3.709,3.709,0,0,1,3.175,3.723c.009.289.016.578,0,.866-.009.2.06.283.265.276.289-.01.579,0,.869,0q12.818,0,25.637.01a7.691,7.691,0,0,1,1.982.213,4.962,4.962,0,0,1,3.68,4.866c0,.111,0,.222,0,.333q0,19.445,0,38.89a5.05,5.05,0,0,1-2.426,4.544,5.175,5.175,0,0,1-2.839.72q-4.027.018-8.055,0c-.3,0-.411.058-.4.379a6.3,6.3,0,0,1-.073,1.327,2.468,2.468,0,0,1-2.353,2c-1,.034-2,.007-3.008.008h-.28c.141.274.254.522.39.757q2.236,3.843,4.478,7.684a5.389,5.389,0,0,1,.853,2.564,4.973,4.973,0,0,1-4.353,5.05A4.823,4.823,0,0,1,51.8,71.766c-1.732-2.91-3.413-5.849-5.115-8.776-.876-1.507-1.749-3.016-2.636-4.516a.526.526,0,0,0-.36-.207c-.309-.028-.624.01-.935-.009-.255-.015-.318.077-.317.323.008,2.066,0,4.132,0,6.2,0,1.555.034,3.111,0,4.666A5.042,5.042,0,0,1,38,74.325,4.989,4.989,0,0,1,32.45,69.35c-.05-3.454,0-6.909,0-10.364,0-.724.007-.686-.714-.744a1.1,1.1,0,0,0-1.189.667c-2.438,4.259-4.92,8.493-7.382,12.738a4.987,4.987,0,0,1-4.421,2.71A4.913,4.913,0,0,1,14.04,71.1a4.651,4.651,0,0,1,.313-3.984c.773-1.4,1.6-2.769,2.4-4.152q1.328-2.291,2.655-4.581a.546.546,0,0,0,.018-.121M61.2,52.045c.1.009.163.02.229.02,2.808,0,5.615.017,8.423,0a2.41,2.41,0,0,0,2.556-2.326,16.4,16.4,0,0,0,.018-1.762q0-13.462,0-26.925c0-3.554.026-7.108.033-10.663a2.7,2.7,0,0,0-1.516-2.738,2.127,2.127,0,0,0-.868-.181Q37.471,7.458,4.864,7.463a2.231,2.231,0,0,0-2.18,1.505,4.8,4.8,0,0,0-.256,1.494c-.011,6.365.006,12.73.006,19.1q0,9.848-.016,19.7a2.616,2.616,0,0,0,2.755,2.83c2.763-.038,5.526-.011,8.289-.006.194,0,.271-.061.3-.256A2.525,2.525,0,0,1,16.4,49.588H40.9q8.841,0,17.682-.005a2.552,2.552,0,0,1,1.9.826,2.816,2.816,0,0,1,.718,1.637m-2.621.012H56.193q-19.789,0-39.578,0c-.258,0-.348.055-.346.328.01,1.033-.007,2.066-.012,3.1a1.326,1.326,0,0,0,.034.218H58.58Zm-30.452,6.2H27.7c-1.6,0-3.207.017-4.81,0a.848.848,0,0,0-.888.481c-1.808,3.171-3.655,6.321-5.477,9.484a2.482,2.482,0,0,0,.384,2.953,2.394,2.394,0,0,0,2.4.694,2.932,2.932,0,0,0,1.823-1.544q3.046-5.276,6.116-10.538c.282-.485.559-.972.878-1.525m18.662.016c.06.118.095.2.138.271q1.152,1.988,2.305,3.974l4.678,8.064a2.761,2.761,0,0,0,1.7,1.291,2.5,2.5,0,0,0,3.032-2.235,3.783,3.783,0,0,0-.583-1.973c-1.789-3.055-3.562-6.12-5.35-9.176a.467.467,0,0,0-.329-.208c-1.848-.013-3.7-.009-5.6-.009m-11.8,5.848h-.023c0,1.732-.006,3.463.005,5.195a2.782,2.782,0,0,0,.128,1.045,2.511,2.511,0,0,0,4.288.652,2.052,2.052,0,0,0,.511-1.47c-.022-.565-.048-1.131-.048-1.7q.006-4.612.03-9.223c0-.262-.05-.364-.347-.36-1.4.017-2.806.014-4.208,0-.262,0-.343.06-.342.33.012,1.843.006,3.685.006,5.528M37.455,4.952v0c.723,0,1.447-.011,2.169.007.222.005.27-.077.263-.266-.015-.41-.037-.82-.026-1.229a.8.8,0,0,0-.475-.776,2.8,2.8,0,0,0-.942-.276,12.045,12.045,0,0,0-1.4-.006,4.748,4.748,0,0,0-1.028.06c-.739.182-1.057.523-1.034,1.246.01.31.023.622.005.931-.015.261.093.315.332.31.712-.014,1.424-.005,2.136-.005" transform="translate(0 0)" fill="#615842"/>
          <path id="Path_612337" data-name="Path 612337" d="M203.65,87.9h.553c1.648,0,3.3-.012,4.945,0a2.64,2.64,0,0,1,.938.177,1.2,1.2,0,0,1,.716,1.206,1.305,1.305,0,0,1-1.139,1.062c-.466.03-.935.024-1.4.024q-2.94,0-5.88-.008a2.57,2.57,0,0,1-.66-.073,1.076,1.076,0,0,1-.821-1.038,4.507,4.507,0,0,1,1.894-4.074c.915-.7,1.948-1.24,2.9-1.886a9.585,9.585,0,0,0,1.649-1.287,3.593,3.593,0,0,0,.9-3.426,2.512,2.512,0,0,0-4.928.47c-.064.888-.582,1.42-1.341,1.377a1.163,1.163,0,0,1-1.085-1.093,4.858,4.858,0,0,1,2.993-4.649,4.97,4.97,0,0,1,6.586,2.824,5.663,5.663,0,0,1,.119,3.469,6.217,6.217,0,0,1-2.609,3.7c-.8.569-1.679,1.042-2.535,1.537a7.3,7.3,0,0,0-1.821,1.586l.021.1" transform="translate(-147.161 -54.43)" fill="#615842"/>
          <path id="Path_612338" data-name="Path 612338" d="M125.051,78.519c-.4.411-.8.826-1.212,1.232a4.218,4.218,0,0,1-.552.481,1.121,1.121,0,0,1-1.464-.143,1.068,1.068,0,0,1-.193-1.47,5.671,5.671,0,0,1,.664-.744c1.062-1.062,2.133-2.115,3.194-3.177a1.229,1.229,0,0,1,1.381-.285,1.068,1.068,0,0,1,.716.994c.04.419.05.843.051,1.264q.006,5.265,0,10.529c0,.715,0,.714.731.712.49,0,.982-.022,1.47.009a2.665,2.665,0,0,1,.87.19,1.174,1.174,0,0,1,.633,1.246,1.242,1.242,0,0,1-1.138,1.007c-.879.028-1.76.024-2.639.022-1.637,0-3.274,0-4.912-.021a1.237,1.237,0,0,1-1.234-1.129,1.214,1.214,0,0,1,1.007-1.261,3.2,3.2,0,0,1,.63-.062c.568-.011,1.137-.022,1.7-.005.282.008.378-.059.376-.367-.013-2.721,0-5.442,0-8.164q0-.409,0-.818l-.082-.041" transform="translate(-88.946 -54.442)" fill="#615842"/>
          <path id="Path_612339" data-name="Path 612339" d="M45.728,87.9V78.542c-.1.094-.176.16-.247.229-.436.429-.857.875-1.311,1.284a1.25,1.25,0,0,1-2.083-.511.9.9,0,0,1,.075-.829,3.474,3.474,0,0,1,.483-.633c1.1-1.1,2.208-2.2,3.314-3.293a1.37,1.37,0,0,1,1.225-.475,1.189,1.189,0,0,1,1.033,1.31c.024,1.51.027,3.021.027,4.532q0,3.715-.021,7.431c0,.25.068.325.323.316.59-.021,1.181-.013,1.771,0a3.376,3.376,0,0,1,.663.064,1.21,1.21,0,0,1-.186,2.389c-.311.02-.624.019-.935.02-2.072,0-4.144.009-6.216,0a2.644,2.644,0,0,1-.851-.119,1.185,1.185,0,0,1,.226-2.288,3.633,3.633,0,0,1,.7-.066c.666-.008,1.331,0,2.015,0" transform="translate(-30.77 -54.427)" fill="#615842"/>
          <path id="Path_612340" data-name="Path 612340" d="M89,97.7a8.011,8.011,0,0,1-.006.852,3.113,3.113,0,0,1-.185.868A1.2,1.2,0,0,1,86.534,99c-.03-.353-.044-.709-.04-1.063,0-.206-.069-.268-.269-.269a8.636,8.636,0,0,1-1.1-.056A1.307,1.307,0,0,1,84,96.473a1.266,1.266,0,0,1,1.065-1.256,8.753,8.753,0,0,1,1.165-.057c.2,0,.27-.077.269-.275,0-.365,0-.733.038-1.1a1.4,1.4,0,0,1,1.031-1.1,1.193,1.193,0,0,1,1.265.776,5.062,5.062,0,0,1,.164,1.339c.006.3.094.384.383.371a5.793,5.793,0,0,1,1.031.036,1.223,1.223,0,0,1,1.059,1.083,1.111,1.111,0,0,1-.787,1.212,7.813,7.813,0,0,1-1.377.171c-.077.009-.154.01-.3.02" transform="translate(-61.534 -67.894)" fill="#615842"/>
          <path id="Path_612341" data-name="Path 612341" d="M162.566,111.381c.846,0,1.693-.02,2.538.007a1.033,1.033,0,0,1,1.071.824,1.169,1.169,0,0,1-.464,1.351,1.9,1.9,0,0,1-.907.267c-1.48.027-2.962.019-4.443.006a2.712,2.712,0,0,1-.783-.141,1.137,1.137,0,0,1-.774-1.19,1.152,1.152,0,0,1,.93-1.073,3.657,3.657,0,0,1,.662-.062c.724-.007,1.448,0,2.171,0v.014" transform="translate(-116.332 -81.583)" fill="#615842"/>
          <path id="Path_612342" data-name="Path 612342" d="M162.528,95.146c-.835,0-1.67.014-2.505,0a1.2,1.2,0,0,1-1.171-1.56,1.3,1.3,0,0,1,1.176-.884c1.671-.008,3.341-.011,5.012,0a1.306,1.306,0,0,1,1.195,1.29,1.187,1.187,0,0,1-1.168,1.175c-.846.017-1.693,0-2.539,0Z" transform="translate(-116.334 -67.902)" fill="#615842"/>
        </g>
      </g>
    </g>
  </g>
</svg>
