<svg xmlns="http://www.w3.org/2000/svg" xmlns:xlink="http://www.w3.org/1999/xlink" width="70" height="70" viewBox="0 0 70 70">
  <defs>
    <clipPath id="clip-path">
      <path id="Path_612975" data-name="Path 612975" d="M0,0H51V50H0Z" transform="translate(278 968)" fill="#5e5a55" stroke="#707070" stroke-width="1"/>
    </clipPath>
    <clipPath id="clip-path-2">
      <rect id="Rectangle_378988" data-name="Rectangle 378988" width="41.898" height="47.526" fill="#5e5a55"/>
    </clipPath>
  </defs>
  <g id="Group_1074757" data-name="Group 1074757" transform="translate(-615 -6558)">
    <g id="Group_1074412" data-name="Group 1074412" transform="translate(346 5600)">
      <circle id="Ellipse_5614" data-name="Ellipse 5614" cx="35" cy="35" r="35" transform="translate(269 958)" fill="#fff"/>
      <g id="Mask_Group_154417" data-name="Mask Group 154417" clip-path="url(#clip-path)">
        <g id="Group_1074411" data-name="Group 1074411" transform="translate(286 969)">
          <g id="Group_1074748" data-name="Group 1074748" transform="translate(-3.386 0)">
            <g id="Group_1074747" data-name="Group 1074747" clip-path="url(#clip-path-2)">
              <path id="Path_613306" data-name="Path 613306" d="M41.905,197.02H.01V180.23c.105-.007.208-.021.312-.021q7.051,0,14.1-.007a.7.7,0,0,1,.555.226c.785.8,1.591,1.582,2.377,2.381a.808.808,0,0,0,.637.252q9.756-.015,19.512-.014c1.4,0,2.8.006,4.2.009h.205Zm-13.947-5.629H36.28v-2.829H27.958Z" transform="translate(-0.008 -149.494)" fill="#5e5a55"/>
              <path id="Path_613307" data-name="Path 613307" d="M0,27.961V.025H27.928V30.712H27.6L19.5,30.7a.577.577,0,0,0-.127,0,1.123,1.123,0,0,1-1.14-.463c-.708-.756-1.456-1.474-2.195-2.2a.383.383,0,0,0-.247-.076c-1.044,0-2.087,0-3.131,0H0m4.186-9.727H23.72a.323.323,0,0,0,.026-.085c0-.866-.01-1.732-.023-2.6,0-.041-.077-.1-.127-.116a1.079,1.079,0,0,0-.254-.007H4.916c-.2,0-.4-.007-.6.008a.189.189,0,0,0-.129.131c-.008.88-.006,1.76-.006,2.667m19.547,2.74h-.175q-9.584,0-19.169,0c-.179,0-.228.051-.224.228.015.731.018,1.462.017,2.194,0,.4-.008.4.4.4l18.253,0c.234,0,.469-.012.7,0,.148,0,.195-.042.194-.194-.006-.717,0-1.434,0-2.151,0-.148,0-.295,0-.468M23.728,9.91c-.082,0-.144-.012-.206-.012q-9.571,0-19.143,0c-.172,0-.214.05-.212.217.009.773,0,1.547.006,2.32,0,.06.007.121.011.177H23.728Zm0-5.626H9.75a.494.494,0,0,0-.018.091c0,.852.009,1.7.011,2.555,0,.142.088.133.185.133.973,0,1.945-.011,2.917-.012q5.292,0,10.584,0h.3ZM6.97,4.274c-.879,0-1.737,0-2.594,0-.175,0-.213.056-.211.22.011.787.017,1.574.01,2.362,0,.178.063.211.223.211.823,0,1.645,0,2.468.006a.729.729,0,0,0,.1-.016Z" transform="translate(0 -0.021)" fill="#5e5a55"/>
              <path id="Path_613308" data-name="Path 613308" d="M180.268,0h4.192V30.677c-.078,0-.154.013-.231.013l-3.683.016c-.276,0-.276,0-.276-.275l0-28.985V0" transform="translate(-149.549)" fill="#5e5a55"/>
              <path id="Path_613309" data-name="Path 613309" d="M225.5,30.693c-.08,0-.157.013-.233.013q-1.831.009-3.663.014c-.277,0-.288.058-.287-.282q0-7.955,0-15.91,0-6.816,0-13.632V.019H225.5Z" transform="translate(-183.602 -0.016)" fill="#5e5a55"/>
            </g>
          </g>
        </g>
      </g>
    </g>
  </g>
</svg>
