<svg xmlns="http://www.w3.org/2000/svg" xmlns:xlink="http://www.w3.org/1999/xlink" width="70" height="70" viewBox="0 0 70 70">
  <defs>
    <clipPath id="clip-path">
      <path id="Path_612975" data-name="Path 612975" d="M0,0H51V50H0Z" transform="translate(278 968)" fill="#5e5a55" stroke="#707070" stroke-width="1"/>
    </clipPath>
    <clipPath id="clip-path-2">
      <rect id="Rectangle_378990" data-name="Rectangle 378990" width="42.231" height="50" fill="#5e5a55"/>
    </clipPath>
  </defs>
  <g id="Group_1074759" data-name="Group 1074759" transform="translate(-1230 -6558)">
    <g id="Group_1074414" data-name="Group 1074414" transform="translate(961 5600)">
      <circle id="Ellipse_5614" data-name="Ellipse 5614" cx="35" cy="35" r="35" transform="translate(269 958)" fill="#fff"/>
      <g id="Mask_Group_154417" data-name="Mask Group 154417" clip-path="url(#clip-path)">
        <g id="Group_1074752" data-name="Group 1074752" transform="translate(285 968)">
          <g id="Group_1074751" data-name="Group 1074751" clip-path="url(#clip-path-2)">
            <path id="Path_613313" data-name="Path 613313" d="M32.44,45.351a10.657,10.657,0,0,0-9.55,8.786c-.1.01-.209.029-.317.029q-3.269,0-6.538-.011a2.729,2.729,0,0,0-.425.032.878.878,0,0,0-.78.914.892.892,0,0,0,.915.833q3.123,0,6.246-.007H22.7A12.7,12.7,0,0,0,22.96,58.8c0,.018-.013.04-.03.086H22.4q-3.269,0-6.538,0a.922.922,0,0,0-.858.333.821.821,0,0,0-.081.908.878.878,0,0,0,.822.481c2.486-.007,4.973,0,7.459-.014a.584.584,0,0,1,.606.4,10.52,10.52,0,0,0,3.02,3.756c.035.028.071.055.1.085.008.008.006.027.012.058-.082,0-.161.01-.24.01H1.456A1.327,1.327,0,0,1,.007,63.5c-.017-.507,0-1.015,0-1.523q0-20.93,0-41.861A2.171,2.171,0,0,1,.126,19.4a1.114,1.114,0,0,1,1.027-.777c.38-.026.763-.016,1.145-.016,1.408,0,2.816.007,4.224,0,.212,0,.283.056.279.276a2.756,2.756,0,0,0,2.849,2.941q6.493-.01,12.986-.009a2.9,2.9,0,0,0,1.518-.311A2.692,2.692,0,0,0,25.6,19c-.005-.394,0-.4.379-.4q2.449,0,4.9,0a2.982,2.982,0,0,1,.6.045,1.2,1.2,0,0,1,.956,1.175c.005.381,0,.761,0,1.142V45.351M8.05,38.734q-2.111,0-4.222,0a.807.807,0,0,0-.866.849c-.006.306,0,.612,0,.918q0,3.593,0,7.186a.747.747,0,0,0,.515.779,1.708,1.708,0,0,0,.566.106c2.4.005,4.79,0,7.186,0,.284,0,.569.013.853.01a.855.855,0,0,0,.955-.95c0-.239-.007-.477-.007-.716q0-3.694,0-7.387a.74.74,0,0,0-.82-.8H8.05m-.058-4.261v-.005q2.122,0,4.245,0a.726.726,0,0,0,.8-.748c.009-.186-.007-.373-.007-.559q0-3.414,0-6.829c0-.313,0-.626,0-.94a.642.642,0,0,0-.453-.653,2.735,2.735,0,0,0-.79-.118q-3.75-.012-7.5,0a3.114,3.114,0,0,0-.668.058.774.774,0,0,0-.652.77q0,4.1,0,8.194a.8.8,0,0,0,.854.832q2.089,0,4.177,0M8,52.481v0c-1.363,0-2.726.019-4.089-.01a.9.9,0,0,0-.956.954c.018,2.672.008,5.345.008,8.017a.8.8,0,0,0,.668.85,2.254,2.254,0,0,0,.511.048q3.493,0,6.986-.013c.322,0,.644.015.966.011a.854.854,0,0,0,.948-.959c-.005-.821-.014-1.642-.015-2.463,0-1.806-.005-3.613.011-5.419a.908.908,0,0,0-1.019-1.028c-1.339.035-2.681.01-4.021.01M22.214,26.369H15.925c-.082,0-.165,0-.247,0a.91.91,0,0,0-.849.857.842.842,0,0,0,.812.847c.26.02.523.01.785.01q6.03,0,12.06.006a1.034,1.034,0,0,0,.74-.2.9.9,0,0,0,.221-.987.881.881,0,0,0-.81-.537H22.214m-.029,15.777h5.323c.4,0,.809.01,1.213,0a.829.829,0,0,0,.78-.8.82.82,0,0,0-.72-.878,5,5,0,0,0-.583-.022H19.685c-1.273,0-2.545-.01-3.818,0a1.472,1.472,0,0,0-.681.159.821.821,0,0,0-.329.907.866.866,0,0,0,.748.645c.335.02.673-.005,1.009-.005h5.57M21.108,31.029q-2.695,0-5.39,0a.9.9,0,0,0-.884.794.855.855,0,0,0,.671.929,2.414,2.414,0,0,0,.535.046q4.794-.008,9.589-.021c.277,0,.554.014.831,0a.846.846,0,0,0,.89-.885.88.88,0,0,0-.942-.867h-5.3m0,14.092v.006H16.862c-.419,0-.838-.012-1.256.01a.8.8,0,0,0-.775.8.845.845,0,0,0,.722.862,5.227,5.227,0,0,0,.716.037q4.951,0,9.9,0c.112,0,.225,0,.337,0a.814.814,0,0,0,.758-.5.863.863,0,0,0-.141-.961.941.941,0,0,0-.787-.241q-2.616-.005-5.231,0" transform="translate(0 -15.259)" fill="#5e5a55"/>
            <path id="Path_613314" data-name="Path 613314" d="M144.711,177.088a8.117,8.117,0,0,1,4.147.955,8.889,8.889,0,0,1,4.361,4.99,9.126,9.126,0,0,1-5.986,11.87,7.91,7.91,0,0,1-3.951.176,8.839,8.839,0,0,1-6.545-5.35,8.563,8.563,0,0,1-.7-4.192,8.92,8.92,0,0,1,4.376-7.208,7.812,7.812,0,0,1,4.026-1.229c.09,0,.18-.008.269-.012m5.676,6.17a.89.89,0,0,0-.535-.867.8.8,0,0,0-.935.14c-.1.085-.2.178-.3.273q-2.512,2.482-5.019,4.968c-.124.123-.206.128-.333.017-.507-.442-1.019-.878-1.531-1.315-.319-.271-.627-.557-.965-.8a.887.887,0,0,0-1.2.14.853.853,0,0,0,.067,1.209c.047.048.1.093.148.137l2.009,1.721c.318.272.631.549.95.821a.945.945,0,0,0,1.448-.047c.081-.077.157-.16.237-.238q2.26-2.226,4.521-4.451c.373-.367.757-.723,1.129-1.09a.782.782,0,0,0,.3-.615" transform="translate(-111.564 -145.251)" fill="#5e5a55"/>
            <path id="Path_613315" data-name="Path 613315" d="M55.309,4.84H48.771A1.02,1.02,0,0,1,47.693,3.8c-.01-.873-.007-1.747,0-2.62A1.056,1.056,0,0,1,48.9,0q4.943,0,9.886,0h2.988a1.062,1.062,0,0,1,1.008.508.943.943,0,0,1,.141.43c.013.926.006,1.851.01,2.777A1.04,1.04,0,0,1,61.825,4.84H55.309" transform="translate(-39.115 0)" fill="#5e5a55"/>
            <path id="Path_613316" data-name="Path 613316" d="M29.548,146.479c-1.026,0-2.051,0-3.077,0-.159,0-.187-.059-.187-.2q0-2.977,0-5.955c0-.15.028-.231.21-.23,2.021.007,4.043.006,6.064.008.292,0,.294,0,.295.3,0,1.933,0,3.866.01,5.8,0,.228-.074.269-.279.268-1.011-.009-2.021,0-3.032,0v.007" transform="translate(-21.556 -114.918)" fill="#5e5a55"/>
            <path id="Path_613317" data-name="Path 613317" d="M26.3,61.876h6.533c.007.088.019.173.02.259.006,1.955.008,3.909.017,5.864,0,.2-.063.269-.272.268q-3.031-.011-6.062,0c-.192,0-.252-.047-.251-.251.012-1.947.012-3.894.015-5.841,0-.1,0-.191,0-.3" transform="translate(-21.56 -50.754)" fill="#5e5a55"/>
            <path id="Path_613318" data-name="Path 613318" d="M26.4,222.981V216.6h.757c1.841,0,3.682,0,5.522,0,.213,0,.286.056.285.273q-.017,2.965-.015,5.93c0,.136-.022.2-.181.2q-3.12-.006-6.241,0a1.192,1.192,0,0,1-.127-.016" transform="translate(-21.659 -177.661)" fill="#5e5a55"/>
          </g>
        </g>
      </g>
    </g>
  </g>
</svg>
