<svg xmlns="http://www.w3.org/2000/svg" xmlns:xlink="http://www.w3.org/1999/xlink" width="139" height="139" viewBox="0 0 139 139">
  <defs>
    <clipPath id="clip-path">
      <rect id="Rectangle_378065" data-name="Rectangle 378065" width="86.333" height="85.623" fill="none"/>
    </clipPath>
  </defs>
  <g id="Group_1074753" data-name="Group 1074753" transform="translate(-322 -1005)">
    <g id="Group_1073043" data-name="Group 1073043" transform="translate(-1112.668 -4877)">
      <g id="Group_1072229" data-name="Group 1072229" transform="translate(1434.668 5882)">
        <path id="Path_608385" data-name="Path 608385" d="M69.5,0A69.5,69.5,0,1,1,0,69.5,69.5,69.5,0,0,1,69.5,0Z" transform="translate(0)" fill="#fff"/>
      </g>
      <g id="Group_1073047" data-name="Group 1073047" transform="translate(1460.668 5909)">
        <g id="Group_1073046" data-name="Group 1073046" clip-path="url(#clip-path)">
          <path id="Path_611379" data-name="Path 611379" d="M110.16,120.581a4.662,4.662,0,0,0,1.394.295,13.771,13.771,0,0,1,5.673,2.607c.676.505,1.267,1.1,1.9,1.645a13.589,13.589,0,0,1,2.941,5.393,16.929,16.929,0,0,1,.59,4.181c.02,2.39,0,4.78.011,7.17a3.156,3.156,0,0,0-.043.949,4.165,4.165,0,0,0,.041,1.138c0,1.011,0,2.023-.007,3.034a2.478,2.478,0,0,1-.083.751.785.785,0,0,1-.829.5c-.8.007-1.593.014-2.389,0-7.843-.138-15.686-.04-23.529-.075-.767,0-.986-.164-1.009-.925-.039-1.343-.019-2.687-.023-4.031a.921.921,0,0,0-.038-.416c.126-.093.089-.231.088-.354,0-.389.01-.779.012-1.167.015-2.589-.041-5.179.023-7.769a14.692,14.692,0,0,1,.408-2.692c.163-.773.617-1.455.8-2.228a.232.232,0,0,0,.2-.153,8.5,8.5,0,0,1,1.445-2.426c.195-.259.584-.4.575-.809.381-.354.752-.719,1.146-1.058a16.572,16.572,0,0,1,2.252-1.608,11.556,11.556,0,0,1,2.877-1.3,8.694,8.694,0,0,1,2.809-.575c.081,0,.185.032.236-.076h2.523m6.27,10.686a1.135,1.135,0,0,0-.772-1.186,1.3,1.3,0,0,0-1.392.4c-.178.231-.305.5-.475.735-.578.809-1.173,1.605-1.744,2.418-.636.905-1.251,1.825-1.88,2.736-.375.543-.789,1.063-1.129,1.628-.313.519-.5.578-.926.155l-4.195-4.18a3.045,3.045,0,0,0-.941-.651,1.2,1.2,0,0,0-1.3,1.871q3.1,3.1,6.209,6.189a1.163,1.163,0,0,0,.788.341c.711.045,1.081-.454,1.413-.918.6-.835,1.17-1.694,1.774-2.523,1.368-1.877,2.682-3.792,4.024-5.686a2,2,0,0,0,.546-1.326" transform="translate(-65.549 -83.41)" fill="#b4997f"/>
          <path id="Path_611380" data-name="Path 611380" d="M123.006,83.845h-2.523a11.27,11.27,0,0,1-3.388-1.379,8.055,8.055,0,0,1-3.262-4.187,7.76,7.76,0,0,1-.5-2.307,8.094,8.094,0,0,1,1.889-5.493,8.2,8.2,0,0,1,5.162-2.909,7.768,7.768,0,0,1,4.112.495,8.594,8.594,0,0,1,3.465,2.519,7.194,7.194,0,0,1,1.25,2.091,7.834,7.834,0,0,1,.571,2.481,8.1,8.1,0,0,1-2.452,6.281,8.267,8.267,0,0,1-3.919,2.172c-.159.04-.339.042-.405.237" transform="translate(-78.395 -46.675)" fill="#b4997f"/>
          <path id="Path_611381" data-name="Path 611381" d="M69.324,135.52c-.187.773-.641,1.454-.8,2.228a14.689,14.689,0,0,0-.408,2.692c-.064,2.59-.008,5.18-.023,7.769,0,.389-.014.778-.012,1.168,0,.122.038.26-.088.353q-5.465,0-10.93,0c-.784,0-1-.232-1-1.023q0-4.681,0-9.361a7.838,7.838,0,0,1,.328-1.764,9.762,9.762,0,0,1,5.884-6.552c.389-.156.791-.283,1.186-.424-.011.36.3.176.454.261a18.284,18.284,0,0,1,2.823,1.727,9.131,9.131,0,0,1,1.654,1.733,4.552,4.552,0,0,0,.935,1.192" transform="translate(-38.777 -90.345)" fill="#dbbc9e"/>
          <path id="Path_611382" data-name="Path 611382" d="M71.867,100.545a.614.614,0,0,0-.45-.267,6.387,6.387,0,0,1-4.245-3.121,7.218,7.218,0,0,1-.846-2.894,5.318,5.318,0,0,1,.447-2.683,6.4,6.4,0,0,1,1.736-2.514A6.578,6.578,0,0,1,71.657,87.5a6.167,6.167,0,0,1,2.884.124,6.876,6.876,0,0,1,2.949,1.685,6.335,6.335,0,0,1,1.962,4.452,6.419,6.419,0,0,1-2.47,5.22,7.213,7.213,0,0,1-2.228,1.18l-.613.22-1.056.043-.162,0a.06.06,0,0,0-.072,0l-.172.017a.2.2,0,0,0-.213.023l-.6.071" transform="translate(-45.857 -60.45)" fill="#dbbc9e"/>
          <path id="Path_611383" data-name="Path 611383" d="M176.676,100.509a.71.71,0,0,0-.494-.266,6.543,6.543,0,0,1-4.693-4.107,6.067,6.067,0,0,1,.6-5.679,6.418,6.418,0,0,1,4.615-3.04,6.283,6.283,0,0,1,4.743,1.212,6.189,6.189,0,0,1,2.479,3.565,6.112,6.112,0,0,1,.205,2.567,9.25,9.25,0,0,1-.485,1.77A5.251,5.251,0,0,1,182.7,98a7.468,7.468,0,0,1-2.728,1.986,9.36,9.36,0,0,1-1.278.415l-.787,0-.167,0a.49.49,0,0,0-.384.036l-.158.011-.026-.021-.023.024c-.162-.014-.305.112-.472.061" transform="translate(-118.315 -60.417)" fill="#dbbc9e"/>
          <path id="Path_611384" data-name="Path 611384" d="M177.3,149.435a3.155,3.155,0,0,1,.043-.949c-.01-2.39.009-4.781-.011-7.171a16.924,16.924,0,0,0-.59-4.181,13.588,13.588,0,0,0-2.941-5.393c.41.062.649-.265.949-.436a8.794,8.794,0,0,1,1.533-.686,2.585,2.585,0,0,0,.936-.415c.153-.133.288-.014.431.007-.068.077-.163.061-.25.074-.069.01-.122.04-.114.121.006.062.057.075.106.094a13.5,13.5,0,0,1,3.347,1.959,8.293,8.293,0,0,1,1.316,1.479,8.409,8.409,0,0,1,1.981,5.3c.041,3.387.012,6.774.013,10.162q-2.923.009-5.845.018c-.3,0-.6.013-.9.019" transform="translate(-120.228 -90.024)" fill="#dbbc9e"/>
          <path id="Path_611385" data-name="Path 611385" d="M237.661,221.926c-1.1,0-2.21.041-3.311-.01a2.659,2.659,0,0,1-2.686-2.167,2.592,2.592,0,0,1,1.764-2.825c.417-.062.827-.13,1.252-.151,1.537-.075,3.076-.034,4.613-.072.442-.011.879.04,1.32.014.564-.034.69-.139.691-.713q0-2.84,0-5.681a3.669,3.669,0,0,1,.462-2.023,2.6,2.6,0,0,1,2.99-1.023,2.732,2.732,0,0,1,1.722,2.346,31.223,31.223,0,0,1,.063,3.136c.021,1.151.019,2.3,0,3.455a5.887,5.887,0,0,1-.858,3.307,5.4,5.4,0,0,1-2.79,2.143,7.144,7.144,0,0,1-2.074.255c-1.05.047-2.1.012-3.157.011" transform="translate(-160.221 -143.269)" fill="#f70"/>
          <path id="Path_611386" data-name="Path 611386" d="M241.379,31.647c0-1.306-.012-2.381.007-3.456a.45.45,0,0,0-.468-.521,3.872,3.872,0,0,0-.423-.011c-2.017,0-4.039.091-6.049-.026-1.78-.1-2.983-1.142-2.665-3.183a2.357,2.357,0,0,1,2.206-1.936,8.975,8.975,0,0,1,1.189-.069c1.81,0,3.621-.021,5.431.006a7.915,7.915,0,0,1,2.826.4,4.779,4.779,0,0,1,1.453.979,5.15,5.15,0,0,1,1.667,3.613c.134,2.262.034,4.523.059,6.784a3.18,3.18,0,0,1-.619,2.039,2.548,2.548,0,0,1-2.973.785,3.4,3.4,0,0,1-1.006-.632,2.6,2.6,0,0,1-.543-1.215c-.192-1.261-.023-2.526-.092-3.556" transform="translate(-160.295 -15.52)" fill="#f70"/>
          <path id="Path_611387" data-name="Path 611387" d="M.02,31.039c0-1.215-.056-2.434.016-3.645a5,5,0,0,1,1.252-3.135A4.9,4.9,0,0,1,4,22.605a5.774,5.774,0,0,1,.838-.109c2.112-.114,4.228-.109,6.34-.053a10.456,10.456,0,0,1,1.672.108,2.347,2.347,0,0,1,1.877,1.592,2.4,2.4,0,0,1-.482,2.557,2.871,2.871,0,0,1-2.2.923c-1.693.045-3.388,0-5.081.022A8.158,8.158,0,0,0,5.5,27.69c-.294.057-.238.2-.239.359,0,1.97.009,3.94-.007,5.91a3.424,3.424,0,0,1-.627,2.268,2.559,2.559,0,0,1-2.512.986,2.64,2.64,0,0,1-1.279-.759,2.616,2.616,0,0,1-.815-2q0-1.708,0-3.416" transform="translate(0 -15.498)" fill="#f70"/>
          <path id="Path_611388" data-name="Path 611388" d="M.054,213.159c0-1.139-.038-2.279.011-3.415a2.7,2.7,0,0,1,1.476-2.354A2.545,2.545,0,0,1,5.117,209a5.33,5.33,0,0,1,.172,1.289q0,2.878,0,5.757c0,.571.059.642.635.645,1.681.009,3.363-.011,5.044.02a10.62,10.62,0,0,1,2.015.157,2.513,2.513,0,0,1,1.944,2.638,2.538,2.538,0,0,1-2.222,2.333,13.544,13.544,0,0,1-1.612.076c-1.925,0-3.851.041-5.775-.015a5.207,5.207,0,0,1-5.175-4.375,7.334,7.334,0,0,1-.09-1.26c-.012-1.036,0-2.072,0-3.109Z" transform="translate(-0.028 -143.257)" fill="#f70"/>
          <path id="Path_611389" data-name="Path 611389" d="M191.867,149.084c0-3.387.029-6.775-.013-10.162a8.411,8.411,0,0,0-1.981-5.3,8.3,8.3,0,0,0-1.316-1.479,13.5,13.5,0,0,0-3.347-1.959c-.049-.019-.1-.032-.106-.094-.008-.081.045-.111.114-.121.087-.013.182,0,.25-.074.308-.061.637.076.934-.095.166.051.31-.075.472-.061h.025l.024,0,.158-.011a.664.664,0,0,0,.384-.037l.167,0,.831.124c.588.16,1.2.167,1.793.356a10.26,10.26,0,0,1,3.344,1.806,9,9,0,0,1,2.957,4.227c.2.589.317,1.2.492,1.793a3.945,3.945,0,0,1,.061,1.039c-.012,3.057-.007,6.114-.007,9.172,0,.751-.18.908-.927.9-1.437-.018-2.874-.015-4.311-.021" transform="translate(-128.043 -89.71)" fill="#c8a37f"/>
          <path id="Path_611390" data-name="Path 611390" d="M246.594,135.535c-1.168,0-2.337.018-3.5-.007a2.244,2.244,0,0,1-1.619-.76,4.845,4.845,0,0,1-.5-.567,2.38,2.38,0,0,1-.215-2.046,2.476,2.476,0,0,1,2.341-1.773c2.282-.135,4.564-.037,6.846-.059a2.69,2.69,0,0,1,2.351,1.215,2.534,2.534,0,0,1-.782,3.543,2.954,2.954,0,0,1-1.609.451c-1.1,0-2.208,0-3.313,0" transform="translate(-166.451 -90.139)" fill="#f70"/>
          <path id="Path_611391" data-name="Path 611391" d="M6.2,135.511c-1.167,0-2.335.027-3.5-.009A2.834,2.834,0,0,1,.343,133.84a2.623,2.623,0,0,1,2.273-3.491c2.358-.1,4.717-.087,7.071-.029a2.581,2.581,0,0,1,2.421,3.438A2.8,2.8,0,0,1,9.7,135.51c-1.167,0-2.335,0-3.5,0" transform="translate(-0.104 -90.117)" fill="#f70"/>
          <path id="Path_611392" data-name="Path 611392" d="M136.873,6.127c.026.984-.016,2.135-.057,3.285a2.454,2.454,0,0,1-1.853,2.452,2.553,2.553,0,0,1-3.027-1.307,2.247,2.247,0,0,1-.22-1.224c.016-.216,0-.434.005-.651,0-2.009.045-4.018,0-6.026A2.485,2.485,0,0,1,134.3,0a2.427,2.427,0,0,1,2.514,2.506c.03.575.046,1.15.055,1.725s0,1.152,0,1.895" transform="translate(-91.106 -0.001)" fill="#f70"/>
          <path id="Path_611393" data-name="Path 611393" d="M131.774,244.982c0-1.126,0-2.252,0-3.378A2.614,2.614,0,0,1,133,239.347a3.01,3.01,0,0,1,2.659.045,2.635,2.635,0,0,1,1.211,2.385q.081,2.4.039,4.8a17.246,17.246,0,0,1-.116,2.33,2.367,2.367,0,0,1-1.642,1.915,2.508,2.508,0,0,1-3.367-2.344c-.017-1.164,0-2.329,0-3.493h-.008" transform="translate(-91.152 -165.364)" fill="#f70"/>
          <path id="Path_611394" data-name="Path 611394" d="M82.205,129.706l.172-.017.071,0,.162,0,.757.124a9.14,9.14,0,0,1,4.222,1.4c.177.109.3.332.562.288.009.4-.38.549-.575.809a8.5,8.5,0,0,0-1.444,2.426.233.233,0,0,1-.2.154A4.562,4.562,0,0,1,85,133.687a9.141,9.141,0,0,0-1.654-1.733,18.324,18.324,0,0,0-2.823-1.727c-.151-.085-.465.1-.454-.261a3.856,3.856,0,0,1,.975-.091c.12,0,.256.044.352-.076l.6-.071.213-.023" transform="translate(-55.384 -89.704)" fill="#c8a37f"/>
          <path id="Path_611395" data-name="Path 611395" d="M89.08,129.706l-.757-.124,1.057-.043c-.082.09-.274-.021-.3.167" transform="translate(-61.096 -89.607)" fill="#4ab9dc"/>
          <path id="Path_611396" data-name="Path 611396" d="M194.141,129.814l-.831-.124.787,0c.014.04.029.08.044.12" transform="translate(-133.719 -89.711)" fill="#4ab9dc"/>
          <path id="Path_611397" data-name="Path 611397" d="M131.3,152.434a2,2,0,0,1-.546,1.326c-1.342,1.895-2.656,3.809-4.024,5.686-.6.829-1.176,1.687-1.774,2.523-.332.464-.7.963-1.413.918a1.163,1.163,0,0,1-.788-.341q-3.107-3.093-6.209-6.189a1.2,1.2,0,0,1,1.3-1.871,3.045,3.045,0,0,1,.941.651l4.195,4.18c.424.423.614.364.926-.155.34-.564.754-1.084,1.13-1.628.629-.911,1.244-1.83,1.88-2.736.572-.813,1.167-1.609,1.744-2.418.17-.237.3-.5.475-.735a1.3,1.3,0,0,1,1.392-.4,1.135,1.135,0,0,1,.772,1.186" transform="translate(-80.418 -104.577)" fill="#ffe7af"/>
          <path id="Path_611398" data-name="Path 611398" d="M86.529,129.714l-.213.022a.2.2,0,0,1,.213-.022" transform="translate(-59.708 -89.712)" fill="#4ab9dc"/>
          <path id="Path_611399" data-name="Path 611399" d="M87.637,129.671l-.072,0a.061.061,0,0,1,.072,0" transform="translate(-60.572 -89.692)" fill="#4ab9dc"/>
          <path id="Path_611400" data-name="Path 611400" d="M191.905,129.646a.667.667,0,0,1-.384.037.49.49,0,0,1,.384-.037" transform="translate(-132.482 -89.665)" fill="#4ab9dc"/>
          <path id="Path_611401" data-name="Path 611401" d="M190.9,129.8l-.024,0h-.025l.023-.024Z" transform="translate(-132.018 -89.775)" fill="#4ab9dc"/>
        </g>
      </g>
    </g>
  </g>
</svg>
