<svg xmlns="http://www.w3.org/2000/svg" xmlns:xlink="http://www.w3.org/1999/xlink" width="125" height="125" viewBox="0 0 125 125">
  <defs>
    <clipPath id="clip-path">
      <rect id="Rectangle_378636" data-name="Rectangle 378636" width="91" height="91" transform="translate(404 1177)" fill="#fff" stroke="#707070" stroke-width="1"/>
    </clipPath>
    <clipPath id="clip-path-2">
      <rect id="Rectangle_378690" data-name="Rectangle 378690" width="67.43" height="91" fill="#615842"/>
    </clipPath>
  </defs>
  <g id="Group_1074719" data-name="Group 1074719" transform="translate(-387 -1170.144)">
    <g id="Group_1072555" data-name="Group 1072555" transform="translate(1 -975.856)">
      <path id="Path_608385" data-name="Path 608385" d="M62.5,0A62.5,62.5,0,1,1,0,62.5,62.5,62.5,0,0,1,62.5,0Z" transform="translate(386 2146)" fill="#fff"/>
    </g>
    <g id="Mask_Group_154385" data-name="Mask Group 154385" transform="translate(0 11)" clip-path="url(#clip-path)">
      <g id="Group_1074274" data-name="Group 1074274" transform="translate(416 1177)">
        <g id="Group_1074273" data-name="Group 1074273" clip-path="url(#clip-path-2)">
          <path id="Path_612503" data-name="Path 612503" d="M38.077,86.668c1.063-.416,2.028-.866,3.037-1.171,1.664-.5,3.345-.962,5.039-1.351a56.18,56.18,0,0,1,13.6-1.224c.665.012.659,0,.657-.672,0-2.025-.01-4.05,0-6.075,0-.311-.055-.427-.4-.421-.762.011-1.527-.007-2.289-.052a3.011,3.011,0,0,1-3.085-2.837,26.7,26.7,0,0,1,.041-4.919,4.129,4.129,0,0,1,3.323-3.6,6.879,6.879,0,0,1,1.7-.084c.64-.013.689-.049.7-.7.019-1.467.008-2.936.059-4.4a1.268,1.268,0,0,1,1.68-1.207A1.464,1.464,0,0,1,63.152,59.3a5.193,5.193,0,0,1-.019,1.1c-.059.389.092.565.41.772a17.834,17.834,0,0,1,2.3,1.667,5.012,5.012,0,0,1,1.565,3.726c.032,1.073.007,2.147.006,3.221a5.834,5.834,0,0,1-3.776,5.576.651.651,0,0,0-.49.734c.025,2.052.013,4.1.011,6.156a3.083,3.083,0,0,1-3.26,3.331c-1.348.027-2.7-.039-4.046.044-1.873.116-3.747.149-5.617.424a48.239,48.239,0,0,0-7.561,1.657,31.552,31.552,0,0,0-5.463,2.349,7.038,7.038,0,0,1-7.1-.045,32.252,32.252,0,0,0-7.9-3.024,42.288,42.288,0,0,0-4.159-.835c-1.478-.213-2.973-.343-4.465-.414-2.013-.1-4.031-.12-6.047-.142a3.116,3.116,0,0,1-3.277-3.284c0-2.12-.005-4.24.007-6.36a.475.475,0,0,0-.358-.531,5.9,5.9,0,0,1-3.9-5.705c0-.87.026-1.741-.005-2.609A5.754,5.754,0,0,1,3,61.7a9.425,9.425,0,0,1,.955-.549.521.521,0,0,0,.322-.57c-.01-3.058-.017-6.115,0-9.173a3.889,3.889,0,0,1,1.578-3.167.725.725,0,0,0,.237-.461c.058-.648.017-1.309.123-1.948a3.222,3.222,0,0,1,3.24-2.763c1.4-.013,2.807.049,4.21.061a1.126,1.126,0,0,0,.607-.157,18.982,18.982,0,0,1,5.029-2.4c1.333-.413,2.723-.644,4.093-.935a3.731,3.731,0,0,0,3.294-4.078c0-.154-.2-.344-.347-.455a12.155,12.155,0,0,1-4.5-6.242c-.189-.594-.322-1.205-.463-1.812a.616.616,0,0,0-.445-.462,9.032,9.032,0,0,1-1.693-.778A4.252,4.252,0,0,1,17.4,22.527a15.52,15.52,0,0,1,.053-3.289,9.25,9.25,0,0,1,.7-1.932,2.35,2.35,0,0,0,.172-.689c.024-.583,0-1.169.007-1.753a1.312,1.312,0,1,1,2.616.011c0,.462.025.926-.007,1.386a.817.817,0,0,0,.546.9c.667.262,1.347.489,2.078.751,0-.2,0-.33,0-.461a38.546,38.546,0,0,1,.081-4.192,4.207,4.207,0,0,1,6.791-2.747,7.168,7.168,0,0,1,.87.8,12.153,12.153,0,0,0,5.629,3.617,9.107,9.107,0,0,0,4.446.213,10.251,10.251,0,0,1,1.054-.127A2.548,2.548,0,0,1,44.987,16.3a1.963,1.963,0,0,0,.927.877.951.951,0,0,0,1.408-.907c.012-.407,0-.815,0-1.223q.006-3.18.013-6.359c0-.988-.378-1.411-1.361-1.6A5.354,5.354,0,0,1,44.5,6.646a2.838,2.838,0,0,1-1.531-2.483,1.542,1.542,0,0,0-1.616-1.545c-4.226-.005-8.455-.079-12.679.022a7.768,7.768,0,0,0-7.315,5.373c-.079.229-.095.48-.168.711a1.494,1.494,0,0,1-1.2,1.141,1.085,1.085,0,0,1-1.229-.608,1.839,1.839,0,0,1-.133-1.127A10.332,10.332,0,0,1,25.282.659,10.651,10.651,0,0,1,29.17.009C33.138-.006,37.106,0,41.073,0a4.393,4.393,0,0,1,3.748,1.8,4.069,4.069,0,0,1,.743,2.043.6.6,0,0,0,.661.637,3.827,3.827,0,0,1,3.321,2.3,5.065,5.065,0,0,1,.536,2.32c-.014,2.106,0,4.213,0,6.319a1.613,1.613,0,0,0,0,.326c.168.8-.426,1.5-.194,2.348a10.394,10.394,0,0,1,.185,2.381c.027.8.037,1.605,0,2.4a3.675,3.675,0,0,1-1.445,2.972,4.614,4.614,0,0,1-1.242.567c-.253.085-.386.176-.427.453a11.944,11.944,0,0,1-4.307,7.714,17.753,17.753,0,0,1-1.632,1.152.5.5,0,0,0-.261.565,3.7,3.7,0,0,0,3.34,3.332,23.017,23.017,0,0,1,8.038,2.7,5.359,5.359,0,0,1,.794.5,1.641,1.641,0,0,0,1.224.3c1.376-.038,2.753-.089,4.128-.052a3.27,3.27,0,0,1,3,3.079c.041.527.005,1.06.04,1.588a.7.7,0,0,0,.222.466,3.99,3.99,0,0,1,1.62,3.274,9.106,9.106,0,0,1-.054,1.5,1.3,1.3,0,0,1-1.4,1.2,1.251,1.251,0,0,1-1.27-1.312c-.039-.569-.026-1.141-.048-1.711a.893.893,0,0,0-.933-.919,44.078,44.078,0,0,0-6.366.257c-1.428.194-2.872.271-4.3.483a30.68,30.68,0,0,0-5.91,1.387c-1.469.529-2.906,1.147-4.365,1.7a.653.653,0,0,0-.473.738c.029.828.031,1.658.031,2.487q0,13.678,0,27.356c0,.516-.018,1.033-.024,1.549,0,.143.012.286.021.47m-8.713-.062c0-.162,0-.349,0-.536-.007-3.6-.022-7.2-.02-10.8q0-10.273.031-20.546a.564.564,0,0,0-.4-.613c-.44-.179-.86-.408-1.3-.6a35.346,35.346,0,0,0-8.526-2.45c-1.5-.245-3.031-.307-4.536-.532a43.92,43.92,0,0,0-6.773-.284,1.023,1.023,0,0,0-.51.193c-.358.235-.347.616-.346.988q.013,5.85.025,11.7c0,.244.015.489.019.733,0,.272.143.392.41.391.368,0,.736.009,1.1.009a4.262,4.262,0,0,1,4.219,3.775,39.43,39.43,0,0,1,.065,4.641A3.1,3.1,0,0,1,9.779,75.7c-.815.053-1.634.035-2.452.035-.26,0-.348.071-.345.352.022,2.092.024,4.185.032,6.277,0,.573,0,.571.558.567a64.529,64.529,0,0,1,9.018.4A48.6,48.6,0,0,1,24.7,84.975c1.552.485,3.072,1.07,4.669,1.631M20.122,19.459c0,1.133-.044,2.191.015,3.243a1.574,1.574,0,0,0,1.517,1.353c.285.018.573,0,.858.013a1.408,1.408,0,0,1,1.39,1.372,12.749,12.749,0,0,0,.111,1.34,9.867,9.867,0,0,0,8.108,8.084,9.783,9.783,0,0,0,5.9-.52,10.109,10.109,0,0,0,5.644-5.314,13.1,13.1,0,0,0,.844-3.8,1.242,1.242,0,0,1,1.319-1.257c.177-.009.354-.01.531-.013.691-.01.977-.275.984-.96.007-.706-.015-1.413-.022-2.12,0-.348,0-.7,0-1.053-.124,0-.191-.006-.257,0a4.024,4.024,0,0,1-4.205-2.037c-.146-.241-.308-.21-.515-.166a12.348,12.348,0,0,1-8.593-1.177,17.322,17.322,0,0,1-4.69-3.7,1.683,1.683,0,0,0-1.88-.408,1.388,1.388,0,0,0-.942,1.351c-.02.229-.035.46-.034.691.006,1.128.019,2.256.029,3.383a2.558,2.558,0,0,1-3.692,2.539c-.794-.307-1.607-.566-2.421-.85m11.9,36.27c0,.344,0,.62,0,.9q-.017,15.526-.039,31.052a.417.417,0,0,0,.34.461,4.1,4.1,0,0,0,2.761.011.416.416,0,0,0,.338-.5c-.035-.351-.057-.7-.056-1.057q.011-15.179.026-30.357c0-.153-.023-.305-.039-.5a4.722,4.722,0,0,1-3.33,0M8.769,47.608h.343a52.526,52.526,0,0,1,7.986.511c1.463.232,2.93.447,4.381.741a31.516,31.516,0,0,1,6.283,1.877c1.457.631,2.875,1.361,4.269,2.123a3.153,3.153,0,0,0,3.363,0c.421-.25.841-.5,1.272-.735A38.54,38.54,0,0,1,49.359,48.25a60.63,60.63,0,0,1,8.469-.641c.891-.008.891,0,.853-.88-.034-.786-.206-1.011-1.01-.994-2.329.05-4.662.072-6.982.251a38.636,38.636,0,0,0-5.988,1,27.737,27.737,0,0,0-8.646,3.529,5.5,5.5,0,0,1-1.771.684,4.1,4.1,0,0,1-3.156-.814,22.586,22.586,0,0,0-4.45-2.207,29.315,29.315,0,0,0-5.9-1.573c-1.3-.2-2.6-.488-3.906-.6-1.94-.17-3.89-.228-5.836-.319-.516-.024-1.036,0-1.553.018-.335.013-.657.141-.7.506a12.868,12.868,0,0,0-.012,1.4M48.627,43.56a3.587,3.587,0,0,0-.391-.2,12.074,12.074,0,0,0-1.16-.385c-1.266-.308-2.542-.575-3.8-.9a1.2,1.2,0,0,0-1.133.219,12.711,12.711,0,0,1-5.09,2.3,12.867,12.867,0,0,1-6.415-.182A13.848,13.848,0,0,1,26.25,42.3a1.7,1.7,0,0,0-1.663-.326c-1.732.5-3.5.888-5.248,1.327a3.114,3.114,0,0,0-.423.173l.01.1c.205.045.41.091.615.135,1.806.389,3.629.713,5.415,1.18a26.864,26.864,0,0,1,7.911,3.5,1.489,1.489,0,0,0,1.69.009c.491-.293.974-.6,1.469-.882a30.115,30.115,0,0,1,8.568-3.171c1.306-.294,2.627-.519,4.033-.794M4.194,64a3,3,0,0,0-1.542,2.57q-.035,1.73,0,3.461a3.027,3.027,0,0,0,2.9,3.059c1.331.061,2.668.01,4-.014.487-.009.6-.168.6-.667.007-1.262-.035-2.527.037-3.785a1.727,1.727,0,0,0-1.65-1.752c-.394.01-.791.022-1.184,0a3.053,3.053,0,0,1-2.683-1.708c-.186-.357-.312-.744-.484-1.161m59.025-.028c-.086.248-.151.425-.209.605a3.189,3.189,0,0,1-3.278,2.3c-.313-.01-.626.009-.939,0a1.683,1.683,0,0,0-1.536,1.636c.064,1.3.017,2.606.021,3.909,0,.474.112.629.585.64,1.266.029,2.532.021,3.8.036a3.049,3.049,0,0,0,3.114-3.053c.045-1.166.038-2.336,0-3.5a3.011,3.011,0,0,0-1.556-2.573M29.186,36.824A5.825,5.825,0,0,1,27.7,40.177a10.959,10.959,0,0,0,7.447,2.057,10.39,10.39,0,0,0,4.9-1.661,17.993,17.993,0,0,1-1.162-1.651,16.865,16.865,0,0,1-.754-1.812c.054.008.025,0,0,0-.173.036-.348.066-.517.114a12.267,12.267,0,0,1-7.818-.3,3.417,3.417,0,0,0-.618-.106" transform="translate(0 0)" fill="#615842"/>
          <path id="Path_612504" data-name="Path 612504" d="M139.238,179.948c-1.944.239-3.9.426-5.83.731-1.568.248-3.116.624-4.667.971a9.136,9.136,0,0,0-1.632.511,1.41,1.41,0,0,1-1.674-.86,1.285,1.285,0,0,1,.864-1.616c1.572-.431,3.144-.874,4.734-1.226a41.445,41.445,0,0,1,4.14-.706c1.66-.194,3.335-.264,5-.409a1.414,1.414,0,0,1,1.4,1.35,1.345,1.345,0,0,1-1.18,1.292c-.38.031-.761.043-1.142.064,0-.034-.008-.068-.011-.1" transform="translate(-84.35 -119.311)" fill="#615842"/>
        </g>
      </g>
    </g>
  </g>
</svg>
