<svg xmlns="http://www.w3.org/2000/svg" xmlns:xlink="http://www.w3.org/1999/xlink" width="120" height="120" viewBox="0 0 120 120">
  <defs>
    <clipPath id="clip-path">
      <rect id="Rectangle_378983" data-name="Rectangle 378983" width="83" height="83" transform="translate(-12 -2.234)" fill="#fff" stroke="#707070" stroke-width="1"/>
    </clipPath>
    <clipPath id="clip-path-2">
      <rect id="Rectangle_378069" data-name="Rectangle 378069" width="75.333" height="82.112" fill="#5e5a55" stroke="#5e5a55" stroke-width="0.5"/>
    </clipPath>
  </defs>
  <g id="Group_1074740" data-name="Group 1074740" transform="translate(-180 -999)">
    <g id="Group_1074711" data-name="Group 1074711">
      <g id="Group_1073056" data-name="Group 1073056" transform="translate(-89 40.999)">
        <path id="Path_608974" data-name="Path 608974" d="M60,0A60,60,0,1,1,0,60,60,60,0,0,1,60,0Z" transform="translate(269 958)" fill="#ffe7af"/>
      </g>
      <g id="Grupo_156261" data-name="Grupo 156261" transform="translate(204 1020.234)">
        <g id="Mask_Group_154442" data-name="Mask Group 154442" transform="translate(7)" clip-path="url(#clip-path)">
          <g id="Group_1073060" data-name="Group 1073060" transform="translate(-8 -2.235)">
            <g id="Group_1073059" data-name="Group 1073059" clip-path="url(#clip-path-2)">
              <path id="Path_611491" data-name="Path 611491" d="M9.277,38.231v-2.3A2.278,2.278,0,0,1,7,36.881c-1.248,0-2.5.017-3.744-.022a2.069,2.069,0,0,1-2.153-1.965,2.217,2.217,0,0,1,.107-1.04c.508-1.351,1.054-2.689,1.6-4.023a.592.592,0,0,0-.121-.714,3.554,3.554,0,0,1,1.136-5.588.526.526,0,0,0,.338-.563q-.02-1.876.009-3.753a.365.365,0,0,0-.3-.412c-.755-.28-1.517-.553-2.247-.892a2.61,2.61,0,0,1-1.626-2.2,2.561,2.561,0,0,1,1.563-2.526c.921-.418,1.881-.751,2.83-1.107q5.454-2.044,10.912-4.076,6.85-2.552,13.7-5.1c2.3-.857,4.6-1.708,6.9-2.579a4.866,4.866,0,0,1,3.574.026q7.186,2.7,14.386,5.363l14.834,5.52c1.431.532,2.863,1.059,4.289,1.6a5.705,5.705,0,0,1,1.054.508,2.489,2.489,0,0,1-.077,4.4,16.586,16.586,0,0,1-2.426,1.022q-4.544,1.709-9.1,3.39-1.752.65-3.51,1.282c-.582.21-.588.2-.587.831,0,2.38.013,4.761.009,7.141,0,.279.057.388.369.439,1.471.239,2.944.481,4.4.8a3.689,3.689,0,0,1,2.878,3.63c.023.634,0,1.269,0,1.954h.439c1.737,0,3.475,0,5.213,0a3.483,3.483,0,0,1,1.936.6,2.951,2.951,0,0,1,1.288,2.513c.023.576.032,1.153.032,1.73q0,17.356,0,34.712c0,.563-.019,1.129-.071,1.69a2.926,2.926,0,0,1-3.014,2.639c-.086,0-.171,0-.257,0H3.695a3.331,3.331,0,0,1-2.042-.589,2.883,2.883,0,0,1-1.207-2.4C.412,76.556.4,73.994.4,71.432q0-14.27,0-28.54c0-.6,0-1.2.052-1.8A3.083,3.083,0,0,1,3.7,38.236c1.713-.02,3.426,0,5.139,0h.436M72.8,15.563a2.644,2.644,0,0,0-.361-.242c-.361-.149-.726-.289-1.092-.425q-4.4-1.631-8.8-3.259Q57.489,9.753,52.429,7.859,45.94,5.439,39.451,3.024a4.539,4.539,0,0,0-1.864-.445,4.569,4.569,0,0,0-1.374.328q-6.335,2.358-12.671,4.71-5.526,2.059-11.049,4.13-4.806,1.791-9.615,3.571a2.644,2.644,0,0,0-.375.235c.333.148.579.274.836.37.961.357,1.929.7,2.889,1.055Q13.4,19.65,20.576,22.329,28.539,25.3,36.5,28.282a3.12,3.12,0,0,0,2.343.006c2.188-.841,4.39-1.646,6.586-2.466q4.941-1.847,9.882-3.7Q63.651,19.02,72,15.923c.245-.091.478-.213.805-.36M9.269,40.921a.959.959,0,0,0-.154-.035c-1.921,0-3.842,0-5.763-.007-.229,0-.309.1-.316.3-.013.38-.026.76-.026,1.14q0,17.906,0,35.813c0,.307.016.614,0,.92s.083.415.413.414q34.248-.012,68.5-.008c.129,0,.258-.012.405-.019v-.52q0-18.422,0-36.843c0-.258-.024-.516-.011-.773.017-.341-.133-.431-.46-.428-1.725.014-3.451.006-5.176.006-.624,0-.623,0-.623.608q0,13.416,0,26.832c0,.441-.015.884-.046,1.324a3.771,3.771,0,0,1-4.592,3.579c-1.686-.284-3.375-.6-5.076-.735a60,60,0,0,0-6.048-.2,35.555,35.555,0,0,0-5.849.392c-1.812.336-3.636.612-5.437,1a6.086,6.086,0,0,1-2.711-.018c-1.522-.349-3.056-.679-4.6-.887-1.632-.219-3.285-.276-4.928-.422a46.8,46.8,0,0,0-7.258.1c-1.908.127-3.8.488-5.694.806a3.755,3.755,0,0,1-4.407-3.1,14.019,14.019,0,0,1-.127-2.09Q9.264,54.756,9.269,41.45v-.529m27.17,30.116V70.4q0-4.472,0-8.943-.01-8.3-.022-16.6c0-.265-.054-.341-.339-.36-2.073-.135-4.148-.268-6.216-.465-1.078-.1-2.149-.3-3.213-.511-1.748-.342-3.51-.643-5.226-1.112a6.25,6.25,0,0,1-4.394-5.518c-.051-.745-.046-1.495-.054-2.242,0-.229-.055-.347-.317-.3-1.259.238-2.52.458-3.778.7a1.162,1.162,0,0,0-1.019,1.131,7.847,7.847,0,0,0-.025.845q0,13.03.011,26.06c0,2.1-.012,4.2-.007,6.294,0,.985.541,1.49,1.475,1.366,1.233-.164,2.459-.387,3.695-.538,1.491-.183,2.986-.374,4.484-.46a44.388,44.388,0,0,1,7.514.144q2.219.25,4.427.589c.819.124,1.625.331,2.439.493.164.033.335.034.565.055m2.451.008c.268-.035.494-.056.717-.1,1.212-.218,2.418-.473,3.634-.654,1.3-.194,2.615-.364,3.93-.467a45.341,45.341,0,0,1,8.612.073c1.662.187,3.314.452,4.971.68.472.065.943.15,1.417.183.841.059,1.3-.473,1.3-1.468q0-15.863-.007-31.727c0-.478.031-.958,0-1.434a1.142,1.142,0,0,0-.948-1.072c-.249-.057-.51-.054-.761-.1-1.018-.2-2.035-.4-3.049-.607-.271-.056-.356.035-.35.294.011.466.011.932.013,1.4A6.564,6.564,0,0,1,52.9,42.723c-2.226.444-4.442.925-6.7,1.213a62.447,62.447,0,0,1-6.61.552c-.819.017-.71-.139-.71.738q-.01,11.926.009,23.851c0,.635,0,1.27,0,1.966m-19.4-46.4c-.014.132-.027.2-.027.275,0,3.729-.022,7.458.022,11.187a5.428,5.428,0,0,0,.463,2.019,3.9,3.9,0,0,0,3.122,2.168c1.532.307,3.071.576,4.608.855a67.668,67.668,0,0,0,7.728.786,39.961,39.961,0,0,0,5.975-.1c1.752-.15,3.513-.253,5.252-.5,1.908-.273,3.8-.667,5.69-1.053a4.035,4.035,0,0,0,3.544-4.306c.016-3.643.006-7.286.005-10.93,0-.115-.012-.231-.021-.4-.217.065-.392.108-.561.17-.87.322-1.739.648-2.608.972q-4.669,1.738-9.338,3.474c-1.488.552-2.982,1.088-4.47,1.64a3.348,3.348,0,0,1-2.431-.007c-1.623-.611-3.254-1.2-4.879-1.8Q26,27.021,20.443,24.945c-.3-.113-.619-.2-.953-.305M6.637,19.818c-.01.2-.021.331-.021.46,0,.907.011,1.814,0,2.721a.5.5,0,0,0,.315.54,3.413,3.413,0,0,1,1.885,2.31,3.676,3.676,0,0,1-.838,3.391.513.513,0,0,0-.113.406A45.62,45.62,0,0,1,9.7,34.538c.019-.009.035-.011.041-.019.049-.07.1-.14.144-.211A3.857,3.857,0,0,1,12.5,32.576c1.382-.244,2.762-.5,4.146-.739.243-.041.327-.128.327-.375q-.006-3.7.009-7.393a.5.5,0,0,0-.385-.562c-2.579-.944-5.151-1.906-7.725-2.863l-2.233-.827M5.419,30.328l-.1,0L3.687,34.339H7.062L5.419,30.328m.991-3.573c-.033-.733-.383-.981-1.023-1.059a1.036,1.036,0,0,0-1.071,1.05,1.022,1.022,0,0,0,1.046,1.034A1,1,0,0,0,6.41,26.755" transform="translate(0 0)" fill="#5e5a55" stroke="#5e5a55" stroke-width="0.5"/>
              <path id="Path_611492" data-name="Path 611492" d="M60.944,206.351a36.622,36.622,0,0,1,6.03.335c.4.059.805.052,1.205.1a1.619,1.619,0,0,1,1.286.675,1.144,1.144,0,0,1,.011,1.287,1.3,1.3,0,0,1-1.281.623c-1.47-.15-2.936-.355-4.409-.45a36.531,36.531,0,0,0-7.173.167c-1.028.136-2.061.232-3.093.337a1.335,1.335,0,0,1-1.437-1,1.232,1.232,0,0,1,.907-1.464,7.451,7.451,0,0,1,1.3-.211,45.526,45.526,0,0,1,6.658-.4" transform="translate(-36.725 -145.578)" fill="#5e5a55" stroke="#5e5a55" stroke-width="0.5"/>
              <path id="Path_611493" data-name="Path 611493" d="M68.131,185.522c-.344-.055-.836-.17-1.334-.207a46.578,46.578,0,0,0-9.589-.122c-1.234.163-2.478.252-3.719.352a1.222,1.222,0,0,1-1.379-.9,1.144,1.144,0,0,1,.746-1.469,16.714,16.714,0,0,1,2.053-.346,49.127,49.127,0,0,1,8.311-.319c1.659.082,3.312.276,4.967.428a2.37,2.37,0,0,1,.531.133,1.249,1.249,0,0,1,.928,1.459,1.37,1.37,0,0,1-1.514.988" transform="translate(-36.727 -128.736)" fill="#5e5a55" stroke="#5e5a55" stroke-width="0.5"/>
              <path id="Path_611494" data-name="Path 611494" d="M59.82,158.608c.623,0,1.248-.02,1.87.005a1.229,1.229,0,0,1,1.286.938,1.147,1.147,0,0,1-.91,1.521,17.14,17.14,0,0,1-1.79.109,47.306,47.306,0,0,0-6.281.463,3.794,3.794,0,0,1-.695.035,1.234,1.234,0,0,1-1.218-1.139,1.166,1.166,0,0,1,1-1.286c1.2-.166,2.394-.319,3.595-.442,1.045-.106,2.095-.162,3.143-.24,0,.011,0,.023,0,.034" transform="translate(-36.745 -111.884)" fill="#5e5a55" stroke="#5e5a55" stroke-width="0.5"/>
              <path id="Path_611495" data-name="Path 611495" d="M152.717,206.365a49.866,49.866,0,0,1,7.171.421,3.649,3.649,0,0,1,.849.212,1.218,1.218,0,0,1,.82,1.416,1.306,1.306,0,0,1-1.353,1.011c-.522-.047-1.037-.178-1.559-.223a51.6,51.6,0,0,0-8.747-.283c-1.484.127-2.964.3-4.446.461a1.3,1.3,0,0,1-1.266-.579,1.164,1.164,0,0,1-.02-1.32,1.457,1.457,0,0,1,1.2-.681,50.55,50.55,0,0,1,7.351-.436" transform="translate(-101.579 -145.581)" fill="#5e5a55" stroke="#5e5a55" stroke-width="0.5"/>
              <path id="Path_611496" data-name="Path 611496" d="M152.438,182.176c2.055.145,4.249.29,6.441.46a12.278,12.278,0,0,1,1.7.256,1.212,1.212,0,0,1,1.059,1.421,1.307,1.307,0,0,1-1.5,1.037c-1.874-.166-3.749-.313-5.621-.5a29.4,29.4,0,0,0-5.6.132c-1.106.1-2.209.228-3.315.333A1.292,1.292,0,0,1,144.074,184a.989.989,0,0,1,.691-1.023,9.451,9.451,0,0,1,1.75-.337c1.922-.173,3.847-.308,5.924-.469" transform="translate(-101.653 -128.536)" fill="#5e5a55" stroke="#5e5a55" stroke-width="0.5"/>
              <path id="Path_611497" data-name="Path 611497" d="M169.884,158.762a41.956,41.956,0,0,1,6.783.6,1.224,1.224,0,0,1-.276,2.431c-1.011-.079-2.014-.249-3.025-.309-1.7-.1-3.4-.143-5.1-.213a3.391,3.391,0,0,1-.473-.049,1.009,1.009,0,0,1-.982-1.109c-.009-.728.336-1.27.982-1.336a20.533,20.533,0,0,1,2.086-.016" transform="translate(-117.699 -112.002)" fill="#5e5a55" stroke="#5e5a55" stroke-width="0.5"/>
            </g>
          </g>
        </g>
      </g>
    </g>
  </g>
</svg>
