<svg xmlns="http://www.w3.org/2000/svg" xmlns:xlink="http://www.w3.org/1999/xlink" width="125" height="125" viewBox="0 0 125 125">
  <defs>
    <clipPath id="clip-path">
      <rect id="Rectangle_378638" data-name="Rectangle 378638" width="91" height="91" transform="translate(404 1177)" fill="#fff" stroke="#707070" stroke-width="1"/>
    </clipPath>
    <clipPath id="clip-path-2">
      <rect id="Rectangle_378689" data-name="Rectangle 378689" width="82" height="77.626" fill="#615842"/>
    </clipPath>
  </defs>
  <g id="Group_1074720" data-name="Group 1074720" transform="translate(-739 -1170.144)">
    <g id="Group_1074204" data-name="Group 1074204" transform="translate(353 -975.856)">
      <path id="Path_608385" data-name="Path 608385" d="M62.5,0A62.5,62.5,0,1,1,0,62.5,62.5,62.5,0,0,1,62.5,0Z" transform="translate(386 2146)" fill="#fff"/>
    </g>
    <g id="Mask_Group_154386" data-name="Mask Group 154386" transform="translate(352 11)" clip-path="url(#clip-path)">
      <g id="Group_1074272" data-name="Group 1074272" transform="translate(409 1184)">
        <g id="Group_1074271" data-name="Group 1074271" clip-path="url(#clip-path-2)">
          <path id="Path_612501" data-name="Path 612501" d="M67.35,47.324c-.8-.09-1.56-.169-2.32-.262-2.1-.259-4.208-.5-6.327-.586-.6-.026-1.188-.12-1.78-.2s-.654-.067-.922.393a27.566,27.566,0,0,1-4.922,6.082c-.432.411-.877.811-1.343,1.184a.628.628,0,0,0-.244.632c.145,1.205.3,2.41.429,3.616a.5.5,0,0,0,.426.5c.567.139,1.127.308,1.685.481.241.074.47.188.733.295.078-.088.164-.189.252-.286a2.55,2.55,0,0,1,2.731-.874,65.437,65.437,0,0,1,6.26,1.97,11.556,11.556,0,0,1,6.863,7.548,33.346,33.346,0,0,1,.808,3.692c.278,1.417.522,2.842.779,4.263.034.191.058.384.078.578a1.12,1.12,0,0,1-.852,1.232,1.092,1.092,0,0,1-1.37-.666,15.476,15.476,0,0,1-.37-1.778c-.342-1.861-.619-3.737-1.027-5.583A9.825,9.825,0,0,0,59.782,61.9C58.3,61.43,56.8,61,55.311,60.551c-.387-.116-.577.015-.621.459-.075.762-.109,1.528-.211,2.287-.169,1.263-.35,2.525-.576,3.779a35.145,35.145,0,0,1-2.943,9.384,4.654,4.654,0,0,1-.335.6,1.167,1.167,0,0,1-1.479.427,1.124,1.124,0,0,1-.567-1.391,4.557,4.557,0,0,1,.313-.735,31.449,31.449,0,0,0,2.563-7.986c.242-1.239.442-2.486.626-3.735.088-.6.1-1.209.136-1.815a.237.237,0,0,0-.108-.194c-.648-.2-1.3-.38-1.972-.573-.133.46-.233.858-.363,1.245a6.822,6.822,0,0,1-3.178,3.763,1.131,1.131,0,0,1-1.745-.663,1.172,1.172,0,0,1,.528-1.287,12.577,12.577,0,0,0,1.449-1.27,3.722,3.722,0,0,0,.9-3.052c-.131-1.208-.285-2.412-.433-3.618a3.654,3.654,0,0,0-.1-.4c-.252.114-.473.2-.683.312a11.687,11.687,0,0,1-5.655,1.524,11.744,11.744,0,0,1-5.265-1.477c-.244-.129-.5-.243-.816-.4-.086.6-.176,1.137-.236,1.675-.1.893-.2,1.787-.264,2.683a4.066,4.066,0,0,0,1.879,3.694,6.779,6.779,0,0,0,3.671,1.291,4.9,4.9,0,0,1,1.079.167,1.088,1.088,0,0,1,.753,1.2,1.119,1.119,0,0,1-1.024,1.027c-2.93.062-6.739-1.387-8.173-4.591-.246-.549-.394-1.141-.606-1.77-.156.036-.353.075-.546.128-.41.114-.817.241-1.228.353a.315.315,0,0,0-.277.383,41.746,41.746,0,0,0,1.547,8.764A26.181,26.181,0,0,0,33.2,75.561a2.572,2.572,0,0,1,.259.933.96.96,0,0,1-.673,1.017,1.077,1.077,0,0,1-1.266-.281,4.986,4.986,0,0,1-.543-.9,33.818,33.818,0,0,1-2.558-7.648,55.35,55.35,0,0,1-1.114-7.45,3.038,3.038,0,0,0-.052-.324c-.069-.358-.214-.46-.566-.354-1.792.542-3.626.983-5.364,1.664a9.758,9.758,0,0,0-6.382,8.051c-.167,1.041-.4,2.072-.583,3.11s-.339,2.06-.522,3.088a1.257,1.257,0,0,1-.953,1.123,1.118,1.118,0,0,1-1.407-1.239c.316-1.867.644-3.733,1-5.593a23.436,23.436,0,0,1,.768-3.288,11.836,11.836,0,0,1,7.588-7.55c1.718-.606,3.484-1.082,5.235-1.592A2.662,2.662,0,0,1,29,59.2c.211.243.374.227.651.127.673-.242,1.363-.442,2.055-.627a.4.4,0,0,0,.346-.39c.144-1.243.287-2.486.453-3.726a.721.721,0,0,0-.321-.711,28.95,28.95,0,0,1-4.795-5.1c-.531-.725-1.007-1.491-1.477-2.257a.47.47,0,0,0-.522-.271q-1.2.136-2.4.246c-1.261.117-2.523.217-3.782.342-1.357.135-2.71.3-4.067.431-.371.037-.476.2-.473.562.015,2.5.008,5.01.008,7.515a1.14,1.14,0,0,1-1.352,1.084c-1.07-.168-2.142-.334-3.208-.531A33.1,33.1,0,0,1,3,53.918,7.057,7.057,0,0,1,.825,52.533a2.6,2.6,0,0,1-.817-1.926Q0,44.915.01,39.224a1.833,1.833,0,0,1,.119-.6,1.289,1.289,0,0,1,1.183-.817,1.3,1.3,0,0,1,1.035,1.241c0,3.758.006,7.515-.008,11.273a.909.909,0,0,0,.43.847,9.423,9.423,0,0,0,2.9,1.268c1.583.432,3.192.768,4.793,1.133.5.114,1,.193,1.506.282a2.205,2.205,0,0,0,.335,0v-.408q0-20.066.009-40.131c0-.343-.122-.471-.43-.525-1.043-.185-2.089-.358-3.125-.577A27.317,27.317,0,0,1,2.348,10.2v.5q0,11.182,0,22.364a1.123,1.123,0,0,1-1.291,1.224A1.245,1.245,0,0,1,.014,33.1,3.584,3.584,0,0,1,0,32.7Q0,20.244,0,7.785A2.972,2.972,0,0,1,1.261,5.25,9.521,9.521,0,0,1,4.4,3.731c1.7-.478,3.4-.972,5.125-1.3,2.511-.474,5.042-.857,7.577-1.18,2.124-.271,4.266-.4,6.4-.591A226.3,226.3,0,0,1,48.365.094c2.682.056,5.362.21,8.042.353,1.52.081,3.039.208,4.555.356,1.441.141,2.878.324,4.313.517a1.851,1.851,0,0,1,.83.327A1.05,1.05,0,0,1,66.4,2.9a1.131,1.131,0,0,1-1.2.712c-.96-.077-1.918-.176-2.877-.262-1.092-.1-2.184-.209-3.278-.284-2.895-.2-5.79-.383-8.685-.572-.122-.008-.244-.014-.366-.014-3.305-.017-6.611-.043-9.917-.045-2.635,0-5.27.009-7.9.053-1.157.019-2.312.142-3.469.208-1.363.077-2.73.111-4.09.22-2.248.181-4.5.382-6.737.624-1.694.183-3.383.422-5.069.674A41.2,41.2,0,0,0,4.959,5.993a15.07,15.07,0,0,0-2.22,1.084c-.379.211-.38.383,0,.612a11.254,11.254,0,0,0,1.873.967,34.466,34.466,0,0,0,6,1.542c.935.168,1.875.3,2.812.466a2.334,2.334,0,0,1,.625.192.988.988,0,0,1,.626.977c-.017.571.006,1.143.006,1.714q0,14.995,0,29.989v1.381l8.876-.9-.537-1.727c-.635,0-1.352.028-2.067-.009a4.692,4.692,0,0,1-1.429-.232,2.631,2.631,0,0,1-1.788-2.589c-.025-1.726-.044-3.454,0-5.179A2.787,2.787,0,0,1,20.71,31.45c.336,0,.672,0,1,0-.148-.56-.305-1.067-.415-1.583a15.684,15.684,0,0,1-.315-5.815,13.463,13.463,0,0,1,3.134-6.865,8.517,8.517,0,0,1,5.048-3,7.051,7.051,0,0,1,3.25.242.628.628,0,0,0,.683-.161A15.969,15.969,0,0,1,41.112,10.3a16.817,16.817,0,0,1,13.845,3.446,1.347,1.347,0,0,1,.7,1.2,1.167,1.167,0,0,1-1.61.956,5.554,5.554,0,0,1-.814-.553,14.327,14.327,0,0,0-7.338-2.9,14.636,14.636,0,0,0-6.068.563,13.681,13.681,0,0,0-5.343,3.132c-.229.219-.467.428-.693.65a.987.987,0,0,1-1.209.209,4.953,4.953,0,0,0-3.122-.487,5.524,5.524,0,0,0-2.031.842,9.219,9.219,0,0,0-3.621,4.984,10.743,10.743,0,0,0-.422,5.85c.1.446.135.906.21,1.432a2,2,0,0,0,.225-.2,4.325,4.325,0,0,1,3.957-1.839,1.736,1.736,0,0,0,1.213-.4,8.609,8.609,0,0,0,2.7-3.607c.167-.377.295-.772.464-1.148a1.949,1.949,0,0,1,3.276-.593c1.041,1.041,2.043,2.126,3.141,3.105a10.782,10.782,0,0,0,4.409,2.429,5.1,5.1,0,0,0,1.281.193c3.514.015,7.027-.008,10.541.016a4.2,4.2,0,0,1,3.351,1.809l.288.372c.075-.533.122-.96.2-1.381a13.1,13.1,0,0,0-1.361-8.155c-.112-.229-.226-.458-.321-.694a1.128,1.128,0,0,1,.337-1.28,1,1,0,0,1,1.4-.032,2.356,2.356,0,0,1,.537.678,17.385,17.385,0,0,1,1.848,6.019,14.966,14.966,0,0,1-.375,5.27c-.09.4-.2.8-.312,1.26.332,0,.653,0,.973,0a2.712,2.712,0,0,1,2.549,1.477,3.273,3.273,0,0,1,.342,1.43c.043,1.641.016,3.283.025,4.924a2.865,2.865,0,0,1-3.014,3c-.79-.009-1.58,0-2.284,0L58.447,44l8.9.915V12.391a1.5,1.5,0,0,1,1.472-1.764c1.5-.269,3.008-.478,4.491-.81a22.036,22.036,0,0,0,5.206-1.646,6.933,6.933,0,0,0,.848-.562c.212-.15.207-.335-.007-.464a11.543,11.543,0,0,0-1.395-.782A25.962,25.962,0,0,0,72.608,4.82c-.585-.113-1.178-.191-1.76-.316a1.261,1.261,0,0,1-1.073-.924,1.117,1.117,0,0,1,.5-1.271,1.538,1.538,0,0,1,1.241-.11,46.812,46.812,0,0,1,6.672,1.726A9.73,9.73,0,0,1,80.792,5.3a2.968,2.968,0,0,1,1.2,2.493Q81.987,29.079,82,50.366a2.99,2.99,0,0,1-1.277,2.561,11.541,11.541,0,0,1-3.444,1.644,42.12,42.12,0,0,1-6.137,1.461c-.721.117-1.44.25-2.163.356a1.338,1.338,0,0,1-1.627-1.477c-.007-2.359,0-4.719,0-7.078v-.509M40.994,29.914q-6.734,0-13.468,0a2.417,2.417,0,0,0-.579.049,1.882,1.882,0,0,0-1.539,1.916q-.026,5,.007,9.995a1.834,1.834,0,0,0,1.93,1.907c2.549.023,5.1.006,7.648.007a2.2,2.2,0,0,0,1.921-1.136c.1-.153.185-.314.279-.47a4.418,4.418,0,0,1,7.513-.161c.175.263.333.539.524.789a2.307,2.307,0,0,0,1.943.979c1.268-.013,2.537,0,3.806,0s2.513,0,3.769-.007a1.812,1.812,0,0,0,1.466-.768,2.028,2.028,0,0,0,.393-1.3c0-3.246.011-6.493-.009-9.739a1.941,1.941,0,0,0-2.137-2.061H40.994M79.647,10.238c-.136.048-.228.073-.314.112A27.4,27.4,0,0,1,73.274,12.2q-1.5.3-3.015.559c-.363.062-.521.206-.487.6.045.519.037,1.044.036,1.567q-.014,19.329-.036,38.658c0,.254.083.334.32.285.488-.1.98-.19,1.465-.3,1.67-.389,3.356-.723,5-1.2a19.185,19.185,0,0,0,2.682-1.209.77.77,0,0,0,.417-.806q-.014-19.84-.008-39.68ZM53.6,46.173h-.8c-1.878,0-3.757.048-5.633-.009a4.677,4.677,0,0,1-4.242-2.578,2.786,2.786,0,0,0-.384-.572,2.092,2.092,0,0,0-3.434.5,4.83,4.83,0,0,1-4.533,2.657c-1.841.006-3.683,0-5.524,0h-.612a1.017,1.017,0,0,0,.078.179c.935,1.182,1.815,2.413,2.82,3.532a17.718,17.718,0,0,0,6.3,4.641,8.227,8.227,0,0,0,3.985.721,10.477,10.477,0,0,0,4.433-1.577,23.249,23.249,0,0,0,6.783-6.392c.241-.331.463-.676.757-1.107M22.988,33.847c-.841,0-1.633,0-2.424,0-.3,0-.452.134-.454.436,0,.122-.012.243-.013.364q-.008,2.187-.014,4.374c0,.145.015.291.018.436.007.28.124.4.429.391.621-.023,1.243-.008,1.865-.009h.593ZM59,39.813c.1.01.184.025.266.025.732,0,1.463-.01,2.195.013.3.009.423-.1.423-.39,0-.158.021-.315.02-.473q-.005-1.786-.016-3.573c0-.377-.01-.753-.01-1.13a.383.383,0,0,0-.446-.44c-.451.006-.9-.006-1.353-.008-.36,0-.719,0-1.078,0ZM37.955,27.564,34.164,24l-2.026,3.559Z" transform="translate(0 0)" fill="#615842"/>
          <path id="Path_612502" data-name="Path 612502" d="M129.737,165.932a5.79,5.79,0,0,1-3.7-1.327,1.151,1.151,0,0,1,1.146-1.985,4.418,4.418,0,0,1,.432.271,3.659,3.659,0,0,0,2.007.636,4.3,4.3,0,0,0,2.763-.815,1.141,1.141,0,0,1,1.366,1.825,5.913,5.913,0,0,1-4.018,1.395" transform="translate(-88.78 -114.905)" fill="#615842"/>
        </g>
      </g>
    </g>
  </g>
</svg>
