<svg xmlns="http://www.w3.org/2000/svg" xmlns:xlink="http://www.w3.org/1999/xlink" width="146" height="146" viewBox="0 0 146 146">
  <defs>
    <clipPath id="clip-path">
      <rect id="Rectangle_378701" data-name="Rectangle 378701" width="102" height="102" transform="translate(328 757)" fill="#fff" stroke="#707070" stroke-width="1"/>
    </clipPath>
    <clipPath id="clip-path-2">
      <rect id="Rectangle_378703" data-name="Rectangle 378703" width="90.505" height="89.901" fill="#615842"/>
    </clipPath>
  </defs>
  <g id="Group_1074715" data-name="Group 1074715" transform="translate(-1147 -730)">
    <g id="Group_1074293" data-name="Group 1074293" transform="translate(878 -228)">
      <path id="Path_608969" data-name="Path 608969" d="M73,0A73,73,0,1,1,0,73,73,73,0,0,1,73,0Z" transform="translate(269 958)" fill="#fff8e7"/>
    </g>
    <g id="Mask_Group_154411" data-name="Mask Group 154411" transform="translate(841 -5)" clip-path="url(#clip-path)">
      <g id="Group_1074304" data-name="Group 1074304" transform="translate(334 763)">
        <g id="Group_1074303" data-name="Group 1074303" clip-path="url(#clip-path-2)">
          <path id="Path_612574" data-name="Path 612574" d="M75.959,7.749v.48q0,7.813.011,15.626a1.5,1.5,0,0,0,.268.805c1.359,1.933,2.743,3.849,4.111,5.776a.819.819,0,0,1,.13.447q.014,2.376,0,4.752a1.063,1.063,0,0,1-1.172,1.183q-4.727.02-9.453.018-7.11.006-14.22.008c-1.057,0-1.334-.279-1.335-1.341,0-1.45-.017-2.9.013-4.349a1.786,1.786,0,0,1,.294-.928c1.284-1.855,2.607-3.682,3.893-5.536A1.657,1.657,0,0,0,58.8,23.8q0-7.892-.038-15.786a2.26,2.26,0,0,0-.025-.225H46.223v.464q0,12.082,0,24.164c0,.761-.325,1.091-1.1,1.091q-21.956,0-43.912,0A1.044,1.044,0,0,1,0,32.369c-.008-.134,0-.269,0-.4V1.439C0,.355.362,0,1.462,0H89.043c1.1,0,1.461.358,1.461,1.439q0,2.457,0,4.913c0,1.073-.342,1.414-1.429,1.413q-6.383-.006-12.765-.016h-.351m-31.708,23.8V7.755c-1.458,0-2.884,0-4.31,0q-7.695.017-15.389.029c-.378,0-.465.112-.465.477q.01,11.476,0,22.953c0,.1.013.207.022.335Zm-22.17.008c.01-.175.026-.32.026-.465,0-.765,0-1.53,0-2.3q0-10.329.007-20.658c0-.264-.069-.358-.338-.352-.43.01-.861-.024-1.292-.024q-9.068-.009-18.136-.021c-.337,0-.4.114-.4.418q.007,11.456,0,22.913v.485ZM88.551,5.78c0-.925,0-1.81,0-2.695,0-.357.106-.849-.081-1.034s-.682-.09-1.041-.091q-38.3,0-76.6,0-4.262,0-8.524-.015c-.289,0-.377.085-.359.367.023.361,0,.724,0,1.087,0,.788,0,1.575,0,2.381Zm-27.759,2V23.6c.135.006.241.016.347.016,4.132,0,8.264-.007,12.4.005.387,0,.493-.1.492-.49q-.019-7.447-.009-14.895V7.778Zm16.767,22.15a.922.922,0,0,0-.061-.168c-.943-1.339-1.883-2.681-2.841-4.01a.614.614,0,0,0-.436-.195c-.7-.012-1.4.018-2.1.017q-5.716-.008-11.431-.024a.686.686,0,0,0-.663.277c-.89,1.294-1.8,2.576-2.7,3.863a1.568,1.568,0,0,0-.113.239ZM56.3,31.9v2.977c.165.007.3.019.43.019l19.992,0c.471,0,.943-.027,1.413,0,.334.018.413-.115.408-.419-.016-.765,0-1.53-.006-2.295A2.227,2.227,0,0,0,78.5,31.9Z" transform="translate(0 0.001)" fill="#615842"/>
          <path id="Path_612575" data-name="Path 612575" d="M83.3,164.327h.505q2.767,0,5.535,0c.782,0,1.125.331,1.163,1.115.005.107,0,.215,0,.322V196.7c0,1.114-.353,1.465-1.474,1.465H1.487c-1.123,0-1.481-.353-1.481-1.46q0-15.506,0-31.012a2.556,2.556,0,0,1,.049-.558.881.881,0,0,1,.987-.8c.135,0,.269,0,.4,0H51.362c.033-.453.041-.892.1-1.324a3.144,3.144,0,0,1,3.214-2.994c2.624-.064,5.252-.058,7.876,0a3.055,3.055,0,0,1,3.1,2.392,8.3,8.3,0,0,1,.085,1.6c0,.249.067.332.315.329.875-.01,1.751-.013,2.626,0,.276,0,.344-.1.338-.354a6.428,6.428,0,0,1,.037-1.125,3.12,3.12,0,0,1,3.356-2.863c2.14-.032,4.282-.017,6.423-.013.538,0,1.076.024,1.612.064a3.143,3.143,0,0,1,2.86,3.191c0,.346,0,.692,0,1.095M46.241,196.188h42.3v-29.9h-42.3ZM1.951,166.276v1.437q0,14.015-.006,28.031c0,.352.068.476.462.474q9.634-.035,19.269-.024c.39,0,.443-.117.443-.444q-.011-14.479-.011-28.958c0-.168-.019-.337-.03-.516Zm42.309-.014H43.7q-9.515,0-19.029,0c-.643,0-.588-.079-.588.575q.008,14.5.009,29c0,.287.072.359.359.359q9.615-.006,19.231.006h.58Zm37.128-1.935c-.029-.534-.026-1.016-.088-1.489a.943.943,0,0,0-.9-.841,6.978,6.978,0,0,0-.767-.028q-3.272,0-6.545,0c-.377,0-.755-.011-1.13.016a.9.9,0,0,0-.928.8c-.069.337-.047.693-.09,1.037-.049.392.067.526.5.523,3.151-.021,6.3-.011,9.454-.011h.491m-17.625,0c0-.561.026-1.069-.009-1.573a.954.954,0,0,0-.837-.757,5.454,5.454,0,0,0-.6-.026q-3.15,0-6.3,0c-.551,0-1.1,0-1.653.024a.81.81,0,0,0-.807.616,5.858,5.858,0,0,0-.171,1.183c-.026.533,0,.536.523.536h9.858" transform="translate(-0.004 -108.261)" fill="#615842"/>
          <path id="Path_612576" data-name="Path 612576" d="M84.949,54.059c0,.778.028,1.558-.008,2.335a.911.911,0,0,1-1.285.849,1.088,1.088,0,0,1-.646-1.079c-.031-1.409-.021-2.819,0-4.228a1.441,1.441,0,0,1,.192-.606.86.86,0,0,1,1.027-.518.908.908,0,0,1,.707.872c.023.791.006,1.583.006,2.375h.012" transform="translate(-56.166 -34.374)" fill="#615842"/>
          <path id="Path_612577" data-name="Path 612577" d="M55.862,54.157c0,.724.01,1.448,0,2.172a.959.959,0,0,1-1.009,1.014.933.933,0,0,1-.938-.956q-.037-2.31,0-4.623a.9.9,0,0,1,.859-.937.921.921,0,0,1,1.049.88c.055.813.014,1.633.014,2.45h.028" transform="translate(-36.474 -34.399)" fill="#615842"/>
          <path id="Path_612578" data-name="Path 612578" d="M169.42,202.311h17.207c.148,0,.3,0,.444.008.684.024.965.315.968,1q.008,1.651.008,3.3-.006,7.047-.015,14.094c0,.228.021.455.026.684a.855.855,0,0,1-.778.913c-.6.039-1.209.015-1.815.015q-7.291,0-14.582,0-9.411,0-18.823.025c-.989,0-1.285-.331-1.288-1.269q-.02-8.8,0-17.6a2.078,2.078,0,0,1,.147-.7.674.674,0,0,1,.683-.466c.538,0,1.077-.016,1.616-.016q8.1,0,16.2,0Zm-16.638,1.972c-.012.132-.031.248-.031.364q-.007,7.71-.016,15.421c0,.286.1.362.376.361q6.2-.011,12.4,0h20.543V204.283Z" transform="translate(-102.037 -136.919)" fill="#615842"/>
          <path id="Path_612579" data-name="Path 612579" d="M229.362,181.955a2.836,2.836,0,1,1-2.883,2.835,2.942,2.942,0,0,1,2.883-2.835m0,1.964a.9.9,0,0,0-.931.9.928.928,0,1,0,.931-.9" transform="translate(-153.277 -123.144)" fill="#615842"/>
          <path id="Path_612580" data-name="Path 612580" d="M172.965,184.764a2.823,2.823,0,0,1,2.908-2.838,2.988,2.988,0,0,1,2.719,2.854,2.89,2.89,0,0,1-2.858,2.829,2.776,2.776,0,0,1-2.768-2.845m2.762-.871a.72.72,0,0,0-.817.813c-.009.618.274.959.8.964a.889.889,0,1,0,.014-1.778" transform="translate(-117.057 -123.125)" fill="#615842"/>
          <path id="Path_612581" data-name="Path 612581" d="M199.757,184.829a2.83,2.83,0,1,1,5.66-.042,2.888,2.888,0,0,1-2.843,2.861,2.83,2.83,0,0,1-2.817-2.819m1.932,0a.869.869,0,0,0,.871.9.894.894,0,0,0,.922-.86.862.862,0,0,0-.905-.948.835.835,0,0,0-.889.911" transform="translate(-135.192 -123.158)" fill="#615842"/>
          <path id="Path_612582" data-name="Path 612582" d="M28.387,198.437v12c0,.713-.252,1.007-1,1.014-2.235.021-4.47.013-6.705.014q-3.514,0-7.028,0a3.276,3.276,0,0,1-.642-.052.789.789,0,0,1-.676-.7,5.833,5.833,0,0,1-.067-.8q-.008-11.6-.008-23.2c0-.946.342-1.284,1.292-1.284q6.807,0,13.615,0a2.195,2.195,0,0,1,.637.071c.433.134.584.388.585.9q0,6.021,0,12.041h0m-2-11.03c-.094-.013-.133-.023-.172-.023q-5.513,0-11.026,0c-.979,0-.965,0-.964.989q.009,10.389,0,20.777c0,.347.136.358.4.358q5.594-.006,11.188,0h.577Z" transform="translate(-8.3 -125.494)" fill="#615842"/>
          <path id="Path_612583" data-name="Path 612583" d="M96.968,198.355q0,5.638,0,11.275c0,1.573-.226,1.82-1.784,1.826q-6.583.021-13.166.014c-1,0-1.306-.318-1.306-1.3q0-11.557.01-23.114c0-.107,0-.215,0-.322.023-.966.366-1.3,1.329-1.3H95.667c.921,0,1.3.377,1.3,1.29q0,5.819,0,11.638M82.752,187.381c-.014.161-.038.3-.038.445q-.005,10.67-.013,21.339c0,.273.078.342.341.341q5.775-.01,11.55,0c.327,0,.4-.086.4-.406-.012-2.777,0-5.555,0-8.333q0-6.421-.007-12.842c0-.535,0-.539-.522-.54q-3.9-.007-7.794-.009c-1.291,0-2.582,0-3.911,0" transform="translate(-54.624 -125.494)" fill="#615842"/>
          <path id="Path_612584" data-name="Path 612584" d="M48.266,218.811c0,.725.012,1.45,0,2.175a.978.978,0,0,1-.921,1.068.9.9,0,0,1-1-.832,10.606,10.606,0,0,1-.048-1.125c-.01-1.155-.018-2.309-.015-3.464a1.056,1.056,0,0,1,.951-1.143,1.03,1.03,0,0,1,1.028,1.106c.021.738,0,1.476,0,2.215Z" transform="translate(-31.319 -145.84)" fill="#615842"/>
          <path id="Path_612585" data-name="Path 612585" d="M90.938,218.723c0-.684-.012-1.367,0-2.05.015-.649.268-.994.75-1.078a1.147,1.147,0,0,1,1.12.808,1.367,1.367,0,0,1,.081.431c.006,1.354.016,2.708,0,4.062a1.1,1.1,0,0,1-1.25,1.182.807.807,0,0,1-.691-.864c-.033-.829-.009-1.661-.009-2.491Z" transform="translate(-61.542 -145.905)" fill="#615842"/>
        </g>
      </g>
    </g>
  </g>
</svg>
