<svg xmlns="http://www.w3.org/2000/svg" xmlns:xlink="http://www.w3.org/1999/xlink" width="125" height="125" viewBox="0 0 125 125">
  <defs>
    <clipPath id="clip-path">
      <rect id="Rectangle_378640" data-name="Rectangle 378640" width="91" height="91" transform="translate(404 1177)" fill="#fff" stroke="#707070" stroke-width="1"/>
    </clipPath>
    <clipPath id="clip-path-2">
      <rect id="Rectangle_378688" data-name="Rectangle 378688" width="84" height="79.168" fill="#615842"/>
    </clipPath>
  </defs>
  <g id="Group_1074721" data-name="Group 1074721" transform="translate(-1091 -1170.144)">
    <g id="Group_1074207" data-name="Group 1074207" transform="translate(705 -975.856)">
      <path id="Path_608385" data-name="Path 608385" d="M62.5,0A62.5,62.5,0,1,1,0,62.5,62.5,62.5,0,0,1,62.5,0Z" transform="translate(386 2146)" fill="#fff"/>
    </g>
    <g id="Mask_Group_154387" data-name="Mask Group 154387" transform="translate(704 11)" clip-path="url(#clip-path)">
      <g id="Group_1074270" data-name="Group 1074270" transform="translate(408 1183)">
        <g id="Group_1074269" data-name="Group 1074269" clip-path="url(#clip-path-2)">
          <path id="Path_612500" data-name="Path 612500" d="M13.818,4.507h.851c2.537-.005,5.074-.016,7.611-.009.311,0,.379-.1.375-.389-.013-.85-.006-1.7,0-2.549.008-.949.437-1.491,1.377-1.52,1.472-.046,2.948-.018,4.42.032.708.024,1.134.579,1.161,1.41.028.862.029,1.725.017,2.587,0,.312.063.438.411.436Q34.073,4.48,38.1,4.5c.3,0,.408-.073.4-.4-.013-.9-.008-1.8.032-2.7A1.225,1.225,0,0,1,39.831.052C41.3.005,42.779,0,44.251.051a1.151,1.151,0,0,1,1.2,1.224c.045.948.038,1.9.018,2.847-.006.3.063.385.365.384q4.068-.02,8.136-.008c.323,0,.395-.1.389-.407-.016-.824,0-1.65.011-2.474.02-1.027.472-1.541,1.487-1.576C57.2-.006,58.536-.011,59.873.016A1.368,1.368,0,0,1,61.346,1.57q.009,1.312-.008,2.625c0,.213.034.312.284.311,2.775-.006,5.549,0,8.324,0,.072,0,.143-.014.251-.026,0-.939-.013-1.861.008-2.782a2.3,2.3,0,0,1,.172-.832A1.205,1.205,0,0,1,71.526.05C72.962.042,74.4,0,75.835.047A1.309,1.309,0,0,1,77.173,1.46c.031.886.023,1.774.01,2.661,0,.282.043.394.365.391.974-.012,1.953-.038,2.922.045A3.689,3.689,0,0,1,84,8.316c0,.1,0,.2,0,.3q0,33.221,0,66.442a3.8,3.8,0,0,1-2.286,3.793,3.024,3.024,0,0,1-1.045.249c-.823.051-1.648.063-2.473.063q-25.685.005-51.37,0a7.285,7.285,0,0,1-.86-.05,1.358,1.358,0,0,1-1.057-1.08,1.253,1.253,0,0,1,.748-1.149,4.687,4.687,0,0,1,1.17-.2c.312-.014.391-.108.391-.414q-.015-11.418-.012-22.835c0-2.55-.007-5.1.005-7.649,0-.331-.066-.449-.428-.447q-5.156.022-10.311,0c-.337,0-.418.1-.417.422q.014,15.28.006,30.559c0,.286.092.361.365.36,1.237,0,2.475,0,3.711.03a2.246,2.246,0,0,1,.888.247,1.035,1.035,0,0,1,.561,1.162,1.113,1.113,0,0,1-.9.981,3.537,3.537,0,0,1-.67.063q-7.312,0-14.623,0c-.712,0-1.425-.023-2.136-.058A3.646,3.646,0,0,1,.08,76.031,8.781,8.781,0,0,1,0,74.873Q0,41.708,0,8.543A3.743,3.743,0,0,1,2.12,4.908a4.527,4.527,0,0,1,2-.4c.775-.012,1.55-.024,2.325-.01.275.005.335-.094.335-.347,0-.874.007-1.75.037-2.624A1.338,1.338,0,0,1,8.217.05c1.447-.043,2.9-.024,4.346.019A1.406,1.406,0,0,1,13.8,1.6c.011.875,0,1.75,0,2.625,0,.073.008.147.017.282M13.8,6.947c0,1,.006,1.943,0,2.891a1.641,1.641,0,0,1-1.68,1.695c-1.237.014-2.475.023-3.712,0a1.58,1.58,0,0,1-1.6-1.56c-.007-.887-.035-1.774-.021-2.661,0-.289-.076-.367-.353-.363-.874.013-1.75,0-2.624,0A1.318,1.318,0,0,0,2.4,8.379q0,3.506,0,7.011v.424h.424q7.293,0,14.586,0a1.2,1.2,0,1,1,.127,2.4,7.664,7.664,0,0,1-1.122.037c-.289-.011-.359.092-.356.368.013,1.174.019,2.35,0,3.524-.006.342.043.515.433.459a4.856,4.856,0,0,1,.711,0q2.156.013,4.311.026a1.138,1.138,0,0,1,1.1.657,2.477,2.477,0,0,1,.2.973c.025,1.537.02,3.074.025,4.611,0,.133,0,.267,0,.418.12.011.2.026.289.026,1.2,0,2.4-.026,3.6,0,.414.01.494-.137.492-.508-.014-3.037-.01-6.074-.013-9.111,0-.4-.008-.8,0-1.2,0-.189-.042-.258-.254-.255-.987.014-1.974.012-2.961,0a4.686,4.686,0,0,1-.895-.071,1.211,1.211,0,0,1-1.02-1.245,1.235,1.235,0,0,1,1.211-1.114c.249-.016.5-.009.75-.009l57.142.006h.41c0-2.532.04-5.006-.022-7.478a1.33,1.33,0,0,0-1.541-1.4c-.823.041-1.65.027-2.474.006-.318-.008-.369.11-.364.391.016.862,0,1.724,0,2.586a1.607,1.607,0,0,1-1.7,1.616c-1.2.017-2.4.011-3.6,0A1.649,1.649,0,0,1,70.2,9.854c-.012-.825,0-1.65,0-2.475V6.973c-.136-.013-.222-.028-.307-.028q-4.125,0-8.249,0c-.229,0-.3.077-.3.3.011.85.009,1.7.005,2.549a1.622,1.622,0,0,1-1.731,1.74q-1.762.006-3.525,0a1.615,1.615,0,0,1-1.728-1.7c-.014-.825-.022-1.65,0-2.474.009-.337-.1-.418-.424-.417q-4.049.014-8.1-.008c-.312,0-.371.109-.367.391.012.886.024,1.775-.013,2.66a1.567,1.567,0,0,1-1.6,1.542c-1.25.017-2.5.019-3.75,0a1.538,1.538,0,0,1-1.568-1.456c-.056-.9-.035-1.8-.048-2.7,0-.131-.014-.263-.022-.4H29.64c0,.151,0,.273,0,.4,0,.825,0,1.65-.016,2.475a1.624,1.624,0,0,1-1.739,1.688q-1.743.006-3.487,0a1.613,1.613,0,0,1-1.741-1.729c-.01-.812-.026-1.625,0-2.437.012-.366-.124-.43-.451-.428-2.312.012-4.624.005-6.937.005H13.8M81.6,18.253H71.343c-.93,0-.932,0-.932.936q0,18.427,0,36.854c0,.352.118.405.432.4q2.493-.013,4.986.018a1.264,1.264,0,0,1,1.291,1.082,4.244,4.244,0,0,1,.074.855q.011,6.111.009,12.222c0,1.287-.549,1.81-1.84,1.811q-2.287,0-4.574,0c-.223,0-.377.006-.373.307.013,1.212.01,2.424,0,3.636,0,.257.1.313.336.313,3.124,0,6.248.007,9.372,0,1.024,0,1.474-.47,1.474-1.5q0-28.25,0-56.5ZM13.568,38.536c-1.091,0-2.14,0-3.189,0a1.139,1.139,0,0,1-1.125-.725,3.351,3.351,0,0,1-.232-1.161c-.028-1.337-.01-2.674-.01-4.011v-.9c-1.054,0-2.053.034-3.049-.01A1.449,1.449,0,0,1,4.5,30.137q0-3,0-6a1.365,1.365,0,0,1,1.448-1.5q3.637-.033,7.274-.019c.316,0,.38-.092.378-.373q-.016-1.837,0-3.675c0-.28-.081-.348-.366-.346-3.037.017-6.074.017-9.112.022H2.4V75.236A1.3,1.3,0,0,0,3.876,76.7q4.612-.009,9.224-.022c.148,0,.295-.021.468-.034ZM56.793,18.278c-.006.087-.016.16-.015.233.006,2.887.019,5.774.019,8.66q0,7.667-.019,15.333c0,.3.087.376.385.374,1.662-.014,3.324-.024,4.985.007a1.435,1.435,0,0,1,1.451,1.53c0,2.1,0,4.2,0,6.3a1.187,1.187,0,0,1-.445.981,1.778,1.778,0,0,1-1.22.383c-1.562-.01-3.124,0-4.686-.029-.367-.006-.485.075-.484.471q.029,11.9.022,23.807c0,.284.085.363.363.361,1.874-.01,3.749,0,5.624-.005,1.587,0,3.174-.009,4.761,0,.3,0,.412-.087.407-.408-.019-1.187-.008-2.374-.011-3.561a1.863,1.863,0,0,0-.03-.237.408.408,0,0,0-.094-.03c-.825,0-1.649,0-2.474-.009-1.377-.017-1.875-.511-1.888-1.878-.014-1.524-.023-3.049-.017-4.574,0-.277-.068-.37-.353-.367-.862.009-1.724,0-2.585-.022a1.436,1.436,0,0,1-1.618-1.449c-.08-.893-.071-1.8-.07-2.694,0-1.174.012-2.349.063-3.522a1.447,1.447,0,0,1,1.513-1.477c.25-.01.5-.01.75-.01,2.137,0,4.274-.006,6.411,0,.309,0,.418-.091.4-.406-.025-.486-.01-.974-.01-1.462q0-17.9,0-35.8c0-.337-.009-.533-.462-.531-3.486.017-6.973,0-10.46,0a1.293,1.293,0,0,0-.222.04m4.374,31.334c0-.1.012-.189.011-.274-.01-1.187-.043-2.374-.02-3.561.007-.367-.1-.433-.432-.432q-4.161.016-8.323,0a4.02,4.02,0,0,1-1.042-.073,1.553,1.553,0,0,1-.772-.464,1.174,1.174,0,0,1,.894-1.915c.808-.06,1.623-.045,2.435-.035.328,0,.451-.07.45-.435q-.02-9-.011-17.992,0-2.924-.007-5.848c0-.174.034-.338-.257-.337-3.536.009-7.072,0-10.609.006a1.216,1.216,0,0,0-.237.045V42.856c.163,0,.3,0,.432,0,.7.01,1.4,0,2.1.038a1.193,1.193,0,0,1,1.171,1.143A1.175,1.175,0,0,1,45.9,45.289a4.044,4.044,0,0,1-.707.059q-4.18.007-8.36.005c-.131,0-.262.012-.4.018v4.241ZM33.9,45.366H29.675c-.01.133-.028.254-.028.376q-.006,8.53-.009,17.06,0,6.73,0,13.461c0,.247,0,.427.341.425q5.193-.018,10.386-.006c.32,0,.424-.08.424-.422q-.022-8.4-.017-16.8c0-.168,0-.337,0-.529H36a1.851,1.851,0,0,1-2.1-2.09q0-5.511,0-11.023v-.456m6.874-14.817h0q0-6.016,0-12.032c0-.217-.06-.277-.275-.276q-5.229.013-10.458.008c-.26,0-.407.02-.406.355q.014,8.584,0,17.168c0,.247.07.323.32.32,1.124-.012,2.249-.009,3.373,0,.587,0,1.177-.015,1.76.037a1.346,1.346,0,0,1,1.291,1.387q.029,2.474.01,4.947c0,.329.074.429.415.42,1.111-.028,2.224-.02,3.336-.026.631,0,.633,0,.633-.647q0-5.829,0-11.657m2.474,28.386a.761.761,0,0,0-.033.124q0,8.417.011,16.834c0,.772,0,.781.784.782,3.312.005,6.624,0,9.935.009.282,0,.423-.044.422-.387q-.018-7.741-.011-15.482c0-2.774-.006-5.548,0-8.322,0-.293-.049-.417-.386-.413-1.212.013-2.424-.01-3.636-.017a1.388,1.388,0,0,0-.235.041v.421c0,1.512.007,3.025,0,4.537a1.785,1.785,0,0,1-1.9,1.873c-.975,0-1.95,0-2.924,0H43.246M33.871,42.854V38.56H16.09a1.034,1.034,0,0,0-.031.163c0,1.286,0,2.573-.012,3.859,0,.278.137.293.351.293q7.962-.014,15.924-.021h1.549M11.488,31.768c0,1.364.008,2.674-.007,3.984,0,.268.067.334.334.334q7.27-.009,14.541,0h.828c.009-.145.02-.241.02-.339,0-1.212-.014-2.424,0-3.635,0-.29-.083-.345-.36-.344q-7.4.011-14.8,0h-.553m8.892-6.7H6.983c0,1.355,0,2.678,0,4,0,.275.166.25.348.25q6.2,0,12.407,0h.644Zm54.3,38.112v-4.22H61.37c-.008.13-.019.24-.019.349,0,1.124.016,2.249-.006,3.373-.008.376.074.505.484.5,4.085-.015,8.17-.007,12.255-.005h.593M47.55,56.441V52.128a.716.716,0,0,0-.136-.033q-5.341-.019-10.682-.039c-.288,0-.346.1-.342.378.019,1.2.027,2.4,0,3.6-.009.37.106.461.44.421a4.919,4.919,0,0,1,.6-.011H47.55m27.13,9.172c-2.864,0-5.695,0-8.526,0-.24,0-.285.106-.283.323.012,1.223.022,2.446.005,3.669,0,.3.059.381.365.38,2.806-.012,5.611-.007,8.438-.007Zm.011-63.1H72.632V9.04H74.69ZM11.378,2.482c-.65,0-1.273-.009-1.9.012-.07,0-.194.175-.194.269q-.02,3.015-.008,6.03c0,.084.091.238.142.239.645.016,1.29.011,1.955.011Zm13.788.006c0,.295,0,.575,0,.856,0,1.8-.009,3.594,0,5.392,0,.1.126.293.2.3.595.024,1.19.013,1.8.013A1.929,1.929,0,0,0,27.2,8.8c0-2.009,0-4.019.007-6.028,0-.225-.1-.284-.289-.283-.561,0-1.121,0-1.753,0m33.62,6.567a2.705,2.705,0,0,0,.038-.312c.006-1.972.007-3.945.016-5.917,0-.231-.066-.347-.316-.343q-.73.011-1.461-.007c-.224-.006-.276.1-.276.3,0,2.01-.007,4.02,0,6.031a.335.335,0,0,0,.221.24c.583.021,1.168.011,1.776.011M43.009,5.8H43c0-.988-.007-1.975.005-2.962,0-.262-.091-.36-.345-.356-.412.007-.826.021-1.237-.008-.344-.024-.448.088-.445.438.015,1.95.01,3.9,0,5.849,0,.226.08.283.28.28.475-.006.95-.013,1.425,0,.27.008.335-.1.331-.357C43,7.724,43.009,6.761,43.009,5.8" transform="translate(0 0)" fill="#615842"/>
        </g>
      </g>
    </g>
  </g>
</svg>
