<svg xmlns="http://www.w3.org/2000/svg" xmlns:xlink="http://www.w3.org/1999/xlink" width="117" height="117" viewBox="0 0 117 117">
  <defs>
    <clipPath id="clip-path">
      <rect id="Rectangle_378716" data-name="Rectangle 378716" width="82" height="85" transform="translate(1450.136 5897)" fill="#fff" stroke="#707070" stroke-width="1"/>
    </clipPath>
    <clipPath id="clip-path-2">
      <rect id="Rectangle_378715" data-name="Rectangle 378715" width="73.291" height="78.53" fill="none"/>
    </clipPath>
  </defs>
  <g id="Group_1074755" data-name="Group 1074755" transform="translate(-322 -2097.122)">
    <g id="Group_1072235" data-name="Group 1072235" transform="translate(-1112.668 -3784.878)">
      <g id="Group_1072229" data-name="Group 1072229" transform="translate(1434.668 5882)">
        <path id="Path_608385" data-name="Path 608385" d="M58.5,0A58.5,58.5,0,1,1,0,58.5,58.5,58.5,0,0,1,58.5,0Z" transform="translate(0)" fill="#9b1497"/>
      </g>
      <g id="Mask_Group_154414" data-name="Mask Group 154414" transform="translate(2.532 1)" clip-path="url(#clip-path)">
        <g id="Group_1074317" data-name="Group 1074317" transform="translate(1454.421 5900.791)">
          <g id="Group_1074316" data-name="Group 1074316" clip-path="url(#clip-path-2)">
            <path id="Path_612597" data-name="Path 612597" d="M53.418,94.554c-.1.168-.258.137-.408.137H43.463l-39.493,0A3.839,3.839,0,0,1,.7,93.192a2.985,2.985,0,0,1-.673-1.8C-.029,86.48.018,81.567,0,76.655c0-.423,0-.846,0-1.269Q0,58.741,0,42.1q0-6.788,0-13.575c0-.915.012-1.832.02-2.746a2.773,2.773,0,0,1,.64-1.455,3.54,3.54,0,0,1,2.966-1.459c2.358-.084,4.718-.042,7.077-.043,2.129,0,4.259.016,6.388.026l.08.028c.005.749.02,1.5.014,2.246-.007.881.038,1.763-.025,2.644-.119-.011-.239-.031-.359-.031q-4.175-.011-8.349-.019c-.581,0-1.161,0-1.742.006a2.065,2.065,0,0,0-1.568.846,1.727,1.727,0,0,0-.221,1.213q0,20.511,0,41.022,0,8.731-.01,17.461a1.314,1.314,0,0,0,.429,1.031,1.93,1.93,0,0,0,1.37.538q23.068-.005,46.136,0c.145,0,.29.007.435.01a5.88,5.88,0,0,1,.07,1.221c0,.952,0,1.9,0,2.857a2.473,2.473,0,0,0,.07.642" transform="translate(0 -16.163)" fill="#abdbff"/>
            <path id="Path_612598" data-name="Path 612598" d="M179.019,56.8c.334-.167.411-.526.57-.81.678-1.206,1.371-2.4,2.065-3.6.316-.545.66-1.073.957-1.626.258-.48.523-.949.818-1.407a3.343,3.343,0,0,1,3.119-1.578,2.634,2.634,0,0,1,1.41.443,12.951,12.951,0,0,1,1.915,1.268,3.164,3.164,0,0,1,.991,1.947,4.3,4.3,0,0,1-.79,2.788c-.827,1.364-1.6,2.757-2.4,4.137q-1.555,2.681-3.113,5.36-1.447,2.5-2.889,5c-.82,1.413-1.645,2.822-2.465,4.235a2.134,2.134,0,0,0-.119.3c-.073.051-.059.124-.05.2l-.026.131c-.181.031-.245.195-.324.318q-.4.626-.76,1.274c-1.2,2.146-2.485,4.246-3.643,6.417a.829.829,0,0,0-.368.515,8.148,8.148,0,0,1-.893,1.45.933.933,0,0,1-.17-.058c-1.941-1.1-3.879-2.21-5.825-3.3a3.6,3.6,0,0,0-1.081-.559.989.989,0,0,1,.2-.458c.852-1.371,1.626-2.788,2.455-4.172.471-.787.929-1.591,1.369-2.4.869-1.6,1.78-3.178,2.675-4.763q.712-1.26,1.429-2.516c.1-.077.208-.142.2-.289.055-.077.118-.151.165-.233,1.019-1.779,2.043-3.556,3.052-5.341.5-.891,1.074-1.742,1.525-2.662" transform="translate(-117.595 -33.857)" fill="#e6d09d"/>
            <path id="Path_612599" data-name="Path 612599" d="M58.9,11.6c.063-.881.019-1.762.026-2.644.006-.749-.008-1.5-.014-2.246,0-.049,0-.1.007-.147,0-.181.007-.362.009-.544a1.741,1.741,0,0,1,1.933-1.523,11.06,11.06,0,0,0,1.616.028c.79,0,1.58,0,2.371,0,.318,0,.638-.025.95-.055A1.583,1.583,0,0,0,67.061,3.42,5.742,5.742,0,0,1,71.031.177,5.5,5.5,0,0,1,73.9.2a5.79,5.79,0,0,1,3.931,3.227,3.047,3.047,0,0,0,.588.808.945.945,0,0,0,1.12.184.3.3,0,0,1,.277-.016,1.972,1.972,0,0,0,.921.117c1.193,0,2.386.013,3.578-.007a2.074,2.074,0,0,1,1.233.387,1.59,1.59,0,0,1,.467,1.235.841.841,0,0,0,.068.493q0,2.1,0,4.2a2.615,2.615,0,0,0,.035.721c-.062.351-.109.7-.189,1.051a1.254,1.254,0,0,1-.684.874,3.507,3.507,0,0,1-1.68.341q-11.381,0-22.761,0a2.172,2.172,0,0,1-1.245-.378,1.169,1.169,0,0,1-.651-1.158A4.107,4.107,0,0,0,58.9,11.6M74.318,4.849a2.052,2.052,0,0,0-1.85-1.777A2.113,2.113,0,0,0,70.55,4.9a2.058,2.058,0,0,0,1.842,1.8,1.969,1.969,0,0,0,1.925-1.846" transform="translate(-41.735 0)" fill="#e6d09d"/>
            <path id="Path_612600" data-name="Path 612600" d="M186.271,144.352c1.158-2.171,2.441-4.271,3.643-6.417q.362-.647.76-1.274c.079-.124.144-.287.324-.318.016,1.234.045,2.468.046,3.7q.006,14.994,0,29.988c0,.205-.007.411-.011.617a.306.306,0,0,0,.021.36,5.268,5.268,0,0,0-.119,1.059,2.444,2.444,0,0,1-.727,1.708,3.72,3.72,0,0,1-2.18,1.332,1.329,1.329,0,0,1-.318.035q-2.1,0-4.209,0a.6.6,0,0,1-.5-.138,2.473,2.473,0,0,1-.07-.642c.005-.952,0-1.9,0-2.857a5.882,5.882,0,0,0-.07-1.221c.532-.006,1.065-.041,1.595-.011a1.613,1.613,0,0,0,1.133-.459,1.825,1.825,0,0,0,.538-1.569c.032-7.742-.057-15.485.05-23.227a2.08,2.08,0,0,0,.089-.67" transform="translate(-129.586 -96.617)" fill="#9ac1df"/>
            <path id="Path_612601" data-name="Path 612601" d="M190.854,38.894c-.451.92-1.022,1.772-1.525,2.662-1.008,1.785-2.033,3.562-3.052,5.341-.047.082-.11.155-.165.233l-.123-.077c0-.121-.011-.242-.011-.362q0-8.361,0-16.721c0-.314,0-.629-.015-.943a1.393,1.393,0,0,0-.748-1.243,2.51,2.51,0,0,0-1.352-.335c-.385.027-.773,0-1.159,0a29.163,29.163,0,0,0,.072-3.313,3.94,3.94,0,0,0-.132-1.495c.189-.035.354-.185.564-.118.041.068.1.065.163.041,1.01-.081,2.022-.01,3.033-.029a6.532,6.532,0,0,1,1.964.273,3.506,3.506,0,0,1,2.114,1.774c.035.063.074.123.11.184.052.084-.162.267.1.272a2.569,2.569,0,0,1,.133.848c.121,3.835.043,7.671.053,11.507a11.342,11.342,0,0,0-.028,1.5" transform="translate(-129.429 -15.95)" fill="#9ac1df"/>
            <path id="Path_612602" data-name="Path 612602" d="M161.066,22.821a3.933,3.933,0,0,1,.132,1.495,29.3,29.3,0,0,1-.072,3.313,4.38,4.38,0,0,1-.468.047c-2.379-.007-4.758-.021-7.137-.028-.428,0-.857.023-1.285.036a2.637,2.637,0,0,1-.035-.721q0-2.1,0-4.2l.432.024c.066.074.148.056.23.038q3.437-.086,6.874-.012c.443.01.887.008,1.331.011" transform="translate(-107.851 -16.129)" fill="#9ac1df"/>
            <path id="Path_612603" data-name="Path 612603" d="M153.924,22.749c-.082.017-.163.036-.23-.038.085-.038.177-.117.23.038" transform="translate(-108.913 -16.055)" fill="#a79aa7"/>
            <path id="Path_612604" data-name="Path 612604" d="M210.848,135.416c-.009-.072-.023-.145.05-.2l-.05.2" transform="translate(-149.41 -95.822)" fill="#eceef1"/>
            <path id="Path_612605" data-name="Path 612605" d="M184.744,22.524c-.064.024-.123.027-.163-.041.061-.014.138-.089.163.041" transform="translate(-130.801 -15.908)" fill="#a79aa7"/>
            <path id="Path_612606" data-name="Path 612606" d="M58.748,22.52c0,.049,0,.1-.007.147l-.08-.028.087-.119" transform="translate(-41.569 -15.959)" fill="#a79aa7"/>
            <path id="Path_612607" data-name="Path 612607" d="M56.33,39.512c.428-.013.857-.038,1.285-.036,2.379.007,4.758.02,7.137.028a4.381,4.381,0,0,0,.468-.047c.387,0,.774.025,1.159,0a2.511,2.511,0,0,1,1.352.335,1.394,1.394,0,0,1,.749,1.243c.018.314.015.628.015.943q0,8.361,0,16.721c0,.121.007.241.011.362a.765.765,0,0,0-.081.366q-.715,1.258-1.429,2.516c-.9,1.586-1.806,3.163-2.675,4.764-.44.81-.9,1.614-1.369,2.4-.829,1.385-1.6,2.8-2.455,4.172a.99.99,0,0,0-.2.458c-.007.108-.021.216-.022.325q-.009,2.72-.014,5.439c0,.3.006.6.026.906a.768.768,0,0,0,1.081.721,3.507,3.507,0,0,0,.52-.253c1.321-.752,2.647-1.5,3.958-2.268a6.717,6.717,0,0,0,1.527-.951,8.159,8.159,0,0,0,.893-1.45.321.321,0,0,0,.278.156c-.106,7.742-.018,15.485-.05,23.227a1.823,1.823,0,0,1-.538,1.568,1.612,1.612,0,0,1-1.133.459c-.53-.031-1.063,0-1.595.011-.145,0-.29-.01-.435-.01q-23.068,0-46.136,0a1.93,1.93,0,0,1-1.37-.538,1.315,1.315,0,0,1-.429-1.031q.013-8.73.01-17.461,0-20.511,0-41.022a1.728,1.728,0,0,1,.221-1.213,2.064,2.064,0,0,1,1.568-.846c.581-.009,1.162-.007,1.742-.006q4.175.008,8.349.019c.12,0,.239.02.359.031a4.107,4.107,0,0,1,.016.686,1.169,1.169,0,0,0,.651,1.158,2.172,2.172,0,0,0,1.246.378q11.38-.01,22.761,0a3.508,3.508,0,0,0,1.68-.341,1.253,1.253,0,0,0,.684-.874c.08-.346.127-.7.189-1.051" transform="translate(-11.944 -27.956)" fill="#fff"/>
            <path id="Path_612608" data-name="Path 612608" d="M172.933,161.043a6.718,6.718,0,0,1-1.527.951c-1.311.77-2.636,1.516-3.957,2.268a3.476,3.476,0,0,1-.52.253.768.768,0,0,1-1.081-.721c-.02-.3-.027-.6-.026-.906q0-2.72.014-5.439c0-.108.014-.216.022-.325a3.6,3.6,0,0,1,1.081.559c1.946,1.093,3.883,2.2,5.825,3.3a.912.912,0,0,0,.17.058" transform="translate(-117.508 -111.344)" fill="#685d68"/>
            <path id="Path_612609" data-name="Path 612609" d="M193.571,164.5a.321.321,0,0,1-.278-.156.827.827,0,0,1,.367-.515,2.08,2.08,0,0,1-.089.67" transform="translate(-136.975 -116.099)" fill="#a79aa7"/>
            <path id="Path_612610" data-name="Path 612610" d="M193.831,107.115a.766.766,0,0,1,.081-.366l.123.077c0,.147-.108.213-.2.289" transform="translate(-137.353 -75.646)" fill="#837683"/>
            <path id="Path_612611" data-name="Path 612611" d="M54.17,197.816a.42.42,0,0,1,.064.311c0,.786,0,1.572-.012,2.358a2.018,2.018,0,0,1-2.156,2.009c-1.826,0-3.652-.018-5.477.015a4.794,4.794,0,0,1-1.3-.191,1.676,1.676,0,0,1-1.2-1.506c-.018-2.213-.026-4.426-.006-6.638a1.817,1.817,0,0,1,1.015-1.572,2.538,2.538,0,0,1,1.283-.332c1.838,0,3.676-.025,5.513.012a2.151,2.151,0,0,1,2.221,1.352,1.274,1.274,0,0,1,.089.7.565.565,0,0,0-.091.057c-.9.823-1.807,1.643-2.7,2.472-.225.208-.415.265-.626-.01a3.182,3.182,0,0,0-.328-.339,19.321,19.321,0,0,0-1.7-1.626,1.211,1.211,0,0,0-1.532.141c-.476.507-.635.906-.266,1.477a5.711,5.711,0,0,0,.417.546c.736.885,1.642,1.6,2.415,2.45a1.482,1.482,0,0,0,2.462.068c.637-.59,1.281-1.172,1.923-1.758" transform="translate(-31.228 -136.244)" fill="#ede6e0"/>
            <path id="Path_612612" data-name="Path 612612" d="M112.187,195.976q3.483,0,6.966,0a1.732,1.732,0,0,1,1.24.481,1.108,1.108,0,0,1-.232,1.828,1.946,1.946,0,0,1-1.1.308q-6.8-.007-13.606,0a1.622,1.622,0,0,1-1.722-1.107,1.24,1.24,0,0,1,.723-1.358,5.051,5.051,0,0,1,1.378-.153c2.117.009,4.233,0,6.35,0" transform="translate(-73.485 -138.873)" fill="#615842"/>
            <path id="Path_612613" data-name="Path 612613" d="M112.083,80.154c-2.42,0-4.841-.015-7.26.011a1.451,1.451,0,0,1-1.218-1.1,1.306,1.306,0,0,1,.715-1.228,2.217,2.217,0,0,1,.98-.209c4.03,0,8.06-.022,12.089.016a8.778,8.778,0,0,1,2.376.14,1.358,1.358,0,0,1,.95,1.142,1.26,1.26,0,0,1-.688,1.035,1.432,1.432,0,0,1-.864.208q-3.54-.006-7.079,0Z" transform="translate(-73.406 -55.003)" fill="#615842"/>
            <path id="Path_612614" data-name="Path 612614" d="M112.253,133.428c-2.358,0-4.717-.038-7.073.02a1.319,1.319,0,0,1-1.2-1.976,1.187,1.187,0,0,1,1.028-.5c.351-.006.7,0,1.052,0q6.638,0,13.277,0a1.3,1.3,0,0,1,1.041.314,1.16,1.16,0,0,1,.407,1.261,1.236,1.236,0,0,1-1.238.879c-1.028.007-2.056,0-3.083,0h-4.208Z" transform="translate(-73.542 -92.81)" fill="#615842"/>
            <path id="Path_612615" data-name="Path 612615" d="M60.69,195.044c-.641.586-1.285,1.168-1.923,1.757a1.482,1.482,0,0,1-2.462-.068c-.774-.85-1.68-1.565-2.415-2.45a5.7,5.7,0,0,1-.417-.546c-.369-.571-.21-.97.266-1.477a1.211,1.211,0,0,1,1.532-.141,19.325,19.325,0,0,1,1.7,1.626,3.182,3.182,0,0,1,.328.339c.211.274.4.218.626.01.9-.829,1.8-1.649,2.7-2.472a.563.563,0,0,1,.091-.057c.829-.6,1.483-1.412,2.32-2.008.439-.312.779-.731,1.243-1.029a1.038,1.038,0,0,1,1.445.313,1.27,1.27,0,0,1-.249,1.812q-2.033,1.817-4.059,3.643c-.258.233-.488.5-.731.748" transform="translate(-37.749 -133.471)" fill="#5b9ccc"/>
            <path id="Path_612616" data-name="Path 612616" d="M54.17,136.483a.42.42,0,0,1,.064.311c0,.786,0,1.572-.012,2.358a2.018,2.018,0,0,1-2.156,2.009c-1.826,0-3.652-.018-5.477.015a4.794,4.794,0,0,1-1.3-.191,1.676,1.676,0,0,1-1.2-1.506c-.018-2.213-.026-4.426-.006-6.638a1.817,1.817,0,0,1,1.015-1.572,2.538,2.538,0,0,1,1.283-.332c1.838,0,3.676-.025,5.513.012a2.151,2.151,0,0,1,2.221,1.352,1.274,1.274,0,0,1,.089.7.563.563,0,0,0-.091.057c-.9.823-1.807,1.643-2.7,2.472-.225.208-.415.265-.626-.01a3.183,3.183,0,0,0-.328-.339,19.323,19.323,0,0,0-1.7-1.626,1.211,1.211,0,0,0-1.532.141c-.476.507-.635.906-.266,1.477a5.705,5.705,0,0,0,.417.546c.736.885,1.642,1.6,2.415,2.45a1.482,1.482,0,0,0,2.462.068c.637-.59,1.281-1.172,1.923-1.757" transform="translate(-31.228 -92.781)" fill="#ede6e0"/>
            <path id="Path_612617" data-name="Path 612617" d="M60.69,133.71c-.641.586-1.285,1.168-1.923,1.758a1.482,1.482,0,0,1-2.462-.068c-.774-.85-1.68-1.565-2.415-2.45a5.7,5.7,0,0,1-.417-.546c-.369-.571-.21-.97.266-1.477a1.211,1.211,0,0,1,1.532-.141,19.323,19.323,0,0,1,1.7,1.626,3.179,3.179,0,0,1,.328.339c.211.274.4.218.626.01.9-.829,1.8-1.649,2.7-2.472a.565.565,0,0,1,.091-.057c.829-.6,1.483-1.412,2.32-2.008.439-.312.779-.731,1.243-1.029a1.038,1.038,0,0,1,1.445.313,1.27,1.27,0,0,1-.249,1.812q-2.033,1.817-4.059,3.643c-.258.233-.488.5-.731.748" transform="translate(-37.749 -90.008)" fill="#5b9ccc"/>
            <path id="Path_612618" data-name="Path 612618" d="M54.17,80.483a.42.42,0,0,1,.064.311c0,.786,0,1.572-.012,2.358a2.018,2.018,0,0,1-2.156,2.009c-1.826,0-3.652-.018-5.477.015a4.793,4.793,0,0,1-1.3-.191,1.676,1.676,0,0,1-1.2-1.506c-.018-2.213-.026-4.426-.006-6.638a1.817,1.817,0,0,1,1.015-1.572,2.538,2.538,0,0,1,1.283-.332c1.838,0,3.676-.025,5.513.012A2.151,2.151,0,0,1,54.112,76.3a1.274,1.274,0,0,1,.089.7.564.564,0,0,0-.091.057c-.9.823-1.807,1.643-2.7,2.472-.225.208-.415.265-.626-.01a3.182,3.182,0,0,0-.328-.339,19.322,19.322,0,0,0-1.7-1.626,1.211,1.211,0,0,0-1.532.141c-.476.507-.635.906-.266,1.477a5.707,5.707,0,0,0,.417.546c.736.885,1.642,1.6,2.415,2.45a1.482,1.482,0,0,0,2.462.068c.637-.59,1.281-1.172,1.923-1.757" transform="translate(-31.228 -53.097)" fill="#ede6e0"/>
            <path id="Path_612619" data-name="Path 612619" d="M60.69,77.711c-.641.586-1.285,1.168-1.923,1.757a1.482,1.482,0,0,1-2.462-.068c-.774-.85-1.68-1.565-2.415-2.45a5.708,5.708,0,0,1-.417-.546c-.369-.571-.21-.97.266-1.477a1.211,1.211,0,0,1,1.532-.141,19.322,19.322,0,0,1,1.7,1.626,3.184,3.184,0,0,1,.328.339c.211.274.4.218.626.01.9-.829,1.8-1.649,2.7-2.472a.564.564,0,0,1,.091-.057c.829-.6,1.483-1.412,2.32-2.008.439-.312.779-.731,1.243-1.029a1.038,1.038,0,0,1,1.445.313,1.27,1.27,0,0,1-.249,1.812q-2.033,1.817-4.059,3.643c-.258.233-.488.5-.731.748" transform="translate(-37.749 -50.324)" fill="#5b9ccc"/>
            <path id="Path_612620" data-name="Path 612620" d="M108.687,214.92c1.161,0,2.322-.009,3.483,0a1.284,1.284,0,0,1,1.214,1.741,1.174,1.174,0,0,1-.783.7,2.82,2.82,0,0,1-1.421.131,1.835,1.835,0,0,0-.36-.022c-1.693,0-3.387-.022-5.08,0a3.141,3.141,0,0,1-1.393-.2,1.21,1.21,0,0,1,.055-2.177,2.361,2.361,0,0,1,.874-.185c1.137.007,2.274,0,3.411,0" transform="translate(-73.48 -152.298)" fill="#615842"/>
            <path id="Path_612621" data-name="Path 612621" d="M108.441,99.086c-1.2,0-2.394-.015-3.59.007a1.322,1.322,0,0,1-1.239-1.188c-.07-.407.436-1.037.889-1.228a1.962,1.962,0,0,1,.8-.12c1.644,0,3.288-.022,4.932.011.639.013,1.279.015,1.919.044a1.253,1.253,0,0,1,1.26,1.272,1.2,1.2,0,0,1-1.272,1.2c-1.233.011-2.466,0-3.7,0h0" transform="translate(-73.419 -68.418)" fill="#615842"/>
            <path id="Path_612622" data-name="Path 612622" d="M108.775,150.12H112.4a1.094,1.094,0,0,1,1.169,1.107,1.19,1.19,0,0,1-1.059,1.288,5.568,5.568,0,0,1-.58.015c-2.26,0-4.52,0-6.78-.006a1.226,1.226,0,0,1-1.319-1.33A1.134,1.134,0,0,1,105,150.121c1.257,0,2.514,0,3.771,0" transform="translate(-73.579 -106.38)" fill="#615842"/>
          </g>
        </g>
      </g>
    </g>
  </g>
</svg>
