<svg xmlns="http://www.w3.org/2000/svg" xmlns:xlink="http://www.w3.org/1999/xlink" width="117" height="117" viewBox="0 0 117 117">
  <defs>
    <clipPath id="clip-path">
      <rect id="Rectangle_378716" data-name="Rectangle 378716" width="82" height="85" transform="translate(1450.136 5897)" fill="#fff" stroke="#707070" stroke-width="1"/>
    </clipPath>
    <clipPath id="clip-path-2">
      <rect id="Rectangle_378717" data-name="Rectangle 378717" width="75.002" height="74.832" fill="none"/>
    </clipPath>
  </defs>
  <g id="Group_1074756" data-name="Group 1074756" transform="translate(-741 -2108)">
    <g id="Group_1074731" data-name="Group 1074731" transform="translate(-693.668 -3774)">
      <g id="Group_1072229" data-name="Group 1072229" transform="translate(1434.668 5882)">
        <path id="Path_608385" data-name="Path 608385" d="M58.5,0A58.5,58.5,0,1,1,0,58.5,58.5,58.5,0,0,1,58.5,0Z" transform="translate(0)" fill="#9b1497"/>
      </g>
      <g id="Mask_Group_154414" data-name="Mask Group 154414" transform="translate(2.532 1)" clip-path="url(#clip-path)">
        <g id="Group_1074320" data-name="Group 1074320" transform="translate(1453.136 5902)">
          <g id="Group_1074319" data-name="Group 1074319" clip-path="url(#clip-path-2)">
            <path id="Path_612623" data-name="Path 612623" d="M74.951,65.162a1.381,1.381,0,0,0-.445-.621q-3.4-3.391-6.788-6.8c-.881-.885-1.754-1.779-2.631-2.669q0-.213.007-.425c.287-.3.577-.6.859-.9.061-.066.185-.124.051-.255-.512-.5-1-1.027-1.527-1.5-.577-.516-1.111-1.07-1.646-1.626a.272.272,0,0,1-.065-.371,16.847,16.847,0,0,0,1.488-3.487,10.493,10.493,0,0,0,.518-2.411,17.777,17.777,0,0,0-.247-4.872,15.655,15.655,0,0,0-3.077-6.335c-.484-.59-1.065-1.087-1.566-1.66a1.9,1.9,0,0,0,.074-.6q0-10.468,0-20.935a6.9,6.9,0,0,0-.142-1.629,3.754,3.754,0,0,0-2.779-2.989,7.953,7.953,0,0,0-2.15-.2A6.468,6.468,0,0,0,54.737,3.5,3.447,3.447,0,0,0,51.417,0c-.569.013-1.134.083-1.7.083q-12.323,0-24.645,0A5.564,5.564,0,0,1,23.347.16a2,2,0,0,0-.56-.073c-5.5-.045-11,.084-16.5-.074A3.327,3.327,0,0,0,4.5.359a3.623,3.623,0,0,0-2.057,3.4c-.02,8.077-.009,16.154-.009,24.23,0,.6-.009,1.193,0,1.789.005.241-.015.507.233.671a4.8,4.8,0,0,1-.6.4A4.342,4.342,0,0,0,.015,34.621Q-.018,52.376,0,70.131a4.2,4.2,0,0,0,.261,1.384A5.05,5.05,0,0,0,5.176,74.83c.487-.014.974-.015,1.462-.015H55.989c.154,0,.308-.009.463-.015h.078a6.066,6.066,0,0,0,2.706-.339,4.979,4.979,0,0,0,2.931-3.352,2.327,2.327,0,0,0,.2-1.14q0-4.723,0-9.445c0-.183-.062-.384.085-.547a1.934,1.934,0,0,1,.357.327c1.017.881,1.928,1.871,2.882,2.816,2.959,2.933,2.7,2.693,5.649,5.64,1.124.774,4.084-1.937,3.607-3.6" transform="translate(0 0)" fill="#fff"/>
            <path id="Path_612624" data-name="Path 612624" d="M71.705,134.333c-.147.163-.085.364-.085.547q-.007,4.723,0,9.445a2.328,2.328,0,0,1-.2,1.14c-.142-.135-.318-.071-.477-.071q-26.738,0-53.476-.007a4.044,4.044,0,0,1-2.48-.949,5.136,5.136,0,0,1-1.492-1.82,4.667,4.667,0,0,1-.528-2.14q0-18.019,0-36.039a1.7,1.7,0,0,1,.877-.211c.565-.017,1.13-.018,1.694-.025l.215,0,.033.007.033-.007c.119.006.237.016.355.016q6.271,0,12.542,0a.729.729,0,0,1,.7.37c.409.655.837,1.3,1.256,1.948a.415.415,0,0,0,.278.2c-.026.149.074.249.149.351,1.031,1.394,1.958,2.859,2.9,4.312a.666.666,0,0,0,.637.343c3.057-.011,6.114-.007,9.17-.007a4.842,4.842,0,0,1,1.133.069c.022.361-.238.638-.285.978-.073.53-.251,1.031-.286,1.583-.042.667-.254,1.329-.289,2.013a21.89,21.89,0,0,0,1.005,5.493c.238.622.494,1.233.783,1.829a15.375,15.375,0,0,0,1.193,1.872,13.336,13.336,0,0,0,2.807,2.9,14.3,14.3,0,0,0,3.387,2.008c.436.183.876.359,1.324.509.616.206,1.266.283,1.887.46a4.619,4.619,0,0,0,1.154.175,16.889,16.889,0,0,0,5.227-.4c.763-.223,1.508-.495,2.26-.744a.373.373,0,0,1,.441.1c1.076,1.091,2.162,2.173,3.242,3.26.3.305.373.31.688,0q.379-.379.752-.763c.128-.132.236-.2.354.019a1.98,1.98,0,0,0,.235.266c.277.338.691.55.886.964" transform="translate(-9.25 -74.358)" fill="#eecc60"/>
            <path id="Path_612625" data-name="Path 612625" d="M21.962,29.849l-.216,0c.017-.263-.078-.513-.078-.778q.009-14.229,0-28.457a2.026,2.026,0,0,1,.072-.6c5.5.158,11,.029,16.5.074a1.988,1.988,0,0,1,.56.073A5.573,5.573,0,0,0,40.53.081q12.323.007,24.645,0c.569,0,1.134-.07,1.7-.083A3.447,3.447,0,0,1,70.2,3.5a6.464,6.464,0,0,1,.148,1.377c-.115.106-.071.246-.071.371q0,11.481,0,22.962a15.578,15.578,0,0,1-1.817-.471,14.111,14.111,0,0,0-5.024-.2,14.948,14.948,0,0,0-7.527,3.247c-.61.5-1.117,1.1-1.708,1.616-.178-.007-.356-.022-.534-.022q-8.038,0-16.077,0c-.142,0-.285.008-.427.012a.415.415,0,0,1-.278-.2c-.419-.649-.847-1.292-1.256-1.948a.729.729,0,0,0-.7-.37q-6.27.014-12.542,0c-.119,0-.237-.01-.355-.016h-.065m3.491-12.356a20.476,20.476,0,0,1-2.2-.077c-.251-.047-.378.074-.375.365.013,1.418.009,2.837,0,4.256,0,.206.016.321.278.32q3.44-.016,6.88,0c.19,0,.276-.039.272-.254-.015-.751-.012-1.5-.016-2.252,0-.7,0-1.4.015-2.107,0-.205-.068-.263-.267-.262-1.531.01-3.062.011-4.593.015M30.3,7.462c0-.774,0-1.548.015-2.321,0-.205-.068-.264-.267-.262-1.531.01-3.062.011-4.593.015-.772,0-1.543,0-2.314-.014-.171,0-.257.03-.256.231q.01,2.3,0,4.609c0,.189.074.249.253.248q3.437,0,6.873,0c.239,0,.3-.113.3-.331-.01-.726-.01-1.452-.014-2.179M55.2,6.233a.148.148,0,0,0,.158-.054c.1-.109.071-.247.072-.374q0-.8,0-1.609c0-.513.064-.459-.454-.459H34.77a2.886,2.886,0,0,0-.487.056c-.159.027-.179.076-.178.215,0,.608,0,1.215-.011,1.823a.593.593,0,0,0,.071.342c.027.058.067.076.125.039a18.621,18.621,0,0,1,1.884.007q8.589.012,17.179,0a12.667,12.667,0,0,1,1.847.014M34.09,21.28l-.01-.016.013.013c0,.68.014,1.36-.005,2.039-.009.306.1.387.392.387q12.682-.006,25.364,0c.464,0,.928-.018,1.391,0,.3.012.428-.078.412-.4-.026-.536-.01-1.074-.014-1.61,0-.482,0-.482-.48-.482H35.147a3.689,3.689,0,0,0-1.057.074M47.866,8.6H34.6c-.485,0-.483,0-.485.47,0,.561.006,1.122-.024,1.681-.017.325.073.433.412.432q13.306-.013,26.612-.007c.391,0,.525-.137.526-.538,0-.537-.019-1.074,0-1.61.014-.337-.086-.438-.434-.437q-6.67.019-13.341.008M44.761,18.627q5.155,0,10.31.005c.265,0,.379-.049.366-.349-.025-.6-.016-1.193,0-1.789.005-.264-.058-.375-.357-.374q-8.17.017-16.34.013c-1.391,0-2.783,0-4.174,0-.467,0-.467,0-.467.485,0,.513,0,1.026,0,1.539,0,.473-.006.474.463.474h10.2m21.8-8.7c0-.357-.007-.714,0-1.071,0-.179-.047-.255-.239-.252-.664.009-1.328.007-1.992,0-.175,0-.257.047-.256.242q0,1.017-.018,2.034c-.005.238.1.309.319.306q.961-.013,1.921,0c.2,0,.275-.057.266-.262-.014-.333,0-.666,0-1M64.079,22.37h-.012c0,.345.006.69,0,1.035,0,.191.066.294.263.295l1.957,0c.189,0,.281-.084.28-.282q-.006-1,0-2c0-.145-.04-.218-.2-.217-.7,0-1.4,0-2.1,0-.142,0-.2.031-.193.2.022.32.006.642.006.963" transform="translate(-15.462 -0.001)" fill="#dce8ff"/>
            <path id="Path_612626" data-name="Path 612626" d="M125.494,100.651c.59-.516,1.1-1.116,1.708-1.616a14.947,14.947,0,0,1,7.527-3.247,14.11,14.11,0,0,1,5.024.2,15.606,15.606,0,0,0,1.817.471,1.029,1.029,0,0,0,.149.088,18.266,18.266,0,0,1,2.415,1.123,19.3,19.3,0,0,1,2.505,1.809c.5.573,1.082,1.069,1.566,1.66a15.658,15.658,0,0,1,3.076,6.335,17.777,17.777,0,0,1,.247,4.872,10.487,10.487,0,0,1-.518,2.411,16.842,16.842,0,0,1-1.488,3.487.272.272,0,0,0,.065.371c.535.557,1.069,1.11,1.646,1.626.531.475,1.015,1,1.527,1.5.134.131.01.189-.051.255-.282.3-.572.6-.859.9-.187.139-.356.278-.007.425.877.89,1.75,1.784,2.631,2.669q3.389,3.4,6.789,6.8a1.381,1.381,0,0,1,.445.621c.477,1.659-2.482,4.371-3.607,3.6-2.946-2.947-2.69-2.706-5.649-5.64-.954-.945-1.865-1.935-2.882-2.816a1.924,1.924,0,0,0-.357-.327c-.2-.414-.608-.626-.886-.964a1.957,1.957,0,0,1-.235-.266c-.118-.216-.225-.152-.354-.019q-.373.385-.752.763c-.314.315-.385.31-.688,0-1.08-1.088-2.165-2.169-3.242-3.26a.373.373,0,0,0-.441-.1c-.753.249-1.5.521-2.26.744a16.88,16.88,0,0,1-5.227.4,4.619,4.619,0,0,1-1.154-.175c-.621-.178-1.271-.255-1.887-.46-.448-.15-.888-.326-1.324-.509a14.322,14.322,0,0,1-3.387-2.008,13.342,13.342,0,0,1-2.807-2.9,15.4,15.4,0,0,1-1.193-1.872c-.289-.6-.545-1.208-.783-1.83a13.284,13.284,0,0,1-.793-3.4,13.418,13.418,0,0,1-.212-2.09c.035-.684.247-1.346.289-2.013.035-.552.213-1.053.286-1.583.047-.34.308-.618.285-.978.341-.188.295-.591.384-.87a9.021,9.021,0,0,1,1-1.947,12.731,12.731,0,0,1,1.663-2.24m11.8.028a3.748,3.748,0,0,0-1.409.022,9.885,9.885,0,0,0-2.7.592,10.094,10.094,0,0,0-5.049,4.109,11.648,11.648,0,0,0-1.337,3.628,13.1,13.1,0,0,0-.071,2.282,8.865,8.865,0,0,0,1.825,5.156,8.481,8.481,0,0,0,2.159,2.142,9.609,9.609,0,0,0,1.957,1.184,9.3,9.3,0,0,0,2.337.65,13.337,13.337,0,0,0,2.073.218c.507-.039,1-.2,1.511-.2a6.753,6.753,0,0,0,3.66-1.081c2.927-1.9,4.156-4.79,4.434-8.118a10.651,10.651,0,0,0-1.323-5.952,8.252,8.252,0,0,0-4.263-3.983,13.308,13.308,0,0,0-3.8-.645" transform="translate(-86.758 -68.255)" fill="#939293"/>
            <path id="Path_612627" data-name="Path 612627" d="M3.713,105.027q0,18.019,0,36.039a4.67,4.67,0,0,0,.528,2.14,5.134,5.134,0,0,0,1.493,1.82,4.044,4.044,0,0,0,2.48.949q26.738.008,53.476.007c.159,0,.335-.064.477.071a4.98,4.98,0,0,1-2.931,3.352,6.069,6.069,0,0,1-2.706.339l-.04-.074-.039.074c-.154.005-.309.015-.463.015H6.638c-.487,0-.975,0-1.462.015A5.052,5.052,0,0,1,.261,146.46,4.206,4.206,0,0,1,0,145.076q.005-17.755.015-35.511A4.343,4.343,0,0,1,2.061,105.8a4.821,4.821,0,0,0,.605-.4,5.176,5.176,0,0,1,.829-.3l.073-.037.144-.031" transform="translate(0 -74.945)" fill="#f3a844"/>
            <path id="Path_612628" data-name="Path 612628" d="M196.42,43.372a19.329,19.329,0,0,0-2.505-1.809,18.231,18.231,0,0,0-2.415-1.123,1.03,1.03,0,0,1-.149-.087q0-11.481,0-22.962c0-.126-.044-.266.071-.371a7.953,7.953,0,0,1,2.15.2,3.754,3.754,0,0,1,2.779,2.989,6.9,6.9,0,0,1,.142,1.629q-.005,10.468,0,20.935a1.9,1.9,0,0,1-.074.6" transform="translate(-136.539 -12.144)" fill="#c8d4ee"/>
            <path id="Path_612629" data-name="Path 612629" d="M9.758,30.1l-.144.03-.073.037a5.175,5.175,0,0,0-.829.3c-.248-.163-.228-.429-.233-.67-.013-.6,0-1.193,0-1.79,0-8.077-.011-16.154.009-24.23A3.624,3.624,0,0,1,10.54.372,3.33,3.33,0,0,1,12.327.026a2.026,2.026,0,0,0-.072.6q0,14.228,0,28.457c0,.266.1.515.078.778-.565.007-1.13.009-1.694.025a1.705,1.705,0,0,0-.877.211" transform="translate(-6.045 -0.014)" fill="#c8d4ee"/>
            <path id="Path_612630" data-name="Path 612630" d="M226.736,191.224c-.349-.147-.18-.287.007-.425q0,.213-.007.425" transform="translate(-161.649 -136.15)" fill="#e2e7f6"/>
            <path id="Path_612631" data-name="Path 612631" d="M197.092,260.965l.039-.074.04.074h-.079" transform="translate(-140.64 -186.166)" fill="#eecc60"/>
            <path id="Path_612632" data-name="Path 612632" d="M92.785,113.048a12.722,12.722,0,0,0-1.663,2.24,9.012,9.012,0,0,0-1,1.947c-.089.28-.043.682-.384.871a4.828,4.828,0,0,0-1.133-.069c-3.057,0-6.114,0-9.17.007a.666.666,0,0,1-.637-.343c-.943-1.453-1.87-2.918-2.9-4.312-.075-.1-.175-.2-.149-.351.142,0,.285-.012.427-.012q8.038,0,16.077,0c.178,0,.356.014.534.022" transform="translate(-54.048 -80.652)" fill="#f3a844"/>
            <path id="Path_612633" data-name="Path 612633" d="M22.694,104.21h.065l-.033.007Z" transform="translate(-16.194 -74.362)" fill="#e2e7f6"/>
            <path id="Path_612634" data-name="Path 612634" d="M78.8,30.017q6.67,0,13.341-.008c.349,0,.449.1.434.437-.023.536,0,1.074,0,1.61,0,.4-.136.538-.527.538q-13.305,0-26.611.007c-.339,0-.43-.108-.412-.432.029-.559.021-1.121.024-1.682,0-.47,0-.47.485-.47H78.8" transform="translate(-46.396 -21.414)" fill="#eecc60"/>
            <path id="Path_612635" data-name="Path 612635" d="M65.031,74.1a3.69,3.69,0,0,1,1.057-.074H92.094c.475,0,.477,0,.48.482,0,.537-.013,1.074.014,1.61.016.325-.108.416-.412.4-.463-.018-.927,0-1.391,0q-12.682,0-25.364,0c-.291,0-.4-.081-.392-.387.02-.679.005-1.359.005-2.039Z" transform="translate(-46.403 -52.82)" fill="#eecc60"/>
            <path id="Path_612636" data-name="Path 612636" d="M75.716,58.785h-10.2c-.469,0-.467,0-.463-.474,0-.513,0-1.026,0-1.539,0-.481,0-.485.467-.485,1.391,0,2.783,0,4.174,0q8.169,0,16.34-.013c.3,0,.363.11.357.374-.012.6-.021,1.194,0,1.789.013.3-.1.349-.366.349q-5.155-.011-10.31,0" transform="translate(-46.418 -40.158)" fill="#eecc60"/>
            <path id="Path_612637" data-name="Path 612637" d="M65.117,15.474a.593.593,0,0,1-.071-.342c.007-.608.014-1.215.011-1.823,0-.14.019-.188.178-.215a2.912,2.912,0,0,1,.487-.056q10.1,0,20.205,0c.518,0,.451-.054.454.459,0,.536,0,1.072,0,1.609,0,.127.032.265-.072.374l-.158.054A12.743,12.743,0,0,0,84.3,15.52q-8.589.013-17.178,0a18.711,18.711,0,0,0-1.884-.007l-.125-.039" transform="translate(-46.415 -9.303)" fill="#eecc60"/>
            <path id="Path_612638" data-name="Path 612638" d="M33.324,19.612c0,.726,0,1.452.013,2.179,0,.218-.062.332-.3.331q-3.437-.007-6.873,0c-.179,0-.253-.059-.253-.248q.008-2.3,0-4.609c0-.2.085-.234.256-.231.771.01,1.543.01,2.314.014a2.4,2.4,0,0,0,.13.977,2.753,2.753,0,0,0,2.577,1.585c.712.02,1.426.005,2.138.006" transform="translate(-18.488 -12.152)" fill="#f3a844"/>
            <path id="Path_612639" data-name="Path 612639" d="M33.319,63.21c0,.751,0,1.5.016,2.252,0,.215-.081.254-.272.254q-3.44-.008-6.88,0c-.263,0-.279-.113-.279-.32.006-1.419.01-2.837,0-4.256,0-.29.123-.412.375-.365a20.549,20.549,0,0,0,2.2.077,1.984,1.984,0,0,0,.092.736,2.626,2.626,0,0,0,2.449,1.684,15.135,15.135,0,0,0,2.3-.066" transform="translate(-18.483 -43.363)" fill="#f3a844"/>
            <path id="Path_612640" data-name="Path 612640" d="M39.727,19.61c-.713,0-1.426.013-2.138-.006a2.753,2.753,0,0,1-2.577-1.585,2.4,2.4,0,0,1-.13-.977c1.531,0,3.062,0,4.593-.015.2,0,.27.057.267.262-.013.774-.011,1.548-.015,2.321" transform="translate(-24.891 -12.149)" fill="#eecc60"/>
            <path id="Path_612641" data-name="Path 612641" d="M39.727,63.389a15.134,15.134,0,0,1-2.3.066,2.626,2.626,0,0,1-2.449-1.684,1.984,1.984,0,0,1-.092-.736c1.531,0,3.062,0,4.593-.015.2,0,.271.057.267.262-.013.7-.011,1.4-.015,2.107" transform="translate(-24.891 -43.542)" fill="#eecc60"/>
            <path id="Path_612642" data-name="Path 612642" d="M172.179,31.349c0,.333-.01.667,0,1,.008.206-.068.266-.266.262q-.961-.015-1.921,0c-.223,0-.325-.068-.319-.306q.023-1.017.018-2.034c0-.195.081-.243.256-.242.664.005,1.328.008,1.992,0,.192,0,.244.073.239.252-.01.357,0,.714,0,1.071" transform="translate(-121.077 -21.426)" fill="#eecc60"/>
            <path id="Path_612643" data-name="Path 612643" d="M169.7,75.192c0-.321.015-.644-.006-.963-.011-.171.051-.2.193-.2.7,0,1.4,0,2.1,0,.16,0,.2.072.2.217q-.006,1,0,2c0,.2-.091.282-.28.282l-1.957,0c-.2,0-.268-.1-.263-.295.008-.345,0-.69,0-1.035h.012" transform="translate(-121.086 -52.823)" fill="#eecc60"/>
            <path id="Path_612644" data-name="Path 612644" d="M65.3,21.545l.125.039c-.057.037-.1.018-.125-.039" transform="translate(-46.593 -15.374)" fill="#e2e7f6"/>
            <path id="Path_612645" data-name="Path 612645" d="M138.735,21.622l.158-.054a.148.148,0,0,1-.158.054" transform="translate(-98.998 -15.39)" fill="#e2e7f6"/>
            <path id="Path_612646" data-name="Path 612646" d="M65.016,74.247,65,74.234l.01.016,0,0" transform="translate(-46.385 -52.971)" fill="#eecc60"/>
            <path id="Path_612647" data-name="Path 612647" d="M159.3,113.2a13.307,13.307,0,0,1,3.8.645,8.252,8.252,0,0,1,4.263,3.983,10.651,10.651,0,0,1,1.323,5.952c-.278,3.328-1.507,6.215-4.434,8.118a6.754,6.754,0,0,1-3.66,1.081c-.512.007-1,.164-1.511.2-.029-.416-.365-.483-.666-.573a7.039,7.039,0,0,1-3.046-1.9,10.271,10.271,0,0,1-2.547-4.542,11.938,11.938,0,0,1-.292-4.731,10.222,10.222,0,0,1,1.221-3.624,9.515,9.515,0,0,1,2.4-2.92,8.008,8.008,0,0,1,2.351-1.206c.272-.1.7-.049.789-.49" transform="translate(-108.767 -80.78)" fill="#f7f6fe"/>
            <path id="Path_612648" data-name="Path 612648" d="M150.071,113.049c-.085.441-.516.392-.789.49a8.008,8.008,0,0,0-2.351,1.206,9.514,9.514,0,0,0-2.4,2.92,10.222,10.222,0,0,0-1.221,3.624,11.938,11.938,0,0,0,.292,4.731,10.272,10.272,0,0,0,2.547,4.542,7.039,7.039,0,0,0,3.046,1.9c.3.089.637.157.666.573a13.336,13.336,0,0,1-2.073-.218,9.3,9.3,0,0,1-2.337-.65,9.61,9.61,0,0,1-1.957-1.184,8.482,8.482,0,0,1-2.159-2.142,8.864,8.864,0,0,1-1.825-5.156,13.1,13.1,0,0,1,.071-2.282,11.649,11.649,0,0,1,1.337-3.628,10.094,10.094,0,0,1,5.049-4.109,9.884,9.884,0,0,1,2.7-.592,3.747,3.747,0,0,1,1.409-.022" transform="translate(-99.537 -80.625)" fill="#e2e7f6"/>
            <path id="Path_612649" data-name="Path 612649" d="M12.2,105.171l.073-.037-.073.037" transform="translate(-8.709 -75.021)" fill="#eecc60"/>
          </g>
        </g>
      </g>
    </g>
  </g>
</svg>
