<svg xmlns="http://www.w3.org/2000/svg" xmlns:xlink="http://www.w3.org/1999/xlink" width="125" height="125" viewBox="0 0 125 125">
  <defs>
    <clipPath id="clip-path">
      <rect id="Rectangle_378640" data-name="Rectangle 378640" width="91" height="91" transform="translate(405 1177)" fill="#fff" stroke="#707070" stroke-width="1"/>
    </clipPath>
    <clipPath id="clip-path-2">
      <rect id="Rectangle_378956" data-name="Rectangle 378956" width="83.611" height="80.047" fill="#615842"/>
    </clipPath>
  </defs>
  <g id="Group_1074734" data-name="Group 1074734" transform="translate(-1094 -1983.144)">
    <g id="Group_1074207" data-name="Group 1074207" transform="translate(708 -162.856)">
      <path id="Path_608385" data-name="Path 608385" d="M62.5,0A62.5,62.5,0,1,1,0,62.5,62.5,62.5,0,0,1,62.5,0Z" transform="translate(386 2146)" fill="#fff"/>
    </g>
    <g id="Mask_Group_154387" data-name="Mask Group 154387" transform="translate(707 824)" clip-path="url(#clip-path)">
      <g id="Group_1074678" data-name="Group 1074678" transform="translate(408 1182)">
        <g id="Group_1074677" data-name="Group 1074677" clip-path="url(#clip-path-2)">
          <path id="Path_613265" data-name="Path 613265" d="M19.025,11.627c-.7.662-1.4,1.309-2.08,1.98-.478.472-.924.976-1.385,1.464-.051.055-.1.107-.159.158a1.021,1.021,0,0,1-1.677-.013,1.111,1.111,0,0,1,0-1.662c1.156-1.183,2.338-2.342,3.515-3.5.143-.141.235-.24.139-.471a4.793,4.793,0,0,1,2.486-6.349,4.678,4.678,0,0,1,5.336.82c.13.113.262.225.374.322a38.769,38.769,0,0,1,8.017-3.042,42.1,42.1,0,0,1,6.6-1.152A33.81,33.81,0,0,1,48.45.338c1.559.231,3.126.457,4.656.823A36.87,36.87,0,0,1,60.975,4a.582.582,0,0,0,.753-.1,4.51,4.51,0,0,1,4.648-.856A4.845,4.845,0,0,1,69.717,7a4.5,4.5,0,0,1-.288,2.494c.3.268.612.546.919.832.5.466,1.009.926,1.487,1.414a.475.475,0,0,0,.523.142,10.918,10.918,0,0,1,1.741-.374,4.963,4.963,0,0,1,4.913,6.376,6.465,6.465,0,0,1-.793,1.51.461.461,0,0,0-.035.563,36.281,36.281,0,0,1,2.894,6.084,40.612,40.612,0,0,1,1.655,5.836,46.459,46.459,0,0,1,.822,6.316,34.782,34.782,0,0,1-.116,5.444A39.783,39.783,0,0,1,73.3,66.8c-.951,1.047-1.992,2.013-3.006,3a.417.417,0,0,0-.125.516,4.638,4.638,0,0,1-.488,4.506,4.8,4.8,0,0,1-5.409,1.985,7.106,7.106,0,0,1-1.935-1.077.487.487,0,0,0-.566-.052,38.571,38.571,0,0,1-8.1,3.072,39.564,39.564,0,0,1-12.116,1.238,41.1,41.1,0,0,1-6.42-.873A38.968,38.968,0,0,1,25.359,75.6a.356.356,0,0,0-.316.008,4.688,4.688,0,0,1-6.36-.042A4.717,4.717,0,0,1,17.164,70.5a.68.68,0,0,0-.219-.743c-1.173-1.184-2.392-2.33-3.488-3.582A40.093,40.093,0,0,1,4.572,48.265a35.643,35.643,0,0,1-.86-8.254.315.315,0,0,0-.258-.368A4.91,4.91,0,0,1,3.1,30.391c.529-.19,1.107-.238,1.657-.376a.442.442,0,0,0,.282-.25A39.972,39.972,0,0,1,9.431,19.4a5.62,5.62,0,0,1,.441-.646,1.019,1.019,0,0,1,1.453-.243,1.056,1.056,0,0,1,.5,1.484c-.612,1.152-1.272,2.278-1.875,3.435a38.633,38.633,0,0,0-2.589,6.818c-.079.265,0,.4.207.587.54.487,1.021,1.039,1.539,1.553a.542.542,0,0,0,.38.175c1.077-.18,2.147-.409,3.225-.579,1.263-.2,2.529-.392,3.8-.521,1.719-.175,3.443-.3,5.168-.418.881-.058,1.766-.029,2.649-.067a.627.627,0,0,0,.449-.234,4.956,4.956,0,0,1,5.509-2.5.517.517,0,0,0,.574-.25c1.385-1.695,2.74-3.419,4.216-5.032,1.207-1.319,2.563-2.5,3.862-3.734.176-.167.332-.319.212-.569a6.493,6.493,0,0,1-.365-3.151.538.538,0,0,0-.2-.414A52.06,52.06,0,0,0,27.925,10.35c-.39-.123-.771-.275-1.164-.39a.549.549,0,0,0-.721.294,4.909,4.909,0,0,1-4.9,2.259,3.986,3.986,0,0,1-2.117-.886m6.982,57.618c.147-.043.293-.073.43-.126.983-.383,1.97-.757,2.946-1.158a72.916,72.916,0,0,0,15.725-8.908A75.006,75.006,0,0,0,58.9,45.737a.368.368,0,0,0,.021-.518,4.1,4.1,0,0,1-.748-2.566,10.822,10.822,0,0,0,.037-1.119.484.484,0,0,0-.2-.359,72.106,72.106,0,0,0-17.155-6.083c-2.061-.451-4.158-.735-6.233-1.124-.4-.075-.605-.028-.74.39A5.061,5.061,0,0,1,31.974,37a5.138,5.138,0,0,1-4.013.821c-.176-.029-.331-.095-.429.138-.7,1.671-1.468,3.318-2.11,5.012A49.417,49.417,0,0,0,22.77,53.235a50,50,0,0,0-.655,7.389c0,2.025.169,4.049.253,6.074.01.235.134.278.324.317a5,5,0,0,1,3.314,2.231M43.513,77.6a33.4,33.4,0,0,0,7.629-.706,37.524,37.524,0,0,0,9.478-3.279c.23-.115.235-.238.205-.467a5.46,5.46,0,0,1-.088-1.551,5.042,5.042,0,0,1,3.883-4.334.433.433,0,0,0,.259-.284,9.009,9.009,0,0,0,.132-1.26c.035-1.568.031-3.137.087-4.7a2.659,2.659,0,0,1,.321-1.083,1.115,1.115,0,0,1,1.239-.47,1.08,1.08,0,0,1,.882,1.026c-.06,2.088-.131,4.175-.232,6.261-.031.646-.08.643.515.949a4.963,4.963,0,0,1,.453.259.481.481,0,0,0,.684-.09,40.4,40.4,0,0,0,5.007-5.624,37.6,37.6,0,0,0,3.725-6.319c.084-.181.173-.337-.034-.528-1.623-1.488-3.175-3.061-4.866-4.465-1.96-1.627-4.039-3.11-6.07-4.65-.1-.075-.265-.166-.356-.132a1.008,1.008,0,0,0-.611,1.242q.6,2.9,1.173,5.8a1.056,1.056,0,0,1-.46,1.2,1.185,1.185,0,0,1-1.878-.861c-.183-.888-.293-1.791-.482-2.677-.222-1.043-.488-2.077-.753-3.11a.431.431,0,0,0-.278-.254,6.18,6.18,0,0,1-1.274-.22c-.721-.326-1.092-.05-1.543.51A74.591,74.591,0,0,1,47.129,60.5,75.886,75.886,0,0,1,30.706,69.99c-1.19.5-2.4.953-3.594,1.446a.529.529,0,0,0-.261.332c-.116.517-.2,1.04-.284,1.564-.014.093.033.26.1.292.786.37,1.576.731,2.374,1.073a36.348,36.348,0,0,0,8.5,2.458,28.426,28.426,0,0,0,5.978.442M9.85,34.956a4.757,4.757,0,0,1-1.4,3.444,6.027,6.027,0,0,1-2.056,1.251.454.454,0,0,0-.258.315,36.824,36.824,0,0,0,.512,5.675,44.163,44.163,0,0,0,3.14,10,37.094,37.094,0,0,0,8.349,11.979c.519.489.513.5,1.125.112a1.116,1.116,0,0,1,.225-.131c.458-.151.563-.464.513-.922-.126-1.175-.266-2.352-.3-3.531a55.319,55.319,0,0,1,.695-10.329A55.7,55.7,0,0,1,25.33,37.095c.2-.41.362-.8-.12-1.133a.842.842,0,0,1-.169-.243,5.364,5.364,0,0,1-.825-2.33A130.085,130.085,0,0,0,9.85,34.956M68.062,11.4c-.087.06-.129.086-.167.117a4.924,4.924,0,0,1-7.26-1.324c-.063-.1-.253-.227-.344-.2-.414.12-.807.308-1.218.441a54.4,54.4,0,0,0-10.352,4.634.481.481,0,0,0-.269.6,4.551,4.551,0,0,1-.32,2.912.347.347,0,0,0,.093.484c.408.346.813.7,1.2,1.066a61.4,61.4,0,0,1,7.342,8.284A59.193,59.193,0,0,1,62.136,37.4a.476.476,0,0,0,.319.228c.574.066,1.151.111,1.727.14a.44.44,0,0,0,.349-.143c1.065-1.952,2.171-3.884,3.158-5.875A68.323,68.323,0,0,0,71.733,21.5c.215-.7.223-.693-.3-1.1A5.011,5.011,0,0,1,69.4,16.537a4.93,4.93,0,0,1,.734-2.7c.089-.157.171-.3,0-.465-.695-.655-1.387-1.314-2.077-1.969m8.03,9.634a10.437,10.437,0,0,1-1.366.313.633.633,0,0,0-.622.5c-.838,2.376-1.637,4.769-2.563,7.111a67.033,67.033,0,0,1-4.982,9.874c-.119.2-.031.286.079.411a4.866,4.866,0,0,1,1.156,4.573.343.343,0,0,0,.167.429,75.77,75.77,0,0,1,10.522,8.624c.085.084.184.154.336.281a33.841,33.841,0,0,0,2.292-10.784,37.643,37.643,0,0,0-5.019-21.336M32.706,29.46c.349.643.683,1.275,1.039,1.893a.477.477,0,0,0,.314.149c1.594.251,3.2.421,4.78.755,2.427.514,4.842,1.095,7.241,1.727a64.147,64.147,0,0,1,9.317,3.34c1.24.542,2.459,1.133,3.684,1.71a.525.525,0,0,0,.64-.087c.28-.237.389-.464.134-.782a1.586,1.586,0,0,1-.149-.3A54.01,54.01,0,0,0,46.6,20.829c-.156-.135-.243-.108-.413-.018a5.541,5.541,0,0,1-1.256.546,4.712,4.712,0,0,1-4.067-.7,57.109,57.109,0,0,0-8.154,8.805M47.3,13.17a.456.456,0,0,0,.081-.044,45.09,45.09,0,0,1,6.244-3.16C55.58,9.176,57.581,8.5,59.568,7.8c.3-.108.458-.235.437-.575-.018-.282.043-.569.037-.852a.36.36,0,0,0-.161-.274c-1.164-.5-2.324-1.006-3.5-1.461a32.783,32.783,0,0,0-6.659-1.712c-1.43-.228-2.886-.312-4.334-.41a33.748,33.748,0,0,0-7.547.372A47.561,47.561,0,0,0,32.19,4.213a25.545,25.545,0,0,0-5.264,2.155c-.088.049-.2.131-.22.214A.929.929,0,0,0,27.422,7.7a55.482,55.482,0,0,1,12.312,5.32.462.462,0,0,0,.656-.05,4.794,4.794,0,0,1,5.114-.856,12.5,12.5,0,0,1,1.8,1.059M2.34,34.986A2.59,2.59,0,0,0,4.891,37.5a2.542,2.542,0,1,0-.139-5.08A2.586,2.586,0,0,0,2.34,34.986M74.292,18.969a2.5,2.5,0,0,0,2.541-2.518,2.528,2.528,0,0,0-2.476-2.555,2.447,2.447,0,0,0-2.523,2.546,2.42,2.42,0,0,0,2.458,2.528M63.043,45.057a2.355,2.355,0,0,0,2.464-2.523,2.389,2.389,0,0,0-2.541-2.5,2.471,2.471,0,0,0-2.44,2.56,2.445,2.445,0,0,0,2.518,2.468M19.366,71.884a2.525,2.525,0,0,0,5.05.01,2.613,2.613,0,0,0-2.462-2.545,2.5,2.5,0,0,0-2.588,2.535M65.609,69.6a2.362,2.362,0,0,0-2.48,2.6,2.5,2.5,0,0,0,5-.145A2.389,2.389,0,0,0,65.609,69.6M41.189,16.589a2.371,2.371,0,0,0,2.434,2.557,2.42,2.42,0,0,0,2.513-2.553,2.379,2.379,0,0,0-2.47-2.462,2.323,2.323,0,0,0-2.477,2.457m-12.043,18.9a2.291,2.291,0,0,0,2.474-2.459,2.44,2.44,0,0,0-2.469-2.532A2.515,2.515,0,0,0,26.625,33a2.37,2.37,0,0,0,2.521,2.484M21.9,5.22a2.4,2.4,0,0,0-2.531,2.588,2.52,2.52,0,0,0,2.543,2.4,2.546,2.546,0,0,0,2.5-2.579A2.372,2.372,0,0,0,21.9,5.22M62.4,7.719a2.3,2.3,0,0,0,2.45,2.449,2.393,2.393,0,0,0,2.5-2.549,2.431,2.431,0,0,0-2.462-2.455A2.384,2.384,0,0,0,62.4,7.719" transform="translate(0 0)" fill="#615842"/>
        </g>
      </g>
    </g>
  </g>
</svg>
