<svg xmlns="http://www.w3.org/2000/svg" xmlns:xlink="http://www.w3.org/1999/xlink" width="117" height="117" viewBox="0 0 117 117">
  <defs>
    <clipPath id="clip-path">
      <rect id="Rectangle_378716" data-name="Rectangle 378716" width="82" height="85" transform="translate(1450.136 5897)" fill="#fff" stroke="#707070" stroke-width="1"/>
    </clipPath>
    <clipPath id="clip-path-2">
      <rect id="Rectangle_378718" data-name="Rectangle 378718" width="74.333" height="81.947" fill="none"/>
    </clipPath>
  </defs>
  <g id="Group_1074757" data-name="Group 1074757" transform="translate(-1161 -2108)">
    <g id="Group_1074730" data-name="Group 1074730" transform="translate(-273.668 -3774)">
      <g id="Group_1072229" data-name="Group 1072229" transform="translate(1434.668 5882)">
        <path id="Path_608385" data-name="Path 608385" d="M58.5,0A58.5,58.5,0,1,1,0,58.5,58.5,58.5,0,0,1,58.5,0Z" transform="translate(0)" fill="#9b1497"/>
      </g>
      <g id="Mask_Group_154414" data-name="Mask Group 154414" transform="translate(2.532 1)" clip-path="url(#clip-path)">
        <g id="Group_1074323" data-name="Group 1074323" transform="translate(1457.803 5899)">
          <g id="Group_1074322" data-name="Group 1074322" clip-path="url(#clip-path-2)">
            <path id="Path_612650" data-name="Path 612650" d="M74.062,12.581c-.642-.649-1.293-1.289-1.938-1.935-.754-.756-1.525-1.5-2.251-2.279a1.193,1.193,0,0,0-1.8-.093c-.6.589-1.2,1.184-1.792,1.778l-7.054,7.026a.745.745,0,0,1-.46.271,3.949,3.949,0,0,1-.075-.9c.005-.608,0-1.216-.005-1.824q0-5.469.005-10.938,0-1.358,0-2.716a.735.735,0,0,0-.355-.717A2.143,2.143,0,0,0,57.356,0Q29.319.011,1.282.006A1.114,1.114,0,0,0,0,1.286q0,39.7,0,79.393a1.108,1.108,0,0,0,1.26,1.261H22.579q6.72,0,13.439,0c.576,0,1.151.006,1.727,0,.115,0,.25.049.333-.086.3.023.411-.237.573-.4q4.837-4.8,9.66-9.615,3.421-3.408,6.844-6.814.976-.968,1.955-1.933a16.521,16.521,0,0,0,1.511-1.563c.1-.083.074-.2.074-.3,0-.63,0-1.261,0-1.892q0-11.851,0-23.7c0-.085-.012-.17-.018-.255q.012-1.533.023-3.066c.624-.636,1.244-1.276,1.874-1.906,1.25-1.253,2.493-2.514,3.766-3.743.536-.517,1.086-1.021,1.611-1.55a3.8,3.8,0,0,1,.413-.461,12.189,12.189,0,0,0,1.262-1.167c.99-.936,1.914-1.941,2.883-2.9a3.116,3.116,0,0,0,.532-.635c.111-.19.156-.97.036-1.044-.262-.161-.425-.429-.683-.587a.419.419,0,0,1-.207-.462l-.162.032-.033,0,.033,0,.162-.032,1.326-1.4c.86-.852,1.726-1.7,2.578-2.56a.969.969,0,0,0-.027-1.317" transform="translate(0 0)" fill="#fff"/>
            <path id="Path_612651" data-name="Path 612651" d="M21.431,45.06a1.193,1.193,0,0,0-.743,1.358,1.074,1.074,0,0,0,1.006.908,4.462,4.462,0,0,0,.659.039c1.016.005,2.033,0,3.049.006a.534.534,0,0,1-.192.519c-.422.4-.849.805-1.24,1.237-.918,1.014-1.98,1.882-2.9,2.9-.581.645-1.268,1.194-1.892,1.8-.754.734-1.481,1.5-2.241,2.226A5.037,5.037,0,0,0,15.8,57.739c-.836,1.966-1.754,3.895-2.612,5.851a4.725,4.725,0,0,0-.592,2.275c-.171.008-.342.021-.513.022-.956,0-1.912-.043-2.866.039a1.219,1.219,0,0,0-1.2,1.153,1.259,1.259,0,0,0,1.168,1.277c.352.036.709.031,1.063.045.062.146.128.145.2,0h2.674a.269.269,0,0,0,.423.013l.513.044a1.007,1.007,0,0,0,.638.509,4.109,4.109,0,0,0,3.27-.2c1.973-.894,3.959-1.761,5.938-2.64a5.15,5.15,0,0,0,1.639-.954L35.673,55.083c.105-.1.216-.2.19-.374.294-.012.588-.036.882-.035,3.961,0,7.922.017,11.884.016a15.893,15.893,0,0,0,2.021-.049,1.021,1.021,0,0,0,.938-.756,1.355,1.355,0,0,0-.315-1.328,1.436,1.436,0,0,0-1.171-.3c-3.764,0-7.529.029-11.293-.027a.788.788,0,0,1,.312-.517q1.954-1.945,3.907-3.892c.119-.118.272-.216.288-.408a4.763,4.763,0,0,1,.916-.035c2.07,0,4.141,0,6.211-.015a1.072,1.072,0,0,0,1.2-1.128,1.2,1.2,0,0,0-1.276-1.29c-1.445-.012-2.891-.017-4.336-.025a2.462,2.462,0,0,1,.513-.6q2.625-2.62,5.255-5.236c.365-.364.364-.365.769-.056a1.981,1.981,0,0,0,2.3,0,28.108,28.108,0,0,0,3.005-2.9,3.177,3.177,0,0,1,.8-.744c.006.085.018.171.018.255q0,11.852,0,23.7c-4.085.029-8.17-.075-12.254.057-2.291.074-4.586-.07-6.877.081a3.6,3.6,0,0,0-2.5,1.116A3.3,3.3,0,0,0,36,63.107c.04.781.008,1.566.008,2.349q.005,8.24.011,16.481l-13.439,0H1.26A1.108,1.108,0,0,1,0,80.68q0-39.7,0-79.393A1.114,1.114,0,0,1,1.281.007Q29.318.007,57.355,0a2.142,2.142,0,0,1,.983.252.735.735,0,0,1,.355.717q0,1.358,0,2.716,0,5.469-.005,10.938c-.174,0-.25.141-.35.241q-8.315,8.283-16.63,16.565-1.588,1.579-3.182,3.151c-.808.8-1.594,1.618-2.4,2.418-1.625,1.611-3.211,3.262-4.887,4.823-.962.9-1.851,1.868-2.779,2.8a.332.332,0,0,0-.108.255,1.529,1.529,0,0,1-.509.055l-5.549,0M14.286,13.214a5.87,5.87,0,0,0-4.117,1.593A6.3,6.3,0,0,0,8.29,20.351a8.487,8.487,0,0,0,1.727,3.007,5.949,5.949,0,1,0,4.269-10.145m23.192,0v-.007q-2.944,0-5.888,0c-1.693,0-3.386,0-5.078.018-.617.008-1.138.179-1.152,1.057-.013.819,0,1.638.006,2.457a.884.884,0,0,0,.1.4,1.28,1.28,0,0,0,1.31.625q10.69.016,21.38,0A1.124,1.124,0,0,0,49.44,16.5c-.006-.7,0-1.394-.021-2.091a1.088,1.088,0,0,0-1.232-1.2H37.478" transform="translate(0 -0.001)" fill="#dee4f0"/>
            <path id="Path_612652" data-name="Path 612652" d="M105.649,36.279a.745.745,0,0,0,.46-.271l7.054-7.026c.6-.594,1.191-1.19,1.792-1.779a1.193,1.193,0,0,1,1.8.094c.725.783,1.5,1.523,2.251,2.279.645.646,1.3,1.287,1.938,1.935a.969.969,0,0,1,.027,1.316c-.853.86-1.718,1.708-2.578,2.56a.475.475,0,0,0-.066-.166c-.466-.47-.921-.951-1.408-1.4a2.224,2.224,0,0,0-3.223.165c-1.124,1.209-2.329,2.344-3.5,3.51-2.454,2.442-4.9,4.895-7.389,7.3-1.042,1.006-2.055,2.043-3.081,3.066-.894.891-1.79,1.779-2.68,2.674a7.207,7.207,0,0,1-.725.772,3.415,3.415,0,0,0-1.038,1.623.651.651,0,0,0,.043.429,5.919,5.919,0,0,0,2.238,2.733c-.289.314-.565.64-.869.939-2.145,2.12-4.221,4.312-6.465,6.333a.806.806,0,0,0-.341.5,1.352,1.352,0,0,0-.412.3c-.449.43-.873.884-1.343,1.3a1.437,1.437,0,0,0-.6.833,1.883,1.883,0,0,0-.591.424c-.606.62-1.2,1.249-1.823,1.853-.8.782-1.629,1.543-2.442,2.316-.1.1-.239.183-.225.357a3.384,3.384,0,0,0-.658.626c-.093.014-.208-.034-.276.057a21.333,21.333,0,0,1-1.971,2.139c-2.247,2.265-4.513,4.513-6.772,6.766-.11.109-.2.258-.394.224a.577.577,0,0,1-.5-.235q-2.485-2.481-4.974-4.957c-.152-.152-.366-.253-.435-.482-.009-.139.084-.221.169-.311.262-.274.555-.516.826-.779,2.6-2.527,5.1-5.159,7.756-7.627.109-.1.221-.2.175-.375a.842.842,0,0,0,.46-.282c.422-.4.839-.812,1.273-1.2a2.543,2.543,0,0,0,.837-.935,4.7,4.7,0,0,0,.793-.805c1.7-1.638,3.3-3.365,5.029-4.973,1.01-.941,1.962-1.944,2.941-2.919l5.338-5.316q5.141-5.122,10.286-10.242a17.148,17.148,0,0,1,1.8-1.721,15.661,15.661,0,0,0,1.332-1.262.46.46,0,0,0,.171-.35" transform="translate(-46.88 -18.93)" fill="#b4997f"/>
            <path id="Path_612653" data-name="Path 612653" d="M149.76,208.737a16.518,16.518,0,0,1-1.511,1.563q-.98.963-1.955,1.933-3.429,3.4-6.844,6.814-4.828,4.81-9.66,9.615c-.162.161-.275.421-.573.4a1.829,1.829,0,0,0,.074-.616c-.019-.978-.051-1.957-.056-2.934-.026-5.053-.013-10.106-.029-15.158a1.726,1.726,0,0,1,1.289-1.47,7.3,7.3,0,0,1,1.477-.078c2,0,4-.04,6-.047q5.6-.02,11.192-.011c.2,0,.4-.115.6-.008" transform="translate(-91.14 -147.206)" fill="#b0c0d2"/>
            <path id="Path_612654" data-name="Path 612654" d="M192.518,58.254a.419.419,0,0,0,.207.462c.258.157.421.426.683.586.121.074.075.854-.036,1.044a3.126,3.126,0,0,1-.532.635c-.969.958-1.893,1.963-2.883,2.9a12.225,12.225,0,0,1-1.262,1.168,3.791,3.791,0,0,0-.413.46c-.525.529-1.075,1.032-1.611,1.55-1.273,1.229-2.515,2.491-3.766,3.743-.629.631-1.249,1.271-1.874,1.906-.1.087-.209.169-.3.263q-1.94,1.932-3.877,3.866a1.1,1.1,0,0,1-1.518.006,3.948,3.948,0,0,0-.752-.691,4.2,4.2,0,0,0-.712-.683,1.02,1.02,0,0,1,0-1.676Q179.432,68.25,185,62.71q2.013-2,4.027-4a12.133,12.133,0,0,1,1.29-1.2.8.8,0,0,1,1.109-.026,7.6,7.6,0,0,1,.874.782l.022.024.033,0,.163-.032" transform="translate(-122.334 -40.399)" fill="#e1d6cb"/>
            <path id="Path_612655" data-name="Path 612655" d="M144.794,203.558c-.2-.107-.4.008-.6.008q-5.6-.007-11.192.011c-2,.007-4,.05-6,.047a7.3,7.3,0,0,0-1.477.078,1.726,1.726,0,0,0-1.289,1.47c.016,5.053,0,10.105.029,15.158.005.977.036,1.956.056,2.934a1.829,1.829,0,0,1-.074.616c-.083.135-.219.085-.333.086-.576,0-1.151,0-1.727,0q-.006-8.241-.011-16.481c0-.783.032-1.568-.008-2.349a3.3,3.3,0,0,1,1.057-2.519,3.6,3.6,0,0,1,2.5-1.115c2.291-.151,4.586-.007,6.878-.081,4.085-.132,8.17-.029,12.254-.057,0,.63.005,1.261,0,1.892,0,.105.027.222-.074.3" transform="translate(-86.174 -142.027)" fill="#a1b4c8"/>
            <path id="Path_612656" data-name="Path 612656" d="M126.648,52.359a.46.46,0,0,1-.171.35,15.661,15.661,0,0,1-1.332,1.262,17.146,17.146,0,0,0-1.8,1.721q-5.154,5.11-10.286,10.242l-5.338,5.316c-.979.975-1.931,1.977-2.941,2.919-1.726,1.609-3.333,3.335-5.029,4.973a4.7,4.7,0,0,1-.793.805c-.474,0-.949.009-1.422-.006a4.971,4.971,0,0,1-1.3-.054.333.333,0,0,1,.109-.255c.928-.931,1.817-1.9,2.778-2.8,1.676-1.561,3.262-3.212,4.887-4.823.806-.8,1.593-1.621,2.4-2.417q1.594-1.572,3.182-3.151,8.323-8.275,16.63-16.565c.1-.1.176-.245.35-.241,0,.608.01,1.216.005,1.824a3.949,3.949,0,0,0,.075.9" transform="translate(-67.88 -35.011)" fill="#aec2c2"/>
            <path id="Path_612657" data-name="Path 612657" d="M186.009,52.041l-.163.032a.049.049,0,0,0-.055-.021,7.6,7.6,0,0,0-.874-.782.8.8,0,0,0-1.109.026,12.131,12.131,0,0,0-1.29,1.2q-2.021,1.993-4.027,4-5.567,5.541-11.133,11.082a1.02,1.02,0,0,0,0,1.676,4.2,4.2,0,0,1,.712.683l-1.566,1.412a5.921,5.921,0,0,1-2.238-2.733.649.649,0,0,1-.043-.429,3.417,3.417,0,0,1,1.038-1.623,7.176,7.176,0,0,0,.725-.772c.89-.9,1.786-1.783,2.68-2.675,1.026-1.023,2.038-2.06,3.08-3.066,2.491-2.4,4.935-4.857,7.389-7.3,1.171-1.166,2.376-2.3,3.5-3.51a2.224,2.224,0,0,1,3.223-.165c.486.448.942.928,1.408,1.4a.476.476,0,0,1,.066.166l-1.326,1.4" transform="translate(-115.825 -34.186)" fill="#8f7357"/>
            <path id="Path_612658" data-name="Path 612658" d="M153.653,114.519l1.565-1.412a3.937,3.937,0,0,1,.752.691,1.1,1.1,0,0,0,1.518-.005q1.941-1.93,3.877-3.866c.095-.094.2-.175.3-.262q-.012,1.533-.023,3.066a3.173,3.173,0,0,0-.8.744,28.051,28.051,0,0,1-3.005,2.9,1.98,1.98,0,0,1-2.3,0c-.4-.308-.4-.307-.769.056q-2.628,2.618-5.255,5.236a2.449,2.449,0,0,0-.513.6l-3.025.021a.807.807,0,0,1,.341-.5c2.244-2.021,4.319-4.213,6.465-6.333.3-.3.58-.625.869-.939" transform="translate(-102.97 -77.355)" fill="#aec2c2"/>
            <path id="Path_612659" data-name="Path 612659" d="M34.043,44.845A5.942,5.942,0,1,1,29.774,54.99a8.486,8.486,0,0,1-1.727-3.007,6.3,6.3,0,0,1,1.879-5.544,5.871,5.871,0,0,1,4.117-1.593" transform="translate(-19.756 -31.633)" fill="#9d7d34"/>
            <path id="Path_612660" data-name="Path 612660" d="M98.181,44.832H108.89a1.088,1.088,0,0,1,1.232,1.2c.016.7.014,1.394.021,2.091a1.124,1.124,0,0,1-1.281,1.261q-10.69.021-21.38,0a1.28,1.28,0,0,1-1.31-.625.884.884,0,0,1-.1-.4c-.006-.819-.02-1.638-.006-2.457.014-.877.536-1.049,1.152-1.057,1.692-.023,3.386-.017,5.078-.018q2.944,0,5.888,0Z" transform="translate(-60.703 -31.618)" fill="#9d7d34"/>
            <path id="Path_612661" data-name="Path 612661" d="M38.776,191.6c.069.228.283.329.435.482q2.483,2.482,4.974,4.957a.576.576,0,0,0,.5.235.536.536,0,0,1-.048.136c-.262.372-.665.6-.955.948a3.21,3.21,0,0,1-1.222.857c-.953.416-1.9.852-2.85,1.27-1.032.452-2.066.9-3.106,1.329-.181.075-.161.179-.161.312a1.252,1.252,0,0,1-1.262,1.4c-.611.072-1.226,0-1.835.086l-.513-.044a.394.394,0,0,0-.423-.013H29.64a.128.128,0,0,0-.2,0c-.355-.014-.711-.009-1.064-.045a1.259,1.259,0,0,1-1.167-1.277,1.219,1.219,0,0,1,1.2-1.153c.954-.082,1.911-.038,2.866-.039.171,0,.342-.014.513-.022a.758.758,0,0,0,.464.052,6.323,6.323,0,0,1,1.453.021c.09.1.124.038.15-.05a8.65,8.65,0,0,1,.26-.872c.946-2.1,1.9-4.206,2.813-6.324a5.847,5.847,0,0,1,1.848-2.243" transform="translate(-19.194 -135.15)" fill="#98785a"/>
            <path id="Path_612662" data-name="Path 612662" d="M38.453,135.565q4.988,0,9.976,0a1.218,1.218,0,0,1,1.308,1.332,1.135,1.135,0,0,1-1.036,1.087c-.293.019-.589.014-.883.014l-19.1-.012a1.529,1.529,0,0,1-1.043-.268,1.2,1.2,0,0,1-.428-1.308,1.3,1.3,0,0,1,1.161-.851q5.025,0,10.049,0Z" transform="translate(-19.176 -95.621)" fill="#615842"/>
            <path id="Path_612663" data-name="Path 612663" d="M47.709,195.2c.608-.088,1.223-.014,1.835-.086a1.252,1.252,0,0,0,1.262-1.4c0-.133-.02-.237.161-.312,1.041-.43,2.075-.877,3.106-1.329.953-.417,1.9-.854,2.85-1.27a3.212,3.212,0,0,0,1.222-.857c.289-.347.693-.576.955-.948a.536.536,0,0,0,.048-.136c.193.034.284-.115.394-.224,2.26-2.253,4.525-4.5,6.773-6.766a21.269,21.269,0,0,0,1.971-2.139c.068-.091.183-.042.276-.056-.2,1.047-.014,1.384.955,1.77.026.17-.085.269-.19.374L59.2,191.915a5.149,5.149,0,0,1-1.639.954c-1.98.879-3.965,1.746-5.938,2.64a4.11,4.11,0,0,1-3.27.2,1.006,1.006,0,0,1-.638-.509" transform="translate(-33.653 -126.741)" fill="#aec2c2"/>
            <path id="Path_612664" data-name="Path 612664" d="M49.712,169.83a5.847,5.847,0,0,0-1.848,2.243c-.913,2.118-1.868,4.22-2.813,6.324a8.668,8.668,0,0,0-.26.871l-.15.05a6.325,6.325,0,0,0-1.453-.021.759.759,0,0,1-.464-.052,4.729,4.729,0,0,1,.592-2.275c.858-1.956,1.776-3.885,2.612-5.851a5.031,5.031,0,0,1,1.144-1.684c.759-.729,1.486-1.492,2.24-2.226.624-.608,1.311-1.157,1.892-1.8.917-1.018,1.979-1.885,2.9-2.9.392-.432.818-.835,1.24-1.238a.533.533,0,0,0,.193-.519l3.1-.014c.046.173-.066.274-.175.375-2.659,2.469-5.156,5.1-7.756,7.627-.271.263-.564.506-.826.78-.085.089-.178.171-.169.311" transform="translate(-30.131 -113.38)" fill="#aec2c2"/>
            <path id="Path_612665" data-name="Path 612665" d="M119.275,179.741c-.969-.386-1.15-.722-.955-1.77a3.392,3.392,0,0,1,.658-.626c.925-.042,1.85-.12,2.777-.072a.816.816,0,0,0,.465-.016c3.764.056,7.529.023,11.293.027a1.437,1.437,0,0,1,1.171.3,1.355,1.355,0,0,1,.315,1.328,1.021,1.021,0,0,1-.938.756,15.838,15.838,0,0,1-2.021.049c-3.961,0-7.922-.011-11.884-.016-.294,0-.588.023-.882.035" transform="translate(-83.411 -125.034)" fill="#615842"/>
            <path id="Path_612666" data-name="Path 612666" d="M93.98,71.787q3.459,0,6.917,0a2.393,2.393,0,0,1,.619.067,1.168,1.168,0,0,1,.051,2.244,2.679,2.679,0,0,1-.714.112q-6.788-.013-13.576-.016a5.848,5.848,0,0,1-.8-.064,1.18,1.18,0,0,1-.99-1,1.042,1.042,0,0,1,.432-1.085,1.557,1.557,0,0,1,1-.25c2.355-.009,4.709,0,7.064,0" transform="translate(-60.277 -50.636)" fill="#615842"/>
            <path id="Path_612667" data-name="Path 612667" d="M33.327,118.638H38.04a1.394,1.394,0,0,1,.844.2A1.166,1.166,0,0,1,39.436,120a1.185,1.185,0,0,1-.857.965,1.961,1.961,0,0,1-.644.1q-4.768-.011-9.535-.012a1.281,1.281,0,0,1-1.185-1.1,1.182,1.182,0,0,1,.96-1.283,2.918,2.918,0,0,1,.513-.029q2.32,0,4.639,0" transform="translate(-19.194 -83.684)" fill="#615842"/>
            <path id="Path_612668" data-name="Path 612668" d="M32.816,250.04c1.509,0,3.018-.014,4.527.007a1.21,1.21,0,0,1,1.164,1.14,1.3,1.3,0,0,1-1.1,1.238,9.047,9.047,0,0,1-1.717.05q-2.724.013-5.448,0c-.662,0-1.324-.022-1.986-.046A1.286,1.286,0,0,1,27,251.2a1.212,1.212,0,0,1,1.247-1.178c1.521-.014,3.043,0,4.565,0v.027" transform="translate(-19.048 -176.351)" fill="#615842"/>
            <path id="Path_612669" data-name="Path 612669" d="M140.329,152.467l3.025-.021c1.445.008,2.891.013,4.336.025a1.2,1.2,0,0,1,1.276,1.29,1.072,1.072,0,0,1-1.2,1.128c-2.07.012-4.141.011-6.211.015a4.787,4.787,0,0,0-.916.035c-.888-.1-1.779-.009-2.667-.045a1.436,1.436,0,0,1,.6-.833c.47-.411.894-.866,1.343-1.3a1.352,1.352,0,0,1,.412-.3" transform="translate(-97.32 -107.532)" fill="#615842"/>
            <path id="Path_612670" data-name="Path 612670" d="M31.941,154.94h-3.5a1.214,1.214,0,0,1-1.136-1.771,1.126,1.126,0,0,1,1.073-.639c2.381-.009,4.761-.014,7.142,0a1.221,1.221,0,0,1,1.165.937,1.179,1.179,0,0,1-.539,1.321,1.721,1.721,0,0,1-.821.161H31.941v-.01" transform="translate(-19.175 -107.585)" fill="#615842"/>
            <path id="Path_612671" data-name="Path 612671" d="M78,154.8l-3.1.014c-1.016,0-2.033,0-3.049-.006a4.385,4.385,0,0,1-.659-.039,1.074,1.074,0,0,1-1.006-.908,1.193,1.193,0,0,1,.743-1.358,2.007,2.007,0,0,1,.863-.127l5.549,0a1.529,1.529,0,0,0,.509-.055,4.968,4.968,0,0,0,1.3.054c.474.016.948.005,1.423.006a2.541,2.541,0,0,1-.837.935c-.434.392-.852.8-1.273,1.2a.843.843,0,0,1-.46.282" transform="translate(-49.493 -107.44)" fill="#615842"/>
            <path id="Path_612672" data-name="Path 612672" d="M125.8,160.75c.889.037,1.78-.051,2.667.045-.016.192-.169.29-.288.408q-1.952,1.948-3.907,3.892a.786.786,0,0,0-.312.517.815.815,0,0,1-.465.016c-.928-.048-1.852.029-2.777.072-.014-.174.123-.26.225-.357.813-.773,1.638-1.534,2.442-2.316.621-.6,1.218-1.233,1.823-1.853a1.884,1.884,0,0,1,.591-.424" transform="translate(-85.152 -113.388)" fill="#aec2c2"/>
            <path id="Path_612673" data-name="Path 612673" d="M44.531,232.038a.4.4,0,0,1,.423.014.268.268,0,0,1-.423-.014" transform="translate(-31.411 -163.636)" fill="#4e7693"/>
            <path id="Path_612674" data-name="Path 612674" d="M34.785,232.052a.128.128,0,0,1,.2,0c-.069.141-.135.142-.2,0" transform="translate(-24.537 -163.653)" fill="#4e7693"/>
            <path id="Path_612675" data-name="Path 612675" d="M237.478,60.637a.05.05,0,0,1,.055.021l-.033,0Z" transform="translate(-167.512 -42.771)" fill="#f7f6f7"/>
            <path id="Path_612676" data-name="Path 612676" d="M49.251,223.683l.15-.05c-.026.088-.06.153-.15.05" transform="translate(-34.741 -157.746)" fill="#4e7693"/>
          </g>
        </g>
      </g>
    </g>
  </g>
</svg>
