<svg xmlns="http://www.w3.org/2000/svg" xmlns:xlink="http://www.w3.org/1999/xlink" width="125" height="125" viewBox="0 0 125 125">
  <defs>
    <clipPath id="clip-path">
      <rect id="Rectangle_378638" data-name="Rectangle 378638" width="91" height="91" transform="translate(404 1176.978)" fill="#615842" stroke="#707070" stroke-width="1"/>
    </clipPath>
    <clipPath id="clip-path-2">
      <rect id="Rectangle_378954" data-name="Rectangle 378954" width="86" height="85.691" fill="#615842"/>
    </clipPath>
  </defs>
  <g id="Group_1074737" data-name="Group 1074737" transform="translate(-15767 9706.834)">
    <g id="Group_1074204" data-name="Group 1074204" transform="translate(15381 -11852.834)">
      <path id="Path_608385" data-name="Path 608385" d="M62.5,0A62.5,62.5,0,1,1,0,62.5,62.5,62.5,0,0,1,62.5,0Z" transform="translate(386 2146)" fill="#fff"/>
    </g>
    <g id="Mask_Group_154386" data-name="Mask Group 154386" transform="translate(15380 -10865.978)" clip-path="url(#clip-path)">
      <g id="Group_1074674" data-name="Group 1074674" transform="translate(407 1179.978)">
        <g id="Group_1074673" data-name="Group 1074673" clip-path="url(#clip-path-2)">
          <path id="Path_613246" data-name="Path 613246" d="M67.681,79.26a7,7,0,0,1-6.716,6.421,7.151,7.151,0,0,1-7.39-6.421H53.1c-6.926,0-13.853-.016-20.779.015a2.224,2.224,0,0,1-2.381-2.242,4.547,4.547,0,0,0-3.821-4.277,4.6,4.6,0,0,0-5.151,3.177,9.467,9.467,0,0,0-.168,1.328,2.147,2.147,0,0,1-2.337,2c-.358,0-.717.01-1.075,0a1.325,1.325,0,0,1-1.208-1.679,1.23,1.23,0,0,1,1.2-.845c.305-.011.69.09.892-.058.166-.122.1-.541.164-.824a7.086,7.086,0,0,1,13.943.539c.034.258.114.344.378.343,2.855-.009,5.71-.013,8.565,0,.355,0,.417-.114.416-.435-.007-2.227.006-4.455.01-6.682a.829.829,0,0,0-.026-.148c-.8-.092-1.586-.159-2.367-.275a26.5,26.5,0,0,1-16.146-8.541A26.147,26.147,0,0,1,17.158,49.51a32.663,32.663,0,0,1-.82-5.063c-.022-.219-.048-.349-.326-.347-2.176.014-4.353.011-6.529.015-.138,0-.276.012-.464.021v.744q0,4.609-.006,9.218A4.977,4.977,0,0,1,9,54.6a1.346,1.346,0,0,1-1.419,1.311,7.805,7.805,0,0,0-1.711.136,4.492,4.492,0,0,0-3.355,3.706,4.66,4.66,0,0,0,2.513,4.828,4.838,4.838,0,0,0,2.084.43c1.53.007,1.915.411,1.909,1.955q-.014,4.263-.014,8.527a1.091,1.091,0,0,0,1.215,1.25c.37.013.742-.01,1.113-.007a1.25,1.25,0,0,1,1.335,1.11,1.32,1.32,0,0,1-1.126,1.388,4.905,4.905,0,0,1-3.263-.565,3.858,3.858,0,0,1-1.843-3.427c-.024-2.483.009-4.967.037-7.45,0-.317-.187-.312-.383-.348a7.241,7.241,0,0,1-3.843-1.862A6.992,6.992,0,0,1,4.508,53.913c.6-.24,1.242-.367,1.919-.562v-.725q0-10.083,0-20.166A4.124,4.124,0,0,1,6.55,31.4,2.006,2.006,0,0,1,8.6,29.864a4.475,4.475,0,0,0,3.854-2.348,4.6,4.6,0,0,0-2.81-6.658,5.466,5.466,0,0,0-1.025-.13A2.159,2.159,0,0,1,6.432,18.48c-.016-2.676-.027-5.352,0-8.028A3.893,3.893,0,0,1,9.7,6.482a3.429,3.429,0,0,1,.649-.049q3.745,0,7.49,0h.447A6.962,6.962,0,0,1,21.128,1.4,6.731,6.731,0,0,1,25.274,0a6.889,6.889,0,0,1,4.791,1.851,7.261,7.261,0,0,1,2.315,4.58H53.719A2.09,2.09,0,0,1,56,8.376a6.534,6.534,0,0,0,.433,1.97A4.611,4.611,0,0,0,63.917,11.6a3.88,3.88,0,0,0,1.217-2.652,3.871,3.871,0,0,1,.274-1.264,1.98,1.98,0,0,1,1.865-1.245c.459-.027.922-.018,1.382,0a1.381,1.381,0,0,1,1.266,1,1.126,1.126,0,0,1-.578,1.334,3.859,3.859,0,0,1-1.117.181,2.811,2.811,0,0,1-.493-.026,15.766,15.766,0,0,1-.447,1.762,6.839,6.839,0,0,1-5.649,4.651A7.048,7.048,0,0,1,53.587,9.22c-.029-.223-.11-.293-.342-.293q-4.3,0-8.6-.015c-.243,0-.415.01-.413.337.014,2.292.013,4.583.018,6.875a.537.537,0,0,0,.032.107c.578.059,1.172.107,1.762.182a26.6,26.6,0,0,1,16.465,8.322,26.166,26.166,0,0,1,6.117,10.69,27.055,27.055,0,0,1,1.019,5.8c.02.293.1.4.407.394q3.264-.024,6.529-.012c.307,0,.389-.088.388-.391-.007-3.15,0-6.3,0-9.449,0-.09,0-.179.006-.269.047-1.3.514-1.747,1.81-1.7a4.349,4.349,0,0,0,3.727-1.705,4.558,4.558,0,0,0-2.6-7.323,6.123,6.123,0,0,0-1.336-.078,1.375,1.375,0,0,1-1.612-1.536c0-2.958-.022-5.916.015-8.873a1.2,1.2,0,0,0-1.357-1.356c-.294.012-.589.012-.883.013A1.251,1.251,0,0,1,73.411,7.82a1.266,1.266,0,0,1,1.057-1.354,4.615,4.615,0,0,1,3.632.841,3.455,3.455,0,0,1,1.377,2.68c.048,2.6.035,5.2.019,7.794,0,.345.109.432.414.479a7.02,7.02,0,0,1,1.7,13.459,11.555,11.555,0,0,1-1.768.474c-.254.055-.325.142-.325.4q.012,10.6.005,21.2a1.944,1.944,0,0,1-2.031,2.036A4.517,4.517,0,0,0,72.968,60.2a4.465,4.465,0,0,0,4.148,4.742,2.2,2.2,0,0,1,2.258,1.388,1.4,1.4,0,0,1,.112.481c.008,2.995.094,5.993-.019,8.984a3.654,3.654,0,0,1-3.744,3.453c-2.534.055-5.069.013-7.6.013h-.436M41.742,16.216c.006-.063.015-.113.015-.163-.007-2.279-.02-4.557-.017-6.836,0-.26-.122-.256-.306-.256-2.368-.013-4.736-.036-7.1-.044-1.011,0-2.023.029-3.033.029a1.271,1.271,0,0,1-1.371-1.209,4.669,4.669,0,0,1-.035-.727,4.263,4.263,0,0,0-.489-2.1,4.7,4.7,0,0,0-4.787-2.4A4.512,4.512,0,0,0,20.826,6.23c-.072.467-.076.943-.114,1.415a1.235,1.235,0,0,1-1.421,1.3q-3.533-.018-7.066-.026c-.653,0-1.307-.02-1.958.019C9.361,8.99,9.006,9.376,9,10.273c-.01,2.56-.009,5.121-.017,7.681,0,.2.058.294.273.326a8.221,8.221,0,0,1,1.009.224,7.038,7.038,0,0,1,5,8.579,6.616,6.616,0,0,1-2.493,3.731,6.636,6.636,0,0,1-3.749,1.457V41.6a1.749,1.749,0,0,0,.185.021c2.228,0,4.455-.015,6.683,0,.345,0,.423-.117.444-.437a26.342,26.342,0,0,1,1.023-5.8,24.2,24.2,0,0,1,2.683-6.085c.647-1.025,1.355-2.017,2.1-2.973a1.1,1.1,0,0,1,1.613-.091,1.077,1.077,0,0,1,.236,1.587c-.106.16-.212.321-.329.473a24.191,24.191,0,0,0-4.878,13.069,22.517,22.517,0,0,0,.681,7.225,23.5,23.5,0,0,0,8.24,12.98,23.294,23.294,0,0,0,12.4,5.213,25.245,25.245,0,0,0,9.83-.794,21.11,21.11,0,0,0,4.591-1.911A24,24,0,0,0,67.194,44.3a21.125,21.125,0,0,0-.144-4.132,21.851,21.851,0,0,0-1.768-6.759A23.872,23.872,0,0,0,47.02,19.051a22.108,22.108,0,0,0-5.7-.266,24.523,24.523,0,0,0-5.492.979,23.355,23.355,0,0,0-7.4,3.789,5.987,5.987,0,0,1-.8.533,1.179,1.179,0,0,1-1.4-.27,1.016,1.016,0,0,1-.116-1.422,4.034,4.034,0,0,1,.8-.763A26.807,26.807,0,0,1,39.119,16.5c.856-.136,1.725-.188,2.623-.282m35.217,27.9h-.5c-2.125,0-4.25.005-6.375-.015-.321,0-.417.08-.44.392a27.5,27.5,0,0,1-.975,5.616,26.306,26.306,0,0,1-6.444,11.146,26.812,26.812,0,0,1-16.013,8.023c-.652.091-1.313.123-1.971.182,0,2.347,0,4.663,0,6.979,0,.218.062.294.281.29.448-.008.9.011,1.344.01q4.417,0,8.832-.009a1.278,1.278,0,0,1,1.371,1.17,4.682,4.682,0,0,1,.041.88,4.092,4.092,0,0,0,.4,1.851,4.686,4.686,0,0,0,4.886,2.55,4.525,4.525,0,0,0,3.765-3.655c.075-.479.077-.969.114-1.454A1.254,1.254,0,0,1,66.7,76.733q4.282,0,8.564.01c1.431,0,1.708-.3,1.7-1.744-.014-2.266,0-4.532.009-6.8,0-.71.022-.709-.691-.873-.137-.032-.271-.076-.407-.108a6.984,6.984,0,0,1-4.841-9.459,6.759,6.759,0,0,1,5.474-4.287c.392-.062.459-.181.456-.536-.017-2.112-.009-4.225-.009-6.337V44.113" transform="translate(0 0)" fill="#615842"/>
          <path id="Path_613247" data-name="Path 613247" d="M105.908,116.266c-.763-.19-1.532-.359-2.287-.58a.664.664,0,0,0-.7.128c-.274.228-.583.415-.872.626a3.042,3.042,0,0,1-2.237.449,1.386,1.386,0,0,1-.6-.231.889.889,0,0,0-1.065-.025,2.469,2.469,0,0,1-2.382.054,8.218,8.218,0,0,1-1.412-.913.567.567,0,0,0-.623-.1,6.589,6.589,0,0,1-8.324-3.167c-.26-.519-.386-1.1-.605-1.645a.659.659,0,0,0-.357-.32,4.806,4.806,0,0,1-3.058-2.923,4.506,4.506,0,0,1,.372-4.084.536.536,0,0,0-.07-.456,6.792,6.792,0,0,1-1.173-3.086,6.5,6.5,0,0,1,1.152-4.541.5.5,0,0,0,.01-.661,4.342,4.342,0,0,1-.514-1.349,4.739,4.739,0,0,1,2.809-5.292,1.452,1.452,0,0,0,.976-1.022,6.61,6.61,0,0,1,6.906-4.775,7.791,7.791,0,0,1,1.779.429.709.709,0,0,0,.8-.135,10.791,10.791,0,0,1,.906-.641,3.067,3.067,0,0,1,2.208-.416,1.378,1.378,0,0,1,.593.247.885.885,0,0,0,1.031.006,2.545,2.545,0,0,1,2.424-.033,8.209,8.209,0,0,1,1.347.874.6.6,0,0,0,.664.111,6.624,6.624,0,0,1,8.828,4.5.965.965,0,0,0,.667.745,4.661,4.661,0,0,1,3.006,3.385,4.279,4.279,0,0,1-.547,3.494c-.152.229-.024.347.08.5a6.546,6.546,0,0,1,1.218,4.078,6.893,6.893,0,0,1-1.245,3.617.482.482,0,0,0-.048.426,4.186,4.186,0,0,1,.632,3.01,4.751,4.751,0,0,1-3.37,3.994.419.419,0,0,0-.318.361,6.745,6.745,0,0,1-5.434,5.149c-.378.06-.76.085-1.141.127-.011.026-.021.052-.031.079m-6-17.036h.007q0,6.931,0,13.862a8.871,8.871,0,0,0,.022.919c.04.388.223.514.6.426a1.04,1.04,0,0,0,.44-.219c.354-.311.7-.635,1.029-.973a1.263,1.263,0,0,1,1.6-.31c.185.086.365.185.543.284a4.314,4.314,0,0,0,4.745-.659,4.517,4.517,0,0,0,1.278-2.794c.137-1.125.357-1.306,1.455-1.465a2.342,2.342,0,0,0,1.813-1.142,2.462,2.462,0,0,0-.321-2.852c-.756-.843-.747-1.269.043-2.1l.052-.056a4.118,4.118,0,0,0-.068-5.894c-.762-.782-.756-1.252-.056-2.08a2.363,2.363,0,0,0-1.532-4.01c-.959-.1-1.227-.4-1.38-1.339a7.635,7.635,0,0,0-.279-1.385,4.157,4.157,0,0,0-5.951-2.088c-1.008.551-1.358.474-2.139-.351a5.124,5.124,0,0,0-1.053-.879c-.49-.3-.8-.094-.842.47-.01.14-.005.281-.005.422V99.23m-2.5.052q0-3.341,0-6.682c0-2.611,0-5.222-.017-7.834,0-.221-.094-.6-.215-.628a1.049,1.049,0,0,0-.772.138,6.381,6.381,0,0,0-.984.9,1.343,1.343,0,0,1-1.828.3,4.474,4.474,0,0,0-2.478-.639,3.931,3.931,0,0,0-2.723,1.135,4.253,4.253,0,0,0-1.245,2.808c-.129,1.045-.377,1.255-1.438,1.4A2.223,2.223,0,0,0,83.7,91.73a2.374,2.374,0,0,0,.517,2.463c.763.8.738,1.268-.032,2.063a4.125,4.125,0,0,0,.006,5.977c.754.773.8,1.273.039,2.032a2.517,2.517,0,0,0,0,3.339,2.825,2.825,0,0,0,1.575.709c.964.156,1.195.4,1.352,1.366a6.789,6.789,0,0,0,.322,1.491,4.174,4.174,0,0,0,5.963,1.912,1.383,1.383,0,0,1,2.056.337,7.4,7.4,0,0,0,.742.719c.257.22.561.426.906.255s.258-.529.259-.827q.006-7.142,0-14.285" transform="translate(-55.673 -56.395)" fill="#615842"/>
          <path id="Path_613248" data-name="Path 613248" d="M154.538,104.922a4.03,4.03,0,0,1,3.675,2.84,5.9,5.9,0,0,1,.194.819,1.271,1.271,0,0,1-1.1,1.523,1.319,1.319,0,0,1-1.4-1.136,2.934,2.934,0,0,0-.264-.935,1.611,1.611,0,0,0-1.312-.678,1.1,1.1,0,0,1-1.082-1.264,1.289,1.289,0,0,1,1.288-1.17" transform="translate(-106.013 -72.584)" fill="#615842"/>
          <path id="Path_613249" data-name="Path 613249" d="M153.243,160.18a1.049,1.049,0,0,1,.929-1.125c.162-.032.327-.054.488-.094a1.4,1.4,0,0,0,1.251-1.459,1.243,1.243,0,0,1,1.383-1.218,1.268,1.268,0,0,1,1.1,1.481,4.061,4.061,0,0,1-3.785,3.683,1.264,1.264,0,0,1-1.368-1.269" transform="translate(-106.011 -108.109)" fill="#615842"/>
          <path id="Path_613250" data-name="Path 613250" d="M156.458,132.092a4.036,4.036,0,0,1-1.1,2.579,1.171,1.171,0,0,1-1.768.073,1.223,1.223,0,0,1-.052-1.721,1.4,1.4,0,0,0,.013-2.092,1.243,1.243,0,0,1,.405-1.993,1.222,1.222,0,0,1,1.472.393,4.362,4.362,0,0,1,1.033,2.761" transform="translate(-105.987 -89.121)" fill="#615842"/>
          <path id="Path_613251" data-name="Path 613251" d="M109.018,157.644a1.255,1.255,0,0,1,1.214-1.355,1.218,1.218,0,0,1,1.264,1.176,1.531,1.531,0,0,0,1.548,1.568c.76.106,1.084.429,1.129,1.107a1.264,1.264,0,0,1-1.311,1.324,4.075,4.075,0,0,1-3.844-3.82" transform="translate(-75.417 -108.118)" fill="#615842"/>
          <path id="Path_613252" data-name="Path 613252" d="M109.011,108.789a4.03,4.03,0,0,1,3.409-3.745,2.144,2.144,0,0,1,.755-.01,1.223,1.223,0,0,1,.883,1.739,1.529,1.529,0,0,1-.67.56,3.411,3.411,0,0,1-.743.167,1.324,1.324,0,0,0-1.112,1.319,1.264,1.264,0,1,1-2.522-.032" transform="translate(-75.412 -72.641)" fill="#615842"/>
          <path id="Path_613253" data-name="Path 613253" d="M115.272,132.015a4.271,4.271,0,0,1,1.011-2.7,1.178,1.178,0,0,1,1.815-.171,1.2,1.2,0,0,1,.064,1.771,1.461,1.461,0,0,0,0,2.065,1.233,1.233,0,1,1-1.874,1.594,4.022,4.022,0,0,1-.922-1.907c-.044-.238-.068-.479-.092-.649" transform="translate(-79.744 -89.096)" fill="#615842"/>
        </g>
      </g>
    </g>
  </g>
</svg>
