<svg xmlns="http://www.w3.org/2000/svg" xmlns:xlink="http://www.w3.org/1999/xlink" width="139" height="139" viewBox="0 0 139 139">
  <defs>
    <clipPath id="clip-path">
      <rect id="Rectangle_378973" data-name="Rectangle 378973" width="97" height="97" transform="translate(1065 2675)" fill="#615842" stroke="#707070" stroke-width="1"/>
    </clipPath>
    <clipPath id="clip-path-2">
      <rect id="Rectangle_378448" data-name="Rectangle 378448" width="91.214" height="73.44" fill="#5e5a55"/>
    </clipPath>
  </defs>
  <g id="Group_1074718" data-name="Group 1074718" transform="translate(-1046 -2651)">
    <g id="Group_1073923" data-name="Group 1073923">
      <g id="Group_1072365" data-name="Group 1072365" transform="translate(-388.668 -3231)">
        <g id="Group_1072229" data-name="Group 1072229" transform="translate(1434.668 5882)">
          <path id="Path_608385" data-name="Path 608385" d="M69.5,0A69.5,69.5,0,1,1,0,69.5,69.5,69.5,0,0,1,69.5,0Z" transform="translate(0)" fill="#fff"/>
        </g>
      </g>
    </g>
    <g id="Mask_Group_154437" data-name="Mask Group 154437" transform="translate(2 -3)" clip-path="url(#clip-path)">
      <g id="Group_1073922" data-name="Group 1073922" transform="translate(1068 2687)">
        <g id="Group_1073921" data-name="Group 1073921" clip-path="url(#clip-path-2)">
          <path id="Path_611728" data-name="Path 611728" d="M54.247,44.031c.231.012.4.028.574.028,8.4,0,16.795-.016,25.192,0a16.8,16.8,0,0,1,3.329.3,6.989,6.989,0,0,1,5.414,5.687,15.3,15.3,0,0,1,.2,2.383c.019,4.27.012,8.541.007,12.811a9.122,9.122,0,0,1-.677,3.937,6.886,6.886,0,0,1-6,4.271c-.971.075-1.948.1-2.922.1q-12.356.01-24.712,0a23.48,23.48,0,0,1-2.73-.131,7.018,7.018,0,0,1-5.927-5.786c-.2-1.578-.143-3.188-.195-4.784-.014-.428,0-.857,0-1.3H44.8q-19.338,0-38.676,0A5.3,5.3,0,0,1,.94,58.216,5.148,5.148,0,0,1,.586,56.5C.513,55.558.5,54.612.5,53.669Q.495,43.976.5,34.284c0-.847.055-1.694.064-2.542A4.994,4.994,0,0,1,2.1,28.183a1.207,1.207,0,0,0,.352-.939q0-3.55.045-7.1a5.1,5.1,0,0,1,4.049-4.637,1.442,1.442,0,0,1,.334-.026c3.855,0,7.709-.01,11.564.007a1.3,1.3,0,0,1,.757.3c1.978,1.647,3.937,3.318,5.912,4.97a.94.94,0,0,0,.555.206q6.31.006,12.62-.015c.142,0,.284-.013.479-.023.008-.182.023-.35.023-.518q0-4.918,0-9.836a13.8,13.8,0,0,1,.471-4.129A8.265,8.265,0,0,1,42.9,1.788,9,9,0,0,1,47.8.513C59.379.5,70.96.487,82.54.521A8.275,8.275,0,0,1,90.632,5.69a7.437,7.437,0,0,1,.635,2.872c.06,5.5.1,11,.008,16.5a8.3,8.3,0,0,1-7.308,7.892,13.093,13.093,0,0,1-1.578.1c-7.421.006-14.842.021-22.263-.017a5.06,5.06,0,0,0-2.72.68c-.934.552-1.916,1.022-2.861,1.557a.662.662,0,0,0-.286.481c-.018,2.731-.013,5.463-.013,8.274M46.014,32.939c-.324-.063-.557-.093-.782-.154A8.28,8.28,0,0,1,40,28.8a1.05,1.05,0,0,0-1.062-.629q-15.379.031-30.759.009c-.943,0-1.888,0-2.827.071a3.572,3.572,0,0,0-3.18,3.5q.014,10.436.02,20.872c0,1.088.055,2.181-.036,3.261a3.84,3.84,0,0,0,3.977,4.128q19.809.006,39.657,0c0-.164,0-.32,0-.476.022-2.91-.04-5.824.09-8.729A7.028,7.028,0,0,1,51.7,44.264c.307-.059.612-.127.854-.178V36.423c-.288.116-.5.181-.694.284-1.479.79-2.953,1.591-4.431,2.382-1.38.738-2.765,1.467-4.146,2.2a.735.735,0,0,1-.921-.139.687.687,0,0,1-.153-.872c.172-.36.339-.723.524-1.076,1.078-2.065,2.16-4.128,3.279-6.267M67.341,45.8v0c-4.83,0-9.661.023-14.49-.015a5.083,5.083,0,0,0-3.312,1.147,4.792,4.792,0,0,0-2.018,3.709c-.055,5.309,0,10.618-.032,15.928a4.8,4.8,0,0,0,.646,2.463,5.552,5.552,0,0,0,5.242,2.88c9.452-.027,18.9-.011,28.357-.012a4.59,4.59,0,0,0,.907-.033,5.522,5.522,0,0,0,4.608-5.515c.035-4.973.023-9.947.033-14.92a5.443,5.443,0,0,0-.986-3.3,4.862,4.862,0,0,0-3.889-2.319c-5.022-.056-10.044-.02-15.066-.02M44.99,38.451l.091.092c.342-.182.686-.363,1.028-.546,3.758-2.014,7.522-4.017,11.267-6.053a3.876,3.876,0,0,1,1.912-.51q11.514.017,23.028.014a9.081,9.081,0,0,0,2.094-.2A6.726,6.726,0,0,0,89.616,25.9a.764.764,0,0,0-.163-.556,66.155,66.155,0,0,0-6.326-7.262c-.742-.72-1.579-1.342-2.387-1.992a.832.832,0,0,0-.978-.082c-.723.372-1.514.629-2.2,1.061-2.428,1.537-4.827,3.121-7.228,4.7-1.121.738-1.134.728-2.038-.257-1.923-2.1-3.823-4.218-5.83-6.231a41.587,41.587,0,0,0-3.642-3.029,2.183,2.183,0,0,0-2.631-.189c-1.924,1.1-3.891,2.137-5.768,3.315a78.351,78.351,0,0,0-8.908,6.4,2.146,2.146,0,0,0-1,2.158,2.5,2.5,0,0,1-.012.622,6.652,6.652,0,0,0,5.166,6.669c.546.114,1.106.162,1.655.261a.737.737,0,0,1,.642,1.046,2.885,2.885,0,0,1-.22.529c-.845,1.612-1.7,3.221-2.542,4.833a5.672,5.672,0,0,0-.221.551M89.711,23c.011-.216.017-.28.017-.343q-.006-6.812-.02-13.623A6.888,6.888,0,0,0,82.39,2.069q-17.179,0-34.358.008a10.928,10.928,0,0,0-2.326.269,6.582,6.582,0,0,0-5.187,6.172c-.04,3.838-.007,7.677,0,11.515,0,.145.022.29.039.492a2.672,2.672,0,0,0,.235-.148,87.672,87.672,0,0,1,9.825-7.02,33.007,33.007,0,0,1,5.7-3.033,2.6,2.6,0,0,1,2.313.061,24.743,24.743,0,0,1,2.314,1.434,43.687,43.687,0,0,1,5.425,5.141c.993,1.018,1.918,2.1,2.868,3.162.179.2.31.3.6.106,2.038-1.377,4.066-2.772,6.151-4.074a26.22,26.22,0,0,1,3.172-1.567,2.508,2.508,0,0,1,2.63.312,13.206,13.206,0,0,1,1.871,1.489c1.823,1.926,3.591,3.9,5.379,5.864.2.219.4.44.677.75M4.125,26.743a17.75,17.75,0,0,1,1.881-.2q16.163-.013,32.327,0h.691c-.1-1.279-.205-2.515-.31-3.8-.206-.019-.442-.059-.677-.059-4.045-.008-8.09-.025-12.134,0a2.549,2.549,0,0,1-1.781-.656c-1.7-1.459-3.427-2.879-5.108-4.355a2.466,2.466,0,0,0-1.771-.648c-3.037.023-6.075,0-9.113.01a8.914,8.914,0,0,0-1.194.087,3.267,3.267,0,0,0-2.8,2.81c-.048,2.284-.013,4.569-.013,6.809" transform="translate(-0.307 -0.308)" fill="#5e5a55"/>
          <path id="Path_611729" data-name="Path 611729" d="M54.247,44.031c.231.012.4.028.574.028,8.4,0,16.795-.016,25.192,0a16.8,16.8,0,0,1,3.329.3,6.989,6.989,0,0,1,5.414,5.687,15.3,15.3,0,0,1,.2,2.383c.019,4.27.012,8.541.007,12.811a9.122,9.122,0,0,1-.677,3.937,6.886,6.886,0,0,1-6,4.271c-.971.075-1.948.1-2.922.1q-12.356.01-24.712,0a23.48,23.48,0,0,1-2.73-.131,7.018,7.018,0,0,1-5.927-5.786c-.2-1.578-.143-3.188-.195-4.784-.014-.428,0-.857,0-1.3H44.8q-19.338,0-38.676,0A5.3,5.3,0,0,1,.94,58.216,5.148,5.148,0,0,1,.586,56.5C.513,55.558.5,54.612.5,53.669Q.495,43.976.5,34.284c0-.847.055-1.694.064-2.542A4.994,4.994,0,0,1,2.1,28.183a1.207,1.207,0,0,0,.352-.939q0-3.55.045-7.1a5.1,5.1,0,0,1,4.049-4.637,1.442,1.442,0,0,1,.334-.026c3.855,0,7.709-.01,11.564.007a1.3,1.3,0,0,1,.757.3c1.978,1.647,3.937,3.318,5.912,4.97a.94.94,0,0,0,.555.206q6.31.006,12.62-.015c.142,0,.284-.013.479-.023.008-.182.023-.35.023-.518q0-4.918,0-9.836a13.8,13.8,0,0,1,.471-4.129A8.265,8.265,0,0,1,42.9,1.788,9,9,0,0,1,47.8.513C59.379.5,70.96.487,82.54.521A8.275,8.275,0,0,1,90.632,5.69a7.437,7.437,0,0,1,.635,2.872c.06,5.5.1,11,.008,16.5a8.3,8.3,0,0,1-7.308,7.892,13.093,13.093,0,0,1-1.578.1c-7.421.006-14.842.021-22.263-.017a5.06,5.06,0,0,0-2.72.68c-.934.552-1.916,1.022-2.861,1.557a.662.662,0,0,0-.286.481C54.242,38.489,54.247,41.22,54.247,44.031ZM46.014,32.939c-.324-.063-.557-.093-.782-.154A8.28,8.28,0,0,1,40,28.8a1.05,1.05,0,0,0-1.062-.629q-15.379.031-30.759.009c-.943,0-1.888,0-2.827.071a3.572,3.572,0,0,0-3.18,3.5q.014,10.436.02,20.872c0,1.088.055,2.181-.036,3.261a3.84,3.84,0,0,0,3.977,4.128q19.809.006,39.657,0c0-.164,0-.32,0-.476.022-2.91-.04-5.824.09-8.729A7.028,7.028,0,0,1,51.7,44.264c.307-.059.612-.127.854-.178V36.423c-.288.116-.5.181-.694.284-1.479.79-2.953,1.591-4.431,2.382-1.38.738-2.765,1.467-4.146,2.2a.735.735,0,0,1-.921-.139.687.687,0,0,1-.153-.872c.172-.36.339-.723.524-1.076C43.813,37.141,44.895,35.078,46.014,32.939ZM67.341,45.8v0c-4.83,0-9.661.023-14.49-.015a5.083,5.083,0,0,0-3.312,1.147,4.792,4.792,0,0,0-2.018,3.709c-.055,5.309,0,10.618-.032,15.928a4.8,4.8,0,0,0,.646,2.463,5.552,5.552,0,0,0,5.242,2.88c9.452-.027,18.9-.011,28.357-.012a4.59,4.59,0,0,0,.907-.033,5.522,5.522,0,0,0,4.608-5.515c.035-4.973.023-9.947.033-14.92a5.443,5.443,0,0,0-.986-3.3,4.862,4.862,0,0,0-3.889-2.319C77.385,45.769,72.363,45.8,67.341,45.8ZM44.99,38.451l.091.092c.342-.182.686-.363,1.028-.546,3.758-2.014,7.522-4.017,11.267-6.053a3.876,3.876,0,0,1,1.912-.51q11.514.017,23.028.014a9.081,9.081,0,0,0,2.094-.2A6.726,6.726,0,0,0,89.616,25.9a.764.764,0,0,0-.163-.556,66.155,66.155,0,0,0-6.326-7.262c-.742-.72-1.579-1.342-2.387-1.992a.832.832,0,0,0-.978-.082c-.723.372-1.514.629-2.2,1.061-2.428,1.537-4.827,3.121-7.228,4.7-1.121.738-1.134.728-2.038-.257-1.923-2.1-3.823-4.218-5.83-6.231a41.587,41.587,0,0,0-3.642-3.029,2.183,2.183,0,0,0-2.631-.189c-1.924,1.1-3.891,2.137-5.768,3.315a78.351,78.351,0,0,0-8.908,6.4,2.146,2.146,0,0,0-1,2.158,2.5,2.5,0,0,1-.012.622,6.652,6.652,0,0,0,5.166,6.669c.546.114,1.106.162,1.655.261a.737.737,0,0,1,.642,1.046,2.885,2.885,0,0,1-.22.529c-.845,1.612-1.7,3.221-2.542,4.833A5.672,5.672,0,0,0,44.99,38.451ZM89.711,23c.011-.216.017-.28.017-.343q-.006-6.812-.02-13.623A6.888,6.888,0,0,0,82.39,2.069q-17.179,0-34.358.008a10.928,10.928,0,0,0-2.326.269,6.582,6.582,0,0,0-5.187,6.172c-.04,3.838-.007,7.677,0,11.515,0,.145.022.29.039.492a2.672,2.672,0,0,0,.235-.148,87.672,87.672,0,0,1,9.825-7.02,33.007,33.007,0,0,1,5.7-3.033,2.6,2.6,0,0,1,2.313.061,24.743,24.743,0,0,1,2.314,1.434,43.687,43.687,0,0,1,5.425,5.141c.993,1.018,1.918,2.1,2.868,3.162.179.2.31.3.6.106,2.038-1.377,4.066-2.772,6.151-4.074a26.22,26.22,0,0,1,3.172-1.567,2.508,2.508,0,0,1,2.63.312,13.206,13.206,0,0,1,1.871,1.489c1.823,1.926,3.591,3.9,5.379,5.864C89.234,22.47,89.431,22.691,89.711,23ZM4.125,26.743a17.75,17.75,0,0,1,1.881-.2q16.163-.013,32.327,0h.691c-.1-1.279-.205-2.515-.31-3.8-.206-.019-.442-.059-.677-.059-4.045-.008-8.09-.025-12.134,0a2.549,2.549,0,0,1-1.781-.656c-1.7-1.459-3.427-2.879-5.108-4.355a2.466,2.466,0,0,0-1.771-.648c-3.037.023-6.075,0-9.113.01a8.914,8.914,0,0,0-1.194.087,3.267,3.267,0,0,0-2.8,2.81C4.091,22.219,4.125,24.5,4.125,26.743Z" transform="translate(-0.307 -0.308)" fill="#5e5a55" stroke="#5e5a55" stroke-miterlimit="10" stroke-width="1"/>
          <path id="Path_611730" data-name="Path 611730" d="M152.41,137.586c0-1.519-.042-3.04.017-4.557a9.535,9.535,0,0,1,.384-2.347,2.612,2.612,0,0,1,3.585-1.729,7.745,7.745,0,0,1,1.164.558c3.037,1.736,6.079,3.465,9.094,5.238a6.631,6.631,0,0,1,1.686,1.387,2.3,2.3,0,0,1-.084,3.225,6.767,6.767,0,0,1-1.567,1.239q-4.633,2.709-9.306,5.349a5.615,5.615,0,0,1-1.552.6,2.425,2.425,0,0,1-2.9-1.551,9.694,9.694,0,0,1-.5-2.661c-.079-1.579-.022-3.166-.022-4.749m1.858.053h-.026c0,2.029-.006,4.059,0,6.088a1.129,1.129,0,0,0,1.619,1.184,2.843,2.843,0,0,0,.568-.248q4.9-2.809,9.794-5.634a4.257,4.257,0,0,0,.929-.813.663.663,0,0,0,.04-.957,6.5,6.5,0,0,0-1.294-1.1c-2.919-1.712-5.857-3.389-8.792-5.071a10.271,10.271,0,0,0-1.2-.593,1.132,1.132,0,0,0-1.657,1.155c.05,2,.015,3.994.015,5.992" transform="translate(-93.697 -79.162)" fill="#5e5a55"/>
          <path id="Path_611731" data-name="Path 611731" d="M152.41,137.586c0-1.519-.042-3.04.017-4.557a9.535,9.535,0,0,1,.384-2.347,2.612,2.612,0,0,1,3.585-1.729,7.745,7.745,0,0,1,1.164.558c3.037,1.736,6.079,3.465,9.094,5.238a6.631,6.631,0,0,1,1.686,1.387,2.3,2.3,0,0,1-.084,3.225,6.767,6.767,0,0,1-1.567,1.239q-4.633,2.709-9.306,5.349a5.615,5.615,0,0,1-1.552.6,2.425,2.425,0,0,1-2.9-1.551,9.694,9.694,0,0,1-.5-2.661C152.353,140.756,152.41,139.169,152.41,137.586Zm1.858.053h-.026c0,2.029-.006,4.059,0,6.088a1.129,1.129,0,0,0,1.619,1.184,2.843,2.843,0,0,0,.568-.248q4.9-2.809,9.794-5.634a4.257,4.257,0,0,0,.929-.813.663.663,0,0,0,.04-.957,6.5,6.5,0,0,0-1.294-1.1c-2.919-1.712-5.857-3.389-8.792-5.071a10.271,10.271,0,0,0-1.2-.593,1.132,1.132,0,0,0-1.657,1.155C154.3,133.643,154.267,135.641,154.267,137.639Z" transform="translate(-93.697 -79.162)" fill="#5e5a55" stroke="#5e5a55" stroke-miterlimit="10" stroke-width="1"/>
          <path id="Path_611732" data-name="Path 611732" d="M180.273,17.389a4.566,4.566,0,1,1-9.131-.143,4.668,4.668,0,0,1,4.673-4.5,4.618,4.618,0,0,1,4.457,4.642m-7.5-.057a2.96,2.96,0,0,0,3,2.988,2.965,2.965,0,0,0-.054-5.93,2.9,2.9,0,0,0-2.943,2.941" transform="translate(-105.227 -7.837)" fill="#5e5a55"/>
          <path id="Path_611733" data-name="Path 611733" d="M180.273,17.389a4.566,4.566,0,1,1-9.131-.143,4.668,4.668,0,0,1,4.673-4.5A4.618,4.618,0,0,1,180.273,17.389Zm-7.5-.057a2.96,2.96,0,0,0,3,2.988,2.965,2.965,0,0,0-.054-5.93A2.9,2.9,0,0,0,172.77,17.332Z" transform="translate(-105.227 -7.837)" fill="#5e5a55" stroke="#5e5a55" stroke-miterlimit="10" stroke-width="1"/>
        </g>
      </g>
    </g>
  </g>
</svg>
