<svg xmlns="http://www.w3.org/2000/svg" xmlns:xlink="http://www.w3.org/1999/xlink" width="107" height="107" viewBox="0 0 107 107">
  <defs>
    <clipPath id="clip-path">
      <rect id="Rectangle_378782" data-name="Rectangle 378782" width="75" height="75" transform="translate(304.667 4462.016)" fill="#fff" stroke="#707070" stroke-width="1"/>
    </clipPath>
    <clipPath id="clip-path-2">
      <rect id="Rectangle_378781" data-name="Rectangle 378781" width="65.987" height="65.78" fill="#fff"/>
    </clipPath>
  </defs>
  <g id="Grupo_156312" data-name="Grupo 156312" transform="translate(-288.668 -4448.016)">
    <path id="Elipse_5845" data-name="Elipse 5845" d="M53.5,0A53.5,53.5,0,1,1,0,53.5,53.5,53.5,0,0,1,53.5,0Z" transform="translate(288.668 4448.016)" fill="#5e5a55"/>
    <g id="Mask_Group_154415" data-name="Mask Group 154415" transform="translate(0.001 2)" clip-path="url(#clip-path)">
      <g id="Group_1074393" data-name="Group 1074393" transform="translate(309.174 4466.521)">
        <g id="Group_1074392" data-name="Group 1074392" transform="translate(0)" clip-path="url(#clip-path-2)">
          <path id="Path_612947" data-name="Path 612947" d="M39.628,104.717c.406-.155.719-.265,1.025-.393a3.143,3.143,0,0,0,2-1.944,2.628,2.628,0,0,0-.675-2.794c-.525-.526-1.134-.968-1.7-1.456a9.279,9.279,0,0,1-2.087-2.5.532.532,0,0,1,0-.62c.285-.447.563-.9.807-1.368a4.693,4.693,0,0,0,.433-1.088,2.207,2.207,0,0,0-.026-.89,2.948,2.948,0,0,0-.3-.8,8.175,8.175,0,0,1-.844-3.126,15.253,15.253,0,0,0-2.635-7.428c-.2-.29-.407-.579-.632-.85a.949.949,0,0,0-1.655.458,1.173,1.173,0,0,0,.338.909c.3.446.629.879.9,1.342a12.634,12.634,0,0,1,1.683,4.92,17.586,17.586,0,0,0,.22,1.957,9.8,9.8,0,0,0,.78,2.24,1.58,1.58,0,0,1-.119,1.843,10.134,10.134,0,0,0-.623,1.033,2.267,2.267,0,0,0,.031,2.378,11.64,11.64,0,0,0,2.842,3.273c.361.287.725.574,1.062.888.8.743.542,1.329-.284,1.776-.282.153-.6.235-.9.366a5,5,0,0,0-.7.361,1.682,1.682,0,0,0-.517,2.33A9.24,9.24,0,0,0,39,106.694c.114.132.254.243.468.443a1.517,1.517,0,0,0-.3.178c-.389.387-.782.771-1.148,1.18a.718.718,0,0,0,.032,1.009c.2.211.432.4.695.636-.254.126-.433.217-.614.3a2.109,2.109,0,0,0-1.035.923,1.54,1.54,0,0,0-.044,1.39,2.013,2.013,0,0,0,.149.287,2.545,2.545,0,0,1-1.31,3.688,5.682,5.682,0,0,1-3.026.367c-.32-.045-.645-.052-.966-.083-.341-.033-.68-.073-1.02-.114-1.07-.129-2.136-.323-3.21-.376a6.248,6.248,0,0,0-4.738,1.863,12.691,12.691,0,0,0-2.765,4.2c-.147.332-.285.667-.432,1a1.3,1.3,0,0,1-1.529.638c-1.308-.408-2.653-.694-3.982-1.034q-3.332-.851-6.663-1.706-2.235-.571-4.471-1.137c-1.041-.263-1.438-.724-1.012-2,.161-.483.353-.957.482-1.449a.85.85,0,0,0-.58-1.049.891.891,0,0,0-1.152.491,20.022,20.022,0,0,0-.744,2.136,2.983,2.983,0,0,0,1.89,3.476,9.813,9.813,0,0,0,1.043.307c1.936.5,3.874.989,5.81,1.486,2.135.549,4.267,1.105,6.4,1.652,1.044.267,2.084.562,3.142.761a2.724,2.724,0,0,0,1.93-.476,3.542,3.542,0,0,0,1.289-1.6c.456-.954.9-1.917,1.435-2.829a7.5,7.5,0,0,1,1.195-1.485,4.651,4.651,0,0,1,4.074-1.32c1.5.189,2.993.412,4.494.576a6.993,6.993,0,0,0,4.529-.935,4.572,4.572,0,0,0,1.971-2.582,3.754,3.754,0,0,0-.309-3.115c-.1-.184-.035-.273.13-.336.092-.035.186-.062.279-.093a1.612,1.612,0,0,0,1.123-1.931c-.063-.312-.214-.605-.306-.912a.313.313,0,0,1,.048-.261c.2-.2.427-.377.63-.576a1.705,1.705,0,0,0-.173-2.624c-.371-.264-.693-.6-1.087-.945" transform="translate(23.192 -60.42)" fill="#fff"/>
          <path id="Path_612948" data-name="Path 612948" d="M74.823,124.458a3.215,3.215,0,0,1,2.683-.547c.171.043.337.105.506.154a1.108,1.108,0,0,0,.856-.081c.155-.083.323-.143.48-.222a2.265,2.265,0,0,1,2.982,1.535.952.952,0,0,0,.955.76c.137,0,.275-.006.412-.005a1.308,1.308,0,0,1,1.381,1.21,1.359,1.359,0,0,1-.953,1.391c-.579.2-.908.545-.837,1.093a2.685,2.685,0,0,1-3.219,2.781,1.133,1.133,0,0,0-1.146.415,1.98,1.98,0,0,1-2.447.358,3.807,3.807,0,0,1-.4-.305.916.916,0,0,0-1.09-.132,6.237,6.237,0,0,1-.742.354,3.062,3.062,0,0,1-3.887-1.679,1.773,1.773,0,0,0-.4-.6.752.752,0,0,0-1.111-.039.884.884,0,0,0-.32,1.11,3.388,3.388,0,0,0,.231.508c.113.18.069.275-.1.37a5.037,5.037,0,0,1-1.793.622,4.753,4.753,0,0,1-5.2-3.025c-.093-.235-.111-.5-.2-.735a2.368,2.368,0,0,0-.373-.747.825.825,0,0,0-1.055-.129.935.935,0,0,0-.49,1.041,6.783,6.783,0,0,0,3.4,4.715.553.553,0,0,1,.309.433,4.773,4.773,0,0,0,3,3.72,4.552,4.552,0,0,0,4.352-.46,3.143,3.143,0,0,1,1.322-.549c-.093.33-.175.637-.266.942-.208.7-.432,1.4-.627,2.113a1.675,1.675,0,0,0,1.508,2.285,16.812,16.812,0,0,0,2.589,0,2.186,2.186,0,0,0,2-1.727c.636-1.978,1.254-3.962,1.894-5.939a1.692,1.692,0,0,1,.333-.459c.035-.044.1-.067.14-.107a1.861,1.861,0,0,1,1.3-.464,4.41,4.41,0,0,0,3.718-2.188c.057-.09.117-.178.17-.257a8.3,8.3,0,0,0,1.137.444,7.967,7.967,0,0,0,1.536.21.834.834,0,0,0,.91-.778.877.877,0,0,0-.739-1.033c-.18-.046-.366-.071-.549-.1a5.418,5.418,0,0,1-.75-.137,4.364,4.364,0,0,1-.918-.46.5.5,0,0,0,.139-.042,3.216,3.216,0,0,0-.943-5.831,1.541,1.541,0,0,1-.958-.677,4.007,4.007,0,0,0-4.728-1.617,2.465,2.465,0,0,1-1.319.049,4.954,4.954,0,0,0-3.78.931.447.447,0,0,1-.528.057,3.53,3.53,0,0,0-4.7,1.716.931.931,0,0,0,.649,1.37.839.839,0,0,0,.905-.348c.118-.156.209-.332.32-.494a1.5,1.5,0,0,1,1.47-.68,1.546,1.546,0,0,1,1.415,1.109c.049.149.093.3.152.445a.94.94,0,0,0,1.811-.434,2.922,2.922,0,0,0-.152-.625c-.064-.193-.16-.375-.254-.588m-1.952,16.8c.148-.488.289-.945.424-1.4.436-1.486.876-2.97,1.3-4.459a.7.7,0,0,1,1-.449,4.346,4.346,0,0,0,1.116.427c.286.05.3.145.237.354-.169.553-.338,1.105-.515,1.655q-.583,1.8-1.18,3.6c-.035.1-.142.26-.22.262-.713.02-1.427.012-2.161.012M70.048,134.2a7.267,7.267,0,0,0,.9.525c.457.189.941.314,1.409.477a2.263,2.263,0,0,1,.345.19c-.09.095-.164.221-.274.277a1.9,1.9,0,0,1-.6.217,5.235,5.235,0,0,0-2.273.889,2.878,2.878,0,0,1-3.956-.8,5.252,5.252,0,0,1-.3-.586,6.474,6.474,0,0,0,4.75-1.19" transform="translate(-36.376 -92.932)" fill="#fff"/>
          <path id="Path_612949" data-name="Path 612949" d="M48.815,78.263c-.539.1-1.077.2-1.618.28a.523.523,0,0,1-.382-.088,6.692,6.692,0,0,0-5.493-1.725.975.975,0,0,0-.883,1,.96.96,0,0,0,1.091.873,4.816,4.816,0,0,1,3.8,1.052,8.822,8.822,0,0,1,.686.687.98.98,0,0,0,1.316.184,3.268,3.268,0,0,1,2.9-.036,3.186,3.186,0,0,1,1.842,2.132c.114.412.2.857.677,1.039a1.819,1.819,0,0,0,.278.094,3.9,3.9,0,0,1,3.161,2.87,4.016,4.016,0,0,1-.25,3.042,1.2,1.2,0,0,0,.079,1.295,3.446,3.446,0,0,1,.159,3.554,2.18,2.18,0,0,0-.237.717.863.863,0,0,0,.615.876.8.8,0,0,0,.955-.241,3.172,3.172,0,0,0,.468-.743,5.159,5.159,0,0,0,0-4.5,1.163,1.163,0,0,1-.017-.929,5.823,5.823,0,0,0-.263-4.415,5.945,5.945,0,0,0-3.348-3.1.95.95,0,0,1-.637-.589,5.439,5.439,0,0,0-4.9-3.328" transform="translate(-2.072 -58.541)" fill="#fff"/>
          <path id="Path_612950" data-name="Path 612950" d="M164.925,135.5a22.48,22.48,0,0,0,.934,6,15.643,15.643,0,0,0,2.571,4.669,31.618,31.618,0,0,0,3.831,3.993,2.784,2.784,0,0,1,.976,2.114,13.609,13.609,0,0,1-.085,1.614,1.024,1.024,0,0,0,.881,1.155.989.989,0,0,0,.988-.892,8.934,8.934,0,0,0-.013-2.961,3.5,3.5,0,0,0-.956-1.889c-.706-.71-1.447-1.386-2.159-2.09a15.469,15.469,0,0,1-4.517-7.216,23.046,23.046,0,0,1-.5-3.7c-.042-.509-.063-1.02-.1-1.529a.907.907,0,0,0-.884-.914.944.944,0,0,0-.962.855,6.387,6.387,0,0,0-.006.794" transform="translate(-148.153 -102.193)" fill="#fff"/>
          <path id="Path_612951" data-name="Path 612951" d="M210.764,34.845a4.239,4.239,0,0,0-4.242-4.256,4.272,4.272,0,1,0,4.242,4.256M206.5,32.514a2.318,2.318,0,0,1,2.413,2.246,2.4,2.4,0,1,1-4.807.126,2.334,2.334,0,0,1,2.394-2.371" transform="translate(-192.612 -23.354)" fill="#fff"/>
          <path id="Path_612952" data-name="Path 612952" d="M157.355,19.544c2.292.173,4.055-2.131,4.117-3.815a4.176,4.176,0,0,0-4.116-4.336,4.083,4.083,0,0,0-4.1,4.129,4.034,4.034,0,0,0,4.1,4.022m.024-6.222a2.179,2.179,0,0,1,2.19,2.179,2.208,2.208,0,0,1-2.148,2.167,2.183,2.183,0,0,1-2.26-2.157,2.158,2.158,0,0,1,2.218-2.189" transform="translate(-131.735 -8.698)" fill="#fff"/>
          <path id="Path_612953" data-name="Path 612953" d="M163.792,98.806a4,4,0,1,0-4.049-4.014,3.983,3.983,0,0,0,4.049,4.014m0-1.9a2.071,2.071,0,0,1-2.152-2.132,2.13,2.13,0,0,1,2.138-2.11,2.1,2.1,0,0,1,2.157,2.12,2.059,2.059,0,0,1-2.142,2.122" transform="translate(-139.636 -69.326)" fill="#fff"/>
          <path id="Path_612954" data-name="Path 612954" d="M241.746,58.994a4.016,4.016,0,1,0-.016,8.032,4.017,4.017,0,1,0,.016-8.032m.014,6.151a2.087,2.087,0,0,1-2.172-2.125,2.128,2.128,0,0,1,2.107-2.143,2.189,2.189,0,0,1,2.2,2.151,2.147,2.147,0,0,1-2.135,2.117" transform="translate(-236.04 -45.041)" fill="#fff"/>
          <path id="Path_612955" data-name="Path 612955" d="M254.091,3.806A3.891,3.891,0,0,0,250.271,0a3.85,3.85,0,0,0-3.9,3.857,3.8,3.8,0,0,0,3.871,3.816,3.862,3.862,0,0,0,3.845-3.868m-3.867,1.971a1.888,1.888,0,0,1-1.97-1.917,1.871,1.871,0,0,1,1.927-1.974,1.9,1.9,0,0,1,2,1.925,1.941,1.941,0,0,1-1.961,1.967" transform="translate(-246.375 0)" fill="#fff"/>
          <path id="Path_612956" data-name="Path 612956" d="M48.676,52.81a23.9,23.9,0,0,1,6.572.859,18.777,18.777,0,0,1,5.21,2.341c.306.2.612.443,1.029.3a.921.921,0,0,0,.7-.754.856.856,0,0,0-.4-.915c-.65-.4-1.3-.811-1.974-1.168a21.294,21.294,0,0,0-6.558-2.169,24.668,24.668,0,0,0-5.91-.418,3.805,3.805,0,0,0-.834.154A.849.849,0,0,0,45.9,52a.82.82,0,0,0,.747.782,10.009,10.009,0,0,0,1.086.026c.314,0,.628,0,.942,0" transform="translate(-7.067 -38.818)" fill="#fff"/>
          <path id="Path_612957" data-name="Path 612957" d="M204.258,79.406a3.569,3.569,0,1,0,3.592,3.534,3.534,3.534,0,0,0-3.592-3.534m0,5.261a1.759,1.759,0,0,1-1.724-1.7,1.809,1.809,0,0,1,.516-1.188,1.749,1.749,0,0,1,1.375-.426,1.609,1.609,0,0,1,1.54,1.609,1.736,1.736,0,0,1-1.706,1.71" transform="translate(-189.321 -60.624)" fill="#fff"/>
          <path id="Path_612958" data-name="Path 612958" d="M171.492,59.879a3.588,3.588,0,0,0,3.6-3.582,3.633,3.633,0,0,0-3.648-3.529,3.6,3.6,0,0,0-3.551,3.638,3.557,3.557,0,0,0,3.6,3.472m-.006-1.916a1.594,1.594,0,0,1-1.714-1.614,1.7,1.7,0,1,1,3.394.009c.008.823-.835,1.769-1.68,1.606" transform="translate(-148.808 -40.287)" fill="#fff"/>
          <path id="Path_612959" data-name="Path 612959" d="M138.3,49.074a3.389,3.389,0,0,0-6.779-.022,3.389,3.389,0,0,0,6.779.022m-3.382-1.48a1.407,1.407,0,0,1,1.491,1.436,1.5,1.5,0,0,1-1.541,1.514,1.475,1.475,0,1,1,.05-2.949" transform="translate(-103.426 -34.884)" fill="#fff"/>
          <path id="Path_612960" data-name="Path 612960" d="M126.454,85.528a2.939,2.939,0,1,0-2.93,2.99,2.961,2.961,0,0,0,2.93-2.99m-2.939-.994a1.033,1.033,0,0,1,1.061,1.031,1.1,1.1,0,0,1-1.057,1.093,1.18,1.18,0,0,1-1.079-1.059,1.075,1.075,0,0,1,1.076-1.066" transform="translate(-88.984 -63.103)" fill="#fff"/>
          <path id="Path_612961" data-name="Path 612961" d="M113.022,18.517a2.894,2.894,0,0,0-2.889,2.756,2.888,2.888,0,1,0,2.889-2.756m.946,2.9a.975.975,0,1,1-1.948-.053.949.949,0,0,1,.88-.922c.747,0,1.064.291,1.068.975" transform="translate(-75.967 -14.137)" fill="#fff"/>
          <path id="Path_612962" data-name="Path 612962" d="M222.825,121.825a2.852,2.852,0,1,0-2.851,2.88,2.88,2.88,0,0,0,2.851-2.88m-1.919,0a1,1,0,0,1-.95,1.017,1.013,1.013,0,0,1-.938-1.017.917.917,0,0,1,.972-.975.871.871,0,0,1,.916.976" transform="translate(-208.198 -90.798)" fill="#fff"/>
        </g>
      </g>
    </g>
  </g>
</svg>
