<svg xmlns="http://www.w3.org/2000/svg" xmlns:xlink="http://www.w3.org/1999/xlink" width="125" height="125" viewBox="0 0 125 125">
  <defs>
    <clipPath id="clip-path">
      <rect id="Rectangle_378666" data-name="Rectangle 378666" width="91" height="91" transform="translate(404 1177)" fill="#fff" stroke="#707070" stroke-width="1"/>
    </clipPath>
    <clipPath id="clip-path-2">
      <rect id="Rectangle_378684" data-name="Rectangle 378684" width="73.333" height="87.667" fill="#5e5a55"/>
    </clipPath>
  </defs>
  <g id="Group_1074724" data-name="Group 1074724" transform="translate(-6953 10127.856)">
    <g id="Group_1074235" data-name="Group 1074235" transform="translate(6567 -12273.856)">
      <path id="Path_608385" data-name="Path 608385" d="M62.5,0A62.5,62.5,0,1,1,0,62.5,62.5,62.5,0,0,1,62.5,0Z" transform="translate(386 2146)" fill="#fff"/>
    </g>
    <g id="Mask_Group_154401" data-name="Mask Group 154401" transform="translate(6566 -11287)" clip-path="url(#clip-path)">
      <g id="Group_1074262" data-name="Group 1074262" transform="translate(413 1179)">
        <g id="Group_1074261" data-name="Group 1074261" clip-path="url(#clip-path-2)">
          <path id="Path_612466" data-name="Path 612466" d="M46.985,72.846c.376,2.564.747,5.1,1.12,7.65.9,0,1.72.067,2.528-.014A3.868,3.868,0,0,1,54.463,83.8a12.107,12.107,0,0,1,.082,2.186,1.674,1.674,0,0,1-1.759,1.662c-2.014.03-4.03.017-6.045.017q-12.618,0-25.237,0a8.881,8.881,0,0,1-1.427-.108,1.322,1.322,0,0,1-.665-.338,1.113,1.113,0,0,0-.873-.306c-1,0-2-.009-2.995-.1a3.717,3.717,0,0,1-3.169-3.721c-.022-.99-.015-1.98,0-2.97a.712.712,0,0,0-.3-.653,4.075,4.075,0,0,1-1.455-1.857.622.622,0,0,0-.33-.282c-.439-.193-.891-.353-1.333-.539a5.908,5.908,0,0,1-3.448-3.725.549.549,0,0,0-.36-.31A6.2,6.2,0,0,1,.487,69.432a4.23,4.23,0,0,1-.442-1.991C.02,66.566,0,65.69,0,64.815Q0,44.9,0,24.988a23.172,23.172,0,0,1,.118-2.922A5.076,5.076,0,0,1,2.2,18.7a5.794,5.794,0,0,1,3.7-1.116c3.213-.021,6.426.021,9.639.008.979,0,1.958-.1,2.991-.161-.59-3.544.432-6.481,3.306-8.54,2.9-2.076,5.958-1.9,9.049-.209A11.48,11.48,0,0,1,38.433.586a10.454,10.454,0,0,1,7.6.276,11.564,11.564,0,0,1,6.9,13.42c.4.046.8.09,1.2.136a9.317,9.317,0,0,1,5.592,2.76,1.3,1.3,0,0,0,1.011.407c2.128-.018,4.256-.036,6.384-.011a6.613,6.613,0,0,1,3.317.694,5.543,5.543,0,0,1,2.885,5.178c-.006,3.487,0,6.975,0,10.462q0,16.426.014,32.852a5.767,5.767,0,0,1-2.547,5.208,5.908,5.908,0,0,1-3.434.851q-9.09.006-18.18,0c-.606,0-1.211-.012-1.817-.014-.094,0-.188.02-.369.04M10.252,55.537c0-.517-.009-.987,0-1.457a5.673,5.673,0,0,1,.077-.854,4.07,4.07,0,0,1,3.556-3.292,3.814,3.814,0,0,1,3.81,2.859,14.73,14.73,0,0,1,.272,2.076c.022.181.03.363.045.562H66.742V24.013c-1.293,0-2.532.009-3.772-.007-.331,0-.36.173-.368.43a9.254,9.254,0,0,1-1.091,4.113A9.53,9.53,0,0,1,52.6,33.89q-16.845.046-33.691,0a9.064,9.064,0,0,1-1.634-.165A8.258,8.258,0,0,1,10.656,24.6a3.809,3.809,0,0,0,0-.526c-1.351,0-2.66,0-3.967,0-.228,0-.3.109-.28.32.009.114.01.229.01.344Q6.416,39.978,6.4,55.218c0,.253.082.324.315.322,1.155-.007,2.31,0,3.534,0M35.84,31.865q7.356,0,14.713,0c.578,0,1.156.031,1.733.015a14.038,14.038,0,0,0,2.016-.128,7.74,7.74,0,0,0,.813-14.993,9.052,9.052,0,0,0-3.475-.207.981.981,0,0,1-1.178-.783,1.694,1.694,0,0,1,.108-.788,10.493,10.493,0,0,0,.559-4.573,9.493,9.493,0,0,0-3.206-6.023,9.168,9.168,0,0,0-10.386-1.15,9.268,9.268,0,0,0-4.881,7.447A1,1,0,0,1,32,11.6a1.023,1.023,0,0,1-1.157-.28,6.059,6.059,0,0,0-10.274,2.928,6.719,6.719,0,0,0,.366,3.916.92.92,0,0,1-.954,1.363c-.451,0-.9.009-1.353-.016a4.554,4.554,0,0,0-1.779.265,6.208,6.208,0,0,0-4.187,6.158,6.094,6.094,0,0,0,4.889,5.808,14.643,14.643,0,0,0,2.69.117q7.8.014,15.6,0M31.928,62.036a.39.39,0,0,0,.04.124,4.657,4.657,0,0,1,1.054,3.058c0,1.507.021,3.014.015,4.52,0,.89-.018.881.831.88q16.72-.006,33.441-.008c.408,0,.819.025,1.224-.013a3.158,3.158,0,0,0,2.6-2.906q0-2.583,0-5.167v-.489ZM12.957,64.867h0q0,5.6,0,11.191a1.438,1.438,0,0,0,1.363,1.515c.2.019.394.029.591.029q6.889,0,13.778-.015a1.738,1.738,0,0,0,1.856-1.915q0-3.594,0-7.188c0-1.177.055-2.357-.017-3.528-.065-1.059-.307-1.452-1.29-1.342-.056.006-.113,0-.169,0a.811.811,0,0,0-.852.718,3.247,3.247,0,0,0-.037.6c0,1.291,0,2.583,0,3.874a1.36,1.36,0,0,1-1.17,1.449,1.333,1.333,0,0,1-1.533-1.417c-.009-1.191,0-2.382,0-3.572a4.241,4.241,0,0,0-.049-.727c-.132-.736-.558-.99-1.5-.92a1.048,1.048,0,0,0-.815,1.131c-.007,1.306-.009,2.611-.017,3.917a3.428,3.428,0,0,1-.038.513,1.254,1.254,0,0,1-1.275,1.132,1.24,1.24,0,0,1-1.327-1.067,3.1,3.1,0,0,1-.046-.6c0-1.277,0-2.554,0-3.831a1.4,1.4,0,0,0-.721-1.177,1.171,1.171,0,0,0-1.473.515,1.836,1.836,0,0,0-.164.783c-.016,1.305,0,2.611-.01,3.916a1.392,1.392,0,0,1-1.09,1.4A1.286,1.286,0,0,1,15.4,69.238a2.493,2.493,0,0,1-.076-.677q-.006-6.994-.005-13.989a6.045,6.045,0,0,0-.05-.857,1.309,1.309,0,0,0-1.285-1.121,1.233,1.233,0,0,0-1.032,1.3V64.867m48.8-45.054c.206.621.416,1.182.574,1.758a.426.426,0,0,0,.5.376c1.423-.015,2.847,0,4.27-.01A1.7,1.7,0,0,1,68.792,23a3.618,3.618,0,0,1,.3,1.4q.025,15.543.013,31.086c0,.144,0,.287,0,.431A1.716,1.716,0,0,1,67.5,57.745a4.055,4.055,0,0,1-.591.019H17.987c0,.4,0,.752,0,1.106-.007.972-.008.976.932.977l51.2,0h1.018v-.419q0-18.342,0-36.684a2.77,2.77,0,0,0-.054-.6,2.993,2.993,0,0,0-2.9-2.357c-2.057-.031-4.115-.011-6.172-.011a2.093,2.093,0,0,0-.242.028M10.236,57.764H6.269c-1.4,0-2-.593-2.022-2-.007-.359-.009-.717-.009-1.076q0-13.237,0-26.473c0-1.377.009-2.755.013-4.132a2.052,2.052,0,0,1,2.155-2.164c1.59.069,3.184.027,4.776.012a.621.621,0,0,0,.42-.239c.39-.524.751-1.069,1.123-1.607l.2-.286c-2.753,0-5.443-.049-8.131.019a2.994,2.994,0,0,0-2.659,2.955q0,18.273,0,36.546v.494h8.1ZM33.048,72.789c0,.815.03,1.558-.009,2.3A11.633,11.633,0,0,1,32.8,77.17a3.758,3.758,0,0,1-1.674,2.291.676.676,0,0,0-.262.786c.019.088.318.157.489.157q6.908.017,13.816.015c.736,0,.736,0,.663-.766-.005-.057-.013-.114-.022-.171-.224-1.413-.451-2.824-.67-4.238-.11-.707-.206-1.415-.306-2.124-.032-.231-.131-.347-.387-.346q-5.2.015-10.393.013H33.048M30.113,85.427h21.36c.93,0,.93,0,.9-.968a1.741,1.741,0,0,0-1.916-1.9H30.9a4.927,4.927,0,0,1-.79,2.863m-8.473-4.885v-.026c-2.085,0-4.17,0-6.255-.006-.266,0-.382.053-.376.351.016.717-.008,1.435.006,2.152a1.1,1.1,0,0,0,1.264,1.251q4.015-.018,8.029-.031c.944,0,1.888.024,2.831.028a1.007,1.007,0,0,0,1.129-1.125c0-.76-.016-1.521-.017-2.281,0-.228-.056-.322-.315-.321-2.1.013-4.2.008-6.3.008M2.136,62.07v.491c0,1.62.034,3.241-.015,4.858a2.539,2.539,0,0,0,.821,1.939,4.712,4.712,0,0,0,1.972,1.2,2.861,2.861,0,0,0,.353.063c.014-.2.035-.35.035-.5,0-1.433,0-2.866-.015-4.3a4.038,4.038,0,0,1,1.7-3.628c.015-.01.008-.051.018-.12ZM10.207,74.46a.6.6,0,0,0,.043-.143c0-3.068.01-6.136,0-9.2a.864.864,0,0,0-.229-.521,1.131,1.131,0,0,0-1.378-.308,1.331,1.331,0,0,0-.754,1.187c0,1.95.01,3.9-.007,5.85a3.452,3.452,0,0,0,.526,1.828,2.706,2.706,0,0,0,1.8,1.311" transform="translate(0 -0.001)" fill="#5e5a55"/>
          <path id="Path_612467" data-name="Path 612467" d="M35.4,115.829c-2.366,0-4.732,0-7.1,0-1.5,0-2.188-.7-2.188-2.268q0-3.7.013-7.4c0-.7-.011-1.406.011-2.108.049-1.539.739-2.207,2.247-2.205l12.971.01c.451,0,.9-.012,1.352,0a1.926,1.926,0,0,1,1.978,1.977q.039,5.034,0,10.068a1.854,1.854,0,0,1-1.941,1.921q-3.675.007-7.351,0m7.1-11.7H28.32v9.584H42.507Z" transform="translate(-17.284 -66.656)" fill="#5e5a55"/>
          <path id="Path_612468" data-name="Path 612468" d="M110.078,114.753c.465.039.889.041,1.3.117a1.42,1.42,0,0,1,1.074,1.821,4.422,4.422,0,0,1-.374.861q-.91,1.649-1.843,3.284a1.384,1.384,0,0,1-2.478.131c-.758-1.187-1.427-2.435-2.1-3.679a2.91,2.91,0,0,1-.305-1.126,1.1,1.1,0,0,1,.857-1.211,3.638,3.638,0,0,1,.743-.148,7.3,7.3,0,0,1,.736-.005,2.625,2.625,0,0,0,.04-.316q-.008-3.809-.017-7.618a7.633,7.633,0,0,1,.059-.9,1.107,1.107,0,0,1,1.074-1.066,1.046,1.046,0,0,1,1.135.928,4.609,4.609,0,0,1,.094.937c.007,2.511,0,5.021,0,7.532v.455" transform="translate(-69.721 -68.65)" fill="#5e5a55"/>
          <path id="Path_612469" data-name="Path 612469" d="M139.019,111.022v8.214c0,.129,0,.258,0,.387a1.228,1.228,0,0,1-1.169,1.233,1.177,1.177,0,0,1-1.132-1.244c-.006-2.71-.012-5.421.01-8.131,0-.438-.1-.565-.534-.556a2.874,2.874,0,0,1-1.067-.2,1.374,1.374,0,0,1-.688-1.958c.727-1.309,1.476-2.606,2.205-3.914a1.4,1.4,0,0,1,1.472-.777,1.492,1.492,0,0,1,1.148.911c.564.975,1.108,1.962,1.654,2.947a10.635,10.635,0,0,1,.485.953,1.333,1.333,0,0,1-.756,1.823,12.234,12.234,0,0,1-1.626.318" transform="translate(-88.853 -68.104)" fill="#5e5a55"/>
          <path id="Path_612470" data-name="Path 612470" d="M106.31,187.621a2.12,2.12,0,1,1-4.239-.006,2.172,2.172,0,0,1,2.121-2.181,2.2,2.2,0,0,1,2.118,2.187" transform="translate(-67.551 -121.357)" fill="#5e5a55"/>
        </g>
      </g>
    </g>
  </g>
</svg>
