<svg xmlns="http://www.w3.org/2000/svg" xmlns:xlink="http://www.w3.org/1999/xlink" width="107" height="107" viewBox="0 0 107 107">
  <defs>
    <clipPath id="clip-path">
      <rect id="Rectangle_378782" data-name="Rectangle 378782" width="75" height="75" transform="translate(0 0)" fill="#fff" stroke="#707070" stroke-width="1"/>
    </clipPath>
    <clipPath id="clip-path-2">
      <rect id="Rectangle_378783" data-name="Rectangle 378783" width="51.454" height="75" fill="#fff"/>
    </clipPath>
  </defs>
  <g id="Grupo_156312" data-name="Grupo 156312" transform="translate(-288.668 -4448.016)">
    <path id="Elipse_5845" data-name="Elipse 5845" d="M53.5,0A53.5,53.5,0,1,1,0,53.5,53.5,53.5,0,0,1,53.5,0Z" transform="translate(288.668 4448.016)" fill="#5e5a55"/>
    <g id="Mask_Group_154415" data-name="Mask Group 154415" transform="translate(304.668 4464.016)" clip-path="url(#clip-path)">
      <g id="Group_1074395" data-name="Group 1074395" transform="translate(11.547 0)">
        <g id="Group_1074394" data-name="Group 1074394" clip-path="url(#clip-path-2)">
          <path id="Path_612963" data-name="Path 612963" d="M31.635,16.192v-.758c0-1.658,0-3.316-.005-4.974a.639.639,0,0,1,.234-.517c1.386-1.3,2.762-2.61,4.149-3.909a.342.342,0,0,1,.3-.064,3.042,3.042,0,0,0,3.75-1A2.892,2.892,0,0,0,39.348.78a2.857,2.857,0,0,0-4.2.706,2.928,2.928,0,0,0-.359,2.9.323.323,0,0,1-.092.406C33.315,6.137,31.945,7.5,30.544,8.834a2.146,2.146,0,0,0-.753,1.7c.03,1.646,0,3.293,0,4.94,0,.065-.007.131-.011.2l-4.57-.48v-.263c0-2.924,0-5.848-.006-8.772a.449.449,0,0,1,.3-.478,3.112,3.112,0,0,0,1.688-1.813,2.971,2.971,0,0,0-.91-3.1,3.01,3.01,0,0,0-3.258-.5,2.837,2.837,0,0,0-1.793,2.688,2.7,2.7,0,0,0,1.615,2.648.751.751,0,0,1,.5.8c-.02,2.812-.01,5.624-.01,8.436v.34l-4.819.6v-.289c0-1.792-.012-3.585.008-5.377a1.294,1.294,0,0,0-.448-1.071c-1.38-1.289-2.712-2.631-4.08-3.933a.677.677,0,0,1-.23-.849A2.966,2.966,0,0,0,8.041,2.7a2.781,2.781,0,0,0,.8,3.022,2.769,2.769,0,0,0,3.155.607A.762.762,0,0,1,13.01,6.5c1.2,1.215,2.453,2.384,3.673,3.582a.722.722,0,0,1,.2.461c.012,1.826,0,3.652.009,5.477,0,.226-.143.241-.289.295-1.149.422-2.327.78-3.44,1.284A21.38,21.38,0,0,0,1.819,29.14,39.022,39.022,0,0,0,.63,32.869,9.282,9.282,0,0,0,.073,35a17.411,17.411,0,0,0,.175,4.685c.369,1.668.679,3.353,1.132,5a44.163,44.163,0,0,0,1.452,4.246c1.06,2.728,2.184,5.432,3.265,8.151a13.262,13.262,0,0,1,1.035,3.353,17.2,17.2,0,0,1-.073,4.286,21.74,21.74,0,0,1-2.185,7.041,20.155,20.155,0,0,1-1.093,1.805.887.887,0,0,0,.67,1.429,2.741,2.741,0,0,0,.3,0H33.508a3.287,3.287,0,0,0,.368-.01.979.979,0,0,0,.863-1.326,20.415,20.415,0,0,1-.7-2.928,7.1,7.1,0,0,1,.207-3.452,2.528,2.528,0,0,1,1.33-1.6,2.361,2.361,0,0,1,.874-.171c1.539.01,3.078.062,4.617.071a9.972,9.972,0,0,0,3.7-.666,4.076,4.076,0,0,0,2.166-1.954,2.85,2.85,0,0,0,.1-2.411,2.179,2.179,0,0,1,.3-2.275,10.841,10.841,0,0,0,.969-1.606,2.181,2.181,0,0,0-.393-2.976,2.16,2.16,0,0,1-.281-2.548,1.383,1.383,0,0,1,.6-.42c.616-.28,1.263-.493,1.863-.8a2.7,2.7,0,0,0,1.142-1.282,2.371,2.371,0,0,0-.25-2.363,7.352,7.352,0,0,0-1.223-1.54,11.243,11.243,0,0,1-2.879-4.881,31.7,31.7,0,0,1-1.051-6.171c-.125-1.088-.141-2.189-.285-3.274a14.883,14.883,0,0,0-1.033-3.771,16.634,16.634,0,0,0-6.594-7.648,23.836,23.836,0,0,0-6.289-2.8m-8.3.715c0,.172,0,.292,0,.413,0,1.109-.006,2.218,0,3.327.006.765.622,1.276,1.238,1.048a1.158,1.158,0,0,0,.634-1.1c0-1.1,0-2.2,0-3.294v-.374a1.522,1.522,0,0,1,.229-.01c1.215.152,2.434.279,3.644.469.76.119.736.161.723.926-.016.929-.018,1.86.011,2.788a.927.927,0,0,0,.871.867.909.909,0,0,0,.9-.747,2.237,2.237,0,0,0,.048-.5c0-.906,0-1.812,0-2.721a.687.687,0,0,1,.159,0,18.307,18.307,0,0,1,8.7,5.215,14.025,14.025,0,0,1,3.45,8.066c.141,1.277.167,2.566.282,3.846a23.6,23.6,0,0,0,1.091,5.447,12.416,12.416,0,0,0,3.541,5.6,3.23,3.23,0,0,1,.551.628A1.213,1.213,0,0,1,49,48.651a10.259,10.259,0,0,1-1.053.4,3.565,3.565,0,0,0-1.315,5.77.981.981,0,0,1,.079,1.413c-.382.591-.812,1.153-1.173,1.757a2.622,2.622,0,0,0-.426,2.2,11.391,11.391,0,0,1,.333,1.4,1.278,1.278,0,0,1-.4,1.189,3.379,3.379,0,0,1-1.636.79,17.564,17.564,0,0,1-4.628.287c-.844-.028-1.692-.126-2.531-.071a3.874,3.874,0,0,0-3.3,2.192,6.982,6.982,0,0,0-.731,4.034c.09.941.315,1.87.488,2.8.074.4.049.44-.37.437-.513,0-1.027-.015-1.54-.015l-24.37.015H5.961c.07-.14.1-.209.138-.275A19.136,19.136,0,0,0,8.071,68.26a31.065,31.065,0,0,0,.851-4.852,12.585,12.585,0,0,0-.756-5.937c-.692-1.708-1.435-3.4-2.136-5.1A84.131,84.131,0,0,1,3.008,44.1a28.147,28.147,0,0,1-1.162-6.05,15.33,15.33,0,0,1,.166-4.117,20.752,20.752,0,0,1,3.263-7.7,21,21,0,0,1,11.212-8.056,3.191,3.191,0,0,1,.4-.069c0,.276,0,.5,0,.72-.005.784-.025,1.568-.013,2.352a.85.85,0,0,0,.869.789.8.8,0,0,0,.773-.833c0-.661,0-1.322,0-1.983V17.562l4.819-.655M38.865,3.2A1.252,1.252,0,0,1,37.6,4.568a1.514,1.514,0,0,1-1.361-1.334A1.4,1.4,0,0,1,37.6,1.855,1.228,1.228,0,0,1,38.865,3.2M24.258,1.736a1.279,1.279,0,1,1,.029,2.557,1.265,1.265,0,0,1-1.327-1.21,1.258,1.258,0,0,1,1.3-1.347M12.085,3.591a1.144,1.144,0,0,1-1.148,1.238A1.2,1.2,0,0,1,9.675,3.68a1.186,1.186,0,0,1,1.305-1.3,1.073,1.073,0,0,1,1.106,1.215" transform="translate(0 0)" fill="#fff"/>
          <path id="Path_612964" data-name="Path 612964" d="M65.251,97.781c.741-.747,1.485-1.5,2.234-2.252a1.567,1.567,0,0,0,.428-1.69,1.829,1.829,0,0,0-.436-.662c-.911-.939-1.811-1.89-2.768-2.78a1.616,1.616,0,0,0-2.576.014q-1,1-1.982,2a.26.26,0,0,1-.365.076c-.72-.35-1.445-.692-2.187-.992a.424.424,0,0,1-.322-.481c.016-.907.008-1.815.006-2.722a1.466,1.466,0,0,0-1.568-1.572q-2.009,0-4.017,0a1.675,1.675,0,0,0-1.856,1.806q-.021,1.259.01,2.519a.436.436,0,0,1-.318.5c-.7.287-1.386.609-2.072.93a.3.3,0,0,1-.41-.058c-.589-.643-1.191-1.274-1.781-1.916a1.616,1.616,0,0,0-2.612-.112c-.946.9-1.869,1.83-2.778,2.771a1.581,1.581,0,0,0,0,2.406c.637.69,1.285,1.37,1.914,2.066a.437.437,0,0,1,.091.363c-.263.735-.563,1.457-.825,2.192-.08.223-.167.316-.417.311-.926-.017-1.852-.008-2.778-.006a1.58,1.58,0,0,0-1.744,1.746q0,1.916,0,3.831a1.709,1.709,0,0,0,1.843,1.877c.9.011,1.808.007,2.711-.006a.339.339,0,0,1,.388.264c.262.736.558,1.461.814,2.2a.467.467,0,0,1-.119.385c-.571.582-1.183,1.127-1.734,1.727a3.032,3.032,0,0,0-.613,1.01,1.286,1.286,0,0,0,.319,1.34c.722.763,1.47,1.5,2.21,2.246.291.294.575.6.883.872a1.519,1.519,0,0,0,2.265-.054q.947-.926,1.871-1.876a.406.406,0,0,1,.521-.123c.7.286,1.41.551,2.123.8.23.081.234.236.232.42-.008.851-.008,1.7-.026,2.554a1.9,1.9,0,0,0,2.067,2.028c1.205,0,2.41,0,3.615,0a1.671,1.671,0,0,0,1.787-1.8c0-.93.007-1.86-.005-2.789a.339.339,0,0,1,.272-.38c.761-.28,1.511-.589,2.273-.868a.4.4,0,0,1,.335.086c.652.595,1.29,1.206,1.937,1.807a3.51,3.51,0,0,0,.541.446,1.344,1.344,0,0,0,1.709-.129q1.721-1.594,3.35-3.285a1.515,1.515,0,0,0-.2-2.093q-.969-.951-1.985-1.853c-.255-.227-.239-.391-.091-.682.323-.635.594-1.3.858-1.96.083-.21.167-.3.4-.292.87.017,1.741.015,2.611.011a1.757,1.757,0,0,0,1.843-1.8c.021-1.321.016-2.644-.021-3.965a1.582,1.582,0,0,0-1.775-1.691c-.893,0-1.785,0-2.678-.007a.4.4,0,0,1-.31-.149c-.176-.434-.3-.891-.478-1.322s-.4-.816-.612-1.226M55.635,88.4c.008.122.02.23.02.339,0,.986,0,1.971-.021,2.957-.016.9.076,1.046.93,1.329.053.017.1.041.158.054a13.144,13.144,0,0,1,2.941,1.174,1,1,0,0,0,1.406-.227c.677-.714,1.349-1.432,2.026-2.146.08-.084.174-.155.293-.259.856.872,1.678,1.724,2.522,2.555.216.213.205.331,0,.533-.76.741-1.5,1.5-2.255,2.25a.868.868,0,0,0-.181,1.046,4.318,4.318,0,0,0,.2.389,8.921,8.921,0,0,1,1.129,2.923,1,1,0,0,0,1.079.853c.8,0,1.606,0,2.409-.006h1.024v3.967H68.92c-.971,0-1.941,0-2.912,0a1.177,1.177,0,0,0-1.213.813,9.57,9.57,0,0,1-1.175,3.12c-.35.683-.337.822.194,1.381q1.04,1.093,2.075,2.192c.081.086.152.181.236.281-.905.91-1.784,1.8-2.676,2.677a.326.326,0,0,1-.311-.042c-.7-.733-1.395-1.48-2.092-2.221a1.044,1.044,0,0,0-1.591-.213,10.217,10.217,0,0,1-3.074,1.274c-.6.148-.743.334-.743.962,0,1.086-.014,2.173-.009,3.259,0,.237-.075.305-.308.3-.993-.01-1.986,0-2.979,0h-.684v-.407c0-.974.016-1.949-.01-2.923a2.982,2.982,0,0,0-.211-.9.492.492,0,0,0-.321-.252,11.972,11.972,0,0,1-3.4-1.347c-.633-.355-.873-.319-1.394.185-.835.807-1.662,1.623-2.52,2.463l-2.784-2.868a1.209,1.209,0,0,0,.209-.139q1.169-1.155,2.33-2.317a.872.872,0,0,0,.184-1.285,11.147,11.147,0,0,1-1.345-3.271.769.769,0,0,0-.591-.615,2.7,2.7,0,0,0-.656-.1c-.982-.01-1.964,0-2.945,0h-.337V102.2c.107,0,.172-.01.237-.01,1.1,0,2.209,0,3.314-.009.627-.006.824-.174.982-.786a10.123,10.123,0,0,1,1.256-3.018,1.084,1.084,0,0,0-.2-1.654c-.145-.139-.3-.271-.443-.41-.637-.608-1.272-1.217-1.9-1.815l2.787-2.8.786.721c.651.6,1.3,1.2,1.954,1.787a.634.634,0,0,0,.729.155c1.11-.456,2.226-.9,3.353-1.314.749-.274.94-.489.942-1.289,0-1,0-1.994,0-2.991V88.4Z" transform="translate(-29.397 -63.401)" fill="#fff"/>
          <path id="Path_612965" data-name="Path 612965" d="M61.94,122.58A10.765,10.765,0,0,0,72.52,133.158c6.078-.329,10.564-4.663,10.531-10.7-.032-5.743-4.285-10.161-10.536-10.531A10.769,10.769,0,0,0,61.94,122.58m1.876,0a7.5,7.5,0,0,1,.535-3.31,8.687,8.687,0,0,1,10.835-5.094,8.379,8.379,0,0,1,6.04,7.064,8.158,8.158,0,0,1-.532,4.606,8.79,8.79,0,0,1-9.9,5.339,8.567,8.567,0,0,1-6.981-8.6" transform="translate(-48.251 -81.832)" fill="#fff"/>
        </g>
      </g>
    </g>
  </g>
</svg>
